<svg xmlns="http://www.w3.org/2000/svg" width="24868" height="25346" viewBox="0 0 24868 25346"><path d="M 10 8840 L 10 8818" stroke="#FF0000" stroke-width="35" fill="none" stroke-linecap="round" stroke-linejoin="round"/>
<path d="M 16072 974 L 16064 974 L 16060 974 L 16060 952 L 16058 952 L 16054 952" stroke="#FFC114" stroke-width="50.00001" fill="none" stroke-linecap="round" stroke-linejoin="round"/>
<path d="M 16218 1022 L 16234 1022 L 16250 1002" stroke="#FFC114" stroke-width="50.00001" fill="none" stroke-linecap="round" stroke-linejoin="round"/>
<path d="M 15966 934 L 15966 934 L 15966 912 L 15966 892 L 15964 892 L 15962 892 L 15958 892 L 15958 866 L 15958 880" stroke="#FFC114" stroke-width="50.00001" fill="none" stroke-linecap="round" stroke-linejoin="round"/>
<path d="M 16222 1002 L 16222 1002 L 16236 1002 L 16232 1002 L 16228 1002 L 16222 1002 L 16214 1002 L 16204 1002 L 16198 1002 L 16186 1002 L 16172 1002 L 16160 1002 L 16148 1002 L 16136 1002 L 16122 1002 L 16114 1002 L 16104 1002 L 16096 982 L 16088 982 L 16086 982 L 16086 952 L 16086 924 L 16098 924 L 16098 892 L 16122 892 L 16138 860 L 16154 860 L 16172 836 L 16190 836 L 16208 836 L 16228 836 L 16248 836 L 16266 836 L 16282 836 L 16298 848 L 16298 868 L 16312 894 L 16312 922 L 16312 952 L 16310 986 L 16304 1020 L 16294 1054 L 16284 1088 L 16272 1122 L 16256 1150 L 16238 1178 L 16218 1178 L 16204 1202 L 16186 1222 L 16170 1238 L 16154 1254 L 16138 1264 L 16132 1274 L 16128 1278 L 16122 1284 L 16120 1284 L 16118 1290 L 16118 1292 L 16118 1294 L 16132 1294 L 16146 1294 L 16164 1294 L 16190 1294 L 16208 1294 L 16228 1274 L 16250 1274 L 16272 1274 L 16300 1250 L 16324 1250 L 16352 1250 L 16378 1222 L 16398 1222 L 16424 1222 L 16442 1194 L 16460 1194 L 16474 1194 L 16490 1194" stroke="#FFC114" stroke-width="50.00001" fill="none" stroke-linecap="round" stroke-linejoin="round"/>
<path d="M 17016 718 L 17016 718 L 17032 696 L 17032 698 L 17048 708 L 17048 718 L 17048 736 L 17058 760 L 17058 786 L 17058 814 L 17058 846 L 17058 880 L 17076 914 L 17076 954 L 17076 990 L 17076 1028 L 17090 1062 L 17090 1092 L 17090 1120 L 17090 1148 L 17090 1168 L 17090 1178 L 17090 1190 L 17090 1196" stroke="#FFC114" stroke-width="50.00001" fill="none" stroke-linecap="round" stroke-linejoin="round"/>
<path d="M 17090 1168 L 17090 1144 L 17090 1118 L 17090 1094 L 17090 1066 L 17086 1066 L 17076 1044 L 17066 1044 L 17054 1046 L 17050 1048 L 17036 1052 L 17014 1058 L 16990 1058 L 16970 1062 L 16944 1066 L 16920 1066 L 16898 1066 L 16876 1066 L 16858 1066 L 16836 1066 L 16824 1066 L 16812 1044 L 16804 1044 L 16798 1010 L 16798 990 L 16798 962 L 16798 936 L 16798 906 L 16818 880 L 16818 854 L 16836 828 L 16836 802 L 16858 778" stroke="#FFC114" stroke-width="50.00001" fill="none" stroke-linecap="round" stroke-linejoin="round"/>
<path d="M 17642 634 L 17642 634 L 17642 610 L 17636 610 L 17628 610 L 17618 620 L 17604 634 L 17592 648 L 17582 666 L 17574 684 L 17570 702 L 17568 724 L 17568 744 L 17568 764 L 17568 786 L 17568 804 L 17586 820 L 17600 830 L 17618 838 L 17638 838 L 17662 838 L 17684 838 L 17714 838 L 17738 814 L 17766 814 L 17788 788 L 17806 788 L 17818 750 L 17818 732 L 17818 696 L 17806 670 L 17788 670 L 17762 670 L 17732 670 L 17698 670 L 17664 672 L 17630 680" stroke="#FFC114" stroke-width="50.00001" fill="none" stroke-linecap="round" stroke-linejoin="round"/>
<path d="M 17490 822 L 17490 832 L 17506 844 L 17520 852 L 17542 856 L 17562 858 L 17582 860 L 17600 860 L 17620 860 L 17636 860 L 17648 862 L 17666 862 L 17666 868 L 17666 874 L 17666 882 L 17666 894 L 17666 906 L 17666 918 L 17664 938 L 17664 956 L 17664 974 L 17664 992 L 17664 1014 L 17664 1028 L 17682 1044 L 17682 1056 L 17704 1060 L 17720 1060 L 17738 1060 L 17760 1060 L 17784 1060 L 17810 1036 L 17834 1036 L 17858 1004 L 17882 986 L 17900 962 L 17912 940 L 17912 918 L 17912 894 L 17912 874 L 17908 846 L 17894 846 L 17872 846 L 17844 846 L 17812 846 L 17780 852 L 17748 858" stroke="#FFC114" stroke-width="50.00001" fill="none" stroke-linecap="round" stroke-linejoin="round"/>
<path d="M 18572 560 L 18570 560 L 18568 542 L 18568 546 L 18568 552 L 18582 558 L 18582 564 L 18582 572 L 18598 580 L 18598 588 L 18616 600 L 18616 608 L 18642 620 L 18654 632 L 18670 640 L 18684 646 L 18702 650 L 18720 650 L 18734 650 L 18750 650 L 18762 650 L 18784 622 L 18784 592 L 18784 572 L 18784 552 L 18784 530 L 18784 508 L 18778 488 L 18762 470 L 18742 470 L 18722 440 L 18700 440 L 18674 440 L 18652 440 L 18628 440 L 18606 440 L 18588 442 L 18570 454 L 18554 466" stroke="#FFC114" stroke-width="50.00001" fill="none" stroke-linecap="round" stroke-linejoin="round"/>
<path d="M 18550 560 L 18550 566 L 18572 572 L 18584 574 L 18598 574 L 18622 574 L 18634 574 L 18648 574 L 18660 574 L 18674 574 L 18692 574 L 18706 580 L 18718 594 L 18718 612 L 18742 638 L 18742 666 L 18742 698 L 18756 732 L 18752 766 L 18752 804 L 18740 846 L 18726 886 L 18708 924 L 18688 960 L 18666 988 L 18634 1014 L 18602 1032 L 18570 1044 L 18538 1052" stroke="#FFC114" stroke-width="50.00001" fill="none" stroke-linecap="round" stroke-linejoin="round"/>
<path d="M 19480 510 L 19480 510 L 19480 490 L 19492 490 L 19492 492 L 19504 512 L 19504 538 L 19504 564 L 19504 592 L 19526 624 L 19526 658 L 19526 690 L 19542 720 L 19542 752 L 19542 782 L 19558 804 L 19558 824 L 19558 838 L 19558 844 L 19558 824 L 19554 824 L 19550 788 L 19542 764 L 19536 734 L 19526 734 L 19520 702 L 19514 672 L 19504 638 L 19502 608 L 19494 580 L 19492 554 L 19488 534 L 19486 534 L 19484 512 L 19480 512 L 19474 514 L 19466 524 L 19452 538 L 19442 560 L 19428 582 L 19418 582 L 19402 606 L 19390 630 L 19374 654" stroke="#FFC114" stroke-width="50.00001" fill="none" stroke-linecap="round" stroke-linejoin="round"/>
<path d="M 19694 614 L 19712 580 L 19732 580 L 19750 552 L 19762 552 L 19782 532 L 19782 536 L 19794 546 L 19794 560 L 19794 574 L 19794 592 L 19810 612 L 19810 632 L 19824 656 L 19824 676 L 19850 698 L 19862 714 L 19878 732 L 19896 742 L 19918 742 L 19938 742 L 19964 742 L 19986 742 L 20006 714 L 20026 714 L 20044 678 L 20056 654 L 20056 632 L 20056 606 L 20056 582 L 20054 562 L 20042 562 L 20020 532 L 19994 532 L 19962 532 L 19928 538 L 19886 544 L 19846 554" stroke="#FFC114" stroke-width="50.00001" fill="none" stroke-linecap="round" stroke-linejoin="round"/>
<path d="M 20838 480 L 20838 480 L 20838 458 L 20832 458 L 20832 470 L 20832 484 L 20848 504 L 20848 526 L 20862 550 L 20862 576 L 20874 604 L 20874 630 L 20874 658 L 20890 684 L 20890 712 L 20890 734 L 20890 752 L 20890 768 L 20890 778 L 20890 780 L 20890 752 L 20884 730 L 20882 702 L 20874 670 L 20870 634 L 20866 596 L 20862 556 L 20852 516 L 20852 478 L 20848 442 L 20848 408 L 20848 378 L 20844 354 L 20842 332 L 20838 332 L 20832 332 L 20830 342 L 20826 358 L 20820 380 L 20812 404 L 20802 430 L 20788 458 L 20780 486 L 20766 514" stroke="#FFC114" stroke-width="50.00001" fill="none" stroke-linecap="round" stroke-linejoin="round"/>
<path d="M 21208 468 L 21230 446 L 21246 446 L 21258 446 L 21270 422 L 21268 398 L 21260 398 L 21258 398 L 21250 398 L 21248 380 L 21246 380 L 21246 360 L 21246 338 L 21264 338 L 21292 338 L 21308 338 L 21318 338 L 21336 340 L 21348 352 L 21348 368 L 21364 394 L 21364 418 L 21364 446 L 21364 476 L 21360 508 L 21354 540 L 21342 572 L 21324 606 L 21308 636 L 21286 662 L 21268 688 L 21246 708 L 21228 720 L 21212 730 L 21204 736 L 21196 738 L 21222 738 L 21240 738 L 21260 714 L 21290 714 L 21318 714 L 21348 692 L 21376 692 L 21404 692" stroke="#FFC114" stroke-width="50.00001" fill="none" stroke-linecap="round" stroke-linejoin="round"/>
<path d="M 22144 250 L 22144 250 L 22158 250 L 22176 250 L 22190 250 L 22190 254 L 22206 264 L 22206 274 L 22220 290 L 22220 308 L 22220 332 L 22234 354 L 22234 382 L 22234 410 L 22234 442 L 22234 472 L 22234 504 L 22234 532 L 22234 558 L 22230 582 L 22230 604 L 22226 620 L 22216 636 L 22212 642 L 22206 646 L 22202 646 L 22196 646 L 22194 646 L 22190 618 L 22186 618 L 22184 574 L 22180 544 L 22180 514 L 22180 482 L 22178 446 L 22178 408 L 22176 370 L 22176 336 L 22172 302 L 22172 266 L 22172 236 L 22172 212 L 22168 192 L 22164 192 L 22158 192 L 22152 192 L 22146 192 L 22138 192 L 22128 204 L 22114 226 L 22104 254 L 22088 282 L 22074 312 L 22062 344 L 22050 378 L 22034 410" stroke="#FFC114" stroke-width="50.00001" fill="none" stroke-linecap="round" stroke-linejoin="round"/>
<path d="M 22670 142 L 22690 142 L 22690 118 L 22702 118 L 22702 128 L 22718 144 L 22718 162 L 22718 186 L 22718 216 L 22732 250 L 22732 290 L 22732 328 L 22732 368 L 22748 412 L 22748 454 L 22748 496 L 22748 538 L 22760 574 L 22760 604 L 22760 626" stroke="#FFC114" stroke-width="50.00001" fill="none" stroke-linecap="round" stroke-linejoin="round"/>
<path d="M 22790 576 L 22790 576 L 22790 542 L 22790 514 L 22790 488 L 22782 488 L 22774 466 L 22762 466 L 22746 466 L 22730 466 L 22710 446 L 22696 446 L 22678 446 L 22660 446 L 22638 424 L 22616 424 L 22594 424 L 22576 394 L 22556 394 L 22538 360 L 22526 360 L 22514 318 L 22504 294 L 22500 268 L 22498 246 L 22498 222" stroke="#FFC114" stroke-width="50.00001" fill="none" stroke-linecap="round" stroke-linejoin="round"/>
<path d="M 23282 148 L 23304 112 L 23304 80 L 23322 80 L 23322 90 L 23322 112 L 23322 140 L 23322 172 L 23336 208 L 23336 248 L 23336 288 L 23354 328 L 23354 368 L 23354 408 L 23368 442 L 23368 472 L 23368 494 L 23368 508 L 23382 516" stroke="#FFC114" stroke-width="50.00001" fill="none" stroke-linecap="round" stroke-linejoin="round"/>
<path d="M 23376 416 L 23372 384 L 23370 350 L 23368 314 L 23360 278 L 23358 248 L 23354 214 L 23348 186 L 23344 160 L 23342 138 L 23336 138 L 23334 116 L 23328 116 L 23324 116 L 23314 122 L 23308 132 L 23302 144 L 23292 162 L 23284 184 L 23274 206 L 23266 230 L 23256 250" stroke="#FFC114" stroke-width="50.00001" fill="none" stroke-linecap="round" stroke-linejoin="round"/>
<path d="M 23642 142 L 23664 114 L 23676 90 L 23676 62 L 23676 28 L 23694 28 L 23692 10 L 23682 10 L 23670 14 L 23658 14 L 23646 28 L 23636 46 L 23628 70 L 23618 98 L 23614 128 L 23614 162 L 23610 196 L 23610 232 L 23610 266 L 23610 298 L 23610 326 L 23610 350 L 23636 366 L 23650 376 L 23670 380 L 23692 380 L 23714 380 L 23732 380 L 23752 380 L 23766 352 L 23788 316 L 23788 282 L 23782 282 L 23770 260 L 23752 260 L 23730 260 L 23704 266" stroke="#FFC114" stroke-width="50.00001" fill="none" stroke-linecap="round" stroke-linejoin="round"/>
<path d="M 6032 10402 L 6032 10380 L 6044 10380 L 6044 10362 L 6060 10362 L 6074 10362 L 6084 10370 L 6084 10386 L 6084 10402 L 6084 10424 L 6100 10446 L 6100 10474 L 6100 10500 L 6100 10532 L 6114 10562 L 6114 10594 L 6114 10626 L 6114 10656 L 6114 10686 L 6128 10714 L 6128 10736 L 6128 10754 L 6128 10766 L 6124 10774 L 6122 10774 L 6120 10774 L 6114 10748 L 6114 10748 L 6106 10706 L 6104 10682 L 6096 10652 L 6094 10618 L 6088 10584 L 6078 10548 L 6074 10508 L 6074 10474 L 6070 10436 L 6066 10404 L 6064 10374 L 6060 10346 L 6056 10320 L 6054 10300 L 6054 10270 L 6054 10274 L 6054 10290 L 6054 10308 L 6054 10330 L 6054 10354 L 6046 10382 L 6042 10412 L 6032 10444 L 6026 10474 L 6018 10506 L 6008 10536 L 6004 10566 L 5992 10590 L 5984 10612 L 5970 10630 L 5960 10646 L 5952 10656 L 5944 10664 L 5936 10670 L 5932 10672 L 5930 10672" stroke="#66CC00" stroke-width="35" fill="none" stroke-linecap="round" stroke-linejoin="round"/>
<path d="M 6190 11260 L 6190 11260 L 6202 11260 L 6216 11260 L 6214 11260 L 6214 11240 L 6212 11240 L 6212 11220 L 6208 11220 L 6208 11222 L 6208 11232 L 6208 11246 L 6208 11264 L 6224 11284 L 6224 11310 L 6224 11336 L 6240 11368 L 6240 11398 L 6240 11430 L 6240 11464 L 6240 11494 L 6252 11526 L 6252 11554 L 6252 11578 L 6252 11598 L 6252 11612 L 6252 11620 L 6252 11624 L 6244 11624 L 6240 11624 L 6232 11624 L 6230 11600 L 6224 11600 L 6216 11562 L 6214 11538 L 6208 11508 L 6204 11480 L 6198 11448 L 6194 11418 L 6194 11384 L 6190 11352 L 6184 11322 L 6180 11296 L 6180 11270 L 6180 11246 L 6180 11210 L 6180 11188 L 6180 11188 L 6180 11196 L 6180 11208 L 6180 11226 L 6180 11246 L 6180 11270 L 6180 11294 L 6176 11322 L 6166 11352 L 6158 11382 L 6148 11410 L 6140 11436 L 6130 11466 L 6122 11488 L 6112 11506 L 6100 11524" stroke="#66CC00" stroke-width="35" fill="none" stroke-linecap="round" stroke-linejoin="round"/>
<path d="M 6532 11246 L 6528 11246 L 6526 11246 L 6522 11226 L 6518 11226 L 6518 11226 L 6518 11228 L 6518 11232 L 6518 11238 L 6518 11244 L 6518 11256 L 6518 11272 L 6518 11290 L 6518 11308 L 6532 11328 L 6532 11352 L 6532 11374 L 6532 11400 L 6532 11424 L 6546 11452 L 6546 11476 L 6546 11500 L 6546 11518 L 6546 11538 L 6546 11554 L 6546 11566 L 6546 11576 L 6546 11580 L 6546 11584 L 6546 11562 L 6546 11532 L 6560 11514 L 6560 11492 L 6560 11470 L 6556 11470 L 6550 11452 L 6540 11452 L 6536 11452 L 6526 11452 L 6518 11452 L 6504 11454 L 6490 11454 L 6480 11454 L 6470 11454 L 6454 11454 L 6442 11454 L 6432 11454 L 6420 11454 L 6412 11436 L 6408 11436 L 6402 11414 L 6396 11414 L 6388 11390 L 6386 11390 L 6380 11356 L 6374 11356 L 6370 11320 L 6364 11320 L 6358 11284 L 6352 11284 L 6348 11250 L 6346 11250 L 6338 11222" stroke="#66CC00" stroke-width="35" fill="none" stroke-linecap="round" stroke-linejoin="round"/>
<path d="M 7442 10244 L 7438 10244 L 7434 10220 L 7430 10220 L 7424 10220 L 7420 10198 L 7416 10198 L 7410 10198 L 7410 10176 L 7408 10176 L 7408 10156 L 7424 10156 L 7424 10138 L 7438 10138 L 7456 10138 L 7474 10138 L 7486 10138 L 7502 10140 L 7520 10144 L 7538 10150 L 7560 10158 L 7580 10166 L 7604 10178 L 7622 10192 L 7644 10210 L 7644 10228 L 7666 10246 L 7666 10266 L 7680 10284 L 7680 10304 L 7678 10324 L 7678 10342 L 7672 10356 L 7656 10372 L 7638 10382 L 7616 10392 L 7590 10396 L 7568 10400 L 7542 10402 L 7518 10402 L 7498 10402 L 7484 10402 L 7470 10402 L 7456 10402 L 7448 10402 L 7442 10402 L 7466 10402 L 7486 10404 L 7504 10412 L 7528 10420 L 7554 10430 L 7576 10442 L 7598 10458 L 7618 10472 L 7638 10488 L 7638 10506 L 7654 10526 L 7654 10544 L 7654 10562 L 7654 10582 L 7640 10602 L 7626 10620 L 7604 10636 L 7578 10650 L 7548 10664 L 7518 10678 L 7484 10688 L 7446 10696 L 7410 10702 L 7380 10708 L 7350 10710 L 7328 10716" stroke="#66CC00" stroke-width="35" fill="none" stroke-linecap="round" stroke-linejoin="round"/>
<path d="M 4696 11078 L 4710 11078 L 4710 11058 L 4710 11036 L 4706 11036 L 4700 11018 L 4696 11018 L 4692 11018 L 4682 11022 L 4678 11026 L 4668 11034 L 4656 11046 L 4640 11054 L 4624 11074 L 4610 11092 L 4590 11114 L 4576 11140 L 4562 11166 L 4548 11196 L 4540 11226 L 4530 11254 L 4526 11284 L 4522 11312 L 4522 11340 L 4522 11364 L 4522 11388 L 4522 11408 L 4544 11424 L 4562 11436 L 4580 11442 L 4596 11446 L 4618 11446 L 4638 11446 L 4660 11446 L 4678 11446 L 4696 11426 L 4710 11426 L 4724 11398 L 4742 11366 L 4742 11332 L 4742 11302 L 4736 11302 L 4730 11278 L 4714 11278 L 4700 11278 L 4678 11278 L 4656 11278 L 4630 11284 L 4606 11294 L 4584 11310 L 4562 11326 L 4544 11346 L 4528 11368" stroke="#66CC00" stroke-width="35" fill="none" stroke-linecap="round" stroke-linejoin="round"/>
<path d="M 5000 8248 L 5000 8248 L 5000 8228 L 5014 8228 L 5014 8232 L 5014 8234 L 5014 8234 L 5014 8240 L 5014 8244 L 5014 8252 L 5014 8260 L 5026 8272 L 5026 8282 L 5026 8300 L 5026 8318 L 5046 8338 L 5046 8358 L 5046 8382 L 5062 8404 L 5062 8428 L 5062 8454 L 5076 8478 L 5076 8502 L 5076 8522 L 5092 8542 L 5092 8558 L 5092 8572 L 5092 8584 L 5092 8592 L 5092 8596 L 5090 8596 L 5086 8596 L 5084 8596 L 5076 8596 L 5074 8568 L 5068 8568 L 5058 8540 L 5052 8540 L 5050 8498 L 5042 8476 L 5040 8456 L 5034 8432 L 5032 8406 L 5032 8384 L 5026 8362 L 5026 8340 L 5024 8340 L 5024 8306 L 5022 8306 L 5022 8278 L 5022 8256 L 5022 8262 L 5022 8268 L 5022 8280 L 5022 8290 L 5022 8304 L 5022 8320 L 5022 8328 L 5022 8344 L 5022 8362 L 5022 8382 L 5022 8402 L 5022 8408 L 5018 8426 L 5014 8444 L 5014 8458 L 5014 8472 L 5008 8482 L 5004 8492 L 5004 8498 L 5004 8506 L 5004 8514" stroke="#66CC00" stroke-width="35" fill="none" stroke-linecap="round" stroke-linejoin="round"/>
<path d="M 5312 8230 L 5312 8210 L 5326 8210 L 5326 8190 L 5336 8190 L 5336 8194 L 5354 8194 L 5348 8194 L 5346 8194 L 5344 8194 L 5336 8194 L 5330 8194 L 5326 8194 L 5316 8194 L 5306 8194 L 5294 8194 L 5280 8194 L 5270 8198 L 5256 8202 L 5244 8206 L 5232 8210 L 5220 8214 L 5204 8216 L 5194 8218 L 5184 8222 L 5174 8224 L 5166 8224 L 5160 8224 L 5154 8226 L 5152 8226 L 5152 8226 L 5166 8230 L 5166 8232 L 5166 8236 L 5178 8242 L 5178 8244 L 5178 8250 L 5192 8254 L 5192 8262 L 5192 8268 L 5192 8276 L 5206 8284 L 5206 8294 L 5206 8302 L 5206 8312 L 5206 8322 L 5206 8330 L 5206 8334 L 5206 8342 L 5220 8350 L 5220 8354 L 5220 8360 L 5220 8368 L 5220 8370 L 5220 8374 L 5220 8378 L 5236 8380 L 5250 8380 L 5266 8380 L 5286 8380 L 5308 8380 L 5326 8380 L 5340 8380 L 5354 8380 L 5368 8382 L 5384 8388 L 5396 8398 L 5408 8406 L 5408 8416 L 5428 8426 L 5428 8436 L 5428 8448 L 5442 8460 L 5440 8472 L 5430 8484 L 5424 8496 L 5414 8506 L 5412 8518 L 5396 8530 L 5376 8540 L 5358 8548 L 5336 8558 L 5318 8564 L 5304 8570 L 5286 8574 L 5272 8582 L 5256 8588 L 5244 8588 L 5236 8590 L 5226 8594 L 5216 8598 L 5212 8598 L 5206 8600 L 5204 8604" stroke="#66CC00" stroke-width="35" fill="none" stroke-linecap="round" stroke-linejoin="round"/>
<path d="M 4554 7424 L 4554 7404 L 4566 7404 L 4578 7404 L 4578 7384 L 4594 7384 L 4612 7384 L 4630 7384 L 4652 7384 L 4664 7364 L 4682 7364 L 4692 7364 L 4706 7364 L 4722 7364 L 4732 7364 L 4754 7364 L 4778 7364 L 4796 7364 L 4796 7344 L 4812 7344 L 4812 7346 L 4826 7346 L 4826 7348 L 4826 7350 L 4826 7352 L 4826 7354 L 4826 7356 L 4838 7362 L 4838 7368 L 4838 7380 L 4838 7390 L 4838 7408 L 4854 7426 L 4854 7448 L 4854 7474 L 4870 7500 L 4870 7530 L 4870 7562 L 4884 7596 L 4884 7630 L 4884 7668 L 4902 7702 L 4902 7734 L 4902 7762 L 4920 7792 L 4920 7816 L 4920 7836 L 4920 7854 L 4920 7868 L 4932 7878 L 4930 7880 L 4924 7882" stroke="#66CC00" stroke-width="35" fill="none" stroke-linecap="round" stroke-linejoin="round"/>
<path d="M 5004 7594 L 5004 7570 L 5018 7570 L 5016 7570 L 5008 7570 L 5004 7570 L 4994 7570 L 4982 7572 L 4970 7578 L 4952 7588 L 4932 7598 L 4906 7608 L 4880 7620 L 4852 7630 L 4820 7640 L 4790 7650 L 4760 7660 L 4728 7668 L 4696 7676 L 4668 7684 L 4646 7690 L 4626 7694 L 4608 7700 L 4590 7704" stroke="#66CC00" stroke-width="35" fill="none" stroke-linecap="round" stroke-linejoin="round"/>
<path d="M 3594 8436 L 3594 8436 L 3594 8408 L 3594 8388 L 3594 8368 L 3594 8370 L 3608 8370 L 3608 8372 L 3608 8374 L 3608 8378 L 3608 8384 L 3608 8396 L 3608 8412 L 3620 8432 L 3620 8456 L 3620 8480 L 3636 8510 L 3636 8544 L 3654 8576 L 3654 8612 L 3672 8646 L 3672 8680 L 3690 8712 L 3690 8746 L 3706 8778 L 3706 8804 L 3706 8822 L 3722 8840 L 3722 8852 L 3722 8860 L 3722 8864 L 3722 8866 L 3734 8866" stroke="#66CC00" stroke-width="35" fill="none" stroke-linecap="round" stroke-linejoin="round"/>
<path d="M 3728 8672 L 3728 8652 L 3728 8632 L 3728 8634 L 3728 8638 L 3720 8640 L 3710 8648 L 3696 8654 L 3680 8660 L 3662 8668 L 3644 8674 L 3620 8682 L 3600 8690 L 3572 8696 L 3550 8704 L 3530 8708 L 3504 8714 L 3484 8716 L 3466 8718 L 3448 8718 L 3436 8718 L 3428 8718 L 3418 8718 L 3416 8718 L 3412 8690 L 3412 8668 L 3412 8634 L 3412 8598 L 3412 8562 L 3424 8534 L 3424 8506" stroke="#66CC00" stroke-width="35" fill="none" stroke-linecap="round" stroke-linejoin="round"/>
<circle cx="12439" cy="1173" r="25.000005" fill="#000000"/>
<circle cx="12580" cy="1226" r="25.000005" fill="#000000"/>
<path d="M 6780 9094 L 6780 9094 L 6774 9094 L 6772 9094 L 6768 9094 L 6764 9094 L 6762 9094 L 6758 9094 L 6752 9094 L 6752 9098 L 6750 9104 L 6742 9110 L 6740 9118 L 6740 9130 L 6740 9142 L 6740 9154 L 6740 9166 L 6740 9182 L 6740 9194 L 6752 9210 L 6752 9224 L 6772 9240 L 6772 9254 L 6792 9266 L 6804 9274 L 6822 9280 L 6840 9280 L 6854 9280 L 6870 9280 L 6882 9280 L 6904 9252 L 6900 9214 L 6900 9190 L 6900 9162 L 6900 9136 L 6894 9108 L 6886 9080 L 6876 9060 L 6862 9060 L 6848 9026 L 6830 9026 L 6812 9026 L 6794 9026 L 6780 9026 L 6768 9026 L 6758 9034 L 6752 9052 L 6750 9070 L 6750 9094 L 6750 9116 L 6750 9138 L 6750 9160 L 6762 9182 L 6762 9196 L 6780 9208 L 6792 9216 L 6792 9220 L 6818 9220 L 6840 9220 L 6840 9200 L 6852 9200 L 6852 9168 L 6852 9136 L 6852 9104 L 6848 9104 L 6840 9104 L 6830 9104 L 6822 9104 L 6812 9104 L 6804 9104 L 6794 9104 L 6786 9112 L 6780 9128 L 6774 9142 L 6768 9158 L 6764 9178 L 6764 9194 L 6764 9206 L 6764 9216 L 6764 9222 L 6764 9222 L 6776 9222 L 6776 9202 L 6776 9180 L 6774 9180 L 6772 9160 L 6768 9160 L 6762 9160 L 6756 9160 L 6750 9160 L 6742 9160 L 6740 9164 L 6734 9168 L 6728 9176 L 6728 9184 L 6720 9190 L 6718 9194 L 6716 9202 L 6710 9206 L 6710 9208 L 6708 9212 L 6706 9212 L 6706 9192 L 6720 9192" stroke="#FFC114" stroke-width="50.00001" fill="none" stroke-linecap="round" stroke-linejoin="round"/>
<path d="M 7966 10018 L 7962 10018 L 7952 10018 L 7948 10018 L 7942 10018 L 7938 10018 L 7932 10020 L 7930 10022 L 7926 10026 L 7924 10032 L 7920 10036 L 7914 10042 L 7914 10050 L 7914 10054 L 7914 10064 L 7914 10072 L 7914 10082 L 7914 10092 L 7914 10100 L 7914 10108 L 7914 10118 L 7914 10124 L 7914 10130 L 7930 10134 L 7930 10136 L 7930 10138 L 7944 10138 L 7962 10138 L 7962 10116 L 7962 10090 L 7958 10090 L 7958 10060 L 7952 10060 L 7952 10028 L 7952 10028 L 7944 10000 L 7938 10000 L 7930 10000 L 7924 9978 L 7914 9978 L 7908 9978 L 7902 9984 L 7894 9992 L 7890 10004 L 7884 10016 L 7882 10032 L 7882 10046 L 7880 10060 L 7880 10080 L 7880 10096 L 7880 10108 L 7880 10120 L 7894 10132 L 7894 10138 L 7912 10140 L 7924 10140 L 7938 10140 L 7938 10116 L 7952 10088 L 7952 10058 L 7948 10058 L 7944 10026 L 7938 10026 L 7934 10004 L 7926 10004 L 7916 10004 L 7908 10004 L 7898 10004 L 7890 10004 L 7876 10012 L 7870 10022 L 7866 10038 L 7866 10054 L 7866 10070 L 7866 10090 L 7866 10108 L 7882 10122 L 7882 10138 L 7902 10148 L 7914 10156 L 7932 10156 L 7944 10156 L 7962 10156 L 7976 10156 L 7992 10156 L 7992 10128 L 8010 10128 L 8010 10096 L 8010 10072 L 8010 10052 L 8010 10032 L 8010 10012 L 8002 9976 L 7994 9976 L 7984 9954 L 7972 9954 L 7962 9954 L 7944 9954 L 7930 9954 L 7914 9954 L 7902 9956 L 7890 9966 L 7882 9978 L 7876 9992 L 7870 10004 L 7870 10016 L 7870 10026 L 7870 10038 L 7870 10046 L 7870 10052 L 7884 10054 L 7908 10054 L 7924 10054 L 7942 10032 L 7942 10014 L 7942 9988 L 7942 9966 L 7932 9966 L 7920 9966 L 7908 9966 L 7894 9966 L 7882 9966 L 7876 9966 L 7866 9970 L 7858 9980 L 7850 9994 L 7848 10008 L 7848 10024 L 7848 10042 L 7848 10060 L 7848 10072 L 7860 10088 L 7860 10100 L 7880 10108 L 7880 10112 L 7902 10114 L 7926 10114 L 7926 10088 L 7926 10068 L 7926 10050 L 7920 10050 L 7912 10050 L 7902 10026 L 7890 10026 L 7874 10026 L 7860 10026 L 7848 10026 L 7842 10026 L 7836 10026 L 7832 10034 L 7830 10040 L 7828 10046 L 7828 10052 L 7828 10060 L 7828 10068 L 7828 10074 L 7842 10080 L 7842 10088 L 7842 10092 L 7864 10098 L 7864 10100 L 7876 10102 L 7876 10104 L 7876 10108 L 7894 10108" stroke="#FFC114" stroke-width="50.00001" fill="none" stroke-linecap="round" stroke-linejoin="round"/>
<path d="M 7764 8806 L 7778 8806 L 7796 8806 L 7796 8786 L 7792 8786 L 7790 8786 L 7788 8786 L 7782 8786 L 7780 8786 L 7778 8786 L 7774 8786 L 7770 8786 L 7768 8786 L 7760 8786 L 7760 8792 L 7752 8794 L 7742 8806 L 7740 8816 L 7738 8824 L 7738 8834 L 7732 8844 L 7732 8856 L 7732 8868 L 7732 8882 L 7732 8896 L 7732 8906 L 7732 8920 L 7752 8928 L 7752 8936 L 7764 8944 L 7764 8950 L 7782 8954 L 7800 8954 L 7820 8954 L 7836 8924 L 7836 8892 L 7836 8874 L 7848 8874 L 7848 8834 L 7848 8812 L 7848 8792 L 7842 8772 L 7836 8752 L 7830 8752 L 7820 8722 L 7810 8722 L 7798 8698 L 7790 8698 L 7778 8698 L 7764 8698 L 7752 8698 L 7740 8706 L 7730 8716 L 7724 8726 L 7720 8738 L 7714 8752 L 7712 8766 L 7712 8782 L 7712 8796 L 7712 8810 L 7712 8824 L 7724 8836 L 7724 8846 L 7742 8848 L 7742 8850 L 7764 8850 L 7788 8850 L 7798 8850 L 7798 8830 L 7798 8806 L 7798 8784 L 7796 8784 L 7790 8760 L 7782 8760 L 7774 8760 L 7764 8760 L 7752 8760 L 7746 8762 L 7738 8766 L 7730 8774 L 7728 8784 L 7724 8794 L 7724 8806 L 7724 8818 L 7724 8830 L 7724 8838 L 7724 8846 L 7742 8852 L 7742 8858 L 7760 8858 L 7778 8858 L 7792 8858 L 7792 8834 L 7806 8834 L 7806 8806 L 7800 8806 L 7798 8780 L 7792 8780 L 7790 8780 L 7782 8780 L 7774 8780 L 7764 8780 L 7760 8780 L 7752 8780 L 7746 8780 L 7742 8782 L 7740 8792 L 7740 8800 L 7740 8808 L 7740 8818 L 7740 8826 L 7740 8834 L 7756 8840 L 7756 8848 L 7768 8848 L 7788 8848 L 7808 8848 L 7826 8848 L 7826 8830 L 7840 8830 L 7840 8806 L 7840 8782 L 7832 8782 L 7824 8782 L 7816 8782 L 7800 8782 L 7790 8782 L 7774 8782 L 7760 8782 L 7740 8782 L 7724 8788 L 7712 8792 L 7700 8800 L 7690 8806 L 7680 8812 L 7678 8820 L 7678 8826 L 7678 8832 L 7678 8836 L 7678 8840 L 7678 8842 L 7692 8844 L 7692 8846 L 7712 8848 L 7738 8848 L 7760 8848" stroke="#FFC114" stroke-width="50.00001" fill="none" stroke-linecap="round" stroke-linejoin="round"/>
<path d="M 4448 9140 L 4444 9122 L 4460 9122 L 4476 9124 L 4476 9126 L 4490 9128 L 4490 9130 L 4500 9134 L 4520 9134 L 4520 9136 L 4536 9136 L 4548 9136 L 4548 9112 L 4558 9112 L 4558 9090 L 4558 9090 L 4554 9090 L 4548 9068 L 4544 9068 L 4536 9068 L 4530 9068 L 4520 9068 L 4510 9068 L 4504 9068 L 4490 9068 L 4486 9068 L 4476 9068 L 4470 9068 L 4470 9076 L 4468 9088 L 4468 9096 L 4468 9106 L 4468 9116 L 4468 9124 L 4468 9134 L 4468 9140 L 4482 9146 L 4482 9152 L 4504 9154 L 4504 9154 L 4530 9154 L 4554 9154 L 4566 9154 L 4584 9134 L 4584 9106 L 4584 9088 L 4578 9060 L 4570 9060 L 4558 9060 L 4544 9060 L 4530 9060 L 4520 9060 L 4504 9060 L 4490 9068 L 4480 9078 L 4470 9078 L 4460 9088 L 4454 9100 L 4448 9114 L 4444 9128 L 4444 9144 L 4444 9156 L 4444 9170 L 4444 9178 L 4460 9188 L 4460 9194 L 4486 9198 L 4500 9198 L 4516 9198 L 4536 9198 L 4548 9198 L 4570 9198 L 4580 9170 L 4596 9170 L 4596 9148 L 4616 9148 L 4616 9122 L 4616 9098 L 4616 9074 L 4606 9074 L 4596 9074 L 4584 9074 L 4570 9078 L 4558 9088 L 4540 9098 L 4526 9110 L 4512 9126 L 4500 9144 L 4490 9164 L 4482 9182 L 4476 9202 L 4476 9218 L 4476 9234 L 4476 9250 L 4476 9260 L 4476 9268 L 4490 9272 L 4490 9274 L 4512 9274 L 4530 9274 L 4540 9274 L 4558 9274 L 4570 9252 L 4590 9230 L 4604 9202 L 4604 9176 L 4596 9154 L 4590 9154 L 4584 9154 L 4572 9154 L 4558 9154 L 4548 9154 L 4536 9154 L 4522 9154 L 4512 9154 L 4504 9164 L 4494 9174 L 4490 9182 L 4486 9192 L 4486 9202 L 4486 9212 L 4486 9222 L 4486 9226 L 4498 9232 L 4498 9234 L 4520 9234 L 4544 9234 L 4570 9234 L 4570 9206 L 4584 9206 L 4584 9184 L 4584 9160 L 4584 9136 L 4580 9136 L 4572 9116 L 4562 9116 L 4548 9116 L 4538 9116 L 4522 9116 L 4510 9116 L 4498 9116 L 4490 9120 L 4480 9126 L 4476 9136 L 4472 9144 L 4472 9156 L 4472 9168 L 4472 9178" stroke="#FFC114" stroke-width="50.00001" fill="none" stroke-linecap="round" stroke-linejoin="round"/>
<path d="M 3306 10272 L 3302 10272 L 3302 10276 L 3302 10280 L 3302 10286 L 3302 10292 L 3302 10298 L 3316 10306 L 3316 10312 L 3316 10318 L 3330 10322 L 3330 10324 L 3344 10328 L 3344 10330 L 3362 10334 L 3380 10334 L 3398 10334 L 3412 10314 L 3412 10286 L 3412 10266 L 3412 10248 L 3406 10248 L 3398 10222 L 3388 10222 L 3380 10222 L 3368 10222 L 3358 10222 L 3348 10222 L 3340 10226 L 3334 10230 L 3328 10240 L 3326 10248 L 3320 10258 L 3320 10268 L 3320 10278 L 3320 10288 L 3320 10298 L 3344 10304 L 3344 10308 L 3366 10312 L 3380 10314 L 3398 10314 L 3416 10314 L 3430 10314 L 3446 10314 L 3468 10284 L 3480 10258 L 3480 10230 L 3474 10204 L 3464 10204 L 3452 10204 L 3438 10182 L 3424 10182 L 3406 10182 L 3388 10182 L 3370 10188 L 3358 10196 L 3344 10208 L 3330 10220 L 3318 10234 L 3312 10248 L 3310 10264 L 3310 10280 L 3310 10296 L 3310 10308 L 3310 10318 L 3328 10328 L 3356 10328 L 3370 10328 L 3388 10328 L 3402 10328 L 3416 10328 L 3428 10306 L 3448 10278 L 3448 10248 L 3448 10220 L 3442 10220 L 3434 10200 L 3420 10200 L 3406 10200 L 3388 10200 L 3374 10200 L 3358 10200 L 3344 10200 L 3328 10208 L 3316 10218 L 3302 10230 L 3296 10244 L 3292 10258 L 3286 10274 L 3286 10286 L 3286 10300 L 3286 10310 L 3286 10320 L 3306 10324 L 3328 10324 L 3348 10324 L 3366 10324 L 3366 10304 L 3366 10278 L 3356 10258 L 3344 10258 L 3330 10258 L 3318 10260 L 3306 10264 L 3296 10270 L 3294 10276 L 3286 10286 L 3286 10298 L 3286 10312 L 3286 10324 L 3286 10334 L 3306 10344 L 3306 10356 L 3330 10364 L 3348 10372 L 3366 10374 L 3384 10378 L 3398 10382 L 3416 10382 L 3428 10382 L 3428 10360 L 3428 10334 L 3420 10312 L 3406 10312 L 3388 10288 L 3378 10288 L 3358 10288 L 3344 10288 L 3326 10288 L 3310 10288 L 3296 10288 L 3284 10288 L 3276 10290 L 3272 10298 L 3264 10308 L 3264 10324 L 3264 10334 L 3264 10348 L 3264 10360" stroke="#FFC114" stroke-width="50.00001" fill="none" stroke-linecap="round" stroke-linejoin="round"/>
<path d="M 4588 9902 L 4584 9902 L 4580 9902 L 4578 9902 L 4574 9902 L 4572 9902 L 4564 9886 L 4564 9888 L 4564 9892 L 4564 9894 L 4562 9898 L 4562 9902 L 4562 9906 L 4562 9908 L 4562 9914 L 4562 9918 L 4562 9922 L 4562 9926 L 4562 9928 L 4562 9932 L 4578 9936 L 4578 9936 L 4592 9936 L 4612 9936 L 4628 9936 L 4628 9916 L 4628 9896 L 4624 9896 L 4618 9896 L 4610 9874 L 4600 9874 L 4588 9874 L 4574 9874 L 4562 9874 L 4548 9854 L 4538 9854 L 4526 9856 L 4512 9860 L 4504 9868 L 4490 9874 L 4486 9878 L 4478 9888 L 4476 9900 L 4472 9910 L 4468 9922 L 4468 9932 L 4468 9944 L 4468 9954 L 4488 9964 L 4488 9976 L 4506 9984 L 4506 9992 L 4528 9992 L 4528 9998 L 4548 10000 L 4572 10000 L 4588 10000 L 4588 9976 L 4588 9954 L 4588 9932 L 4584 9932 L 4574 9932 L 4564 9932 L 4556 9932 L 4546 9932 L 4538 9932 L 4528 9936 L 4526 9942 L 4516 9948 L 4512 9954 L 4512 9964 L 4512 9972 L 4512 9982 L 4512 9988 L 4512 9992 L 4526 9998 L 4526 10002 L 4540 10002 L 4558 10002 L 4580 10002 L 4580 9980 L 4592 9980 L 4592 9956 L 4588 9930 L 4580 9930 L 4572 9930 L 4562 9930 L 4554 9930 L 4544 9930 L 4536 9930 L 4526 9930 L 4516 9930 L 4508 9930 L 4504 9934 L 4498 9940 L 4498 9946 L 4498 9954 L 4498 9960 L 4498 9964 L 4498 9970 L 4512 9974 L 4512 9976 L 4536 9976 L 4556 9976 L 4578 9976 L 4592 9976 L 4592 9958 L 4592 9936 L 4584 9936 L 4574 9936 L 4564 9936 L 4554 9936 L 4544 9936 L 4530 9936 L 4518 9936 L 4506 9936 L 4498 9936 L 4488 9936 L 4486 9936 L 4486 9944 L 4486 9954 L 4486 9958 L 4498 9964 L 4498 9968 L 4516 9970 L 4516 9974 L 4540 9974 L 4554 9974 L 4564 9976 L 4580 9976 L 4592 9976 L 4610 9976 L 4610 9958 L 4602 9936 L 4592 9936 L 4584 9936 L 4572 9936 L 4562 9936 L 4546 9936 L 4538 9936 L 4526 9936 L 4512 9936 L 4506 9936 L 4500 9936 L 4498 9938 L 4494 9944 L 4494 9954 L 4494 9958 L 4494 9966" stroke="#FFC114" stroke-width="50.00001" fill="none" stroke-linecap="round" stroke-linejoin="round"/>
<path d="M 5322 7354 L 5322 7354 L 5318 7354 L 5316 7354 L 5316 7336 L 5312 7336 L 5308 7338 L 5306 7338 L 5306 7340 L 5304 7342 L 5296 7348 L 5296 7350 L 5294 7356 L 5294 7360 L 5290 7370 L 5290 7378 L 5290 7384 L 5290 7392 L 5290 7398 L 5290 7406 L 5290 7416 L 5290 7422 L 5304 7430 L 5304 7436 L 5304 7444 L 5304 7448 L 5304 7452 L 5322 7454 L 5322 7454 L 5336 7454 L 5354 7454 L 5354 7434 L 5354 7406 L 5354 7378 L 5354 7350 L 5348 7350 L 5346 7332 L 5340 7332 L 5336 7332 L 5330 7332 L 5326 7332 L 5318 7332 L 5312 7332 L 5306 7340 L 5304 7348 L 5296 7354 L 5294 7364 L 5290 7376 L 5288 7386 L 5286 7396 L 5286 7406 L 5286 7416 L 5286 7426 L 5286 7438 L 5300 7444 L 5300 7452 L 5312 7456 L 5312 7462 L 5326 7462 L 5346 7462 L 5364 7462 L 5384 7442 L 5384 7414 L 5384 7394 L 5384 7372 L 5376 7350 L 5368 7350 L 5362 7350 L 5348 7350 L 5344 7350 L 5336 7350 L 5326 7350 L 5318 7358 L 5312 7370 L 5304 7382 L 5300 7394 L 5296 7406 L 5296 7422 L 5296 7438 L 5296 7454 L 5296 7466 L 5308 7482 L 5308 7492 L 5326 7504 L 5326 7512 L 5346 7518 L 5346 7522 L 5368 7522 L 5394 7522 L 5412 7522 L 5412 7500 L 5412 7476 L 5424 7476 L 5424 7448 L 5422 7420 L 5418 7420 L 5412 7392 L 5404 7392 L 5396 7370 L 5390 7370 L 5376 7370 L 5368 7370 L 5358 7370 L 5348 7370 L 5340 7370 L 5330 7372 L 5326 7382 L 5318 7392 L 5318 7404 L 5318 7416 L 5318 7428 L 5318 7440 L 5318 7452 L 5318 7464 L 5318 7474 L 5336 7482 L 5336 7486 L 5356 7490 L 5376 7490 L 5396 7490 L 5408 7472 L 5408 7450 L 5408 7428 L 5408 7406 L 5406 7406 L 5398 7406 L 5390 7384 L 5384 7384 L 5374 7384 L 5362 7384 L 5354 7384 L 5344 7388 L 5336 7396 L 5326 7406 L 5318 7416 L 5316 7428 L 5312 7438 L 5306 7450 L 5306 7460 L 5306 7472 L 5306 7480 L 5306 7486 L 5306 7492 L 5318 7496 L 5330 7496 L 5344 7496 L 5358 7496 L 5358 7474 L 5358 7448 L 5354 7448 L 5348 7448 L 5344 7426 L 5336 7426 L 5326 7426 L 5316 7426 L 5306 7426" stroke="#FFC114" stroke-width="50.00001" fill="none" stroke-linecap="round" stroke-linejoin="round"/>
<path d="M 5076 11326 L 5074 11326 L 5068 11326 L 5064 11326 L 5062 11326 L 5054 11326 L 5050 11326 L 5046 11306 L 5042 11306 L 5036 11306 L 5034 11306 L 5026 11306 L 5024 11306 L 5018 11306 L 5014 11306 L 5014 11306 L 5004 11306 L 5000 11308 L 4994 11310 L 4990 11312 L 4982 11318 L 4974 11324 L 4968 11330 L 4964 11340 L 4956 11348 L 4954 11358 L 4950 11368 L 4950 11378 L 4950 11388 L 4950 11398 L 4950 11408 L 4950 11418 L 4966 11428 L 4966 11436 L 4984 11442 L 4996 11446 L 4996 11448 L 5018 11448 L 5034 11448 L 5050 11448 L 5064 11448 L 5076 11448 L 5076 11418 L 5100 11418 L 5100 11392 L 5100 11360 L 5100 11328 L 5092 11296 L 5084 11296 L 5080 11274 L 5072 11274 L 5058 11274 L 5046 11274 L 5036 11274 L 5026 11274 L 5014 11274 L 5008 11276 L 5000 11286 L 4996 11298 L 4994 11310 L 4990 11322 L 4986 11334 L 4986 11350 L 4986 11358 L 4986 11368 L 4986 11378 L 5004 11382 L 5004 11388 L 5022 11388 L 5034 11388 L 5050 11388 L 5050 11366 L 5050 11344 L 5050 11322 L 5046 11300 L 5036 11300 L 5032 11300 L 5018 11300 L 5008 11300 L 5004 11300 L 4996 11302 L 4990 11312 L 4986 11322 L 4984 11334 L 4984 11348 L 4984 11362 L 4984 11378 L 4984 11390 L 5000 11406 L 5000 11416 L 5022 11428 L 5034 11434 L 5034 11436 L 5058 11440 L 5080 11440 L 5092 11440 L 5092 11412 L 5092 11388 L 5092 11358 L 5090 11332 L 5080 11332 L 5072 11312 L 5058 11312 L 5050 11312 L 5040 11312 L 5032 11312 L 5022 11312 L 5014 11312 L 5008 11322 L 5004 11334 L 5004 11348 L 5004 11364 L 5004 11380 L 5004 11396 L 5026 11410 L 5026 11424 L 5046 11436 L 5046 11446 L 5068 11452 L 5068 11456 L 5090 11456 L 5108 11456 L 5120 11456 L 5120 11430 L 5120 11404 L 5114 11374 L 5108 11374 L 5104 11350 L 5094 11350 L 5086 11350 L 5074 11328 L 5064 11328 L 5052 11330 L 5042 11332 L 5034 11338 L 5024 11348 L 5014 11358 L 5014 11370 L 5008 11384 L 5008 11398 L 5008 11412 L 5008 11426 L 5022 11436 L 5018 11446 L 5018 11454 L 5034 11456 L 5046 11456 L 5062 11456 L 5062 11436 L 5062 11410" stroke="#FFC114" stroke-width="50.00001" fill="none" stroke-linecap="round" stroke-linejoin="round"/>
<circle cx="24858" cy="4796" r="25.000005" fill="#FFC114"/>
<circle cx="15096" cy="9216" r="25.000005" fill="#FFC114"/>
<circle cx="15096" cy="9216" r="25.000005" fill="#FFC114"/>
<circle cx="15096" cy="9216" r="25.000005" fill="#FFC114"/>
<circle cx="14038" cy="9692" r="25.000005" fill="#FFC114"/>
<circle cx="14038" cy="9692" r="25.000005" fill="#FFC114"/>
<circle cx="15148" cy="10592" r="25.000005" fill="#FFC114"/>
<circle cx="18402" cy="9532" r="25.000005" fill="#FFC114"/>
<circle cx="17530" cy="8262" r="25.000005" fill="#FFC114"/>
<path d="M 14076 9724 L 14070 9724 L 14066 9724 L 14066 9728 L 14066 9730 L 14066 9736 L 14066 9738 L 14066 9738 L 14080 9742 L 14080 9744 L 14092 9744 L 14092 9724 L 14088 9724 L 14084 9724 L 14082 9704 L 14080 9704 L 14072 9704 L 14070 9704 L 14066 9704 L 14062 9704 L 14062 9704 L 14058 9704 L 14052 9704 L 14052 9708 L 14052 9712 L 14052 9720 L 14052 9724 L 14052 9730 L 14052 9732 L 14052 9738 L 14070 9740 L 14082 9740 L 14082 9722 L 14082 9702 L 14082 9682 L 14082 9662 L 14080 9662 L 14072 9670 L 14066 9676 L 14062 9686 L 14058 9698 L 14052 9710 L 14052 9726 L 14052 9738 L 14052 9754 L 14052 9766 L 14052 9776 L 14052 9784 L 14052 9786 L 14052 9760 L 14062 9760 L 14062 9730 L 14062 9704 L 14062 9704 L 14058 9704 L 14058 9710 L 14058 9716 L 14058 9722 L 14058 9730 L 14058 9732 L 14058 9738 L 14058 9744 L 14058 9748 L 14058 9748 L 14072 9748 L 14072 9728 L 14070 9728 L 14062 9728 L 14062 9708 L 14058 9708 L 14052 9708 L 14052 9708 L 14048 9708 L 14044 9708 L 14042 9708 L 14042 9710 L 14042 9714 L 14042 9720 L 14042 9724 L 14042 9728 L 14058 9728 L 14072 9732 L 14084 9734 L 14084 9738" stroke="#FFC114" stroke-width="50.00001" fill="none" stroke-linecap="round" stroke-linejoin="round"/>
<path d="M 13898 9618 L 13898 9618 L 13898 9620 L 13898 9622 L 13898 9624 L 13898 9626 L 13898 9632 L 13898 9636 L 13898 9642 L 13898 9648 L 13916 9654 L 13916 9662 L 13930 9662 L 13930 9670 L 13948 9680 L 13948 9686 L 13970 9694 L 13970 9700 L 13988 9708 L 14000 9714 L 14000 9718 L 14026 9720 L 14036 9720 L 14052 9720 L 14062 9720 L 14062 9700 L 14086 9700 L 14100 9700 L 14100 9674 L 14100 9654 L 14114 9654 L 14112 9654 L 14110 9636 L 14104 9636 L 14100 9636 L 14094 9636 L 14084 9640 L 14074 9642 L 14066 9652 L 14060 9658 L 14052 9668 L 14050 9676 L 14046 9686 L 14046 9698 L 14046 9708 L 14046 9712 L 14046 9718 L 14060 9718 L 14060 9718 L 14072 9718 L 14092 9718 L 14102 9718 L 14102 9696 L 14118 9696 L 14118 9674" stroke="#FFC114" stroke-width="50.00001" fill="none" stroke-linecap="round" stroke-linejoin="round"/>
<path d="M 15142 9162 L 15142 9162 L 15154 9162 L 15154 9166 L 15154 9170 L 15154 9172 L 15174 9174 L 15174 9176 L 15174 9178 L 15184 9178 L 15184 9182 L 15202 9184 L 15214 9184 L 15214 9160 L 15210 9160 L 15206 9160 L 15198 9160 L 15188 9160 L 15176 9160 L 15164 9160 L 15152 9162 L 15138 9166 L 15126 9172 L 15114 9176 L 15104 9186 L 15100 9194 L 15092 9204 L 15090 9212 L 15086 9224 L 15086 9230 L 15086 9234 L 15086 9240 L 15086 9244 L 15104 9244 L 15126 9244 L 15144 9244 L 15160 9216 L 15160 9196 L 15160 9172 L 15154 9172 L 15148 9172 L 15138 9148 L 15126 9148 L 15114 9148 L 15100 9148 L 15082 9148 L 15068 9148 L 15054 9150 L 15042 9160 L 15032 9174 L 15028 9186 L 15022 9202 L 15022 9218 L 15022 9234 L 15022 9248 L 15022 9262 L 15040 9274 L 15040 9284 L 15060 9296 L 15076 9300 L 15092 9302 L 15104 9302 L 15126 9302 L 15142 9276 L 15142 9252 L 15136 9252 L 15130 9230 L 15120 9230 L 15110 9230 L 15100 9204 L 15086 9204 L 15076 9204 L 15064 9204 L 15058 9204 L 15052 9204 L 15046 9204 L 15042 9212 L 15042 9220 L 15042 9230" stroke="#FFC114" stroke-width="50.00001" fill="none" stroke-linecap="round" stroke-linejoin="round"/>
<path d="M 15318 8252 L 15308 8252 L 15300 8252 L 15290 8252 L 15284 8252 L 15276 8252 L 15274 8252 L 15266 8232 L 15262 8232 L 15256 8232 L 15250 8236 L 15246 8240 L 15246 8250 L 15246 8258 L 15246 8268 L 15246 8284 L 15246 8298 L 15246 8312 L 15258 8326 L 15258 8342 L 15258 8360 L 15274 8376 L 15274 8390 L 15274 8404 L 15294 8412 L 15294 8418 L 15312 8420 L 15326 8420 L 15342 8400 L 15342 8372 L 15342 8342 L 15340 8342 L 15336 8314 L 15332 8314 L 15322 8294 L 15318 8294 L 15308 8294 L 15300 8294 L 15286 8294 L 15274 8294 L 15266 8294 L 15256 8298 L 15250 8308 L 15242 8322 L 15240 8334 L 15234 8346 L 15234 8360 L 15234 8364 L 15234 8372 L 15234 8380 L 15254 8380 L 15268 8380 L 15280 8354 L 15280 8330 L 15294 8330 L 15294 8308 L 15294 8284 L 15294 8284 L 15290 8262 L 15284 8262 L 15276 8262 L 15272 8262 L 15266 8264 L 15262 8272 L 15262 8280 L 15258 8286 L 15256 8296 L 15256 8306 L 15256 8312 L 15256 8316 L 15256 8322 L 15272 8324" stroke="#FFC114" stroke-width="50.00001" fill="none" stroke-linecap="round" stroke-linejoin="round"/>
<path d="M 15122 10562 L 15122 10568 L 15122 10580 L 15122 10592 L 15122 10604 L 15122 10616 L 15122 10632 L 15138 10644 L 15138 10660 L 15138 10672 L 15138 10686 L 15138 10692 L 15138 10702 L 15154 10710 L 15154 10716 L 15154 10720 L 15154 10720 L 15170 10720 L 15184 10720 L 15202 10720 L 15202 10700 L 15220 10700 L 15220 10682 L 15242 10682 L 15242 10662 L 15266 10662 L 15266 10644 L 15278 10644 L 15278 10624 L 15278 10604 L 15278 10580 L 15274 10580 L 15262 10580 L 15250 10580 L 15238 10580 L 15224 10580 L 15210 10580 L 15194 10580 L 15174 10586 L 15160 10592 L 15144 10600 L 15132 10608 L 15118 10616 L 15104 10626 L 15096 10634 L 15088 10644 L 15086 10654 L 15082 10660 L 15080 10664 L 15080 10668 L 15080 10670 L 15080 10672 L 15102 10676 L 15122 10676 L 15152 10676 L 15166 10656 L 15184 10656 L 15184 10634 L 15202 10634 L 15202 10612 L 15198 10612 L 15192 10592 L 15184 10592 L 15174 10592 L 15164 10592 L 15154 10596 L 15148 10600 L 15138 10604 L 15126 10612 L 15120 10622 L 15114 10630 L 15108 10638 L 15104 10648 L 15102 10654 L 15102 10664" stroke="#FFC114" stroke-width="50.00001" fill="none" stroke-linecap="round" stroke-linejoin="round"/>
<path d="M 18356 9456 L 18356 9456 L 18356 9458 L 18356 9462 L 18356 9464 L 18370 9468 L 18370 9474 L 18370 9480 L 18370 9488 L 18370 9494 L 18370 9504 L 18370 9512 L 18370 9524 L 18370 9534 L 18370 9542 L 18384 9546 L 18384 9556 L 18384 9564 L 18384 9570 L 18400 9576 L 18400 9576 L 18416 9576 L 18430 9576 L 18430 9554 L 18430 9528 L 18430 9508 L 18428 9508 L 18422 9508 L 18416 9484 L 18404 9484 L 18394 9484 L 18382 9484 L 18362 9484 L 18352 9484 L 18334 9484 L 18320 9484 L 18306 9484 L 18298 9484 L 18288 9484 L 18274 9484 L 18272 9492 L 18266 9498 L 18260 9508 L 18260 9514 L 18260 9520 L 18260 9528 L 18260 9534 L 18274 9538 L 18274 9542 L 18294 9546 L 18316 9550 L 18316 9552 L 18338 9552 L 18362 9554 L 18378 9554 L 18390 9554 L 18390 9530 L 18390 9508 L 18406 9508 L 18404 9486 L 18400 9486 L 18396 9486 L 18390 9486 L 18384 9486 L 18374 9468 L 18370 9468 L 18356 9468 L 18352 9472 L 18342 9474 L 18334 9480 L 18324 9484 L 18320 9486 L 18316 9492 L 18310 9500 L 18310 9508 L 18306 9514 L 18306 9522 L 18306 9528 L 18306 9536 L 18306 9540 L 18322 9546 L 18322 9546 L 18342 9546 L 18342 9548 L 18362 9550 L 18382 9550 L 18396 9550 L 18408 9550 L 18408 9532 L 18424 9532 L 18422 9512 L 18418 9512 L 18416 9512 L 18408 9512 L 18400 9512 L 18394 9512 L 18384 9512 L 18374 9512 L 18366 9518 L 18356 9522 L 18352 9528 L 18342 9536 L 18334 9544 L 18328 9552 L 18324 9558 L 18324 9566 L 18322 9570 L 18320 9570 L 18320 9576 L 18320 9580 L 18320 9584 L 18320 9588" stroke="#FFC114" stroke-width="50.00001" fill="none" stroke-linecap="round" stroke-linejoin="round"/>
<path d="M 17528 8224 L 17528 8226 L 17528 8230 L 17528 8232 L 17528 8236 L 17528 8238 L 17528 8238 L 17526 8238 L 17520 8238 L 17516 8238 L 17510 8238 L 17504 8238 L 17502 8240 L 17494 8246 L 17488 8248 L 17480 8254 L 17476 8262 L 17470 8272 L 17466 8280 L 17456 8290 L 17452 8304 L 17448 8314 L 17446 8328 L 17446 8342 L 17446 8352 L 17446 8362 L 17446 8374 L 17446 8384 L 17446 8392 L 17446 8398 L 17446 8402 L 17460 8408 L 17460 8410 L 17484 8410 L 17494 8410 L 17494 8390 L 17510 8390 L 17510 8362 L 17510 8342 L 17524 8320 L 17524 8296 L 17516 8296 L 17514 8296 L 17506 8276 L 17502 8276 L 17494 8276 L 17486 8276 L 17480 8276 L 17470 8276 L 17466 8276 L 17456 8276 L 17446 8276 L 17438 8284 L 17430 8290 L 17420 8296 L 17418 8302 L 17412 8310 L 17404 8316 L 17404 8324 L 17402 8330 L 17402 8336 L 17402 8344 L 17402 8350 L 17402 8356 L 17420 8362 L 17420 8368 L 17442 8372 L 17456 8376 L 17466 8378 L 17480 8382 L 17494 8382 L 17510 8382 L 17526 8382 L 17542 8382 L 17554 8382 L 17576 8360 L 17590 8360 L 17590 8332 L 17590 8306 L 17588 8306 L 17578 8306 L 17570 8286 L 17560 8286 L 17548 8286 L 17536 8286 L 17524 8286 L 17510 8292 L 17502 8294 L 17488 8296 L 17480 8302 L 17470 8308 L 17466 8312 L 17456 8316 L 17456 8320 L 17452 8324" stroke="#FFC114" stroke-width="50.00001" fill="none" stroke-linecap="round" stroke-linejoin="round"/>
<path d="M 18382 7996 L 18382 7996 L 18378 7996 L 18374 7998 L 18374 8004 L 18374 8010 L 18372 8014 L 18372 8020 L 18372 8028 L 18368 8030 L 18368 8038 L 18368 8044 L 18368 8050 L 18368 8056 L 18368 8058 L 18368 8064 L 18386 8064 L 18408 8064 L 18430 8064 L 18430 8042 L 18454 8042 L 18472 8016 L 18486 7992 L 18486 7964 L 18486 7942 L 18484 7942 L 18474 7942 L 18462 7918 L 18450 7918 L 18434 7918 L 18416 7918 L 18400 7918 L 18384 7924 L 18368 7932 L 18356 7936 L 18342 7946 L 18338 7946 L 18332 7956 L 18328 7970 L 18328 7980 L 18328 7990 L 18328 8002 L 18328 8012 L 18342 8022 L 18358 8030 L 18358 8038 L 18386 8040 L 18400 8044 L 18416 8046 L 18430 8048 L 18454 8048 L 18468 8048 L 18468 8022 L 18464 7996 L 18458 7996 L 18450 7996 L 18440 7996 L 18430 7976 L 18418 7976 L 18406 7976 L 18394 7976 L 18382 7976 L 18372 7976 L 18362 7980 L 18356 7988 L 18352 7994 L 18352 8002 L 18352 8010 L 18352 8020 L 18352 8024 L 18352 8030 L 18372 8036 L 18372 8038 L 18386 8038 L 18408 8038 L 18422 8038 L 18422 8020 L 18422 7996 L 18416 7996 L 18408 7974 L 18400 7974 L 18390 7974 L 18382 7974 L 18374 7974 L 18368 7974 L 18362 7974 L 18352 7974 L 18352 7978 L 18352 7982 L 18352 7988 L 18352 7992 L 18352 7994 L 18352 7998 L 18352 8000 L 18368 8004 L 18368 8008 L 18382 8008 L 18394 8008 L 18390 8008" stroke="#FFC114" stroke-width="50.00001" fill="none" stroke-linecap="round" stroke-linejoin="round"/>
<path d="M 15538 6984 L 15538 6986 L 15538 6990 L 15538 6992 L 15538 6996 L 15538 6998 L 15538 7000 L 15538 7006 L 15538 7008 L 15538 7010 L 15538 7014 L 15538 7018 L 15534 7022 L 15532 7026 L 15528 7032 L 15524 7036 L 15524 7038 L 15524 7046 L 15520 7050 L 15520 7056 L 15520 7064 L 15520 7066 L 15520 7072 L 15520 7080 L 15520 7084 L 15534 7092 L 15534 7094 L 15556 7098 L 15556 7102 L 15576 7102 L 15596 7102 L 15618 7102 L 15634 7102 L 15634 7074 L 15634 7056 L 15648 7056 L 15644 7036 L 15640 7036 L 15638 7010 L 15630 7010 L 15628 7010 L 15622 7010 L 15612 7010 L 15606 7010 L 15596 7010 L 15588 7010 L 15578 7010 L 15572 7010 L 15566 7016 L 15560 7024 L 15554 7034 L 15546 7042 L 15544 7052 L 15544 7060 L 15542 7070 L 15542 7078 L 15542 7084 L 15542 7092 L 15542 7098 L 15556 7104 L 15556 7106 L 15572 7112 L 15594 7112 L 15612 7112 L 15628 7112 L 15628 7090 L 15644 7090 L 15644 7064 L 15644 7044 L 15640 7022 L 15634 7022 L 15628 7022 L 15618 7022 L 15610 7022 L 15600 7022 L 15588 7022 L 15580 7022 L 15572 7022 L 15566 7022 L 15560 7026 L 15550 7036 L 15546 7040 L 15544 7046 L 15544 7052 L 15544 7058 L 15544 7064 L 15544 7066 L 15544 7072 L 15560 7074 L 15576 7076 L 15596 7076 L 15618 7076 L 15634 7076 L 15648 7056 L 15648 7034 L 15648 7014 L 15644 7014 L 15638 7014 L 15630 7014 L 15626 7014 L 15616 7014 L 15606 7014 L 15596 7014 L 15588 7014 L 15580 7014 L 15572 7014 L 15566 7016 L 15566 7018 L 15562 7022 L 15562 7026" stroke="#FFC114" stroke-width="50.00001" fill="none" stroke-linecap="round" stroke-linejoin="round"/>
<path d="M 20636 24818 L 20636 24818 L 20636 24798 L 20636 24778 L 20636 24756 L 20634 24756 L 20634 24736 L 20634 24718 L 20634 24696 L 20634 24670 L 20634 24648 L 20634 24652 L 20634 24668 L 20634 24684 L 20650 24708 L 20646 24736 L 20646 24772 L 20646 24808 L 20646 24848 L 20646 24892 L 20646 24938 L 20658 24986 L 20658 25032 L 20656 25080 L 20652 25128 L 20652 25168 L 20650 25204 L 20642 25240 L 20640 25266 L 20636 25288 L 20634 25306 L 20634 25320 L 20626 25328 L 20624 25334 L 20622 25336 L 20618 25336 L 20618 25314" stroke="#FFC114" stroke-width="50.00001" fill="none" stroke-linecap="round" stroke-linejoin="round"/>
<path d="M 20646 25134 L 20646 25112 L 20642 25092 L 20640 25092 L 20636 25092 L 20626 25092 L 20622 25092 L 20618 25092 L 20606 25092 L 20596 25092 L 20582 25072 L 20566 25072 L 20544 25072 L 20526 25072 L 20500 25072 L 20476 25072 L 20454 25072 L 20430 25072 L 20404 25072 L 20380 25072 L 20354 25072 L 20330 25052 L 20312 25052 L 20288 25052 L 20274 25052 L 20262 25052 L 20250 25052 L 20240 25028 L 20236 25028 L 20232 25028 L 20228 25028 L 20228 25002 L 20224 25002 L 20224 24976 L 20222 24976 L 20218 24940 L 20218 24920 L 20214 24894 L 20212 24870 L 20212 24840 L 20206 24810 L 20202 24784 L 20202 24754 L 20196 24728 L 20192 24700 L 20192 24680 L 20186 24660 L 20186 24638" stroke="#FFC114" stroke-width="50.00001" fill="none" stroke-linecap="round" stroke-linejoin="round"/></svg>