<svg xmlns="http://www.w3.org/2000/svg" width="19964" height="20050" viewBox="0 0 19964 20050"><path d="M 10 19988 L 10 19988 L 26 19988 L 38 19990 L 38 19992 L 38 19998 L 38 20000 L 38 20002 L 54 20002 L 54 20006 L 54 20008 L 66 20008 L 66 20010 L 66 20014 L 66 20016 L 66 20020 L 66 20022 L 66 20026 L 66 20028 L 66 20030 L 82 20030 L 82 20032 L 82 20034 L 82 20036 L 100 20036 L 100 20038 L 112 20040 L 126 20040 L 144 20040 L 162 20040 L 186 20040 L 200 20040 L 216 20040 L 230 20040 L 246 20040 L 262 20040 L 280 20040 L 300 20040 L 320 20020 L 338 20020 L 356 20020 L 374 20020 L 392 20020 L 408 20020 L 426 20020 L 444 20020 L 464 20020 L 480 20000 L 494 20000 L 512 20000 L 526 20000 L 540 20000 L 558 20000 L 572 20000 L 584 20000 L 598 20000 L 612 20000 L 628 20000 L 644 20000 L 654 20000 L 672 20000 L 684 20000 L 700 20000 L 712 20000 L 728 20000 L 740 20000 L 754 20000 L 768 20000 L 780 20000 L 796 20000 L 808 20000 L 820 20000 L 834 20000 L 848 20000 L 864 20000 L 874 20000 L 892 20000 L 906 20000 L 922 20000 L 938 20000 L 954 20000 L 972 20000 L 990 20000 L 1006 20000 L 1022 20000 L 1040 20002 L 1056 20002 L 1074 20002 L 1094 20006 L 1112 20006 L 1130 20006 L 1148 20008 L 1164 20010 L 1182 20012 L 1198 20012 L 1218 20012 L 1236 20012 L 1254 20012 L 1274 20012 L 1292 20012 L 1310 20012 L 1332 20012 L 1350 20012 L 1370 20012 L 1388 20012 L 1406 20012 L 1428 20012 L 1448 20012 L 1466 20012 L 1484 20012 L 1502 20012 L 1522 20012 L 1542 20012 L 1558 20012 L 1576 20012 L 1590 20012 L 1608 20012 L 1626 20012 L 1642 20012 L 1658 20012 L 1676 20012 L 1694 20012 L 1710 20012 L 1728 20012 L 1746 20014 L 1762 20016 L 1778 20016 L 1796 20018 L 1820 20020 L 1838 20022 L 1856 20022 L 1874 20022 L 1890 20022 L 1908 20022 L 1924 20022 L 1940 20022 L 1958 20024 L 1976 20024 L 1992 20024 L 2010 20028 L 2026 20028 L 2054 20028 L 2068 20028 L 2086 20028 L 2100 20028 L 2118 20028 L 2134 20028 L 2154 20028 L 2172 20028 L 2188 20028 L 2206 20028 L 2220 20028 L 2240 20028 L 2258 20028 L 2278 20028 L 2298 20028 L 2318 20028 L 2336 20028 L 2354 20028 L 2374 20028 L 2392 20028 L 2408 20028 L 2426 20028 L 2444 20028 L 2462 20028 L 2478 20028 L 2494 20028 L 2512 20028 L 2528 20028 L 2544 20028 L 2560 20028 L 2572 20028 L 2596 20028 L 2622 20028 L 2642 20028 L 2662 20028 L 2682 20028 L 2702 20028 L 2724 20028 L 2746 20028 L 2762 20028 L 2774 20028 L 2790 20028 L 2802 20028 L 2816 20028 L 2830 20028 L 2842 20028 L 2858 20028 L 2874 20028 L 2888 20028 L 2900 20028 L 2916 20028 L 2936 20028 L 2954 20028 L 2972 20028 L 2986 20028 L 3000 20028" stroke="#FF0000" stroke-width="35" fill="none" stroke-linecap="round" stroke-linejoin="round"/>
<path d="M 13412 628 L 13408 628 L 13408 628 L 13404 628 L 13400 628 L 13398 608" stroke="#FF0000" stroke-width="35" fill="none" stroke-linecap="round" stroke-linejoin="round"/>
<path d="M 13294 626 L 13294 628 L 13308 628 L 13322 628 L 13336 628 L 13336 608 L 13336 590 L 13332 590 L 13328 590 L 13322 590 L 13318 590 L 13316 590 L 13306 590 L 13298 592 L 13288 592 L 13278 592 L 13266 594 L 13252 596 L 13234 600 L 13216 600 L 13202 602 L 13180 604 L 13156 608 L 13136 612 L 13112 614 L 13086 620 L 13058 622 L 13032 630 L 13004 630 L 12978 636 L 12950 642 L 12918 648 L 12888 652 L 12860 658 L 12826 662 L 12792 668 L 12758 670 L 12724 676 L 12690 676 L 12656 678 L 12620 682 L 12584 686 L 12550 688 L 12512 690 L 12478 696 L 12444 698 L 12414 702 L 12382 706 L 12352 708 L 12324 708 L 12296 710 L 12274 714 L 12252 714 L 12230 716 L 12212 718 L 12196 718 L 12178 720 L 12164 720 L 12156 720 L 12144 720 L 12134 720 L 12124 720 L 12114 720 L 12114 720 L 12106 720 L 12100 720 L 12096 720 L 12092 720 L 12084 720 L 12082 720 L 12078 720 L 12076 720 L 12074 720 L 12068 720 L 12066 720 L 12066 698 L 12060 698 L 12058 698 L 12054 698 L 12048 698 L 12044 674 L 12042 674 L 12038 674 L 12032 654 L 12028 654 L 12024 654 L 12016 632 L 12008 632 L 11998 632 L 11992 612 L 11982 612 L 11972 612 L 11966 612 L 11958 592 L 11948 592 L 11942 592 L 11934 592 L 11924 592 L 11912 592 L 11902 592 L 11892 592 L 11884 592 L 11876 592 L 11874 592 L 11864 592 L 11856 592 L 11846 592 L 11838 592 L 11830 592 L 11824 574 L 11818 574 L 11810 574 L 11806 574 L 11800 574 L 11796 574 L 11792 574 L 11790 574 L 11788 574 L 11800 574 L 11814 574" stroke="#FF0000" stroke-width="35" fill="none" stroke-linecap="round" stroke-linejoin="round"/>
<path d="M 16374 9508 L 16374 9508 L 16374 9486 L 16374 9466 L 16374 9446 L 16388 9446 L 16402 9446 L 16414 9446 L 16428 9446 L 16426 9446 L 16420 9446 L 16408 9446 L 16392 9446 L 16370 9446 L 16346 9446 L 16318 9446 L 16284 9448 L 16250 9456 L 16216 9460 L 16182 9466 L 16144 9466 L 16106 9472 L 16074 9476 L 16044 9484 L 16012 9488 L 15990 9490 L 15968 9492 L 15952 9494 L 15946 9494 L 15942 9494 L 15962 9502 L 15978 9504 L 15994 9506" stroke="#FF0000" stroke-width="35" fill="none" stroke-linecap="round" stroke-linejoin="round"/>
<path d="M 16208 9542 L 16208 9542 L 16222 9542 L 16218 9542 L 16218 9520 L 16204 9520 L 16204 9522 L 16204 9536 L 16222 9550 L 16222 9568 L 16222 9590 L 16234 9614 L 16234 9642 L 16234 9670 L 16234 9700 L 16234 9732 L 16234 9764 L 16234 9794 L 16246 9824 L 16246 9848 L 16246 9872 L 16242 9890 L 16242 9904 L 16240 9912 L 16240 9918" stroke="#FF0000" stroke-width="35" fill="none" stroke-linecap="round" stroke-linejoin="round"/>
<path d="M 16520 9548 L 16516 9548 L 16514 9528 L 16510 9530 L 16508 9530 L 16506 9532 L 16502 9534 L 16498 9534 L 16496 9538 L 16492 9544 L 16488 9552 L 16486 9558 L 16482 9568 L 16482 9582 L 16482 9594 L 16482 9610 L 16482 9626 L 16482 9646 L 16482 9664 L 16482 9684 L 16482 9704 L 16482 9724 L 16496 9744 L 16496 9760 L 16496 9776 L 16496 9792 L 16496 9806 L 16508 9816 L 16508 9822 L 16508 9828 L 16506 9828 L 16502 9828 L 16492 9828 L 16488 9828 L 16478 9806 L 16474 9806 L 16468 9776 L 16458 9776 L 16452 9738 L 16448 9716 L 16442 9696 L 16442 9672 L 16442 9648 L 16442 9628 L 16442 9608 L 16442 9586 L 16460 9586 L 16460 9552 L 16486 9552 L 16502 9530 L 16520 9530 L 16536 9530 L 16554 9530 L 16576 9530 L 16594 9530 L 16622 9530 L 16634 9530 L 16634 9538 L 16634 9546 L 16634 9558 L 16634 9570 L 16634 9582 L 16634 9592 L 16630 9602 L 16622 9614 L 16610 9624 L 16598 9632 L 16584 9640 L 16570 9648 L 16560 9654 L 16554 9658 L 16544 9662 L 16538 9666 L 16538 9668 L 16538 9670 L 16538 9672 L 16550 9674 L 16550 9676 L 16576 9680 L 16590 9686 L 16608 9694 L 16622 9700 L 16640 9706 L 16652 9716 L 16668 9728 L 16668 9744 L 16688 9758 L 16688 9772 L 16688 9788 L 16688 9802 L 16678 9816 L 16666 9832 L 16648 9844 L 16626 9856 L 16600 9866 L 16576 9874 L 16548 9880 L 16520 9886 L 16492 9890 L 16468 9892 L 16446 9892 L 16424 9892 L 16410 9892" stroke="#FF0000" stroke-width="35" fill="none" stroke-linecap="round" stroke-linejoin="round"/>
<path d="M 16810 9556 L 16808 9556 L 16804 9556 L 16800 9556 L 16798 9556 L 16796 9556 L 16792 9556 L 16788 9556 L 16786 9556 L 16782 9556 L 16782 9536 L 16782 9538 L 16782 9542 L 16782 9544 L 16782 9554 L 16782 9566 L 16782 9580 L 16782 9598 L 16798 9618 L 16798 9638 L 16798 9662 L 16798 9684 L 16814 9710 L 16814 9736 L 16814 9762 L 16830 9788 L 16830 9810 L 16830 9830 L 16848 9848 L 16848 9862 L 16848 9874 L 16848 9880 L 16862 9886 L 16862 9892 L 16856 9864 L 16852 9838 L 16852 9838 L 16848 9806 L 16842 9788 L 16842 9766 L 16834 9744 L 16832 9722 L 16826 9700 L 16822 9676 L 16822 9656 L 16822 9634 L 16822 9614 L 16822 9582 L 16838 9552 L 16852 9552 L 16852 9532 L 16876 9532 L 16902 9532 L 16920 9532 L 16938 9532 L 16956 9532 L 16972 9542 L 16990 9554 L 17006 9568 L 17022 9580 L 17034 9600 L 17050 9622 L 17050 9646 L 17050 9672 L 17050 9686 L 17050 9714 L 17046 9740 L 17036 9766 L 17024 9790 L 17002 9816 L 16978 9836 L 16950 9852 L 16920 9866 L 16888 9878 L 16856 9886 L 16822 9894 L 16796 9900 L 16770 9904 L 16748 9904 L 16728 9904 L 16714 9904 L 16700 9904" stroke="#FF0000" stroke-width="35" fill="none" stroke-linecap="round" stroke-linejoin="round"/>
<path d="M 17426 10266 L 17426 10266 L 17452 10266 L 17466 10266 L 17480 10266 L 17494 10266 L 17508 10266 L 17520 10266 L 17544 10266 L 17558 10266 L 17558 10268 L 17558 10270 L 17574 10272 L 17574 10274 L 17574 10276 L 17574 10280 L 17574 10280 L 17588 10282 L 17588 10290 L 17586 10290 L 17578 10290 L 17570 10290 L 17562 10290 L 17548 10290 L 17534 10290 L 17516 10290 L 17494 10290 L 17472 10290 L 17448 10290 L 17422 10290 L 17400 10290 L 17382 10290 L 17360 10290 L 17344 10290 L 17332 10290 L 17324 10290" stroke="#FF0000" stroke-width="35" fill="none" stroke-linecap="round" stroke-linejoin="round"/>
<path d="M 17578 10388 L 17592 10392 L 17592 10396 L 17592 10398 L 17592 10402 L 17592 10406 L 17586 10410 L 17574 10412 L 17568 10418 L 17552 10422 L 17528 10422 L 17502 10424 L 17478 10428 L 17452 10428 L 17426 10428 L 17400 10428" stroke="#FF0000" stroke-width="35" fill="none" stroke-linecap="round" stroke-linejoin="round"/>
<path d="M 17800 10152 L 17800 10152 L 17800 10130 L 17800 10132 L 17800 10138 L 17800 10142 L 17800 10152 L 17800 10166 L 17800 10184 L 17812 10204 L 17812 10226 L 17812 10252 L 17826 10280 L 17826 10310 L 17826 10338 L 17826 10366 L 17842 10382 L 17842 10412 L 17842 10434 L 17842 10452 L 17842 10470 L 17842 10482 L 17854 10492 L 17854 10500 L 17852 10476 L 17852 10448 L 17850 10426 L 17850 10406 L 17846 10406 L 17846 10372 L 17846 10348 L 17846 10322 L 17846 10300 L 17846 10276 L 17846 10254 L 17846 10232 L 17846 10212 L 17860 10178 L 17860 10156 L 17882 10156 L 17900 10156 L 17920 10156 L 17936 10156 L 17958 10156 L 17976 10156 L 18002 10166 L 18022 10176 L 18046 10194 L 18074 10214 L 18096 10240 L 18122 10266 L 18140 10294 L 18158 10328 L 18158 10358 L 18158 10392 L 18158 10426 L 18156 10456 L 18140 10488 L 18120 10512 L 18092 10536 L 18056 10556 L 18016 10574 L 17976 10588 L 17932 10596 L 17890 10606 L 17852 10614 L 17812 10616 L 17778 10616 L 17748 10616 L 17730 10616" stroke="#FF0000" stroke-width="35" fill="none" stroke-linecap="round" stroke-linejoin="round"/>
<path d="M 18244 10410 L 18244 10410 L 18258 10410 L 18258 10386 L 18276 10386 L 18276 10392 L 18276 10404 L 18276 10414 L 18276 10424 L 18276 10438 L 18276 10452 L 18276 10468 L 18276 10482 L 18276 10498 L 18276 10512 L 18290 10522 L 18290 10530 L 18306 10536 L 18306 10538 L 18330 10538 L 18344 10538 L 18364 10538 L 18364 10514 L 18388 10514 L 18388 10492 L 18408 10492 L 18408 10462 L 18408 10434 L 18402 10414 L 18388 10414 L 18374 10414 L 18358 10414 L 18340 10414 L 18316 10414 L 18302 10414" stroke="#FF0000" stroke-width="35" fill="none" stroke-linecap="round" stroke-linejoin="round"/>
<path d="M 18430 10422 L 18446 10422 L 18446 10396 L 18458 10396 L 18458 10398 L 18470 10408 L 18470 10426 L 18470 10440 L 18470 10458 L 18470 10480 L 18470 10500 L 18470 10522 L 18470 10542 L 18482 10560 L 18482 10578 L 18482 10590 L 18482 10602" stroke="#FF0000" stroke-width="35" fill="none" stroke-linecap="round" stroke-linejoin="round"/>
<path d="M 18590 10152 L 18586 10118 L 18578 10118 L 18576 10118 L 18572 10118 L 18568 10118 L 18568 10122 L 18568 10136 L 18568 10154 L 18568 10176 L 18568 10204 L 18582 10234 L 18582 10270 L 18582 10304 L 18598 10342 L 18598 10378 L 18616 10416 L 18616 10452 L 18628 10482 L 18628 10512 L 18628 10534 L 18648 10556 L 18648 10570" stroke="#FF0000" stroke-width="35" fill="none" stroke-linecap="round" stroke-linejoin="round"/>
<path d="M 18706 10412 L 18706 10388 L 18706 10364 L 18702 10364 L 18696 10364 L 18688 10364 L 18674 10364 L 18656 10364 L 18634 10364 L 18606 10364 L 18582 10368 L 18550 10370 L 18520 10372 L 18488 10378 L 18462 10384 L 18434 10390" stroke="#FF0000" stroke-width="35" fill="none" stroke-linecap="round" stroke-linejoin="round"/>
<path d="M 18822 10420 L 18822 10396 L 18844 10396 L 18860 10396 L 18860 10400 L 18860 10410 L 18856 10420 L 18856 10434 L 18856 10450 L 18856 10466 L 18856 10482 L 18872 10500 L 18872 10514 L 18890 10526 L 18890 10538 L 18914 10546 L 18932 10546 L 18946 10548 L 18964 10548 L 18980 10548 L 18996 10548 L 19010 10548 L 19010 10522 L 19030 10522 L 19030 10494 L 19030 10464 L 19022 10464 L 19010 10438 L 18998 10438 L 18980 10418 L 18960 10418 L 18932 10418 L 18912 10418 L 18888 10418" stroke="#FF0000" stroke-width="35" fill="none" stroke-linecap="round" stroke-linejoin="round"/>
<path d="M 19018 10410 L 19018 10410 L 19042 10410 L 19042 10386 L 19042 10388 L 19056 10390 L 19056 10392 L 19056 10396 L 19056 10402 L 19056 10416 L 19056 10428 L 19068 10446 L 19068 10466 L 19068 10488 L 19080 10508 L 19080 10528 L 19100 10548 L 19100 10562 L 19118 10580 L 19118 10596" stroke="#FF0000" stroke-width="35" fill="none" stroke-linecap="round" stroke-linejoin="round"/>
<path d="M 19280 10338 L 19280 10338 L 19276 10338 L 19270 10338 L 19266 10338 L 19256 10316 L 19246 10316 L 19236 10316 L 19224 10316 L 19212 10322 L 19198 10328 L 19190 10336 L 19178 10342 L 19164 10350 L 19154 10360 L 19150 10366 L 19144 10378 L 19136 10384 L 19134 10392 L 19134 10400 L 19134 10410 L 19134 10416 L 19150 10420 L 19150 10426 L 19174 10432 L 19194 10436 L 19208 10440 L 19230 10448 L 19256 10456 L 19280 10464 L 19302 10472 L 19326 10484 L 19348 10496 L 19366 10508 L 19382 10522 L 19382 10534 L 19398 10544 L 19398 10560 L 19398 10572 L 19398 10586 L 19390 10596 L 19378 10606 L 19366 10614 L 19348 10620 L 19326 10624 L 19306 10624" stroke="#FF0000" stroke-width="35" fill="none" stroke-linecap="round" stroke-linejoin="round"/>
<path d="M 19436 10400 L 19436 10400 L 19434 10400 L 19426 10400 L 19418 10400 L 19412 10400 L 19406 10400 L 19400 10400 L 19396 10400 L 19394 10400 L 19390 10400 L 19390 10406 L 19390 10412 L 19390 10416 L 19406 10420 L 19432 10420 L 19446 10420 L 19466 10420 L 19486 10420 L 19508 10420 L 19534 10420 L 19556 10420 L 19576 10396 L 19594 10396 L 19610 10396 L 19622 10396 L 19622 10376 L 19622 10356 L 19618 10356 L 19602 10356 L 19584 10356 L 19560 10358 L 19536 10362 L 19510 10366 L 19486 10374 L 19460 10382 L 19442 10392 L 19422 10402 L 19406 10412 L 19396 10426 L 19396 10442 L 19394 10458 L 19394 10472 L 19394 10486 L 19394 10498 L 19416 10510 L 19432 10522 L 19450 10534 L 19474 10538 L 19502 10548 L 19528 10556 L 19560 10560 L 19588 10564 L 19618 10564 L 19642 10564 L 19666 10564 L 19686 10564 L 19708 10564 L 19728 10564 L 19746 10544" stroke="#FF0000" stroke-width="35" fill="none" stroke-linecap="round" stroke-linejoin="round"/>
<path d="M 19758 10236 L 19744 10208 L 19740 10208 L 19726 10180 L 19716 10180 L 19706 10154 L 19698 10154 L 19692 10154 L 19686 10136 L 19682 10136 L 19682 10142 L 19682 10154 L 19682 10170 L 19698 10192 L 19710 10214 L 19726 10242 L 19726 10274 L 19750 10308 L 19766 10346 L 19780 10384 L 19792 10422 L 19808 10460 L 19808 10498 L 19830 10532 L 19830 10564 L 19852 10592 L 19852 10608 L 19852 10626 L 19852 10640" stroke="#FF0000" stroke-width="35" fill="none" stroke-linecap="round" stroke-linejoin="round"/>
<path d="M 19914 10290 L 19936 10290 L 19954 10290 L 19954 10268 L 19942 10268 L 19928 10268 L 19900 10270 L 19878 10274 L 19846 10276 L 19812 10278 L 19778 10280 L 19740 10286 L 19708 10292 L 19672 10298 L 19642 10304 L 19614 10310" stroke="#FF0000" stroke-width="35" fill="none" stroke-linecap="round" stroke-linejoin="round"/>
<path d="M 15384 144 L 15384 144 L 15380 144 L 15380 120 L 15378 120 L 15378 102 L 15374 102 L 15370 102 L 15370 106 L 15370 110 L 15388 120 L 15388 128 L 15408 140 L 15408 152 L 15430 166 L 15446 178 L 15456 192 L 15474 202 L 15486 214 L 15486 226 L 15506 240 L 15506 250 L 15526 254 L 15526 256 L 15544 256 L 15564 256 L 15564 236 L 15578 236 L 15578 206 L 15600 186 L 15600 160 L 15626 136 L 15626 110 L 15638 84 L 15656 56 L 15676 30 L 15690 10" stroke="#FF0000" stroke-width="35" fill="none" stroke-linecap="round" stroke-linejoin="round"/>
<path d="M 16088 656 L 16104 656 L 16102 634 L 16102 614 L 16102 590 L 16116 590 L 16116 594 L 16134 604 L 16134 618 L 16150 632 L 16150 648 L 16166 664 L 16166 680 L 16186 696 L 16186 710 L 16204 726 L 16204 738 L 16228 748 L 16228 754 L 16250 756 L 16274 756 L 16296 730 L 16322 692 L 16336 668 L 16352 640 L 16366 606 L 16380 574 L 16392 542" stroke="#FF0000" stroke-width="35" fill="none" stroke-linecap="round" stroke-linejoin="round"/></svg>