<svg xmlns="http://www.w3.org/2000/svg" width="7240" height="2695" viewBox="0 0 7240 2695"><path d="M 336 166 L 336 148 L 336 128 L 353 111" stroke="#000000" stroke-width="50.00001" fill="none" stroke-linecap="round" stroke-linejoin="round"/>
<path d="M 464 10 L 464 12 L 456 12 L 451 12 L 446 12 L 443 12 L 438 12 L 431 12 L 423 12 L 418 12 L 411 12 L 408 12 L 403 12 L 398 12 L 396 12 L 396 18 L 395 30 L 395 43 L 395 63 L 395 86 L 395 111 L 391 137 L 391 165 L 391 199 L 391 230 L 391 263 L 390 296 L 390 328 L 386 356 L 386 382 L 386 404 L 383 420 L 383 435 L 383 445" stroke="#000000" stroke-width="50.00001" fill="none" stroke-linecap="round" stroke-linejoin="round"/>
<path d="M 336 182 L 331 182 L 323 162 L 319 162 L 311 142 L 306 142 L 300 122 L 298 122 L 295 106 L 295 86 L 295 70 L 319 70 L 334 70 L 361 70 L 382 70 L 414 73 L 448 78 L 486 86 L 525 99 L 566 116 L 607 134 L 647 157 L 682 182 L 711 210 L 736 240 L 754 273 L 754 306 L 754 341 L 754 377 L 739 412 L 716 447 L 688 481 L 647 514 L 602 544 L 559 572 L 511 595 L 465 617 L 430 637 L 396 653 L 369 667" stroke="#000000" stroke-width="50.00001" fill="none" stroke-linecap="round" stroke-linejoin="round"/>
<path d="M 952 444 L 952 444 L 950 444 L 940 429 L 932 429 L 924 429 L 917 429 L 909 429 L 902 429 L 896 429 L 894 429 L 919 429 L 950 429 L 972 429 L 993 429 L 1026 429 L 1055 416 L 1086 416 L 1116 416 L 1149 396 L 1182 396 L 1210 380 L 1231 380 L 1248 365 L 1248 350 L 1243 350 L 1218 350 L 1193 350 L 1160 350 L 1127 356 L 1089 365 L 1055 378 L 1018 389 L 985 406 L 959 423 L 935 441 L 909 459 L 902 477 L 899 495 L 899 513 L 899 532 L 917 548 L 935 563 L 964 578 L 993 593 L 1028 603 L 1068 609 L 1102 614 L 1142 621 L 1182 621 L 1215 621 L 1248 621" stroke="#000000" stroke-width="50.00001" fill="none" stroke-linecap="round" stroke-linejoin="round"/>
<path d="M 1498 432 L 1483 417 L 1462 417 L 1447 417 L 1429 417 L 1410 417 L 1395 417 L 1381 417 L 1364 417 L 1349 417 L 1339 419 L 1331 422 L 1326 422 L 1326 424 L 1346 424 L 1374 404 L 1399 404 L 1427 384 L 1453 369 L 1486 354 L 1519 338 L 1551 320 L 1582 300 L 1612 283 L 1637 262 L 1657 245 L 1657 229 L 1680 229 L 1680 209 L 1670 209 L 1653 209 L 1637 209 L 1612 220 L 1591 237 L 1569 258 L 1544 285 L 1529 311 L 1515 339 L 1503 371 L 1501 402 L 1501 435 L 1501 467 L 1501 498 L 1524 526 L 1548 553 L 1574 576 L 1602 596 L 1632 612 L 1662 625 L 1693 632 L 1721 634 L 1746 634" stroke="#000000" stroke-width="50.00001" fill="none" stroke-linecap="round" stroke-linejoin="round"/>
<path d="M 1944 464 L 1944 464 L 1944 446 L 1964 446 L 1964 451 L 1964 462 L 1964 481 L 1961 500 L 1957 525 L 1957 550 L 1956 580 L 1956 611 L 1956 643 L 1956 676 L 1956 709 L 1982 742 L 1982 768 L 1999 795 L 1999 813 L 1999 826 L 2017 831" stroke="#000000" stroke-width="50.00001" fill="none" stroke-linecap="round" stroke-linejoin="round"/>
<path d="M 2018 798 L 2018 775 L 2018 748 L 2011 717 L 2000 682 L 1993 646 L 1983 608 L 1975 575 L 1967 538 L 1967 507 L 1967 479 L 1967 454 L 1967 434 L 1990 413 L 2021 413 L 2059 413 L 2086 413 L 2114 419 L 2142 431 L 2168 444 L 2187 461 L 2187 477 L 2205 497 L 2205 515 L 2202 537 L 2190 557 L 2170 575 L 2145 591 L 2112 606 L 2071 619 L 2035 633 L 1993 641 L 1952 648 L 1911 654" stroke="#000000" stroke-width="50.00001" fill="none" stroke-linecap="round" stroke-linejoin="round"/>
<path d="M 2284 262 L 2284 262 L 2284 239 L 2305 239 L 2305 221 L 2305 226 L 2305 244 L 2329 267 L 2329 295 L 2344 325 L 2344 360 L 2367 398 L 2367 434 L 2396 475 L 2396 513 L 2420 551 L 2420 588 L 2439 619 L 2439 644 L 2439 662 L 2466 674 L 2466 680 L 2466 665 L 2466 634 L 2466 618 L 2466 601 L 2466 581 L 2466 563 L 2466 541 L 2481 527 L 2481 510 L 2509 490 L 2542 490 L 2567 490 L 2588 495 L 2610 507 L 2633 520 L 2656 538 L 2679 558 L 2701 576 L 2724 598 L 2747 622 L 2765 644 L 2783 664 L 2783 684 L 2808 699 L 2808 710 L 2808 717 L 2830 722" stroke="#000000" stroke-width="50.00001" fill="none" stroke-linecap="round" stroke-linejoin="round"/>
<path d="M 2920 450 L 2908 450 L 2895 450 L 2884 450 L 2875 455 L 2870 462 L 2865 471 L 2860 483 L 2854 500 L 2854 514 L 2854 534 L 2854 554 L 2854 574 L 2854 591 L 2880 612 L 2880 630" stroke="#000000" stroke-width="50.00001" fill="none" stroke-linecap="round" stroke-linejoin="round"/>
<path d="M 2812 258 L 2797 238 L 2781 220 L 2767 205 L 2752 205 L 2739 205 L 2729 189 L 2719 189 L 2713 189 L 2706 189" stroke="#000000" stroke-width="50.00001" fill="none" stroke-linecap="round" stroke-linejoin="round"/>
<path d="M 40 1752 L 40 1752 L 37 1752 L 35 1739 L 32 1739 L 28 1722 L 27 1722 L 23 1722 L 22 1722 L 22 1709 L 19 1709 L 15 1709 L 15 1694 L 14 1694 L 10 1694 L 10 1701 L 10 1711 L 10 1727 L 35 1749 L 35 1777 L 60 1810 L 60 1845 L 90 1884 L 90 1926 L 118 1970 L 118 2013 L 146 2060 L 146 2104 L 169 2146 L 169 2182 L 169 2208 L 169 2230 L 169 2243 L 169 2246 L 166 2246 L 161 2246 L 152 2246" stroke="#000000" stroke-width="50.00001" fill="none" stroke-linecap="round" stroke-linejoin="round"/>
<path d="M 136 2172 L 129 2146 L 123 2114 L 119 2081 L 115 2048 L 111 2013 L 110 1980 L 110 1950 L 110 1919 L 110 1893 L 110 1868 L 106 1841 L 106 1816 L 106 1797 L 106 1775 L 106 1757 L 106 1739 L 106 1724 L 129 1707 L 151 1687 L 181 1673 L 205 1673 L 227 1673 L 253 1673 L 285 1673 L 316 1679 L 348 1692 L 369 1709 L 396 1729 L 396 1752 L 417 1777 L 417 1807 L 417 1836 L 414 1866 L 402 1896 L 377 1922 L 353 1950 L 328 1975 L 306 1995" stroke="#000000" stroke-width="50.00001" fill="none" stroke-linecap="round" stroke-linejoin="round"/>
<path d="M 638 1828 L 633 1828 L 631 1828 L 625 1828 L 620 1830 L 618 1831 L 615 1838 L 615 1848 L 615 1864 L 615 1883 L 615 1906 L 610 1931 L 610 1960 L 610 1990 L 610 2020 L 610 2051 L 610 2079 L 610 2111 L 610 2141 L 610 2165 L 610 2185 L 610 2197 L 610 2203 L 607 2203 L 607 2175 L 605 2152 L 602 2124 L 602 2091 L 602 2055 L 600 2015 L 600 1977 L 600 1937 L 600 1901 L 600 1866 L 600 1836 L 600 1811 L 618 1797 L 643 1797 L 664 1797 L 681 1797 L 707 1803 L 734 1823 L 757 1848 L 782 1874 L 808 1906 L 830 1935 L 851 1965 L 878 1997 L 896 2026 L 913 2051" stroke="#000000" stroke-width="50.00001" fill="none" stroke-linecap="round" stroke-linejoin="round"/>
<path d="M 906 2036 L 894 2019 L 885 2003 L 871 1988 L 856 1988 L 835 1967 L 817 1967 L 795 1967 L 767 1967 L 736 1967 L 703 1967 L 668 1967 L 633 1967 L 600 1970 L 565 1980 L 532 1990 L 498 2000" stroke="#000000" stroke-width="50.00001" fill="none" stroke-linecap="round" stroke-linejoin="round"/>
<path d="M 1586 1902 L 1583 1902 L 1574 1885 L 1563 1885 L 1556 1885 L 1548 1885 L 1538 1869 L 1530 1869 L 1520 1869 L 1512 1869 L 1502 1869 L 1495 1869 L 1487 1869 L 1479 1854 L 1465 1854 L 1457 1854 L 1447 1854 L 1434 1856 L 1421 1857 L 1406 1859 L 1393 1867 L 1381 1877 L 1364 1892 L 1353 1905 L 1340 1922 L 1331 1942 L 1318 1965 L 1313 1988 L 1307 2011 L 1307 2036 L 1307 2061 L 1307 2084 L 1307 2105 L 1333 2125 L 1353 2143 L 1373 2155 L 1396 2163 L 1416 2168 L 1445 2168 L 1469 2168 L 1490 2168 L 1512 2168 L 1528 2147 L 1548 2120 L 1548 2105 L 1548 2089 L 1548 2072 L 1541 2049 L 1525 2049 L 1507 2033 L 1483 2033 L 1460 2033 L 1434 2033 L 1409 2036 L 1386 2044 L 1368 2056" stroke="#000000" stroke-width="50.00001" fill="none" stroke-linecap="round" stroke-linejoin="round"/>
<path d="M 1896 2108 L 1896 2108 L 1896 2111 L 1891 2113 L 1886 2118 L 1878 2120 L 1870 2121 L 1863 2125 L 1856 2126 L 1850 2126" stroke="#000000" stroke-width="50.00001" fill="none" stroke-linecap="round" stroke-linejoin="round"/>
<path d="M 2192 1850 L 2192 1830 L 2187 1830 L 2182 1810 L 2171 1810 L 2164 1810 L 2151 1810 L 2141 1810 L 2126 1810 L 2109 1810 L 2094 1812 L 2080 1822 L 2060 1837 L 2042 1853 L 2022 1871 L 2007 1893 L 1990 1914 L 1980 1938 L 1980 1964 L 1972 1991 L 1967 2015 L 1967 2042 L 1967 2065 L 1967 2088 L 1995 2110 L 1995 2128 L 2030 2146 L 2053 2156 L 2080 2164 L 2109 2171 L 2136 2172 L 2164 2172 L 2187 2172 L 2210 2172 L 2243 2153 L 2271 2131 L 2271 2106 L 2271 2085 L 2270 2085 L 2255 2068 L 2238 2068 L 2218 2068 L 2197 2068 L 2177 2068 L 2156 2068 L 2136 2072" stroke="#000000" stroke-width="50.00001" fill="none" stroke-linecap="round" stroke-linejoin="round"/>
<path d="M 3326 1792 L 3326 1792 L 3347 1792 L 3364 1792 L 3381 1792 L 3399 1792 L 3397 1792 L 3386 1777 L 3376 1777 L 3362 1777 L 3344 1777 L 3318 1777 L 3295 1777 L 3262 1762 L 3225 1762 L 3184 1762 L 3139 1762 L 3093 1762 L 3047 1766 L 3004 1774 L 2959 1784 L 2921 1794 L 2884 1807 L 2853 1823 L 2827 1843 L 2807 1866 L 2794 1890 L 2792 1913 L 2792 1936 L 2792 1962 L 2792 1989 L 2822 2014 L 2843 2037 L 2868 2057 L 2903 2075 L 2936 2091 L 2969 2105 L 3004 2114 L 3038 2121 L 3073 2123 L 3106 2123 L 3139 2123 L 3169 2123 L 3197 2123 L 3225 2100 L 3243 2100 L 3262 2078 L 3262 2063 L 3285 2047 L 3285 2030 L 3285 2015 L 3285 2000 L 3285 1985 L 3280 1985 L 3263 1966 L 3247 1966 L 3217 1966 L 3189 1966 L 3159 1966 L 3124 1966 L 3093 1966 L 3068 1966 L 3038 1966 L 3017 1969 L 2995 1974 L 2982 1981 L 2972 1985" stroke="#000000" stroke-width="50.00001" fill="none" stroke-linecap="round" stroke-linejoin="round"/>
<path d="M 3506 1864 L 3501 1864 L 3496 1864 L 3488 1864 L 3478 1864 L 3476 1864 L 3468 1864 L 3460 1849 L 3453 1849 L 3450 1849 L 3446 1849 L 3446 1851 L 3446 1859 L 3446 1867 L 3446 1881 L 3471 1897 L 3471 1914 L 3488 1935 L 3488 1960 L 3514 1983 L 3514 2008 L 3541 2031 L 3541 2056 L 3561 2079 L 3561 2099 L 3561 2115 L 3561 2129 L 3561 2137 L 3559 2137 L 3551 2137 L 3541 2137 L 3531 2120 L 3519 2105 L 3513 2091 L 3499 2072 L 3491 2049 L 3485 2026 L 3481 2005 L 3478 1981 L 3478 1957 L 3478 1933 L 3478 1910 L 3501 1890 L 3501 1876 L 3532 1876 L 3551 1852 L 3569 1852 L 3592 1838 L 3617 1838 L 3643 1838 L 3670 1838 L 3693 1839 L 3714 1843 L 3714 1849 L 3739 1859 L 3739 1869 L 3759 1881 L 3759 1894 L 3756 1905 L 3747 1917 L 3734 1930 L 3716 1938 L 3696 1947 L 3676 1955 L 3655 1963 L 3628 1968 L 3607 1973 L 3587 1976 L 3569 1976 L 3561 1976 L 3556 1976 L 3579 1976 L 3600 1976 L 3627 1976 L 3652 1976 L 3680 1976 L 3711 1976 L 3739 1980 L 3767 1986 L 3794 1996 L 3817 2010 L 3817 2023 L 3840 2038 L 3840 2053 L 3840 2067 L 3838 2082 L 3819 2096 L 3800 2110 L 3771 2124 L 3738 2135 L 3701 2143 L 3663 2152 L 3628 2157 L 3595 2160 L 3564 2160 L 3534 2160" stroke="#000000" stroke-width="50.00001" fill="none" stroke-linecap="round" stroke-linejoin="round"/>
<path d="M 3974 1930 L 3974 1910 L 3992 1897 L 3992 1877 L 4010 1877 L 4029 1877 L 4029 1862 L 4057 1862 L 4083 1862 L 4101 1862 L 4118 1862 L 4138 1864 L 4156 1869 L 4172 1877 L 4189 1885 L 4186 1897 L 4186 1909 L 4186 1922 L 4186 1935 L 4186 1947 L 4186 1958 L 4184 1971 L 4167 1983 L 4164 1994 L 4151 2003 L 4134 2013 L 4123 2023 L 4111 2028 L 4098 2034 L 4088 2037 L 4083 2041 L 4083 2044 L 4083 2049 L 4083 2051 L 4106 2056 L 4106 2061 L 4139 2066 L 4158 2071 L 4176 2077 L 4176 2085 L 4207 2095 L 4207 2105 L 4225 2117 L 4225 2130 L 4225 2143 L 4225 2157 L 4212 2168 L 4194 2180 L 4164 2188 L 4138 2198 L 4106 2206 L 4075 2214 L 4047 2219 L 4015 2223" stroke="#000000" stroke-width="50.00001" fill="none" stroke-linecap="round" stroke-linejoin="round"/>
<path d="M 4496 2016 L 4496 2016 L 4496 2001 L 4493 2001 L 4481 2001 L 4468 2001 L 4460 2001 L 4451 2001 L 4446 2008 L 4438 2018 L 4436 2028 L 4436 2039 L 4436 2054 L 4436 2067 L 4456 2082 L 4456 2099 L 4491 2112 L 4514 2127 L 4539 2138 L 4570 2147 L 4602 2153 L 4633 2155 L 4666 2155 L 4698 2155 L 4726 2155 L 4751 2138 L 4769 2138 L 4769 2110 L 4769 2094 L 4769 2079 L 4769 2061 L 4762 2042 L 4739 2026 L 4709 2026 L 4675 2006 L 4635 2006 L 4592 2006 L 4547 2006 L 4506 2006" stroke="#000000" stroke-width="50.00001" fill="none" stroke-linecap="round" stroke-linejoin="round"/>
<path d="M 5756 1922 L 5754 1922 L 5753 1907 L 5746 1907 L 5733 1907 L 5723 1907 L 5711 1907 L 5690 1907 L 5667 1907 L 5640 1907 L 5612 1914 L 5581 1922 L 5549 1935 L 5521 1950 L 5490 1965 L 5465 1985 L 5442 2006 L 5424 2029 L 5407 2053 L 5400 2077 L 5397 2104 L 5397 2129 L 5397 2152 L 5420 2173 L 5440 2190 L 5462 2206 L 5490 2218 L 5521 2226 L 5558 2231 L 5594 2233 L 5625 2233 L 5658 2233 L 5690 2233 L 5718 2218 L 5741 2218 L 5741 2197 L 5759 2183 L 5759 2168 L 5759 2155 L 5754 2155 L 5741 2132 L 5736 2132 L 5715 2114 L 5690 2114 L 5663 2114 L 5639 2114 L 5615 2114 L 5594 2114 L 5576 2114 L 5563 2114" stroke="#000000" stroke-width="50.00001" fill="none" stroke-linecap="round" stroke-linejoin="round"/>
<path d="M 6068 1966 L 6060 1966 L 6053 1966 L 6045 1966 L 6037 1966 L 6028 1966 L 6020 1966 L 6013 1953 L 6005 1953 L 6000 1953 L 5995 1953 L 5992 1953 L 5987 1953 L 6005 1953 L 6005 1936 L 6027 1936 L 6060 1936 L 6075 1936 L 6096 1936 L 6116 1936 L 6137 1936 L 6157 1936 L 6182 1936 L 6202 1936 L 6223 1936 L 6243 1936 L 6261 1936 L 6283 1936 L 6304 1941 L 6324 1948 L 6339 1956 L 6357 1964 L 6357 1971 L 6387 1983 L 6387 1991 L 6407 1999 L 6407 2009 L 6427 2017 L 6427 2024 L 6427 2030 L 6427 2039 L 6427 2042 L 6427 2045 L 6427 2047 L 6427 2050 L 6425 2050 L 6422 2050 L 6420 2050 L 6414 2050 L 6409 2034 L 6404 2034 L 6395 2034 L 6386 2017 L 6376 2017 L 6362 2002 L 6346 2002 L 6326 1986 L 6304 1986 L 6283 1966 L 6257 1966 L 6230 1951 L 6209 1951 L 6182 1951 L 6156 1933 L 6132 1933 L 6109 1933 L 6083 1933 L 6061 1933 L 6042 1933 L 6027 1933 L 6017 1936 L 6004 1941 L 5992 1946 L 5982 1953 L 5977 1959 L 5970 1964 L 5962 1971 L 5959 1978 L 5952 1983 L 5949 1987 L 5941 1994 L 5939 2001 L 5936 2009 L 5932 2016 L 5932 2026 L 5931 2037 L 5931 2050 L 5931 2064 L 5931 2078 L 5931 2095 L 5931 2113 L 5949 2135 L 5949 2156 L 5949 2179 L 5949 2201 L 5967 2222 L 5967 2244 L 5967 2265 L 5982 2284 L 5982 2300 L 5982 2315 L 5982 2330 L 5982 2340 L 6000 2346 L 6000 2353" stroke="#000000" stroke-width="50.00001" fill="none" stroke-linecap="round" stroke-linejoin="round"/>
<path d="M 6194 2160 L 6209 2160 L 6209 2145 L 6207 2145 L 6199 2145 L 6196 2145 L 6187 2145 L 6174 2145 L 6156 2145 L 6131 2145 L 6105 2145 L 6072 2145 L 6039 2145 L 6002 2145 L 5966 2145 L 5929 2145 L 5895 2145 L 5860 2145" stroke="#000000" stroke-width="50.00001" fill="none" stroke-linecap="round" stroke-linejoin="round"/>
<circle cx="6804" cy="2006" r="25.000005" fill="#000000"/>
<path d="M 6800 1988 L 6800 1988 L 6800 1975 L 6800 1960 L 6798 1960 L 6795 1960 L 6795 1963 L 6795 1970 L 6795 1981 L 6793 1998 L 6793 2016 L 6792 2038 L 6792 2056 L 6788 2079 L 6785 2105 L 6783 2132 L 6780 2158 L 6775 2185 L 6772 2210 L 6770 2234 L 6767 2254 L 6762 2271 L 6762 2281 L 6757 2287 L 6754 2289 L 6752 2289 L 6752 2267 L 6752 2253 L 6752 2236 L 6752 2215 L 6772 2193 L 6772 2168 L 6772 2142 L 6793 2115 L 6793 2091 L 6793 2069 L 6793 2046 L 6812 2026 L 6812 2008 L 6812 1995 L 6812 1980 L 6808 1980 L 6800 1980 L 6792 1983 L 6779 1991 L 6762 2003 L 6744 2016 L 6726 2033 L 6707 2051 L 6693 2071 L 6678 2087 L 6664 2104 L 6654 2122 L 6641 2140" stroke="#000000" stroke-width="50.00001" fill="none" stroke-linecap="round" stroke-linejoin="round"/>
<path d="M 7038 2122 L 7038 2107 L 7056 2092 L 7051 2096 L 7050 2101 L 7046 2109 L 7041 2119 L 7038 2132 L 7036 2148 L 7036 2160 L 7036 2177 L 7036 2195 L 7036 2210 L 7036 2228 L 7036 2244 L 7036 2256 L 7059 2269 L 7059 2279 L 7088 2282 L 7106 2286 L 7124 2286 L 7145 2286 L 7165 2286 L 7184 2286 L 7202 2261 L 7202 2248 L 7230 2233 L 7230 2216 L 7230 2198 L 7230 2180 L 7230 2160 L 7230 2143 L 7220 2127 L 7198 2112 L 7174 2112 L 7142 2094 L 7104 2094 L 7064 2094 L 7025 2094 L 6990 2094 L 6954 2104 L 6922 2115" stroke="#000000" stroke-width="50.00001" fill="none" stroke-linecap="round" stroke-linejoin="round"/>
<path d="M 2496 1586 L 2496 1586 L 2496 1571 L 2496 1558 L 2494 1558 L 2494 1543 L 2486 1543 L 2481 1523 L 2476 1523 L 2476 1510 L 2468 1495 L 2466 1495 L 2463 1480 L 2463 1462 L 2463 1470 L 2463 1482 L 2463 1500 L 2463 1523 L 2484 1553 L 2484 1584 L 2484 1622 L 2509 1662 L 2509 1708 L 2534 1760 L 2534 1814 L 2567 1874 L 2582 1933 L 2597 1996 L 2617 2057 L 2617 2118 L 2642 2173 L 2642 2229 L 2665 2281 L 2665 2328 L 2688 2373 L 2688 2413 L 2709 2448 L 2709 2479 L 2709 2505 L 2709 2522 L 2709 2537 L 2724 2543 L 2724 2548" stroke="#000000" stroke-width="50.00001" fill="none" stroke-linecap="round" stroke-linejoin="round"/>
<path d="M 5080 1742 L 5068 1742 L 5060 1722 L 5052 1722 L 5044 1722 L 5039 1706 L 5034 1706 L 5025 1706 L 5019 1691 L 5012 1691 L 5006 1691 L 5002 1691 L 5001 1691 L 5001 1692 L 4997 1702 L 4997 1719 L 4997 1740 L 4997 1772 L 4997 1810 L 4997 1858 L 4997 1907 L 4997 1965 L 4997 2028 L 4997 2093 L 4997 2160 L 4997 2230 L 4997 2298 L 4997 2365 L 4997 2430 L 4994 2489 L 4994 2541 L 4994 2585 L 4994 2620 L 4994 2652 L 4989 2668 L 4989 2678 L 4989 2685" stroke="#000000" stroke-width="50.00001" fill="none" stroke-linecap="round" stroke-linejoin="round"/></svg>