<svg xmlns="http://www.w3.org/2000/svg" width="16217" height="11289" viewBox="0 0 16217 11289"><circle cx="10" cy="9809" r="17.5" fill="#000000"/>
<circle cx="10" cy="9826" r="17.5" fill="#000000"/>
<circle cx="4317" cy="11279" r="17.5" fill="#000000"/>
<path d="M 6093 648 L 6089 648 L 6085 616 L 6079 616 L 6075 594 L 6071 594 L 6069 568 L 6067 568 L 6067 548 L 6063 548 L 6059 528 L 6057 528 L 6057 502 L 6053 502 L 6051 502 L 6051 484 L 6049 484 L 6043 484 L 6041 484 L 6041 464 L 6041 466 L 6041 468 L 6041 474 L 6041 488 L 6057 506 L 6057 528 L 6071 562 L 6071 598 L 6093 640 L 6093 682 L 6117 730 L 6131 776 L 6143 824 L 6155 872 L 6171 920 L 6183 968 L 6201 1008 L 6201 1040 L 6221 1068 L 6221 1084 L 6241 1092 L 6251 1092 L 6251 1072 L 6251 1050 L 6251 1026 L 6251 996 L 6269 962 L 6269 930 L 6269 898 L 6269 866 L 6269 840 L 6279 816 L 6279 786 L 6295 786 L 6313 786 L 6333 800 L 6333 818 L 6361 838 L 6375 860 L 6393 884 L 6403 906 L 6419 928 L 6433 940 L 6447 956 L 6463 964 L 6463 966 L 6485 966 L 6503 966 L 6503 934 L 6517 910 L 6517 876 L 6517 836 L 6517 796 L 6517 748 L 6517 702 L 6517 658 L 6517 616 L 6517 578 L 6517 546 L 6517 516 L 6517 496" stroke="#000000" stroke-width="35" fill="none" stroke-linecap="round" stroke-linejoin="round"/>
<path d="M 6729 566 L 6723 548 L 6715 548 L 6705 514 L 6701 514 L 6697 488 L 6695 488 L 6691 488 L 6691 490 L 6691 504 L 6691 524 L 6691 554 L 6711 586 L 6711 628 L 6733 676 L 6733 726 L 6753 778 L 6753 832 L 6771 888 L 6771 944 L 6791 994 L 6791 1038 L 6807 1070 L 6807 1090 L 6807 1106 L 6807 1106 L 6807 1086 L 6803 1058 L 6803 1028 L 6801 994 L 6801 956 L 6801 918 L 6801 884 L 6801 850 L 6801 826 L 6821 826 L 6821 806 L 6849 806 L 6867 806 L 6889 810 L 6907 826 L 6929 846 L 6949 876 L 6969 904 L 6987 936 L 7001 970 L 7021 1002 L 7037 1032 L 7037 1058 L 7055 1074 L 7055 1082" stroke="#000000" stroke-width="35" fill="none" stroke-linecap="round" stroke-linejoin="round"/>
<path d="M 7097 872 L 7097 836 L 7097 810 L 7093 810 L 7085 810 L 7079 790 L 7069 790 L 7063 790 L 7055 790 L 7047 790 L 7039 798 L 7035 802 L 7035 812 L 7035 824 L 7035 838 L 7035 850 L 7035 864 L 7057 878 L 7057 892 L 7085 898 L 7099 902 L 7115 906 L 7139 906 L 7159 906 L 7179 906 L 7203 906 L 7221 874 L 7237 874 L 7251 838 L 7251 820 L 7273 800 L 7273 780 L 7273 746 L 7267 746 L 7255 746 L 7243 752 L 7231 768 L 7217 784 L 7207 804 L 7193 830 L 7183 856 L 7179 882 L 7179 906 L 7179 934 L 7179 954 L 7179 970 L 7179 982 L 7199 990 L 7217 996 L 7237 996 L 7259 998 L 7281 998 L 7301 998 L 7323 998 L 7349 964" stroke="#000000" stroke-width="35" fill="none" stroke-linecap="round" stroke-linejoin="round"/>
<path d="M 7461 852 L 7461 818 L 7461 788 L 7475 788 L 7475 770 L 7475 770 L 7475 782 L 7475 790 L 7475 800" stroke="#000000" stroke-width="35" fill="none" stroke-linecap="round" stroke-linejoin="round"/>
<path d="M 7501 796 L 7497 796 L 7495 796 L 7491 796 L 7491 776 L 7487 776 L 7483 780 L 7479 790 L 7473 800 L 7467 816 L 7463 834 L 7457 856 L 7453 878 L 7453 902 L 7453 924 L 7453 948 L 7453 968 L 7453 994 L 7453 1018 L 7453 1038 L 7453 1056 L 7467 1066 L 7467 1074 L 7467 1076 L 7487 1076 L 7505 1076 L 7525 1042 L 7525 1022 L 7543 1000 L 7543 976 L 7563 950 L 7563 924 L 7579 898 L 7579 878 L 7593 856 L 7609 834 L 7627 834 L 7649 844 L 7649 856 L 7671 878 L 7671 898 L 7699 924 L 7711 952 L 7725 980 L 7743 1006 L 7755 1032 L 7771 1058 L 7783 1078 L 7783 1094 L 7807 1106 L 7807 1114 L 7829 1122" stroke="#000000" stroke-width="35" fill="none" stroke-linecap="round" stroke-linejoin="round"/>
<path d="M 9227 134 L 9227 134 L 9241 134 L 9261 134 L 9277 134 L 9291 134 L 9305 134 L 9305 112 L 9305 114 L 9305 118 L 9301 120 L 9295 120 L 9287 130 L 9273 138 L 9261 156 L 9241 178 L 9223 204 L 9203 234 L 9185 270 L 9159 310 L 9135 350 L 9113 392 L 9089 434 L 9067 482 L 9051 524 L 9039 568 L 9035 610 L 9035 646 L 9035 674 L 9035 700 L 9051 716 L 9071 728 L 9099 730 L 9129 730 L 9163 730 L 9199 730 L 9237 706 L 9277 706 L 9313 674 L 9351 654 L 9381 630 L 9413 610" stroke="#000000" stroke-width="35" fill="none" stroke-linecap="round" stroke-linejoin="round"/>
<path d="M 9455 484 L 9455 484 L 9467 460 L 9483 460 L 9483 462 L 9483 470 L 9483 482 L 9483 496 L 9483 514 L 9483 530 L 9483 546 L 9483 568 L 9495 588 L 9495 610 L 9495 628 L 9515 646 L 9515 658 L 9539 666 L 9555 672 L 9575 672 L 9595 672 L 9615 672 L 9637 672 L 9655 644 L 9675 644 L 9695 606 L 9707 588 L 9717 566 L 9717 546 L 9717 526 L 9717 496 L 9699 476 L 9685 476 L 9663 476 L 9645 480" stroke="#000000" stroke-width="35" fill="none" stroke-linecap="round" stroke-linejoin="round"/>
<path d="M 9653 548 L 9671 548 L 9689 518 L 9709 518 L 9727 518 L 9739 494 L 9757 494 L 9771 494 L 9771 496 L 9771 514 L 9787 534 L 9787 556 L 9805 582 L 9805 610 L 9821 630 L 9821 652 L 9847 672 L 9861 686 L 9879 696 L 9897 702 L 9909 704" stroke="#000000" stroke-width="35" fill="none" stroke-linecap="round" stroke-linejoin="round"/>
<path d="M 9937 458 L 9923 430 L 9907 406 L 9891 384 L 9879 384 L 9865 350 L 9855 350 L 9837 350 L 9829 350 L 9819 350 L 9815 350 L 9807 350 L 9805 354 L 9805 364 L 9805 376 L 9805 388 L 9827 404 L 9827 418 L 9851 428 L 9865 440 L 9883 448 L 9903 454 L 9923 454 L 9943 454 L 9967 454 L 9989 454 L 10009 434 L 10027 434 L 10043 396 L 10057 372 L 10057 344 L 10071 316 L 10071 284 L 10071 256 L 10071 226 L 10071 198 L 10071 174 L 10069 150 L 10057 150 L 10049 128 L 10037 128 L 10025 138 L 10011 144 L 9999 160 L 9989 184 L 9975 214 L 9971 246 L 9967 284 L 9967 328 L 9967 372 L 9967 416 L 9967 462 L 9979 504 L 9979 540 L 10003 570 L 10019 596 L 10037 612 L 10061 624 L 10087 630 L 10111 630 L 10139 630 L 10163 630 L 10191 630 L 10217 604 L 10239 584 L 10261 560 L 10279 532 L 10295 502 L 10295 472 L 10313 440 L 10313 412 L 10313 380 L 10313 354 L 10313 326 L 10313 302 L 10313 282 L 10311 248 L 10307 248 L 10305 248 L 10305 252 L 10319 262 L 10319 270 L 10341 276 L 10353 282 L 10369 286 L 10383 288 L 10401 288 L 10415 288 L 10431 288 L 10449 288 L 10465 264 L 10481 264 L 10481 236 L 10495 218 L 10495 196 L 10495 176 L 10495 156 L 10495 122 L 10489 122 L 10477 122 L 10463 122 L 10443 122 L 10419 126 L 10397 138 L 10371 160 L 10351 186 L 10329 216 L 10313 252 L 10301 290 L 10289 330 L 10285 368 L 10281 412 L 10281 452 L 10281 490 L 10297 526 L 10313 558 L 10339 586 L 10361 608 L 10391 628 L 10419 642 L 10453 654 L 10483 664 L 10521 668 L 10553 668 L 10591 668" stroke="#000000" stroke-width="35" fill="none" stroke-linecap="round" stroke-linejoin="round"/>
<path d="M 10775 490 L 10771 490 L 10769 490 L 10765 490 L 10761 492 L 10755 504 L 10753 516 L 10743 532 L 10743 550 L 10737 572 L 10737 590 L 10737 612 L 10737 636 L 10737 658 L 10737 680 L 10753 702 L 10753 720 L 10775 732 L 10789 742 L 10805 744 L 10825 744 L 10843 744 L 10865 744 L 10885 722 L 10897 722 L 10913 686 L 10913 664 L 10929 638 L 10929 612 L 10929 586 L 10929 562 L 10929 542 L 10921 542 L 10905 510 L 10879 510 L 10857 510 L 10829 488 L 10803 488 L 10781 488" stroke="#000000" stroke-width="35" fill="none" stroke-linecap="round" stroke-linejoin="round"/>
<path d="M 11007 544 L 11007 520 L 11027 520 L 11041 520 L 11041 524 L 11041 542 L 11041 566 L 11055 596 L 11055 628 L 11055 664 L 11055 704 L 11069 748 L 11069 788 L 11089 828 L 11089 866 L 11107 902 L 11107 930 L 11123 950 L 11123 964 L 11123 968 L 11123 948 L 11117 928 L 11109 898 L 11099 866 L 11089 826 L 11079 786 L 11069 740 L 11059 696 L 11059 652 L 11049 606 L 11049 568 L 11049 530 L 11049 494 L 11049 468 L 11073 446 L 11091 446 L 11107 424 L 11127 424 L 11147 424 L 11169 432 L 11193 444 L 11215 464 L 11233 492 L 11251 520 L 11251 550 L 11265 584 L 11265 620 L 11265 654 L 11261 690 L 11251 720 L 11237 748 L 11221 770 L 11201 788 L 11179 798 L 11157 806 L 11135 808" stroke="#000000" stroke-width="35" fill="none" stroke-linecap="round" stroke-linejoin="round"/>
<path d="M 11445 296 L 11445 272 L 11463 252 L 11463 232 L 11463 202 L 11463 184 L 11463 188 L 11463 202 L 11463 222 L 11463 250 L 11463 282 L 11463 324 L 11463 368 L 11481 416 L 11481 464 L 11497 514 L 11497 564 L 11517 614 L 11517 660 L 11535 702 L 11535 736 L 11553 764 L 11553 782" stroke="#000000" stroke-width="35" fill="none" stroke-linecap="round" stroke-linejoin="round"/>
<path d="M 11615 568 L 11627 540 L 11627 516 L 11627 496 L 11627 462 L 11621 462 L 11609 462 L 11593 462 L 11573 462 L 11553 462 L 11527 464 L 11501 474 L 11471 484 L 11445 496 L 11419 508 L 11391 520 L 11371 534" stroke="#000000" stroke-width="35" fill="none" stroke-linecap="round" stroke-linejoin="round"/>
<path d="M 11699 386 L 11723 386 L 11737 386 L 11753 386 L 11775 386 L 11775 394 L 11789 412 L 11789 434 L 11789 462 L 11807 488 L 11807 518 L 11807 552 L 11807 580 L 11807 610 L 11807 632 L 11817 656" stroke="#000000" stroke-width="35" fill="none" stroke-linecap="round" stroke-linejoin="round"/>
<path d="M 11795 360 L 11789 318 L 11789 276 L 11781 240 L 11779 204 L 11773 176 L 11765 152 L 11761 134 L 11753 134 L 11747 110 L 11743 110" stroke="#000000" stroke-width="35" fill="none" stroke-linecap="round" stroke-linejoin="round"/>
<path d="M 11987 372 L 12005 380 L 12005 390 L 12005 400 L 12005 408 L 12001 418 L 11997 432 L 11991 446 L 11981 462 L 11975 482 L 11967 500 L 11965 520 L 11963 546 L 11963 568 L 11963 596 L 11963 620 L 11963 644 L 11981 666 L 11981 684 L 12009 698 L 12025 708 L 12043 710 L 12065 710 L 12087 710 L 12107 710 L 12127 686 L 12141 686 L 12141 644 L 12161 620 L 12161 594 L 12161 566 L 12161 538 L 12151 510 L 12137 488 L 12117 488 L 12097 456 L 12077 456 L 12055 456 L 12029 456 L 12011 456" stroke="#000000" stroke-width="35" fill="none" stroke-linecap="round" stroke-linejoin="round"/>
<path d="M 12115 510 L 12139 486 L 12161 486 L 12179 486 L 12199 460 L 12209 460 L 12233 440 L 12251 440 L 12251 448 L 12267 456 L 12267 468 L 12285 482 L 12285 500 L 12307 520 L 12307 540 L 12331 560 L 12349 576 L 12359 592 L 12375 602 L 12393 612 L 12409 614 L 12425 614 L 12443 614 L 12469 592 L 12487 558 L 12487 536 L 12499 516 L 12499 496 L 12513 474 L 12513 450 L 12527 450 L 12527 464 L 12527 486 L 12527 510 L 12545 544 L 12545 586 L 12567 630 L 12579 678" stroke="#000000" stroke-width="35" fill="none" stroke-linecap="round" stroke-linejoin="round"/>
<path d="M 12563 566 L 12563 566 L 12563 568 L 12563 570 L 12563 576 L 12577 578 L 12577 580 L 12577 582 L 12577 584 L 12577 586 L 12593 586 L 12589 586 L 12587 586 L 12583 586 L 12583 588 L 12579 590 L 12577 592 L 12577 598 L 12577 604 L 12577 614 L 12577 628 L 12577 646 L 12577 662 L 12577 680 L 12577 702 L 12577 724 L 12577 742 L 12577 762 L 12577 782 L 12593 800 L 12593 820 L 12593 834 L 12593 838 L 12593 844" stroke="#000000" stroke-width="35" fill="none" stroke-linecap="round" stroke-linejoin="round"/>
<path d="M 13135 124 L 13135 124 L 13135 96 L 13135 74 L 13135 52 L 13135 30 L 13135 10 L 13147 12 L 13147 14 L 13147 14 L 13147 16 L 13147 20 L 13147 22 L 13147 24 L 13147 28 L 13147 30 L 13147 36 L 13147 42 L 13147 50 L 13161 60 L 13161 72 L 13161 86 L 13161 104 L 13175 128 L 13175 156 L 13175 190 L 13193 230 L 13193 274 L 13209 322 L 13209 376 L 13225 426 L 13225 476 L 13237 530 L 13237 580 L 13237 632 L 13255 678 L 13255 722 L 13255 760 L 13255 798 L 13269 822 L 13269 844 L 13269 862 L 13269 874 L 13269 882 L 13269 888 L 13269 896" stroke="#000000" stroke-width="35" fill="none" stroke-linecap="round" stroke-linejoin="round"/>
<path d="M 13181 858 L 13173 858 L 13169 834 L 13159 834 L 13155 834 L 13147 812 L 13139 812 L 13133 812 L 13129 812 L 13129 824 L 13129 844 L 13147 870 L 13147 896 L 13167 924 L 13167 952 L 13191 982 L 13191 1016 L 13215 1048 L 13215 1080 L 13239 1108 L 13239 1132 L 13257 1154 L 13257 1170 L 13271 1180 L 13271 1186 L 13289 1186 L 13289 1158 L 13289 1138 L 13303 1110 L 13303 1080 L 13303 1044 L 13315 1004 L 13315 966 L 13331 924 L 13331 882 L 13347 844 L 13347 804 L 13359 770 L 13359 736 L 13359 706 L 13377 680 L 13377 662 L 13377 636 L 13393 636 L 13393 652 L 13393 662 L 13393 672 L 13393 682 L 13405 688 L 13405 696 L 13405 712 L 13405 716 L 13405 718 L 13405 720 L 13393 722 L 13387 728 L 13375 734 L 13357 738 L 13333 748 L 13309 758 L 13281 772 L 13251 784 L 13223 796 L 13191 806 L 13163 816" stroke="#000000" stroke-width="35" fill="none" stroke-linecap="round" stroke-linejoin="round"/>
<path d="M 14297 452 L 14287 452 L 14279 452 L 14273 452 L 14265 428 L 14259 428 L 14253 428 L 14247 438 L 14245 446 L 14241 462 L 14241 482 L 14241 508 L 14241 534 L 14241 566 L 14241 602 L 14259 640 L 14259 676 L 14275 714 L 14275 752 L 14275 788 L 14291 820 L 14287 846 L 14287 872 L 14287 892 L 14287 906 L 14299 918 L 14299 928 L 14299 934 L 14299 906 L 14299 868 L 14299 846 L 14315 820 L 14315 790 L 14315 762 L 14331 730 L 14331 696 L 14343 660 L 14343 628 L 14365 594 L 14379 564 L 14389 536 L 14405 514 L 14423 514 L 14445 486 L 14471 486 L 14491 486 L 14517 486 L 14539 498 L 14557 514 L 14575 534 L 14575 562 L 14593 592 L 14593 624 L 14593 658 L 14593 690 L 14591 722 L 14581 752 L 14567 782 L 14549 806 L 14525 830 L 14503 846 L 14483 854 L 14465 858 L 14445 858 L 14433 862 L 14423 862 L 14417 862 L 14417 844 L 14439 844 L 14455 820 L 14473 820 L 14495 820 L 14521 820 L 14545 820 L 14571 820 L 14597 820 L 14623 824 L 14641 838 L 14659 852 L 14659 872 L 14677 896 L 14677 918 L 14675 948 L 14669 976 L 14655 1006 L 14635 1034 L 14609 1058 L 14575 1080 L 14539 1098 L 14499 1114 L 14455 1126 L 14415 1134 L 14379 1138 L 14343 1138 L 14315 1140" stroke="#000000" stroke-width="35" fill="none" stroke-linecap="round" stroke-linejoin="round"/>
<path d="M 14793 898 L 14793 898 L 14807 898 L 14807 874 L 14805 874 L 14803 850 L 14797 828 L 14795 828 L 14793 834 L 14789 844 L 14789 854 L 14789 872 L 14789 888 L 14789 906 L 14789 924 L 14789 946 L 14789 964 L 14803 984 L 14803 1002 L 14803 1018 L 14825 1026 L 14825 1034 L 14843 1036 L 14855 1036 L 14871 1036 L 14893 1012 L 14913 980 L 14913 952 L 14931 930 L 14931 902 L 14947 876 L 14947 850 L 14961 826 L 14961 808 L 14961 784 L 14975 784 L 14975 790 L 14989 802 L 14989 818 L 14999 844 L 14999 868 L 15017 896 L 15017 922 L 15041 950 L 15041 970 L 15063 992 L 15077 1008 L 15093 1026 L 15109 1036 L 15127 1040 L 15147 1040 L 15167 1040 L 15183 1040 L 15201 1040" stroke="#000000" stroke-width="35" fill="none" stroke-linecap="round" stroke-linejoin="round"/>
<path d="M 15291 854 L 15285 854 L 15279 830 L 15271 830 L 15269 808 L 15267 808 L 15263 784 L 15259 784 L 15257 764 L 15257 768 L 15257 778 L 15257 792 L 15269 810 L 15269 830 L 15269 852 L 15281 878 L 15281 902 L 15301 926 L 15301 954 L 15319 978 L 15319 996 L 15331 1012 L 15347 1022 L 15361 1024 L 15377 1024 L 15391 1024 L 15411 1024 L 15429 1024 L 15445 1006 L 15463 1006 L 15477 980 L 15495 980 L 15507 944 L 15523 944 L 15523 912 L 15545 912 L 15545 886 L 15563 886 L 15585 886 L 15585 890 L 15601 900 L 15601 916 L 15615 938 L 15615 964 L 15615 996 L 15629 1034 L 15629 1072 L 15629 1112 L 15621 1154 L 15611 1196 L 15591 1232 L 15565 1266 L 15533 1292 L 15493 1318 L 15449 1336 L 15401 1350 L 15355 1360 L 15305 1364 L 15263 1366 L 15217 1366 L 15177 1366 L 15139 1366 L 15101 1366" stroke="#000000" stroke-width="35" fill="none" stroke-linecap="round" stroke-linejoin="round"/>
<path d="M 13207 2060 L 13207 2026 L 13221 2026 L 13221 1998 L 13221 1970 L 13235 1970 L 13249 1980 L 13249 1998 L 13265 2030 L 13265 2064 L 13289 2112 L 13289 2160 L 13299 2212 L 13299 2270 L 13311 2332 L 13311 2390 L 13327 2450 L 13327 2510 L 13327 2562 L 13327 2608 L 13327 2644 L 13327 2672 L 13327 2690 L 13327 2696 L 13325 2696 L 13315 2696 L 13307 2696 L 13299 2664 L 13291 2632 L 13279 2594 L 13269 2552 L 13259 2506 L 13253 2448 L 13243 2390 L 13239 2330 L 13235 2270 L 13231 2214 L 13229 2160 L 13225 2108 L 13225 2062 L 13225 2020 L 13225 1986 L 13225 1960 L 13225 1940 L 13239 1940 L 13239 1958 L 13239 1980 L 13239 2014 L 13235 2048 L 13229 2088 L 13215 2132 L 13211 2178 L 13197 2224 L 13181 2268 L 13169 2314 L 13155 2352 L 13135 2384 L 13119 2412 L 13101 2428 L 13087 2442 L 13077 2448 L 13069 2448 L 13065 2448 L 13065 2418 L 13065 2392 L 13083 2368 L 13083 2338 L 13107 2310 L 13123 2276 L 13135 2244 L 13151 2208 L 13167 2178 L 13179 2146 L 13179 2112 L 13203 2082 L 13203 2056 L 13221 2026 L 13221 2006 L 13239 2006 L 13239 1976 L 13249 1976 L 13269 1976 L 13291 1976 L 13307 1992 L 13317 2016 L 13337 2036 L 13351 2064 L 13375 2096 L 13395 2132 L 13413 2166 L 13435 2200 L 13459 2236 L 13477 2266 L 13495 2288 L 13507 2306" stroke="#000000" stroke-width="35" fill="none" stroke-linecap="round" stroke-linejoin="round"/>
<path d="M 13483 2338 L 13483 2316 L 13497 2316 L 13495 2316 L 13493 2316 L 13485 2316 L 13479 2316 L 13469 2316 L 13453 2316 L 13431 2316 L 13411 2318 L 13383 2324 L 13349 2334 L 13315 2342 L 13277 2352 L 13229 2362 L 13189 2372 L 13145 2380 L 13105 2390 L 13067 2400 L 13029 2406 L 12991 2414 L 12965 2420 L 12939 2426 L 12925 2428 L 12913 2428 L 12907 2428" stroke="#000000" stroke-width="35" fill="none" stroke-linecap="round" stroke-linejoin="round"/>
<path d="M 14383 2104 L 14383 2104 L 14383 2084 L 14399 2084 L 14399 2064 L 14399 2066 L 14397 2066 L 14389 2070 L 14379 2078 L 14359 2088 L 14337 2100 L 14315 2116 L 14287 2132 L 14259 2150 L 14231 2168 L 14205 2186 L 14177 2204 L 14149 2222 L 14123 2236 L 14105 2252 L 14089 2264 L 14077 2274 L 14071 2282 L 14071 2290 L 14071 2294 L 14071 2298 L 14097 2302 L 14121 2306 L 14145 2310 L 14173 2314 L 14205 2318 L 14239 2324 L 14273 2336 L 14307 2348 L 14337 2362 L 14369 2380 L 14393 2404 L 14415 2428 L 14427 2458 L 14427 2486 L 14427 2516 L 14427 2544 L 14417 2568 L 14399 2592 L 14369 2610 L 14341 2628 L 14299 2640 L 14263 2650 L 14225 2656 L 14191 2656 L 14159 2656 L 14123 2656 L 14101 2656" stroke="#000000" stroke-width="35" fill="none" stroke-linecap="round" stroke-linejoin="round"/>
<path d="M 14545 2162 L 14545 2138 L 14545 2104 L 14559 2104 L 14559 2114 L 14559 2132 L 14571 2162 L 14571 2196 L 14587 2234 L 14587 2276 L 14601 2322 L 14601 2372 L 14617 2424 L 14617 2472 L 14617 2520 L 14627 2558 L 14627 2600 L 14627 2634 L 14627 2664 L 14627 2680 L 14627 2692 L 14627 2692 L 14627 2658 L 14627 2634 L 14643 2606 L 14643 2574 L 14659 2542 L 14659 2508 L 14677 2472 L 14693 2440 L 14705 2410 L 14721 2384 L 14737 2362 L 14753 2362 L 14771 2362 L 14787 2362 L 14803 2362 L 14817 2362 L 14833 2368 L 14833 2388 L 14855 2414 L 14855 2438 L 14875 2466 L 14875 2498 L 14889 2528 L 14889 2558 L 14889 2586 L 14905 2606 L 14905 2610 L 14905 2624 L 14923 2638 L 14923 2644" stroke="#000000" stroke-width="35" fill="none" stroke-linecap="round" stroke-linejoin="round"/>
<path d="M 14957 2562 L 14957 2540 L 14957 2520 L 14957 2500 L 14957 2476 L 14949 2442 L 14947 2420 L 14941 2420 L 14933 2384 L 14927 2384 L 14925 2360 L 14947 2362 L 14947 2368 L 14971 2378 L 14987 2386 L 15009 2396 L 15029 2406 L 15051 2418 L 15075 2422 L 15099 2424 L 15123 2424 L 15145 2424 L 15167 2424 L 15185 2424 L 15201 2424 L 15213 2396 L 15231 2368 L 15231 2336 L 15229 2318 L 15219 2318 L 15211 2318 L 15195 2318 L 15181 2320 L 15167 2330 L 15149 2344 L 15135 2362 L 15119 2380 L 15109 2404 L 15101 2424 L 15095 2454 L 15093 2482 L 15093 2510 L 15093 2536 L 15093 2560 L 15093 2580 L 15115 2596 L 15129 2604 L 15145 2612 L 15167 2616 L 15189 2616 L 15211 2616 L 15229 2616 L 15249 2596 L 15271 2596 L 15291 2562 L 15309 2542 L 15325 2520 L 15337 2494 L 15337 2468 L 15355 2442 L 15355 2416 L 15355 2394 L 15355 2370 L 15355 2348 L 15355 2328 L 15355 2304 L 15353 2280 L 15353 2282 L 15353 2288 L 15369 2290 L 15369 2298 L 15387 2302 L 15387 2306 L 15411 2308 L 15427 2308 L 15441 2308 L 15463 2308 L 15483 2308 L 15505 2308 L 15525 2308 L 15539 2278 L 15563 2278 L 15585 2256 L 15603 2256 L 15621 2228 L 15631 2228 L 15631 2194 L 15649 2194 L 15649 2162 L 15649 2134 L 15647 2114 L 15643 2114 L 15633 2114 L 15625 2114 L 15613 2114 L 15603 2114 L 15593 2114 L 15585 2114 L 15575 2120 L 15571 2132 L 15563 2142 L 15561 2154 L 15557 2166 L 15557 2180 L 15557 2192 L 15557 2202 L 15553 2210 L 15553 2220 L 15553 2224 L 15553 2226 L 15553 2232 L 15553 2232 L 15565 2232 L 15565 2214 L 15565 2214 L 15579 2214 L 15579 2224 L 15579 2238 L 15575 2252 L 15573 2272 L 15571 2294 L 15565 2320 L 15565 2350 L 15565 2382 L 15565 2416 L 15565 2450 L 15565 2486 L 15579 2522 L 15579 2558 L 15591 2596 L 15591 2624 L 15613 2650 L 15629 2672 L 15643 2686 L 15657 2694 L 15675 2700 L 15691 2700 L 15709 2700 L 15727 2700 L 15745 2700 L 15763 2674 L 15777 2674" stroke="#000000" stroke-width="35" fill="none" stroke-linecap="round" stroke-linejoin="round"/>
<path d="M 15761 2352 L 15751 2352 L 15745 2332 L 15739 2332 L 15735 2332 L 15729 2332 L 15727 2332 L 15727 2336 L 15727 2338 L 15727 2344 L 15727 2352 L 15727 2360 L 15727 2364 L 15743 2366 L 15743 2370 L 15757 2376 L 15775 2376 L 15801 2376 L 15813 2376 L 15829 2376 L 15845 2376 L 15861 2350 L 15871 2350 L 15887 2324 L 15909 2290 L 15925 2258 L 15925 2226 L 15925 2198 L 15925 2178 L 15921 2178 L 15913 2178 L 15903 2178 L 15891 2184 L 15879 2194 L 15865 2210 L 15851 2226 L 15837 2250 L 15825 2274 L 15815 2302 L 15807 2330 L 15801 2360 L 15795 2392 L 15793 2424 L 15793 2454 L 15793 2482 L 15793 2510 L 15793 2534 L 15811 2556 L 15825 2576 L 15837 2592 L 15853 2606 L 15879 2616 L 15903 2622 L 15929 2624 L 15959 2626 L 15995 2626 L 16031 2626 L 16071 2626 L 16109 2604 L 16157 2604 L 16207 2576" stroke="#000000" stroke-width="35" fill="none" stroke-linecap="round" stroke-linejoin="round"/></svg>