<svg xmlns="http://www.w3.org/2000/svg" width="22528" height="8146" viewBox="0 0 22528 8146"><path d="M 458 810 L 448 810 L 444 810 L 436 810 L 430 810 L 422 812 L 418 812 L 414 814 L 408 816 L 406 818 L 398 822 L 396 824 L 394 830 L 394 834 L 394 840 L 394 844 L 394 850 L 390 850 L 386 852 L 386 858 L 408 858 L 426 858 L 444 858 L 462 858 L 480 858 L 500 834 L 524 834 L 544 816 L 566 816 L 592 792 L 616 792 L 634 764 L 654 764 L 668 728 L 682 692 L 682 674 L 678 640 L 668 640 L 656 616 L 642 616 L 618 616 L 596 616 L 568 616 L 540 620 L 508 634 L 476 652 L 444 674 L 414 700 L 386 726 L 362 756 L 340 786 L 322 818 L 310 852 L 302 882 L 296 912 L 296 938 L 296 962 L 296 978 L 312 994 L 324 1006 L 342 1012 L 364 1016 L 386 1022 L 412 1022 L 436 1022 L 462 1022 L 492 1022 L 520 1022 L 544 996 L 568 996 L 596 996 L 618 968" stroke="#FF0000" stroke-width="35" fill="none" stroke-linecap="round" stroke-linejoin="round"/>
<path d="M 780 722 L 774 694 L 770 694 L 766 674 L 766 678 L 766 684 L 786 694 L 798 712 L 798 734 L 820 758 L 836 788 L 854 820 L 872 854 L 888 890 L 908 922 L 922 956 L 938 990 L 954 1016 L 954 1038 L 968 1048 L 968 1054 L 986 1054 L 986 1018 L 1000 994 L 998 962 L 998 930 L 998 892 L 998 854 L 1008 818 L 1008 782 L 1024 752 L 1024 722 L 1040 696" stroke="#FF0000" stroke-width="35" fill="none" stroke-linecap="round" stroke-linejoin="round"/>
<path d="M 1236 764 L 1236 768 L 1232 776 L 1230 780 L 1222 786 L 1222 792 L 1212 798 L 1208 802 L 1202 808 L 1198 816 L 1194 818 L 1194 826 L 1194 828 L 1194 834 L 1194 836 L 1222 836 L 1248 836 L 1266 836 L 1286 836 L 1310 810 L 1334 810 L 1360 784 L 1382 784 L 1402 760 L 1418 760 L 1432 730 L 1432 708 L 1422 708 L 1400 708 L 1374 708 L 1350 708 L 1320 714 L 1286 726 L 1250 742 L 1222 760 L 1192 778 L 1168 798 L 1150 824 L 1140 848 L 1134 874 L 1134 894 L 1134 916 L 1150 934 L 1168 950 L 1192 960 L 1222 970 L 1254 972 L 1290 976 L 1328 976 L 1368 976 L 1410 976 L 1446 976 L 1480 948 L 1508 948 L 1538 922 L 1564 922 L 1588 896 L 1606 896 L 1622 876 L 1634 876 L 1656 876 L 1670 876 L 1684 876 L 1704 880 L 1704 886 L 1722 894 L 1722 900 L 1746 902 L 1764 902 L 1776 902 L 1794 902 L 1812 902 L 1832 902 L 1850 874 L 1866 874 L 1880 846 L 1896 846 L 1908 812 L 1934 788 L 1952 788 L 1952 792 L 1964 806 L 1964 826 L 1964 848 L 1964 874 L 1964 902 L 1964 932 L 1964 960 L 1964 988 L 1960 1010" stroke="#FF0000" stroke-width="35" fill="none" stroke-linecap="round" stroke-linejoin="round"/>
<path d="M 2178 462 L 2178 438 L 2178 418 L 2178 396 L 2190 402 L 2190 420 L 2206 442 L 2206 476 L 2224 518 L 2224 570 L 2246 628 L 2246 690 L 2268 754 L 2268 820 L 2290 886 L 2290 950 L 2300 1010 L 2300 1058 L 2314 1100" stroke="#FF0000" stroke-width="35" fill="none" stroke-linecap="round" stroke-linejoin="round"/>
<path d="M 2416 920 L 2438 890 L 2452 864 L 2468 840 L 2468 822 L 2488 822 L 2488 790 L 2478 790 L 2462 790 L 2434 790 L 2402 790 L 2364 790 L 2324 798 L 2280 802 L 2232 810" stroke="#FF0000" stroke-width="35" fill="none" stroke-linecap="round" stroke-linejoin="round"/>
<path d="M 2846 1002 L 2846 1002 L 2846 978 L 2842 978 L 2840 960 L 2838 960 L 2832 960 L 2830 960 L 2826 960 L 2822 960 L 2816 960 L 2814 960 L 2812 964 L 2812 970 L 2808 976 L 2808 980 L 2806 988 L 2806 990 L 2806 998 L 2806 998 L 2804 998 L 2798 998 L 2796 998 L 2786 998 L 2784 998 L 2780 980 L 2774 980 L 2768 980 L 2764 980 L 2756 980 L 2754 980 L 2744 980 L 2736 980 L 2736 980 L 2730 980 L 2726 980" stroke="#FF0000" stroke-width="35" fill="none" stroke-linecap="round" stroke-linejoin="round"/>
<path d="M 3484 656 L 3484 656 L 3484 638 L 3480 638 L 3478 638 L 3474 638 L 3472 638 L 3470 638 L 3462 638 L 3460 638 L 3456 638 L 3452 638 L 3442 638 L 3432 638 L 3420 638 L 3406 638 L 3392 638 L 3372 638 L 3354 638 L 3332 644 L 3310 652 L 3290 664 L 3270 678 L 3250 690 L 3232 708 L 3218 724 L 3208 742 L 3202 758 L 3200 776 L 3200 796 L 3200 814 L 3200 832 L 3218 846 L 3218 862 L 3240 872 L 3260 880 L 3280 890 L 3300 894 L 3320 898 L 3342 898 L 3362 900 L 3384 900 L 3406 900 L 3428 900 L 3450 900" stroke="#FF0000" stroke-width="35" fill="none" stroke-linecap="round" stroke-linejoin="round"/>
<path d="M 3562 724 L 3558 704 L 3556 704 L 3544 704 L 3540 704 L 3540 686 L 3562 686 L 3562 662 L 3586 662 L 3598 644 L 3616 644 L 3636 618 L 3654 618 L 3672 578 L 3692 556 L 3714 528 L 3732 496 L 3748 460 L 3760 424 L 3760 390 L 3778 356 L 3778 326 L 3778 300 L 3778 278 L 3778 256 L 3776 256 L 3768 262 L 3764 280 L 3758 308 L 3750 338 L 3748 378 L 3748 420 L 3748 462 L 3748 510 L 3748 554 L 3760 598 L 3760 640 L 3786 678 L 3796 708 L 3814 730 L 3828 752 L 3846 766 L 3866 774 L 3884 776 L 3902 776 L 3924 776 L 3944 776 L 3962 776 L 3978 748 L 3992 748 L 4006 720 L 4030 690 L 4052 690 L 4068 690 L 4082 690 L 4082 708 L 4082 724 L 4094 742 L 4094 764 L 4094 784 L 4094 806 L 4114 824 L 4114 844 L 4114 862 L 4130 872" stroke="#FF0000" stroke-width="35" fill="none" stroke-linecap="round" stroke-linejoin="round"/>
<path d="M 4116 388 L 4102 366 L 4090 346 L 4078 346 L 4066 316 L 4056 316 L 4046 296 L 4036 296 L 4028 296 L 4018 296" stroke="#FF0000" stroke-width="35" fill="none" stroke-linecap="round" stroke-linejoin="round"/>
<path d="M 4448 614 L 4440 614 L 4430 614 L 4422 596 L 4408 596 L 4392 596 L 4380 596 L 4364 596 L 4348 596 L 4332 596 L 4320 596 L 4314 596 L 4306 596 L 4306 598 L 4306 602 L 4320 608 L 4320 614 L 4342 620 L 4362 620 L 4380 624 L 4402 626 L 4426 628 L 4452 628 L 4476 628 L 4500 628 L 4522 628 L 4542 628 L 4542 600 L 4554 600 L 4554 572 L 4554 542 L 4542 542 L 4530 542 L 4510 524 L 4492 524 L 4470 524 L 4444 526 L 4424 534 L 4406 544 L 4390 560 L 4376 580 L 4372 604 L 4372 628 L 4372 656 L 4372 682 L 4372 708 L 4396 730 L 4412 752 L 4430 770 L 4452 782 L 4476 790 L 4500 794 L 4532 794 L 4558 794 L 4582 794 L 4606 794 L 4628 764 L 4646 764 L 4664 734 L 4684 734 L 4700 702 L 4712 702 L 4724 676 L 4744 676 L 4758 676 L 4774 678 L 4774 690 L 4774 704 L 4786 716 L 4786 730 L 4786 740 L 4806 752 L 4806 760 L 4830 764 L 4846 764 L 4860 764 L 4876 764 L 4892 764 L 4906 764 L 4922 738 L 4938 738 L 4938 716 L 4962 716 L 4978 716 L 5004 716 L 5004 724 L 5018 736 L 5018 752 L 5018 772 L 5018 794 L 5036 820 L 5036 846" stroke="#FF0000" stroke-width="35" fill="none" stroke-linecap="round" stroke-linejoin="round"/>
<path d="M 5186 244 L 5182 244 L 5182 214 L 5178 214 L 5172 192 L 5170 198 L 5170 214 L 5170 240 L 5170 272 L 5170 308 L 5190 354 L 5190 406 L 5208 458 L 5208 516 L 5208 574 L 5222 634 L 5222 692 L 5234 746 L 5234 792 L 5248 836" stroke="#FF0000" stroke-width="35" fill="none" stroke-linecap="round" stroke-linejoin="round"/>
<path d="M 5376 654 L 5376 628 L 5376 610 L 5372 576 L 5362 576 L 5352 558 L 5330 558 L 5298 558 L 5270 558 L 5236 558 L 5200 558 L 5168 538 L 5130 544" stroke="#FF0000" stroke-width="35" fill="none" stroke-linecap="round" stroke-linejoin="round"/>
<path d="M 5634 488 L 5632 488 L 5630 488 L 5622 488 L 5622 466 L 5620 466 L 5612 466 L 5610 466 L 5606 466 L 5606 472 L 5622 484 L 5622 502 L 5650 520 L 5672 546 L 5690 570 L 5716 600 L 5744 632 L 5774 666 L 5804 702 L 5840 736 L 5874 772 L 5892 808 L 5924 840 L 5954 870" stroke="#FF0000" stroke-width="35" fill="none" stroke-linecap="round" stroke-linejoin="round"/>
<path d="M 5946 442 L 5942 442 L 5940 442 L 5936 442 L 5932 442 L 5926 456 L 5922 472 L 5906 494 L 5890 520 L 5868 548 L 5840 576 L 5812 606 L 5780 638 L 5756 668 L 5724 700 L 5698 732 L 5670 760 L 5638 788" stroke="#FF0000" stroke-width="35" fill="none" stroke-linecap="round" stroke-linejoin="round"/>
<path d="M 8872 332 L 8854 332 L 8832 332 L 8810 332 L 8794 332 L 8774 332 L 8760 312 L 8748 312 L 8738 312 L 8730 312 L 8724 312 L 8742 312 L 8772 312 L 8794 292 L 8820 292 L 8848 270 L 8874 270 L 8904 244 L 8926 244 L 8954 244 L 8980 244 L 8998 244 L 8998 256 L 8998 278 L 8998 304 L 8986 340 L 8972 380 L 8954 426 L 8930 474 L 8908 522 L 8886 570 L 8866 620 L 8844 664 L 8824 702 L 8810 736 L 8806 764 L 8806 780 L 8806 790 L 8806 800 L 8828 800 L 8840 800 L 8862 800 L 8886 800 L 8912 768 L 8944 768" stroke="#FF0000" stroke-width="35" fill="none" stroke-linecap="round" stroke-linejoin="round"/>
<path d="M 9192 544 L 9192 544 L 9186 544 L 9178 544 L 9168 544 L 9158 546 L 9150 556 L 9142 570 L 9140 586 L 9136 604 L 9136 624 L 9136 644 L 9136 662 L 9136 678 L 9156 694 L 9156 706 L 9178 712 L 9198 714 L 9214 714 L 9234 714 L 9258 714 L 9276 714 L 9288 688 L 9306 654 L 9306 634 L 9300 604 L 9288 604 L 9270 584 L 9244 584 L 9214 584" stroke="#FF0000" stroke-width="35" fill="none" stroke-linecap="round" stroke-linejoin="round"/>
<path d="M 10648 396 L 10644 370 L 10642 370 L 10642 342 L 10636 342 L 10632 322 L 10626 322 L 10624 322 L 10622 322 L 10636 322 L 10636 326 L 10662 344 L 10690 364 L 10720 392 L 10752 420 L 10792 448 L 10832 480 L 10874 514 L 10920 546 L 10968 576 L 11016 602 L 11064 626" stroke="#FF0000" stroke-width="35" fill="none" stroke-linecap="round" stroke-linejoin="round"/>
<path d="M 11212 510 L 11194 484 L 11178 458 L 11160 436 L 11144 416 L 11126 416 L 11106 416 L 11088 416 L 11066 416 L 11044 416 L 11026 428 L 11002 450 L 10980 480 L 10954 514 L 10928 550 L 10900 592 L 10868 634" stroke="#FF0000" stroke-width="35" fill="none" stroke-linecap="round" stroke-linejoin="round"/>
<path d="M 12268 416 L 12258 416 L 12244 392 L 12234 392 L 12226 392 L 12218 392 L 12212 372 L 12206 372 L 12202 372 L 12218 352 L 12246 352 L 12268 330 L 12300 330 L 12320 308 L 12346 308 L 12368 308 L 12386 308 L 12410 308 L 12410 320 L 12432 332 L 12432 352 L 12432 374 L 12432 400 L 12432 428 L 12432 458 L 12422 490 L 12410 524 L 12410 554 L 12400 590 L 12396 618 L 12386 640 L 12386 660 L 12386 676 L 12386 686 L 12386 690 L 12408 694 L 12430 694 L 12450 694 L 12482 694 L 12512 694 L 12544 668 L 12574 668 L 12608 642 L 12636 642 L 12664 612 L 12690 612 L 12708 584 L 12722 584 L 12722 564 L 12736 564 L 12730 564 L 12722 564 L 12718 564 L 12718 574 L 12712 584 L 12712 592 L 12712 604 L 12712 614 L 12712 620 L 12722 628 L 12722 630 L 12754 630 L 12774 630 L 12792 630 L 12814 630 L 12826 608 L 12844 574 L 12844 554 L 12844 534 L 12836 500 L 12824 500 L 12808 474 L 12792 474 L 12774 474 L 12752 474" stroke="#FF0000" stroke-width="35" fill="none" stroke-linecap="round" stroke-linejoin="round"/>
<path d="M 12710 510 L 12732 512 L 12756 514 L 12788 514 L 12820 514 L 12850 514 L 12880 514 L 12914 514 L 12944 514 L 12972 514 L 12994 514 L 13020 514 L 13044 514 L 13066 522 L 13086 534 L 13104 550 L 13124 564 L 13136 586 L 13156 608 L 13172 626 L 13192 642 L 13210 658 L 13238 668 L 13260 676 L 13284 678 L 13306 678 L 13334 678 L 13358 678 L 13374 658 L 13388 658 L 13388 620 L 13402 598 L 13402 572 L 13398 546 L 13392 518 L 13380 496" stroke="#FF0000" stroke-width="35" fill="none" stroke-linecap="round" stroke-linejoin="round"/>
<path d="M 14218 450 L 14216 426 L 14206 426 L 14200 408 L 14198 408 L 14190 408 L 14184 408 L 14182 388 L 14176 388 L 14176 388 L 14194 392 L 14208 396 L 14228 396 L 14252 396 L 14278 396 L 14308 396 L 14338 396 L 14374 372 L 14408 372 L 14442 352 L 14472 352 L 14494 322 L 14512 322 L 14512 284 L 14528 284 L 14528 254 L 14522 254 L 14510 254 L 14494 254 L 14466 254 L 14436 254 L 14402 260 L 14364 278 L 14328 300 L 14300 326 L 14270 356 L 14250 390 L 14238 426 L 14228 462 L 14228 498 L 14228 530 L 14228 560 L 14250 586 L 14268 604 L 14296 618 L 14328 626 L 14360 628 L 14402 628 L 14436 628 L 14472 628 L 14508 628 L 14538 598 L 14568 598 L 14596 564 L 14618 542 L 14636 522 L 14652 500 L 14664 480 L 14664 460 L 14682 460 L 14682 434 L 14692 434 L 14692 438 L 14692 454 L 14692 474 L 14710 492 L 14710 518 L 14722 544 L 14722 572 L 14742 598 L 14742 624 L 14764 648 L 14776 668 L 14792 678 L 14806 684 L 14820 686 L 14834 686 L 14852 686 L 14852 664 L 14872 644 L 14872 620 L 14892 590 L 14892 560 L 14904 526 L 14900 492 L 14900 462 L 14900 432 L 14900 406 L 14916 386" stroke="#FF0000" stroke-width="35" fill="none" stroke-linecap="round" stroke-linejoin="round"/>
<path d="M 15058 508 L 15058 508 L 15058 484 L 15058 456 L 15076 456 L 15090 456 L 15106 456 L 15134 456 L 15148 456 L 15168 456 L 15188 456 L 15210 456 L 15228 434 L 15250 434 L 15270 434 L 15288 404 L 15300 404 L 15300 376 L 15316 376 L 15316 342 L 15312 320 L 15304 320 L 15288 320 L 15270 320 L 15248 320 L 15224 326 L 15202 340 L 15178 358 L 15160 376 L 15142 398 L 15130 424 L 15124 452 L 15124 480 L 15124 510 L 15124 538 L 15124 560 L 15148 582 L 15170 598 L 15196 610 L 15224 618 L 15254 620 L 15284 620 L 15316 620 L 15350 620 L 15384 598 L 15416 598 L 15440 564 L 15468 544 L 15492 522 L 15518 504 L 15540 484 L 15558 466 L 15570 466 L 15570 446 L 15590 446 L 15608 446 L 15608 454 L 15608 466 L 15608 482 L 15622 498 L 15622 516 L 15622 532 L 15638 546 L 15638 560 L 15656 568 L 15672 572 L 15688 572 L 15706 572 L 15724 572 L 15742 572 L 15766 546 L 15788 546 L 15806 510 L 15826 494 L 15846 474 L 15862 474 L 15876 446 L 15904 446 L 15914 446 L 15914 450 L 15914 466 L 15914 486 L 15930 510 L 15930 538 L 15930 566 L 15930 594 L 15930 620 L 15930 642 L 15944 662 L 15944 676" stroke="#FF0000" stroke-width="35" fill="none" stroke-linecap="round" stroke-linejoin="round"/>
<path d="M 16080 332 L 16080 280 L 16102 232 L 16102 182 L 16122 136 L 16122 96 L 16132 58 L 16132 30 L 16148 10 L 16164 10 L 16164 24 L 16164 54 L 16180 92 L 16180 140 L 16192 198 L 16192 260 L 16192 326 L 16210 394 L 16210 464 L 16226 532 L 16226 596 L 16238 656" stroke="#FF0000" stroke-width="35" fill="none" stroke-linecap="round" stroke-linejoin="round"/>
<path d="M 16396 496 L 16396 470 L 16408 444 L 16408 420 L 16408 402 L 16408 374 L 16396 374 L 16372 374 L 16348 354 L 16308 354 L 16262 354 L 16212 354 L 16152 354 L 16096 354" stroke="#FF0000" stroke-width="35" fill="none" stroke-linecap="round" stroke-linejoin="round"/>
<path d="M 182 2256 L 180 2256 L 168 2238 L 164 2238 L 160 2238 L 158 2238 L 154 2238 L 150 2238 L 148 2238 L 140 2238 L 140 2238 L 132 2240 L 126 2248 L 120 2258 L 110 2270 L 100 2284 L 92 2298 L 82 2314 L 78 2330 L 70 2346 L 70 2366 L 70 2384 L 70 2406 L 70 2424 L 86 2442 L 86 2458 L 108 2470 L 126 2480 L 146 2486 L 170 2486 L 194 2486 L 222 2486 L 252 2486 L 278 2454 L 302 2432 L 324 2404 L 342 2376 L 342 2344 L 362 2310 L 362 2278 L 362 2246 L 352 2222 L 340 2202 L 322 2202 L 292 2182 L 262 2182 L 232 2182 L 194 2190 L 160 2204 L 126 2222" stroke="#000000" stroke-width="50.00001" fill="none" stroke-linecap="round" stroke-linejoin="round"/>
<path d="M 306 1880 L 306 1854 L 320 1830 L 320 1808 L 334 1812 L 334 1826 L 334 1854 L 334 1890 L 346 1934 L 346 1990 L 346 2048 L 368 2112 L 368 2180 L 384 2244 L 384 2308 L 404 2372 L 404 2430 L 418 2484" stroke="#000000" stroke-width="50.00001" fill="none" stroke-linecap="round" stroke-linejoin="round"/>
<path d="M 542 2286 L 542 2286 L 560 2254 L 582 2234 L 596 2212 L 614 2216 L 614 2226 L 614 2242 L 628 2262 L 628 2284 L 642 2312 L 642 2338 L 642 2368 L 660 2396 L 660 2426 L 660 2452 L 678 2474 L 678 2494 L 678 2504 L 678 2510 L 694 2510 L 694 2480 L 694 2456 L 710 2428 L 710 2396 L 710 2366 L 730 2334 L 730 2300 L 744 2272 L 744 2248 L 766 2248" stroke="#000000" stroke-width="50.00001" fill="none" stroke-linecap="round" stroke-linejoin="round"/>
<path d="M 1088 2382 L 1088 2390 L 1082 2392 L 1070 2394 L 1056 2394 L 1044 2396 L 1028 2402 L 1016 2410 L 1004 2422 L 994 2434 L 988 2450 L 982 2466 L 982 2486 L 982 2504 L 982 2520 L 982 2540 L 982 2552 L 1004 2564 L 1004 2568 L 1032 2572 L 1054 2572 L 1078 2572 L 1102 2572 L 1128 2540 L 1152 2520 L 1174 2496 L 1190 2470 L 1202 2440 L 1202 2410 L 1202 2380 L 1202 2354 L 1198 2332 L 1188 2310 L 1170 2310 L 1142 2286 L 1112 2286" stroke="#000000" stroke-width="50.00001" fill="none" stroke-linecap="round" stroke-linejoin="round"/>
<path d="M 1212 2344 L 1238 2324 L 1256 2324 L 1274 2324 L 1296 2324 L 1310 2330 L 1310 2340 L 1310 2354 L 1310 2368 L 1310 2386 L 1324 2406 L 1324 2426 L 1340 2444 L 1340 2458 L 1360 2472 L 1374 2480 L 1390 2482 L 1406 2482 L 1424 2482 L 1446 2482 L 1464 2482 L 1484 2454 L 1504 2454 L 1522 2420 L 1542 2398 L 1552 2378 L 1552 2354 L 1572 2330 L 1572 2310 L 1572 2288 L 1572 2270 L 1566 2270 L 1558 2270 L 1542 2270 L 1532 2284 L 1520 2302 L 1512 2322 L 1508 2346 L 1504 2374 L 1504 2400 L 1504 2428 L 1504 2456 L 1526 2480 L 1538 2492 L 1552 2512 L 1572 2522 L 1594 2528 L 1618 2528 L 1646 2528 L 1672 2528 L 1704 2502 L 1732 2480 L 1754 2454 L 1780 2426 L 1796 2396 L 1796 2364 L 1816 2334 L 1816 2302 L 1816 2276 L 1816 2254 L 1808 2254 L 1800 2228 L 1784 2228 L 1764 2228 L 1746 2234 L 1728 2254 L 1708 2284 L 1700 2324 L 1694 2368 L 1694 2422 L 1694 2480 L 1708 2540 L 1724 2604 L 1746 2670 L 1774 2736 L 1806 2798 L 1836 2860 L 1866 2914 L 1898 2966 L 1924 3006 L 1944 3038 L 1956 3062 L 1956 3074 L 1956 3076 L 1954 3076 L 1942 3076 L 1916 3076 L 1894 3042 L 1866 3018 L 1836 2984 L 1808 2948 L 1790 2906 L 1768 2860 L 1754 2812 L 1750 2764 L 1750 2716 L 1750 2670 L 1750 2630 L 1774 2588" stroke="#000000" stroke-width="50.00001" fill="none" stroke-linecap="round" stroke-linejoin="round"/>
<path d="M 2162 2292 L 2162 2268 L 2158 2268 L 2158 2242 L 2158 2218 L 2154 2196 L 2154 2202 L 2154 2212 L 2154 2230 L 2154 2252 L 2154 2274 L 2172 2296 L 2172 2320 L 2172 2344 L 2172 2366 L 2172 2384 L 2172 2400 L 2172 2412" stroke="#000000" stroke-width="50.00001" fill="none" stroke-linecap="round" stroke-linejoin="round"/>
<path d="M 2082 2114 L 2074 2076 L 2068 2042 L 2060 2008 L 2056 1982 L 2046 1956 L 2040 1936 L 2032 1918 L 2028 1918 L 2020 1894 L 2018 1894 L 2010 1894" stroke="#000000" stroke-width="50.00001" fill="none" stroke-linecap="round" stroke-linejoin="round"/>
<path d="M 2364 2168 L 2378 2176 L 2378 2186 L 2378 2192 L 2392 2202 L 2392 2210 L 2392 2220 L 2404 2234 L 2404 2244 L 2404 2258 L 2404 2270 L 2404 2282 L 2404 2296 L 2404 2308 L 2404 2320 L 2420 2330 L 2420 2338 L 2420 2344 L 2432 2344 L 2452 2344 L 2452 2318 L 2466 2318 L 2466 2292 L 2484 2292 L 2484 2258 L 2498 2258 L 2498 2234 L 2516 2234 L 2538 2234 L 2564 2236 L 2564 2248 L 2574 2264 L 2574 2284 L 2594 2306 L 2594 2328 L 2608 2352 L 2608 2374 L 2622 2398 L 2622 2420 L 2636 2436 L 2636 2450" stroke="#000000" stroke-width="50.00001" fill="none" stroke-linecap="round" stroke-linejoin="round"/>
<path d="M 2864 2038 L 2878 1998 L 2878 1958 L 2878 1922 L 2878 1888 L 2878 1858 L 2878 1832 L 2878 1814 L 2874 1832 L 2868 1858 L 2860 1894 L 2858 1942 L 2856 1998 L 2856 2060 L 2856 2124 L 2856 2196 L 2856 2268 L 2856 2340 L 2856 2416 L 2870 2488 L 2870 2552 L 2886 2608 L 2886 2656 L 2906 2694" stroke="#000000" stroke-width="50.00001" fill="none" stroke-linecap="round" stroke-linejoin="round"/>
<path d="M 2926 2374 L 2922 2332 L 2916 2296 L 2916 2266 L 2912 2240 L 2910 2222 L 2904 2222 L 2900 2204 L 2894 2204 L 2882 2204 L 2866 2204 L 2846 2206 L 2828 2214 L 2806 2222 L 2782 2230 L 2760 2242" stroke="#000000" stroke-width="50.00001" fill="none" stroke-linecap="round" stroke-linejoin="round"/>
<path d="M 2938 2278 L 2966 2278 L 3000 2278 L 3030 2260 L 3056 2260 L 3080 2260 L 3102 2260 L 3118 2264 L 3136 2272 L 3150 2280 L 3150 2290 L 3172 2304 L 3172 2320 L 3196 2338 L 3196 2358 L 3222 2374 L 3236 2390 L 3254 2406 L 3276 2420 L 3298 2430 L 3320 2434 L 3344 2436 L 3370 2436 L 3392 2436 L 3412 2436 L 3428 2410 L 3428 2392 L 3442 2370 L 3442 2348 L 3440 2324 L 3428 2302 L 3412 2280 L 3388 2260 L 3354 2260 L 3316 2236 L 3276 2236 L 3232 2236" stroke="#000000" stroke-width="50.00001" fill="none" stroke-linecap="round" stroke-linejoin="round"/>
<path d="M 3642 1894 L 3636 1876 L 3632 1876 L 3626 1876 L 3620 1854 L 3614 1854 L 3608 1854 L 3604 1854 L 3602 1854 L 3598 1856 L 3598 1870 L 3598 1886 L 3598 1908 L 3598 1934 L 3616 1964 L 3616 1994 L 3628 2030 L 3628 2064 L 3644 2100 L 3644 2140 L 3660 2176 L 3660 2212 L 3678 2244 L 3678 2274 L 3694 2300 L 3694 2320 L 3694 2338 L 3694 2352 L 3694 2360 L 3694 2364 L 3692 2364 L 3684 2344 L 3682 2344 L 3676 2306 L 3670 2282 L 3664 2252 L 3656 2218 L 3654 2180 L 3650 2142 L 3646 2100 L 3646 2058 L 3646 2014 L 3646 1970 L 3646 1932 L 3664 1894 L 3664 1860 L 3684 1832 L 3696 1810 L 3714 1810 L 3732 1784 L 3750 1784 L 3768 1786 L 3786 1794 L 3802 1808 L 3818 1828 L 3818 1856 L 3834 1886 L 3834 1918 L 3834 1952 L 3834 1986 L 3834 2020 L 3830 2052 L 3820 2084 L 3810 2110 L 3796 2134 L 3784 2156 L 3768 2172 L 3762 2186 L 3752 2194 L 3744 2200 L 3742 2204 L 3742 2208 L 3742 2214 L 3742 2220 L 3762 2228 L 3774 2234 L 3796 2242 L 3816 2252 L 3840 2262 L 3862 2272 L 3884 2282 L 3912 2292 L 3934 2300 L 3948 2312 L 3968 2318 L 3986 2324 L 4000 2324 L 4022 2324 L 4038 2302 L 4038 2272 L 4038 2252 L 4038 2232 L 4038 2212 L 4036 2188 L 4032 2166 L 4028 2144 L 4026 2122 L 4022 2100 L 4020 2100 L 4018 2074 L 4018 2052 L 4028 2052 L 4050 2052 L 4064 2054 L 4082 2060 L 4098 2062 L 4118 2068 L 4140 2070 L 4162 2074 L 4188 2074 L 4210 2074 L 4230 2074 L 4246 2074 L 4264 2054 L 4264 2036 L 4256 2016 L 4238 2016 L 4220 2016 L 4192 2016 L 4166 2016 L 4134 2016 L 4100 2020 L 4072 2032 L 4046 2050 L 4022 2068 L 4008 2090 L 3998 2114 L 3996 2146 L 3996 2176 L 3996 2206 L 4008 2238 L 4022 2264 L 4040 2290 L 4068 2310 L 4104 2326 L 4138 2338 L 4174 2348 L 4210 2348 L 4252 2348" stroke="#000000" stroke-width="50.00001" fill="none" stroke-linecap="round" stroke-linejoin="round"/>
<path d="M 4636 1816 L 4636 1798 L 4636 1770 L 4632 1770 L 4624 1770 L 4618 1778 L 4610 1796 L 4604 1824 L 4600 1862 L 4594 1906 L 4594 1956 L 4594 2016 L 4594 2082 L 4594 2148 L 4594 2220 L 4594 2292 L 4604 2364 L 4604 2432 L 4604 2496 L 4624 2554 L 4624 2602 L 4624 2642 L 4624 2670" stroke="#000000" stroke-width="50.00001" fill="none" stroke-linecap="round" stroke-linejoin="round"/>
<path d="M 4650 2278 L 4650 2250 L 4650 2226 L 4650 2206 L 4650 2188 L 4646 2166 L 4628 2166 L 4606 2166 L 4582 2166 L 4550 2166 L 4512 2166 L 4470 2166 L 4430 2166 L 4390 2166 L 4352 2166 L 4314 2168" stroke="#000000" stroke-width="50.00001" fill="none" stroke-linecap="round" stroke-linejoin="round"/>
<path d="M 5950 2170 L 5950 2170 L 5946 2150 L 5942 2128 L 5938 2128 L 5936 2134 L 5932 2144 L 5932 2158 L 5932 2180 L 5932 2204 L 5932 2234 L 5954 2266 L 5954 2300 L 5954 2338 L 5974 2376 L 5974 2414 L 5974 2450 L 5974 2488 L 5974 2518 L 5974 2540 L 5974 2556 L 5974 2564 L 5970 2564 L 5960 2564 L 5946 2564 L 5938 2538 L 5926 2510 L 5914 2480 L 5906 2448 L 5896 2412 L 5888 2372 L 5886 2328 L 5882 2286 L 5882 2242 L 5882 2204 L 5898 2164 L 5910 2128 L 5932 2094 L 5956 2066 L 5988 2042 L 6020 2042 L 6050 2016 L 6084 2016 L 6116 2016 L 6144 2016 L 6174 2024 L 6198 2038 L 6218 2056 L 6218 2076 L 6232 2100 L 6232 2126 L 6230 2146 L 6204 2168 L 6184 2188 L 6158 2204 L 6122 2218 L 6088 2230 L 6050 2238" stroke="#000000" stroke-width="50.00001" fill="none" stroke-linecap="round" stroke-linejoin="round"/>
<path d="M 6160 2186 L 6192 2186 L 6220 2186 L 6244 2186 L 6262 2164 L 6280 2164 L 6294 2164 L 6312 2164 L 6312 2168 L 6312 2176 L 6312 2190 L 6312 2202 L 6312 2216 L 6332 2232 L 6332 2248 L 6350 2266 L 6350 2278 L 6374 2290 L 6390 2300 L 6408 2304 L 6432 2306 L 6454 2306 L 6476 2306 L 6504 2306 L 6528 2280 L 6546 2280 L 6564 2244 L 6564 2224 L 6564 2202 L 6564 2182 L 6560 2160 L 6544 2142 L 6526 2142 L 6494 2110 L 6464 2110 L 6426 2110" stroke="#000000" stroke-width="50.00001" fill="none" stroke-linecap="round" stroke-linejoin="round"/>
<path d="M 6766 2068 L 6798 2068 L 6824 2036 L 6838 2036 L 6838 2014 L 6838 1994 L 6832 1994 L 6814 1994 L 6794 1994 L 6774 1996 L 6752 2002 L 6730 2010 L 6714 2024 L 6698 2036 L 6686 2048 L 6680 2066 L 6676 2082 L 6676 2100 L 6676 2116 L 6694 2130 L 6708 2146 L 6726 2160 L 6748 2174 L 6780 2188 L 6810 2204 L 6846 2218 L 6874 2234 L 6900 2248 L 6918 2264 L 6918 2280 L 6934 2294 L 6934 2312 L 6932 2322 L 6918 2332 L 6896 2342 L 6874 2350 L 6842 2352 L 6814 2358 L 6776 2358 L 6740 2358 L 6704 2358" stroke="#000000" stroke-width="50.00001" fill="none" stroke-linecap="round" stroke-linejoin="round"/>
<path d="M 7102 2168 L 7142 2146 L 7174 2126 L 7200 2106 L 7220 2086 L 7236 2086 L 7236 2060 L 7254 2060 L 7254 2062 L 7254 2070 L 7254 2082 L 7254 2096 L 7254 2118 L 7254 2142 L 7254 2166 L 7254 2192 L 7254 2220 L 7268 2248 L 7268 2276 L 7268 2292" stroke="#000000" stroke-width="50.00001" fill="none" stroke-linecap="round" stroke-linejoin="round"/>
<path d="M 7194 1976 L 7176 1932 L 7158 1892 L 7138 1852 L 7118 1816 L 7102 1784 L 7088 1762 L 7074 1740 L 7066 1740 L 7056 1714" stroke="#000000" stroke-width="50.00001" fill="none" stroke-linecap="round" stroke-linejoin="round"/>
<path d="M 7548 1866 L 7548 1866 L 7566 1842 L 7566 1846 L 7580 1854 L 7580 1870 L 7580 1890 L 7580 1918 L 7580 1954 L 7580 1994 L 7580 2042 L 7594 2086 L 7594 2134 L 7610 2186 L 7610 2236 L 7626 2290 L 7626 2334" stroke="#000000" stroke-width="50.00001" fill="none" stroke-linecap="round" stroke-linejoin="round"/>
<path d="M 7710 2292 L 7710 2262 L 7710 2234 L 7710 2206 L 7710 2184 L 7710 2164 L 7700 2144 L 7692 2144 L 7676 2114 L 7650 2114 L 7626 2094 L 7592 2094 L 7558 2094 L 7522 2094 L 7480 2094 L 7440 2070 L 7396 2070 L 7356 2070" stroke="#000000" stroke-width="50.00001" fill="none" stroke-linecap="round" stroke-linejoin="round"/>
<path d="M 7744 2116 L 7776 2092 L 7800 2092 L 7816 2074 L 7832 2074 L 7846 2074 L 7858 2074 L 7858 2080 L 7874 2096 L 7874 2116 L 7890 2140 L 7890 2166 L 7916 2194 L 7926 2222 L 7926 2250 L 7952 2272 L 7952 2292" stroke="#000000" stroke-width="50.00001" fill="none" stroke-linecap="round" stroke-linejoin="round"/>
<path d="M 7976 2096 L 7964 2046 L 7952 2000 L 7934 1956 L 7924 1914 L 7912 1876 L 7898 1842 L 7888 1814 L 7880 1790 L 7870 1772" stroke="#000000" stroke-width="50.00001" fill="none" stroke-linecap="round" stroke-linejoin="round"/>
<path d="M 8238 2086 L 8252 2092 L 8252 2100 L 8252 2110 L 8250 2118 L 8242 2126 L 8234 2132 L 8224 2142 L 8218 2156 L 8212 2168 L 8208 2186 L 8206 2200 L 8206 2218 L 8206 2236 L 8206 2256 L 8206 2274 L 8222 2292 L 8222 2304 L 8246 2316 L 8260 2324 L 8274 2328 L 8290 2328 L 8310 2328 L 8330 2328 L 8348 2310 L 8366 2310 L 8366 2274 L 8392 2250 L 8392 2224 L 8392 2196 L 8392 2168 L 8392 2138 L 8382 2112 L 8366 2090 L 8348 2090 L 8332 2060" stroke="#000000" stroke-width="50.00001" fill="none" stroke-linecap="round" stroke-linejoin="round"/>
<path d="M 8340 2070 L 8366 2070 L 8392 2070 L 8416 2070 L 8438 2070 L 8460 2070 L 8480 2070 L 8506 2070 L 8528 2070 L 8550 2070 L 8572 2070 L 8596 2084 L 8614 2096 L 8636 2110 L 8654 2124 L 8680 2138 L 8702 2148 L 8724 2156 L 8746 2158 L 8766 2158 L 8788 2158 L 8810 2158 L 8832 2158 L 8850 2128 L 8870 2128 L 8886 2094 L 8904 2094 L 8918 2058 L 8930 2058 L 8930 2032 L 8954 2032 L 8966 2032 L 8966 2040 L 8966 2056 L 8966 2076 L 8980 2100 L 8980 2132 L 8980 2162 L 8980 2196 L 8994 2228 L 8994 2262 L 9008 2294 L 9008 2326" stroke="#000000" stroke-width="50.00001" fill="none" stroke-linecap="round" stroke-linejoin="round"/>
<path d="M 9394 1816 L 9380 1816 L 9362 1816 L 9344 1792 L 9330 1792 L 9310 1792 L 9294 1792 L 9282 1774 L 9266 1774 L 9258 1774 L 9248 1774 L 9242 1774 L 9238 1774 L 9236 1774 L 9250 1782 L 9266 1798 L 9288 1818 L 9310 1842 L 9340 1872 L 9380 1904 L 9418 1942 L 9466 1984 L 9512 2030 L 9562 2076 L 9610 2120 L 9660 2168 L 9710 2214 L 9754 2258 L 9794 2292 L 9824 2320 L 9848 2340" stroke="#000000" stroke-width="50.00001" fill="none" stroke-linecap="round" stroke-linejoin="round"/>
<path d="M 9702 1758 L 9692 1726 L 9682 1702 L 9676 1702 L 9668 1678 L 9660 1678 L 9654 1678 L 9644 1684 L 9632 1706 L 9618 1734 L 9594 1770 L 9572 1808 L 9542 1850 L 9508 1900 L 9474 1948 L 9440 2000 L 9406 2056 L 9370 2110 L 9334 2162 L 9300 2206 L 9270 2248 L 9242 2280" stroke="#000000" stroke-width="50.00001" fill="none" stroke-linecap="round" stroke-linejoin="round"/>
<path d="M 9988 2092 L 9988 2092 L 9988 2070 L 9984 2070 L 9982 2070 L 9978 2070 L 9978 2074 L 9974 2084 L 9974 2098 L 9974 2116 L 9974 2132 L 9974 2152 L 9974 2174 L 9974 2194 L 9988 2214 L 9988 2234 L 10002 2254 L 10002 2268 L 10030 2278 L 10046 2282 L 10068 2282 L 10090 2282 L 10112 2282 L 10136 2282 L 10158 2258 L 10176 2258 L 10198 2224 L 10212 2206 L 10212 2184 L 10222 2160 L 10222 2136 L 10222 2114 L 10214 2094 L 10198 2074 L 10176 2074 L 10152 2046 L 10126 2046 L 10096 2026" stroke="#000000" stroke-width="50.00001" fill="none" stroke-linecap="round" stroke-linejoin="round"/>
<path d="M 10546 1896 L 10574 1864 L 10592 1832 L 10608 1796 L 10608 1764 L 10624 1734 L 10624 1700 L 10622 1676 L 10618 1676 L 10608 1648 L 10596 1648 L 10580 1648 L 10560 1652 L 10542 1674 L 10528 1700 L 10514 1738 L 10506 1782 L 10502 1832 L 10496 1892 L 10496 1956 L 10496 2024 L 10496 2096 L 10496 2170 L 10520 2240 L 10520 2310 L 10542 2370 L 10560 2426 L 10578 2470 L 10596 2510" stroke="#000000" stroke-width="50.00001" fill="none" stroke-linecap="round" stroke-linejoin="round"/>
<path d="M 10632 2164 L 10632 2132 L 10652 2110 L 10652 2090 L 10648 2090 L 10640 2090 L 10624 2098 L 10606 2106 L 10580 2116 L 10552 2130 L 10522 2144 L 10490 2158 L 10456 2170 L 10422 2182" stroke="#000000" stroke-width="50.00001" fill="none" stroke-linecap="round" stroke-linejoin="round"/>
<path d="M 10838 1952 L 10888 1918 L 10936 1884 L 10978 1854 L 11016 1824 L 11050 1792 L 11072 1766 L 11090 1746 L 11090 1728 L 11102 1728 L 11096 1728 L 11082 1728 L 11066 1738 L 11040 1764 L 11016 1794 L 10994 1832 L 10968 1876 L 10948 1928 L 10926 1986 L 10914 2046 L 10904 2110 L 10896 2176 L 10896 2242 L 10896 2306 L 10896 2366 L 10896 2420 L 10910 2466 L 10910 2504" stroke="#000000" stroke-width="50.00001" fill="none" stroke-linecap="round" stroke-linejoin="round"/>
<path d="M 11048 2240 L 11048 2214 L 11044 2188 L 11038 2166 L 11030 2166 L 11016 2140 L 11006 2140 L 10992 2140 L 10970 2140 L 10946 2140 L 10918 2140 L 10886 2140 L 10854 2140 L 10824 2148" stroke="#000000" stroke-width="50.00001" fill="none" stroke-linecap="round" stroke-linejoin="round"/>
<path d="M 11470 1992 L 11470 1992 L 11470 1966 L 11470 1944 L 11464 1944 L 11456 1922 L 11446 1922 L 11436 1922 L 11424 1922 L 11408 1922 L 11402 1922 L 11388 1922 L 11370 1926 L 11352 1932 L 11334 1942 L 11318 1952 L 11302 1966 L 11288 1978 L 11272 1990 L 11262 2004 L 11256 2018 L 11250 2032 L 11250 2044 L 11250 2054 L 11250 2064 L 11268 2076 L 11284 2086 L 11302 2100 L 11322 2114 L 11350 2130 L 11370 2146 L 11392 2164 L 11410 2182 L 11424 2198 L 11424 2216 L 11424 2230 L 11424 2240 L 11424 2250 L 11414 2254 L 11396 2256 L 11370 2258 L 11346 2258 L 11322 2258 L 11290 2258" stroke="#000000" stroke-width="50.00001" fill="none" stroke-linecap="round" stroke-linejoin="round"/>
<path d="M 11642 1996 L 11626 1996 L 11616 1996 L 11602 1996 L 11590 1996 L 11584 1996 L 11580 1996 L 11570 1996 L 11566 1996 L 11562 1996 L 11584 1996 L 11584 1998 L 11602 2000 L 11618 2008 L 11642 2010 L 11662 2014 L 11686 2016 L 11712 2016 L 11736 2018 L 11762 2018 L 11786 2018 L 11804 2018 L 11820 2018 L 11834 1996 L 11830 1996 L 11824 1972 L 11812 1972 L 11792 1972 L 11770 1972 L 11754 1974 L 11728 1982 L 11704 1990 L 11684 2000 L 11660 2016 L 11644 2036 L 11634 2056 L 11628 2078 L 11628 2100 L 11628 2126 L 11628 2152 L 11650 2172 L 11676 2190 L 11702 2206 L 11732 2220 L 11768 2228 L 11792 2230 L 11830 2232 L 11870 2232 L 11910 2232 L 11952 2210 L 11990 2192 L 12028 2164 L 12062 2130 L 12094 2092 L 12124 2052 L 12144 2010 L 12158 1968 L 12174 1926 L 12190 1886 L 12190 1854 L 12210 1824 L 12210 1804 L 12210 1826 L 12208 1862 L 12208 1902 L 12208 1952 L 12208 2004 L 12208 2060 L 12208 2118 L 12224 2174 L 12224 2222 L 12224 2266" stroke="#000000" stroke-width="50.00001" fill="none" stroke-linecap="round" stroke-linejoin="round"/>
<path d="M 12408 2140 L 12408 2114 L 12420 2088 L 12420 2066 L 12410 2066 L 12398 2034 L 12376 2034 L 12346 2016 L 12308 2016 L 12264 2016 L 12214 2016 L 12164 2016 L 12116 2016" stroke="#000000" stroke-width="50.00001" fill="none" stroke-linecap="round" stroke-linejoin="round"/>
<path d="M 14046 1714 L 14046 1682 L 14046 1654 L 14062 1654 L 14062 1632 L 14078 1612 L 14088 1612 L 14088 1614 L 14088 1622 L 14088 1632 L 14088 1646 L 14088 1664 L 14106 1684 L 14106 1710 L 14106 1738 L 14106 1770 L 14124 1804 L 14124 1842 L 14124 1882 L 14124 1924 L 14124 1968 L 14136 2012 L 14134 2052 L 14134 2090 L 14134 2124 L 14134 2156 L 14128 2186 L 14128 2214 L 14124 2236 L 14120 2254 L 14120 2272 L 14118 2284 L 14118 2294 L 14116 2302 L 14116 2310 L 14116 2314 L 14112 2318 L 14112 2320 L 14112 2326 L 14112 2328 L 14128 2330 L 14128 2332 L 14138 2334 L 14162 2338 L 14186 2340 L 14204 2340 L 14222 2340 L 14248 2340 L 14270 2340 L 14298 2340 L 14328 2340 L 14358 2340 L 14394 2340 L 14428 2320 L 14470 2320 L 14510 2320 L 14550 2320 L 14596 2320 L 14640 2302 L 14680 2302 L 14726 2302 L 14768 2302 L 14812 2302 L 14852 2302 L 14890 2302 L 14930 2302 L 14968 2302 L 15006 2302 L 15048 2302 L 15082 2302 L 15120 2302 L 15156 2302 L 15190 2302 L 15226 2302 L 15264 2302 L 15306 2302 L 15346 2302 L 15386 2302 L 15428 2302 L 15468 2302 L 15512 2302 L 15550 2302 L 15584 2302 L 15624 2302 L 15664 2302 L 15704 2302 L 15750 2302 L 15788 2302 L 15828 2302 L 15870 2302 L 15910 2302 L 15952 2302 L 15988 2302 L 16024 2302 L 16062 2302 L 16094 2302 L 16134 2302 L 16176 2302 L 16210 2306 L 16246 2310 L 16274 2310 L 16300 2310 L 16332 2314 L 16362 2316 L 16390 2316 L 16420 2316 L 16458 2318 L 16488 2318 L 16524 2320 L 16558 2320 L 16590 2320 L 16622 2320 L 16654 2322 L 16686 2326 L 16720 2330 L 16752 2330 L 16782 2334 L 16810 2340 L 16840 2340 L 16872 2344 L 16898 2346 L 16926 2348 L 16954 2350 L 16982 2352 L 17010 2356 L 17038 2358 L 17066 2360 L 17096 2364 L 17122 2366 L 17154 2368 L 17178 2372 L 17204 2374 L 17234 2378 L 17258 2380 L 17280 2384 L 17306 2388 L 17326 2388 L 17348 2390 L 17366 2392 L 17384 2394 L 17404 2394 L 17420 2394 L 17438 2394 L 17450 2394 L 17468 2394 L 17480 2394 L 17500 2396 L 17516 2396 L 17530 2396 L 17546 2396 L 17562 2396 L 17574 2396 L 17602 2396 L 17622 2396 L 17646 2396 L 17660 2396 L 17678 2396 L 17692 2396 L 17690 2396 L 17690 2374 L 17690 2350 L 17690 2322 L 17690 2302 L 17690 2280 L 17690 2252 L 17690 2224 L 17690 2192 L 17690 2158 L 17706 2120 L 17706 2084 L 17706 2048 L 17706 2014 L 17706 1978 L 17706 1946 L 17718 1914 L 17718 1882 L 17718 1856 L 17718 1834 L 17718 1812 L 17718 1794 L 17718 1762 L 17718 1736 L 17718 1708 L 17718 1682 L 17714 1682 L 17710 1658 L 17706 1636 L 17706 1614 L 17706 1588 L 17698 1588 L 17698 1564 L 17698 1540 L 17696 1540 L 17696 1522 L 17696 1502 L 17692 1478 L 17690 1460 L 17688 1460 L 17682 1460 L 17680 1460 L 17678 1460 L 17674 1460 L 17670 1460 L 17668 1460 L 17664 1460 L 17660 1460 L 17652 1460 L 17646 1460 L 17640 1460 L 17632 1460 L 17624 1460 L 17612 1460 L 17606 1460 L 17594 1462 L 17590 1464 L 17572 1464 L 17554 1470 L 17528 1470 L 17504 1470 L 17472 1470 L 17444 1472 L 17418 1474 L 17388 1474 L 17354 1474 L 17320 1474 L 17286 1474 L 17256 1474 L 17218 1474 L 17186 1474 L 17154 1474 L 17122 1474 L 17088 1474 L 17060 1474 L 17030 1474 L 16994 1474 L 16962 1474 L 16924 1474 L 16890 1474 L 16856 1474 L 16820 1474 L 16778 1474 L 16742 1474 L 16704 1474 L 16662 1474 L 16628 1474 L 16590 1474 L 16558 1474 L 16518 1474 L 16486 1474 L 16452 1474 L 16418 1474 L 16384 1474 L 16356 1474 L 16326 1456 L 16294 1456 L 16266 1456 L 16238 1456 L 16208 1456 L 16174 1456 L 16144 1456 L 16114 1456 L 16090 1456 L 16062 1456 L 16034 1456 L 16008 1456 L 15984 1456 L 15956 1456 L 15928 1456 L 15902 1456 L 15870 1456 L 15842 1456 L 15810 1456 L 15782 1456 L 15754 1456 L 15722 1456 L 15690 1456 L 15658 1456 L 15630 1456 L 15598 1456 L 15566 1438 L 15534 1438 L 15508 1438 L 15478 1438 L 15450 1438 L 15424 1438 L 15398 1438 L 15370 1420 L 15346 1420 L 15320 1420 L 15296 1420 L 15268 1420 L 15246 1420 L 15222 1420 L 15196 1420 L 15172 1420 L 15146 1420 L 15122 1420 L 15098 1420 L 15072 1420 L 15052 1420 L 15024 1420 L 15004 1420 L 14984 1420 L 14964 1420 L 14942 1420 L 14920 1420 L 14902 1420 L 14882 1420 L 14862 1420 L 14840 1420 L 14814 1420 L 14794 1420 L 14772 1420 L 14744 1420 L 14720 1420 L 14694 1420 L 14672 1422 L 14648 1422 L 14624 1424 L 14598 1426 L 14574 1426 L 14550 1426 L 14528 1428 L 14510 1428 L 14490 1428 L 14474 1430 L 14458 1430 L 14446 1432 L 14434 1432 L 14418 1434 L 14406 1434 L 14394 1434 L 14384 1434 L 14376 1436 L 14366 1436 L 14356 1436 L 14350 1436 L 14338 1436 L 14328 1436 L 14318 1438 L 14308 1438 L 14298 1438 L 14286 1438 L 14276 1440 L 14264 1440 L 14254 1440 L 14242 1440 L 14232 1442 L 14222 1442 L 14214 1442 L 14204 1442 L 14196 1442 L 14186 1442 L 14174 1442 L 14166 1442 L 14162 1442 L 14152 1442 L 14146 1442 L 14136 1442 L 14130 1442 L 14120 1442 L 14116 1442 L 14106 1442 L 14102 1442 L 14096 1442 L 14088 1442 L 14086 1442 L 14084 1442 L 14080 1442 L 14078 1442 L 14074 1442 L 14070 1442 L 14068 1442 L 14064 1442 L 14064 1442 L 14062 1444 L 14062 1448 L 14062 1450 L 14062 1452 L 14060 1454 L 14060 1456 L 14054 1458 L 14054 1460 L 14054 1460 L 14054 1464 L 14052 1468 L 14052 1470 L 14052 1474 L 14050 1478 L 14050 1482 L 14046 1486 L 14046 1490 L 14046 1496 L 14046 1500 L 14044 1504 L 14044 1510 L 14044 1518 L 14044 1520 L 14044 1526 L 14044 1530 L 14044 1536 L 14044 1538 L 14044 1544 L 14044 1546 L 14044 1552 L 14044 1556 L 14044 1558 L 14044 1564 L 14044 1566 L 14054 1570 L 14054 1576 L 14054 1576 L 14054 1580 L 14054 1584 L 14054 1586 L 14054 1592 L 14054 1596 L 14070 1600 L 14070 1604 L 14070 1606 L 14070 1608 L 14070 1612 L 14084 1614" stroke="#000000" stroke-width="50.00001" fill="none" stroke-linecap="round" stroke-linejoin="round"/>
<path d="M 15942 1742 L 15942 1742 L 15942 1722 L 15938 1722 L 15936 1722 L 15932 1722 L 15926 1722 L 15924 1722 L 15918 1722 L 15908 1722 L 15898 1722 L 15890 1722 L 15876 1724 L 15862 1728 L 15850 1734 L 15830 1742 L 15814 1752 L 15794 1762 L 15774 1774 L 15758 1786 L 15740 1800 L 15724 1816 L 15706 1832 L 15692 1852 L 15688 1872 L 15680 1894 L 15674 1914 L 15674 1936 L 15674 1956 L 15674 1978 L 15674 1998 L 15692 2016 L 15706 2034 L 15722 2050 L 15740 2064 L 15758 2076 L 15784 2084 L 15808 2090 L 15836 2092 L 15868 2092 L 15898 2092 L 15932 2092 L 15970 2092 L 16004 2092 L 16038 2068 L 16072 2068 L 16102 2036 L 16130 2036 L 16158 1998 L 16184 1976 L 16204 1954 L 16220 1934 L 16220 1912 L 16238 1892 L 16238 1872 L 16238 1852 L 16234 1852 L 16224 1816 L 16202 1816 L 16176 1790 L 16144 1790 L 16110 1790 L 16072 1766 L 16028 1766 L 15988 1766 L 15946 1766 L 15908 1766 L 15872 1766" stroke="#000000" stroke-width="50.00001" fill="none" stroke-linecap="round" stroke-linejoin="round"/>
<path d="M 15862 1976 L 15862 1976 L 15858 1956 L 15854 1956 L 15852 1956 L 15842 1938 L 15838 1938 L 15836 1938 L 15832 1938 L 15826 1938 L 15838 1938 L 15852 1938 L 15870 1938 L 15888 1938 L 15906 1918 L 15924 1918 L 15938 1918 L 15938 1900 L 15928 1904 L 15924 1906 L 15920 1914 L 15914 1918 L 15910 1922 L 15906 1928 L 15906 1934 L 15906 1938 L 15906 1942 L 15906 1946 L 15906 1948 L 15906 1952 L 15924 1952 L 15938 1952 L 15938 1930 L 15938 1908 L 15932 1908 L 15924 1908 L 15916 1908 L 15910 1912 L 15904 1912 L 15896 1912 L 15892 1914 L 15888 1918 L 15886 1924 L 15878 1932 L 15876 1938 L 15876 1944 L 15876 1950 L 15876 1954 L 15876 1956 L 15888 1956 L 15888 1936 L 15904 1936 L 15902 1936 L 15896 1914 L 15892 1914 L 15892 1892" stroke="#000000" stroke-width="50.00001" fill="none" stroke-linecap="round" stroke-linejoin="round"/>
<path d="M 15840 1814 L 15836 1814 L 15834 1794 L 15830 1794 L 15824 1794 L 15822 1794 L 15816 1794 L 15808 1794 L 15804 1794 L 15796 1794 L 15788 1794 L 15784 1796 L 15778 1804 L 15778 1820 L 15774 1836 L 15774 1854 L 15774 1872 L 15774 1888 L 15774 1906 L 15774 1926 L 15774 1948 L 15794 1966 L 15794 1984 L 15818 2000 L 15830 2012 L 15850 2022 L 15868 2028 L 15886 2030 L 15908 2032 L 15930 2032 L 15952 2032 L 15976 2032 L 15998 2032 L 16020 2010 L 16042 2010 L 16060 1986 L 16082 1986 L 16096 1958 L 16110 1958 L 16110 1926 L 16128 1926 L 16128 1894 L 16128 1868 L 16116 1850 L 16102 1850 L 16082 1850 L 16060 1850 L 16032 1850 L 16006 1850 L 15974 1850 L 15942 1850 L 15912 1850" stroke="#000000" stroke-width="50.00001" fill="none" stroke-linecap="round" stroke-linejoin="round"/>
<path d="M 14116 2772 L 14116 2772 L 14116 2756 L 14128 2758 L 14128 2768 L 14128 2788 L 14128 2810 L 14128 2838 L 14128 2870 L 14128 2906 L 14128 2944 L 14128 2984 L 14128 3026 L 14128 3068 L 14128 3110 L 14128 3152 L 14128 3190 L 14128 3226 L 14128 3254 L 14128 3274 L 14128 3292 L 14128 3302 L 14128 3310" stroke="#000000" stroke-width="50.00001" fill="none" stroke-linecap="round" stroke-linejoin="round"/>
<path d="M 16028 2794 L 16024 2768 L 16020 2768 L 16014 2768 L 16010 2742 L 16004 2742 L 16000 2742 L 15996 2722 L 15994 2722 L 15992 2722 L 15986 2722 L 15986 2730 L 15986 2742 L 15986 2756 L 15986 2774 L 15996 2794 L 15996 2818 L 15996 2846 L 15996 2878 L 15996 2916 L 16014 2954 L 16014 2998 L 16014 3038 L 16028 3084 L 16028 3128 L 16028 3172 L 16044 3212 L 16044 3250 L 16044 3284 L 16044 3316 L 16044 3342 L 16044 3362 L 16044 3380 L 16044 3392 L 16044 3400 L 16044 3408" stroke="#000000" stroke-width="50.00001" fill="none" stroke-linecap="round" stroke-linejoin="round"/>
<path d="M 14788 3048 L 14802 3048 L 14816 3028 L 14832 3028 L 14844 3028 L 14866 3028 L 14882 3028 L 14878 3028 L 14870 3028 L 14856 3032 L 14838 3036 L 14812 3044 L 14784 3050 L 14748 3054 L 14714 3058 L 14674 3064 L 14632 3068 L 14596 3072 L 14560 3076 L 14522 3078 L 14488 3078 L 14458 3078 L 14430 3078 L 14402 3078" stroke="#000000" stroke-width="50.00001" fill="none" stroke-linecap="round" stroke-linejoin="round"/>
<path d="M 14376 2910 L 14390 2888 L 14410 2866 L 14422 2844 L 14438 2844 L 14438 2826 L 14438 2828 L 14438 2836 L 14438 2842 L 14428 2858 L 14416 2870 L 14400 2886 L 14380 2900 L 14368 2916 L 14352 2934 L 14336 2952 L 14320 2970 L 14304 2988 L 14292 3004 L 14288 3022 L 14284 3038 L 14284 3052 L 14284 3068 L 14284 3082 L 14308 3096 L 14324 3112 L 14344 3126 L 14368 3140 L 14390 3154 L 14418 3168 L 14444 3182 L 14470 3192" stroke="#000000" stroke-width="50.00001" fill="none" stroke-linecap="round" stroke-linejoin="round"/>
<path d="M 15642 3042 L 15642 3042 L 15660 3042 L 15672 3042 L 15672 3044 L 15672 3046 L 15666 3046 L 15652 3046 L 15626 3046 L 15602 3046 L 15570 3046 L 15536 3046 L 15500 3046 L 15460 3046 L 15420 3046 L 15388 3046" stroke="#000000" stroke-width="50.00001" fill="none" stroke-linecap="round" stroke-linejoin="round"/>
<path d="M 15520 2948 L 15532 2948 L 15532 2926 L 15554 2926 L 15566 2926 L 15588 2926 L 15616 2926 L 15634 2926 L 15656 2926 L 15684 2940 L 15712 2952 L 15740 2970 L 15772 2988 L 15802 3008 L 15830 3026 L 15852 3046 L 15870 3068 L 15870 3094 L 15870 3116 L 15870 3142 L 15870 3160 L 15858 3166 L 15832 3182 L 15794 3198 L 15754 3208 L 15708 3218" stroke="#000000" stroke-width="50.00001" fill="none" stroke-linecap="round" stroke-linejoin="round"/>
<path d="M 14858 3270 L 14882 3270 L 14904 3274 L 14904 3288 L 14926 3304 L 14926 3324 L 14948 3352 L 14948 3382 L 14948 3414 L 14948 3450 L 14948 3488 L 14948 3526 L 14932 3564 L 14904 3600 L 14872 3634 L 14832 3664 L 14778 3688 L 14712 3706 L 14644 3718 L 14564 3724 L 14480 3724 L 14390 3724 L 14300 3724 L 14206 3692 L 14118 3666 L 14032 3632 L 13946 3594 L 13866 3548 L 13786 3496 L 13714 3440 L 13642 3380 L 13578 3312 L 13512 3240 L 13450 3164 L 13382 3082 L 13316 3000 L 13252 2918 L 13186 2836 L 13124 2754 L 13058 2676 L 12992 2602 L 12934 2536 L 12876 2474 L 12828 2424 L 12778 2376 L 12738 2338 L 12704 2308 L 12676 2282 L 12654 2282 L 12638 2254 L 12630 2254 L 12622 2254 L 12620 2266 L 12640 2276 L 12640 2284 L 12640 2292 L 12660 2300 L 12660 2308 L 12672 2316 L 12672 2324" stroke="#000000" stroke-width="50.00001" fill="none" stroke-linecap="round" stroke-linejoin="round"/>
<path d="M 12744 2352 L 12744 2352 L 12736 2332 L 12732 2332 L 12732 2344 L 12726 2356 L 12722 2376 L 12722 2394 L 12722 2418 L 12720 2442 L 12720 2468 L 12720 2490 L 12720 2518 L 12720 2542 L 12720 2566 L 12718 2588 L 12718 2608 L 12718 2624 L 12718 2634" stroke="#000000" stroke-width="50.00001" fill="none" stroke-linecap="round" stroke-linejoin="round"/>
<path d="M 12672 2330 L 12668 2302 L 12666 2302 L 12666 2278 L 12662 2258 L 12658 2258 L 12650 2236 L 12662 2236 L 12684 2236 L 12704 2242 L 12726 2254 L 12754 2262 L 12786 2272 L 12824 2284 L 12860 2296 L 12896 2308 L 12934 2318 L 12972 2330 L 13010 2342 L 13044 2352" stroke="#000000" stroke-width="50.00001" fill="none" stroke-linecap="round" stroke-linejoin="round"/>
<path d="M 15928 2100 L 15926 2794" stroke="#000000" stroke-width="50.00001" fill="none" stroke-linecap="round" stroke-linejoin="round"/>
<path d="M 5988 4482 L 5988 4482 L 5988 4488 L 5988 4504 L 6004 4524 L 6004 4546 L 6016 4570 L 6016 4598 L 6030 4626 L 6030 4654 L 6048 4682 L 6048 4712 L 6062 4740 L 6062 4768 L 6062 4790 L 6076 4804 L 6076 4816" stroke="#000000" stroke-width="50.00001" fill="none" stroke-linecap="round" stroke-linejoin="round"/>
<path d="M 5996 4592 L 5988 4550 L 5974 4508 L 5962 4466 L 5952 4426 L 5944 4388 L 5934 4350 L 5924 4318 L 5914 4288 L 5914 4262 L 5908 4236 L 5904 4236 L 5896 4208 L 5890 4208" stroke="#000000" stroke-width="50.00001" fill="none" stroke-linecap="round" stroke-linejoin="round"/>
<path d="M 6158 4466 L 6158 4470 L 6158 4478 L 6158 4482 L 6170 4488 L 6170 4494 L 6170 4502 L 6170 4510 L 6170 4518 L 6184 4528 L 6184 4536 L 6184 4546 L 6184 4552 L 6200 4560 L 6200 4562 L 6200 4564 L 6220 4564 L 6238 4564 L 6252 4540 L 6270 4508 L 6290 4472 L 6316 4444 L 6342 4444 L 6362 4444 L 6382 4444 L 6404 4444 L 6422 4460 L 6444 4480 L 6460 4506 L 6472 4534 L 6488 4566 L 6502 4600 L 6502 4634 L 6520 4666 L 6520 4696 L 6520 4722" stroke="#000000" stroke-width="50.00001" fill="none" stroke-linecap="round" stroke-linejoin="round"/>
<path d="M 6662 4446 L 6662 4446 L 6676 4414 L 6676 4394 L 6694 4394 L 6694 4400 L 6712 4408 L 6712 4422 L 6712 4442 L 6712 4462 L 6726 4484 L 6726 4508 L 6726 4536 L 6726 4558 L 6726 4584 L 6726 4604 L 6726 4622" stroke="#000000" stroke-width="50.00001" fill="none" stroke-linecap="round" stroke-linejoin="round"/>
<path d="M 6676 4408 L 6668 4370 L 6658 4334 L 6648 4298 L 6640 4266 L 6626 4236 L 6618 4210 L 6608 4184 L 6600 4164 L 6590 4164 L 6584 4136 L 6576 4136" stroke="#000000" stroke-width="50.00001" fill="none" stroke-linecap="round" stroke-linejoin="round"/>
<path d="M 7048 4012 L 7070 4012 L 7070 4022 L 7082 4046 L 7082 4074 L 7080 4114 L 7080 4162 L 7080 4216 L 7080 4274 L 7080 4334 L 7090 4398 L 7090 4466 L 7110 4530 L 7110 4592 L 7136 4650 L 7136 4696" stroke="#000000" stroke-width="50.00001" fill="none" stroke-linecap="round" stroke-linejoin="round"/>
<path d="M 7218 4484 L 7210 4452 L 7202 4422 L 7194 4400 L 7186 4400 L 7176 4378 L 7160 4378 L 7146 4378 L 7124 4378 L 7098 4378 L 7070 4378 L 7040 4378" stroke="#000000" stroke-width="50.00001" fill="none" stroke-linecap="round" stroke-linejoin="round"/>
<path d="M 7316 4392 L 7310 4374 L 7300 4374 L 7300 4380 L 7300 4388 L 7300 4402 L 7300 4420 L 7316 4440 L 7316 4462 L 7334 4486 L 7334 4512 L 7352 4540 L 7352 4564 L 7370 4590 L 7370 4612" stroke="#000000" stroke-width="50.00001" fill="none" stroke-linecap="round" stroke-linejoin="round"/>
<path d="M 7378 4370 L 7374 4330 L 7366 4294 L 7362 4260 L 7360 4226 L 7350 4194 L 7346 4166 L 7340 4144 L 7340 4126 L 7338 4100" stroke="#000000" stroke-width="50.00001" fill="none" stroke-linecap="round" stroke-linejoin="round"/>
<path d="M 7612 4318 L 7612 4328 L 7612 4340 L 7612 4352 L 7612 4366 L 7612 4386 L 7612 4406 L 7608 4426 L 7598 4448 L 7598 4468 L 7592 4490 L 7588 4512 L 7578 4532 L 7578 4550 L 7578 4570 L 7578 4588 L 7578 4600 L 7598 4606 L 7598 4610 L 7622 4610 L 7638 4610 L 7660 4586 L 7686 4586 L 7712 4552 L 7740 4524 L 7752 4500 L 7778 4470 L 7794 4440 L 7794 4412 L 7808 4382 L 7808 4356 L 7808 4336 L 7802 4318 L 7786 4318 L 7764 4298 L 7736 4298 L 7706 4298 L 7674 4300" stroke="#000000" stroke-width="50.00001" fill="none" stroke-linecap="round" stroke-linejoin="round"/>
<path d="M 7594 4408 L 7622 4408 L 7650 4408 L 7678 4386 L 7704 4386 L 7724 4386 L 7746 4366 L 7768 4366 L 7784 4368 L 7800 4374 L 7818 4382 L 7830 4396 L 7846 4412 L 7856 4434 L 7874 4456 L 7886 4480 L 7898 4500 L 7914 4524 L 7930 4538 L 7946 4558 L 7960 4570 L 7980 4576" stroke="#000000" stroke-width="50.00001" fill="none" stroke-linecap="round" stroke-linejoin="round"/>
<path d="M 8106 4362 L 8106 4332 L 8106 4306 L 8106 4280 L 8100 4256 L 8090 4238 L 8076 4238 L 8066 4216 L 8054 4216 L 8040 4216 L 8032 4216 L 8026 4216 L 8026 4222 L 8026 4230 L 8046 4240 L 8058 4248 L 8074 4256 L 8090 4260 L 8110 4262 L 8138 4262 L 8164 4262 L 8196 4262 L 8226 4242 L 8258 4242 L 8288 4216 L 8312 4198 L 8330 4178 L 8330 4156 L 8348 4136 L 8348 4114 L 8340 4082 L 8330 4082 L 8316 4082 L 8294 4082 L 8270 4090 L 8238 4108 L 8206 4132 L 8178 4158 L 8156 4188 L 8130 4226 L 8118 4268 L 8116 4310 L 8116 4356 L 8116 4402 L 8134 4444 L 8152 4484 L 8178 4520 L 8214 4546 L 8254 4566 L 8300 4576 L 8350 4584 L 8398 4586 L 8450 4586" stroke="#000000" stroke-width="50.00001" fill="none" stroke-linecap="round" stroke-linejoin="round"/>
<path d="M 8654 3844 L 8654 3844 L 8650 3810 L 8646 3810 L 8642 3782 L 8640 3782 L 8636 3782 L 8632 3782 L 8630 3782 L 8630 3804 L 8630 3834 L 8630 3868 L 8646 3910 L 8646 3960 L 8670 4012 L 8670 4068 L 8696 4128 L 8712 4190 L 8726 4254 L 8742 4318 L 8760 4376 L 8774 4428 L 8792 4472 L 8792 4504 L 8806 4524 L 8806 4536 L 8806 4540 L 8802 4518 L 8794 4498 L 8784 4468 L 8774 4430 L 8766 4388 L 8754 4340 L 8744 4290 L 8736 4234 L 8730 4174 L 8726 4118 L 8726 4064 L 8726 4012 L 8726 3962 L 8742 3920 L 8742 3884 L 8770 3858 L 8792 3858 L 8816 3830 L 8840 3830 L 8866 3838 L 8890 3854 L 8908 3878 L 8908 3912 L 8926 3954 L 8926 3996 L 8922 4040 L 8912 4088 L 8894 4136 L 8874 4180 L 8850 4220 L 8820 4256 L 8784 4284" stroke="#000000" stroke-width="50.00001" fill="none" stroke-linecap="round" stroke-linejoin="round"/>
<path d="M 8906 4338 L 8922 4338 L 8940 4316 L 8940 4318 L 8940 4324 L 8936 4328 L 8928 4338 L 8922 4352 L 8920 4368 L 8920 4386 L 8920 4408 L 8920 4428 L 8920 4452 L 8930 4468 L 8930 4486 L 8954 4504 L 8968 4514 L 8988 4520 L 9012 4520 L 9036 4520 L 9066 4520 L 9096 4500 L 9124 4500 L 9148 4462 L 9168 4440 L 9168 4412 L 9182 4382 L 9182 4354 L 9178 4328 L 9174 4306 L 9156 4288 L 9130 4288 L 9098 4266" stroke="#000000" stroke-width="50.00001" fill="none" stroke-linecap="round" stroke-linejoin="round"/>
<path d="M 9568 4202 L 9604 4180 L 9636 4180 L 9660 4148 L 9676 4130 L 9670 4130 L 9658 4130 L 9642 4134 L 9622 4140 L 9600 4150 L 9576 4164 L 9550 4178 L 9526 4192 L 9508 4208 L 9492 4226 L 9484 4242 L 9478 4256 L 9478 4274 L 9478 4284 L 9492 4298 L 9508 4308 L 9532 4322 L 9554 4334 L 9576 4350 L 9594 4366 L 9620 4384 L 9636 4406 L 9652 4424 L 9652 4444 L 9652 4464 L 9652 4482 L 9636 4500 L 9612 4514 L 9582 4528 L 9544 4540 L 9502 4548 L 9458 4554 L 9412 4556 L 9366 4556 L 9326 4556" stroke="#000000" stroke-width="50.00001" fill="none" stroke-linecap="round" stroke-linejoin="round"/>
<path d="M 9904 4108 L 9916 4108 L 9932 4108 L 9932 4120 L 9932 4136 L 9932 4156 L 9932 4182 L 9928 4214 L 9924 4246 L 9920 4284 L 9920 4318 L 9916 4352 L 9916 4390 L 9916 4420 L 9916 4452 L 9916 4478 L 9936 4494" stroke="#000000" stroke-width="50.00001" fill="none" stroke-linecap="round" stroke-linejoin="round"/>
<path d="M 9932 4304 L 9920 4264 L 9910 4224 L 9900 4184 L 9890 4150 L 9876 4118 L 9866 4090 L 9854 4064 L 9844 4044 L 9832 4044 L 9830 4012 L 9822 4012" stroke="#000000" stroke-width="50.00001" fill="none" stroke-linecap="round" stroke-linejoin="round"/>
<path d="M 10340 3884 L 10340 3850 L 10340 3828 L 10336 3828 L 10324 3828 L 10316 3838 L 10306 3856 L 10292 3882 L 10288 3918 L 10288 3962 L 10288 4010 L 10288 4066 L 10288 4128 L 10288 4192 L 10298 4258 L 10298 4324 L 10318 4386 L 10318 4442 L 10342 4494" stroke="#000000" stroke-width="50.00001" fill="none" stroke-linecap="round" stroke-linejoin="round"/>
<path d="M 10428 4360 L 10424 4328 L 10422 4304 L 10420 4278 L 10410 4256 L 10404 4256 L 10388 4226 L 10368 4226 L 10348 4226 L 10318 4226 L 10288 4226 L 10258 4226 L 10222 4226 L 10188 4226 L 10156 4226" stroke="#000000" stroke-width="50.00001" fill="none" stroke-linecap="round" stroke-linejoin="round"/>
<path d="M 10428 4200 L 10460 4178 L 10480 4178 L 10502 4178 L 10518 4178 L 10518 4184 L 10538 4196 L 10538 4208 L 10538 4224 L 10552 4244 L 10552 4268 L 10552 4290 L 10564 4318 L 10564 4342 L 10576 4368 L 10576 4390 L 10596 4408" stroke="#000000" stroke-width="50.00001" fill="none" stroke-linecap="round" stroke-linejoin="round"/>
<path d="M 10628 4152 L 10624 4104 L 10614 4058 L 10604 4014 L 10594 3978 L 10582 3942 L 10570 3912 L 10560 3888 L 10546 3866 L 10536 3866 L 10522 3842 L 10512 3842 L 10504 3842" stroke="#000000" stroke-width="50.00001" fill="none" stroke-linecap="round" stroke-linejoin="round"/>
<path d="M 10780 4112 L 10780 4120 L 10780 4126 L 10780 4134 L 10780 4140 L 10780 4150 L 10774 4160 L 10766 4174 L 10762 4190 L 10752 4206 L 10748 4222 L 10748 4242 L 10748 4266 L 10748 4286 L 10748 4308 L 10748 4334 L 10766 4356 L 10766 4376 L 10788 4394 L 10804 4404 L 10826 4412 L 10848 4414 L 10876 4414 L 10900 4414 L 10928 4414 L 10954 4386 L 10976 4386 L 10986 4348 L 10986 4326 L 10986 4300 L 10986 4276 L 10986 4250 L 10982 4226 L 10966 4204 L 10946 4204 L 10916 4174 L 10888 4174" stroke="#000000" stroke-width="50.00001" fill="none" stroke-linecap="round" stroke-linejoin="round"/>
<path d="M 10910 4208 L 10944 4208 L 10974 4208 L 11002 4188 L 11034 4188 L 11058 4188 L 11086 4188 L 11110 4192 L 11134 4198 L 11154 4210 L 11172 4222 L 11188 4240 L 11204 4256 L 11220 4274 L 11236 4294 L 11248 4318 L 11262 4332 L 11272 4346 L 11288 4356 L 11300 4358 L 11328 4358 L 11344 4358 L 11360 4336 L 11374 4318 L 11390 4294 L 11406 4272 L 11420 4248 L 11438 4226 L 11450 4208 L 11474 4190 L 11492 4190 L 11492 4198 L 11492 4214 L 11492 4234 L 11492 4260 L 11492 4286 L 11492 4318 L 11492 4350 L 11492 4384 L 11492 4416 L 11492 4448" stroke="#000000" stroke-width="50.00001" fill="none" stroke-linecap="round" stroke-linejoin="round"/>
<path d="M 11842 3904 L 11836 3904 L 11830 3904 L 11824 3882 L 11824 3890 L 11842 3898 L 11842 3908 L 11874 3926 L 11898 3946 L 11928 3968 L 11966 4000 L 12006 4032 L 12054 4070 L 12104 4108 L 12156 4148 L 12208 4186 L 12258 4226 L 12308 4262 L 12352 4294 L 12392 4324 L 12430 4346" stroke="#000000" stroke-width="50.00001" fill="none" stroke-linecap="round" stroke-linejoin="round"/>
<path d="M 12354 4062 L 12346 4034 L 12336 4006 L 12330 3982 L 12324 3962 L 12324 3942 L 12320 3942 L 12318 3942 L 12314 3954 L 12310 3974 L 12300 4004 L 12286 4040 L 12270 4086 L 12246 4134 L 12218 4190 L 12186 4248 L 12148 4306 L 12108 4368 L 12062 4428 L 12024 4484 L 11978 4538 L 11942 4584 L 11904 4626 L 11874 4658" stroke="#000000" stroke-width="50.00001" fill="none" stroke-linecap="round" stroke-linejoin="round"/>
<path d="M 14124 3666 L 14120 3666 L 14120 3642 L 14118 3642 L 14116 3628 L 14116 3606 L 14112 3606 L 14108 3588 L 14106 3588 L 14102 3588 L 14100 3588 L 14100 3598 L 14100 3618 L 14100 3644 L 14100 3676 L 14100 3714 L 14100 3756 L 14100 3800 L 14112 3844 L 14112 3894 L 14112 3946 L 14112 3996 L 14112 4044 L 14112 4090 L 14124 4130 L 14124 4162 L 14124 4190 L 14124 4216 L 14124 4232 L 14124 4246 L 14124 4256 L 14124 4258 L 14120 4238 L 14118 4238 L 14116 4200 L 14112 4174 L 14108 4144 L 14106 4110 L 14102 4072 L 14100 4034 L 14094 3990 L 14090 3948 L 14086 3906 L 14084 3866 L 14082 3830 L 14078 3802 L 14078 3782 L 14090 3786 L 14090 3808 L 14106 3838 L 14106 3872 L 14118 3916 L 14118 3958 L 14130 4002 L 14130 4044 L 14146 4090 L 14146 4132 L 14146 4168 L 14158 4198 L 14158 4226 L 14158 4248 L 14158 4262 L 14158 4274 L 14156 4280 L 14156 4282 L 14152 4282 L 14148 4248 L 14146 4224 L 14142 4196 L 14136 4160 L 14130 4124 L 14128 4086 L 14120 4048 L 14116 4010 L 14116 3976 L 14108 3948 L 14102 3928 L 14100 3928 L 14096 3928 L 14094 3928 L 14090 3930 L 14090 3954 L 14090 3986 L 14090 4022 L 14090 4064" stroke="#FFC114" stroke-width="50.00001" fill="none" stroke-linecap="round" stroke-linejoin="round"/>
<path d="M 14056 4124 L 14056 4124 L 14056 4100 L 14072 4100" stroke="#FFC114" stroke-width="50.00001" fill="none" stroke-linecap="round" stroke-linejoin="round"/>
<path d="M 13746 4102 L 13764 4102 L 13780 4102 L 13808 4102 L 13808 4082 L 13830 4082 L 13844 4082 L 13844 4060 L 13858 4060 L 13856 4062 L 13848 4066 L 13834 4068 L 13808 4068 L 13772 4068 L 13728 4068 L 13678 4068 L 13626 4068 L 13562 4068 L 13502 4068 L 13436 4068 L 13366 4068 L 13298 4068 L 13232 4050 L 13168 4050 L 13108 4050 L 13058 4050 L 13016 4026 L 12978 4026 L 12954 4026 L 12934 4026 L 12920 4026 L 12910 4026 L 12904 4026 L 12900 4026" stroke="#FFC114" stroke-width="50.00001" fill="none" stroke-linecap="round" stroke-linejoin="round"/>
<path d="M 13086 3836 L 13100 3836 L 13100 3814 L 13116 3794 L 13116 3796 L 13116 3802 L 13114 3812 L 13110 3824 L 13096 3840 L 13082 3862 L 13064 3882 L 13040 3904 L 13014 3926 L 12984 3946 L 12958 3972 L 12928 3994 L 12896 4016 L 12864 4038 L 12834 4054 L 12806 4072 L 12778 4086 L 12756 4096 L 12742 4104 L 12726 4112 L 12718 4120 L 12718 4128 L 12718 4136 L 12718 4146 L 12718 4160 L 12744 4172 L 12764 4182 L 12786 4194 L 12810 4206 L 12842 4220 L 12874 4232 L 12910 4244 L 12946 4260 L 12984 4274" stroke="#FFC114" stroke-width="50.00001" fill="none" stroke-linecap="round" stroke-linejoin="round"/>
<path d="M 82 7330 L 98 7330 L 98 7332 L 98 7334 L 98 7334 L 98 7338 L 96 7342 L 90 7344 L 88 7344 L 88 7348 L 86 7352 L 82 7354 L 78 7356 L 78 7362 L 68 7366 L 68 7370 L 60 7376 L 58 7382 L 48 7390 L 42 7402 L 36 7414 L 30 7428 L 22 7446 L 20 7464 L 14 7482 L 10 7502 L 10 7522 L 10 7542 L 10 7560 L 10 7580 L 10 7596 L 32 7610 L 32 7622 L 58 7624 L 78 7624 L 104 7624 L 132 7624 L 164 7600 L 192 7580 L 224 7554 L 252 7526 L 282 7492 L 300 7456 L 300 7420 L 322 7380 L 322 7342 L 322 7310 L 316 7282 L 302 7260 L 284 7260 L 252 7240 L 220 7240 L 174 7242 L 134 7250 L 90 7266 L 54 7282 L 22 7306" stroke="#000000" stroke-width="50.00001" fill="none" stroke-linecap="round" stroke-linejoin="round"/>
<path d="M 162 6738 L 152 6704 L 138 6678 L 128 6678 L 120 6678 L 112 6678 L 106 6678 L 106 6696 L 106 6728 L 106 6772 L 106 6820 L 128 6870 L 144 6928 L 158 6994 L 174 7064 L 196 7130 L 214 7196 L 230 7258 L 246 7310 L 264 7360 L 282 7402" stroke="#000000" stroke-width="50.00001" fill="none" stroke-linecap="round" stroke-linejoin="round"/>
<path d="M 476 7220 L 476 7220 L 498 7186 L 514 7168 L 528 7168 L 528 7178 L 542 7198 L 542 7220 L 542 7244 L 558 7272 L 558 7306 L 574 7342 L 574 7378 L 596 7412 L 596 7444 L 614 7474 L 614 7502 L 628 7522 L 628 7534 L 642 7538 L 656 7514 L 656 7492 L 676 7462 L 676 7426 L 690 7386 L 690 7346 L 712 7306 L 728 7270 L 744 7236 L 756 7210 L 776 7186 L 802 7186" stroke="#000000" stroke-width="50.00001" fill="none" stroke-linecap="round" stroke-linejoin="round"/>
<path d="M 1060 7306 L 1060 7312 L 1060 7318 L 1060 7322 L 1060 7328 L 1056 7330 L 1048 7338 L 1040 7344 L 1032 7354 L 1026 7366 L 1022 7378 L 1014 7396 L 1008 7414 L 1004 7434 L 1004 7456 L 1000 7480 L 1000 7502 L 1000 7520 L 1000 7536 L 1000 7548 L 1022 7550 L 1038 7552 L 1056 7552 L 1078 7552 L 1096 7534 L 1122 7516 L 1142 7492 L 1164 7464 L 1178 7434 L 1178 7400 L 1192 7368 L 1192 7338 L 1192 7310 L 1188 7292 L 1170 7292 L 1150 7264 L 1124 7264 L 1090 7264 L 1056 7264 L 1022 7268" stroke="#000000" stroke-width="50.00001" fill="none" stroke-linecap="round" stroke-linejoin="round"/>
<path d="M 1098 7408 L 1122 7372 L 1140 7352 L 1158 7332 L 1180 7300 L 1194 7300 L 1194 7308 L 1194 7324 L 1208 7346 L 1208 7372 L 1220 7398 L 1220 7422 L 1240 7448 L 1256 7474 L 1272 7498 L 1288 7518 L 1306 7530" stroke="#000000" stroke-width="50.00001" fill="none" stroke-linecap="round" stroke-linejoin="round"/>
<path d="M 1468 7308 L 1460 7276 L 1450 7276 L 1436 7256 L 1426 7256 L 1414 7256 L 1400 7258 L 1392 7264 L 1384 7274 L 1382 7288 L 1378 7308 L 1378 7328 L 1378 7352 L 1378 7378 L 1392 7404 L 1392 7428 L 1414 7450 L 1426 7470 L 1436 7484 L 1456 7494 L 1478 7496 L 1500 7496 L 1520 7496 L 1546 7496 L 1564 7466 L 1586 7444 L 1598 7420 L 1598 7390 L 1616 7360 L 1616 7332 L 1616 7306 L 1616 7284 L 1616 7266 L 1606 7266 L 1588 7266 L 1574 7266 L 1552 7266 L 1534 7266 L 1518 7270 L 1504 7294 L 1500 7326 L 1500 7362 L 1500 7408 L 1500 7460 L 1528 7514 L 1552 7574 L 1586 7638 L 1626 7700 L 1666 7762 L 1706 7828 L 1748 7890 L 1788 7948 L 1818 8000 L 1840 8044 L 1858 8080 L 1858 8108 L 1858 8124 L 1858 8134 L 1850 8136 L 1832 8136 L 1804 8136 L 1772 8108 L 1738 8088 L 1706 8058 L 1682 8022 L 1656 7982 L 1642 7936 L 1630 7894 L 1624 7850 L 1624 7810 L 1624 7772 L 1624 7736 L 1648 7704 L 1670 7674" stroke="#000000" stroke-width="50.00001" fill="none" stroke-linecap="round" stroke-linejoin="round"/>
<path d="M 2090 7070 L 2108 7048 L 2130 7026 L 2150 7002 L 2166 6980 L 2180 6958 L 2180 6936 L 2198 6914 L 2198 6896 L 2194 6874 L 2190 6874 L 2180 6874 L 2160 6874 L 2132 6884 L 2104 6904 L 2074 6932 L 2046 6962 L 2018 7000 L 1990 7042 L 1968 7086 L 1952 7136 L 1940 7190 L 1934 7244 L 1934 7294 L 1934 7342 L 1934 7390 L 1952 7428 L 1974 7458 L 2002 7484 L 2038 7496 L 2074 7506 L 2110 7510 L 2150 7510" stroke="#000000" stroke-width="50.00001" fill="none" stroke-linecap="round" stroke-linejoin="round"/>
<path d="M 2302 7282 L 2282 7282 L 2262 7260 L 2240 7260 L 2216 7260 L 2192 7260 L 2160 7260 L 2124 7264 L 2086 7268 L 2050 7276 L 2010 7282 L 1974 7292 L 1938 7302" stroke="#000000" stroke-width="50.00001" fill="none" stroke-linecap="round" stroke-linejoin="round"/>
<path d="M 2206 7244 L 2224 7244 L 2242 7244 L 2242 7220 L 2260 7220 L 2274 7220 L 2290 7220 L 2308 7220 L 2332 7220 L 2366 7220 L 2388 7194 L 2416 7194 L 2444 7166 L 2468 7144 L 2498 7118 L 2516 7086 L 2536 7056 L 2550 7020 L 2550 6986 L 2550 6950 L 2550 6920 L 2550 6896 L 2536 6896 L 2516 6896 L 2488 6896 L 2460 6904 L 2430 6928 L 2394 6966 L 2372 7008 L 2348 7062 L 2326 7120 L 2314 7178 L 2308 7242 L 2308 7308 L 2308 7372 L 2308 7430 L 2320 7482 L 2334 7526 L 2358 7560 L 2384 7580 L 2416 7592 L 2448 7596 L 2484 7596 L 2522 7596 L 2558 7596 L 2596 7564" stroke="#000000" stroke-width="50.00001" fill="none" stroke-linecap="round" stroke-linejoin="round"/>
<path d="M 2802 7310 L 2814 7288 L 2814 7270 L 2810 7248 L 2806 7248 L 2796 7248 L 2786 7248 L 2774 7248 L 2760 7248 L 2752 7258 L 2746 7268 L 2740 7276 L 2736 7284 L 2736 7294 L 2736 7304 L 2736 7310 L 2756 7316 L 2770 7316 L 2786 7316 L 2806 7316 L 2828 7316 L 2856 7316 L 2884 7294 L 2912 7294 L 2938 7262 L 2966 7262 L 2988 7230 L 3002 7230 L 3002 7200 L 3016 7200 L 3008 7200 L 2990 7200 L 2966 7210 L 2934 7228 L 2900 7256 L 2866 7282 L 2828 7314 L 2798 7346 L 2768 7382 L 2742 7416 L 2724 7450 L 2712 7484 L 2708 7514 L 2708 7534 L 2708 7552 L 2724 7562 L 2746 7564 L 2770 7564 L 2806 7564 L 2844 7544 L 2882 7544" stroke="#000000" stroke-width="50.00001" fill="none" stroke-linecap="round" stroke-linejoin="round"/>
<path d="M 3198 7250 L 3194 7250 L 3188 7250 L 3182 7250 L 3176 7250 L 3168 7258 L 3168 7268 L 3168 7280 L 3168 7294 L 3168 7310 L 3184 7328 L 3184 7344 L 3210 7362 L 3210 7382 L 3234 7398 L 3252 7414 L 3270 7420 L 3288 7426 L 3308 7426 L 3330 7426 L 3352 7426 L 3370 7408 L 3390 7408 L 3404 7372 L 3422 7352 L 3436 7330 L 3436 7310 L 3454 7292 L 3468 7264 L 3480 7264 L 3480 7274 L 3480 7288 L 3480 7304 L 3480 7324 L 3480 7346 L 3480 7370 L 3480 7388 L 3480 7408 L 3498 7422 L 3498 7430 L 3512 7434 L 3536 7434 L 3556 7406 L 3572 7406 L 3584 7370 L 3602 7370 L 3614 7340 L 3634 7340 L 3650 7340 L 3672 7340 L 3690 7340 L 3708 7340 L 3728 7340 L 3746 7348 L 3762 7366 L 3780 7386 L 3798 7410 L 3812 7436 L 3826 7464 L 3840 7484 L 3854 7504" stroke="#000000" stroke-width="50.00001" fill="none" stroke-linecap="round" stroke-linejoin="round"/>
<path d="M 3920 7300 L 3912 7276 L 3898 7250 L 3884 7230 L 3866 7230 L 3848 7198 L 3840 7198 L 3828 7198 L 3818 7198 L 3816 7198 L 3816 7178 L 3816 7184 L 3830 7190 L 3846 7204 L 3866 7216 L 3886 7228 L 3908 7234 L 3936 7242 L 3964 7246 L 3998 7248 L 4030 7248 L 4064 7248 L 4098 7248 L 4128 7248 L 4150 7220 L 4172 7220 L 4188 7220 L 4188 7192 L 4188 7172 L 4174 7172 L 4154 7172 L 4128 7178 L 4098 7190 L 4068 7208 L 4032 7228 L 4002 7248 L 3978 7276 L 3954 7304 L 3944 7334 L 3934 7364 L 3930 7392 L 3930 7420 L 3930 7440 L 3946 7462 L 3968 7476 L 3996 7486 L 4030 7486 L 4064 7486 L 4100 7486 L 4140 7486 L 4182 7462 L 4220 7462 L 4256 7426 L 4290 7402 L 4320 7378 L 4348 7350 L 4374 7320 L 4398 7292 L 4416 7262 L 4430 7232 L 4430 7208 L 4450 7184 L 4450 7164 L 4462 7164 L 4462 7172 L 4462 7186 L 4462 7210 L 4462 7234 L 4462 7260 L 4462 7288 L 4462 7316 L 4478 7342 L 4478 7368 L 4494 7390 L 4494 7404 L 4510 7410 L 4526 7410 L 4546 7390 L 4546 7354 L 4568 7334 L 4568 7314 L 4594 7314 L 4594 7286 L 4618 7286 L 4634 7286 L 4660 7286 L 4660 7296 L 4684 7312 L 4684 7330 L 4702 7354 L 4702 7382 L 4714 7408 L 4714 7432" stroke="#000000" stroke-width="50.00001" fill="none" stroke-linecap="round" stroke-linejoin="round"/>
<path d="M 4792 6928 L 4806 6882 L 4806 6838 L 4806 6804 L 4806 6780 L 4816 6780 L 4816 6784 L 4816 6812 L 4836 6852 L 4836 6902 L 4854 6962 L 4854 7028 L 4876 7100 L 4888 7174 L 4888 7250 L 4906 7326 L 4906 7400 L 4928 7464 L 4928 7518" stroke="#000000" stroke-width="50.00001" fill="none" stroke-linecap="round" stroke-linejoin="round"/>
<path d="M 5034 7186 L 5034 7148 L 5034 7112 L 5034 7084 L 5034 7058 L 5030 7058 L 5016 7034 L 4986 7034 L 4952 7034 L 4914 7034 L 4872 7034 L 4826 7034" stroke="#000000" stroke-width="50.00001" fill="none" stroke-linecap="round" stroke-linejoin="round"/>
<path d="M 6284 7198 L 6284 7174 L 6298 7156 L 6298 7136 L 6312 7136 L 6312 7112 L 6308 7112 L 6302 7118 L 6298 7130 L 6294 7144 L 6288 7158 L 6284 7174 L 6284 7194 L 6284 7212 L 6284 7230 L 6284 7250 L 6284 7270 L 6306 7280 L 6306 7292 L 6336 7298 L 6358 7298 L 6384 7298 L 6412 7298 L 6440 7298 L 6470 7268 L 6498 7268 L 6524 7228 L 6544 7204 L 6560 7176 L 6560 7152 L 6560 7130 L 6560 7110 L 6544 7084 L 6520 7084 L 6492 7084 L 6454 7084 L 6414 7084 L 6374 7086 L 6332 7098" stroke="#000000" stroke-width="50.00001" fill="none" stroke-linecap="round" stroke-linejoin="round"/>
<path d="M 6918 6862 L 6934 6830 L 6934 6802 L 6950 6776 L 6950 6750 L 6950 6726 L 6950 6704 L 6944 6676 L 6934 6676 L 6918 6676 L 6904 6676 L 6886 6684 L 6868 6704 L 6854 6734 L 6842 6772 L 6826 6818 L 6814 6868 L 6806 6928 L 6798 6992 L 6794 7060 L 6794 7134 L 6794 7208 L 6794 7278 L 6794 7346 L 6816 7410 L 6828 7466 L 6846 7512 L 6864 7550" stroke="#000000" stroke-width="50.00001" fill="none" stroke-linecap="round" stroke-linejoin="round"/>
<path d="M 6984 7216 L 6984 7192 L 6980 7172 L 6980 7142 L 6978 7142 L 6970 7142 L 6960 7142 L 6944 7142 L 6922 7142 L 6892 7148 L 6860 7158 L 6824 7172 L 6782 7182 L 6742 7200 L 6704 7214" stroke="#000000" stroke-width="50.00001" fill="none" stroke-linecap="round" stroke-linejoin="round"/>
<path d="M 7254 6910 L 7288 6880 L 7316 6848 L 7338 6820 L 7338 6792 L 7356 6766 L 7356 6742 L 7356 6724 L 7350 6696 L 7338 6696 L 7322 6696 L 7300 6696 L 7276 6710 L 7250 6732 L 7230 6764 L 7204 6800 L 7182 6842 L 7164 6892 L 7148 6948 L 7138 7010 L 7134 7076 L 7130 7144 L 7130 7214 L 7130 7280 L 7130 7344 L 7130 7404 L 7152 7460 L 7152 7506 L 7176 7546 L 7190 7578" stroke="#000000" stroke-width="50.00001" fill="none" stroke-linecap="round" stroke-linejoin="round"/>
<path d="M 7240 7200 L 7254 7180 L 7250 7148 L 7248 7148 L 7238 7148 L 7222 7148 L 7204 7148 L 7178 7148 L 7150 7150 L 7118 7162 L 7086 7172 L 7048 7182" stroke="#000000" stroke-width="50.00001" fill="none" stroke-linecap="round" stroke-linejoin="round"/>
<path d="M 7576 6996 L 7576 6996 L 7572 6966 L 7572 6942 L 7572 6942 L 7558 6942 L 7544 6942 L 7530 6942 L 7512 6946 L 7490 6958 L 7472 6972 L 7452 6988 L 7438 7000 L 7418 7016 L 7402 7034 L 7390 7054 L 7380 7072 L 7370 7088 L 7370 7104 L 7370 7116 L 7388 7128 L 7388 7138 L 7410 7148 L 7434 7158 L 7458 7168 L 7492 7182 L 7524 7194 L 7558 7210 L 7592 7222 L 7622 7240 L 7648 7258 L 7666 7278 L 7666 7294 L 7666 7312 L 7666 7328 L 7666 7346 L 7654 7364 L 7634 7378 L 7610 7386 L 7582 7394 L 7548 7400 L 7512 7404" stroke="#000000" stroke-width="50.00001" fill="none" stroke-linecap="round" stroke-linejoin="round"/>
<path d="M 7734 7182 L 7754 7158 L 7768 7136 L 7768 7114 L 7790 7096 L 7790 7062 L 7804 7044 L 7818 7046 L 7818 7054 L 7836 7062 L 7854 7072 L 7866 7080 L 7884 7086 L 7908 7090 L 7936 7092 L 7966 7092 L 7998 7092 L 8028 7092 L 8060 7092 L 8088 7070 L 8110 7070 L 8126 7046 L 8144 7014 L 8144 6994 L 8136 6994 L 8126 6994 L 8102 6994 L 8070 6996 L 8038 7006 L 7998 7020 L 7960 7040 L 7926 7062 L 7896 7084 L 7872 7112 L 7846 7142 L 7834 7174 L 7828 7204 L 7828 7234 L 7828 7258 L 7828 7276 L 7856 7294 L 7882 7308 L 7908 7316 L 7940 7318 L 7978 7318 L 8016 7318 L 8058 7318 L 8098 7298 L 8140 7298 L 8178 7262 L 8212 7234 L 8244 7204 L 8272 7172 L 8300 7134 L 8322 7098 L 8342 7058 L 8360 7018 L 8378 6980 L 8378 6946 L 8398 6912 L 8398 6886 L 8398 6862 L 8412 6862 L 8412 6864 L 8412 6880 L 8412 6900 L 8412 6932 L 8430 6974 L 8430 7020 L 8442 7072 L 8442 7126 L 8454 7182 L 8454 7240 L 8470 7294 L 8470 7344 L 8482 7388 L 8482 7422" stroke="#000000" stroke-width="50.00001" fill="none" stroke-linecap="round" stroke-linejoin="round"/>
<path d="M 8572 7258 L 8584 7226 L 8584 7196 L 8584 7168 L 8596 7148 L 8596 7126 L 8590 7126 L 8582 7100 L 8562 7100 L 8538 7100 L 8502 7100 L 8466 7100 L 8430 7100 L 8390 7108 L 8346 7114" stroke="#000000" stroke-width="50.00001" fill="none" stroke-linecap="round" stroke-linejoin="round"/>
<path d="M 8838 7098 L 8834 7070 L 8824 7070 L 8816 7048 L 8810 7048 L 8804 7030 L 8802 7030 L 8798 7030 L 8796 7036 L 8796 7046 L 8796 7064 L 8796 7082 L 8796 7106 L 8810 7134 L 8810 7166 L 8834 7198 L 8848 7228 L 8860 7260 L 8874 7290 L 8890 7316 L 8906 7338 L 8922 7348 L 8938 7352 L 8954 7352 L 8968 7352 L 8986 7352 L 8986 7314 L 9006 7288 L 9006 7260 L 9026 7228 L 9026 7196 L 9048 7168 L 9048 7142 L 9072 7122 L 9082 7122 L 9098 7102 L 9114 7102 L 9130 7102 L 9146 7104 L 9160 7116 L 9178 7132 L 9196 7148 L 9214 7170 L 9228 7192 L 9244 7214 L 9258 7234 L 9258 7252 L 9282 7262 L 9282 7266 L 9298 7266 L 9298 7236 L 9298 7214 L 9298 7188 L 9310 7158 L 9310 7126 L 9310 7094 L 9310 7062 L 9310 7036 L 9310 7010 L 9310 6990" stroke="#000000" stroke-width="50.00001" fill="none" stroke-linecap="round" stroke-linejoin="round"/>
<path d="M 9560 7088 L 9560 7088 L 9560 7064 L 9574 7064 L 9574 7072 L 9574 7086 L 9574 7104 L 9574 7126 L 9574 7150 L 9588 7174 L 9588 7200 L 9588 7226 L 9588 7254 L 9588 7274 L 9588 7294" stroke="#000000" stroke-width="50.00001" fill="none" stroke-linecap="round" stroke-linejoin="round"/>
<path d="M 9540 6982 L 9532 6940 L 9524 6900 L 9516 6862 L 9508 6830 L 9502 6800 L 9492 6774 L 9488 6752 L 9482 6752 L 9478 6726" stroke="#000000" stroke-width="50.00001" fill="none" stroke-linecap="round" stroke-linejoin="round"/>
<path d="M 9854 7074 L 9868 7074 L 9888 7074 L 9884 7080 L 9880 7094 L 9876 7108 L 9872 7126 L 9868 7146 L 9868 7164 L 9868 7188 L 9868 7212 L 9868 7238 L 9884 7260 L 9884 7280 L 9896 7296 L 9896 7306 L 9926 7310 L 9940 7312 L 9962 7312 L 9982 7312 L 10002 7312 L 10020 7286 L 10036 7264 L 10036 7242 L 10050 7214 L 10050 7186 L 10050 7156 L 10046 7128 L 10038 7104 L 10028 7080 L 10012 7060 L 9992 7060 L 9974 7024 L 9956 7024" stroke="#000000" stroke-width="50.00001" fill="none" stroke-linecap="round" stroke-linejoin="round"/>
<path d="M 10016 6872 L 10036 6846 L 10054 6820 L 10068 6792 L 10068 6768 L 10086 6750 L 10082 6728 L 10078 6736 L 10078 6756 L 10072 6786 L 10068 6822 L 10068 6868 L 10068 6922 L 10068 6978 L 10068 7036 L 10068 7096 L 10082 7158 L 10082 7214 L 10100 7268 L 10100 7316" stroke="#000000" stroke-width="50.00001" fill="none" stroke-linecap="round" stroke-linejoin="round"/>
<path d="M 10504 6686 L 10504 6686 L 10504 6698 L 10504 6720 L 10504 6750 L 10504 6788 L 10504 6832 L 10504 6880 L 10504 6932 L 10504 6986 L 10504 7040 L 10504 7098 L 10504 7154 L 10504 7208 L 10504 7256 L 10504 7296 L 10504 7326 L 10504 7350" stroke="#000000" stroke-width="50.00001" fill="none" stroke-linecap="round" stroke-linejoin="round"/>
<path d="M 10666 7052 L 10666 7030 L 10682 7012 L 10682 6988 L 10680 6988 L 10670 6988 L 10654 6988 L 10630 6988 L 10598 6988 L 10564 6988 L 10524 6988 L 10484 6988 L 10440 6968 L 10400 6970 L 10358 6970 L 10318 6974 L 10286 6980" stroke="#000000" stroke-width="50.00001" fill="none" stroke-linecap="round" stroke-linejoin="round"/>
<path d="M 10724 6698 L 10748 6678 L 10764 6656 L 10764 6664 L 10764 6684 L 10764 6714 L 10764 6750 L 10764 6796 L 10764 6846 L 10764 6898 L 10764 6952 L 10764 7008 L 10764 7068 L 10764 7122 L 10780 7174 L 10780 7212 L 10780 7244 L 10780 7268 L 10794 7278 L 10794 7280 L 10808 7280 L 10830 7260 L 10830 7242 L 10854 7218 L 10870 7194 L 10882 7170 L 10898 7146 L 10916 7124 L 10938 7124 L 10956 7102 L 10978 7102 L 11000 7102 L 11022 7102 L 11040 7104 L 11058 7116 L 11072 7130 L 11088 7146 L 11102 7166 L 11116 7184" stroke="#000000" stroke-width="50.00001" fill="none" stroke-linecap="round" stroke-linejoin="round"/>
<path d="M 13146 6864 L 13132 6864 L 13120 6864 L 13116 6846 L 13104 6846 L 13096 6846 L 13086 6824 L 13080 6824 L 13074 6824 L 13066 6800 L 13066 6776 L 13080 6776 L 13112 6776 L 13138 6756 L 13164 6756 L 13192 6756 L 13218 6756 L 13246 6756 L 13272 6764 L 13294 6776 L 13314 6792 L 13328 6812 L 13328 6838 L 13348 6862 L 13348 6892 L 13348 6926 L 13348 6956 L 13348 6990 L 13338 7022 L 13332 7054 L 13324 7086 L 13314 7114 L 13308 7136 L 13308 7156 L 13308 7168 L 13308 7178 L 13322 7184 L 13338 7184 L 13352 7184 L 13374 7184 L 13402 7184 L 13434 7166 L 13466 7166 L 13494 7138 L 13530 7120 L 13562 7100 L 13590 7078 L 13610 7056 L 13632 7032 L 13648 7012 L 13660 6994 L 13676 6972 L 13670 6972 L 13666 6976 L 13662 6990 L 13660 7008 L 13660 7028 L 13660 7048 L 13660 7068 L 13678 7088 L 13678 7102 L 13704 7116 L 13720 7124 L 13738 7126 L 13762 7126 L 13780 7126 L 13802 7126 L 13818 7100 L 13818 7066 L 13818 7046 L 13818 7028 L 13814 7004 L 13796 7004 L 13772 6978 L 13742 6978 L 13706 6978" stroke="#000000" stroke-width="50.00001" fill="none" stroke-linecap="round" stroke-linejoin="round"/>
<path d="M 14390 6934 L 14408 6934 L 14408 6910 L 14424 6910 L 14424 6910 L 14424 6922 L 14424 6938 L 14424 6958 L 14424 6980 L 14424 7002 L 14424 7024 L 14424 7044 L 14424 7068 L 14440 7086 L 14440 7102 L 14440 7112 L 14440 7116 L 14438 7094 L 14438 7072 L 14438 7052 L 14438 7024 L 14438 6994 L 14438 6966 L 14456 6934 L 14472 6910 L 14500 6884 L 14524 6884 L 14548 6884 L 14576 6886 L 14608 6898 L 14640 6914 L 14670 6938 L 14688 6966 L 14712 6994 L 14738 7024 L 14760 7056" stroke="#000000" stroke-width="50.00001" fill="none" stroke-linecap="round" stroke-linejoin="round"/>
<path d="M 15076 6824 L 15092 6798 L 15092 6774 L 15092 6756 L 15106 6756 L 15118 6770 L 15118 6794 L 15142 6828 L 15158 6866 L 15174 6910 L 15192 6956 L 15210 7006 L 15232 7056 L 15254 7100" stroke="#000000" stroke-width="50.00001" fill="none" stroke-linecap="round" stroke-linejoin="round"/>
<path d="M 15328 7166 L 15314 7140 L 15304 7112 L 15286 7086 L 15268 7066 L 15248 7066 L 15228 7038 L 15200 7038 L 15170 7038 L 15142 7038 L 15128 7038 L 15102 7042 L 15074 7056 L 15052 7074 L 15034 7096 L 15020 7122" stroke="#000000" stroke-width="50.00001" fill="none" stroke-linecap="round" stroke-linejoin="round"/>
<path d="M 15346 7138 L 15374 7112 L 15396 7086 L 15414 7058 L 15428 7034 L 15428 7012 L 15442 7012 L 15442 6986 L 15442 6992 L 15442 7006 L 15442 7022 L 15442 7040 L 15442 7058 L 15460 7074 L 15460 7088 L 15482 7102 L 15498 7112 L 15520 7116 L 15544 7116 L 15570 7116 L 15594 7116 L 15618 7116 L 15638 7090 L 15652 7090 L 15652 7056 L 15668 7034 L 15668 7012 L 15668 6990 L 15668 6972 L 15656 6972 L 15644 6944 L 15624 6944" stroke="#000000" stroke-width="50.00001" fill="none" stroke-linecap="round" stroke-linejoin="round"/>
<path d="M 15644 7000 L 15666 7000 L 15684 6982 L 15700 6982 L 15716 6982 L 15726 6962 L 15742 6962 L 15742 6966 L 15742 6976 L 15758 6988 L 15758 7004 L 15758 7026 L 15758 7048 L 15776 7074 L 15776 7098 L 15792 7120" stroke="#000000" stroke-width="50.00001" fill="none" stroke-linecap="round" stroke-linejoin="round"/>
<path d="M 15652 6842 L 15628 6792 L 15606 6748 L 15584 6706 L 15566 6670 L 15550 6640 L 15538 6620 L 15532 6620 L 15530 6620 L 15542 6642" stroke="#000000" stroke-width="50.00001" fill="none" stroke-linecap="round" stroke-linejoin="round"/>
<path d="M 15966 6856 L 15986 6856 L 16000 6838 L 16014 6838 L 16028 6838 L 16028 6816 L 16046 6816 L 16042 6816 L 16032 6816 L 16024 6816 L 16008 6816 L 15990 6818 L 15966 6824" stroke="#000000" stroke-width="50.00001" fill="none" stroke-linecap="round" stroke-linejoin="round"/>
<path d="M 15876 6890 L 15894 6894 L 15910 6894 L 15928 6898 L 15944 6904 L 15960 6912 L 15974 6924 L 15974 6936 L 15996 6954 L 15996 6974 L 16010 7000 L 16010 7028 L 16024 7058 L 16024 7088 L 16042 7120 L 16042 7150 L 16060 7178 L 16060 7202 L 16078 7226 L 16090 7238" stroke="#000000" stroke-width="50.00001" fill="none" stroke-linecap="round" stroke-linejoin="round"/>
<path d="M 16274 7120 L 16292 7086 L 16310 7054 L 16328 7020 L 16346 6992 L 16346 6964 L 16346 6944 L 16364 6944 L 16364 6920 L 16356 6922 L 16356 6932 L 16354 6944 L 16346 6964 L 16346 6988 L 16342 7010 L 16342 7030 L 16342 7052 L 16342 7074 L 16342 7094 L 16356 7110 L 16372 7120 L 16388 7124 L 16406 7126 L 16424 7126 L 16444 7126 L 16462 7126 L 16462 7100 L 16480 7100 L 16480 7062 L 16480 7038 L 16480 7016 L 16480 6992 L 16474 6972 L 16462 6952" stroke="#000000" stroke-width="50.00001" fill="none" stroke-linecap="round" stroke-linejoin="round"/>
<path d="M 16668 6940 L 16690 6940 L 16708 6916 L 16720 6916 L 16720 6890 L 16736 6890 L 16736 6868 L 16730 6870 L 16722 6878 L 16720 6888 L 16718 6898 L 16718 6918 L 16718 6940 L 16718 6960 L 16718 6982 L 16730 7002 L 16730 7030 L 16758 7054 L 16772 7078 L 16772 7106 L 16772 7132 L 16788 7156 L 16788 7178 L 16786 7196 L 16776 7212 L 16762 7222 L 16742 7232 L 16722 7234" stroke="#000000" stroke-width="50.00001" fill="none" stroke-linecap="round" stroke-linejoin="round"/>
<path d="M 17742 6608 L 17720 6608 L 17700 6608 L 17682 6588 L 17664 6588 L 17656 6588 L 17646 6588 L 17640 6588 L 17640 6570 L 17664 6570 L 17682 6570 L 17708 6570 L 17740 6570 L 17774 6570 L 17814 6570 L 17852 6548 L 17888 6548 L 17926 6548 L 17960 6548 L 17986 6550 L 18008 6560 L 18022 6574 L 18022 6596 L 18022 6622 L 18022 6650 L 18014 6682 L 17994 6718 L 17968 6756 L 17940 6794 L 17906 6832 L 17876 6872 L 17844 6910 L 17814 6946 L 17784 6978 L 17764 7004 L 17748 7024 L 17742 7040 L 17742 7050 L 17742 7052 L 17742 7054 L 17766 7054 L 17784 7054 L 17812 7054 L 17838 7030 L 17872 7030 L 17906 7002 L 17944 6982 L 17978 6960 L 18014 6940 L 18042 6918 L 18072 6894 L 18092 6872 L 18114 6852 L 18134 6822 L 18126 6822 L 18118 6822 L 18108 6822 L 18100 6826 L 18090 6842 L 18086 6856 L 18084 6874 L 18084 6892 L 18084 6910 L 18084 6926 L 18084 6936 L 18108 6944 L 18130 6946 L 18148 6946 L 18174 6946 L 18202 6946 L 18224 6946 L 18246 6926 L 18262 6926 L 18262 6898 L 18276 6898 L 18276 6864 L 18270 6832" stroke="#000000" stroke-width="50.00001" fill="none" stroke-linecap="round" stroke-linejoin="round"/>
<path d="M 18210 6852 L 18238 6852 L 18262 6852 L 18288 6852 L 18312 6852 L 18336 6852 L 18354 6852 L 18372 6852 L 18386 6852 L 18398 6852 L 18398 6856 L 18416 6868 L 18416 6884 L 18438 6900 L 18438 6920 L 18452 6942 L 18452 6962 L 18474 6980 L 18474 7000 L 18502 7014 L 18518 7024 L 18536 7032 L 18554 7032 L 18578 7032 L 18596 7032 L 18610 7032 L 18626 7000 L 18626 6980 L 18642 6956 L 18642 6934" stroke="#000000" stroke-width="50.00001" fill="none" stroke-linecap="round" stroke-linejoin="round"/>
<path d="M 19362 6898 L 19356 6904 L 19348 6910 L 19338 6912 L 19330 6914 L 19326 6920 L 19318 6920 L 19316 6920 L 19312 6922 L 19330 6922 L 19344 6904 L 19366 6904 L 19386 6904 L 19414 6876 L 19446 6876 L 19480 6850 L 19514 6850 L 19548 6822 L 19576 6822 L 19600 6792 L 19620 6792 L 19620 6762 L 19634 6762 L 19624 6762 L 19614 6762 L 19588 6762 L 19558 6762 L 19526 6762 L 19486 6780 L 19446 6804 L 19404 6830 L 19366 6860 L 19340 6890 L 19318 6920 L 19302 6950 L 19300 6982 L 19300 7008 L 19300 7030 L 19300 7052 L 19330 7066 L 19356 7076 L 19388 7082 L 19428 7082 L 19468 7082 L 19514 7082 L 19558 7058 L 19604 7058 L 19640 7026 L 19678 7008 L 19710 6990 L 19738 6970 L 19760 6952 L 19784 6952 L 19798 6924 L 19818 6924 L 19830 6904 L 19830 6906 L 19830 6912 L 19826 6922 L 19824 6930 L 19822 6942 L 19814 6956 L 19814 6972 L 19812 6988 L 19812 7004 L 19808 7018 L 19808 7030 L 19808 7046 L 19808 7056 L 19830 7066 L 19844 7074 L 19862 7080 L 19882 7084 L 19912 7084" stroke="#000000" stroke-width="50.00001" fill="none" stroke-linecap="round" stroke-linejoin="round"/>
<path d="M 19910 6784 L 19894 6748 L 19878 6748 L 19862 6714 L 19848 6714 L 19836 6684 L 19820 6684 L 19808 6658 L 19798 6658 L 19790 6638 L 19782 6638 L 19794 6638 L 19810 6638 L 19828 6638 L 19850 6638 L 19876 6620 L 19904 6620 L 19928 6620 L 19956 6620 L 19982 6594 L 20010 6594 L 20030 6570 L 20048 6570 L 20064 6534 L 20064 6496 L 20064 6468 L 20062 6468 L 20042 6468 L 20022 6468 L 19996 6476 L 19972 6490 L 19944 6514 L 19920 6546 L 19894 6582 L 19878 6624 L 19862 6672 L 19850 6722 L 19840 6774 L 19840 6828 L 19840 6880 L 19840 6928 L 19858 6972 L 19872 7010 L 19892 7038 L 19914 7066 L 19938 7086 L 19962 7100 L 19992 7108 L 20018 7110 L 20042 7110 L 20068 7110" stroke="#000000" stroke-width="50.00001" fill="none" stroke-linecap="round" stroke-linejoin="round"/>
<path d="M 20194 6918 L 20186 6918 L 20178 6894 L 20166 6894 L 20156 6876 L 20146 6876 L 20136 6852 L 20124 6852 L 20114 6832 L 20104 6832 L 20100 6832 L 20094 6812 L 20092 6812 L 20104 6812 L 20122 6812 L 20136 6812 L 20156 6812 L 20178 6812 L 20198 6812 L 20220 6812 L 20244 6792 L 20262 6792 L 20274 6792 L 20292 6792 L 20288 6792 L 20284 6792 L 20276 6792 L 20262 6792 L 20244 6798 L 20220 6808 L 20198 6826 L 20178 6848 L 20156 6874 L 20136 6900 L 20122 6928 L 20112 6960 L 20104 6988 L 20104 7016 L 20104 7040 L 20104 7062 L 20104 7080 L 20124 7094 L 20144 7104 L 20166 7110 L 20190 7110 L 20220 7110 L 20246 7110 L 20280 7086 L 20312 7066 L 20342 7046 L 20372 7022 L 20404 7000 L 20432 6980 L 20456 6956 L 20482 6956 L 20496 6926 L 20522 6926 L 20540 6926 L 20540 6936 L 20540 6952 L 20538 6970 L 20534 6988 L 20530 7008 L 20528 7022 L 20528 7038 L 20528 7050 L 20528 7056 L 20542 7062 L 20570 7062 L 20584 7062 L 20600 7040 L 20614 7040 L 20630 7008 L 20646 6990 L 20660 6990 L 20676 6958 L 20690 6958 L 20704 6934 L 20726 6934 L 20740 6936 L 20740 6946 L 20740 6960 L 20740 6978 L 20758 6994 L 20758 7014 L 20758 7032 L 20776 7048 L 20776 7060 L 20800 7070 L 20820 7076 L 20838 7076 L 20858 7076 L 20882 7076 L 20904 7056 L 20928 7056 L 20954 7024 L 20972 7004 L 20996 6986 L 21014 6968 L 21034 6968 L 21048 6948 L 21070 6948 L 21070 6952 L 21070 6960 L 21084 6976 L 21084 6996 L 21084 7018 L 21084 7046 L 21084 7072 L 21084 7102 L 21084 7130" stroke="#000000" stroke-width="50.00001" fill="none" stroke-linecap="round" stroke-linejoin="round"/>
<path d="M 21172 7014 L 21172 6980 L 21172 6946 L 21186 6918 L 21186 6890 L 21186 6866 L 21186 6848 L 21186 6820 L 21204 6820 L 21222 6822 L 21222 6828 L 21244 6836 L 21254 6846 L 21274 6854 L 21292 6860 L 21310 6866 L 21336 6872 L 21358 6876 L 21378 6880 L 21402 6880 L 21424 6880 L 21442 6880 L 21464 6880 L 21456 6888 L 21446 6896 L 21436 6910 L 21426 6924 L 21414 6942 L 21406 6960 L 21396 6980 L 21392 6998 L 21392 7016 L 21392 7034 L 21392 7052 L 21392 7066 L 21392 7078 L 21410 7086 L 21410 7090 L 21438 7090 L 21460 7090 L 21478 7090 L 21504 7090 L 21528 7066 L 21554 7066 L 21576 7036 L 21596 7036 L 21622 7006 L 21644 7006 L 21664 6984 L 21680 6984 L 21700 6984 L 21724 6986 L 21724 6998 L 21742 7012 L 21742 7028 L 21742 7050 L 21742 7072 L 21754 7096 L 21754 7116 L 21754 7136 L 21754 7152 L 21772 7166 L 21772 7172 L 21792 7172 L 21808 7172 L 21822 7172 L 21840 7152 L 21862 7134 L 21882 7110 L 21902 7084 L 21924 7056 L 21948 7028 L 21972 7004 L 21992 6980 L 22012 6962 L 22026 6962 L 22040 6962 L 22062 6962 L 22062 6966 L 22062 6986 L 22062 7010 L 22062 7040 L 22062 7076 L 22062 7108 L 22062 7142 L 22058 7176" stroke="#000000" stroke-width="50.00001" fill="none" stroke-linecap="round" stroke-linejoin="round"/>
<path d="M 22276 6634 L 22276 6604 L 22276 6582 L 22290 6582 L 22290 6584 L 22290 6610 L 22290 6648 L 22290 6692 L 22282 6734 L 22274 6784 L 22266 6834 L 22258 6886 L 22252 6934 L 22246 6982 L 22240 7020 L 22234 7054" stroke="#000000" stroke-width="50.00001" fill="none" stroke-linecap="round" stroke-linejoin="round"/>
<path d="M 22480 6680 L 22504 6680 L 22518 6682 L 22518 6684 L 22518 6688 L 22514 6694 L 22502 6696 L 22480 6698 L 22448 6698 L 22406 6698 L 22350 6698 L 22288 6698 L 22220 6676 L 22144 6676 L 22072 6656" stroke="#000000" stroke-width="50.00001" fill="none" stroke-linecap="round" stroke-linejoin="round"/>
<path d="M 14054 5012 L 14068 5012 L 14068 4992 L 14088 4992 L 14104 4992 L 14118 4992 L 14132 4992 L 14132 4996 L 14132 4998 L 14132 5008 L 14132 5012 L 14132 5020 L 14146 5026 L 14146 5034 L 14146 5042 L 14146 5048 L 14146 5054 L 14146 5060 L 14146 5064 L 14146 5066 L 14156 5066 L 14156 5074 L 14156 5088 L 14156 5106 L 14156 5132 L 14156 5166 L 14156 5202 L 14156 5242 L 14156 5284 L 14156 5328 L 14156 5374 L 14156 5416 L 14156 5458 L 14154 5502 L 14150 5536 L 14146 5562 L 14144 5578 L 14136 5584 L 14136 5584 L 14136 5548 L 14132 5520 L 14132 5486 L 14132 5446 L 14132 5400 L 14132 5356 L 14132 5310 L 14132 5266 L 14146 5224 L 14146 5194 L 14146 5170 L 14146 5148 L 14146 5150 L 14146 5166 L 14146 5186 L 14146 5216 L 14146 5250 L 14146 5288 L 14146 5328 L 14144 5368 L 14140 5406 L 14136 5442 L 14136 5472 L 14136 5492 L 14132 5504 L 14128 5504 L 14126 5504 L 14126 5466 L 14126 5436 L 14126 5406 L 14126 5372 L 14126 5338 L 14126 5304 L 14126 5274 L 14126 5246 L 14126 5222 L 14126 5200 L 14126 5216 L 14140 5234" stroke="#FF0000" stroke-width="35" fill="none" stroke-linecap="round" stroke-linejoin="round"/>
<path d="M 17678 4998 L 17674 4974 L 17672 4974 L 17668 4954 L 17664 4954 L 17662 4936 L 17674 4936 L 17674 4954 L 17674 4974 L 17692 5002 L 17692 5032 L 17692 5068 L 17712 5106 L 17712 5146 L 17712 5184 L 17730 5224 L 17730 5264 L 17730 5298 L 17746 5330 L 17746 5360 L 17746 5382 L 17746 5394 L 17746 5404 L 17742 5382 L 17740 5358 L 17732 5330 L 17730 5296 L 17724 5256 L 17714 5212 L 17710 5172 L 17702 5128 L 17696 5088 L 17696 5054 L 17692 5032 L 17692 5038 L 17692 5064 L 17692 5096 L 17710 5136 L 17710 5184 L 17710 5234 L 17710 5286 L 17710 5336 L 17720 5380 L 17720 5416 L 17718 5442 L 17718 5458 L 17714 5462 L 17710 5462 L 17706 5462 L 17700 5442 L 17692 5420 L 17688 5386 L 17678 5346 L 17672 5308 L 17664 5264 L 17662 5220 L 17656 5176 L 17650 5142 L 17646 5114 L 17640 5114 L 17634 5090 L 17630 5090 L 17628 5094 L 17626 5108 L 17626 5128 L 17626 5158 L 17626 5200 L 17626 5242 L 17622 5290 L 17622 5336 L 17620 5384 L 17616 5434 L 17610 5476 L 17606 5510 L 17606 5538 L 17604 5554" stroke="#FF0000" stroke-width="35" fill="none" stroke-linecap="round" stroke-linejoin="round"/>
<path d="M 15106 5364 L 15122 5364 L 15122 5330 L 15122 5304 L 15122 5282 L 15136 5282 L 15146 5282 L 15146 5292 L 15166 5304 L 15166 5326 L 15186 5350 L 15186 5378 L 15208 5412 L 15208 5446 L 15234 5486 L 15234 5528 L 15254 5570 L 15254 5612 L 15254 5654 L 15254 5694 L 15254 5732 L 15254 5770 L 15240 5802 L 15226 5830 L 15204 5856 L 15176 5878 L 15138 5898 L 15102 5914 L 15056 5924 L 15006 5936 L 14954 5946 L 14900 5956 L 14840 5962 L 14776 5970 L 14710 5976 L 14642 5980 L 14570 5982 L 14496 5982 L 14422 5982 L 14344 5982 L 14270 5982 L 14192 5982 L 14112 5982 L 14028 5956 L 13944 5956 L 13860 5932 L 13774 5932 L 13688 5896 L 13602 5874 L 13520 5854 L 13432 5830 L 13348 5806 L 13258 5780 L 13172 5750 L 13086 5722 L 12998 5694 L 12912 5664 L 12824 5632 L 12742 5606 L 12660 5584 L 12582 5564 L 12510 5564 L 12440 5534 L 12376 5534 L 12312 5534 L 12256 5534 L 12208 5534 L 12160 5534 L 12118 5546 L 12080 5560 L 12046 5582 L 12016 5608 L 11988 5636 L 11960 5664 L 11934 5694 L 11910 5724 L 11884 5756 L 11860 5786 L 11836 5818 L 11812 5846 L 11788 5876 L 11768 5906 L 11746 5938 L 11722 5970 L 11704 6000 L 11686 6030 L 11668 6060 L 11654 6088 L 11644 6114 L 11634 6142 L 11626 6166 L 11618 6190 L 11612 6210 L 11606 6228 L 11602 6248 L 11602 6266 L 11600 6276 L 11596 6290 L 11596 6304 L 11594 6312 L 11594 6322 L 11594 6330 L 11590 6336 L 11588 6344 L 11588 6350 L 11584 6354 L 11580 6360 L 11578 6364 L 11572 6372 L 11566 6376 L 11560 6382 L 11552 6390 L 11548 6396 L 11540 6406 L 11530 6412 L 11520 6420 L 11510 6430 L 11500 6440 L 11492 6452 L 11480 6462 L 11470 6474 L 11460 6486 L 11450 6498 L 11440 6512 L 11428 6524 L 11420 6538 L 11408 6550 L 11398 6562 L 11388 6572 L 11378 6582 L 11368 6594 L 11358 6604 L 11346 6610 L 11334 6620 L 11328 6630 L 11314 6634 L 11306 6638 L 11300 6644 L 11290 6646 L 11284 6646 L 11278 6648 L 11272 6650 L 11268 6650 L 11262 6652 L 11258 6656 L 11256 6658 L 11254 6660 L 11250 6664 L 11250 6668 L 11250 6672 L 11246 6676 L 11246 6680 L 11246 6684 L 11244 6686 L 11240 6688 L 11236 6694 L 11236 6696 L 11236 6704" stroke="#FF0000" stroke-width="35" fill="none" stroke-linecap="round" stroke-linejoin="round"/>
<path d="M 11290 6256 L 11288 6234 L 11288 6216 L 11288 6222 L 11280 6232 L 11278 6244 L 11272 6258 L 11266 6274 L 11258 6292 L 11250 6316 L 11244 6338 L 11236 6364 L 11226 6388 L 11218 6414 L 11204 6442 L 11194 6466 L 11186 6490 L 11178 6510 L 11168 6528 L 11160 6546 L 11154 6562 L 11148 6576 L 11142 6586 L 11138 6594 L 11136 6598 L 11132 6604 L 11130 6608 L 11130 6614 L 11130 6616 L 11126 6618 L 11126 6624 L 11126 6626 L 11126 6630 L 11126 6634 L 11126 6638 L 11138 6644 L 11138 6652 L 11138 6656 L 11138 6660 L 11154 6668 L 11154 6674 L 11154 6680 L 11168 6686 L 11168 6694 L 11168 6700 L 11186 6706 L 11186 6712 L 11186 6716 L 11200 6718 L 11200 6720 L 11218 6720 L 11244 6720 L 11258 6720 L 11280 6720 L 11304 6702 L 11328 6702 L 11360 6680 L 11390 6680 L 11424 6652 L 11464 6652 L 11504 6626 L 11552 6626 L 11594 6604 L 11642 6604 L 11684 6604 L 11724 6584" stroke="#FF0000" stroke-width="35" fill="none" stroke-linecap="round" stroke-linejoin="round"/>
<path d="M 14692 5296 L 14712 5296 L 14730 5296 L 14742 5296 L 14756 5298 L 14756 5300 L 14754 5300 L 14752 5300 L 14748 5304 L 14744 5310 L 14738 5316 L 14732 5320 L 14726 5328 L 14716 5330 L 14708 5334 L 14692 5338 L 14680 5342 L 14664 5346 L 14646 5350 L 14628 5354 L 14606 5358 L 14582 5360 L 14556 5362 L 14524 5362 L 14496 5362 L 14470 5362 L 14438 5364 L 14408 5364 L 14380 5364 L 14352 5364 L 14326 5364 L 14302 5364 L 14276 5364 L 14256 5366 L 14238 5366 L 14220 5366 L 14210 5368 L 14202 5370 L 14192 5372 L 14190 5374 L 14188 5378" stroke="#FF0000" stroke-width="35" fill="none" stroke-linecap="round" stroke-linejoin="round"/>
<path d="M 14324 5208 L 14324 5184 L 14338 5184 L 14338 5156 L 14352 5156 L 14352 5136 L 14368 5136 L 14368 5116 L 14368 5126 L 14368 5136 L 14364 5150 L 14356 5166 L 14338 5184 L 14324 5204 L 14310 5222 L 14290 5242 L 14268 5266 L 14246 5290 L 14224 5310 L 14204 5332 L 14186 5352 L 14166 5370 L 14150 5386 L 14138 5402 L 14136 5414 L 14136 5430 L 14136 5442 L 14136 5458 L 14150 5470 L 14166 5482 L 14190 5496 L 14218 5508 L 14252 5518" stroke="#FF0000" stroke-width="35" fill="none" stroke-linecap="round" stroke-linejoin="round"/>
<path d="M 15872 5284 L 15862 5284 L 15854 5284 L 15844 5284 L 15842 5284 L 15838 5284 L 15838 5286 L 15838 5288 L 15838 5290 L 15838 5296 L 15838 5298 L 15858 5298 L 15858 5300 L 15870 5302 L 15870 5304 L 15870 5306 L 15888 5308 L 15888 5308 L 15904 5308 L 15924 5308 L 15944 5308 L 15962 5308 L 15984 5310 L 16006 5310 L 16030 5312 L 16062 5316 L 16096 5316 L 16126 5316 L 16164 5316 L 16208 5316 L 16248 5318 L 16292 5318 L 16336 5318 L 16382 5324 L 16428 5324 L 16474 5326 L 16520 5326 L 16568 5330 L 16614 5334 L 16660 5334 L 16704 5336 L 16746 5338 L 16788 5344 L 16828 5344 L 16862 5346 L 16896 5346 L 16928 5346 L 16958 5346 L 16984 5346 L 17008 5348 L 17032 5348 L 17052 5348 L 17070 5348 L 17088 5348 L 17104 5348 L 17118 5348 L 17138 5348 L 17150 5348 L 17168 5348 L 17184 5348 L 17200 5326 L 17216 5326 L 17234 5326 L 17246 5326 L 17262 5326 L 17274 5326 L 17290 5326 L 17302 5326 L 17328 5326 L 17352 5326 L 17366 5326 L 17388 5326 L 17410 5326 L 17436 5326 L 17436 5328 L 17458 5330 L 17458 5332 L 17478 5332 L 17494 5332 L 17512 5332" stroke="#FF0000" stroke-width="35" fill="none" stroke-linecap="round" stroke-linejoin="round"/>
<path d="M 17306 5128 L 17292 5128 L 17284 5128 L 17272 5110 L 17266 5110 L 17256 5110 L 17250 5110 L 17244 5110 L 17240 5090 L 17236 5090 L 17264 5094 L 17274 5102 L 17292 5108 L 17316 5120 L 17342 5132 L 17368 5144 L 17396 5162 L 17428 5180 L 17460 5200 L 17492 5222 L 17522 5248 L 17548 5268 L 17566 5294 L 17580 5318 L 17580 5344 L 17580 5368 L 17580 5394 L 17578 5420 L 17560 5442 L 17530 5462 L 17498 5486 L 17460 5506 L 17414 5528 L 17370 5548 L 17324 5564 L 17284 5582 L 17244 5600 L 17214 5620 L 17186 5638" stroke="#FF0000" stroke-width="35" fill="none" stroke-linecap="round" stroke-linejoin="round"/></svg>