<svg xmlns="http://www.w3.org/2000/svg" width="8846" height="7964" viewBox="0 0 8846 7964"><path d="M 2206 4162 L 2206 4162 L 2202 4138 L 2202 4116 L 2198 4116 L 2198 4120 L 2198 4138 L 2198 4166 L 2198 4196 L 2198 4234 L 2210 4278 L 2210 4326 L 2210 4374 L 2224 4424 L 2224 4474 L 2224 4524 L 2224 4574 L 2224 4616 L 2236 4650 L 2236 4672 L 2236 4686 L 2236 4688 L 2232 4688 L 2230 4688 L 2230 4652 L 2224 4616 L 2220 4574 L 2216 4520 L 2210 4464 L 2206 4404 L 2202 4342 L 2196 4282 L 2192 4226 L 2190 4176 L 2190 4138 L 2186 4110 L 2182 4110 L 2180 4110 L 2176 4110 L 2172 4110 L 2162 4128 L 2154 4160 L 2140 4200 L 2126 4248 L 2112 4300 L 2096 4348 L 2080 4402 L 2066 4452 L 2054 4496 L 2040 4532" stroke="#000000" stroke-width="35" fill="none" stroke-linecap="round" stroke-linejoin="round"/>
<path d="M 2278 4264 L 2278 4264 L 2296 4264 L 2308 4266 L 2308 4278 L 2308 4296 L 2308 4314 L 2308 4336 L 2308 4358 L 2308 4382 L 2308 4404 L 2308 4430 L 2308 4456 L 2308 4480 L 2324 4502 L 2324 4520 L 2346 4532 L 2364 4540 L 2386 4540 L 2408 4540 L 2432 4540 L 2454 4540 L 2480 4514 L 2502 4514 L 2522 4472 L 2540 4450 L 2556 4424 L 2556 4398 L 2570 4374 L 2570 4352 L 2570 4352 L 2560 4324 L 2548 4324 L 2526 4324 L 2502 4324 L 2476 4324 L 2450 4324 L 2428 4324" stroke="#000000" stroke-width="35" fill="none" stroke-linecap="round" stroke-linejoin="round"/>
<path d="M 2628 4040 L 2650 4002 L 2650 3968 L 2664 3936 L 2664 3906 L 2664 3878 L 2664 3860 L 2676 3860 L 2676 3874 L 2676 3902 L 2690 3946 L 2690 4002 L 2690 4066 L 2710 4132 L 2710 4208 L 2710 4288 L 2726 4370 L 2726 4454 L 2726 4540 L 2738 4622 L 2738 4696 L 2738 4760 L 2738 4812 L 2738 4848" stroke="#000000" stroke-width="35" fill="none" stroke-linecap="round" stroke-linejoin="round"/>
<path d="M 2986 4192 L 2972 4160 L 2962 4160 L 2954 4130 L 2944 4130 L 2936 4100 L 2930 4100 L 2924 4072 L 2924 4050 L 2944 4050 L 2954 4050 L 2972 4050 L 2994 4050 L 3020 4050 L 3044 4050 L 3074 4060 L 3096 4072 L 3118 4088 L 3138 4106 L 3154 4126 L 3154 4148 L 3154 4168 L 3154 4190 L 3154 4210 L 3154 4230 L 3150 4244 L 3142 4260 L 3124 4274 L 3110 4284 L 3096 4292 L 3088 4300 L 3082 4302 L 3078 4306 L 3078 4310 L 3078 4312 L 3096 4316 L 3114 4320 L 3132 4330 L 3156 4338 L 3178 4350 L 3200 4362 L 3220 4378 L 3236 4396 L 3252 4416 L 3252 4436 L 3252 4458 L 3252 4482 L 3252 4502 L 3244 4522 L 3226 4540 L 3202 4560 L 3174 4576 L 3144 4588 L 3114 4600 L 3082 4608 L 3050 4614 L 3026 4616" stroke="#000000" stroke-width="35" fill="none" stroke-linecap="round" stroke-linejoin="round"/>
<path d="M 5882 3986 L 5868 3986 L 5852 3986 L 5836 3962 L 5820 3962 L 5808 3962 L 5796 3962 L 5790 3944 L 5782 3944 L 5772 3944 L 5768 3944 L 5764 3944 L 5764 3924 L 5782 3924 L 5800 3924 L 5818 3924 L 5832 3924 L 5852 3904 L 5876 3904 L 5902 3904 L 5928 3884 L 5960 3884 L 5992 3884 L 6022 3860 L 6054 3860 L 6084 3860 L 6112 3836 L 6140 3836 L 6162 3836 L 6182 3836 L 6202 3836 L 6216 3836 L 6230 3836 L 6248 3846 L 6248 3866 L 6248 3888 L 6248 3918 L 6248 3952 L 6248 3988 L 6248 4028 L 6248 4068 L 6248 4112 L 6248 4158 L 6248 4204 L 6248 4250 L 6248 4296 L 6248 4338 L 6248 4376 L 6248 4410 L 6248 4440 L 6248 4468 L 6248 4490 L 6248 4510 L 6248 4524 L 6248 4534 L 6248 4538" stroke="#000000" stroke-width="35" fill="none" stroke-linecap="round" stroke-linejoin="round"/>
<path d="M 6304 4288 L 6304 4288 L 6322 4262 L 6336 4236 L 6336 4212 L 6328 4212 L 6318 4212 L 6298 4212 L 6274 4212 L 6242 4212 L 6204 4216 L 6166 4224 L 6122 4228 L 6074 4234 L 6028 4238 L 5982 4244 L 5938 4246 L 5902 4246 L 5868 4246" stroke="#000000" stroke-width="35" fill="none" stroke-linecap="round" stroke-linejoin="round"/>
<path d="M 6978 3934 L 7000 3934 L 7018 3934 L 7036 3912 L 7050 3912 L 7062 3918 L 7062 3928 L 7078 3948 L 7078 3976 L 7078 4012 L 7078 4056 L 7078 4104 L 7078 4156 L 7078 4210 L 7078 4264 L 7076 4324 L 7070 4384 L 7068 4440 L 7062 4492 L 7060 4540" stroke="#000000" stroke-width="35" fill="none" stroke-linecap="round" stroke-linejoin="round"/>
<path d="M 7102 4436 L 7102 4404 L 7098 4404 L 7088 4384 L 7084 4384 L 7070 4384 L 7052 4384 L 7034 4384 L 7010 4384 L 6982 4386 L 6954 4392 L 6918 4400 L 6888 4406 L 6858 4416 L 6832 4424 L 6802 4432 L 6772 4436 L 6744 4440 L 6722 4440 L 6702 4440 L 6686 4440 L 6674 4440 L 6668 4418 L 6668 4384 L 6668 4360 L 6668 4334 L 6684 4304 L 6684 4268 L 6700 4234 L 6700 4200 L 6714 4166 L 6714 4134 L 6730 4100 L 6730 4070 L 6730 4046 L 6744 4020 L 6744 4000" stroke="#000000" stroke-width="35" fill="none" stroke-linecap="round" stroke-linejoin="round"/>
<path d="M 7324 4138 L 7342 4138 L 7360 4138 L 7376 4116 L 7386 4116 L 7406 4116 L 7406 4122 L 7402 4136 L 7398 4158 L 7398 4182 L 7398 4208 L 7398 4234 L 7398 4262 L 7398 4292 L 7416 4320 L 7416 4346 L 7438 4372 L 7458 4392 L 7478 4408 L 7504 4418 L 7528 4420 L 7558 4420 L 7586 4420 L 7612 4420 L 7638 4386 L 7656 4362 L 7656 4334 L 7674 4304 L 7674 4268 L 7674 4232 L 7674 4198 L 7664 4166 L 7644 4136 L 7608 4110 L 7568 4088 L 7526 4088 L 7472 4064 L 7420 4064 L 7376 4064" stroke="#000000" stroke-width="35" fill="none" stroke-linecap="round" stroke-linejoin="round"/>
<path d="M 6792 3954 L 6792 3954 L 6792 3934 L 6792 3914 L 6792 3918 L 6788 3924 L 6786 3936 L 6782 3948 L 6778 3964 L 6770 3986 L 6762 4008 L 6750 4036 L 6740 4064 L 6732 4098 L 6722 4130 L 6710 4166 L 6700 4198 L 6690 4232 L 6680 4262 L 6668 4290 L 6658 4318 L 6650 4340 L 6642 4360 L 6636 4376 L 6634 4388 L 6634 4400 L 6630 4408 L 6630 4412 L 6630 4416 L 6650 4416 L 6670 4416 L 6686 4416 L 6704 4416 L 6726 4416 L 6750 4394 L 6776 4394 L 6804 4394 L 6832 4394 L 6862 4394 L 6892 4394 L 6922 4394 L 6950 4394 L 6978 4376 L 7002 4376 L 7024 4376 L 7046 4376 L 7062 4376 L 7074 4378 L 7094 4378" stroke="#000000" stroke-width="35" fill="none" stroke-linecap="round" stroke-linejoin="round"/>
<path d="M 7070 3990 L 7070 3968 L 7070 3934 L 7070 3912 L 7066 3912 L 7066 3922 L 7064 3940 L 7064 3962 L 7062 3990 L 7062 4024 L 7062 4060 L 7062 4100 L 7062 4146 L 7062 4194 L 7076 4244 L 7076 4294 L 7076 4344 L 7094 4394 L 7094 4440 L 7104 4484 L 7104 4524 L 7120 4560 L 7120 4592 L 7120 4616 L 7134 4640 L 7134 4656 L 7134 4668 L 7134 4672" stroke="#000000" stroke-width="35" fill="none" stroke-linecap="round" stroke-linejoin="round"/>
<path d="M 2184 5520 L 2184 5496 L 2184 5476 L 2184 5456 L 2198 5456 L 2198 5460 L 2198 5474 L 2212 5494 L 2212 5522 L 2226 5558 L 2226 5602 L 2248 5650 L 2248 5706 L 2268 5764 L 2268 5826 L 2290 5888 L 2290 5952 L 2308 6014 L 2308 6074 L 2320 6126 L 2320 6174 L 2320 6212 L 2320 6232 L 2320 6240 L 2318 6240 L 2308 6240 L 2298 6220 L 2290 6192 L 2284 6152 L 2272 6108 L 2258 6054 L 2246 5996 L 2234 5936 L 2222 5872 L 2208 5812 L 2204 5752 L 2194 5698 L 2188 5652 L 2184 5620 L 2180 5596 L 2180 5606 L 2180 5630 L 2180 5666 L 2180 5706 L 2180 5754 L 2180 5806 L 2180 5858 L 2180 5910 L 2180 5958 L 2180 6004 L 2178 6044" stroke="#000000" stroke-width="35" fill="none" stroke-linecap="round" stroke-linejoin="round"/>
<path d="M 2508 5588 L 2498 5588 L 2488 5588 L 2484 5568 L 2470 5568 L 2462 5568 L 2452 5568 L 2446 5548 L 2436 5548 L 2430 5548 L 2426 5548 L 2418 5548 L 2416 5548 L 2416 5528 L 2426 5528 L 2456 5528 L 2470 5528 L 2494 5528 L 2514 5528 L 2536 5528 L 2560 5506 L 2582 5506 L 2608 5506 L 2632 5506 L 2656 5506 L 2682 5506 L 2704 5506 L 2724 5516 L 2742 5532 L 2756 5552 L 2770 5576 L 2770 5602 L 2790 5634 L 2790 5670 L 2808 5706 L 2808 5744 L 2808 5784 L 2822 5820 L 2822 5858 L 2822 5894 L 2822 5926 L 2822 5952 L 2822 5976 L 2838 5996 L 2838 6014 L 2838 6032 L 2850 6042" stroke="#000000" stroke-width="35" fill="none" stroke-linecap="round" stroke-linejoin="round"/>
<path d="M 2896 5908 L 2896 5882 L 2896 5862 L 2892 5840 L 2888 5840 L 2878 5840 L 2866 5840 L 2844 5842 L 2816 5848 L 2786 5856 L 2748 5864 L 2710 5880 L 2672 5894 L 2634 5908 L 2594 5916 L 2552 5922" stroke="#000000" stroke-width="35" fill="none" stroke-linecap="round" stroke-linejoin="round"/>
<path d="M 2990 5402 L 2990 5376 L 3004 5352 L 3004 5330 L 3004 5302 L 3016 5302 L 3036 5314 L 3036 5338 L 3054 5372 L 3054 5416 L 3076 5474 L 3076 5540 L 3100 5610 L 3100 5684 L 3124 5760 L 3124 5842 L 3148 5922 L 3148 6004 L 3168 6078 L 3168 6146 L 3186 6204" stroke="#000000" stroke-width="35" fill="none" stroke-linecap="round" stroke-linejoin="round"/>
<path d="M 3424 5742 L 3424 5718 L 3438 5718 L 3438 5694 L 3438 5694 L 3434 5694 L 3428 5694 L 3420 5668 L 3410 5668 L 3400 5668 L 3390 5642 L 3382 5642 L 3368 5620 L 3362 5620 L 3356 5596 L 3352 5596 L 3352 5566 L 3352 5536 L 3374 5516 L 3392 5516 L 3416 5516 L 3438 5516 L 3468 5520 L 3492 5536 L 3518 5556 L 3540 5586 L 3558 5618 L 3572 5654 L 3572 5692 L 3572 5738 L 3572 5782 L 3572 5826 L 3562 5870 L 3544 5910 L 3524 5948 L 3502 5978 L 3474 6004 L 3448 6024 L 3428 6040 L 3412 6048 L 3400 6054 L 3398 6058 L 3428 6058 L 3456 6058 L 3492 6036 L 3534 6036 L 3580 6036 L 3630 6036 L 3682 6016 L 3734 6016 L 3792 6016 L 3838 6016" stroke="#000000" stroke-width="35" fill="none" stroke-linecap="round" stroke-linejoin="round"/>
<path d="M 6404 5042 L 6404 5042 L 6418 5020 L 6414 5020 L 6410 5020 L 6408 5020 L 6404 5020 L 6398 5020 L 6388 5020 L 6380 5020 L 6368 5020 L 6354 5020 L 6338 5028 L 6320 5034 L 6302 5046 L 6276 5056 L 6252 5070 L 6228 5084 L 6202 5098 L 6178 5114 L 6152 5124 L 6132 5140 L 6112 5152 L 6094 5164 L 6074 5176 L 6060 5186 L 6050 5190 L 6038 5198 L 6032 5202 L 6026 5208 L 6026 5210 L 6026 5216 L 6026 5218 L 6026 5224 L 6026 5232 L 6026 5240 L 6026 5252 L 6042 5264 L 6042 5276 L 6042 5290 L 6042 5304 L 6056 5316 L 6056 5330 L 6056 5342 L 6056 5354 L 6070 5366 L 6070 5378 L 6070 5388 L 6070 5392 L 6070 5398 L 6084 5398 L 6106 5398 L 6132 5378 L 6146 5378 L 6166 5378 L 6186 5378 L 6208 5378 L 6234 5358 L 6262 5358 L 6294 5360 L 6322 5362 L 6352 5372 L 6382 5384 L 6408 5402 L 6428 5422 L 6448 5450 L 6448 5478 L 6464 5510 L 6464 5542 L 6464 5576 L 6456 5610 L 6446 5642 L 6422 5670 L 6398 5696 L 6364 5720 L 6330 5738 L 6294 5752 L 6256 5762 L 6218 5770 L 6184 5772 L 6152 5772 L 6122 5772 L 6100 5772 L 6082 5772 L 6074 5772" stroke="#000000" stroke-width="35" fill="none" stroke-linecap="round" stroke-linejoin="round"/>
<path d="M 6772 5428 L 6770 5406 L 6762 5406 L 6760 5382 L 6754 5382 L 6750 5362 L 6744 5362 L 6736 5362 L 6730 5362 L 6720 5362 L 6708 5366 L 6700 5376 L 6686 5394 L 6676 5416 L 6670 5442 L 6664 5468 L 6660 5496 L 6660 5528 L 6660 5562 L 6660 5596 L 6660 5632 L 6680 5662 L 6690 5690 L 6710 5714 L 6732 5732 L 6758 5742 L 6788 5748 L 6814 5748 L 6846 5748 L 6878 5748 L 6906 5748 L 6928 5714 L 6948 5692 L 6948 5666 L 6972 5636 L 6972 5604 L 6972 5574 L 6972 5542 L 6964 5512 L 6948 5488 L 6924 5462 L 6892 5442 L 6856 5442 L 6814 5420 L 6778 5420 L 6740 5420 L 6710 5420" stroke="#000000" stroke-width="35" fill="none" stroke-linecap="round" stroke-linejoin="round"/>
<path d="M 7190 5534 L 7218 5498 L 7232 5498 L 7232 5462 L 7250 5462 L 7250 5432 L 7266 5432 L 7266 5408 L 7266 5416 L 7262 5434 L 7258 5452 L 7258 5472 L 7258 5492 L 7258 5518 L 7258 5542 L 7258 5568 L 7258 5596 L 7278 5620 L 7278 5644 L 7302 5662 L 7320 5676 L 7342 5686 L 7366 5688 L 7392 5688 L 7420 5688 L 7444 5688 L 7470 5660 L 7488 5660 L 7504 5618 L 7504 5592 L 7504 5560 L 7504 5530 L 7504 5494 L 7494 5462 L 7468 5432 L 7434 5406 L 7392 5378 L 7342 5378 L 7292 5348 L 7246 5348" stroke="#000000" stroke-width="35" fill="none" stroke-linecap="round" stroke-linejoin="round"/>
<path d="M 8812 6232 L 8836 6232 L 8836 6236 L 8836 6242 L 8836 6246 L 8818 6256 L 8774 6266 L 8712 6274 L 8632 6286 L 8528 6298 L 8396 6312 L 8248 6326 L 8072 6344 L 7880 6364 L 7664 6388 L 7436 6410 L 7194 6438 L 6942 6462 L 6688 6488 L 6430 6514 L 6176 6542 L 5928 6568 L 5694 6592 L 5492 6616 L 5294 6638 L 5114 6658 L 4958 6676 L 4826 6694 L 4716 6704 L 4630 6716 L 4564 6724 L 4520 6732 L 4496 6738 L 4484 6744" stroke="#000000" stroke-width="35" fill="none" stroke-linecap="round" stroke-linejoin="round"/>
<path d="M 6088 6990 L 6078 6964 L 6070 6938 L 6060 6916 L 6054 6896 L 6046 6896 L 6042 6896 L 6036 6896 L 6032 6896 L 6032 6916 L 6032 6940 L 6032 6972 L 6032 7012 L 6046 7054 L 6046 7096 L 6064 7142 L 6064 7188 L 6082 7234 L 6082 7276 L 6096 7318 L 6096 7322 L 6110 7348" stroke="#000000" stroke-width="35" fill="none" stroke-linecap="round" stroke-linejoin="round"/>
<path d="M 6114 7140 L 6112 7108 L 6112 7070 L 6112 7050 L 6112 7026 L 6112 7008 L 6112 6982 L 6110 6988 L 6104 7002 L 6096 7024 L 6088 7052 L 6078 7078 L 6070 7116 L 6046 7154 L 6024 7196 L 6002 7236 L 5976 7278 L 5952 7320 L 5926 7356 L 5900 7394 L 5872 7422 L 5854 7440 L 5836 7456" stroke="#000000" stroke-width="35" fill="none" stroke-linecap="round" stroke-linejoin="round"/>
<path d="M 6414 7004 L 6414 7004 L 6436 7004 L 6436 6984 L 6428 6984 L 6422 6984 L 6418 6984 L 6414 6984 L 6408 6984 L 6404 6962 L 6404 6942 L 6404 6914 L 6428 6914 L 6438 6888 L 6460 6888 L 6478 6888 L 6506 6888 L 6532 6888 L 6556 6888 L 6578 6892 L 6600 6910 L 6620 6936 L 6630 6968 L 6630 7002 L 6646 7040 L 6646 7082 L 6624 7124 L 6620 7164 L 6606 7204 L 6590 7242 L 6570 7276 L 6548 7304 L 6524 7328 L 6504 7346 L 6486 7356 L 6472 7364 L 6466 7364 L 6490 7364 L 6520 7364 L 6552 7340 L 6590 7340 L 6634 7340 L 6684 7340 L 6734 7320 L 6786 7320 L 6838 7320 L 6892 7320 L 6944 7296" stroke="#000000" stroke-width="35" fill="none" stroke-linecap="round" stroke-linejoin="round"/>
<path d="M 7370 6884 L 7386 6862 L 7386 6842 L 7386 6806 L 7386 6824 L 7398 6850 L 7398 6886 L 7398 6926 L 7420 6976 L 7420 7030 L 7442 7082 L 7442 7136 L 7468 7188 L 7468 7242 L 7488 7290 L 7488 7332 L 7508 7362 L 7508 7386 L 7522 7398 L 7522 7402 L 7522 7382 L 7522 7360 L 7522 7338 L 7518 7312 L 7508 7290 L 7504 7264 L 7498 7242 L 7488 7222 L 7476 7222 L 7462 7198 L 7444 7198 L 7426 7198 L 7402 7198 L 7380 7198 L 7356 7198 L 7326 7206 L 7302 7214 L 7274 7224 L 7250 7232 L 7222 7242 L 7196 7248 L 7174 7252 L 7156 7252 L 7144 7252 L 7134 7252 L 7132 7252 L 7132 7222 L 7132 7202 L 7132 7176 L 7144 7144 L 7144 7108 L 7160 7070 L 7160 7032 L 7182 6992 L 7182 6954 L 7204 6918 L 7218 6894 L 7236 6870 L 7258 6852" stroke="#000000" stroke-width="35" fill="none" stroke-linecap="round" stroke-linejoin="round"/>
<path d="M 7808 6992 L 7826 6966 L 7842 6966 L 7842 6942 L 7860 6942 L 7860 6920 L 7852 6920 L 7844 6926 L 7840 6938 L 7834 6958 L 7834 6978 L 7834 7000 L 7834 7022 L 7834 7040 L 7850 7062 L 7850 7080 L 7880 7096 L 7900 7110 L 7922 7120 L 7950 7122 L 7982 7124 L 8010 7124 L 8036 7124 L 8062 7124 L 8080 7092 L 8080 7074 L 8100 7048 L 8100 7024 L 8096 7002 L 8082 6982 L 8062 6982 L 8032 6956 L 7994 6956 L 7946 6956" stroke="#000000" stroke-width="35" fill="none" stroke-linecap="round" stroke-linejoin="round"/>
<path d="M 5994 6980 L 5994 6980 L 5994 6958 L 5992 6938 L 5992 6918 L 6008 6920 L 6008 6926 L 6008 6938 L 6008 6956 L 6020 6978 L 6020 7012 L 6032 7048 L 6032 7090 L 6050 7140 L 6050 7192 L 6076 7246 L 6076 7304 L 6100 7362 L 6100 7424 L 6122 7480 L 6122 7534 L 6146 7582 L 6146 7624 L 6166 7656 L 6166 7680 L 6166 7696 L 6180 7700 L 6180 7704" stroke="#000000" stroke-width="35" fill="none" stroke-linecap="round" stroke-linejoin="round"/>
<path d="M 6440 7706 L 6456 7706 L 6468 7708 L 6490 7708 L 6490 7710 L 6490 7712 L 6490 7718 L 6490 7720 L 6490 7724 L 6474 7732 L 6456 7740 L 6426 7748 L 6388 7762 L 6342 7776 L 6292 7792 L 6234 7808 L 6176 7826 L 6106 7840 L 6038 7860 L 5970 7874 L 5908 7890 L 5844 7904 L 5786 7918 L 5738 7930 L 5690 7938 L 5652 7946 L 5626 7950 L 5604 7950 L 5588 7952 L 5586 7954" stroke="#000000" stroke-width="35" fill="none" stroke-linecap="round" stroke-linejoin="round"/>
<path d="M 1020 216 L 1020 216 L 1020 192 L 1032 192 L 1032 164 L 1032 138 L 1032 118 L 1032 94 L 1032 72 L 1032 76 L 1030 84 L 1030 96 L 1030 116 L 1030 138 L 1030 168 L 1030 200 L 1030 234 L 1030 272 L 1030 312 L 1030 356 L 1030 406 L 1030 454 L 1030 506 L 1026 554 L 1024 598 L 1020 638 L 1016 672 L 1014 706 L 1014 732 L 1014 756 L 1010 774 L 1010 790 L 1008 804 L 1008 814 L 1008 822 L 1008 830 L 1008 832 L 1008 834 L 1008 836 L 1008 838 L 1024 838 L 1042 838 L 1070 838 L 1088 838 L 1112 838 L 1138 818 L 1168 818 L 1202 818 L 1236 800 L 1274 800 L 1312 800 L 1350 780 L 1382 780 L 1416 780 L 1452 780 L 1478 760 L 1504 760 L 1524 760 L 1540 760 L 1554 760 L 1570 760" stroke="#000000" stroke-width="35" fill="none" stroke-linecap="round" stroke-linejoin="round"/>
<path d="M 1542 470 L 1536 470 L 1528 446 L 1524 446 L 1518 426 L 1514 426 L 1508 426 L 1506 404 L 1498 404 L 1496 406 L 1496 418 L 1496 432 L 1496 452 L 1496 478 L 1496 506 L 1510 538 L 1510 572 L 1510 608 L 1528 646 L 1528 684 L 1528 720 L 1546 754 L 1546 790 L 1546 816 L 1560 838 L 1560 852 L 1560 862" stroke="#000000" stroke-width="35" fill="none" stroke-linecap="round" stroke-linejoin="round"/>
<path d="M 1464 248 L 1460 228 L 1458 228 L 1458 196 L 1458 176 L 1454 176 L 1454 156" stroke="#000000" stroke-width="35" fill="none" stroke-linecap="round" stroke-linejoin="round"/>
<path d="M 1758 448 L 1746 448 L 1734 448 L 1722 448 L 1712 448 L 1698 430 L 1686 430 L 1676 430 L 1662 430 L 1654 430 L 1640 430 L 1634 430 L 1626 430 L 1622 430 L 1620 430 L 1638 430 L 1658 430 L 1676 430 L 1694 430 L 1712 430 L 1734 406 L 1758 406 L 1782 386 L 1808 386 L 1832 356 L 1858 336 L 1878 316 L 1892 292 L 1906 272 L 1906 248 L 1926 224 L 1926 202 L 1926 180 L 1926 160 L 1926 130 L 1918 130 L 1910 130 L 1896 130 L 1878 130 L 1858 144 L 1838 164 L 1820 192 L 1800 224 L 1786 266 L 1774 308 L 1764 354 L 1756 404 L 1746 454 L 1744 506 L 1740 556 L 1740 604 L 1740 650 L 1740 688 L 1756 720 L 1756 748 L 1780 768 L 1792 780 L 1804 786 L 1824 790 L 1842 790 L 1860 790 L 1882 790 L 1906 768 L 1932 768 L 1954 734 L 1982 714 L 2006 692 L 2030 666 L 2050 642 L 2070 618 L 2088 596 L 2106 572 L 2106 550 L 2124 530 L 2140 498 L 2140 474 L 2134 474 L 2126 474 L 2120 478 L 2112 490 L 2106 506 L 2102 520 L 2102 542 L 2096 560 L 2092 584 L 2092 608 L 2092 632 L 2092 654 L 2092 678 L 2092 698 L 2092 716 L 2112 730 L 2112 740 L 2130 748 L 2146 748 L 2158 748 L 2174 748 L 2190 748 L 2204 728 L 2218 728 L 2230 692 L 2230 670 L 2244 644 L 2244 616 L 2244 588 L 2244 560 L 2244 536 L 2244 512 L 2236 492 L 2222 492 L 2204 472 L 2186 472 L 2162 472 L 2136 472 L 2116 476 L 2092 488 L 2078 504" stroke="#000000" stroke-width="35" fill="none" stroke-linecap="round" stroke-linejoin="round"/>
<path d="M 2252 604 L 2252 570 L 2262 570 L 2262 542 L 2262 520 L 2260 520 L 2256 520 L 2254 522 L 2252 532 L 2248 548 L 2244 564 L 2244 580 L 2244 600 L 2244 620 L 2244 638 L 2244 650 L 2262 668 L 2262 684 L 2282 694 L 2282 704 L 2306 708 L 2322 708 L 2338 708 L 2352 708 L 2374 708" stroke="#000000" stroke-width="35" fill="none" stroke-linecap="round" stroke-linejoin="round"/>
<path d="M 2474 60 L 2472 42 L 2468 42 L 2460 10 L 2460 20 L 2460 44 L 2460 74 L 2460 112 L 2460 156 L 2460 204 L 2478 258 L 2478 312 L 2496 370 L 2496 428 L 2508 486 L 2508 542 L 2522 594 L 2522 638 L 2522 676 L 2536 706 L 2536 732 L 2536 752 L 2536 764 L 2536 770 L 2548 770" stroke="#000000" stroke-width="35" fill="none" stroke-linecap="round" stroke-linejoin="round"/>
<path d="M 2616 460 L 2632 436 L 2632 416 L 2648 396 L 2648 368 L 2660 368 L 2660 342 L 2658 342 L 2650 346 L 2642 356 L 2630 368 L 2616 376 L 2598 388 L 2582 398 L 2564 414 L 2548 426 L 2534 440 L 2516 456 L 2502 468 L 2488 482 L 2478 494 L 2472 508 L 2472 518 L 2472 532 L 2472 542 L 2488 554 L 2498 564 L 2522 576 L 2544 588 L 2566 598 L 2598 608 L 2626 618 L 2660 628 L 2696 638 L 2728 646 L 2764 654 L 2796 660 L 2824 664 L 2856 666 L 2880 666 L 2902 670 L 2924 670" stroke="#000000" stroke-width="35" fill="none" stroke-linecap="round" stroke-linejoin="round"/>
<path d="M 2934 474 L 2928 474 L 2920 448 L 2920 448 L 2910 448 L 2906 428 L 2902 428 L 2900 428 L 2898 428 L 2890 428 L 2888 428 L 2884 430 L 2884 432 L 2884 440 L 2884 442 L 2884 450 L 2906 458 L 2906 462 L 2924 468 L 2938 474 L 2952 478 L 2968 478 L 2986 480 L 3006 480 L 3024 480 L 3044 480 L 3062 480 L 3080 480 L 3094 480 L 3094 460 L 3112 460 L 3112 436 L 3112 412 L 3108 388 L 3102 388 L 3086 388 L 3070 388 L 3048 388 L 3024 388 L 2996 390 L 2968 392 L 2942 406 L 2920 422 L 2900 442 L 2882 466 L 2868 492 L 2858 518 L 2856 546 L 2856 576 L 2856 604 L 2856 632 L 2868 654 L 2882 678 L 2902 694 L 2924 708 L 2952 720 L 2978 728 L 3006 736 L 3036 736 L 3062 736 L 3090 736 L 3112 736 L 3140 736 L 3162 712 L 3180 712 L 3204 688 L 3222 688" stroke="#000000" stroke-width="35" fill="none" stroke-linecap="round" stroke-linejoin="round"/>
<path d="M 3278 452 L 3274 452 L 3272 452 L 3264 452 L 3260 452 L 3256 452 L 3256 462 L 3256 476 L 3256 494 L 3256 514 L 3256 538 L 3256 564 L 3256 592 L 3256 622 L 3256 648 L 3256 674 L 3256 702 L 3256 724 L 3256 744 L 3256 758 L 3256 768 L 3256 772 L 3250 772 L 3244 772 L 3242 746 L 3238 746 L 3238 706 L 3238 684 L 3238 656 L 3238 628 L 3250 596 L 3250 566 L 3272 536 L 3286 508 L 3302 480 L 3320 454 L 3336 428 L 3354 408 L 3370 386" stroke="#000000" stroke-width="35" fill="none" stroke-linecap="round" stroke-linejoin="round"/>
<path d="M 3902 434 L 3902 434 L 3902 414 L 3896 416 L 3888 420 L 3882 430 L 3870 446 L 3860 464 L 3842 482 L 3830 504 L 3818 528 L 3806 554 L 3792 580 L 3784 610 L 3778 640 L 3772 666 L 3772 694 L 3772 716 L 3772 736 L 3772 754 L 3788 764 L 3788 768 L 3818 768 L 3840 768 L 3868 768 L 3896 768 L 3924 736 L 3954 736 L 3982 694 L 4008 666 L 4030 634 L 4044 602 L 4044 568 L 4062 534 L 4062 500 L 4062 470 L 4058 444 L 4044 424 L 4022 424 L 3998 398 L 3966 398 L 3928 398 L 3896 398 L 3860 398 L 3834 406 L 3808 420" stroke="#000000" stroke-width="35" fill="none" stroke-linecap="round" stroke-linejoin="round"/>
<path d="M 3980 478 L 3980 478 L 3998 448 L 3998 430 L 3998 432 L 3998 436 L 3998 442 L 3998 454 L 3998 474 L 3998 498 L 3998 526 L 3998 556 L 4014 588 L 4014 622 L 4032 654 L 4032 684 L 4052 714 L 4066 740 L 4080 758 L 4098 770 L 4112 778 L 4130 778 L 4150 778 L 4168 778 L 4186 778 L 4202 752 L 4214 752" stroke="#000000" stroke-width="35" fill="none" stroke-linecap="round" stroke-linejoin="round"/>
<path d="M 4254 488 L 4250 488 L 4246 488 L 4242 468 L 4236 468 L 4232 446 L 4232 454 L 4232 468 L 4250 492 L 4250 514 L 4264 540 L 4264 566 L 4282 594 L 4282 622 L 4298 650 L 4298 676 L 4316 702 L 4316 728 L 4334 750 L 4334 768 L 4344 776 L 4344 780 L 4356 780 L 4356 756 L 4374 756 L 4374 720 L 4392 694 L 4392 672 L 4420 646 L 4434 622 L 4448 598 L 4462 576 L 4474 556 L 4490 556 L 4506 532 L 4522 532 L 4536 532 L 4554 532 L 4568 542 L 4580 558 L 4592 576 L 4592 598 L 4614 626 L 4614 652 L 4630 680 L 4630 704 L 4648 728 L 4648 750 L 4660 770 L 4660 784" stroke="#000000" stroke-width="35" fill="none" stroke-linecap="round" stroke-linejoin="round"/>
<path d="M 4760 536 L 4760 516 L 4756 482 L 4756 482 L 4746 454 L 4742 454 L 4738 454 L 4736 454 L 4732 462 L 4728 476 L 4726 496 L 4726 520 L 4726 546 L 4726 572 L 4726 598 L 4726 628 L 4738 658 L 4738 688 L 4756 716 L 4756 742 L 4776 760 L 4788 774 L 4804 784 L 4818 788 L 4834 788 L 4852 788 L 4872 788 L 4890 768 L 4908 768 L 4926 732 L 4940 710 L 4940 686 L 4956 660 L 4956 632 L 4956 606 L 4968 578 L 4968 558 L 4962 536 L 4956 516 L 4948 516 L 4934 490 L 4918 490 L 4898 490 L 4880 490 L 4866 490 L 4850 490 L 4838 492" stroke="#000000" stroke-width="35" fill="none" stroke-linecap="round" stroke-linejoin="round"/>
<path d="M 4816 548 L 4816 550 L 4834 552 L 4858 552 L 4872 552 L 4888 530 L 4898 530 L 4920 538 L 4920 550 L 4920 560 L 4940 576 L 4940 590 L 4958 610 L 4958 628 L 4984 648 L 4984 668 L 5010 686 L 5022 706 L 5040 722 L 5054 736 L 5070 748 L 5086 754 L 5100 754 L 5116 754 L 5136 754 L 5150 754 L 5170 734 L 5188 734" stroke="#000000" stroke-width="35" fill="none" stroke-linecap="round" stroke-linejoin="round"/>
<path d="M 5336 196 L 5330 196 L 5322 170 L 5318 170 L 5314 146 L 5312 146 L 5308 146 L 5304 146 L 5302 146 L 5300 160 L 5290 186 L 5290 218 L 5286 256 L 5286 298 L 5286 344 L 5286 394 L 5286 448 L 5286 502 L 5286 556 L 5304 612 L 5304 666 L 5304 716 L 5322 760 L 5322 796 L 5350 828 L 5362 850 L 5382 866 L 5402 876 L 5422 878 L 5444 878 L 5470 878 L 5492 878 L 5512 878 L 5532 850" stroke="#000000" stroke-width="35" fill="none" stroke-linecap="round" stroke-linejoin="round"/>
<path d="M 5526 488 L 5522 464 L 5514 464 L 5504 464 L 5498 444 L 5492 444 L 5490 444 L 5484 444 L 5472 446 L 5458 454 L 5440 464 L 5418 478 L 5394 492 L 5368 504 L 5340 522 L 5310 536 L 5282 548 L 5248 560 L 5214 566" stroke="#000000" stroke-width="35" fill="none" stroke-linecap="round" stroke-linejoin="round"/>
<path d="M 5574 520 L 5596 500 L 5614 500 L 5628 500 L 5650 500 L 5646 500 L 5642 500 L 5636 506 L 5632 522 L 5628 536 L 5628 554 L 5628 576 L 5628 600 L 5628 624 L 5628 648 L 5646 678 L 5646 700 L 5656 726 L 5656 744 L 5682 762 L 5694 774 L 5712 778 L 5734 780 L 5752 780 L 5774 780 L 5794 780 L 5812 756 L 5828 756 L 5838 720 L 5838 696 L 5858 670 L 5858 642 L 5858 614 L 5856 588 L 5846 564 L 5830 544 L 5808 544 L 5778 512 L 5748 512 L 5710 512 L 5672 492 L 5636 492 L 5604 496" stroke="#000000" stroke-width="35" fill="none" stroke-linecap="round" stroke-linejoin="round"/>
<path d="M 5964 436 L 5960 436 L 5958 436 L 5954 414 L 5954 390 L 5968 390 L 5982 404 L 5998 428 L 5998 454 L 6018 480 L 6018 508 L 6044 538 L 6044 570 L 6062 600 L 6062 632 L 6078 660 L 6078 688 L 6090 712 L 6090 730 L 6090 740 L 6090 748 L 6090 722 L 6090 682 L 6106 660 L 6106 636 L 6106 610 L 6106 584 L 6122 558 L 6122 536 L 6122 516 L 6138 516 L 6138 490 L 6156 490 L 6180 490 L 6192 496 L 6208 508 L 6222 522 L 6236 540 L 6248 558 L 6262 580 L 6262 600 L 6286 620 L 6286 638 L 6308 650 L 6308 660 L 6322 662 L 6332 640 L 6332 604 L 6332 578 L 6350 554 L 6350 526 L 6362 500 L 6362 476 L 6382 456 L 6402 432 L 6416 432 L 6428 432 L 6444 440 L 6460 452 L 6472 478 L 6484 506 L 6484 536 L 6484 574 L 6504 618 L 6504 660 L 6524 700 L 6524 742 L 6524 780 L 6544 814 L 6544 842 L 6544 860 L 6544 872 L 6544 876" stroke="#000000" stroke-width="35" fill="none" stroke-linecap="round" stroke-linejoin="round"/>
<path d="M 6730 466 L 6730 466 L 6730 446 L 6742 446 L 6742 454 L 6742 472 L 6742 490 L 6742 514 L 6756 538 L 6756 566 L 6756 594 L 6756 622 L 6756 648 L 6772 676 L 6772 700 L 6772 720 L 6772 738 L 6772 748" stroke="#000000" stroke-width="35" fill="none" stroke-linecap="round" stroke-linejoin="round"/>
<path d="M 6764 378 L 6764 352 L 6764 328 L 6764 306 L 6764 274 L 6764 254 L 6764 232" stroke="#000000" stroke-width="35" fill="none" stroke-linecap="round" stroke-linejoin="round"/>
<path d="M 7180 576 L 7180 576 L 7180 552 L 7178 522 L 7176 522 L 7166 498 L 7156 498 L 7146 478 L 7134 478 L 7118 478 L 7108 458 L 7090 458 L 7076 458 L 7054 462 L 7036 466 L 7012 480 L 6992 496 L 6974 520 L 6956 546 L 6938 574 L 6924 606 L 6910 638 L 6902 672 L 6896 704 L 6888 740 L 6888 772 L 6888 800 L 6888 828 L 6888 848 L 6902 862 L 6902 870 L 6928 874 L 6952 876 L 6974 876 L 6998 876 L 7022 876 L 7050 848 L 7080 848 L 7118 820 L 7156 820 L 7196 786 L 7220 786 L 7256 752 L 7290 752 L 7318 726" stroke="#000000" stroke-width="35" fill="none" stroke-linecap="round" stroke-linejoin="round"/>
<path d="M 100 626 L 96 626 L 92 606 L 88 606 L 82 586 L 76 586 L 72 586 L 66 564 L 62 564 L 60 564 L 58 564 L 54 564 L 50 564 L 50 568 L 50 574 L 50 586 L 50 602 L 70 614 L 70 630 L 88 646 L 88 660 L 112 676 L 124 688 L 142 700 L 156 706 L 172 710 L 186 712 L 202 712 L 224 712 L 224 686 L 224 654 L 224 622 L 214 592 L 202 592 L 190 592 L 174 572 L 160 572 L 146 574 L 132 580 L 118 590 L 106 604 L 96 620 L 94 640 L 92 660 L 92 680 L 92 700 L 92 718 L 92 736 L 110 746 L 110 754 L 132 756 L 142 756 L 164 756 L 182 728 L 182 698 L 182 666 L 182 638 L 174 638 L 162 618 L 150 618 L 134 618 L 118 618 L 106 618 L 96 620 L 84 626 L 78 634 L 72 644 L 72 656 L 72 668 L 72 670 L 72 680 L 84 688 L 84 694 L 104 700 L 114 702 L 142 702 L 160 702 L 160 678 L 160 654 L 156 630 L 146 630 L 138 630 L 128 610 L 114 610 L 104 610 L 92 610 L 82 610 L 72 610 L 66 612 L 66 622 L 66 630 L 66 642 L 66 658 L 78 668 L 78 682 L 96 692 L 96 700 L 118 708 L 132 712 L 132 714 L 152 714 L 168 714 L 168 686 L 168 660 L 162 660 L 156 634 L 150 634 L 138 612 L 124 612 L 112 612 L 100 612 L 84 612 L 72 612 L 60 612 L 54 614 L 44 622 L 40 630 L 38 640 L 38 650 L 38 660 L 38 668 L 54 678 L 54 684 L 76 688 L 76 688 L 100 688 L 114 688 L 128 688 L 150 668 L 150 640 L 150 614 L 146 614 L 134 592 L 122 592 L 110 574 L 94 574 L 76 574 L 60 574 L 44 574 L 30 574 L 26 574 L 16 584 L 16 592 L 16 604 L 16 620 L 16 632 L 16 650 L 38 662 L 54 676 L 70 688 L 88 694 L 106 700 L 128 702 L 146 702 L 162 702 L 186 702 L 186 672 L 186 648 L 186 616 L 182 616 L 172 588 L 160 588 L 142 588 L 128 564 L 110 564 L 92 564 L 70 564 L 54 570 L 38 574 L 26 584 L 20 596 L 16 610 L 16 622 L 16 638 L 16 650 L 16 660 L 36 670 L 36 678 L 60 678 L 76 682 L 94 682 L 110 682 L 128 682 L 142 682 L 160 682 L 160 656 L 178 656 L 178 634 L 178 610 L 174 610 L 168 592 L 156 592 L 142 592 L 132 592 L 114 592 L 96 592 L 78 592 L 60 596 L 44 606 L 30 618 L 22 630 L 16 646 L 10 660 L 10 678 L 10 698 L 10 714 L 10 726 L 26 738 L 26 748" stroke="#000000" stroke-width="35" fill="none" stroke-linecap="round" stroke-linejoin="round"/>
<path d="M 2023 2413 L 2021 2413 L 2017 2391 L 2013 2391 L 2011 2391 L 2011 2371 L 2011 2373 L 2011 2379 L 2011 2387 L 2011 2399 L 2011 2411 L 2011 2429 L 2011 2455 L 2023 2481 L 2023 2509 L 2023 2541 L 2023 2577 L 2039 2615 L 2039 2653 L 2039 2695 L 2055 2735 L 2055 2773 L 2071 2809 L 2071 2845 L 2071 2877 L 2085 2901 L 2085 2923 L 2085 2939 L 2097 2953 L 2097 2965 L 2097 2975 L 2097 2979 L 2097 2983 L 2097 2987 L 2097 2989 L 2097 2991" stroke="#000000" stroke-width="35" fill="none" stroke-linecap="round" stroke-linejoin="round"/>
<path d="M 2253 2371 L 2253 2371 L 2253 2345 L 2265 2345 L 2265 2353 L 2265 2373 L 2265 2397 L 2265 2427 L 2281 2461 L 2281 2499 L 2281 2543 L 2295 2589 L 2295 2637 L 2295 2687 L 2305 2739 L 2305 2793 L 2305 2843 L 2325 2891 L 2325 2933 L 2325 2971 L 2335 3005 L 2335 3033 L 2335 3055 L 2335 3075 L 2335 3091 L 2349 3103 L 2349 3113 L 2349 3121" stroke="#000000" stroke-width="35" fill="none" stroke-linecap="round" stroke-linejoin="round"/>
<path d="M 2351 2307 L 2351 2307 L 2351 2283 L 2351 2261 L 2347 2261 L 2337 2261 L 2323 2261 L 2301 2267 L 2273 2277 L 2241 2289 L 2195 2305 L 2145 2321 L 2091 2341 L 2029 2359 L 1957 2381 L 1887 2401 L 1811 2425 L 1737 2445 L 1663 2467 L 1595 2487 L 1533 2503 L 1477 2515 L 1429 2527 L 1395 2535 L 1373 2541 L 1363 2543 L 1363 2549" stroke="#000000" stroke-width="35" fill="none" stroke-linecap="round" stroke-linejoin="round"/>
<path d="M 2537 2585 L 2535 2585 L 2529 2585 L 2523 2561 L 2515 2561 L 2513 2561 L 2505 2543 L 2503 2543 L 2501 2543 L 2497 2543 L 2497 2521 L 2487 2521 L 2503 2521 L 2523 2521 L 2551 2537 L 2571 2559 L 2587 2583 L 2607 2615 L 2627 2649 L 2647 2685 L 2665 2723 L 2679 2767 L 2695 2809 L 2707 2855 L 2707 2899 L 2733 2943 L 2733 2981 L 2745 3017 L 2745 3049 L 2745 3071 L 2745 3091 L 2745 3107 L 2745 3119 L 2745 3127 L 2745 3135 L 2745 3137 L 2745 3143 L 2743 3145" stroke="#000000" stroke-width="35" fill="none" stroke-linecap="round" stroke-linejoin="round"/>
<path d="M 2703 2863 L 2699 2863 L 2699 2841 L 2697 2841 L 2693 2841 L 2689 2841 L 2685 2845 L 2679 2855 L 2679 2867 L 2669 2877 L 2659 2893 L 2651 2911 L 2637 2931 L 2621 2937 L 2617 2959 L 2603 2983 L 2587 3005 L 2575 3031 L 2575 3051 L 2565 3071 L 2551 3087 L 2541 3101 L 2533 3109 L 2529 3123 L 2529 3131 L 2527 3139 L 2527 3143" stroke="#000000" stroke-width="35" fill="none" stroke-linecap="round" stroke-linejoin="round"/>
<path d="M 2915 2817 L 2915 2817 L 2915 2787 L 2929 2787 L 2929 2767 L 2943 2777 L 2943 2793 L 2943 2813 L 2957 2831 L 2957 2853 L 2957 2879 L 2971 2903 L 2971 2927 L 2971 2941 L 2989 2965 L 2989 2991 L 2989 3013 L 3005 3033 L 3005 3049 L 3005 3057 L 3005 3061 L 3017 3061 L 3017 3039 L 3017 3011 L 3033 3011 L 3033 2975 L 3033 2943 L 3045 2943 L 3045 2915 L 3061 2895 L 3077 2895 L 3077 2899 L 3095 2903 L 3095 2913 L 3113 2927 L 3113 2943 L 3131 2961 L 3131 2983 L 3153 3003 L 3153 3023 L 3171 3039 L 3171 3055 L 3187 3071 L 3187 3085" stroke="#000000" stroke-width="35" fill="none" stroke-linecap="round" stroke-linejoin="round"/>
<path d="M 3245 2793 L 3245 2793 L 3245 2769 L 3263 2769 L 3275 2769 L 3275 2779 L 3297 2797 L 3297 2821 L 3319 2851 L 3333 2883 L 3333 2919 L 3355 2955 L 3355 2991 L 3377 3029 L 3377 3065 L 3391 3103 L 3391 3135 L 3391 3163 L 3391 3187 L 3391 3203 L 3391 3215 L 3387 3217 L 3383 3217 L 3369 3217 L 3355 3217 L 3345 3217 L 3333 3189 L 3319 3189 L 3307 3145 L 3293 3119 L 3285 3085 L 3279 3053 L 3275 3017 L 3273 2981 L 3273 2943 L 3273 2909 L 3273 2875 L 3273 2837 L 3287 2805 L 3303 2773 L 3319 2747 L 3337 2725 L 3363 2725 L 3387 2701 L 3415 2701 L 3445 2701 L 3475 2701 L 3507 2709 L 3539 2721 L 3571 2741 L 3603 2763 L 3629 2789 L 3651 2819 L 3667 2853 L 3667 2883 L 3679 2917 L 3679 2949 L 3677 2977 L 3667 3003 L 3647 3025 L 3627 3039 L 3597 3051 L 3567 3059 L 3537 3065 L 3503 3067 L 3471 3067" stroke="#000000" stroke-width="35" fill="none" stroke-linecap="round" stroke-linejoin="round"/>
<path d="M 3793 2827 L 3807 2827 L 3807 2807 L 3827 2807 L 3827 2779 L 3839 2779 L 3839 2759 L 3835 2759 L 3833 2761 L 3829 2767 L 3827 2777 L 3827 2789 L 3827 2807 L 3827 2827 L 3827 2845 L 3827 2863 L 3827 2883 L 3827 2903 L 3827 2925 L 3843 2945 L 3843 2965 L 3843 2985 L 3861 2999 L 3861 3009 L 3875 3017 L 3875 3021 L 3893 3021 L 3909 3021 L 3919 2991 L 3919 2965 L 3935 2965 L 3935 2937 L 3935 2909 L 3949 2909 L 3949 2889 L 3967 2889 L 3981 2899 L 3981 2909 L 3999 2921 L 3999 2933 L 4025 2947 L 4039 2957 L 4053 2969 L 4065 2977 L 4081 2985 L 4093 2991 L 4109 2991 L 4121 2991 L 4137 2991 L 4159 2969 L 4159 2937 L 4173 2899 L 4173 2879 L 4171 2859 L 4171 2841 L 4169 2841" stroke="#000000" stroke-width="35" fill="none" stroke-linecap="round" stroke-linejoin="round"/>
<path d="M 4413 2843 L 4425 2821 L 4423 2821 L 4419 2821 L 4415 2821 L 4413 2831 L 4413 2847 L 4409 2869 L 4407 2897 L 4407 2931 L 4407 2967 L 4403 3007 L 4403 3049 L 4403 3089 L 4403 3131 L 4403 3173 L 4403 3215 L 4403 3253 L 4403 3285 L 4403 3311 L 4403 3329 L 4403 3339 L 4419 3345" stroke="#000000" stroke-width="35" fill="none" stroke-linecap="round" stroke-linejoin="round"/>
<path d="M 4447 2931 L 4447 2897 L 4447 2869 L 4447 2841 L 4447 2819 L 4447 2801 L 4447 2771 L 4447 2751 L 4447 2753 L 4447 2757 L 4447 2767 L 4461 2779 L 4461 2793 L 4461 2809 L 4461 2829 L 4461 2849 L 4461 2873 L 4461 2897 L 4461 2921 L 4475 2945 L 4475 2965 L 4475 2987 L 4491 3007 L 4491 3021 L 4509 3035 L 4509 3043 L 4531 3051 L 4531 3055 L 4557 3055 L 4567 3055 L 4591 3055 L 4605 3055 L 4617 3037 L 4631 3037 L 4643 3019 L 4665 2999 L 4683 2979 L 4697 2979 L 4697 2955 L 4711 2955 L 4723 2955 L 4723 2963 L 4747 2971 L 4747 2979 L 4769 2989 L 4783 2995 L 4797 3003 L 4815 3011 L 4833 3011" stroke="#000000" stroke-width="35" fill="none" stroke-linecap="round" stroke-linejoin="round"/>
<path d="M 4999 2737 L 4999 2737 L 5015 2737 L 5015 2717 L 5011 2721 L 5005 2729 L 4995 2737 L 4995 2747 L 4987 2757 L 4975 2769 L 4961 2781 L 4947 2789 L 4935 2789 L 4925 2801 L 4913 2815 L 4899 2827 L 4889 2839 L 4889 2849 L 4885 2857 L 4881 2865 L 4881 2871 L 4893 2877 L 4893 2885 L 4893 2889 L 4909 2897 L 4909 2905 L 4927 2911 L 4927 2917 L 4949 2927 L 4949 2937 L 4969 2947 L 4969 2961 L 4981 2971 L 4981 2985 L 4981 2995 L 4995 3007 L 4995 3017 L 4993 3027 L 4993 3033 L 4993 3039 L 4993 3045 L 4993 3047 L 4993 3053 L 4989 3055 L 4989 3059 L 4989 3061 L 5009 3061 L 5021 3061 L 5021 3039 L 5041 3039 L 5055 3039 L 5071 3039 L 5083 3015" stroke="#000000" stroke-width="35" fill="none" stroke-linecap="round" stroke-linejoin="round"/>
<path d="M 4889 2479 L 4883 2455 L 4875 2435 L 4873 2417 L 4867 2417 L 4867 2387 L 4857 2387 L 4855 2387 L 4855 2395 L 4855 2409 L 4855 2431 L 4855 2455 L 4855 2481 L 4867 2509 L 4867 2539 L 4867 2569 L 4889 2601" stroke="#000000" stroke-width="35" fill="none" stroke-linecap="round" stroke-linejoin="round"/>
<path d="M 5289 2787 L 5301 2763 L 5319 2741 L 5331 2719 L 5331 2697 L 5343 2697 L 5341 2697 L 5333 2697 L 5329 2705 L 5325 2715 L 5315 2729 L 5303 2745 L 5293 2757 L 5285 2773 L 5273 2791 L 5263 2809 L 5251 2825 L 5243 2841 L 5233 2855 L 5227 2869 L 5223 2881 L 5223 2889 L 5223 2897 L 5223 2907 L 5235 2911 L 5235 2915 L 5261 2925 L 5275 2933 L 5293 2943 L 5313 2955 L 5333 2963 L 5357 2979 L 5375 2995 L 5391 3011 L 5391 3027 L 5391 3043 L 5391 3059 L 5391 3075 L 5383 3087 L 5369 3099 L 5347 3107 L 5323 3113 L 5293 3119" stroke="#000000" stroke-width="35" fill="none" stroke-linecap="round" stroke-linejoin="round"/>
<path d="M 6373 2603 L 6391 2603 L 6407 2603 L 6423 2581 L 6445 2581 L 6435 2581 L 6415 2581 L 6395 2583 L 6367 2589 L 6341 2595 L 6307 2603 L 6271 2609 L 6233 2619 L 6197 2627 L 6157 2633 L 6121 2639 L 6087 2645 L 6059 2655 L 6039 2657 L 6029 2661 L 6015 2663" stroke="#000000" stroke-width="35" fill="none" stroke-linecap="round" stroke-linejoin="round"/>
<path d="M 6115 2667 L 6143 2667 L 6175 2667 L 6205 2667 L 6233 2667 L 6259 2667 L 6281 2667 L 6299 2667 L 6317 2667 L 6329 2667 L 6353 2669 L 6353 2681 L 6367 2699 L 6367 2717 L 6361 2737 L 6361 2757 L 6361 2781 L 6361 2807 L 6357 2835 L 6357 2861 L 6353 2885 L 6353 2911 L 6353 2935 L 6353 2957 L 6353 2975 L 6353 2991 L 6373 3005 L 6373 3015 L 6391 3025" stroke="#000000" stroke-width="35" fill="none" stroke-linecap="round" stroke-linejoin="round"/>
<path d="M 6665 2627 L 6677 2603 L 6689 2569 L 6689 2545 L 6707 2545 L 6707 2527 L 6703 2527 L 6699 2533 L 6689 2541 L 6679 2553 L 6669 2565 L 6657 2579 L 6641 2593 L 6625 2611 L 6609 2627 L 6593 2643 L 6577 2661 L 6563 2673 L 6545 2689 L 6535 2705 L 6525 2717 L 6519 2725 L 6519 2733 L 6519 2737 L 6519 2741 L 6519 2745 L 6535 2747 L 6555 2747 L 6573 2749 L 6585 2751 L 6601 2751 L 6613 2753 L 6627 2755 L 6627 2759 L 6647 2765 L 6647 2773 L 6647 2785 L 6647 2795 L 6647 2807 L 6647 2823 L 6647 2841 L 6641 2855 L 6635 2871 L 6627 2889 L 6623 2903 L 6613 2917 L 6605 2933 L 6603 2947 L 6601 2957 L 6601 2969 L 6601 2975 L 6601 2981 L 6601 2983 L 6615 2983 L 6641 2983 L 6657 2983 L 6671 2963 L 6689 2963 L 6707 2945 L 6727 2945 L 6747 2921 L 6767 2921 L 6785 2891" stroke="#000000" stroke-width="35" fill="none" stroke-linecap="round" stroke-linejoin="round"/>
<path d="M 6599 2403 L 6589 2375 L 6579 2351 L 6571 2329 L 6565 2307 L 6557 2287 L 6555 2287 L 6545 2255 L 6543 2255 L 6543 2267 L 6543 2287 L 6565 2309 L 6565 2331 L 6589 2355" stroke="#000000" stroke-width="35" fill="none" stroke-linecap="round" stroke-linejoin="round"/>
<path d="M 6863 2601 L 6877 2601 L 6877 2581 L 6891 2581 L 6891 2583 L 6891 2587 L 6891 2593 L 6907 2603 L 6907 2617 L 6907 2635 L 6925 2659 L 6925 2683 L 6937 2703 L 6937 2729 L 6953 2757 L 6953 2785 L 6965 2809 L 6965 2833 L 6965 2855 L 6983 2873 L 6983 2885 L 6983 2893 L 6997 2893 L 7011 2869 L 7011 2835 L 7031 2815 L 7031 2789 L 7043 2761 L 7043 2733 L 7061 2705 L 7061 2673 L 7077 2647 L 7077 2621 L 7097 2597 L 7097 2573" stroke="#000000" stroke-width="35" fill="none" stroke-linecap="round" stroke-linejoin="round"/>
<path d="M 7529 2511 L 7529 2511 L 7543 2511 L 7553 2511 L 7553 2493 L 7553 2495 L 7551 2495 L 7543 2495 L 7543 2495 L 7539 2495 L 7535 2495 L 7525 2497 L 7511 2503 L 7495 2511 L 7477 2519 L 7455 2531 L 7427 2541 L 7395 2551 L 7363 2559 L 7333 2569 L 7303 2581 L 7275 2593 L 7251 2601 L 7221 2613 L 7193 2621 L 7175 2629 L 7161 2631 L 7153 2633 L 7151 2635 L 7175 2635" stroke="#000000" stroke-width="35" fill="none" stroke-linecap="round" stroke-linejoin="round"/>
<path d="M 7231 2635 L 7253 2635 L 7277 2635 L 7295 2635 L 7319 2635 L 7341 2635 L 7363 2635 L 7383 2635 L 7395 2635 L 7411 2635 L 7411 2639 L 7427 2647 L 7427 2655 L 7427 2665 L 7427 2677 L 7427 2693 L 7427 2709 L 7427 2729 L 7427 2751 L 7427 2773 L 7427 2797 L 7439 2821 L 7439 2845 L 7439 2869 L 7439 2889 L 7439 2907 L 7439 2925 L 7455 2935 L 7455 2945" stroke="#000000" stroke-width="35" fill="none" stroke-linecap="round" stroke-linejoin="round"/>
<path d="M 7607 2751 L 7607 2727 L 7607 2709 L 7625 2709 L 7625 2675 L 7625 2651 L 7639 2651 L 7639 2659 L 7639 2675 L 7639 2693 L 7649 2715 L 7649 2737 L 7649 2761 L 7649 2785 L 7649 2807 L 7669 2833 L 7669 2859 L 7669 2883 L 7687 2907 L 7687 2923 L 7703 2935 L 7703 2941 L 7727 2943 L 7745 2943 L 7755 2943 L 7771 2943 L 7787 2943 L 7803 2913 L 7815 2913 L 7815 2875 L 7833 2849 L 7833 2823 L 7833 2793 L 7833 2765 L 7833 2737 L 7833 2709 L 7833 2687 L 7827 2665 L 7813 2665 L 7797 2637 L 7777 2637 L 7763 2637 L 7745 2637 L 7727 2637 L 7717 2637 L 7707 2637 L 7699 2645 L 7699 2659 L 7699 2671 L 7699 2687 L 7717 2701 L 7717 2715 L 7717 2725 L 7741 2733 L 7755 2739 L 7771 2741 L 7789 2745 L 7809 2745 L 7823 2745 L 7837 2745 L 7857 2745 L 7857 2725 L 7879 2725 L 7879 2701 L 7889 2701 L 7889 2705 L 7889 2713 L 7889 2725 L 7889 2739 L 7905 2755 L 7905 2773 L 7905 2789 L 7905 2811 L 7919 2829 L 7919 2849 L 7937 2865 L 7937 2881 L 7965 2893 L 7983 2899 L 8007 2903 L 8031 2903 L 8067 2903 L 8099 2905 L 8137 2905" stroke="#000000" stroke-width="35" fill="none" stroke-linecap="round" stroke-linejoin="round"/>
<path d="M 1081 4511 L 1081 4511 L 1095 4513 L 1095 4515 L 1095 4517 L 1095 4521 L 1095 4525 L 1107 4525 L 1107 4527 L 1107 4529 L 1107 4533 L 1107 4535 L 1121 4535 L 1121 4511 L 1121 4491 L 1121 4461 L 1121 4441 L 1121 4423 L 1121 4403 L 1121 4373 L 1121 4345 L 1121 4317 L 1121 4287 L 1121 4257 L 1121 4231 L 1121 4209 L 1121 4187 L 1135 4187 L 1135 4191 L 1135 4205 L 1135 4229 L 1153 4259 L 1153 4295 L 1153 4331 L 1153 4369 L 1163 4409 L 1163 4447 L 1163 4487 L 1163 4521 L 1163 4547 L 1163 4569 L 1179 4585" stroke="#000000" stroke-width="35" fill="none" stroke-linecap="round" stroke-linejoin="round"/>
<path d="M 1129 3901 L 1125 3901 L 1125 3879 L 1143 3881 L 1143 3897 L 1175 3923 L 1193 3955 L 1219 3999 L 1247 4049 L 1275 4101 L 1303 4161 L 1327 4223 L 1353 4293 L 1367 4363 L 1367 4437 L 1383 4509 L 1383 4583 L 1381 4651 L 1367 4717 L 1349 4773 L 1325 4823 L 1297 4861 L 1259 4899 L 1219 4927 L 1175 4951 L 1129 4969 L 1089 4985 L 1049 4995 L 1015 5001 L 991 5003 L 971 5003" stroke="#000000" stroke-width="35" fill="none" stroke-linecap="round" stroke-linejoin="round"/>
<path d="M 1013 6007 L 1001 5989 L 989 5989 L 975 5989 L 963 5967 L 953 5967 L 943 5967 L 939 5939 L 935 5939 L 931 5917 L 931 5895 L 931 5871 L 943 5871 L 943 5847 L 967 5847 L 967 5827 L 991 5827 L 1003 5827 L 1019 5827 L 1035 5827 L 1051 5827 L 1065 5829 L 1083 5837 L 1095 5849 L 1095 5867 L 1115 5883 L 1115 5907 L 1115 5925 L 1115 5949 L 1115 5973 L 1115 5995 L 1109 6013 L 1103 6033 L 1095 6049 L 1087 6061 L 1083 6073 L 1073 6081 L 1063 6087 L 1055 6093 L 1053 6095 L 1051 6095 L 1051 6097 L 1051 6099 L 1065 6099 L 1065 6101 L 1093 6101 L 1109 6103 L 1123 6103 L 1141 6103 L 1161 6103 L 1181 6103 L 1199 6103 L 1219 6103 L 1237 6103" stroke="#000000" stroke-width="35" fill="none" stroke-linecap="round" stroke-linejoin="round"/>
<path d="M 1173 5683 L 1173 5657 L 1193 5657 L 1205 5657 L 1221 5667 L 1239 5685 L 1263 5711 L 1285 5745 L 1311 5787 L 1335 5839 L 1363 5893 L 1391 5955 L 1415 6019 L 1445 6085 L 1465 6155 L 1483 6225 L 1495 6293 L 1495 6361 L 1495 6423 L 1495 6483 L 1495 6535 L 1491 6579 L 1475 6617 L 1459 6649 L 1435 6673 L 1409 6691 L 1385 6703 L 1357 6711 L 1329 6711 L 1303 6711" stroke="#000000" stroke-width="35" fill="none" stroke-linecap="round" stroke-linejoin="round"/>
<path d="M 342 2996 L 342 2974 L 342 2954 L 354 2954 L 354 2932 L 354 2934 L 354 2936 L 354 2938 L 354 2940 L 354 2944 L 354 2946 L 354 2950 L 354 2954 L 354 2960 L 366 2964 L 366 2968 L 366 2972 L 366 2976 L 366 2980 L 382 2982 L 382 2986 L 382 2988 L 396 2988 L 414 2988 L 414 2968 L 414 2948 L 410 2948 L 404 2948 L 396 2948 L 390 2926 L 382 2926 L 372 2926 L 364 2926 L 360 2926 L 350 2926 L 342 2932 L 334 2936 L 328 2944 L 322 2954 L 318 2964 L 316 2976 L 316 2988 L 316 3000 L 316 3010 L 316 3020 L 316 3032 L 332 3042 L 332 3048 L 332 3056 L 332 3058 L 350 3060 L 364 3060 L 364 3040 L 364 3020 L 364 2994 L 364 2970 L 360 2970 L 356 2944 L 354 2944 L 346 2920 L 344 2920 L 342 2920 L 338 2922 L 334 2926 L 332 2934 L 328 2944 L 326 2954 L 322 2964 L 322 2974 L 322 2986 L 322 2998 L 322 3010 L 322 3018 L 322 3028 L 322 3032 L 338 3036 L 356 3036 L 376 3036 L 394 3010 L 404 2988 L 404 2966 L 418 2966 L 418 2944 L 418 2922 L 414 2922 L 404 2922 L 394 2922 L 384 2924 L 378 2926 L 368 2932 L 364 2936 L 356 2944 L 350 2950 L 344 2958 L 342 2966 L 342 2974 L 342 2982 L 342 2990 L 342 2996 L 354 3002 L 354 3008 L 376 3010 L 376 3012 L 400 3014 L 422 3014 L 440 3014 L 452 3014 L 452 2992 L 446 2992 L 440 2966 L 432 2966 L 424 2966 L 414 2944 L 404 2944 L 390 2944 L 378 2944 L 368 2944 L 356 2944 L 346 2944 L 338 2944 L 332 2950 L 332 2960 L 328 2972 L 328 2982 L 328 2998 L 328 3010 L 328 3026 L 342 3038 L 342 3050 L 360 3060 L 360 3068 L 378 3078 L 378 3080 L 400 3082 L 422 3082 L 436 3082 L 436 3058 L 436 3032 L 436 3002 L 436 2974 L 432 2950 L 428 2950 L 422 2930 L 414 2930 L 404 2930 L 394 2930 L 384 2936 L 376 2944 L 366 2954 L 360 2962 L 354 2974 L 344 2986 L 342 3000 L 334 3010 L 334 3022 L 334 3034 L 334 3044 L 334 3050 L 334 3056 L 350 3062 L 368 3062 L 394 3062 L 414 3062 L 414 3040 L 436 3040 L 436 3022 L 452 3022 L 452 3002 L 452 2982 L 452 2954 L 450 2954 L 442 2954 L 432 2954 L 424 2954 L 414 2954 L 404 2954 L 396 2960 L 384 2966 L 378 2972 L 372 2982 L 366 2992 L 364 3000 L 360 3010 L 360 3022 L 360 3032 L 360 3040 L 360 3048 L 376 3050 L 376 3056 L 390 3058 L 404 3058 L 422 3058 L 432 3034 L 432 3012 L 432 2990 L 432 2966 L 432 2942 L 428 2942 L 422 2942 L 414 2942 L 414 2942 L 404 2944 L 400 2948 L 394 2954 L 390 2962 L 386 2970 L 386 2980 L 384 2986 L 382 2996 L 382 3006 L 378 3012 L 378 3020 L 378 3026 L 378 3030 L 378 3036 L 378 3038 L 394 3042 L 394 3044 L 410 3046 L 424 3046 L 440 3046 L 440 3022 L 452 3022 L 452 3002 L 446 3002 L 440 3002 L 432 2982 L 424 2984 L 414 2986 L 404 2990 L 394 2994 L 384 3000 L 372 3008 L 360 3014 L 350 3022 L 342 3030 L 334 3038 L 328 3046 L 326 3056 L 326 3066 L 326 3070 L 326 3078 L 326 3084 L 342 3088 L 342 3090 L 364 3090 L 378 3090 L 390 3090 L 404 3090 L 422 3090 L 436 3064 L 452 3064 L 464 3044 L 484 3020 L 500 2994 L 500 2972 L 500 2948 L 496 2948 L 486 2948 L 478 2948 L 464 2948 L 452 2950 L 440 2954 L 424 2960 L 414 2966 L 400 2972 L 390 2982 L 378 2988 L 372 2994 L 368 3000 L 364 3008 L 360 3012 L 360 3018 L 360 3020 L 360 3024 L 376 3026 L 376 3028 L 396 3028 L 422 3028 L 442 3028 L 464 3028 L 484 3008 L 484 2986 L 480 2986 L 474 2986 L 464 2986 L 454 2986 L 446 2986 L 440 2986 L 432 2988 L 424 2994 L 418 3000 L 414 3010 L 414 3018 L 414 3026 L 414 3034 L 414 3044 L 414 3050 L 424 3058 L 424 3068 L 442 3074 L 442 3078 L 462 3084 L 462 3088 L 484 3088 L 484 3090 L 502 3090 L 514 3090 L 514 3068 L 512 3038 L 508 3038 L 502 3018 L 500 3018 L 492 3018 L 484 2994 L 478 2994 L 470 2994 L 462 2994 L 452 2994 L 442 2994 L 436 2994 L 424 3000 L 414 3008 L 404 3018 L 396 3020 L 390 3030 L 382 3038 L 376 3046 L 368 3054 L 366 3058 L 364 3062 L 360 3066 L 376 3066 L 376 3042 L 386 3042 L 386 3020 L 404 3020 L 404 3000 L 404 2982" stroke="#000000" stroke-width="35" fill="none" stroke-linecap="round" stroke-linejoin="round"/></svg>