<svg xmlns="http://www.w3.org/2000/svg" width="37642" height="24128" viewBox="0 0 37642 24128"><path d="M 1077 21677 L 3617 21677 L 3617 22604 L 1077 22604 L 1077 21677" stroke="#000000" stroke-width="50" fill="none" stroke-linecap="round" stroke-linejoin="round"/>
<path d="M 1040 12819 L 3580 12819 L 3580 13746 L 1040 13746 L 1040 12819" stroke="#000000" stroke-width="50" fill="none" stroke-linecap="round" stroke-linejoin="round"/>
<path d="M 3670 14239 L 6210 14239 L 6210 15167 L 3670 15167 L 3670 14239" stroke="#000000" stroke-width="50" fill="none" stroke-linecap="round" stroke-linejoin="round"/>
<path d="M 3612 13256 L 3619 13256 L 3632 13256 L 3648 13256 L 3668 13256 L 3690 13256 L 3713 13256 L 3738 13256 L 3764 13256 L 3791 13256 L 3820 13256 L 3850 13256 L 3878 13256 L 3906 13256 L 3933 13256 L 3964 13256 L 3997 13256 L 4032 13256 L 4065 13256 L 4093 13256 L 4120 13256 L 4144 13256 L 4168 13256 L 4192 13256 L 4217 13256 L 4240 13256 L 4268 13256 L 4297 13256 L 4323 13256 L 4351 13256 L 4378 13256 L 4399 13259 L 4412 13269 L 4422 13287 L 4429 13309 L 4431 13332 L 4431 13359 L 4429 13387 L 4426 13413 L 4424 13441 L 4422 13468 L 4422 13494 L 4424 13521 L 4421 13547 L 4416 13574 L 4412 13600 L 4407 13626 L 4402 13653 L 4399 13679 L 4394 13706 L 4389 13732 L 4386 13759 L 4381 13785 L 4376 13812 L 4373 13838 L 4374 13871 L 4369 13904 L 4359 13931 L 4345 13951 L 4323 13964 L 4300 13970 L 4275 13974 L 4250 13974 L 4227 13972 L 4199 13969 L 4171 13967 L 4144 13964 L 4116 13962 L 4090 13960 L 4062 13960 L 4032 13962 L 3999 13962 L 3964 13960 L 3934 13960 L 3906 13962 L 3877 13962 L 3848 13960 L 3820 13960 L 3794 13962 L 3766 13962 L 3739 13960 L 3715 13960 L 3688 13962 L 3660 13962 L 3633 13960 L 3609 13960 L 3586 13962 L 3561 13962 L 3533 13960 L 3506 13960 L 3480 13962 L 3453 13962 L 3427 13960 L 3400 13960 L 3374 13962 L 3347 13962 L 3318 13960 L 3291 13960 L 3266 13962 L 3240 13962 L 3212 13960 L 3185 13960 L 3154 13962 L 3124 13962 L 3093 13960 L 3063 13960 L 3032 13962 L 3007 13969 L 2984 13977 L 2962 13984 L 2941 13990 L 2917 14000 L 2899 14013 L 2884 14032 L 2874 14051 L 2868 14073 L 2866 14099 L 2866 14127 L 2868 14161 L 2871 14192 L 2873 14225 L 2874 14256 L 2874 14286 L 2873 14318 L 2873 14344 L 2874 14369 L 2874 14395 L 2873 14423 L 2873 14453 L 2874 14481 L 2874 14506 L 2873 14529 L 2873 14552 L 2874 14577 L 2874 14605 L 2873 14632 L 2876 14655 L 2888 14672 L 2904 14683 L 2922 14688 L 2947 14688 L 2974 14686 L 2998 14686 L 3025 14688 L 3053 14688 L 3083 14686 L 3111 14686 L 3136 14688 L 3162 14688 L 3189 14686 L 3215 14686 L 3242 14688 L 3268 14688 L 3295 14686 L 3321 14686 L 3347 14688 L 3374 14688 L 3400 14686 L 3427 14686 L 3453 14688 L 3480 14688 L 3506 14686 L 3533 14686 L 3559 14688 L 3586 14688 L 3605 14686" stroke="#000000" stroke-width="50.00001" fill="none" stroke-linecap="round" stroke-linejoin="round"/>
<path d="M 3296 14472 L 3289 14472 L 3283 14479 L 3283 14485 L 3289 14489 L 3303 14492 L 3322 14500 L 3346 14508 L 3372 14522 L 3400 14533 L 3433 14546 L 3465 14561 L 3494 14575 L 3526 14579 L 3557 14586 L 3580 14598 L 3599 14614 L 3610 14634 L 3614 14656 L 3605 14675 L 3590 14690 L 3574 14707 L 3556 14720 L 3534 14735 L 3511 14748 L 3481 14760 L 3450 14770 L 3415 14785 L 3379 14799 L 3339 14813 L 3301 14821 L 3261 14828 L 3223 14832 L 3193 14836" stroke="#000000" stroke-width="50.00001" fill="none" stroke-linecap="round" stroke-linejoin="round"/>
<path d="M 771 23151 L 3311 23151 L 3311 24078 L 771 24078 L 771 23151" stroke="#000000" stroke-width="50" fill="none" stroke-linecap="round" stroke-linejoin="round"/>
<path d="M 1022 18721 L 3562 18721 L 3562 19648 L 1022 19648 L 1022 18721" stroke="#000000" stroke-width="50" fill="none" stroke-linecap="round" stroke-linejoin="round"/>
<path d="M 4976 20156 L 7516 20156 L 7516 21084 L 4976 21084 L 4976 20156" stroke="#000000" stroke-width="50" fill="none" stroke-linecap="round" stroke-linejoin="round"/>
<path d="M 3582 19232 L 3584 19234 L 3590 19234 L 3602 19235 L 3612 19235 L 3623 19235 L 3637 19235 L 3651 19235 L 3668 19239 L 3683 19242 L 3699 19247 L 3714 19252 L 3729 19258 L 3742 19263 L 3757 19267 L 3774 19272 L 3789 19275 L 3805 19277 L 3820 19278 L 3835 19278 L 3852 19277 L 3870 19277 L 3885 19278 L 3898 19278 L 3911 19277 L 3928 19277 L 3941 19278 L 3956 19278 L 3972 19277 L 3987 19277 L 4004 19278 L 4019 19278 L 4033 19277 L 4053 19277 L 4071 19282 L 4085 19292 L 4093 19301 L 4100 19316 L 4101 19335 L 4101 19354 L 4100 19374 L 4096 19394 L 4095 19414 L 4093 19434 L 4093 19454 L 4095 19473 L 4095 19493 L 4093 19513 L 4093 19533 L 4095 19553 L 4095 19573 L 4093 19592 L 4093 19609 L 4095 19622 L 4095 19640 L 4093 19660 L 4093 19678 L 4095 19695 L 4095 19712 L 4093 19730 L 4093 19745 L 4095 19758 L 4095 19771 L 4093 19788 L 4093 19801 L 4095 19816 L 4095 19832 L 4093 19850 L 4096 19867 L 4101 19887 L 4106 19908 L 4110 19928 L 4111 19946 L 4113 19963 L 4116 19981 L 4118 19996 L 4119 20009 L 4119 20022 L 4118 20039 L 4118 20052 L 4119 20067 L 4123 20084 L 4128 20099 L 4133 20115 L 4136 20130 L 4138 20145 L 4139 20161 L 4139 20176 L 4138 20188 L 4138 20201 L 4139 20214 L 4139 20231 L 4138 20247 L 4141 20262 L 4146 20277 L 4149 20294 L 4151 20309 L 4153 20327 L 4156 20343 L 4157 20360 L 4159 20375 L 4159 20386 L 4157 20399 L 4157 20413 L 4159 20429 L 4156 20446 L 4151 20461 L 4143 20472 L 4143 20482 L 4146 20485 L 4153 20487 L 4164 20485 L 4177 20485 L 4192 20485 L 4209 20485 L 4224 20485 L 4238 20485 L 4255 20485 L 4270 20485 L 4285 20485 L 4301 20485 L 4320 20485 L 4334 20485 L 4348 20485 L 4361 20485 L 4377 20485 L 4394 20485 L 4412 20485 L 4434 20485 L 4453 20485 L 4473 20485 L 4493 20485 L 4513 20485 L 4530 20485 L 4543 20485 L 4558 20485 L 4574 20485 L 4589 20485 L 4602 20485 L 4617 20485 L 4634 20485 L 4645 20485 L 4659 20485 L 4672 20485 L 4685 20485 L 4702 20485 L 4715 20485 L 4730 20485 L 4746 20485 L 4761 20485 L 4774 20485 L 4789 20485 L 4806 20485 L 4821 20485 L 4837 20485 L 4852 20485 L 4867 20485 L 4883 20485 L 4902 20485 L 4916 20485 L 4930 20485 L 4940 20485" stroke="#000000" stroke-width="50.00001" fill="none" stroke-linecap="round" stroke-linejoin="round"/>
<path d="M 4732 20308 L 4730 20310 L 4730 20313 L 4730 20318 L 4734 20323 L 4744 20326 L 4758 20331 L 4777 20339 L 4796 20349 L 4816 20363 L 4833 20377 L 4849 20394 L 4864 20409 L 4882 20425 L 4902 20440 L 4922 20452 L 4942 20465 L 4962 20472 L 4978 20478 L 4985 20485 L 4980 20495 L 4967 20505 L 4949 20516 L 4925 20525 L 4902 20531 L 4884 20535 L 4866 20538 L 4849 20543 L 4831 20551 L 4816 20561 L 4803 20574 L 4790 20589 L 4773 20602 L 4760 20607 L 4745 20611 L 4729 20616 L 4714 20624 L 4701 20634 L 4686 20644 L 4669 20652 L 4654 20657 L 4638 20664 L 4626 20670" stroke="#000000" stroke-width="50.00001" fill="none" stroke-linecap="round" stroke-linejoin="round"/>
<path d="M 1009 15942 L 3549 15942 L 3549 16870 L 1009 16870 L 1009 15942" stroke="#000000" stroke-width="50" fill="none" stroke-linecap="round" stroke-linejoin="round"/>
<path d="M 4380 17363 L 6920 17363 L 6920 18290 L 4380 18290 L 4380 17363" stroke="#000000" stroke-width="50" fill="none" stroke-linecap="round" stroke-linejoin="round"/>
<path d="M 4144 17731 L 4146 17729 L 4149 17729 L 4152 17731 L 4161 17738 L 4172 17746 L 4189 17752 L 4202 17761 L 4213 17767 L 4223 17774 L 4235 17781 L 4248 17791 L 4260 17804 L 4270 17819 L 4281 17832 L 4294 17847 L 4309 17860 L 4323 17873 L 4328 17886 L 4324 17900 L 4316 17910 L 4308 17916 L 4291 17921 L 4273 17924 L 4251 17929 L 4228 17933 L 4205 17938 L 4184 17943 L 4162 17946 L 4142 17951 L 4127 17956 L 4114 17963 L 4099 17967 L 4083 17971 L 4066 17976 L 4055 17976" stroke="#000000" stroke-width="50.00001" fill="none" stroke-linecap="round" stroke-linejoin="round"/>
<path d="M 3594 16433 L 3599 16435 L 3609 16438 L 3624 16440 L 3642 16441 L 3662 16441 L 3682 16440 L 3701 16440 L 3721 16441 L 3741 16441 L 3761 16440 L 3781 16440 L 3801 16441 L 3821 16441 L 3840 16440 L 3860 16440 L 3880 16441 L 3900 16441 L 3920 16440 L 3940 16440 L 3959 16441 L 3979 16441 L 3999 16440 L 4019 16440 L 4036 16441 L 4052 16441 L 4070 16440 L 4088 16440 L 4105 16441 L 4123 16438 L 4141 16433 L 4161 16428 L 4183 16425 L 4203 16423 L 4221 16421 L 4241 16418 L 4259 16420 L 4269 16425 L 4270 16438 L 4264 16454 L 4254 16474 L 4244 16496 L 4232 16516 L 4221 16534 L 4214 16554 L 4209 16575 L 4206 16595 L 4204 16613 L 4204 16633 L 4204 16655 L 4204 16674 L 4204 16693 L 4204 16709 L 4204 16727 L 4204 16746 L 4204 16765 L 4204 16787 L 4204 16807 L 4204 16825 L 4204 16845 L 4204 16866 L 4204 16886 L 4204 16904 L 4204 16924 L 4204 16946 L 4204 16965 L 4201 16980 L 4198 16994 L 4193 17007 L 4188 17023 L 4184 17040 L 4183 17058 L 4181 17076 L 4181 17099 L 4179 17121 L 4173 17139 L 4161 17152 L 4148 17159 L 4130 17162 L 4110 17162 L 4088 17161 L 4065 17161 L 4044 17162 L 4022 17162 L 4002 17161 L 3984 17161 L 3968 17162 L 3950 17162 L 3933 17161 L 3915 17161 L 3897 17162 L 3877 17162 L 3855 17161 L 3835 17161 L 3817 17162 L 3797 17162 L 3776 17161 L 3756 17161 L 3738 17162 L 3718 17162 L 3697 17161 L 3677 17161 L 3658 17162 L 3642 17162 L 3624 17161 L 3606 17161 L 3586 17162 L 3564 17162 L 3548 17161 L 3536 17167 L 3526 17175 L 3520 17192 L 3518 17210 L 3521 17228 L 3526 17245 L 3530 17263 L 3534 17281 L 3543 17298 L 3546 17316 L 3549 17334 L 3554 17351 L 3559 17369 L 3563 17387 L 3561 17407 L 3559 17428 L 3559 17448 L 3561 17467 L 3561 17486 L 3559 17508 L 3559 17528 L 3561 17546 L 3561 17566 L 3559 17587 L 3559 17607 L 3561 17625 L 3561 17645 L 3559 17663 L 3559 17683 L 3561 17705 L 3561 17724 L 3559 17743 L 3563 17763 L 3571 17781 L 3582 17794 L 3599 17801 L 3619 17804 L 3640 17804 L 3663 17802 L 3688 17802 L 3711 17804 L 3735 17804 L 3756 17802 L 3778 17802 L 3797 17804 L 3816 17804 L 3835 17802 L 3857 17799 L 3877 17794 L 3895 17787 L 3915 17784 L 3936 17781 L 3956 17779 L 3974 17777 L 3994 17777 L 4016 17779 L 4036 17779 L 4054 17777 L 4070 17777 L 4088 17779 L 4102 17782 L 4117 17791 L 4133 17804 L 4145 17815" stroke="#000000" stroke-width="50.00001" fill="none" stroke-linecap="round" stroke-linejoin="round"/>
<path d="M 3638 22172 L 3645 22172 L 3655 22172 L 3668 22172 L 3686 22172 L 3709 22172 L 3737 22172 L 3764 22172 L 3790 22172 L 3823 22172 L 3863 22172 L 3903 22172 L 3942 22172 L 3979 22172 L 4012 22172 L 4043 22172 L 4070 22172 L 4094 22172 L 4121 22172 L 4147 22172 L 4170 22172 L 4197 22172 L 4222 22172 L 4242 22175 L 4256 22185 L 4266 22200 L 4271 22218 L 4273 22245 L 4273 22271 L 4273 22298 L 4273 22331 L 4273 22367 L 4273 22404 L 4273 22435 L 4273 22466 L 4273 22493 L 4273 22518 L 4273 22544 L 4273 22572 L 4273 22599 L 4273 22627 L 4270 22650 L 4266 22668 L 4261 22688 L 4256 22711 L 4247 22741 L 4235 22772 L 4227 22804 L 4220 22833 L 4217 22862 L 4210 22886 L 4202 22906 L 4185 22919 L 4164 22929 L 4134 22936 L 4103 22938 L 4071 22938 L 4041 22936 L 4013 22933 L 3979 22928 L 3939 22923 L 3901 22919 L 3865 22918 L 3830 22916 L 3800 22913 L 3774 22911 L 3745 22910 L 3719 22910 L 3691 22911 L 3664 22911 L 3638 22910 L 3612 22910 L 3585 22911 L 3552 22908 L 3519 22903 L 3489 22900 L 3456 22898 L 3411 22896 L 3359 22893 L 3301 22891 L 3244 22890 L 3192 22890 L 3137 22891 L 3087 22891 L 3043 22890 L 3003 22890 L 2970 22891 L 2940 22891 L 2914 22890 L 2889 22890 L 2862 22891 L 2838 22891 L 2814 22890 L 2788 22890 L 2763 22891 L 2737 22885 L 2709 22876 L 2682 22867 L 2651 22858 L 2621 22853 L 2590 22850 L 2560 22850 L 2532 22852 L 2504 22848 L 2471 22843 L 2436 22840 L 2403 22838 L 2375 22837 L 2342 22833 L 2305 22832 L 2272 22830 L 2234 22827 L 2194 22822 L 2150 22817 L 2100 22807 L 2047 22795 L 1999 22787 L 1960 22784 L 1925 22777 L 1895 22772 L 1862 22769 L 1827 22764 L 1794 22761 L 1763 22759 L 1733 22757 L 1705 22757 L 1677 22759 L 1644 22759 L 1612 22757 L 1576 22757 L 1535 22759 L 1492 22759 L 1449 22757 L 1407 22757 L 1369 22759 L 1333 22759 L 1300 22757 L 1265 22757 L 1232 22759 L 1204 22759 L 1177 22757 L 1151 22757 L 1118 22759 L 1085 22759 L 1048 22757 L 1012 22757 L 974 22759 L 936 22759 L 900 22757 L 865 22757 L 833 22759 L 804 22759 L 777 22757 L 749 22757 L 723 22759 L 691 22759 L 655 22757 L 617 22757 L 579 22759 L 539 22759 L 498 22757 L 458 22757 L 420 22759 L 380 22759 L 342 22757 L 306 22757 L 274 22759 L 248 22759 L 220 22757 L 193 22757 L 169 22759 L 142 22759 L 117 22757 L 94 22757 L 66 22759 L 43 22766 L 26 22781 L 15 22800 L 10 22827 L 10 22853 L 12 22880 L 12 22910 L 10 22939 L 10 22967 L 12 22996 L 12 23022 L 10 23047 L 10 23073 L 12 23101 L 12 23131 L 10 23159 L 10 23184 L 12 23210 L 12 23237 L 10 23260 L 10 23287 L 12 23311 L 12 23335 L 10 23363 L 10 23389 L 12 23416 L 12 23442 L 20 23468 L 36 23488 L 53 23508 L 78 23528 L 106 23545 L 136 23558 L 165 23566 L 193 23573 L 222 23574 L 251 23574 L 279 23574 L 308 23578 L 334 23581 L 362 23586 L 389 23591 L 413 23594 L 440 23596 L 465 23597 L 488 23597 L 516 23596 L 542 23596 L 569 23597 L 595 23597 L 622 23596 L 648 23596 L 675 23597 L 701 23597 L 721 23602 L 734 23609" stroke="#000000" stroke-width="50.00001" fill="none" stroke-linecap="round" stroke-linejoin="round"/>
<path d="M 596 23416 L 593 23416 L 589 23419 L 588 23429 L 593 23447 L 606 23466 L 624 23482 L 644 23497 L 669 23515 L 692 23535 L 712 23552 L 733 23568 L 743 23580 L 738 23595 L 725 23608 L 707 23618 L 680 23624 L 652 23633 L 626 23639 L 598 23644 L 571 23651 L 543 23666 L 517 23682 L 493 23694" stroke="#000000" stroke-width="50.00001" fill="none" stroke-linecap="round" stroke-linejoin="round"/>
<path d="M 22422 141 L 24962 141 L 24962 1069 L 22422 1069 L 22422 141" stroke="#000000" stroke-width="50" fill="none" stroke-linecap="round" stroke-linejoin="round"/>
<path d="M 25052 1562 L 27592 1562 L 27592 2489 L 25052 2489 L 25052 1562" stroke="#000000" stroke-width="50" fill="none" stroke-linecap="round" stroke-linejoin="round"/>
<path d="M 22460 8999 L 25000 8999 L 25000 9927 L 22460 9927 L 22460 8999" stroke="#000000" stroke-width="50" fill="none" stroke-linecap="round" stroke-linejoin="round"/>
<path d="M 22153 10473 L 24693 10473 L 24693 11400 L 22153 11400 L 22153 10473" stroke="#000000" stroke-width="50" fill="none" stroke-linecap="round" stroke-linejoin="round"/>
<path d="M 22405 6043 L 24945 6043 L 24945 6970 L 22405 6970 L 22405 6043" stroke="#000000" stroke-width="50" fill="none" stroke-linecap="round" stroke-linejoin="round"/>
<path d="M 26358 7479 L 28898 7479 L 28898 8406 L 26358 8406 L 26358 7479" stroke="#000000" stroke-width="50" fill="none" stroke-linecap="round" stroke-linejoin="round"/>
<path d="M 22391 3265 L 24931 3265 L 24931 4192 L 22391 4192 L 22391 3265" stroke="#000000" stroke-width="50" fill="none" stroke-linecap="round" stroke-linejoin="round"/>
<path d="M 25762 4685 L 28302 4685 L 28302 5613 L 25762 5613 L 25762 4685" stroke="#000000" stroke-width="50" fill="none" stroke-linecap="round" stroke-linejoin="round"/>
<path d="M 22379 624 L 22379 622 L 22376 619 L 22369 616 L 22354 611 L 22331 606 L 22306 603 L 22280 601 L 22253 599 L 22230 599 L 22207 604 L 22186 611 L 22161 616 L 22134 619 L 22111 622 L 22088 627 L 22063 632 L 22038 639 L 22015 654 L 21994 674 L 21979 695 L 21962 715 L 21951 735 L 21942 755 L 21939 774 L 21936 794 L 21934 817 L 21933 841 L 21933 865 L 21934 890 L 21934 913 L 21933 938 L 21933 963 L 21934 989 L 21934 1018 L 21933 1047 L 21933 1075 L 21934 1105 L 21934 1137 L 21933 1168 L 21933 1195 L 21934 1223 L 21934 1249 L 21933 1274 L 21933 1297 L 21934 1322 L 21934 1343 L 21933 1366 L 21933 1390 L 21934 1418 L 21934 1446 L 21933 1472 L 21933 1497 L 21934 1524 L 21934 1548 L 21933 1572 L 21933 1595 L 21934 1616 L 21934 1638 L 21933 1658 L 21933 1676 L 21934 1699 L 21934 1724 L 21933 1747 L 21933 1768 L 21934 1793 L 21934 1820 L 21933 1843 L 21933 1866 L 21934 1891 L 21934 1915 L 21933 1939 L 21942 1960 L 21961 1978 L 21985 1992 L 22012 2005 L 22037 2015 L 22066 2021 L 22101 2026 L 22134 2030 L 22167 2031 L 22204 2031 L 22247 2031 L 22288 2031 L 22329 2031 L 22369 2031 L 22407 2031 L 22443 2031 L 22482 2031 L 22515 2031 L 22549 2031 L 22582 2031 L 22617 2031 L 22654 2031 L 22690 2031 L 22728 2031 L 22769 2031 L 22809 2031 L 22845 2031 L 22885 2031 L 22923 2031 L 22959 2031 L 22997 2031 L 23037 2031 L 23082 2031 L 23131 2031 L 23183 2031 L 23229 2031 L 23280 2031 L 23330 2031 L 23374 2031 L 23411 2031 L 23446 2031 L 23477 2031 L 23513 2031 L 23550 2031 L 23588 2031 L 23623 2031 L 23652 2031 L 23685 2031 L 23717 2031 L 23747 2031 L 23775 2031 L 23798 2031 L 23824 2031 L 23852 2031 L 23882 2031 L 23914 2031 L 23943 2031 L 23970 2031 L 23995 2031 L 24024 2031 L 24056 2031 L 24082 2031 L 24110 2031 L 24140 2031 L 24172 2031 L 24205 2031 L 24238 2031 L 24271 2031 L 24304 2031 L 24337 2031 L 24370 2031 L 24406 2031 L 24443 2031 L 24481 2031 L 24522 2031 L 24562 2031 L 24598 2031 L 24635 2031 L 24666 2031 L 24694 2031 L 24717 2031 L 24740 2031 L 24765 2031 L 24790 2031 L 24813 2031 L 24835 2031 L 24856 2031 L 24876 2031 L 24898 2031 L 24921 2031 L 24942 2031 L 24965 2031 L 24987 2031 L 25008 2031 L 25025 2031" stroke="#000000" stroke-width="50.00001" fill="none" stroke-linecap="round" stroke-linejoin="round"/>
<path d="M 24829 1828 L 24831 1826 L 24837 1823 L 24842 1823 L 24849 1828 L 24860 1838 L 24877 1849 L 24897 1859 L 24915 1871 L 24932 1889 L 24953 1909 L 24976 1927 L 24996 1947 L 25011 1969 L 25021 1988 L 25026 2010 L 25026 2030 L 25013 2051 L 24999 2074 L 24979 2098 L 24953 2119 L 24927 2141 L 24900 2157 L 24880 2172 L 24864 2187 L 24850 2200" stroke="#000000" stroke-width="50.00001" fill="none" stroke-linecap="round" stroke-linejoin="round"/>
<path d="M 22379 3754 L 22376 3756 L 22369 3756 L 22351 3754 L 22328 3754 L 22300 3756 L 22270 3756 L 22227 3754 L 22179 3754 L 22128 3756 L 22075 3756 L 22022 3754 L 21969 3754 L 21923 3756 L 21886 3756 L 21856 3754 L 21832 3754 L 21807 3756 L 21787 3759 L 21772 3767 L 21762 3785 L 21757 3809 L 21754 3835 L 21757 3860 L 21759 3883 L 21764 3908 L 21770 3934 L 21774 3962 L 21777 3989 L 21775 4017 L 21774 4047 L 21774 4076 L 21775 4105 L 21775 4136 L 21774 4162 L 21774 4189 L 21775 4215 L 21775 4239 L 21777 4262 L 21780 4283 L 21784 4305 L 21789 4331 L 21794 4359 L 21797 4386 L 21799 4410 L 21800 4434 L 21800 4455 L 21799 4477 L 21799 4496 L 21800 4518 L 21800 4541 L 21799 4563 L 21799 4586 L 21800 4607 L 21800 4629 L 21799 4652 L 21799 4680 L 21800 4708 L 21800 4738 L 21799 4763 L 21799 4784 L 21800 4807 L 21800 4831 L 21799 4855 L 21799 4883 L 21800 4910 L 21800 4936 L 21799 4960 L 21799 4983 L 21804 5004 L 21810 5026 L 21813 5049 L 21817 5074 L 21818 5095 L 21820 5115 L 21820 5135 L 21818 5155 L 21822 5174 L 21830 5191 L 21843 5204 L 21863 5213 L 21893 5216 L 21926 5217 L 21961 5217 L 22000 5216 L 22045 5216 L 22091 5217 L 22143 5217 L 22205 5216 L 22276 5216 L 22356 5217 L 22450 5217 L 22549 5216 L 22644 5216 L 22733 5217 L 22816 5217 L 22890 5216 L 22961 5216 L 23021 5217 L 23070 5217 L 23110 5216 L 23148 5216 L 23188 5217 L 23229 5217 L 23279 5216 L 23333 5216 L 23391 5217 L 23454 5217 L 23517 5216 L 23581 5216 L 23649 5217 L 23712 5217 L 23768 5216 L 23816 5216 L 23857 5217 L 23897 5217 L 23935 5216 L 23971 5216 L 24009 5217 L 24046 5217 L 24077 5216 L 24109 5216 L 24148 5217 L 24193 5217 L 24239 5216 L 24284 5216 L 24324 5217 L 24363 5217 L 24400 5216 L 24433 5216 L 24461 5217 L 24484 5217 L 24509 5216 L 24535 5216 L 24562 5217 L 24588 5217 L 24615 5216 L 24638 5216 L 24658 5217 L 24676 5217 L 24696 5216 L 24724 5216 L 24754 5217 L 24785 5217 L 24816 5216 L 24846 5216 L 24878 5217 L 24909 5217 L 24939 5216 L 24967 5216 L 24992 5217 L 25018 5217 L 25045 5216 L 25078 5216 L 25114 5217 L 25151 5217 L 25185 5216 L 25217 5216 L 25243 5217 L 25266 5217 L 25289 5216 L 25311 5216 L 25332 5217 L 25356 5217 L 25377 5216 L 25399 5216 L 25418 5217 L 25440 5217 L 25463 5216 L 25485 5216 L 25508 5217 L 25529 5217 L 25551 5216 L 25574 5216 L 25595 5217 L 25617 5217 L 25640 5216 L 25661 5216 L 25683 5217 L 25706 5217 L 25724 5216" stroke="#000000" stroke-width="50.00001" fill="none" stroke-linecap="round" stroke-linejoin="round"/>
<path d="M 25463 5044 L 25468 5046 L 25475 5046 L 25488 5047 L 25501 5054 L 25518 5065 L 25534 5079 L 25556 5090 L 25580 5104 L 25607 5118 L 25633 5132 L 25660 5147 L 25683 5163 L 25706 5178 L 25724 5194 L 25736 5213 L 25742 5237 L 25744 5264 L 25738 5292 L 25726 5319 L 25706 5343 L 25686 5366 L 25666 5388 L 25647 5409 L 25627 5426 L 25607 5434 L 25590 5439" stroke="#000000" stroke-width="50.00001" fill="none" stroke-linecap="round" stroke-linejoin="round"/>
<path d="M 22205 6488 L 22200 6490 L 22190 6490 L 22177 6488 L 22159 6488 L 22139 6490 L 22117 6490 L 22091 6488 L 22063 6488 L 22036 6490 L 22008 6490 L 21969 6488 L 21919 6488 L 21859 6490 L 21802 6490 L 21749 6488 L 21701 6488 L 21654 6490 L 21616 6490 L 21587 6495 L 21565 6505 L 21552 6523 L 21545 6548 L 21542 6577 L 21542 6612 L 21544 6653 L 21544 6700 L 21542 6744 L 21542 6791 L 21544 6835 L 21544 6875 L 21542 6911 L 21542 6944 L 21544 6979 L 21544 7012 L 21542 7040 L 21542 7067 L 21544 7097 L 21544 7126 L 21542 7158 L 21542 7186 L 21544 7216 L 21547 7245 L 21552 7273 L 21558 7298 L 21562 7321 L 21572 7341 L 21583 7363 L 21591 7386 L 21598 7407 L 21601 7431 L 21605 7452 L 21610 7474 L 21615 7493 L 21618 7512 L 21616 7535 L 21615 7560 L 21615 7583 L 21616 7604 L 21616 7626 L 21615 7649 L 21615 7670 L 21616 7695 L 21616 7722 L 21615 7745 L 21615 7765 L 21616 7783 L 21623 7803 L 21631 7824 L 21641 7844 L 21651 7859 L 21659 7875 L 21668 7894 L 21674 7913 L 21682 7937 L 21692 7963 L 21704 7988 L 21724 8011 L 21750 8033 L 21780 8046 L 21813 8052 L 21858 8056 L 21914 8056 L 21982 8054 L 22055 8054 L 22134 8056 L 22223 8056 L 22322 8054 L 22420 8054 L 22526 8056 L 22640 8056 L 22762 8054 L 22880 8054 L 22994 8056 L 23096 8056 L 23202 8054 L 23303 8054 L 23402 8056 L 23503 8056 L 23602 8054 L 23698 8054 L 23794 8056 L 23882 8056 L 23969 8054 L 24052 8054 L 24130 8056 L 24201 8056 L 24267 8054 L 24335 8054 L 24401 8056 L 24462 8056 L 24522 8054 L 24581 8054 L 24641 8056 L 24700 8056 L 24757 8054 L 24809 8054 L 24867 8056 L 24927 8056 L 24981 8054 L 25034 8054 L 25089 8056 L 25145 8056 L 25206 8054 L 25269 8054 L 25334 8056 L 25392 8056 L 25451 8054 L 25509 8054 L 25559 8056 L 25603 8056 L 25640 8054 L 25671 8054 L 25706 8056 L 25739 8056 L 25769 8054 L 25802 8054 L 25840 8056 L 25876 8056 L 25911 8054 L 25941 8054 L 25970 8056 L 25998 8056 L 26027 8054 L 26053 8054 L 26078 8056 L 26101 8056 L 26122 8054 L 26142 8054 L 26165 8056 L 26189 8056 L 26210 8054 L 26232 8054 L 26255 8056 L 26276 8056 L 26294 8054 L 26311 8061 L 26328 8069 L 26346 8079 L 26364 8087 L 26384 8089 L 26405 8092 L 26428 8090 L 26453 8089 L 26473 8089 L 26483 8090 L 26475 8089 L 26458 8089 L 26443 8090" stroke="#000000" stroke-width="50.00001" fill="none" stroke-linecap="round" stroke-linejoin="round"/>
<path d="M 26097 7844 L 26100 7846 L 26107 7852 L 26122 7867 L 26145 7884 L 26170 7897 L 26193 7915 L 26216 7935 L 26238 7953 L 26259 7966 L 26279 7976 L 26297 7986 L 26317 7998 L 26335 8006 L 26358 8016 L 26381 8029 L 26400 8047 L 26415 8067 L 26424 8092 L 26421 8119 L 26403 8145 L 26378 8165 L 26352 8181 L 26324 8195 L 26297 8203 L 26272 8209 L 26249 8211 L 26224 8211 L 26200 8214 L 26176 8218 L 26155 8223 L 26137 8231 L 26123 8241" stroke="#000000" stroke-width="50.00001" fill="none" stroke-linecap="round" stroke-linejoin="round"/>
<path d="M 22443 9440 L 22438 9440 L 22428 9440 L 22412 9440 L 22390 9440 L 22369 9440 L 22339 9440 L 22307 9440 L 22276 9440 L 22250 9440 L 22225 9440 L 22202 9440 L 22173 9440 L 22147 9440 L 22121 9440 L 22094 9440 L 22068 9440 L 22038 9440 L 22001 9440 L 21963 9440 L 21929 9440 L 21899 9440 L 21872 9440 L 21848 9440 L 21825 9440 L 21796 9440 L 21767 9440 L 21737 9440 L 21709 9440 L 21684 9440 L 21661 9440 L 21634 9440 L 21610 9440 L 21583 9440 L 21552 9440 L 21522 9440 L 21489 9440 L 21454 9440 L 21418 9440 L 21386 9440 L 21353 9443 L 21320 9447 L 21290 9448 L 21264 9450 L 21239 9453 L 21216 9455 L 21194 9457 L 21178 9463 L 21161 9468 L 21147 9471 L 21132 9476 L 21112 9480 L 21094 9485 L 21077 9496 L 21066 9513 L 21059 9534 L 21054 9559 L 21051 9586 L 21049 9609 L 21049 9635 L 21049 9663 L 21049 9693 L 21046 9718 L 21042 9741 L 21041 9767 L 21039 9796 L 21036 9829 L 21034 9860 L 21029 9903 L 21019 9954 L 21009 10009 L 20998 10062 L 20986 10115 L 20973 10164 L 20961 10207 L 20951 10245 L 20943 10283 L 20940 10316 L 20940 10348 L 20935 10374 L 20928 10396 L 20923 10416 L 20920 10437 L 20917 10460 L 20918 10478 L 20923 10495 L 20930 10512 L 20940 10533 L 20950 10555 L 20961 10578 L 20970 10599 L 20976 10621 L 20980 10647 L 20980 10672 L 20978 10698 L 20981 10730 L 20989 10760 L 20999 10786 L 21009 10811 L 21018 10834 L 21029 10856 L 21039 10879 L 21046 10902 L 21051 10927 L 21054 10951 L 21056 10975 L 21056 10996 L 21066 11014 L 21082 11028 L 21110 11034 L 21142 11037 L 21181 11037 L 21221 11036 L 21261 11032 L 21297 11031 L 21330 11028 L 21358 11026 L 21388 11024 L 21416 11024 L 21443 11026 L 21467 11026 L 21491 11024 L 21515 11024 L 21538 11026 L 21560 11026 L 21585 11024 L 21611 11024 L 21638 11026 L 21661 11026 L 21681 11024 L 21699 11024 L 21722 11026 L 21747 11026 L 21770 11024 L 21791 11024 L 21813 11026 L 21836 11026 L 21858 11024 L 21879 11024 L 21899 11026 L 21920 11026 L 21944 11024 L 21965 11024 L 21988 11026 L 22010 11026 L 22031 11024 L 22051 11024 L 22069 11026 L 22092 11026 L 22114 11024" stroke="#000000" stroke-width="50.00001" fill="none" stroke-linecap="round" stroke-linejoin="round"/>
<path d="M 21919 10818 L 21921 10820 L 21927 10823 L 21942 10831 L 21962 10843 L 21985 10859 L 22008 10873 L 22030 10884 L 22051 10897 L 22071 10916 L 22093 10932 L 22116 10949 L 22137 10964 L 22154 10978 L 22155 10995 L 22144 11013 L 22124 11031 L 22096 11051 L 22063 11073 L 22025 11096 L 21988 11114 L 21957 11134 L 21932 11150 L 21912 11164 L 21891 11178 L 21871 11192" stroke="#000000" stroke-width="50.00001" fill="none" stroke-linecap="round" stroke-linejoin="round"/>
<path d="M 9526 12859 L 12066 12859 L 12066 13787 L 9526 13787 L 9526 12859" stroke="#000000" stroke-width="50" fill="none" stroke-linecap="round" stroke-linejoin="round"/>
<path d="M 12156 14280 L 14696 14280 L 14696 15207 L 12156 15207 L 12156 14280" stroke="#000000" stroke-width="50" fill="none" stroke-linecap="round" stroke-linejoin="round"/>
<path d="M 9563 21718 L 12103 21718 L 12103 22645 L 9563 22645 L 9563 21718" stroke="#000000" stroke-width="50" fill="none" stroke-linecap="round" stroke-linejoin="round"/>
<path d="M 9257 23191 L 11797 23191 L 11797 24118 L 9257 24118 L 9257 23191" stroke="#000000" stroke-width="50" fill="none" stroke-linecap="round" stroke-linejoin="round"/>
<path d="M 9508 18761 L 12048 18761 L 12048 19689 L 9508 19689 L 9508 18761" stroke="#000000" stroke-width="50" fill="none" stroke-linecap="round" stroke-linejoin="round"/>
<path d="M 13462 20197 L 16002 20197 L 16002 21124 L 13462 21124 L 13462 20197" stroke="#000000" stroke-width="50" fill="none" stroke-linecap="round" stroke-linejoin="round"/>
<path d="M 13103 16005 L 15643 16005 L 15643 16932 L 13103 16932 L 13103 16005" stroke="#000000" stroke-width="50" fill="none" stroke-linecap="round" stroke-linejoin="round"/>
<path d="M 9280 17404 L 11820 17404 L 11820 18331 L 9280 18331 L 9280 17404" stroke="#000000" stroke-width="50" fill="none" stroke-linecap="round" stroke-linejoin="round"/>
<path d="M 9475 13304 L 9472 13306 L 9458 13306 L 9440 13304 L 9417 13304 L 9389 13306 L 9363 13306 L 9333 13304 L 9303 13304 L 9272 13306 L 9240 13306 L 9210 13304 L 9179 13304 L 9151 13306 L 9121 13306 L 9091 13304 L 9060 13304 L 9032 13306 L 9002 13306 L 8972 13304 L 8947 13307 L 8929 13319 L 8919 13337 L 8914 13360 L 8916 13385 L 8923 13413 L 8931 13443 L 8938 13476 L 8943 13507 L 8943 13540 L 8941 13572 L 8947 13605 L 8956 13635 L 8966 13664 L 8977 13693 L 8986 13721 L 8992 13747 L 8995 13775 L 8999 13802 L 9007 13833 L 9015 13870 L 9025 13904 L 9033 13939 L 9038 13972 L 9042 14003 L 9042 14033 L 9040 14065 L 9040 14094 L 9045 14119 L 9058 14137 L 9075 14147 L 9098 14152 L 9129 14154 L 9164 14154 L 9200 14154 L 9240 14154 L 9285 14154 L 9334 14154 L 9382 14154 L 9429 14154 L 9475 14154 L 9518 14154 L 9558 14154 L 9592 14154 L 9625 14154 L 9654 14154 L 9680 14154 L 9707 14154 L 9736 14154 L 9766 14154 L 9797 14154 L 9826 14154 L 9855 14154 L 9885 14154 L 9917 14154 L 9945 14154 L 9971 14154 L 9998 14154 L 10027 14154 L 10057 14154 L 10089 14154 L 10123 14154 L 10156 14154 L 10193 14154 L 10226 14154 L 10264 14154 L 10307 14154 L 10355 14154 L 10401 14154 L 10451 14154 L 10497 14154 L 10542 14154 L 10581 14154 L 10619 14154 L 10659 14154 L 10695 14154 L 10728 14154 L 10766 14154 L 10803 14154 L 10844 14154 L 10884 14154 L 10920 14154 L 10957 14154 L 10988 14154 L 11020 14154 L 11049 14154 L 11081 14154 L 11109 14154 L 11139 14154 L 11168 14154 L 11200 14154 L 11228 14154 L 11254 14154 L 11281 14154 L 11314 14154 L 11350 14154 L 11387 14154 L 11425 14154 L 11469 14154 L 11516 14154 L 11557 14154 L 11597 14154 L 11638 14154 L 11674 14154 L 11714 14154 L 11752 14154 L 11792 14154 L 11833 14154 L 11876 14154 L 11914 14154 L 11952 14154 L 11992 14154 L 12030 14154 L 12063 14154 L 12094 14154 L 12127 14154 L 12157 14154 L 12187 14154 L 12215 14154 L 12243 14154 L 12273 14154 L 12301 14154 L 12333 14154 L 12369 14154 L 12402 14154 L 12437 14154 L 12476 14154 L 12514 14154 L 12551 14154 L 12592 14154 L 12630 14154 L 12667 14154 L 12700 14154 L 12731 14154 L 12767 14154 L 12812 14154 L 12862 14154 L 12916 14154 L 12974 14154 L 13034 14154 L 13087 14154 L 13133 14154 L 13179 14154 L 13219 14154 L 13255 14154 L 13288 14154 L 13323 14154 L 13359 14154 L 13394 14154 L 13431 14154 L 13462 14154 L 13493 14154 L 13523 14154 L 13555 14154 L 13583 14154 L 13609 14154 L 13642 14154 L 13675 14154 L 13712 14154 L 13745 14154 L 13779 14154 L 13819 14154 L 13857 14154 L 13897 14154 L 13938 14154 L 13981 14154 L 14023 14154 L 14062 14154 L 14097 14154 L 14133 14154 L 14171 14154 L 14208 14154 L 14244 14154 L 14276 14154 L 14310 14154 L 14347 14154 L 14383 14154 L 14418 14154 L 14449 14154 L 14486 14154 L 14529 14154 L 14573 14154 L 14615 14154 L 14651 14154 L 14684 14154 L 14715 14154 L 14745 14154 L 14777 14154 L 14806 14154 L 14838 14154 L 14866 14154 L 14896 14154 L 14929 14154 L 14963 14154 L 15003 14154 L 15041 14154 L 15078 14154 L 15116 14154 L 15150 14154 L 15183 14154 L 15220 14154 L 15256 14154 L 15284 14161 L 15306 14171 L 15319 14187 L 15327 14209 L 15331 14237 L 15329 14266 L 15329 14298 L 15329 14326 L 15329 14352 L 15329 14379 L 15329 14412 L 15329 14445 L 15329 14481 L 15329 14518 L 15329 14553 L 15329 14587 L 15329 14620 L 15329 14652 L 15329 14681 L 15329 14713 L 15329 14739 L 15329 14767 L 15322 14787 L 15316 14806 L 15302 14829 L 15289 14853 L 15276 14882 L 15250 14901 L 15220 14915 L 15183 14925 L 15145 14931 L 15107 14933 L 15074 14936 L 15040 14934 L 15006 14934 L 14975 14934 L 14945 14934 L 14914 14934 L 14886 14934 L 14859 14934 L 14833 14934 L 14803 14934 L 14773 14934 L 14748 14934" stroke="#000000" stroke-width="50.00001" fill="none" stroke-linecap="round" stroke-linejoin="round"/>
<path d="M 14889 14698 L 14891 14703 L 14894 14716 L 14889 14734 L 14879 14754 L 14861 14774 L 14839 14804 L 14813 14837 L 14783 14865 L 14747 14888 L 14709 14906 L 14674 14926 L 14648 14946 L 14631 14969 L 14628 14992 L 14643 15017 L 14674 15039 L 14707 15058 L 14740 15075 L 14773 15088 L 14803 15103 L 14833 15120 L 14858 15141 L 14886 15164 L 14915 15186 L 14945 15207 L 14970 15227" stroke="#000000" stroke-width="50.00001" fill="none" stroke-linecap="round" stroke-linejoin="round"/>
<path d="M 9475 19242 L 9472 19244 L 9458 19237 L 9440 19229 L 9417 19219 L 9389 19214 L 9363 19211 L 9333 19207 L 9303 19206 L 9272 19204 L 9240 19204 L 9210 19206 L 9179 19206 L 9151 19204 L 9121 19204 L 9091 19206 L 9060 19212 L 9035 19224 L 9019 19240 L 9007 19262 L 8999 19290 L 8995 19320 L 8995 19351 L 8997 19383 L 8997 19412 L 8995 19440 L 9002 19472 L 9010 19502 L 9020 19535 L 9032 19576 L 9042 19619 L 9055 19657 L 9070 19697 L 9086 19740 L 9098 19779 L 9115 19821 L 9138 19857 L 9162 19882 L 9194 19898 L 9230 19908 L 9265 19913 L 9296 19915 L 9333 19912 L 9369 19908 L 9404 19907 L 9439 19905 L 9478 19902 L 9516 19900 L 9556 19898 L 9607 19898 L 9667 19900 L 9730 19900 L 9793 19898 L 9854 19898 L 9908 19900 L 9958 19900 L 9999 19898 L 10034 19898 L 10064 19900 L 10092 19900 L 10120 19898 L 10150 19898 L 10178 19900 L 10206 19900 L 10242 19898 L 10277 19898 L 10312 19900 L 10345 19900 L 10376 19898 L 10406 19898 L 10441 19900 L 10477 19900 L 10513 19898 L 10552 19898 L 10593 19900 L 10629 19900 L 10669 19898 L 10710 19898 L 10747 19900 L 10781 19900 L 10814 19898 L 10846 19898 L 10892 19900 L 10953 19900 L 11026 19898 L 11104 19898 L 11177 19900 L 11248 19900 L 11311 19898 L 11363 19898 L 11405 19900 L 11441 19900 L 11469 19898 L 11502 19898 L 11537 19900 L 11570 19900 L 11605 19898 L 11645 19898 L 11688 19900 L 11727 19900 L 11765 19898 L 11805 19898 L 11846 19900 L 11886 19900 L 11921 19898 L 11954 19898 L 11982 19900 L 12012 19900 L 12048 19898 L 12083 19898 L 12121 19900 L 12167 19900 L 12210 19898 L 12253 19898 L 12291 19900 L 12326 19900 L 12362 19898 L 12399 19898 L 12440 19900 L 12488 19900 L 12541 19898 L 12595 19898 L 12648 19900 L 12700 19900 L 12749 19898 L 12800 19898 L 12855 19900 L 12905 19900 L 12951 19898 L 12989 19898 L 13029 19900 L 13070 19900 L 13106 19898 L 13144 19898 L 13186 19900 L 13232 19900 L 13282 19898 L 13331 19898 L 13376 19900 L 13421 19900 L 13474 19898 L 13535 19898 L 13598 19900 L 13659 19900 L 13715 19898 L 13770 19898 L 13824 19900 L 13887 19900 L 13951 19898 L 14009 19898 L 14069 19900 L 14130 19900 L 14193 19898 L 14257 19898 L 14330 19900 L 14406 19900 L 14482 19898 L 14560 19898 L 14638 19900 L 14704 19900 L 14762 19898 L 14815 19898 L 14859 19900 L 14899 19900 L 14932 19898 L 14962 19898 L 14995 19900 L 15030 19900 L 15073 19898 L 15117 19898 L 15160 19900 L 15200 19900 L 15235 19898 L 15268 19898 L 15296 19900 L 15322 19900 L 15352 19898 L 15382 19898 L 15413 19900 L 15445 19900 L 15471 19898 L 15503 19898 L 15539 19900 L 15574 19900 L 15607 19898 L 15636 19898 L 15666 19900 L 15698 19900 L 15732 19898 L 15772 19898 L 15815 19900 L 15855 19900 L 15893 19898 L 15926 19898 L 15961 19900 L 15997 19900 L 16028 19898 L 16060 19898 L 16090 19900 L 16121 19900 L 16149 19898 L 16176 19898 L 16202 19900 L 16228 19900 L 16255 19898 L 16281 19898 L 16305 19907 L 16328 19920 L 16349 19938 L 16367 19961 L 16381 19989 L 16391 20018 L 16404 20044 L 16415 20069 L 16425 20099 L 16437 20130 L 16443 20163 L 16455 20201 L 16468 20241 L 16480 20279 L 16490 20315 L 16496 20348 L 16498 20380 L 16498 20409 L 16496 20438 L 16493 20467 L 16491 20497 L 16490 20529 L 16483 20557 L 16472 20583 L 16452 20610 L 16430 20639 L 16414 20669 L 16402 20701 L 16394 20729 L 16387 20752 L 16374 20768 L 16357 20780 L 16334 20785 L 16310 20785 L 16281 20783 L 16255 20783 L 16228 20785 L 16199 20785 L 16169 20783 L 16141 20783 L 16113 20785 L 16083 20785 L 16048 20783 L 16010 20783 L 15974 20785 L 15941 20785 L 15913 20790 L 15889 20796" stroke="#000000" stroke-width="50.00001" fill="none" stroke-linecap="round" stroke-linejoin="round"/>
<path d="M 16139 20492 L 16134 20500 L 16124 20513 L 16109 20532 L 16096 20555 L 16076 20583 L 16056 20609 L 16033 20639 L 16010 20666 L 15989 20687 L 15967 20707 L 15950 20728 L 15946 20755 L 15950 20778 L 15967 20798 L 15990 20813 L 16022 20826 L 16063 20841 L 16106 20857 L 16142 20877 L 16170 20895" stroke="#000000" stroke-width="50.00001" fill="none" stroke-linecap="round" stroke-linejoin="round"/>
<path d="M 9591 22180 L 9579 22182 L 9563 22182 L 9538 22180 L 9505 22180 L 9470 22182 L 9431 22182 L 9386 22180 L 9343 22180 L 9292 22182 L 9234 22182 L 9178 22180 L 9126 22180 L 9078 22182 L 9039 22182 L 8999 22180 L 8963 22180 L 8926 22182 L 8895 22182 L 8860 22180 L 8824 22180 L 8787 22182 L 8753 22182 L 8718 22183 L 8688 22197 L 8673 22220 L 8668 22249 L 8668 22281 L 8672 22312 L 8678 22345 L 8690 22377 L 8700 22410 L 8708 22441 L 8715 22474 L 8718 22504 L 8721 22534 L 8720 22562 L 8718 22590 L 8718 22617 L 8720 22645 L 8720 22671 L 8718 22699 L 8718 22726 L 8720 22755 L 8720 22785 L 8724 22817 L 8738 22845 L 8756 22865 L 8776 22878 L 8801 22884 L 8830 22888 L 8860 22888 L 8888 22886 L 8920 22883 L 8949 22881 L 8979 22878 L 9007 22876 L 9035 22875 L 9072 22875 L 9110 22876 L 9148 22876 L 9184 22875 L 9219 22875 L 9254 22876 L 9290 22876 L 9325 22875 L 9356 22875 L 9393 22876 L 9429 22876 L 9464 22875 L 9498 22875 L 9531 22876 L 9563 22876 L 9593 22875 L 9624 22875 L 9651 22876 L 9679 22876 L 9712 22875 L 9746 22875 L 9783 22876 L 9816 22876 L 9851 22875 L 9880 22868 L 9905 22860 L 9935 22853 L 9965 22848 L 9993 22845 L 10024 22843 L 10061 22841 L 10107 22841 L 10162 22840 L 10218 22836 L 10272 22835 L 10329 22825 L 10380 22813 L 10428 22802 L 10474 22795 L 10514 22790 L 10550 22787 L 10583 22785 L 10615 22785 L 10651 22785 L 10686 22785 L 10719 22782 L 10752 22779 L 10788 22774 L 10828 22769 L 10866 22765 L 10896 22757 L 10924 22749 L 10947 22739 L 10973 22731 L 11008 22726 L 11048 22722 L 11093 22722 L 11136 22724 L 11177 22724 L 11215 22722 L 11248 22722 L 11288 22724 L 11324 22724 L 11360 22722 L 11395 22722 L 11430 22724 L 11463 22724 L 11498 22722 L 11534 22722 L 11569 22724 L 11608 22724 L 11650 22722 L 11696 22722 L 11744 22724 L 11794 22724 L 11840 22722 L 11885 22722 L 11924 22724 L 11959 22724 L 11995 22722 L 12030 22722 L 12062 22724 L 12095 22724 L 12128 22729 L 12157 22736 L 12187 22747 L 12212 22767 L 12230 22792 L 12243 22822 L 12248 22851 L 12248 22883 L 12247 22918 L 12247 22951 L 12247 22984 L 12247 23017 L 12250 23050 L 12253 23080 L 12258 23109 L 12263 23137 L 12267 23169 L 12268 23199 L 12270 23228 L 12277 23253 L 12281 23275 L 12285 23298 L 12290 23321 L 12293 23346 L 12301 23367 L 12310 23387 L 12316 23410 L 12321 23433 L 12331 23462 L 12343 23490 L 12349 23519 L 12351 23548 L 12354 23576 L 12353 23605 L 12353 23640 L 12353 23678 L 12349 23715 L 12339 23744 L 12321 23766 L 12300 23777 L 12273 23784 L 12247 23787 L 12217 23787 L 12187 23786 L 12152 23782 L 12114 23781 L 12078 23777 L 12042 23776 L 12010 23774 L 11979 23774 L 11949 23776 L 11918 23776 L 11886 23774 L 11856 23774 L 11825 23776 L 11797 23776 L 11771 23774 L 11754 23771 L 11751 23766 L 11752 23761" stroke="#000000" stroke-width="50.00001" fill="none" stroke-linecap="round" stroke-linejoin="round"/>
<path d="M 11979 23546 L 11974 23546 L 11961 23546 L 11939 23546 L 11913 23553 L 11885 23563 L 11858 23579 L 11833 23607 L 11807 23639 L 11779 23675 L 11752 23711 L 11738 23746 L 11731 23778 L 11741 23804 L 11764 23824 L 11792 23837 L 11827 23850 L 11870 23864 L 11921 23873 L 11972 23887 L 12019 23902 L 12060 23915 L 12096 23923 L 12128 23930 L 12151 23936" stroke="#000000" stroke-width="50.00001" fill="none" stroke-linecap="round" stroke-linejoin="round"/>
<path d="M 30321 10 L 32861 10 L 32861 937 L 30321 937 L 30321 10" stroke="#000000" stroke-width="50" fill="none" stroke-linecap="round" stroke-linejoin="round"/>
<path d="M 32951 1431 L 35491 1431 L 35491 2358 L 32951 2358 L 32951 1431" stroke="#000000" stroke-width="50" fill="none" stroke-linecap="round" stroke-linejoin="round"/>
<path d="M 30358 8868 L 32898 8868 L 32898 9796 L 30358 9796 L 30358 8868" stroke="#000000" stroke-width="50" fill="none" stroke-linecap="round" stroke-linejoin="round"/>
<path d="M 30052 10342 L 32592 10342 L 32592 11269 L 30052 11269 L 30052 10342" stroke="#000000" stroke-width="50" fill="none" stroke-linecap="round" stroke-linejoin="round"/>
<path d="M 30303 5912 L 32843 5912 L 32843 6839 L 30303 6839 L 30303 5912" stroke="#000000" stroke-width="50" fill="none" stroke-linecap="round" stroke-linejoin="round"/>
<path d="M 34257 7348 L 36797 7348 L 36797 8275 L 34257 8275 L 34257 7348" stroke="#000000" stroke-width="50" fill="none" stroke-linecap="round" stroke-linejoin="round"/>
<path d="M 30290 3134 L 32830 3134 L 32830 4061 L 30290 4061 L 30290 3134" stroke="#000000" stroke-width="50" fill="none" stroke-linecap="round" stroke-linejoin="round"/>
<path d="M 33661 4554 L 36201 4554 L 36201 5482 L 33661 5482 L 33661 4554" stroke="#000000" stroke-width="50" fill="none" stroke-linecap="round" stroke-linejoin="round"/>
<path d="M 32846 466 L 32849 464 L 32863 464 L 32881 464 L 32904 464 L 32932 464 L 32962 471 L 32992 478 L 33026 484 L 33064 494 L 33117 511 L 33170 526 L 33226 540 L 33283 554 L 33347 565 L 33418 572 L 33494 583 L 33572 597 L 33646 607 L 33719 613 L 33782 618 L 33845 621 L 33906 626 L 33974 630 L 34060 631 L 34157 633 L 34263 636 L 34367 638 L 34467 640 L 34553 640 L 34629 638 L 34695 638 L 34756 640 L 34812 640 L 34867 638 L 34916 638 L 34961 640 L 34999 640 L 35035 638 L 35077 638 L 35128 640 L 35191 640 L 35264 638 L 35345 638 L 35431 640 L 35518 640 L 35601 638 L 35677 638 L 35745 640 L 35799 640 L 35846 638 L 35884 645 L 35910 656 L 35935 676 L 35955 699 L 35971 726 L 35981 754 L 35986 787 L 35988 825 L 35988 861 L 35988 899 L 35988 941 L 35988 977 L 35988 1013 L 35988 1051 L 35988 1089 L 35988 1126 L 35988 1167 L 35988 1205 L 35988 1245 L 35988 1281 L 35988 1314 L 35988 1346 L 35988 1376 L 35988 1404 L 35988 1433 L 35988 1463 L 35988 1491 L 35988 1519 L 35988 1549 L 35988 1577 L 35988 1605 L 35988 1635 L 35988 1663 L 35988 1691 L 35988 1721 L 35988 1749 L 35988 1777 L 35985 1807 L 35978 1835 L 35973 1863 L 35963 1886 L 35948 1905 L 35928 1916 L 35905 1923 L 35879 1925 L 35851 1925 L 35821 1923 L 35793 1920 L 35760 1918 L 35728 1916 L 35695 1916 L 35664 1918 L 35631 1918 L 35601 1916 L 35571 1916 L 35543 1918 L 35515 1918 L 35489 1916 L 35477 1916 L 35477 1911 L 35489 1895 L 35508 1870 L 35530 1843 L 35550 1812 L 35571 1782 L 35591 1751 L 35614 1721 L 35641 1696 L 35662 1672 L 35675 1662 L 35674 1670 L 35661 1688 L 35639 1718 L 35616 1751 L 35588 1786 L 35561 1822 L 35536 1850 L 35510 1877 L 35489 1905 L 35479 1928 L 35480 1943 L 35495 1953 L 35518 1958 L 35546 1959 L 35571 1963 L 35594 1966 L 35624 1974 L 35659 1986 L 35690 1996 L 35723 2002 L 35750 2004" stroke="#000000" stroke-width="50.00001" fill="none" stroke-linecap="round" stroke-linejoin="round"/>
<path d="M 32846 3578 L 32849 3576 L 32863 3573 L 32881 3571 L 32904 3570 L 32932 3570 L 32965 3571 L 33005 3571 L 33058 3570 L 33121 3570 L 33190 3571 L 33268 3571 L 33349 3570 L 33431 3570 L 33524 3571 L 33618 3571 L 33711 3570 L 33802 3570 L 33898 3571 L 33989 3571 L 34080 3570 L 34166 3570 L 34257 3571 L 34356 3571 L 34453 3570 L 34562 3570 L 34672 3571 L 34776 3571 L 34873 3570 L 34973 3570 L 35064 3571 L 35143 3571 L 35214 3570 L 35280 3570 L 35333 3571 L 35376 3571 L 35412 3570 L 35444 3570 L 35472 3571 L 35498 3571 L 35525 3570 L 35555 3570 L 35594 3571 L 35639 3571 L 35689 3570 L 35740 3570 L 35793 3571 L 35841 3571 L 35890 3570 L 35938 3570 L 35988 3571 L 36033 3571 L 36077 3570 L 36120 3570 L 36158 3571 L 36193 3571 L 36223 3570 L 36253 3570 L 36281 3571 L 36312 3571 L 36342 3570 L 36372 3570 L 36400 3571 L 36431 3571 L 36467 3570 L 36504 3570 L 36539 3571 L 36570 3571 L 36603 3570 L 36633 3570 L 36663 3571 L 36691 3571 L 36719 3570 L 36749 3570 L 36780 3571 L 36815 3578 L 36848 3590 L 36881 3609 L 36914 3634 L 36950 3664 L 36983 3695 L 37008 3725 L 37025 3753 L 37036 3788 L 37040 3824 L 37041 3859 L 37040 3894 L 37040 3927 L 37040 3958 L 37040 3995 L 37040 4033 L 37040 4072 L 37040 4114 L 37040 4157 L 37036 4205 L 37030 4258 L 37025 4312 L 37015 4362 L 37003 4406 L 36993 4453 L 36985 4496 L 36980 4535 L 36977 4570 L 36974 4603 L 36972 4631 L 36974 4661 L 36974 4691 L 36974 4722 L 36974 4750 L 36974 4780 L 36974 4807 L 36980 4835 L 36990 4861 L 37000 4889 L 37008 4916 L 37013 4942 L 37016 4972 L 37016 5002 L 37015 5033 L 37015 5068 L 37007 5098 L 36987 5121 L 36954 5136 L 36911 5144 L 36868 5151 L 36826 5152 L 36782 5152 L 36739 5151 L 36696 5147 L 36651 5146 L 36610 5144 L 36573 5144 L 36540 5146 L 36509 5146 L 36479 5144 L 36448 5144 L 36421 5146 L 36400 5139 L 36377 5131 L 36355 5121 L 36329 5113 L 36304 5111 L 36277 5108 L 36249 5109 L 36219 5111 L 36191 5111 L 36170 5109" stroke="#000000" stroke-width="50.00001" fill="none" stroke-linecap="round" stroke-linejoin="round"/>
<path d="M 36456 4888 L 36451 4891 L 36438 4898 L 36421 4903 L 36398 4913 L 36377 4928 L 36355 4948 L 36329 4967 L 36304 4987 L 36277 5007 L 36253 5030 L 36229 5053 L 36213 5075 L 36201 5100 L 36196 5126 L 36206 5146 L 36224 5166 L 36249 5182 L 36276 5196 L 36307 5204 L 36337 5207 L 36368 5209 L 36398 5209 L 36423 5210 L 36448 5217 L 36471 5229 L 36496 5239 L 36517 5247" stroke="#000000" stroke-width="50.00001" fill="none" stroke-linecap="round" stroke-linejoin="round"/>
<path d="M 32846 6226 L 32849 6224 L 32863 6224 L 32887 6224 L 32924 6224 L 32975 6224 L 33038 6224 L 33109 6224 L 33193 6224 L 33289 6224 L 33407 6224 L 33550 6224 L 33709 6224 L 33876 6224 L 34055 6224 L 34228 6224 L 34397 6224 L 34553 6224 L 34703 6224 L 34837 6224 L 34969 6224 L 35095 6224 L 35240 6224 L 35416 6224 L 35598 6224 L 35781 6224 L 35958 6224 L 36127 6224 L 36284 6224 L 36428 6224 L 36553 6224 L 36664 6224 L 36760 6224 L 36838 6224 L 36901 6224 L 36955 6224 L 37007 6224 L 37063 6224 L 37122 6224 L 37184 6224 L 37240 6224 L 37291 6224 L 37337 6224 L 37384 6224 L 37427 6224 L 37463 6224 L 37498 6224 L 37529 6224 L 37562 6224 L 37589 6231 L 37609 6241 L 37622 6257 L 37628 6279 L 37632 6307 L 37632 6343 L 37630 6381 L 37627 6419 L 37625 6459 L 37622 6497 L 37620 6537 L 37618 6582 L 37618 6631 L 37620 6681 L 37620 6725 L 37618 6770 L 37618 6813 L 37620 6858 L 37620 6906 L 37618 6959 L 37618 7015 L 37620 7068 L 37620 7116 L 37618 7155 L 37618 7193 L 37620 7230 L 37620 7264 L 37618 7299 L 37618 7332 L 37620 7364 L 37620 7393 L 37618 7428 L 37618 7465 L 37620 7498 L 37620 7532 L 37615 7572 L 37609 7610 L 37605 7646 L 37602 7681 L 37597 7716 L 37592 7749 L 37585 7774 L 37570 7800 L 37551 7828 L 37529 7858 L 37506 7883 L 37476 7901 L 37445 7911 L 37417 7916 L 37384 7918 L 37347 7918 L 37304 7918 L 37263 7918 L 37222 7918 L 37179 7918 L 37141 7918 L 37102 7918 L 37069 7918 L 37038 7918 L 37005 7918 L 36974 7918 L 36944 7918 L 36914 7918 L 36886 7918 L 36858 7918 L 36831 7918 L 36803 7918 L 36787 7914 L 36782 7901 L 36782 7883 L 36792 7860 L 36808 7832 L 36833 7802 L 36861 7772 L 36891 7741 L 36917 7709 L 36942 7680 L 36955 7655 L 36957 7643 L 36950 7643 L 36932 7648 L 36909 7661 L 36884 7683 L 36864 7713 L 36849 7747 L 36833 7779 L 36821 7809 L 36808 7838 L 36792 7866 L 36775 7895 L 36767 7918 L 36768 7939 L 36782 7954 L 36802 7971 L 36831 7989 L 36871 8010 L 36909 8033 L 36945 8053 L 36980 8068 L 37013 8081 L 37043 8096 L 37066 8110" stroke="#000000" stroke-width="50.00001" fill="none" stroke-linecap="round" stroke-linejoin="round"/>
<path d="M 32904 9312 L 32906 9304 L 32909 9297 L 32922 9289 L 32940 9286 L 32967 9284 L 33005 9284 L 33048 9286 L 33094 9286 L 33145 9284 L 33202 9284 L 33253 9286 L 33299 9286 L 33347 9284 L 33390 9284 L 33428 9286 L 33461 9286 L 33498 9284 L 33534 9284 L 33569 9286 L 33603 9286 L 33637 9284 L 33668 9284 L 33698 9289 L 33729 9299 L 33756 9317 L 33777 9343 L 33794 9375 L 33802 9411 L 33815 9446 L 33827 9479 L 33837 9515 L 33845 9552 L 33848 9590 L 33848 9631 L 33847 9671 L 33847 9711 L 33848 9747 L 33848 9780 L 33847 9808 L 33847 9841 L 33848 9876 L 33848 9916 L 33847 9955 L 33840 9995 L 33832 10031 L 33825 10068 L 33818 10099 L 33812 10131 L 33809 10157 L 33805 10185 L 33804 10212 L 33802 10240 L 33802 10266 L 33804 10296 L 33804 10326 L 33802 10357 L 33802 10389 L 33804 10418 L 33804 10446 L 33802 10475 L 33802 10504 L 33804 10536 L 33804 10564 L 33802 10594 L 33802 10623 L 33800 10658 L 33790 10689 L 33769 10713 L 33739 10726 L 33701 10734 L 33656 10737 L 33600 10736 L 33539 10736 L 33471 10736 L 33402 10736 L 33337 10736 L 33276 10736 L 33223 10736 L 33174 10736 L 33127 10736 L 33086 10736 L 33050 10736 L 33018 10736 L 32985 10736 L 32955 10736 L 32925 10736 L 32897 10736 L 32869 10736 L 32843 10736 L 32815 10736 L 32788 10736 L 32760 10736 L 32734 10736 L 32704 10736 L 32674 10736 L 32643 10736 L 32615 10736 L 32601 10732 L 32598 10719 L 32605 10704 L 32620 10688 L 32639 10670 L 32664 10646 L 32691 10620 L 32732 10592 L 32775 10569 L 32810 10554 L 32830 10544 L 32835 10539 L 32825 10541 L 32806 10551 L 32777 10565 L 32744 10587 L 32709 10610 L 32676 10632 L 32644 10656 L 32618 10683 L 32606 10706 L 32606 10729 L 32618 10747 L 32644 10759 L 32676 10769 L 32712 10784 L 32747 10799 L 32780 10815 L 32810 10837 L 32836 10858 L 32854 10885 L 32868 10913 L 32883 10942 L 32899 10967 L 32921 10987 L 32939 11000" stroke="#000000" stroke-width="50.00001" fill="none" stroke-linecap="round" stroke-linejoin="round"/>
<path d="M 5012 20490 L 5010 20488" stroke="#66CC00" stroke-width="350" fill="none" stroke-linecap="round" stroke-linejoin="round"/>
<circle cx="3474" cy="19208" r="175" fill="#66CC00"/>
<path d="M 3474 13284 L 3474 13286" stroke="#E71225" stroke-width="350" fill="none" stroke-linecap="round" stroke-linejoin="round"/>
<path d="M 3796 14596 L 3798 14594" stroke="#E71225" stroke-width="350" fill="none" stroke-linecap="round" stroke-linejoin="round"/>
<path d="M 13104 16473 L 13102 16475 L 13096 16475 L 13084 16473 L 13068 16473 L 13046 16475 L 13025 16475 L 13001 16473 L 12980 16473 L 12955 16475 L 12932 16475 L 12909 16473 L 12884 16473 L 12859 16478 L 12836 16485 L 12815 16493 L 12793 16499 L 12773 16504 L 12752 16508 L 12729 16509 L 12707 16509 L 12684 16513 L 12662 16516 L 12641 16518 L 12621 16519 L 12600 16523 L 12576 16524 L 12555 16529 L 12535 16539 L 12520 16552 L 12510 16571 L 12509 16597 L 12509 16628 L 12514 16662 L 12520 16695 L 12532 16728 L 12542 16761 L 12548 16797 L 12550 16830 L 12557 16865 L 12565 16898 L 12572 16933 L 12578 16969 L 12585 17002 L 12591 17034 L 12598 17060 L 12601 17085 L 12608 17108 L 12613 17128 L 12616 17149 L 12621 17172 L 12624 17194 L 12626 17217 L 12628 17239 L 12628 17260 L 12626 17283 L 12626 17311 L 12628 17340 L 12628 17366 L 12626 17391 L 12626 17414 L 12628 17439 L 12628 17465 L 12626 17493 L 12626 17520 L 12628 17548 L 12628 17574 L 12623 17597 L 12616 17617 L 12611 17636 L 12608 17652 L 12601 17674 L 12596 17697 L 12593 17720 L 12588 17741 L 12578 17760 L 12567 17776 L 12555 17793 L 12545 17811 L 12537 17832 L 12532 17855 L 12525 17879 L 12515 17897 L 12499 17912 L 12471 17922 L 12433 17928 L 12386 17930 L 12337 17930 L 12290 17928 L 12242 17925 L 12190 17923 L 12138 17922 L 12082 17922 L 12027 17923 L 11973 17923 L 11917 17922 L 11865 17922 L 11824 17923 L 11791 17923 L 11765 17922 L 11748 17922 L 11745 17923 L 11746 17920 L 11755 17912 L 11768 17898 L 11786 17879 L 11809 17855 L 11834 17832 L 11857 17811 L 11879 17789 L 11897 17766 L 11913 17748 L 11927 17730 L 11938 17710 L 11948 17692" stroke="#000000" stroke-width="50.00001" fill="none" stroke-linecap="round" stroke-linejoin="round"/>
<path d="M 11790 17895 L 11787 17900 L 11783 17913 L 11788 17933 L 11803 17953 L 11823 17969 L 11850 17986 L 11879 18004 L 11909 18026 L 11940 18049 L 11972 18069 L 12002 18087 L 12026 18100" stroke="#000000" stroke-width="50.00001" fill="none" stroke-linecap="round" stroke-linejoin="round"/>
<path d="M 5450 7553 L 5452 7551 L 5462 7555 L 5476 7563 L 5496 7574 L 5518 7591 L 5538 7611 L 5556 7629 L 5579 7652 L 5610 7677 L 5652 7703 L 5691 7732 L 5728 7758 L 5768 7789 L 5806 7819 L 5839 7847 L 5867 7875 L 5890 7902 L 5905 7927 L 5913 7950 L 5916 7971 L 5918 7995 L 5916 8018 L 5916 8042 L 5913 8067 L 5903 8094 L 5888 8125 L 5867 8155 L 5844 8183 L 5819 8209 L 5797 8233 L 5777 8256 L 5758 8277 L 5738 8299 L 5711 8319 L 5678 8340 L 5645 8357 L 5615 8372 L 5592 8385" stroke="#000000" stroke-width="50.00001" fill="none" stroke-linecap="round" stroke-linejoin="round"/></svg>