<svg xmlns="http://www.w3.org/2000/svg" width="5856" height="32170" viewBox="0 0 5856 32170"><path d="M 4404 35 L 4404 10 L 4396 10 L 4392 10 L 4384 10 L 4371 10 L 4354 10 L 4340 10 L 4320 10 L 4298 10 L 4278 10 L 4254 10 L 4229 10 L 4204 10 L 4176 10 L 4151 10 L 4128 10 L 4105 10 L 4087 10 L 4068 10 L 4055 10 L 4045 12 L 4037 14 L 4029 17 L 4022 20 L 4022 25 L 4020 30 L 4014 35 L 4012 40 L 4009 50 L 4009 58 L 4007 70 L 4007 81 L 4004 98 L 4004 113 L 4001 129 L 3999 147 L 3999 166 L 3996 184 L 3996 199 L 3994 217 L 3994 232 L 3994 247 L 3994 258 L 3994 271 L 3994 281 L 3994 290 L 3994 295 L 3994 300 L 3994 305 L 3994 308 L 3994 310 L 4017 310 L 4040 310 L 4063 310 L 4095 310 L 4110 310 L 4129 318 L 4151 323 L 4171 334 L 4196 346 L 4215 362 L 4237 379 L 4257 399 L 4275 419 L 4275 438 L 4298 462 L 4298 480 L 4298 501 L 4298 520 L 4298 536 L 4293 553 L 4278 566 L 4257 574 L 4237 584 L 4211 591 L 4182 599 L 4156 604 L 4128 610 L 4113 615 L 4090 619 L 4067 624 L 4048 629 L 4035 632 L 4027 634 L 4025 639" stroke="#FF0000" stroke-width="35" fill="none" stroke-linecap="round" stroke-linejoin="round"/>
<path d="M 4472 131 L 4472 131 L 4469 106 L 4467 106 L 4464 106 L 4462 106 L 4459 106 L 4459 76 L 4480 76 L 4480 52 L 4505 52 L 4525 52 L 4550 55 L 4550 58 L 4576 65 L 4576 68 L 4604 76 L 4604 86 L 4624 95 L 4624 108 L 4647 121 L 4647 141 L 4672 162 L 4672 189 L 4687 222 L 4687 253 L 4687 286 L 4687 321 L 4687 361 L 4687 397 L 4684 437 L 4680 475 L 4675 511 L 4675 546 L 4674 582 L 4665 612 L 4659 637 L 4652 657 L 4647 672 L 4647 685 L 4647 698 L 4647 710 L 4647 715 L 4647 721" stroke="#FF0000" stroke-width="35" fill="none" stroke-linecap="round" stroke-linejoin="round"/>
<path d="M 4762 507 L 4762 507 L 4762 471 L 4780 471 L 4779 444 L 4770 444 L 4755 444 L 4734 444 L 4707 444 L 4673 444 L 4633 444 L 4590 444 L 4544 444 L 4502 444 L 4458 444 L 4413 444" stroke="#FF0000" stroke-width="35" fill="none" stroke-linecap="round" stroke-linejoin="round"/>
<path d="M 3908 6019 L 3925 6019 L 3925 5993 L 3921 5993 L 3916 5993 L 3913 5993 L 3908 5993 L 3903 5993 L 3898 5993 L 3893 5993 L 3887 5968 L 3883 5968 L 3878 5968 L 3870 5936 L 3867 5936 L 3865 5912 L 3865 5883 L 3891 5854 L 3911 5854 L 3911 5816 L 3939 5816 L 3958 5816 L 3976 5816 L 3996 5816 L 4017 5821 L 4037 5832 L 4037 5849 L 4063 5869 L 4063 5888 L 4063 5915 L 4063 5943 L 4063 5971 L 4063 6002 L 4054 6036 L 4042 6065 L 4025 6095 L 4004 6126 L 3982 6156 L 3963 6188 L 3934 6216 L 3908 6244 L 3885 6270 L 3865 6295 L 3845 6318 L 3830 6337 L 3820 6355 L 3812 6371 L 3810 6384 L 3810 6394 L 3810 6401 L 3810 6403 L 3810 6404 L 3830 6404 L 3852 6404 L 3870 6404 L 3887 6404 L 3908 6404 L 3926 6376 L 3953 6376 L 3979 6376 L 4001 6376 L 4027 6376 L 4054 6376 L 4077 6376 L 4097 6376 L 4118 6376 L 4136 6376" stroke="#FF0000" stroke-width="35" fill="none" stroke-linecap="round" stroke-linejoin="round"/>
<path d="M 4408 5935 L 4425 5890 L 4425 5852 L 4425 5824 L 4420 5824 L 4406 5824 L 4391 5824 L 4375 5824 L 4357 5828 L 4334 5839 L 4310 5856 L 4287 5880 L 4269 5902 L 4249 5935 L 4231 5963 L 4215 5998 L 4203 6034 L 4196 6074 L 4195 6114 L 4195 6150 L 4195 6186 L 4195 6221 L 4224 6251 L 4243 6281 L 4266 6304 L 4292 6322 L 4324 6337 L 4353 6343 L 4385 6347 L 4413 6347 L 4439 6347 L 4466 6347 L 4487 6347 L 4502 6312 L 4502 6284 L 4502 6253 L 4499 6253 L 4482 6226 L 4458 6226 L 4433 6226 L 4408 6226 L 4385 6229 L 4360 6238 L 4337 6248 L 4315 6259" stroke="#FF0000" stroke-width="35" fill="none" stroke-linecap="round" stroke-linejoin="round"/>
<path d="M 4108 10671 L 4108 10631 L 4108 10600 L 4108 10573 L 4125 10573 L 4123 10573 L 4123 10547 L 4121 10547 L 4118 10547 L 4115 10547 L 4110 10547 L 4108 10547 L 4105 10547 L 4105 10559 L 4105 10577 L 4105 10598 L 4105 10625 L 4105 10654 L 4105 10686 L 4105 10719 L 4105 10737 L 4105 10772 L 4105 10808 L 4105 10843 L 4105 10881 L 4105 10914 L 4105 10942 L 4105 10965 L 4105 10984 L 4105 10990 L 4105 10992 L 4101 10992 L 4096 10962 L 4096 10911 L 4095 10883 L 4095 10851 L 4091 10820 L 4091 10792 L 4091 10760 L 4091 10729 L 4091 10699 L 4091 10674 L 4091 10676 L 4091 10628 L 4087 10643 L 4080 10668 L 4068 10691 L 4058 10717 L 4042 10744 L 4029 10772 L 4014 10797 L 3999 10825 L 3981 10853 L 3967 10879 L 3954 10901 L 3948 10917" stroke="#FF0000" stroke-width="35" fill="none" stroke-linecap="round" stroke-linejoin="round"/>
<path d="M 4610 10709 L 4610 10681 L 4628 10649 L 4628 10625 L 4623 10625 L 4613 10625 L 4608 10625 L 4597 10625 L 4587 10630 L 4572 10638 L 4554 10640 L 4531 10641 L 4504 10641 L 4479 10645 L 4450 10648 L 4421 10651 L 4395 10653 L 4374 10659 L 4347 10659 L 4329 10661 L 4311 10664 L 4293 10664 L 4279 10664 L 4269 10664 L 4261 10664 L 4253 10664 L 4251 10664 L 4250 10664 L 4250 10669 L 4250 10674 L 4250 10681 L 4250 10694 L 4250 10702 L 4250 10717 L 4250 10734 L 4250 10749 L 4250 10765 L 4250 10783 L 4250 10797 L 4250 10810 L 4269 10826 L 4269 10843 L 4269 10853 L 4269 10859 L 4269 10868 L 4269 10871 L 4284 10871 L 4311 10871 L 4332 10845 L 4362 10845 L 4378 10845 L 4402 10845 L 4421 10845 L 4450 10845 L 4476 10845 L 4503 10846 L 4524 10861 L 4550 10881 L 4575 10902 L 4592 10927 L 4592 10954 L 4613 10984 L 4613 11015 L 4613 11040 L 4613 11061 L 4603 11081 L 4587 11094 L 4564 11103 L 4537 11109 L 4507 11109 L 4479 11109 L 4450 11109 L 4426 11109 L 4403 11109 L 4383 11109 L 4367 11109" stroke="#FF0000" stroke-width="35" fill="none" stroke-linecap="round" stroke-linejoin="round"/>
<path d="M 3466 15347 L 3463 15347 L 3458 15319 L 3454 15319 L 3453 15319 L 3449 15319 L 3445 15292 L 3441 15292 L 3440 15292 L 3436 15292 L 3433 15292 L 3431 15292 L 3428 15292 L 3426 15292 L 3425 15292 L 3418 15292 L 3413 15292 L 3408 15292 L 3400 15292 L 3392 15292 L 3380 15292 L 3367 15292 L 3349 15299 L 3332 15304 L 3307 15312 L 3282 15321 L 3254 15330 L 3225 15339 L 3196 15347 L 3173 15355 L 3149 15365 L 3124 15370 L 3099 15378 L 3077 15387 L 3058 15397 L 3041 15402 L 3028 15408 L 3020 15416 L 3018 15425 L 3016 15430 L 3016 15438 L 3016 15448 L 3016 15454 L 3016 15464 L 3016 15481 L 3016 15493 L 3036 15507 L 3036 15522 L 3036 15537 L 3054 15550 L 3054 15565 L 3054 15579 L 3054 15592 L 3054 15605 L 3072 15615 L 3072 15622 L 3072 15631 L 3072 15636 L 3072 15638 L 3072 15640 L 3091 15640 L 3115 15640 L 3147 15640 L 3165 15613 L 3183 15613 L 3203 15613 L 3230 15613 L 3258 15613 L 3289 15615 L 3324 15626 L 3357 15631 L 3387 15645 L 3420 15663 L 3446 15688 L 3468 15711 L 3468 15737 L 3491 15765 L 3491 15792 L 3487 15815 L 3481 15836 L 3471 15855 L 3449 15868 L 3425 15879 L 3392 15888 L 3359 15893 L 3320 15894 L 3284 15894 L 3248 15894 L 3215 15894 L 3187 15894 L 3162 15894 L 3149 15894" stroke="#FF0000" stroke-width="35" fill="none" stroke-linecap="round" stroke-linejoin="round"/>
<path d="M 3620 15533 L 3620 15533 L 3620 15497 L 3620 15462 L 3615 15462 L 3608 15462 L 3600 15462 L 3592 15437 L 3582 15437 L 3570 15437 L 3562 15444 L 3556 15454 L 3551 15464 L 3547 15482 L 3546 15498 L 3546 15518 L 3546 15535 L 3546 15553 L 3546 15569 L 3567 15578 L 3567 15584 L 3595 15591 L 3612 15591 L 3633 15591 L 3656 15591 L 3683 15591 L 3706 15559 L 3731 15559 L 3751 15528 L 3770 15528 L 3787 15488 L 3809 15447 L 3809 15419 L 3804 15419 L 3792 15419 L 3780 15419 L 3762 15419 L 3742 15419 L 3718 15427 L 3699 15437" stroke="#FF0000" stroke-width="35" fill="none" stroke-linecap="round" stroke-linejoin="round"/>
<path d="M 3682 15479 L 3710 15479 L 3728 15479 L 3728 15449 L 3750 15451 L 3750 15456 L 3750 15464 L 3750 15482 L 3750 15505 L 3750 15534 L 3766 15567 L 3766 15601 L 3766 15641 L 3766 15681 L 3766 15722 L 3766 15763 L 3766 15806 L 3766 15848 L 3766 15884 L 3785 15917 L 3785 15949 L 3785 15975 L 3785 15998 L 3785 16016 L 3808 16033 L 3808 16048 L 3808 16059 L 3834 16069" stroke="#FF0000" stroke-width="35" fill="none" stroke-linecap="round" stroke-linejoin="round"/>
<path d="M 4124 15701 L 4124 15701 L 4116 15670 L 4112 15670 L 4109 15643 L 4098 15643 L 4088 15613 L 4078 15613 L 4064 15582 L 4050 15582 L 4036 15552 L 4023 15552 L 4013 15526 L 4008 15526 L 4000 15526 L 3997 15491 L 4021 15491 L 4055 15491 L 4074 15498 L 4098 15516 L 4121 15542 L 4139 15570 L 4154 15602 L 4154 15638 L 4154 15670 L 4154 15709 L 4154 15749 L 4154 15784 L 4152 15818 L 4139 15848 L 4121 15875 L 4098 15898 L 4074 15916 L 4055 15929 L 4030 15939 L 4013 15949 L 3995 15954 L 3982 15957 L 3974 15961 L 4002 15961 L 4028 15961 L 4056 15961 L 4083 15961 L 4116 15962 L 4152 15964 L 4185 15964 L 4222 15967 L 4255 15971 L 4291 15972 L 4327 15976" stroke="#FF0000" stroke-width="35" fill="none" stroke-linecap="round" stroke-linejoin="round"/>
<path d="M 4258 20025 L 4258 20025 L 4275 20025 L 4271 20025 L 4268 20025 L 4266 20028 L 4263 20037 L 4263 20050 L 4263 20068 L 4263 20091 L 4263 20124 L 4263 20166 L 4263 20210 L 4281 20255 L 4281 20308 L 4281 20364 L 4281 20420 L 4304 20476 L 4304 20534 L 4304 20591 L 4304 20642 L 4304 20690 L 4322 20729 L 4322 20761 L 4322 20779 L 4322 20789 L 4318 20789" stroke="#FF0000" stroke-width="35" fill="none" stroke-linecap="round" stroke-linejoin="round"/>
<path d="M 4290 20487 L 4308 20457 L 4305 20457 L 4297 20457 L 4282 20461 L 4264 20467 L 4240 20472 L 4212 20475 L 4179 20482 L 4144 20489 L 4106 20492 L 4072 20495 L 4030 20497 L 3992 20499 L 3956 20499 L 3923 20499 L 3895 20499 L 3872 20499 L 3855 20470 L 3845 20470 L 3842 20441 L 3842 20399 L 3867 20355 L 3867 20330 L 3888 20302 L 3905 20275 L 3905 20251 L 3930 20221 L 3930 20178 L 3930 20140" stroke="#FF0000" stroke-width="35" fill="none" stroke-linecap="round" stroke-linejoin="round"/>
<path d="M 2392 26643 L 2379 26643 L 2366 26643 L 2359 26643 L 2351 26615 L 2344 26615 L 2337 26615 L 2336 26615 L 2331 26615 L 2328 26615 L 2328 26590 L 2344 26590 L 2361 26590 L 2384 26590 L 2402 26590 L 2432 26590 L 2452 26590 L 2473 26590 L 2493 26590 L 2516 26590 L 2536 26590 L 2562 26590 L 2585 26590 L 2609 26597 L 2632 26603 L 2657 26618 L 2676 26635 L 2698 26655 L 2714 26679 L 2714 26706 L 2744 26736 L 2744 26769 L 2764 26807 L 2764 26843 L 2764 26884 L 2786 26926 L 2786 26969 L 2786 27013 L 2786 27056 L 2786 27098 L 2786 27136 L 2786 27171 L 2786 27200 L 2782 27230 L 2782 27258 L 2779 27281 L 2779 27301 L 2779 27321 L 2774 27339 L 2774 27354 L 2774 27366 L 2774 27377" stroke="#FF0000" stroke-width="35" fill="none" stroke-linecap="round" stroke-linejoin="round"/>
<path d="M 2810 27055 L 2810 27055 L 2810 27022 L 2805 27022 L 2792 27022 L 2774 27022 L 2750 27022 L 2722 27022 L 2691 27027 L 2663 27034 L 2630 27040 L 2603 27048 L 2570 27057 L 2539 27065 L 2511 27072 L 2489 27081" stroke="#FF0000" stroke-width="35" fill="none" stroke-linecap="round" stroke-linejoin="round"/>
<path d="M 2928 27015 L 2948 27015 L 2948 26985 L 2964 26985 L 2964 26987 L 2964 26995 L 2986 27005 L 2986 27020 L 2986 27035 L 3002 27055 L 3002 27078 L 3019 27099 L 3019 27124 L 3019 27146 L 3049 27170 L 3067 27190 L 3090 27205 L 3113 27213 L 3133 27217 L 3160 27217 L 3188 27217 L 3214 27217 L 3241 27217 L 3265 27172 L 3284 27172 L 3302 27126 L 3302 27096 L 3323 27068 L 3323 27041 L 3323 26997 L 3312 26997 L 3297 26997 L 3274 26997 L 3249 26997 L 3216 26997 L 3183 26997 L 3148 27015 L 3118 27036" stroke="#FF0000" stroke-width="35" fill="none" stroke-linecap="round" stroke-linejoin="round"/>
<path d="M 3472 26861 L 3454 26861 L 3439 26861 L 3424 26828 L 3404 26828 L 3389 26828 L 3376 26798 L 3361 26798 L 3348 26798 L 3340 26773 L 3335 26773 L 3331 26773 L 3331 26744 L 3363 26744 L 3383 26744 L 3408 26744 L 3439 26745 L 3470 26752 L 3503 26758 L 3540 26768 L 3573 26775 L 3608 26790 L 3637 26805 L 3665 26821 L 3687 26838 L 3687 26858 L 3707 26878 L 3707 26899 L 3707 26917 L 3705 26934 L 3695 26952 L 3684 26967 L 3670 26982 L 3656 26995 L 3642 27010 L 3629 27021 L 3619 27031 L 3611 27043 L 3609 27054 L 3609 27068 L 3609 27081 L 3609 27093 L 3632 27111 L 3651 27126 L 3670 27145 L 3689 27165 L 3689 27187 L 3717 27212 L 3717 27236 L 3738 27264 L 3738 27294 L 3738 27324 L 3738 27352 L 3737 27380 L 3723 27405 L 3699 27430 L 3674 27446 L 3646 27461 L 3614 27479 L 3581 27483 L 3550 27489 L 3523 27496 L 3503 27496" stroke="#FF0000" stroke-width="35" fill="none" stroke-linecap="round" stroke-linejoin="round"/>
<path d="M 4098 27093 L 4098 27058 L 4091 27058 L 4083 27017 L 4072 27017 L 4065 26976 L 4055 26976 L 4042 26938 L 4034 26938 L 4025 26900 L 4019 26900 L 4015 26865 L 4014 26865 L 4014 26832 L 4014 26802 L 4034 26802 L 4057 26802 L 4096 26802 L 4113 26802 L 4134 26802 L 4134 26817 L 4162 26838 L 4162 26863 L 4184 26891 L 4184 26921 L 4184 26954 L 4179 26987 L 4171 27020 L 4158 27055 L 4139 27086 L 4116 27116 L 4098 27143 L 4075 27167 L 4055 27186 L 4034 27200 L 4019 27214 L 4009 27224 L 4000 27235 L 4000 27243 L 4000 27253 L 4000 27263 L 4025 27273 L 4043 27283 L 4067 27291 L 4096 27301 L 4121 27311 L 4154 27320 L 4189 27325 L 4222 27331" stroke="#FF0000" stroke-width="35" fill="none" stroke-linecap="round" stroke-linejoin="round"/>
<path d="M 5108 26771 L 5083 26735 L 5057 26735 L 5039 26697 L 5022 26697 L 5014 26654 L 5007 26654 L 5007 26602 L 5007 26556 L 5039 26520 L 5060 26520 L 5083 26520 L 5113 26492 L 5139 26492 L 5176 26492 L 5212 26492 L 5247 26492 L 5278 26505 L 5306 26526 L 5341 26548 L 5364 26573 L 5364 26602 L 5383 26634 L 5383 26665 L 5379 26702 L 5369 26740 L 5356 26773 L 5340 26806 L 5315 26835 L 5285 26867 L 5255 26895 L 5227 26915 L 5199 26935 L 5171 26950 L 5149 26963 L 5131 26974 L 5118 26984 L 5116 26996 L 5116 27004 L 5116 27014 L 5116 27024 L 5144 27034 L 5144 27049 L 5181 27062 L 5201 27077 L 5222 27090 L 5244 27103 L 5260 27117" stroke="#FF0000" stroke-width="35" fill="none" stroke-linecap="round" stroke-linejoin="round"/>
<path d="M 5322 27353 L 5322 27358 L 5342 27358 L 5342 27363 L 5342 27365 L 5342 27366" stroke="#FF0000" stroke-width="35" fill="none" stroke-linecap="round" stroke-linejoin="round"/>
<path d="M 5630 26761 L 5625 26761 L 5617 26726 L 5613 26726 L 5605 26690 L 5600 26690 L 5597 26657 L 5589 26657 L 5589 26622 L 5585 26589 L 5585 26558 L 5612 26558 L 5643 26526 L 5660 26526 L 5681 26526 L 5701 26526 L 5723 26529 L 5742 26538 L 5761 26551 L 5761 26569 L 5789 26592 L 5789 26622 L 5789 26650 L 5789 26682 L 5789 26715 L 5789 26746 L 5780 26778 L 5764 26811 L 5746 26842 L 5726 26872 L 5701 26902 L 5680 26928 L 5655 26951 L 5635 26973 L 5617 26993 L 5605 27011 L 5599 27029 L 5597 27049 L 5597 27065 L 5597 27082 L 5597 27098 L 5618 27117 L 5618 27133" stroke="#FF0000" stroke-width="35" fill="none" stroke-linecap="round" stroke-linejoin="round"/>
<path d="M 5846 27409 L 5838 27409 L 5834 27409 L 5828 27409 L 5826 27383 L 5821 27383 L 5818 27383 L 5813 27383 L 5810 27383 L 5805 27354 L 5801 27354" stroke="#FF0000" stroke-width="35" fill="none" stroke-linecap="round" stroke-linejoin="round"/>
<path d="M 1018 29205 L 1015 29205 L 1010 29205 L 1005 29205 L 1000 29205 L 995 29205 L 988 29205 L 987 29179 L 982 29179 L 978 29179 L 975 29179 L 973 29179" stroke="#FF0000" stroke-width="35" fill="none" stroke-linecap="round" stroke-linejoin="round"/>
<path d="M 2298 31745 L 2290 31719 L 2281 31719 L 2277 31689 L 2270 31689 L 2268 31689 L 2265 31662 L 2263 31662 L 2260 31662 L 2258 31638 L 2255 31638 L 2250 31638 L 2250 31611 L 2245 31611 L 2242 31611 L 2237 31611 L 2237 31581 L 2235 31581 L 2232 31581 L 2230 31581 L 2224 31581 L 2222 31581 L 2219 31581 L 2214 31581 L 2210 31581 L 2209 31581 L 2205 31586 L 2205 31599 L 2202 31616 L 2202 31636 L 2197 31652 L 2195 31671 L 2194 31689 L 2194 31704 L 2194 31724 L 2194 31737 L 2194 31748 L 2194 31762 L 2194 31768 L 2194 31771 L 2194 31740 L 2194 31707 L 2194 31666 L 2214 31666 L 2214 31634 L 2232 31634 L 2232 31649 L 2250 31666 L 2250 31692 L 2250 31719 L 2277 31745 L 2277 31771 L 2277 31800 L 2301 31824 L 2301 31849 L 2301 31867 L 2323 31881 L 2323 31884 L 2339 31884 L 2339 31849 L 2364 31849 L 2364 31805 L 2364 31778 L 2364 31752 L 2381 31752 L 2381 31704 L 2381 31672 L 2401 31672 L 2401 31676 L 2401 31689 L 2401 31710 L 2419 31738 L 2419 31771 L 2419 31809 L 2419 31849 L 2434 31891 L 2434 31930 L 2434 31968 L 2434 32001 L 2434 32021 L 2457 32033 L 2475 31980 L 2475 31943 L 2475 31891 L 2473 31836 L 2473 31778 L 2468 31720 L 2467 31662 L 2465 31611 L 2465 31566 L 2465 31538 L 2462 31507 L 2460 31507 L 2457 31512 L 2453 31525 L 2452 31548 L 2452 31580 L 2452 31616 L 2452 31659 L 2452 31704 L 2452 31745 L 2452 31783 L 2473 31813 L 2473 31833 L 2473 31836 L 2490 31836 L 2490 31793 L 2490 31755 L 2511 31714 L 2511 31672 L 2511 31634 L 2511 31595 L 2530 31565 L 2530 31520 L 2549 31535 L 2549 31553 L 2549 31583 L 2549 31619 L 2571 31652 L 2571 31685 L 2571 31717 L 2571 31745 L 2571 31765 L 2589 31776 L 2589 31781 L 2607 31781 L 2607 31747 L 2630 31699 L 2630 31656 L 2649 31656 L 2649 31666 L 2665 31684 L 2665 31710 L 2665 31740 L 2665 31766 L 2665 31800 L 2685 31831 L 2685 31857 L 2685 31882 L 2682 31895 L 2682 31902 L 2700 31857 L 2698 31823 L 2698 31788 L 2698 31752 L 2698 31717 L 2698 31679 L 2698 31651 L 2698 31614 L 2715 31614 L 2733 31614 L 2733 31619 L 2733 31636 L 2756 31659 L 2756 31684 L 2756 31717 L 2773 31755 L 2773 31790 L 2773 31823 L 2773 31852 L 2773 31881 L 2773 31892 L 2773 31899 L 2773 31902 L 2764 31902 L 2759 31902 L 2751 31876 L 2744 31876 L 2733 31839 L 2726 31839 L 2718 31805 L 2710 31805 L 2703 31771 L 2690 31771 L 2685 31771 L 2677 31738 L 2672 31738 L 2663 31738 L 2657 31738 L 2650 31738 L 2649 31738 L 2640 31747 L 2632 31753 L 2624 31762 L 2616 31768 L 2604 31776 L 2599 31783 L 2591 31788 L 2581 31795 L 2576 31800 L 2573 31800 L 2564 31805 L 2554 31806 L 2553 31808 L 2549 31808 L 2568 31808 L 2568 31778 L 2594 31778 L 2622 31750 L 2657 31750 L 2687 31722 L 2710 31722 L 2710 31695 L 2698 31695 L 2678 31695 L 2652 31695 L 2622 31666 L 2577 31666 L 2531 31666 L 2480 31666 L 2420 31666 L 2364 31634 L 2305 31634 L 2250 31634 L 2210 31634 L 2162 31601 L 2113 31601 L 2076 31601 L 2053 31601 L 2038 31601 L 2033 31601 L 2033 31609 L 2062 31616 L 2088 31626 L 2126 31642 L 2169 31654 L 2224 31672 L 2281 31692 L 2338 31712 L 2397 31735 L 2457 31760 L 2520 31783 L 2577 31808 L 2635 31831 L 2685 31852 L 2733 31872 L 2769 31891 L 2806 31907 L 2832 31922 L 2849 31932 L 2849 31938 L 2849 31945 L 2842 31945 L 2816 31945 L 2787 31945 L 2751 31945 L 2706 31915 L 2660 31915 L 2612 31889 L 2564 31889 L 2520 31861 L 2473 31861 L 2434 31834 L 2401 31834 L 2374 31834 L 2366 31834 L 2364 31834 L 2379 31834 L 2405 31844 L 2440 31861 L 2490 31882 L 2549 31902 L 2612 31925 L 2678 31953 L 2746 31980 L 2811 32006 L 2873 32033 L 2930 32056 L 2976 32081 L 3007 32097 L 3032 32110 L 3032 32115 L 3032 32117 L 3016 32117 L 2983 32117 L 2936 32117 L 2883 32079 L 2821 32079 L 2756 32041 L 2692 32041 L 2624 31996 L 2561 31996 L 2493 31952 L 2440 31952 L 2389 31912 L 2346 31912 L 2318 31882 L 2293 31882 L 2286 31882 L 2305 31882 L 2331 31895 L 2366 31909 L 2402 31925 L 2440 31945 L 2482 31965 L 2530 31988 L 2573 32011 L 2617 32033 L 2652 32054 L 2682 32072 L 2703 32087 L 2703 32092 L 2703 32094 L 2700 32094 L 2685 32094 L 2657 32094 L 2619 32094 L 2581 32056 L 2531 32056 L 2482 32020 L 2432 32020 L 2377 31980 L 2324 31980 L 2277 31938 L 2235 31938 L 2204 31904 L 2182 31904 L 2172 31904 L 2204 31904 L 2224 31910 L 2250 31924 L 2278 31935 L 2310 31952 L 2344 31965 L 2374 31977 L 2402 31986 L 2424 31993 L 2439 31993 L 2434 31993 L 2415 31952 L 2394 31952 L 2372 31907 L 2348 31881 L 2328 31856 L 2310 31829 L 2291 31801 L 2278 31801 L 2268 31762 L 2268 31732 L 2290 31732 L 2311 31732 L 2336 31732 L 2364 31732 L 2392 31732 L 2420 31733 L 2448 31738 L 2467 31745 L 2490 31747 L 2506 31748 L 2530 31748 L 2521 31719 L 2508 31719 L 2493 31692 L 2475 31692 L 2452 31664 L 2425 31664 L 2402 31629 L 2377 31629 L 2356 31603 L 2344 31603 L 2324 31603 L 2318 31568 L 2336 31568 L 2356 31568 L 2377 31570 L 2401 31580 L 2425 31588 L 2448 31595 L 2473 31601 L 2498 31611 L 2520 31614 L 2539 31614 L 2563 31614 L 2553 31614 L 2536 31614 L 2520 31581 L 2490 31581 L 2460 31581 L 2424 31547 L 2387 31547 L 2348 31517 L 2311 31517 L 2278 31517 L 2248 31490 L 2217 31490 L 2194 31490" stroke="#FF0000" stroke-width="35" fill="none" stroke-linecap="round" stroke-linejoin="round"/>
<path d="M 276 31701 L 271 31703 L 263 31708 L 255 31711 L 246 31711 L 233 31711 L 220 31711 L 207 31711 L 193 31711 L 175 31711 L 160 31683 L 142 31683 L 124 31683 L 106 31648 L 87 31648 L 69 31617 L 51 31617 L 36 31585 L 23 31585 L 16 31541 L 10 31541 L 10 31504 L 10 31465 L 28 31465 L 46 31435 L 69 31435 L 96 31435 L 126 31435 L 160 31435 L 193 31435 L 233 31435 L 268 31435 L 302 31456 L 331 31484 L 357 31512 L 377 31551 L 377 31589 L 397 31633 L 397 31675 L 397 31716 L 390 31762 L 380 31805 L 364 31845 L 340 31883 L 317 31918 L 294 31949 L 271 31976 L 251 31997 L 226 32015 L 208 32032 L 192 32043 L 183 32053 L 173 32058 L 165 32065 L 164 32068 L 164 32070 L 164 32073 L 180 32075 L 180 32080 L 207 32083 L 225 32086 L 225 32090 L 255 32095 L 276 32100 L 301 32101 L 321 32103 L 344 32104 L 372 32104 L 400 32104 L 431 32104 L 463 32104 L 491 32104" stroke="#FF0000" stroke-width="35" fill="none" stroke-linecap="round" stroke-linejoin="round"/>
<path d="M 680 31765 L 675 31765 L 672 31765 L 667 31765 L 660 31765 L 655 31765 L 649 31765 L 649 31739 L 644 31740 L 644 31744 L 667 31715 L 685 31715 L 685 31686 L 708 31686 L 743 31686 L 763 31686 L 784 31686 L 809 31691 L 832 31696 L 855 31709 L 877 31734 L 898 31760 L 918 31791 L 935 31826 L 955 31861 L 955 31897 L 976 31932 L 976 31965 L 998 31992 L 998 32016 L 998 32035 L 998 32048 L 998 32049 L 998 32011 L 998 31987 L 998 31958 L 998 31925 L 1016 31894 L 1016 31863 L 1016 31829 L 1016 31801 L 1042 31753 L 1069 31753 L 1093 31753 L 1118 31763 L 1118 31783 L 1145 31806 L 1145 31834 L 1168 31861 L 1168 31889 L 1186 31917 L 1186 31944 L 1206 31970 L 1206 31993 L 1206 32015 L 1226 32033 L 1226 32051 L 1226 32064 L 1244 32079 L 1244 32096 L 1259 32117 L 1259 32139 L 1285 32160" stroke="#FF0000" stroke-width="35" fill="none" stroke-linecap="round" stroke-linejoin="round"/></svg>