<svg xmlns="http://www.w3.org/2000/svg" width="17512" height="42183" viewBox="0 0 17512 42183"><path d="M 15806 10 L 10 1719" stroke="#FF0000" stroke-width="35" fill="none" stroke-linecap="round" stroke-linejoin="round"/>
<path d="M 205 1810 L 10 1719 L 188 1586" stroke="#FF0000" stroke-width="35" fill="none" stroke-linecap="round" stroke-linejoin="round"/>
<path d="M 8912 39015 L 8912 38999 L 8912 38991 L 8910 38989 L 8908 38989 L 8908 38987 L 8906 38985 L 8904 38983 L 8904 38983 L 8902 38981 L 8900 38979 L 8898 38979 L 8896 38977 L 8894 38977 L 8892 38975 L 8892 38975 L 8890 38975 L 8888 38973 L 8886 38973 L 8884 38973 L 8882 38971 L 8880 38971 L 8878 38971 L 8876 38971 L 8874 38971 L 8872 38971 L 8870 38971 L 8864 38971 L 8782 38973 L 8752 38973 L 8734 38973 L 8710 38973 L 8686 38973 L 8662 38975 L 8612 38981 L 8608 38983 L 8602 38983 L 8598 38985 L 8592 38987 L 8586 38989 L 8582 38991 L 8578 38993 L 8572 38995 L 8568 38997 L 8564 39001 L 8558 39003 L 8554 39007 L 8550 39009 L 8546 39013 L 8542 39017 L 8538 39021 L 8536 39025 L 8532 39029 L 8528 39033 L 8520 39047 L 8520 39049 L 8518 39053 L 8516 39057 L 8516 39059 L 8514 39063 L 8514 39067 L 8514 39069 L 8512 39073 L 8512 39077 L 8512 39081 L 8512 39085 L 8512 39087 L 8512 39091 L 8514 39095 L 8514 39099 L 8514 39101 L 8516 39105 L 8516 39109 L 8520 39115 L 8522 39121 L 8526 39127 L 8528 39131 L 8532 39137 L 8536 39141 L 8540 39145 L 8544 39149 L 8548 39155 L 8552 39159 L 8566 39169 L 8588 39183 L 8612 39195 L 8634 39207 L 8706 39235 L 8720 39239 L 8732 39245 L 8744 39249 L 8756 39255 L 8770 39261 L 8780 39267 L 8812 39289 L 8814 39291 L 8816 39293 L 8818 39293 L 8820 39295 L 8822 39297 L 8824 39299 L 8824 39301 L 8826 39303 L 8828 39305 L 8828 39307 L 8830 39309 L 8832 39311 L 8832 39313 L 8834 39315 L 8834 39317 L 8834 39319 L 8836 39323 L 8836 39325 L 8836 39327 L 8836 39329 L 8836 39331 L 8838 39335 L 8838 39337 L 8836 39339 L 8836 39341 L 8836 39343 L 8836 39347 L 8836 39349 L 8834 39351 L 8834 39353 L 8834 39355 L 8832 39357 L 8832 39361 L 8830 39363 L 8830 39365 L 8828 39367 L 8826 39369 L 8824 39371 L 8824 39373 L 8822 39373 L 8818 39377 L 8810 39385 L 8802 39393 L 8794 39399 L 8784 39405 L 8776 39413 L 8766 39417 L 8756 39423 L 8748 39429 L 8738 39433 L 8726 39437 L 8696 39447 L 8668 39453 L 8638 39459 L 8552 39467 L 8538 39469" stroke="#FF0000" stroke-width="35" fill="none" stroke-linecap="round" stroke-linejoin="round"/>
<path d="M 8990 39033 L 9036 38965 L 9036 38965 L 9036 38965 L 9036 38965 L 9036 38963 L 9036 38963 L 9036 38963 L 9036 38963 L 9036 38963 L 9036 38963 L 9036 38963 L 9036 38961 L 9036 38961 L 9036 38961 L 9038 38961 L 9038 38961 L 9038 38961 L 9038 38961 L 9038 38959 L 9038 38959 L 9038 38959 L 9038 38959 L 9038 38959 L 9040 38959 L 9040 38959 L 9040 38959 L 9040 38959 L 9040 38959 L 9040 38959 L 9042 38959 L 9042 38957 L 9042 38957 L 9042 38957 L 9042 38957 L 9042 38957 L 9042 38957 L 9044 38957 L 9044 38957 L 9044 38957 L 9044 38957 L 9044 38957 L 9044 38957 L 9046 38957 L 9046 38959 L 9046 38959 L 9046 38959 L 9046 38959 L 9046 38959 L 9048 38959 L 9048 38959 L 9048 38959 L 9048 38959 L 9048 38959 L 9048 38959 L 9048 38959 L 9048 38961 L 9050 38961 L 9050 38961 L 9050 38961 L 9050 38961 L 9050 38961 L 9050 38961 L 9050 38963 L 9050 38963 L 9050 38963 L 9050 38963 L 9050 38963 L 9050 38963 L 9052 38981 L 9052 38981 L 9042 39213 L 9026 39365 L 9024 39399 L 9020 39429" stroke="#FF0000" stroke-width="35" fill="none" stroke-linecap="round" stroke-linejoin="round"/>
<path d="M 9160 39325 L 9160 39325 L 9160 39301 L 9156 39301 L 9146 39301 L 9134 39303 L 9116 39307 L 9098 39311 L 9074 39315 L 9050 39317 L 9026 39323 L 9002 39329 L 8980 39333 L 8962 39339 L 8940 39341 L 8922 39347" stroke="#FF0000" stroke-width="35" fill="none" stroke-linecap="round" stroke-linejoin="round"/>
<path d="M 9008 39275 L 9012 39275 L 9018 39275 L 9022 39275 L 9026 39275 L 9030 39273 L 9034 39273 L 9040 39271 L 9044 39271 L 9048 39269 L 9052 39267 L 9056 39265 L 9060 39263 L 9070 39259 L 9072 39257 L 9074 39257 L 9078 39255 L 9080 39255 L 9084 39253 L 9086 39253 L 9090 39253 L 9092 39251 L 9096 39251 L 9098 39251 L 9102 39251 L 9104 39251 L 9108 39251 L 9112 39253 L 9114 39253 L 9118 39253 L 9124 39255 L 9124 39255 L 9126 39257 L 9128 39257 L 9130 39257 L 9132 39257 L 9132 39259 L 9134 39259 L 9136 39261 L 9136 39261 L 9138 39263 L 9140 39263 L 9140 39265 L 9142 39265 L 9144 39267 L 9144 39267 L 9146 39269 L 9146 39271 L 9148 39271 L 9148 39273 L 9150 39275 L 9150 39277 L 9150 39277 L 9152 39279 L 9152 39281 L 9152 39283 L 9152 39283 L 9154 39289 L 9154 39299 L 9154 39309 L 9156 39319 L 9158 39329 L 9160 39339 L 9162 39349 L 9164 39359 L 9172 39381 L 9174 39385 L 9176 39387 L 9176 39391 L 9178 39395 L 9180 39397 L 9182 39401 L 9184 39403 L 9186 39405 L 9188 39409 L 9192 39411 L 9194 39413 L 9196 39415 L 9198 39419 L 9202 39421 L 9204 39423 L 9208 39425 L 9210 39425 L 9214 39427 L 9216 39429 L 9220 39431 L 9224 39431 L 9226 39433 L 9230 39433 L 9240 39435 L 9246 39435 L 9250 39435 L 9256 39435 L 9262 39435 L 9266 39435 L 9272 39433 L 9276 39433 L 9282 39431 L 9288 39429 L 9292 39429 L 9298 39427 L 9302 39425 L 9308 39421 L 9312 39419 L 9316 39417 L 9320 39413 L 9326 39411 L 9334 39403 L 9344 39391 L 9352 39381 L 9362 39371 L 9370 39359 L 9376 39347 L 9392 39321 L 9392 39319 L 9394 39319 L 9394 39317 L 9394 39317 L 9394 39315 L 9396 39315 L 9396 39313 L 9396 39313 L 9396 39311 L 9396 39311 L 9396 39309 L 9398 39309 L 9398 39307 L 9398 39307 L 9398 39305 L 9398 39303 L 9398 39303 L 9398 39301 L 9398 39301 L 9396 39299 L 9396 39297 L 9394 39289 L 9360 39289 L 9354 39289 L 9348 39289 L 9342 39289 L 9336 39291 L 9330 39293 L 9324 39293 L 9318 39295 L 9312 39297 L 9306 39301 L 9290 39309 L 9266 39327 L 9268 39327 L 9270 39327 L 9270 39329 L 9270 39329 L 9270 39329 L 9272 39329 L 9272 39329 L 9272 39329 L 9274 39329 L 9274 39329 L 9274 39329 L 9274 39329 L 9276 39329 L 9276 39329 L 9276 39329 L 9276 39329 L 9278 39329 L 9278 39327 L 9278 39327 L 9278 39327 L 9280 39327 L 9280 39327 L 9280 39327 L 9280 39327 L 9280 39327 L 9282 39325 L 9282 39325 L 9282 39325 L 9282 39325 L 9282 39325 L 9284 39325 L 9284 39323 L 9336 39263 L 9336 39263 L 9336 39263 L 9336 39261 L 9338 39261 L 9338 39261 L 9338 39261 L 9338 39259 L 9338 39259 L 9340 39259 L 9340 39259 L 9340 39259 L 9342 39257 L 9342 39257 L 9342 39257 L 9342 39257 L 9344 39257 L 9344 39257 L 9344 39257 L 9346 39257 L 9346 39255 L 9346 39255 L 9348 39255 L 9348 39255 L 9348 39255 L 9350 39255 L 9350 39255 L 9350 39255 L 9352 39255 L 9352 39255 L 9352 39257 L 9354 39257 L 9354 39257 L 9354 39257 L 9354 39257 L 9356 39257 L 9356 39257 L 9356 39257 L 9358 39259 L 9370 39277 L 9374 39281 L 9400 39319 L 9402 39325 L 9406 39331 L 9408 39335 L 9412 39341 L 9416 39345 L 9418 39351 L 9422 39355 L 9426 39359 L 9432 39365 L 9436 39369 L 9440 39373 L 9446 39375 L 9450 39379 L 9456 39383 L 9460 39385 L 9466 39389 L 9472 39391 L 9478 39393 L 9484 39395 L 9490 39397 L 9504 39401 L 9528 39403" stroke="#FF0000" stroke-width="35" fill="none" stroke-linecap="round" stroke-linejoin="round"/>
<path d="M 9814 38975 L 9814 38971 L 9814 38969 L 9814 38965 L 9814 38961 L 9814 38957 L 9814 38955 L 9814 38951 L 9812 38947 L 9812 38945 L 9810 38941 L 9810 38937 L 9808 38935 L 9806 38931 L 9806 38929 L 9804 38925 L 9802 38923 L 9796 38913 L 9778 38895 L 9776 38893 L 9776 38893 L 9776 38891 L 9774 38889 L 9772 38889 L 9772 38887 L 9770 38887 L 9770 38885 L 9768 38885 L 9766 38883 L 9766 38883 L 9764 38881 L 9762 38881 L 9762 38881 L 9760 38879 L 9758 38879 L 9758 38879 L 9756 38879 L 9754 38877 L 9752 38877 L 9750 38877 L 9750 38877 L 9748 38877 L 9746 38877 L 9744 38877 L 9740 38877 L 9728 38877 L 9722 38877 L 9718 38877 L 9712 38877 L 9706 38877 L 9702 38877 L 9696 38879 L 9692 38879 L 9676 38883 L 9674 38885 L 9672 38887 L 9670 38887 L 9668 38889 L 9666 38891 L 9664 38893 L 9662 38895 L 9660 38897 L 9658 38899 L 9658 38901 L 9656 38903 L 9654 38905 L 9654 38907 L 9652 38909 L 9652 38913 L 9650 38915 L 9650 38917 L 9648 38919 L 9648 38923 L 9646 38929 L 9640 38969 L 9634 39009 L 9632 39049 L 9630 39149 L 9630 39177 L 9632 39207 L 9636 39235 L 9640 39265 L 9652 39323 L 9666 39391 L 9678 39445 L 9682 39461 L 9686 39477 L 9688 39493 L 9694 39539 L 9712 39649 L 9712 39671" stroke="#FF0000" stroke-width="35" fill="none" stroke-linecap="round" stroke-linejoin="round"/>
<path d="M 9760 39317 L 9762 39317 L 9764 39317 L 9766 39317 L 9768 39317 L 9770 39315 L 9772 39315 L 9774 39315 L 9776 39313 L 9776 39313 L 9778 39313 L 9780 39311 L 9782 39311 L 9784 39309 L 9786 39309 L 9786 39307 L 9788 39305 L 9790 39305 L 9792 39303 L 9792 39301 L 9796 39297 L 9816 39279 L 9822 39273 L 9824 39271 L 9828 39269 L 9830 39269 L 9832 39267 L 9834 39265 L 9836 39265 L 9840 39263 L 9842 39261 L 9844 39261 L 9848 39261 L 9850 39259 L 9852 39259 L 9856 39259 L 9858 39257 L 9864 39257 L 9780 39263 L 9748 39269 L 9716 39277 L 9652 39295 L 9628 39303" stroke="#FF0000" stroke-width="35" fill="none" stroke-linecap="round" stroke-linejoin="round"/>
<path d="M 9978 39133 L 9986 39125 L 9998 39115 L 10008 39103 L 10020 39093 L 10030 39081 L 10038 39069 L 10048 39057 L 10070 39019 L 10070 39017 L 10072 39017 L 10072 39015 L 10072 39013 L 10072 39013 L 10072 39011 L 10074 39011 L 10074 39009 L 10074 39009 L 10074 39007 L 10074 39005 L 10074 39005 L 10074 39003 L 10074 39003 L 10074 39001 L 10074 38999 L 10074 38999 L 10074 38997 L 10074 38997 L 10074 38995 L 10072 38993 L 10072 38991 L 10072 38991 L 10070 38991 L 10070 38991 L 10070 38991 L 10068 38989 L 10068 38989 L 10068 38989 L 10066 38989 L 10066 38989 L 10066 38989 L 10064 38989 L 10064 38989 L 10064 38987 L 10062 38987 L 10062 38987 L 10062 38987 L 10060 38987 L 10060 38987 L 10058 38987 L 10058 38987 L 10058 38989 L 10056 38989 L 10054 38989 L 10052 38989 L 10048 38991 L 10044 38991 L 10042 38993 L 10038 38995 L 10034 38997 L 10032 38999 L 10028 38999 L 10026 39001 L 10022 39005 L 10020 39007 L 10014 39013 L 10004 39025 L 9996 39037 L 9990 39051 L 9982 39065 L 9976 39077 L 9970 39091 L 9966 39107 L 9960 39121 L 9958 39135 L 9950 39169 L 9944 39219 L 9940 39341 L 9938 39415 L 9938 39449 L 9940 39483 L 9944 39517 L 9948 39553 L 9970 39643 L 9978 39673 L 9988 39703 L 9990 39729" stroke="#FF0000" stroke-width="35" fill="none" stroke-linecap="round" stroke-linejoin="round"/>
<path d="M 10064 39563 L 10078 39541 L 10078 39503 L 10078 39473 L 10072 39473 L 10064 39451 L 10050 39451 L 10028 39451 L 10004 39427 L 9974 39427 L 9942 39427 L 9906 39427 L 9868 39427 L 9830 39427 L 9794 39407 L 9760 39407" stroke="#FF0000" stroke-width="35" fill="none" stroke-linecap="round" stroke-linejoin="round"/>
<path d="M 10532 39257 L 10532 39257 L 10532 39229 L 10532 39201 L 10528 39177 L 10524 39177 L 10518 39177 L 10508 39177 L 10500 39177 L 10498 39177" stroke="#FF0000" stroke-width="35" fill="none" stroke-linecap="round" stroke-linejoin="round"/>
<path d="M 10548 39323 L 10568 39341 L 10568 39357 L 10582 39367 L 10582 39377 L 10582 39387 L 10582 39399 L 10582 39405 L 10582 39409 L 10582 39413 L 10582 39415 L 10578 39417 L 10574 39421 L 10568 39421 L 10564 39421 L 10558 39423" stroke="#FF0000" stroke-width="35" fill="none" stroke-linecap="round" stroke-linejoin="round"/>
<path d="M 11392 38817 L 11404 38801 L 11406 38797 L 11408 38797 L 11408 38797 L 11408 38797 L 11408 38797 L 11410 38797 L 11410 38797 L 11410 38799 L 11410 38799 L 11412 38799 L 11412 38799 L 11412 38799 L 11412 38797 L 11414 38797 L 11414 38797 L 11414 38797 L 11414 38797 L 11416 38797 L 11416 38797 L 11416 38797 L 11416 38797 L 11418 38797 L 11418 38797 L 11418 38795 L 11418 38795 L 11418 38795 L 11420 38795 L 11420 38795 L 11420 38793 L 11424 38785 L 11424 38785 L 11424 38785 L 11424 38785 L 11424 38785 L 11424 38783 L 11424 38783 L 11424 38783 L 11424 38783 L 11424 38783 L 11424 38781 L 11424 38781 L 11424 38781 L 11424 38781 L 11424 38781 L 11424 38779 L 11424 38779 L 11426 38779 L 11426 38779 L 11426 38779 L 11426 38779 L 11426 38777 L 11426 38777 L 11428 38777 L 11428 38777 L 11428 38777 L 11428 38777 L 11428 38777 L 11428 38777 L 11430 38777 L 11430 38775 L 11430 38775 L 11430 38775 L 11430 38775 L 11432 38775 L 11432 38775 L 11432 38775 L 11432 38775 L 11432 38775 L 11434 38775 L 11434 38775 L 11434 38775 L 11434 38771 L 11436 38771 L 11436 38771 L 11436 38769 L 11436 38769 L 11436 38769 L 11436 38767 L 11436 38767 L 11436 38767 L 11436 38767 L 11436 38765 L 11436 38765 L 11436 38765 L 11436 38763 L 11436 38763 L 11436 38763 L 11436 38763 L 11436 38761 L 11434 38761 L 11434 38761 L 11434 38761 L 11434 38759 L 11434 38759 L 11434 38759 L 11434 38759 L 11432 38757 L 11432 38757 L 11432 38757 L 11430 38755 L 11396 38759 L 11360 38763 L 11324 38769 L 11238 38791 L 11204 38799 L 11202 38799 L 11198 38799 L 11194 38801 L 11192 38801 L 11188 38801 L 11186 38803 L 11182 38805 L 11180 38805 L 11176 38807 L 11174 38809 L 11172 38811 L 11168 38811 L 11166 38813 L 11164 38815 L 11160 38817 L 11158 38821 L 11156 38823 L 11154 38825 L 11152 38827 L 11150 38831 L 11148 38833 L 11146 38835 L 11144 38839 L 11144 38841 L 11142 38845 L 11140 38847 L 11140 38851 L 11138 38853 L 11138 38857 L 11138 38859 L 11136 38863 L 11136 38867 L 11136 38869 L 11136 38873 L 11136 38875 L 11138 38885 L 11134 38929 L 11134 38939 L 11132 38951 L 11132 38963 L 11132 38973 L 11132 38985 L 11136 39015 L 11144 39049 L 11152 39083 L 11156 39117 L 11162 39211 L 11178 39315 L 11176 39321 L 11176 39329 L 11178 39335 L 11178 39341 L 11178 39349 L 11180 39355 L 11182 39361 L 11182 39369 L 11184 39375 L 11190 39389 L 11198 39415 L 11200 39417 L 11200 39419 L 11200 39421 L 11200 39423 L 11202 39425 L 11202 39427 L 11202 39429 L 11204 39431 L 11204 39433 L 11206 39435 L 11206 39437 L 11208 39439 L 11210 39441 L 11212 39443 L 11212 39445 L 11214 39447 L 11216 39449 L 11218 39449 L 11220 39451 L 11222 39453 L 11226 39455 L 11236 39459 L 11246 39461 L 11256 39465 L 11268 39467 L 11278 39469 L 11288 39469 L 11318 39471 L 11364 39475 L 11428 39481 L 11460 39483" stroke="#FF0000" stroke-width="35" fill="none" stroke-linecap="round" stroke-linejoin="round"/>
<path d="M 11928 39055 L 11946 39019 L 11954 39007 L 11954 39005 L 11956 39003 L 11956 39003 L 11956 39001 L 11958 39001 L 11958 38999 L 11958 38999 L 11960 38997 L 11960 38997 L 11962 38995 L 11962 38995 L 11964 38993 L 11964 38993 L 11966 38991 L 11966 38991 L 11968 38991 L 11970 38989 L 11970 38989 L 11972 38989 L 11972 38989 L 11974 38987 L 11976 38987 L 11976 38987 L 11978 38987 L 11980 38987 L 11980 38987 L 11982 38987 L 11984 38987 L 11984 38987 L 11986 38987 L 11990 38987 L 11992 38987 L 11994 38989 L 11994 38989 L 11996 38989 L 11998 38991 L 12000 38991 L 12000 38993 L 12002 38993 L 12004 38995 L 12004 38995 L 12006 38997 L 12006 38997 L 12008 38999 L 12010 39001 L 12010 39001 L 12012 39003 L 12012 39005 L 12012 39007 L 12014 39007 L 12014 39009 L 12016 39013 L 12030 39055 L 12036 39071 L 12044 39089 L 12048 39101 L 12054 39113 L 12058 39125 L 12062 39137 L 12064 39149 L 12068 39161 L 12072 39195 L 12080 39233 L 12082 39237 L 12082 39241 L 12084 39245 L 12084 39249 L 12086 39253 L 12086 39257 L 12086 39261 L 12088 39265 L 12088 39269 L 12088 39273 L 12088 39277 L 12086 39281 L 12084 39293 L 12084 39293 L 12084 39293 L 12084 39295 L 12084 39295 L 12084 39295 L 12084 39295 L 12084 39295 L 12084 39295 L 12082 39295 L 12082 39295 L 12082 39295 L 12082 39295 L 12082 39295 L 12082 39295 L 12082 39295 L 12082 39295 L 12082 39295 L 12080 39295 L 12080 39295 L 12080 39295 L 12080 39295 L 12080 39295 L 12080 39295 L 12080 39295 L 12080 39295 L 12080 39295 L 12078 39295 L 12078 39295 L 12078 39295 L 12078 39295 L 12078 39293 L 12078 39293 L 12078 39293 L 12078 39293 L 12078 39293 L 12078 39293 L 12078 39293 L 12076 39293 L 12076 39293 L 12076 39293 L 12076 39293 L 12076 39293 L 12076 39291 L 12076 39291 L 12076 39291 L 12076 39291 L 12076 39291 L 12076 39291 L 12076 39291 L 12076 39291 L 12076 39289 L 12064 39261 L 12054 39233 L 12044 39203 L 12028 39135 L 12020 39097 L 11996 39015 L 11996 39015 L 11994 39013 L 11994 39011 L 11994 39011 L 11994 39009 L 11994 39007 L 11992 39007 L 11992 39005 L 11992 39005 L 11990 39003 L 11990 39001 L 11988 39001 L 11988 38999 L 11988 38999 L 11986 38997 L 11986 38997 L 11984 38995 L 11984 38995 L 11982 38995 L 11980 38993 L 11978 38993 L 11978 38993 L 11978 38993 L 11976 38993 L 11976 38995 L 11976 38995 L 11974 38995 L 11974 38995 L 11974 38995 L 11972 38997 L 11972 38997 L 11972 38997 L 11972 38997 L 11970 38999 L 11970 38999 L 11970 38999 L 11970 38999 L 11970 39001 L 11968 39001 L 11968 39001 L 11968 39003 L 11968 39003 L 11968 39003 L 11968 39005 L 11966 39007 L 11952 39073 L 11948 39087 L 11944 39111 L 11938 39137" stroke="#FF0000" stroke-width="35" fill="none" stroke-linecap="round" stroke-linejoin="round"/>
<path d="M 12374 39241 L 12398 39217 L 12416 39217 L 12436 39217 L 12456 39217 L 12456 39219 L 12456 39227 L 12456 39241 L 12456 39257 L 12456 39273 L 12456 39291 L 12452 39313 L 12446 39331 L 12438 39355 L 12436 39379 L 12434 39401 L 12426 39425" stroke="#FF0000" stroke-width="35" fill="none" stroke-linecap="round" stroke-linejoin="round"/>
<path d="M 12728 39113 L 12742 39075 L 12746 39063 L 12754 39051 L 12754 39051 L 12754 39049 L 12756 39049 L 12756 39047 L 12756 39047 L 12758 39045 L 12758 39045 L 12758 39043 L 12758 39043 L 12760 39041 L 12760 39041 L 12760 39039 L 12760 39039 L 12760 39037 L 12760 39035 L 12760 39035 L 12760 39033 L 12760 39033 L 12760 39031 L 12760 39029 L 12760 39027 L 12760 39025 L 12760 39025 L 12758 39025 L 12758 39023 L 12758 39023 L 12758 39023 L 12758 39023 L 12758 39021 L 12758 39021 L 12758 39021 L 12758 39019 L 12760 39019 L 12760 39019 L 12760 39017 L 12760 39017 L 12760 39017 L 12760 39015 L 12760 39015 L 12760 39015 L 12760 39015 L 12762 39013 L 12762 39013 L 12762 39013 L 12762 39011 L 12762 39011 L 12764 39011 L 12764 39011 L 12764 39011 L 12764 39009 L 12766 39009 L 12766 39009 L 12766 39009 L 12768 39009 L 12768 39009 L 12768 39009 L 12768 39007 L 12770 39007 L 12770 39007 L 12772 39007 L 12776 38991 L 12780 38989 L 12784 38989 L 12788 38987 L 12792 38987 L 12796 38987 L 12800 38985 L 12804 38985 L 12808 38985 L 12812 38985 L 12816 38987 L 12820 38987 L 12828 38989 L 12832 38989 L 12836 38991 L 12840 38993 L 12844 38995 L 12848 38999 L 12852 39001 L 12856 39003 L 12860 39005 L 12862 39009 L 12866 39011 L 12870 39015 L 12872 39019 L 12876 39021 L 12878 39025 L 12880 39029 L 12884 39033 L 12886 39037 L 12888 39041 L 12890 39045 L 12892 39049 L 12892 39053 L 12894 39059 L 12896 39071 L 12900 39087 L 12904 39103 L 12906 39119 L 12908 39135 L 12908 39151 L 12908 39189 L 12908 39197 L 12906 39205 L 12906 39211 L 12904 39219 L 12902 39227 L 12900 39233 L 12898 39241 L 12896 39247 L 12892 39255 L 12888 39261 L 12886 39267 L 12882 39273 L 12878 39281 L 12872 39287 L 12868 39293 L 12864 39297 L 12858 39303 L 12852 39309 L 12846 39313 L 12842 39319 L 12836 39323 L 12828 39327 L 12822 39331 L 12816 39335 L 12810 39337 L 12788 39345 L 12788 39347 L 12824 39347 L 12964 39347 L 13000 39347" stroke="#FF0000" stroke-width="35" fill="none" stroke-linecap="round" stroke-linejoin="round"/>
<path d="M 13438 39345 L 13438 39345 L 13438 39323 L 13436 39323 L 13432 39323 L 13426 39323 L 13424 39323 L 13414 39323 L 13406 39325 L 13396 39339 L 13388 39355 L 13384 39371 L 13374 39389 L 13366 39413 L 13360 39435 L 13356 39459 L 13356 39483" stroke="#FF0000" stroke-width="35" fill="none" stroke-linecap="round" stroke-linejoin="round"/>
<path d="M 13682 39007 L 13680 39003 L 13678 39001 L 13676 38997 L 13674 38993 L 13672 38989 L 13670 38987 L 13668 38983 L 13668 38979 L 13666 38975 L 13666 38971 L 13664 38967 L 13664 38955 L 13664 38955 L 13664 38955 L 13664 38953 L 13664 38953 L 13664 38953 L 13664 38953 L 13664 38951 L 13664 38951 L 13664 38951 L 13664 38949 L 13664 38949 L 13664 38949 L 13664 38949 L 13666 38947 L 13666 38947 L 13666 38947 L 13666 38945 L 13666 38945 L 13666 38945 L 13668 38945 L 13668 38945 L 13668 38943 L 13668 38943 L 13668 38943 L 13670 38943 L 13670 38943 L 13670 38941 L 13670 38941 L 13672 38941 L 13672 38941 L 13694 38939 L 13702 38939 L 13714 38939 L 13724 38939 L 13734 38941 L 13746 38943 L 13756 38945 L 13766 38947 L 13776 38949 L 13786 38953 L 13796 38957 L 13806 38961 L 13816 38965 L 13824 38971 L 13834 38977 L 13842 38983 L 13852 38989 L 13860 38995 L 13878 39013 L 13882 39017 L 13886 39023 L 13888 39027 L 13890 39033 L 13894 39039 L 13896 39045 L 13898 39051 L 13900 39057 L 13900 39063 L 13902 39069 L 13904 39075 L 13904 39089 L 13904 39093 L 13904 39095 L 13902 39097 L 13902 39101 L 13900 39103 L 13900 39105 L 13898 39109 L 13896 39111 L 13894 39113 L 13894 39115 L 13892 39117 L 13890 39121 L 13888 39123 L 13886 39125 L 13884 39127 L 13882 39129 L 13880 39129 L 13874 39133 L 13824 39155 L 13810 39161 L 13808 39161 L 13808 39161 L 13808 39161 L 13808 39163 L 13806 39163 L 13806 39163 L 13806 39163 L 13806 39163 L 13804 39163 L 13804 39165 L 13804 39165 L 13804 39165 L 13804 39165 L 13802 39165 L 13802 39167 L 13802 39167 L 13802 39167 L 13802 39167 L 13802 39169 L 13802 39169 L 13800 39169 L 13800 39169 L 13800 39171 L 13800 39171 L 13800 39171 L 13800 39173 L 13800 39173 L 13800 39173 L 13800 39173 L 13800 39175 L 13800 39175 L 13800 39175 L 13800 39177 L 13800 39177 L 13810 39201 L 13816 39217 L 13822 39239 L 13824 39241 L 13826 39245 L 13826 39247 L 13828 39249 L 13828 39251 L 13828 39253 L 13830 39255 L 13830 39259 L 13830 39261 L 13830 39269 L 13830 39279 L 13832 39285 L 13832 39291 L 13832 39299 L 13830 39305 L 13830 39311 L 13830 39319 L 13828 39325 L 13824 39339 L 13822 39343 L 13820 39345 L 13820 39347 L 13818 39349 L 13816 39351 L 13814 39355 L 13812 39357 L 13810 39359 L 13808 39361 L 13804 39363 L 13802 39363 L 13800 39365 L 13798 39367 L 13794 39369 L 13792 39369 L 13790 39371 L 13786 39371 L 13784 39373 L 13780 39373 L 13772 39375 L 13710 39377 L 13696 39377" stroke="#FF0000" stroke-width="35" fill="none" stroke-linecap="round" stroke-linejoin="round"/>
<path d="M 14154 38775 L 14154 38775 L 14152 38775 L 14152 38775 L 14150 38775 L 14150 38775 L 14148 38775 L 14148 38775 L 14148 38775 L 14146 38775 L 14146 38773 L 14144 38773 L 14144 38773 L 14144 38773 L 14142 38773 L 14142 38771 L 14140 38771 L 14140 38771 L 14140 38771 L 14138 38769 L 14138 38769 L 14138 38769 L 14138 38767 L 14136 38767 L 14136 38767 L 14136 38765 L 14134 38763 L 14134 38763 L 14134 38763 L 14134 38761 L 14132 38761 L 14132 38759 L 14132 38759 L 14130 38759 L 14130 38757 L 14130 38757 L 14128 38757 L 14128 38755 L 14128 38755 L 14126 38755 L 14126 38755 L 14124 38753 L 14124 38753 L 14122 38753 L 14122 38753 L 14122 38753 L 14120 38753 L 14120 38753 L 14118 38751 L 14118 38751 L 14116 38751 L 14116 38751 L 14112 38751 L 14112 38751 L 14110 38751 L 14108 38751 L 14108 38751 L 14106 38751 L 14106 38751 L 14104 38751 L 14102 38749 L 14102 38749 L 14100 38749 L 14098 38749 L 14098 38747 L 14096 38747 L 14096 38747 L 14094 38745 L 14094 38745 L 14092 38743 L 14092 38743 L 14090 38741 L 14088 38739 L 14088 38739 L 14086 38737 L 14086 38737 L 14084 38735 L 14084 38735 L 14082 38733 L 14082 38733 L 14080 38733 L 14078 38731 L 14078 38731 L 14076 38731 L 14076 38731 L 14074 38729 L 14072 38729 L 14072 38729 L 14070 38729 L 14068 38729 L 14066 38729 L 14064 38729 L 14062 38729 L 14062 38729 L 14060 38729 L 14058 38729 L 14058 38727 L 14056 38727 L 14056 38727 L 14054 38727 L 14052 38727 L 14052 38725 L 14050 38725 L 14050 38725 L 14048 38723 L 14048 38723 L 14046 38723 L 14046 38721 L 14044 38721 L 14044 38719 L 14042 38717 L 14040 38717 L 14040 38715 L 14038 38715 L 14038 38713 L 14036 38713 L 14036 38711 L 14034 38711 L 14034 38711 L 14032 38709 L 14030 38709 L 14030 38709 L 14028 38707 L 14026 38707 L 14026 38707 L 14024 38707 L 14022 38707 L 14020 38705 L 14020 38705 L 14018 38705 L 14014 38705 L 14016 38705 L 14016 38705 L 14016 38705 L 14016 38705 L 14018 38705 L 14018 38705 L 14018 38705 L 14018 38705 L 14020 38703 L 14020 38703 L 14020 38703 L 14020 38703 L 14020 38703 L 14022 38703 L 14022 38701 L 14022 38701 L 14022 38701 L 14022 38701 L 14022 38701 L 14022 38699 L 14024 38699 L 14024 38699 L 14024 38699 L 14024 38697 L 14024 38697 L 14024 38697 L 14024 38697 L 14024 38695 L 14024 38695 L 14024 38695 L 14024 38695 L 14024 38693 L 14024 38693 L 14024 38693 L 14024 38693 L 14024 38691 L 14024 38691 L 14024 38691 L 14024 38691 L 14024 38689 L 14024 38689 L 14024 38689 L 14022 38689 L 14022 38687 L 14022 38687 L 14022 38687 L 14022 38687 L 14022 38687 L 14022 38685 L 14020 38685 L 14020 38685 L 14020 38685 L 14020 38685 L 14020 38685 L 14018 38685 L 14018 38683 L 14018 38683 L 14034 38687 L 14050 38691 L 14066 38697 L 14080 38703 L 14096 38709 L 14134 38731 L 14162 38745 L 14186 38757 L 14210 38769 L 14232 38783 L 14294 38825 L 14300 38831 L 14304 38835 L 14310 38841 L 14314 38847 L 14320 38851 L 14324 38857 L 14328 38863 L 14332 38869 L 14336 38877 L 14338 38883 L 14342 38889 L 14344 38895 L 14348 38903 L 14350 38909 L 14352 38917 L 14352 38925 L 14354 38931 L 14354 38939 L 14356 38955 L 14368 39123 L 14368 39583 L 14364 39585 L 14360 39587 L 14356 39589 L 14352 39589 L 14348 39591 L 14344 39591 L 14340 39591 L 14336 39593 L 14332 39593 L 14328 39593 L 14318 39591 L 14118 39591 L 13986 39591 L 13962 39591 L 13910 39591" stroke="#FF0000" stroke-width="35" fill="none" stroke-linecap="round" stroke-linejoin="round"/>
<path d="M 8484 37041 L 8484 37037 L 8484 37035 L 8484 37033 L 8484 37031 L 8484 37031 L 8484 37029 L 8484 37027 L 8482 37025 L 8482 37025 L 8482 37023 L 8482 37021 L 8480 37019 L 8480 37019 L 8480 37017 L 8478 37015 L 8478 37015 L 8476 37013 L 8476 37013 L 8474 37011 L 8474 37009 L 8472 37009 L 8472 37007 L 8470 37007 L 8468 37005 L 8468 37005 L 8466 37005 L 8464 37003 L 8458 37001 L 8454 36999 L 8450 36997 L 8446 36997 L 8440 36995 L 8436 36995 L 8432 36995 L 8426 36993 L 8414 36993 L 8392 36995 L 8372 36997 L 8350 37001 L 8304 37011 L 8260 37023 L 8234 37029 L 8206 37037 L 8178 37045 L 8118 37069 L 8116 37069 L 8114 37071 L 8112 37071 L 8110 37071 L 8108 37073 L 8108 37073 L 8106 37075 L 8104 37077 L 8102 37077 L 8102 37079 L 8100 37079 L 8098 37081 L 8098 37083 L 8096 37083 L 8096 37085 L 8094 37087 L 8094 37089 L 8092 37091 L 8092 37091 L 8090 37093 L 8090 37095 L 8090 37097 L 8090 37099 L 8088 37101 L 8088 37103 L 8088 37105 L 8088 37107 L 8088 37107 L 8088 37109 L 8088 37111 L 8088 37113 L 8088 37115 L 8088 37117 L 8090 37119 L 8090 37121 L 8090 37123 L 8090 37125 L 8092 37125 L 8092 37127 L 8092 37129 L 8094 37131 L 8094 37133 L 8096 37133 L 8096 37135 L 8098 37137 L 8100 37139 L 8100 37139 L 8102 37141 L 8104 37143 L 8104 37143 L 8106 37145 L 8108 37145 L 8110 37147 L 8112 37147 L 8114 37149 L 8198 37189 L 8328 37255 L 8342 37265 L 8356 37273 L 8368 37283 L 8382 37293 L 8394 37305 L 8406 37317 L 8432 37345 L 8436 37351 L 8440 37357 L 8442 37363 L 8446 37367 L 8448 37373 L 8450 37379 L 8452 37387 L 8454 37393 L 8454 37399 L 8456 37405 L 8456 37411 L 8458 37417 L 8458 37425 L 8458 37431 L 8458 37437 L 8456 37443 L 8456 37449 L 8454 37457 L 8454 37463 L 8452 37469 L 8450 37475 L 8448 37481 L 8444 37487 L 8442 37493 L 8438 37499 L 8436 37503 L 8432 37509 L 8428 37515 L 8424 37519 L 8420 37525 L 8416 37529 L 8412 37533 L 8406 37539 L 8394 37549 L 8382 37555 L 8370 37561 L 8358 37567 L 8326 37579 L 8310 37583 L 8294 37587 L 8278 37591 L 8262 37593 L 8216 37595 L 8192 37595" stroke="#FF0000" stroke-width="35" fill="none" stroke-linecap="round" stroke-linejoin="round"/>
<path d="M 8564 37151 L 8606 37091 L 8610 37073 L 8610 37071 L 8610 37071 L 8612 37071 L 8612 37071 L 8614 37071 L 8614 37071 L 8614 37071 L 8616 37069 L 8616 37069 L 8618 37069 L 8618 37069 L 8620 37069 L 8620 37069 L 8620 37069 L 8622 37069 L 8622 37069 L 8624 37069 L 8624 37071 L 8624 37071 L 8626 37071 L 8626 37071 L 8628 37071 L 8628 37071 L 8628 37073 L 8630 37073 L 8630 37073 L 8630 37073 L 8632 37073 L 8632 37075 L 8632 37075 L 8634 37075 L 8634 37077 L 8634 37077 L 8634 37077 L 8636 37079 L 8636 37079 L 8636 37079 L 8636 37081 L 8636 37081 L 8638 37083 L 8638 37083 L 8638 37083 L 8638 37085 L 8638 37085 L 8638 37087 L 8638 37087 L 8638 37087 L 8638 37089 L 8646 37123 L 8648 37125 L 8650 37129 L 8652 37133 L 8652 37137 L 8654 37141 L 8654 37143 L 8656 37147 L 8656 37151 L 8656 37161 L 8674 37277 L 8690 37523 L 8690 37553" stroke="#FF0000" stroke-width="35" fill="none" stroke-linecap="round" stroke-linejoin="round"/>
<path d="M 8788 37461 L 8802 37439 L 8802 37419 L 8802 37385 L 8796 37361 L 8788 37361 L 8774 37361 L 8762 37361 L 8744 37361 L 8722 37361 L 8698 37361 L 8676 37361 L 8654 37365 L 8632 37373 L 8614 37379" stroke="#FF0000" stroke-width="35" fill="none" stroke-linecap="round" stroke-linejoin="round"/>
<path d="M 8874 37393 L 8968 37393 L 8970 37393 L 8970 37393 L 8970 37393 L 8972 37393 L 8972 37395 L 8972 37395 L 8974 37395 L 8974 37395 L 8976 37395 L 8976 37397 L 8976 37397 L 8978 37397 L 8978 37399 L 8978 37399 L 8978 37399 L 8980 37401 L 8980 37401 L 8980 37401 L 8980 37403 L 8982 37403 L 8982 37403 L 8982 37405 L 8982 37405 L 8982 37405 L 8982 37407 L 8982 37407 L 8984 37409 L 8984 37409 L 8984 37409 L 8984 37411 L 8984 37413 L 8984 37443 L 8984 37447 L 8998 37501 L 8998 37503 L 9000 37505 L 9000 37507 L 9002 37507 L 9002 37509 L 9004 37511 L 9006 37511 L 9006 37513 L 9008 37515 L 9008 37515 L 9010 37517 L 9012 37517 L 9014 37519 L 9014 37519 L 9016 37519 L 9018 37521 L 9020 37521 L 9022 37521 L 9022 37523 L 9024 37523 L 9026 37523 L 9028 37523 L 9030 37523 L 9032 37523 L 9036 37523 L 9038 37525 L 9042 37525 L 9046 37525 L 9048 37525 L 9052 37525 L 9056 37525 L 9060 37525 L 9062 37525 L 9066 37525 L 9070 37525 L 9074 37523 L 9076 37523 L 9080 37521 L 9088 37519 L 9090 37517 L 9092 37515 L 9096 37513 L 9098 37509 L 9100 37507 L 9102 37505 L 9104 37503 L 9106 37499 L 9108 37497 L 9108 37493 L 9112 37487 L 9120 37475 L 9128 37463 L 9130 37463 L 9130 37461 L 9132 37461 L 9132 37459 L 9134 37457 L 9134 37457 L 9134 37455 L 9136 37453 L 9136 37453 L 9136 37451 L 9138 37449 L 9138 37447 L 9138 37447 L 9138 37445 L 9138 37443 L 9138 37443 L 9138 37441 L 9138 37439 L 9138 37437 L 9138 37435 L 9138 37435 L 9138 37433 L 9136 37429 L 9138 37421 L 9138 37419 L 9138 37415 L 9138 37413 L 9138 37409 L 9138 37407 L 9136 37403 L 9136 37401 L 9136 37397 L 9134 37395 L 9132 37389 L 9132 37387 L 9132 37387 L 9130 37385 L 9130 37385 L 9128 37383 L 9126 37383 L 9126 37381 L 9124 37381 L 9124 37379 L 9122 37379 L 9120 37379 L 9120 37377 L 9118 37377 L 9116 37377 L 9116 37375 L 9114 37375 L 9112 37375 L 9112 37375 L 9110 37375 L 9108 37375 L 9106 37375 L 9106 37375 L 9104 37375 L 9102 37375 L 9100 37375 L 8998 37375 L 8972 37375" stroke="#FF0000" stroke-width="35" fill="none" stroke-linecap="round" stroke-linejoin="round"/>
<path d="M 8966 37427 L 8984 37427 L 9004 37403 L 9018 37403 L 9034 37403 L 9060 37403 L 9074 37403 L 9074 37403 L 9096 37413 L 9110 37427 L 9124 37443 L 9136 37461 L 9152 37479 L 9164 37499 L 9180 37515 L 9180 37527" stroke="#FF0000" stroke-width="35" fill="none" stroke-linecap="round" stroke-linejoin="round"/>
<path d="M 9536 37071 L 9536 37063 L 9536 37057 L 9536 37049 L 9536 37043 L 9536 37037 L 9536 37031 L 9534 37025 L 9530 37011 L 9530 37009 L 9530 37007 L 9528 37007 L 9528 37005 L 9526 37003 L 9526 37003 L 9524 37001 L 9524 36999 L 9522 36999 L 9522 36997 L 9520 36997 L 9520 36995 L 9518 36995 L 9516 36993 L 9516 36993 L 9514 36993 L 9512 36991 L 9510 36991 L 9510 36991 L 9508 36989 L 9506 36989 L 9504 36989 L 9504 36989 L 9502 36989 L 9500 36989 L 9498 36987 L 9498 36987 L 9496 36987 L 9492 36989 L 9486 36987 L 9478 36987 L 9472 36987 L 9464 36989 L 9458 36989 L 9452 36991 L 9444 36991 L 9438 36993 L 9418 36999 L 9416 37001 L 9412 37005 L 9410 37007 L 9406 37009 L 9404 37013 L 9400 37015 L 9398 37019 L 9396 37021 L 9394 37025 L 9390 37027 L 9388 37031 L 9386 37035 L 9386 37039 L 9384 37041 L 9382 37045 L 9380 37049 L 9378 37061 L 9374 37075 L 9372 37091 L 9370 37107 L 9368 37123 L 9366 37139 L 9368 37185 L 9384 37311 L 9384 37315 L 9398 37373 L 9414 37431 L 9466 37577 L 9482 37617 L 9504 37699 L 9510 37735 L 9512 37763" stroke="#FF0000" stroke-width="35" fill="none" stroke-linecap="round" stroke-linejoin="round"/>
<path d="M 9498 37343 L 9518 37343 L 9528 37313 L 9550 37313 L 9544 37313 L 9532 37313 L 9512 37323 L 9492 37329 L 9464 37339 L 9436 37351 L 9408 37363 L 9380 37373" stroke="#FF0000" stroke-width="35" fill="none" stroke-linecap="round" stroke-linejoin="round"/>
<path d="M 9750 37081 L 9766 37069 L 9788 37051 L 9796 37039 L 9798 37033 L 9800 37029 L 9804 37025 L 9806 37019 L 9808 37015 L 9808 37009 L 9812 36995 L 9812 36995 L 9814 36993 L 9814 36993 L 9814 36991 L 9814 36991 L 9814 36989 L 9812 36989 L 9812 36987 L 9812 36987 L 9812 36985 L 9812 36985 L 9812 36983 L 9812 36983 L 9812 36981 L 9810 36981 L 9810 36979 L 9810 36979 L 9810 36979 L 9808 36977 L 9808 36977 L 9808 36977 L 9806 36975 L 9806 36975 L 9806 36975 L 9804 36973 L 9804 36973 L 9802 36973 L 9802 36971 L 9802 36971 L 9800 36971 L 9800 36971 L 9798 36971 L 9798 36969 L 9796 36969 L 9796 36969 L 9794 36969 L 9794 36969 L 9792 36969 L 9792 36969 L 9790 36969 L 9790 36969 L 9788 36969 L 9788 36969 L 9786 36969 L 9786 36969 L 9784 36969 L 9782 36971 L 9780 36971 L 9776 36973 L 9772 36973 L 9770 36975 L 9766 36975 L 9764 36977 L 9760 36979 L 9758 36981 L 9756 36983 L 9752 36985 L 9750 36987 L 9748 36989 L 9742 36993 L 9738 37001 L 9734 37007 L 9730 37015 L 9726 37021 L 9724 37029 L 9720 37037 L 9718 37043 L 9716 37051 L 9714 37059 L 9710 37083 L 9708 37181 L 9708 37217 L 9710 37245 L 9714 37273 L 9720 37301 L 9726 37329 L 9750 37407 L 9770 37475 L 9794 37547 L 9802 37567 L 9808 37589 L 9814 37611 L 9820 37631 L 9824 37653 L 9832 37711 L 9832 37739 L 9832 37803 L 9832 37805 L 9832 37809 L 9830 37813 L 9830 37817 L 9830 37819 L 9828 37823 L 9826 37825 L 9826 37829 L 9824 37833 L 9822 37835 L 9822 37839 L 9820 37841 L 9818 37843 L 9816 37847 L 9810 37853 L 9794 37863" stroke="#FF0000" stroke-width="35" fill="none" stroke-linecap="round" stroke-linejoin="round"/>
<path d="M 9820 37371 L 9834 37371 L 9852 37347 L 9844 37347 L 9820 37347 L 9790 37347 L 9756 37347 L 9714 37347 L 9674 37347 L 9638 37351 L 9596 37359 L 9558 37367" stroke="#FF0000" stroke-width="35" fill="none" stroke-linecap="round" stroke-linejoin="round"/>
<path d="M 9984 37217 L 9988 37211 L 9990 37209 L 9992 37207 L 9992 37207 L 9994 37205 L 9996 37203 L 9996 37203 L 9998 37201 L 9998 37199 L 10000 37199 L 10000 37197 L 10002 37195 L 10002 37193 L 10002 37191 L 10004 37191 L 10004 37189 L 10004 37187 L 10004 37185 L 10004 37183 L 10006 37181 L 10006 37177 L 10006 37177 L 10006 37177 L 10006 37175 L 10004 37175 L 10004 37175 L 10004 37173 L 10004 37173 L 10004 37171 L 10004 37171 L 10006 37171 L 10006 37169 L 10006 37169 L 10006 37169 L 10006 37167 L 10006 37167 L 10006 37167 L 10006 37165 L 10006 37165 L 10008 37165 L 10008 37163 L 10008 37163 L 10008 37163 L 10008 37161 L 10010 37161 L 10010 37161 L 10010 37161 L 10012 37159 L 10012 37159 L 10012 37159 L 10012 37159 L 10014 37159 L 10014 37157 L 10014 37157 L 10016 37157 L 10018 37157 L 10018 37159 L 10020 37159 L 10022 37159 L 10022 37161 L 10024 37161 L 10024 37161 L 10026 37163 L 10026 37163 L 10028 37165 L 10028 37165 L 10030 37167 L 10030 37167 L 10030 37169 L 10032 37171 L 10032 37171 L 10032 37173 L 10034 37173 L 10034 37175 L 10034 37177 L 10034 37177 L 10036 37179 L 10036 37181 L 10036 37183 L 10048 37225 L 10056 37255 L 10066 37285 L 10092 37349 L 10100 37369 L 10106 37389 L 10112 37409 L 10118 37429 L 10126 37475 L 10138 37531 L 10140 37577 L 10140 37577 L 10130 37573 L 10124 37565 L 10118 37557 L 10112 37549 L 10108 37539 L 10102 37531 L 10098 37521 L 10094 37511 L 10086 37485 L 10064 37385 L 10058 37333 L 10054 37195 L 10056 37155 L 10056 37145 L 10058 37135 L 10058 37125 L 10060 37115 L 10064 37105 L 10066 37097 L 10070 37087 L 10072 37077 L 10086 37053 L 10088 37049 L 10090 37045 L 10092 37041 L 10094 37037 L 10096 37033 L 10098 37029 L 10102 37027 L 10104 37023 L 10108 37021 L 10110 37017 L 10114 37015 L 10118 37011 L 10122 37009 L 10124 37007 L 10128 37005 L 10132 37003 L 10136 37001 L 10140 36999 L 10144 36997 L 10148 36995 L 10154 36995 L 10164 36993 L 10180 36991 L 10188 36991 L 10194 36991 L 10200 36991 L 10206 36991 L 10214 36993 L 10220 36993 L 10238 36997 L 10240 36999 L 10242 37001 L 10244 37001 L 10246 37003 L 10248 37005 L 10250 37007 L 10252 37009 L 10254 37011 L 10256 37013 L 10258 37015 L 10260 37017 L 10262 37019 L 10262 37021 L 10264 37023 L 10266 37025 L 10266 37029 L 10268 37031 L 10268 37033 L 10270 37041 L 10272 37047 L 10274 37055 L 10274 37063 L 10276 37069 L 10276 37077 L 10276 37085 L 10276 37091 L 10274 37099 L 10274 37107 L 10272 37113 L 10272 37121 L 10270 37127 L 10268 37135 L 10264 37141 L 10262 37149 L 10258 37155 L 10256 37161 L 10246 37177 L 10238 37193 L 10226 37207 L 10216 37221 L 10204 37237 L 10192 37249 L 10154 37285 L 10126 37307" stroke="#FF0000" stroke-width="35" fill="none" stroke-linecap="round" stroke-linejoin="round"/>
<path d="M 10296 37391 L 10298 37391 L 10298 37391 L 10300 37391 L 10300 37391 L 10302 37391 L 10304 37391 L 10304 37391 L 10306 37391 L 10306 37391 L 10308 37391 L 10310 37391 L 10310 37391 L 10312 37391 L 10312 37391 L 10314 37393 L 10316 37393 L 10316 37393 L 10318 37393 L 10318 37395 L 10320 37395 L 10320 37395 L 10322 37397 L 10322 37397 L 10322 37399 L 10324 37399 L 10324 37399 L 10326 37401 L 10326 37401 L 10326 37403 L 10328 37403 L 10328 37405 L 10328 37405 L 10330 37409 L 10330 37413 L 10330 37417 L 10330 37421 L 10330 37425 L 10328 37429 L 10328 37433 L 10326 37437 L 10326 37441 L 10322 37449 L 10316 37469 L 10316 37473 L 10314 37475 L 10314 37479 L 10314 37483 L 10312 37487 L 10312 37491 L 10312 37495 L 10312 37499 L 10312 37503 L 10312 37505 L 10312 37509 L 10314 37513 L 10316 37523 L 10316 37525 L 10318 37525 L 10318 37527 L 10320 37529 L 10322 37531 L 10322 37531 L 10324 37533 L 10324 37533 L 10326 37535 L 10328 37537 L 10330 37537 L 10330 37537 L 10332 37539 L 10334 37539 L 10336 37541 L 10338 37541 L 10338 37541 L 10340 37543 L 10342 37543 L 10344 37543 L 10346 37543 L 10348 37543 L 10350 37543 L 10352 37543 L 10352 37543 L 10358 37543 L 10376 37543 L 10378 37545 L 10382 37545 L 10386 37545 L 10390 37545 L 10394 37545 L 10398 37545 L 10402 37545 L 10406 37543 L 10410 37543 L 10414 37541 L 10424 37539 L 10498 37489 L 10498 37489 L 10500 37489 L 10502 37487 L 10502 37487 L 10504 37485 L 10506 37485 L 10506 37483 L 10508 37483 L 10508 37481 L 10510 37481 L 10510 37479 L 10512 37477 L 10512 37477 L 10512 37475 L 10514 37473 L 10516 37469 L 10522 37457 L 10542 37447 L 10544 37443 L 10546 37439 L 10548 37435 L 10552 37431 L 10554 37427 L 10556 37421 L 10556 37417 L 10560 37403 L 10560 37399 L 10554 37399 L 10486 37399 L 10464 37403" stroke="#FF0000" stroke-width="35" fill="none" stroke-linecap="round" stroke-linejoin="round"/>
<path d="M 10426 37453 L 10480 37453 L 10606 37453 L 10608 37453 L 10610 37453 L 10612 37453 L 10614 37455 L 10616 37455 L 10618 37455 L 10620 37457 L 10622 37457 L 10624 37459 L 10626 37459 L 10628 37461 L 10630 37461 L 10632 37463 L 10632 37463 L 10634 37465 L 10636 37467 L 10638 37469 L 10638 37469 L 10642 37475 L 10670 37521 L 10674 37529 L 10678 37537 L 10684 37545 L 10688 37553 L 10704 37571 L 10708 37575 L 10712 37577 L 10716 37581 L 10720 37583 L 10724 37585 L 10728 37587 L 10732 37589 L 10736 37591 L 10742 37593 L 10746 37595 L 10750 37595 L 10762 37597 L 10832 37601 L 10834 37601 L 10838 37599 L 10840 37599 L 10842 37597 L 10844 37597 L 10846 37595 L 10848 37593 L 10850 37591 L 10852 37589 L 10854 37589 L 10856 37587 L 10858 37585 L 10860 37583 L 10860 37581 L 10862 37579 L 10864 37575 L 10864 37573 L 10866 37571 L 10866 37569 L 10868 37567 L 10868 37565 L 10870 37561 L 10870 37559 L 10870 37557 L 10870 37555 L 10872 37551 L 10872 37549 L 10872 37547 L 10870 37539 L 10870 37533 L 10872 37525 L 10872 37517 L 10870 37509 L 10870 37501 L 10866 37479 L 10866 37477 L 10866 37477 L 10866 37475 L 10864 37473 L 10864 37471 L 10864 37469 L 10862 37469 L 10862 37467 L 10860 37465 L 10860 37463 L 10858 37463 L 10858 37461 L 10856 37459 L 10856 37459 L 10854 37457 L 10852 37455 L 10852 37455 L 10850 37453 L 10848 37453 L 10848 37451 L 10846 37451 L 10844 37451 L 10842 37449 L 10840 37449 L 10840 37449 L 10838 37447 L 10836 37447 L 10834 37447 L 10832 37447 L 10830 37447 L 10826 37447 L 10822 37447 L 10818 37445 L 10816 37445 L 10812 37445 L 10808 37443 L 10804 37443 L 10800 37441 L 10796 37439 L 10794 37439 L 10786 37433 L 10770 37427 L 10744 37423" stroke="#FF0000" stroke-width="35" fill="none" stroke-linecap="round" stroke-linejoin="round"/>
<path d="M 10856 37429 L 10918 37363 L 10922 37361 L 10926 37361 L 10928 37359 L 10932 37359 L 10936 37359 L 10938 37357 L 10942 37357 L 10946 37357 L 10950 37357 L 10952 37357 L 10956 37357 L 10966 37359 L 10970 37359 L 11182 37363 L 11192 37363 L 11202 37361 L 11212 37359 L 11222 37357 L 11232 37355 L 11240 37353 L 11268 37341 L 11272 37339 L 11278 37337 L 11282 37335 L 11288 37333 L 11292 37329 L 11296 37327 L 11302 37323 L 11306 37319 L 11310 37317 L 11314 37313 L 11318 37309 L 11322 37305 L 11328 37295 L 11330 37289 L 11330 37285 L 11332 37279 L 11332 37273 L 11332 37269 L 11334 37263 L 11334 37257 L 11332 37253 L 11330 37237 L 11330 37233 L 11328 37231 L 11326 37231 L 11324 37229 L 11322 37229 L 11320 37227 L 11318 37227 L 11316 37227 L 11314 37227 L 11312 37227 L 11310 37225 L 11308 37225 L 11306 37225 L 11304 37225 L 11302 37225 L 11300 37225 L 11298 37227 L 11294 37227 L 11290 37227 L 11278 37227 L 11268 37227 L 11256 37227 L 11244 37229 L 11234 37231 L 11222 37233 L 11212 37235 L 11200 37239 L 11172 37249 L 11166 37251 L 11162 37255 L 11158 37257 L 11152 37261 L 11148 37265 L 11144 37269 L 11140 37273 L 11136 37277 L 11132 37281 L 11128 37285 L 11126 37291 L 11122 37295 L 11118 37301 L 11116 37305 L 11114 37311 L 11112 37315 L 11110 37321 L 11108 37327 L 11106 37333 L 11102 37347 L 11100 37359 L 11098 37369 L 11098 37381 L 11096 37393 L 11096 37403 L 11096 37415 L 11096 37427 L 11098 37437 L 11098 37449 L 11100 37461 L 11104 37471 L 11106 37483 L 11116 37507 L 11118 37515 L 11122 37521 L 11126 37527 L 11130 37535 L 11136 37541 L 11140 37547 L 11146 37553 L 11150 37557 L 11156 37563 L 11162 37569 L 11168 37573 L 11174 37577 L 11180 37583 L 11188 37587 L 11194 37589 L 11200 37593 L 11208 37597 L 11216 37599 L 11222 37601 L 11240 37607 L 11284 37613 L 11334 37619" stroke="#FF0000" stroke-width="35" fill="none" stroke-linecap="round" stroke-linejoin="round"/>
<path d="M 11992 37383 L 11992 37383 L 11990 37383 L 11988 37383 L 11982 37359 L 11980 37359 L 11968 37359 L 11956 37359 L 11940 37359 L 11924 37359 L 11906 37359 L 11884 37359 L 11870 37359 L 11854 37359" stroke="#FF0000" stroke-width="35" fill="none" stroke-linecap="round" stroke-linejoin="round"/>
<path d="M 12030 37499 L 12030 37509 L 12044 37519 L 12044 37527 L 12044 37533 L 12044 37539 L 12032 37543 L 12016 37543 L 11996 37547 L 11974 37547 L 11948 37547" stroke="#FF0000" stroke-width="35" fill="none" stroke-linecap="round" stroke-linejoin="round"/>
<path d="M 12906 36761 L 12906 36761 L 12908 36757 L 12908 36757 L 12910 36757 L 12910 36757 L 12910 36757 L 12910 36755 L 12910 36755 L 12912 36755 L 12912 36755 L 12912 36755 L 12912 36755 L 12912 36753 L 12912 36753 L 12912 36753 L 12914 36753 L 12914 36751 L 12914 36751 L 12914 36751 L 12914 36751 L 12914 36751 L 12914 36749 L 12914 36749 L 12914 36749 L 12914 36749 L 12914 36747 L 12914 36747 L 12914 36747 L 12914 36747 L 12914 36745 L 12914 36745 L 12914 36745 L 12914 36745 L 12914 36743 L 12914 36743 L 12912 36743 L 12894 36743 L 12874 36745 L 12790 36743 L 12768 36741 L 12744 36741 L 12720 36741 L 12698 36743 L 12674 36745 L 12610 36757 L 12606 36759 L 12602 36759 L 12598 36761 L 12594 36763 L 12590 36765 L 12586 36767 L 12582 36771 L 12578 36773 L 12574 36775 L 12570 36779 L 12568 36783 L 12564 36785 L 12562 36789 L 12558 36793 L 12556 36797 L 12552 36799 L 12550 36803 L 12548 36807 L 12546 36811 L 12544 36817 L 12542 36821 L 12540 36825 L 12540 36829 L 12538 36833 L 12538 36839 L 12536 36843 L 12536 36847 L 12536 36851 L 12536 36857 L 12536 36865 L 12536 36889 L 12540 36913 L 12542 36937 L 12548 36959 L 12562 37017 L 12574 37057 L 12652 37393 L 12658 37425 L 12670 37475 L 12672 37493 L 12672 37495 L 12672 37497 L 12672 37497 L 12672 37499 L 12672 37501 L 12672 37503 L 12672 37503 L 12672 37505 L 12674 37507 L 12674 37509 L 12674 37509 L 12674 37511 L 12676 37513 L 12676 37515 L 12680 37519 L 12684 37523 L 12688 37527 L 12692 37531 L 12696 37533 L 12700 37537 L 12706 37539 L 12710 37541 L 12714 37545 L 12718 37547 L 12724 37549 L 12728 37549 L 12734 37551 L 12738 37553 L 12744 37553 L 12756 37555 L 12782 37557 L 12806 37559 L 12858 37559 L 12896 37559 L 12934 37553 L 12974 37533" stroke="#FF0000" stroke-width="35" fill="none" stroke-linecap="round" stroke-linejoin="round"/>
<path d="M 13388 37295 L 13388 37273 L 13386 37257 L 13386 37241 L 13388 37227 L 13390 37191 L 13398 37179 L 13398 37177 L 13400 37175 L 13400 37173 L 13400 37173 L 13400 37171 L 13402 37169 L 13402 37167 L 13402 37165 L 13402 37163 L 13402 37161 L 13402 37161 L 13402 37159 L 13402 37157 L 13402 37155 L 13402 37153 L 13402 37149 L 13402 37135 L 13408 37159 L 13414 37197 L 13456 37391 L 13462 37443 L 13462 37453 L 13458 37429 L 13450 37385 L 13428 37293 L 13404 37203 L 13398 37165 L 13398 37153 L 13396 37143 L 13394 37131 L 13392 37119 L 13388 37109 L 13378 37081 L 13378 37081 L 13376 37081 L 13376 37079 L 13374 37079 L 13374 37079 L 13372 37079 L 13370 37077 L 13370 37077 L 13368 37077 L 13368 37077 L 13366 37077 L 13364 37077 L 13364 37077 L 13362 37077 L 13362 37077 L 13360 37077 L 13358 37077 L 13358 37077 L 13356 37077 L 13356 37077 L 13354 37079 L 13352 37079 L 13352 37079 L 13350 37079 L 13350 37081 L 13348 37081 L 13348 37081 L 13346 37081 L 13346 37083 L 13344 37083 L 13344 37085 L 13342 37085 L 13342 37085 L 13342 37087 L 13340 37087 L 13338 37091 L 13334 37109" stroke="#FF0000" stroke-width="35" fill="none" stroke-linecap="round" stroke-linejoin="round"/>
<path d="M 13636 37427 L 13656 37401 L 13670 37401 L 13686 37401 L 13700 37401 L 13724 37405 L 13724 37419 L 13724 37433 L 13736 37451 L 13736 37471 L 13736 37495 L 13736 37517 L 13736 37539 L 13736 37565 L 13736 37587" stroke="#FF0000" stroke-width="35" fill="none" stroke-linecap="round" stroke-linejoin="round"/>
<path d="M 13912 37319 L 13926 37295 L 13930 37287 L 13934 37279 L 13938 37273 L 13944 37265 L 13948 37257 L 13954 37251 L 13960 37245 L 13966 37239 L 13978 37227 L 14002 37211 L 14004 37209 L 14006 37207 L 14010 37205 L 14012 37203 L 14014 37201 L 14018 37199 L 14020 37197 L 14022 37197 L 14026 37195 L 14028 37195 L 14032 37193 L 14034 37193 L 14038 37193 L 14040 37191 L 14044 37191 L 14048 37191 L 14050 37191 L 14058 37191 L 14060 37191 L 14064 37191 L 14068 37191 L 14070 37191 L 14074 37191 L 14076 37193 L 14080 37193 L 14082 37193 L 14086 37195 L 14088 37195 L 14092 37197 L 14094 37197 L 14098 37199 L 14100 37201 L 14104 37201 L 14106 37203 L 14108 37205 L 14114 37209 L 14118 37215 L 14120 37219 L 14124 37225 L 14126 37229 L 14130 37235 L 14132 37239 L 14134 37245 L 14136 37251 L 14140 37267 L 14142 37281 L 14144 37297 L 14144 37313 L 14144 37329 L 14144 37345 L 14142 37361 L 14142 37377 L 14138 37393 L 14136 37409 L 14124 37447 L 14122 37451 L 14120 37455 L 14118 37461 L 14116 37465 L 14114 37469 L 14110 37475 L 14108 37479 L 14098 37489 L 14076 37523 L 14076 37523 L 14076 37525 L 14076 37525 L 14076 37527 L 14076 37527 L 14076 37527 L 14074 37529 L 14074 37529 L 14074 37531 L 14074 37531 L 14074 37533 L 14074 37533 L 14074 37535 L 14074 37535 L 14076 37537 L 14076 37537 L 14076 37539 L 14076 37539 L 14076 37541 L 14076 37541 L 14078 37543 L 14078 37543 L 14078 37543 L 14078 37545 L 14080 37545 L 14080 37547 L 14080 37547 L 14080 37547 L 14082 37549 L 14082 37549 L 14084 37549 L 14084 37551 L 14084 37551 L 14086 37551 L 14086 37551 L 14088 37551 L 14088 37553 L 14090 37553 L 14090 37553 L 14090 37553 L 14092 37553 L 14092 37553 L 14094 37553 L 14094 37555 L 14098 37555 L 14152 37557 L 14162 37557 L 14188 37557" stroke="#FF0000" stroke-width="35" fill="none" stroke-linecap="round" stroke-linejoin="round"/>
<path d="M 14582 37467 L 14582 37467 L 14578 37471 L 14572 37481 L 14564 37495 L 14558 37509 L 14554 37529 L 14546 37551 L 14542 37575 L 14536 37599 L 14532 37625 L 14532 37651 L 14532 37677 L 14532 37701" stroke="#FF0000" stroke-width="35" fill="none" stroke-linecap="round" stroke-linejoin="round"/>
<path d="M 14700 37361 L 14702 37347 L 14704 37333 L 14708 37319 L 14710 37305 L 14714 37293 L 14720 37279 L 14726 37267 L 14732 37253 L 14750 37219 L 14760 37203 L 14762 37201 L 14764 37197 L 14766 37195 L 14768 37193 L 14770 37191 L 14774 37189 L 14776 37187 L 14778 37185 L 14782 37183 L 14784 37181 L 14788 37179 L 14790 37177 L 14794 37177 L 14796 37175 L 14806 37173 L 14824 37171 L 14878 37173 L 14880 37173 L 14884 37173 L 14886 37173 L 14888 37175 L 14890 37175 L 14892 37175 L 14894 37177 L 14894 37177 L 14896 37177 L 14898 37179 L 14900 37179 L 14902 37181 L 14904 37181 L 14906 37183 L 14908 37185 L 14908 37185 L 14910 37187 L 14912 37189 L 14914 37191 L 14914 37193 L 14916 37193 L 14918 37197 L 14926 37217 L 14928 37219 L 14930 37223 L 14932 37227 L 14934 37229 L 14936 37233 L 14936 37237 L 14938 37241 L 14938 37245 L 14938 37247 L 14940 37251 L 14940 37255 L 14940 37265 L 14940 37279 L 14940 37283 L 14942 37289 L 14942 37295 L 14942 37301 L 14940 37307 L 14940 37313 L 14940 37319 L 14938 37323 L 14938 37329 L 14936 37335 L 14934 37341 L 14932 37345 L 14930 37351 L 14928 37357 L 14924 37361 L 14922 37367 L 14914 37377 L 14914 37377 L 14912 37379 L 14912 37379 L 14912 37381 L 14910 37381 L 14910 37383 L 14910 37383 L 14910 37383 L 14908 37385 L 14908 37385 L 14908 37387 L 14908 37387 L 14908 37389 L 14906 37389 L 14906 37391 L 14906 37391 L 14906 37393 L 14906 37393 L 14906 37395 L 14906 37395 L 14906 37397 L 14906 37399 L 14906 37399 L 14906 37401 L 14906 37401 L 14908 37403 L 14908 37403 L 14908 37405 L 14908 37405 L 14908 37407 L 14910 37407 L 14910 37409 L 14910 37409 L 14910 37409 L 14912 37411 L 14914 37413 L 14950 37441 L 14978 37461 L 14984 37467 L 14990 37475 L 14996 37481 L 15000 37489 L 15006 37497 L 15010 37505 L 15020 37529 L 15022 37531 L 15024 37535 L 15024 37539 L 15026 37545 L 15026 37549 L 15028 37553 L 15028 37557 L 15028 37561 L 15028 37565 L 15028 37569 L 15028 37573 L 15028 37577 L 15028 37581 L 15028 37587 L 15026 37591 L 15026 37595 L 15022 37607 L 15012 37619" stroke="#FF0000" stroke-width="35" fill="none" stroke-linecap="round" stroke-linejoin="round"/>
<path d="M 15302 37487 L 15334 37487 L 15358 37487 L 15384 37487 L 15404 37487 L 15420 37487 L 15436 37501 L 15436 37519 L 15450 37539 L 15450 37563 L 15450 37587 L 15450 37615 L 15450 37639 L 15450 37663 L 15448 37689" stroke="#FF0000" stroke-width="35" fill="none" stroke-linecap="round" stroke-linejoin="round"/>
<path d="M 15726 37269 L 15744 37241 L 15760 37219 L 15776 37219 L 15788 37219 L 15808 37219 L 15808 37231 L 15828 37255 L 15828 37285 L 15844 37321 L 15844 37359 L 15862 37397 L 15862 37437 L 15878 37479 L 15878 37517" stroke="#FF0000" stroke-width="35" fill="none" stroke-linecap="round" stroke-linejoin="round"/>
<path d="M 15916 37579 L 15914 37567 L 15912 37555 L 15910 37543 L 15906 37531 L 15902 37519 L 15898 37507 L 15886 37483 L 15884 37477 L 15880 37471 L 15874 37465 L 15870 37459 L 15866 37453 L 15860 37447 L 15856 37443 L 15850 37439 L 15844 37433 L 15838 37429 L 15832 37425 L 15820 37417 L 15818 37417 L 15816 37415 L 15814 37415 L 15812 37415 L 15810 37415 L 15808 37413 L 15806 37413 L 15804 37413 L 15802 37413 L 15798 37413 L 15796 37413 L 15794 37413 L 15790 37413 L 15788 37415 L 15786 37415 L 15784 37415 L 15782 37415 L 15778 37415 L 15776 37415 L 15774 37415 L 15772 37415 L 15770 37413 L 15768 37413 L 15766 37413 L 15764 37413 L 15758 37411 L 15754 37407 L 15748 37405 L 15744 37403 L 15738 37401 L 15734 37399 L 15728 37397 L 15724 37395 L 15718 37395 L 15712 37393 L 15706 37393 L 15702 37393 L 15696 37391 L 15684 37393 L 15682 37393 L 15680 37393 L 15676 37393 L 15674 37393 L 15672 37393 L 15670 37393 L 15666 37391 L 15664 37391 L 15662 37391 L 15660 37389 L 15658 37389 L 15654 37389 L 15652 37387 L 15650 37385 L 15648 37385 L 15646 37383 L 15644 37383 L 15642 37381 L 15638 37377 L 15634 37375 L 15624 37371 L 15622 37371 L 15622 37371 L 15622 37371 L 15620 37371 L 15620 37371 L 15620 37371 L 15618 37371 L 15618 37371 L 15618 37371 L 15616 37371 L 15616 37371 L 15616 37371 L 15614 37371 L 15614 37371 L 15614 37369 L 15612 37369 L 15612 37369 L 15612 37369 L 15612 37369 L 15610 37367 L 15610 37367 L 15610 37367 L 15608 37365 L 15600 37347 L 15590 37329 L 15584 37309 L 15576 37289 L 15570 37269 L 15560 37225 L 15558 37211 L 15550 37183" stroke="#FF0000" stroke-width="35" fill="none" stroke-linecap="round" stroke-linejoin="round"/>
<path d="M 16538 37465 L 16538 37465 L 16534 37469 L 16524 37481 L 16514 37499 L 16504 37521 L 16492 37547 L 16478 37575 L 16466 37605 L 16456 37639 L 16452 37671 L 16446 37699 L 16438 37729 L 16436 37757" stroke="#FF0000" stroke-width="35" fill="none" stroke-linecap="round" stroke-linejoin="round"/>
<path d="M 16786 37121 L 16806 37121 L 16820 37087 L 16842 37067 L 16836 37067 L 16828 37067 L 16808 37067 L 16786 37069 L 16768 37077 L 16746 37085 L 16722 37097 L 16698 37105 L 16676 37117 L 16658 37129 L 16636 37135" stroke="#FF0000" stroke-width="35" fill="none" stroke-linecap="round" stroke-linejoin="round"/>
<path d="M 16566 37175 L 16564 37183 L 16568 37199 L 16576 37221 L 16576 37223 L 16576 37225 L 16576 37227 L 16576 37229 L 16576 37231 L 16576 37233 L 16576 37235 L 16578 37237 L 16578 37239 L 16578 37241 L 16578 37241 L 16580 37243 L 16580 37245 L 16582 37247 L 16582 37249 L 16584 37251 L 16584 37251 L 16588 37257 L 16588 37257 L 16590 37257 L 16590 37259 L 16590 37261 L 16592 37261 L 16592 37263 L 16592 37263 L 16592 37265 L 16592 37265 L 16592 37267 L 16592 37267 L 16592 37269 L 16594 37271 L 16594 37271 L 16594 37273 L 16592 37273 L 16592 37275 L 16592 37275 L 16592 37279 L 16594 37299 L 16598 37305 L 16602 37313 L 16606 37319 L 16612 37323 L 16616 37329 L 16622 37335 L 16628 37341 L 16634 37345 L 16640 37349 L 16654 37359 L 16738 37399 L 16758 37407 L 16768 37411 L 16836 37441 L 16840 37443 L 16844 37445 L 16850 37449 L 16854 37451 L 16858 37455 L 16862 37457 L 16866 37461 L 16870 37465 L 16872 37469 L 16876 37471 L 16880 37475 L 16886 37485 L 16892 37497 L 16912 37535 L 16910 37551 L 16908 37553 L 16908 37553 L 16908 37555 L 16906 37555 L 16906 37555 L 16904 37557 L 16904 37557 L 16904 37557 L 16902 37557 L 16902 37559 L 16900 37559 L 16900 37559 L 16898 37559 L 16898 37559 L 16896 37559 L 16896 37559 L 16894 37559 L 16894 37559 L 16890 37561 L 16878 37561" stroke="#FF0000" stroke-width="35" fill="none" stroke-linecap="round" stroke-linejoin="round"/>
<path d="M 17138 36991 L 17136 36987 L 17134 36983 L 17132 36979 L 17130 36977 L 17128 36973 L 17126 36969 L 17122 36967 L 17120 36963 L 17116 36959 L 17114 36957 L 17110 36955 L 17106 36951 L 17104 36949 L 17092 36943 L 17092 36943 L 17092 36943 L 17090 36943 L 17090 36943 L 17090 36943 L 17088 36943 L 17088 36943 L 17088 36943 L 17088 36943 L 17086 36943 L 17086 36941 L 17086 36941 L 17084 36941 L 17084 36941 L 17084 36941 L 17084 36941 L 17082 36939 L 17082 36939 L 17082 36939 L 17082 36939 L 17080 36939 L 17080 36937 L 17080 36937 L 17080 36937 L 17080 36937 L 17078 36935 L 17078 36935 L 17078 36935 L 17078 36933 L 17078 36933 L 17078 36933 L 17078 36931 L 17078 36931 L 17078 36931 L 17076 36929 L 17076 36929 L 17076 36927 L 17076 36927 L 17076 36927 L 17076 36925 L 17076 36925 L 17076 36923 L 17076 36923 L 17074 36923 L 17074 36921 L 17074 36921 L 17074 36921 L 17074 36919 L 17072 36919 L 17072 36919 L 17072 36919 L 17072 36917 L 17070 36917 L 17070 36917 L 17070 36917 L 17068 36915 L 17068 36915 L 17068 36915 L 17066 36915 L 17066 36915 L 17066 36915 L 17064 36913 L 17064 36913 L 17064 36913 L 17062 36913 L 17062 36913 L 17060 36913 L 17060 36913 L 17060 36913 L 17058 36913 L 17056 36913 L 17056 36913 L 17056 36911 L 17054 36911 L 17054 36911 L 17054 36911 L 17052 36909 L 17052 36909 L 17052 36909 L 17052 36907 L 17050 36907 L 17050 36907 L 17050 36905 L 17050 36905 L 17050 36903 L 17048 36903 L 17048 36903 L 17048 36901 L 17048 36901 L 17048 36899 L 17048 36899 L 17048 36899 L 17048 36897 L 17048 36897 L 17048 36895 L 17048 36895 L 17048 36893 L 17048 36891 L 17106 36905 L 17164 36923 L 17290 36967 L 17298 36971 L 17306 36975 L 17312 36979 L 17320 36985 L 17328 36989 L 17336 36995 L 17342 37001 L 17348 37007 L 17356 37013 L 17362 37019 L 17368 37025 L 17372 37033 L 17378 37041 L 17382 37047 L 17388 37055 L 17396 37075 L 17402 37089 L 17408 37103 L 17414 37119 L 17418 37133 L 17422 37149 L 17424 37165 L 17426 37179 L 17430 37227 L 17446 37355 L 17458 37491 L 17468 37657 L 17468 37669 L 17470 37681 L 17470 37693 L 17472 37705 L 17474 37717 L 17482 37749 L 17486 37791 L 17486 37803 L 17486 37813" stroke="#FF0000" stroke-width="35" fill="none" stroke-linecap="round" stroke-linejoin="round"/>
<path d="M 17502 37795 L 17502 37795 L 17502 37771 L 17498 37771 L 17488 37771 L 17468 37751 L 17444 37751 L 17410 37751 L 17364 37751 L 17320 37751 L 17268 37751 L 17214 37751 L 17162 37751 L 17112 37751 L 17058 37751" stroke="#FF0000" stroke-width="35" fill="none" stroke-linecap="round" stroke-linejoin="round"/>
<path d="M 8746 41305 L 8746 41305 L 8746 41305 L 8746 41305 L 8744 41305 L 8744 41305 L 8744 41305 L 8744 41305 L 8744 41305 L 8744 41305 L 8742 41305 L 8742 41305 L 8742 41305 L 8742 41305 L 8742 41303 L 8742 41303 L 8742 41303 L 8740 41303 L 8740 41303 L 8740 41303 L 8740 41303 L 8740 41303 L 8740 41303 L 8740 41303 L 8740 41301 L 8740 41301 L 8740 41301 L 8738 41301 L 8738 41301 L 8738 41301 L 8738 41301 L 8738 41299 L 8738 41299 L 8738 41299 L 8738 41299 L 8738 41299 L 8738 41299 L 8738 41297 L 8738 41297 L 8738 41297 L 8738 41297 L 8738 41297 L 8738 41297 L 8738 41295 L 8738 41295 L 8738 41295 L 8738 41295 L 8738 41295 L 8738 41293 L 8738 41293 L 8738 41293 L 8740 41293 L 8740 41293 L 8740 41293 L 8738 41291 L 8738 41291 L 8738 41291 L 8738 41291 L 8738 41291 L 8738 41291 L 8738 41291 L 8738 41289 L 8738 41289 L 8738 41289 L 8738 41289 L 8738 41289 L 8738 41289 L 8738 41289 L 8738 41287 L 8738 41287 L 8736 41287 L 8736 41287 L 8736 41287 L 8736 41287 L 8736 41287 L 8736 41287 L 8736 41287 L 8736 41285 L 8734 41285 L 8734 41285 L 8734 41285 L 8734 41285 L 8734 41285 L 8734 41285 L 8732 41285 L 8732 41285 L 8732 41285 L 8732 41285 L 8732 41285 L 8730 41285 L 8730 41285 L 8730 41285 L 8730 41285 L 8730 41285 L 8730 41285 L 8730 41285 L 8728 41285 L 8728 41285 L 8728 41283 L 8728 41283 L 8728 41283 L 8728 41283 L 8728 41283 L 8728 41283 L 8728 41283 L 8728 41283 L 8726 41283 L 8726 41281 L 8726 41281 L 8726 41281 L 8726 41281 L 8726 41281 L 8726 41281 L 8726 41281 L 8726 41279 L 8726 41279 L 8726 41279 L 8726 41279 L 8726 41279 L 8726 41279 L 8726 41279 L 8726 41277 L 8726 41277 L 8726 41277 L 8726 41277 L 8726 41277 L 8726 41275 L 8726 41275 L 8726 41275 L 8726 41275 L 8726 41275 L 8726 41273 L 8726 41273 L 8726 41273 L 8726 41273 L 8726 41271 L 8726 41271 L 8726 41271 L 8726 41271 L 8726 41271 L 8726 41269 L 8726 41269 L 8726 41269 L 8726 41269 L 8726 41269 L 8724 41267 L 8724 41267 L 8724 41267 L 8724 41267 L 8724 41267 L 8724 41267 L 8724 41267 L 8722 41265 L 8722 41265 L 8722 41265 L 8716 41263 L 8716 41261 L 8716 41245 L 8716 41243 L 8710 41251 L 8712 41287 L 8714 41325 L 8726 41405 L 8754 41571 L 8758 41659 L 8764 41681 L 8774 41733 L 8790 41831 L 8774 41801 L 8750 41709 L 8720 41603 L 8672 41367 L 8672 41317 L 8672 41317 L 8672 41315 L 8672 41315 L 8672 41315 L 8672 41315 L 8674 41315 L 8674 41313 L 8674 41313 L 8674 41313 L 8674 41313 L 8674 41313 L 8676 41313 L 8676 41311 L 8676 41311 L 8676 41311 L 8678 41311 L 8678 41311 L 8678 41311 L 8678 41311 L 8678 41311 L 8680 41311 L 8680 41311 L 8680 41311 L 8680 41311 L 8682 41311 L 8682 41311 L 8682 41311 L 8682 41311 L 8684 41311 L 8684 41311 L 8684 41311 L 8684 41311 L 8686 41311 L 8686 41311 L 8704 41315 L 8716 41323 L 8728 41331 L 8740 41341 L 8752 41351 L 8762 41361 L 8774 41371 L 8802 41405 L 8830 41435 L 8962 41583 L 9124 41763 L 9160 41801 L 9160 41801 L 9160 41801 L 9160 41801 L 9160 41801 L 9160 41801 L 9160 41801 L 9160 41801 L 9160 41801 L 9160 41801 L 9162 41801 L 9162 41801 L 9162 41801 L 9162 41803 L 9162 41803 L 9162 41803 L 9162 41803 L 9162 41803 L 9164 41803 L 9164 41803 L 9164 41803 L 9164 41803 L 9164 41803 L 9164 41803 L 9164 41803 L 9164 41803 L 9166 41803 L 9166 41801 L 9166 41801 L 9166 41801 L 9166 41801 L 9166 41801 L 9166 41801 L 9166 41801 L 9166 41801 L 9168 41801 L 9168 41801 L 9168 41801 L 9168 41801 L 9168 41801 L 9168 41801 L 9168 41799 L 9168 41799 L 9168 41799 L 9168 41799 L 9168 41799 L 9168 41799 L 9168 41799 L 9170 41797 L 9172 41777 L 9168 41713 L 9164 41681 L 9144 41457 L 9130 41333 L 9124 41209 L 9124 41205" stroke="#FF0000" stroke-width="35" fill="none" stroke-linecap="round" stroke-linejoin="round"/>
<path d="M 9452 41469 L 9452 41459 L 9452 41431 L 9452 41427 L 9410 41429 L 9396 41431 L 9352 41443 L 9350 41443 L 9350 41445 L 9348 41445 L 9346 41445 L 9346 41447 L 9344 41447 L 9344 41449 L 9342 41449 L 9340 41451 L 9340 41451 L 9338 41453 L 9338 41453 L 9338 41455 L 9336 41457 L 9336 41457 L 9334 41459 L 9334 41461 L 9334 41461 L 9334 41463 L 9332 41465 L 9332 41467 L 9332 41467 L 9332 41469 L 9332 41471 L 9332 41473 L 9332 41477 L 9332 41477 L 9332 41477 L 9332 41477 L 9332 41479 L 9332 41479 L 9332 41479 L 9332 41479 L 9332 41481 L 9332 41481 L 9332 41481 L 9332 41481 L 9332 41483 L 9332 41483 L 9334 41483 L 9334 41483 L 9334 41483 L 9334 41485 L 9334 41485 L 9334 41485 L 9336 41485 L 9336 41485 L 9336 41487 L 9336 41487 L 9336 41487 L 9338 41487 L 9338 41487 L 9338 41487 L 9338 41487 L 9340 41489 L 9340 41489 L 9340 41489 L 9342 41489 L 9342 41489 L 9342 41489 L 9344 41489 L 9344 41489 L 9344 41491 L 9344 41491 L 9346 41491 L 9346 41491 L 9346 41491 L 9346 41493 L 9346 41493 L 9348 41493 L 9348 41493 L 9348 41495 L 9348 41495 L 9348 41495 L 9348 41495 L 9348 41497 L 9348 41497 L 9350 41497 L 9350 41499 L 9350 41499 L 9350 41499 L 9350 41501 L 9350 41501 L 9350 41501 L 9350 41503 L 9350 41505 L 9350 41505 L 9350 41507 L 9350 41509 L 9350 41509 L 9350 41511 L 9352 41513 L 9352 41513 L 9352 41515 L 9352 41517 L 9354 41517 L 9354 41519 L 9354 41521 L 9358 41523 L 9358 41525 L 9360 41527 L 9360 41527 L 9362 41529 L 9362 41531 L 9362 41531 L 9364 41533 L 9364 41535 L 9364 41537 L 9364 41537 L 9366 41539 L 9366 41541 L 9366 41543 L 9366 41543 L 9366 41547 L 9378 41635 L 9378 41675 L 9380 41693 L 9380 41713 L 9380 41731 L 9378 41749 L 9372 41793 L 9372 41793 L 9372 41793 L 9370 41795 L 9370 41795 L 9370 41795 L 9370 41797 L 9370 41797 L 9368 41799 L 9368 41799 L 9368 41801 L 9368 41801 L 9368 41801 L 9368 41803 L 9368 41803 L 9368 41805 L 9368 41805 L 9368 41807 L 9368 41807 L 9368 41807 L 9368 41809 L 9368 41809 L 9368 41811 L 9370 41811 L 9370 41813 L 9370 41813 L 9370 41815 L 9388 41801 L 9390 41799 L 9392 41797 L 9394 41795 L 9396 41793 L 9398 41791 L 9400 41789 L 9404 41787 L 9406 41785 L 9408 41783 L 9412 41781 L 9414 41781 L 9418 41779 L 9424 41777 L 9426 41777 L 9426 41777 L 9428 41777 L 9430 41777 L 9432 41775 L 9432 41775 L 9434 41775 L 9436 41775 L 9438 41775 L 9438 41773 L 9440 41773 L 9442 41773 L 9444 41771 L 9444 41771 L 9446 41769 L 9446 41769 L 9450 41765 L 9452 41765 L 9452 41763 L 9454 41763 L 9454 41761 L 9456 41761 L 9458 41761 L 9460 41759 L 9460 41759 L 9462 41757 L 9464 41757 L 9466 41757 L 9466 41757 L 9468 41755 L 9470 41755 L 9472 41755 L 9472 41755 L 9478 41755 L 9482 41755 L 9488 41755 L 9494 41755 L 9500 41753 L 9506 41753 L 9510 41751 L 9516 41749 L 9522 41747 L 9526 41745 L 9540 41739 L 9544 41737 L 9566 41733" stroke="#FF0000" stroke-width="35" fill="none" stroke-linecap="round" stroke-linejoin="round"/>
<path d="M 9718 41671 L 9704 41653 L 9696 41639 L 9694 41635 L 9694 41633 L 9692 41631 L 9688 41627 L 9686 41625 L 9684 41623 L 9682 41621 L 9680 41617 L 9676 41615 L 9674 41613 L 9670 41611 L 9668 41609 L 9664 41609 L 9662 41607 L 9658 41605 L 9656 41605 L 9652 41603 L 9650 41603 L 9646 41601 L 9642 41601 L 9638 41601 L 9636 41599 L 9632 41599 L 9628 41599 L 9620 41599 L 9620 41601 L 9618 41601 L 9618 41601 L 9618 41601 L 9616 41601 L 9616 41601 L 9616 41601 L 9614 41603 L 9614 41603 L 9614 41603 L 9612 41603 L 9612 41605 L 9612 41605 L 9612 41605 L 9610 41607 L 9610 41607 L 9610 41607 L 9610 41607 L 9608 41609 L 9608 41609 L 9608 41609 L 9608 41611 L 9608 41611 L 9608 41613 L 9608 41613 L 9608 41613 L 9608 41615 L 9608 41615 L 9606 41615 L 9606 41617 L 9606 41617 L 9608 41619 L 9606 41651 L 9608 41659 L 9608 41663 L 9608 41669 L 9608 41673 L 9610 41679 L 9612 41685 L 9612 41689 L 9614 41695 L 9616 41699 L 9618 41703 L 9620 41709 L 9624 41713 L 9626 41717 L 9630 41721 L 9632 41727 L 9636 41731 L 9640 41735 L 9642 41739 L 9652 41747 L 9658 41751 L 9664 41755 L 9668 41759 L 9674 41763 L 9680 41767 L 9686 41769 L 9692 41773 L 9698 41775 L 9704 41777 L 9710 41779 L 9716 41781 L 9724 41783 L 9730 41783 L 9748 41785 L 9760 41785 L 9762 41785 L 9766 41787 L 9770 41787 L 9774 41787 L 9776 41787 L 9780 41787 L 9784 41787 L 9788 41787 L 9792 41785 L 9794 41785 L 9798 41785 L 9802 41783 L 9806 41781 L 9808 41781 L 9812 41779 L 9816 41777 L 9818 41775 L 9822 41773 L 9824 41771 L 9828 41769 L 9830 41767 L 9832 41765 L 9836 41763 L 9842 41755 L 9844 41751 L 9850 41747 L 9854 41741 L 9860 41735 L 9864 41731 L 9868 41725 L 9872 41719 L 9874 41713 L 9878 41707 L 9882 41699 L 9884 41693 L 9886 41687 L 9888 41679 L 9890 41673 L 9892 41665 L 9894 41659 L 9894 41651 L 9894 41631 L 9896 41629 L 9896 41625 L 9896 41621 L 9896 41617 L 9896 41613 L 9896 41609 L 9894 41607 L 9894 41603 L 9894 41599 L 9892 41595 L 9892 41591 L 9890 41589 L 9888 41585 L 9888 41581 L 9886 41579 L 9884 41575 L 9878 41567 L 9874 41565 L 9870 41563 L 9866 41561 L 9862 41559 L 9858 41557 L 9854 41555 L 9850 41555 L 9846 41553 L 9842 41553 L 9836 41551 L 9832 41551 L 9828 41551 L 9824 41551 L 9820 41551 L 9810 41551 L 9756 41551 L 9732 41551" stroke="#FF0000" stroke-width="35" fill="none" stroke-linecap="round" stroke-linejoin="round"/>
<path d="M 10632 41471 L 10634 41467 L 10644 41449 L 10646 41445 L 10646 41441 L 10648 41439 L 10650 41435 L 10652 41433 L 10652 41429 L 10654 41427 L 10656 41425 L 10658 41421 L 10660 41419 L 10664 41417 L 10666 41413 L 10668 41411 L 10670 41409 L 10676 41405 L 10678 41405 L 10678 41405 L 10678 41403 L 10678 41403 L 10678 41403 L 10678 41403 L 10678 41403 L 10680 41401 L 10680 41401 L 10680 41401 L 10680 41401 L 10680 41399 L 10680 41399 L 10680 41399 L 10680 41399 L 10680 41397 L 10680 41397 L 10680 41397 L 10680 41397 L 10680 41395 L 10680 41395 L 10680 41395 L 10680 41395 L 10680 41393 L 10680 41393 L 10680 41393 L 10680 41393 L 10680 41391 L 10678 41391 L 10678 41391 L 10678 41391 L 10678 41391 L 10678 41389 L 10678 41389 L 10678 41389 L 10676 41389 L 10676 41389 L 10676 41387 L 10676 41387 L 10676 41387 L 10676 41387 L 10674 41387 L 10674 41387 L 10674 41387 L 10674 41385 L 10672 41385 L 10672 41385 L 10672 41385 L 10672 41385 L 10670 41385 L 10670 41385 L 10656 41387 L 10642 41389 L 10628 41393 L 10614 41397 L 10602 41401 L 10588 41407 L 10576 41413 L 10562 41419 L 10550 41425 L 10538 41433 L 10514 41449 L 10514 41451 L 10512 41451 L 10512 41451 L 10510 41451 L 10510 41453 L 10508 41453 L 10506 41455 L 10506 41455 L 10504 41455 L 10504 41457 L 10504 41457 L 10502 41459 L 10502 41459 L 10500 41461 L 10500 41461 L 10500 41463 L 10498 41463 L 10498 41465 L 10498 41467 L 10498 41467 L 10496 41469 L 10496 41469 L 10496 41471 L 10496 41473 L 10496 41473 L 10496 41475 L 10496 41477 L 10496 41477 L 10496 41479 L 10496 41481 L 10496 41481 L 10496 41483 L 10496 41483 L 10496 41485 L 10496 41487 L 10498 41487 L 10498 41489 L 10498 41491 L 10498 41491 L 10500 41493 L 10500 41493 L 10500 41495 L 10502 41495 L 10502 41497 L 10504 41497 L 10504 41499 L 10504 41499 L 10506 41501 L 10506 41501 L 10508 41501 L 10512 41503 L 10522 41511 L 10534 41519 L 10544 41527 L 10556 41533 L 10582 41545 L 10594 41551 L 10634 41571 L 10666 41585 L 10698 41601 L 10728 41619 L 10758 41637 L 10830 41689 L 10834 41693 L 10838 41697 L 10840 41701 L 10844 41705 L 10848 41709 L 10850 41715 L 10854 41719 L 10856 41723 L 10858 41729 L 10860 41733 L 10862 41739 L 10864 41743 L 10868 41755 L 10868 41757 L 10868 41759 L 10868 41761 L 10868 41761 L 10868 41763 L 10868 41765 L 10868 41767 L 10868 41769 L 10868 41771 L 10868 41773 L 10866 41775 L 10866 41775 L 10866 41777 L 10864 41779 L 10864 41781 L 10864 41783 L 10862 41783 L 10862 41785 L 10860 41787 L 10860 41787 L 10858 41789 L 10858 41791 L 10856 41791 L 10854 41793 L 10854 41795 L 10852 41795 L 10850 41797 L 10848 41797 L 10848 41797 L 10846 41799 L 10844 41799 L 10842 41801 L 10840 41801 L 10840 41801 L 10838 41801 L 10836 41803 L 10834 41803 L 10832 41803 L 10830 41803 L 10828 41803 L 10828 41803 L 10824 41803 L 10710 41809 L 10682 41809" stroke="#FF0000" stroke-width="35" fill="none" stroke-linecap="round" stroke-linejoin="round"/>
<path d="M 10940 41313 L 10952 41281 L 10952 41277 L 10954 41271 L 10956 41265 L 10958 41261 L 10960 41255 L 10964 41251 L 10970 41239 L 10974 41221 L 10974 41221 L 10976 41221 L 10976 41221 L 10976 41221 L 10976 41221 L 10976 41221 L 10976 41221 L 10976 41221 L 10976 41221 L 10976 41221 L 10976 41221 L 10978 41221 L 10978 41223 L 10978 41223 L 10978 41223 L 10978 41223 L 10978 41223 L 10978 41223 L 10978 41223 L 10978 41223 L 10980 41223 L 10980 41223 L 10980 41223 L 10980 41223 L 10980 41223 L 10980 41223 L 10980 41223 L 10980 41223 L 10980 41221 L 10982 41221 L 10982 41221 L 10982 41221 L 10982 41221 L 10982 41221 L 10982 41221 L 10982 41221 L 10982 41221 L 10982 41221 L 10982 41221 L 10984 41221 L 10984 41221 L 10984 41221 L 10984 41219 L 10984 41219 L 10984 41219 L 10984 41219 L 10984 41219 L 10984 41219 L 10984 41219 L 10984 41219 L 10984 41219 L 10984 41217 L 10984 41217 L 10984 41217 L 10984 41217 L 10984 41217 L 10984 41217 L 10984 41217 L 10984 41217 L 10984 41217 L 10984 41215 L 10984 41215 L 10984 41215 L 10984 41215 L 10986 41219 L 10986 41221 L 10986 41225 L 10988 41229 L 10988 41231 L 10988 41235 L 10988 41239 L 10988 41243 L 10988 41245 L 10988 41249 L 10986 41257 L 10986 41267 L 10988 41305 L 10992 41341 L 11004 41417 L 11016 41483 L 11022 41531 L 11032 41581 L 11042 41627 L 11076 41735 L 11090 41773 L 11092 41807" stroke="#FF0000" stroke-width="35" fill="none" stroke-linecap="round" stroke-linejoin="round"/>
<path d="M 11196 41653 L 11196 41639 L 11194 41625 L 11194 41611 L 11192 41597 L 11188 41585 L 11184 41571 L 11172 41533 L 11172 41533 L 11172 41531 L 11170 41531 L 11170 41531 L 11170 41531 L 11170 41529 L 11170 41529 L 11168 41529 L 11168 41529 L 11168 41529 L 11166 41527 L 11166 41527 L 11166 41527 L 11166 41527 L 11164 41527 L 11164 41527 L 11164 41527 L 11162 41527 L 11162 41527 L 11162 41525 L 11160 41525 L 11160 41525 L 11160 41525 L 11158 41525 L 11158 41527 L 11146 41523 L 11144 41521 L 11142 41519 L 11138 41517 L 11136 41515 L 11132 41513 L 11130 41511 L 11126 41511 L 11122 41509 L 11120 41507 L 11116 41507 L 11112 41505 L 11110 41505 L 11106 41505 L 11102 41505 L 11100 41503 L 11096 41503 L 11092 41503 L 11084 41505 L 11032 41505 L 10982 41509 L 10874 41525 L 10850 41529" stroke="#FF0000" stroke-width="35" fill="none" stroke-linecap="round" stroke-linejoin="round"/>
<path d="M 11106 41575 L 11132 41575 L 11140 41573 L 11148 41573 L 11154 41573 L 11162 41573 L 11170 41573 L 11178 41573 L 11184 41575 L 11192 41575 L 11198 41577 L 11206 41579 L 11220 41583 L 11238 41613 L 11242 41643 L 11254 41669 L 11258 41679 L 11262 41687 L 11266 41697 L 11272 41707 L 11278 41717 L 11292 41737 L 11296 41741 L 11298 41743 L 11302 41745 L 11304 41749 L 11308 41751 L 11312 41753 L 11316 41755 L 11318 41757 L 11322 41759 L 11326 41761 L 11330 41763 L 11334 41765 L 11338 41765 L 11342 41767 L 11346 41767 L 11350 41767 L 11354 41769 L 11358 41769 L 11368 41769 L 11372 41769 L 11378 41769 L 11382 41769 L 11386 41769 L 11390 41769 L 11394 41767 L 11398 41767 L 11402 41765 L 11408 41765 L 11412 41763 L 11416 41761 L 11420 41759 L 11424 41757 L 11426 41755 L 11430 41753 L 11434 41751 L 11438 41749 L 11442 41745 L 11444 41743 L 11448 41739 L 11450 41737 L 11454 41733 L 11456 41731 L 11458 41727 L 11460 41723 L 11464 41719 L 11466 41715 L 11468 41711 L 11468 41707 L 11470 41703 L 11472 41699 L 11474 41695 L 11474 41691 L 11474 41687 L 11476 41683 L 11476 41679 L 11476 41665 L 11482 41627 L 11484 41625 L 11484 41623 L 11486 41619 L 11486 41617 L 11486 41613 L 11486 41611 L 11488 41607 L 11488 41605 L 11488 41601 L 11488 41599 L 11488 41595 L 11486 41593 L 11486 41589 L 11486 41587 L 11484 41583 L 11484 41581 L 11482 41577 L 11482 41575 L 11480 41573 L 11480 41569 L 11476 41563 L 11474 41561 L 11472 41557 L 11470 41553 L 11468 41549 L 11464 41547 L 11462 41543 L 11460 41539 L 11456 41537 L 11454 41533 L 11450 41531 L 11448 41529 L 11444 41527 L 11440 41523 L 11438 41521 L 11434 41519 L 11430 41517 L 11426 41517 L 11422 41515 L 11418 41513 L 11414 41513 L 11410 41511 L 11406 41511 L 11402 41509 L 11398 41509 L 11388 41509 L 11348 41509 L 11336 41513" stroke="#FF0000" stroke-width="35" fill="none" stroke-linecap="round" stroke-linejoin="round"/>
<path d="M 11464 41573 L 11464 41571 L 11466 41569 L 11466 41569 L 11468 41567 L 11468 41565 L 11470 41565 L 11470 41563 L 11472 41561 L 11474 41561 L 11474 41559 L 11476 41559 L 11478 41557 L 11478 41557 L 11480 41555 L 11482 41555 L 11484 41553 L 11484 41553 L 11486 41553 L 11488 41551 L 11490 41551 L 11492 41551 L 11494 41551 L 11494 41551 L 11496 41551 L 11498 41551 L 11500 41551 L 11502 41551 L 11504 41551 L 11506 41551 L 11506 41551 L 11512 41551 L 11526 41579 L 11532 41619 L 11540 41643 L 11544 41657 L 11548 41673 L 11554 41687 L 11560 41701 L 11568 41715 L 11574 41729 L 11582 41743 L 11590 41757 L 11600 41769 L 11630 41805 L 11648 41817" stroke="#FF0000" stroke-width="35" fill="none" stroke-linecap="round" stroke-linejoin="round"/>
<path d="M 11890 41251 L 11890 41239 L 11892 41229 L 11890 41217 L 11890 41205 L 11890 41195 L 11888 41183 L 11886 41173 L 11882 41161 L 11880 41151 L 11876 41139 L 11872 41129 L 11860 41105 L 11860 41103 L 11860 41103 L 11858 41101 L 11858 41101 L 11856 41101 L 11856 41099 L 11856 41099 L 11854 41099 L 11854 41099 L 11854 41097 L 11852 41097 L 11852 41097 L 11850 41097 L 11850 41097 L 11848 41097 L 11848 41095 L 11846 41095 L 11846 41095 L 11844 41095 L 11844 41095 L 11842 41095 L 11842 41095 L 11840 41095 L 11840 41095 L 11840 41095 L 11838 41095 L 11838 41095 L 11836 41097 L 11836 41097 L 11834 41097 L 11834 41097 L 11832 41097 L 11832 41097 L 11830 41099 L 11804 41119 L 11800 41127 L 11798 41135 L 11794 41141 L 11792 41149 L 11790 41157 L 11788 41165 L 11786 41173 L 11784 41181 L 11782 41199 L 11782 41289 L 11782 41327 L 11782 41351 L 11782 41375 L 11784 41397 L 11786 41421 L 11790 41445 L 11804 41499 L 11822 41561 L 11860 41747 L 11882 41873 L 11892 41911 L 11898 41947 L 11904 41985 L 11910 42063 L 11910 42087 L 11912 42091 L 11912 42097 L 11914 42101 L 11914 42107 L 11914 42113 L 11914 42117 L 11914 42123 L 11912 42129 L 11912 42133 L 11910 42139 L 11910 42143 L 11908 42149 L 11906 42153 L 11900 42165 L 11888 42173" stroke="#FF0000" stroke-width="35" fill="none" stroke-linecap="round" stroke-linejoin="round"/>
<path d="M 12042 41535 L 12042 41535 L 12064 41501 L 12064 41471 L 12058 41449 L 12046 41449 L 12030 41449 L 12014 41449 L 11990 41449 L 11960 41449 L 11932 41449 L 11904 41449 L 11874 41449 L 11850 41457 L 11826 41465" stroke="#FF0000" stroke-width="35" fill="none" stroke-linecap="round" stroke-linejoin="round"/>
<path d="M 12272 41267 L 12272 41263 L 12272 41261 L 12272 41257 L 12274 41255 L 12274 41251 L 12274 41249 L 12276 41245 L 12276 41243 L 12278 41239 L 12280 41233 L 12282 41231 L 12284 41227 L 12286 41223 L 12286 41219 L 12288 41215 L 12288 41211 L 12288 41207 L 12290 41203 L 12290 41199 L 12290 41191 L 12290 41187 L 12290 41183 L 12292 41181 L 12292 41177 L 12292 41173 L 12290 41171 L 12290 41167 L 12290 41163 L 12290 41161 L 12288 41157 L 12288 41153 L 12286 41151 L 12284 41147 L 12284 41145 L 12282 41141 L 12280 41139 L 12278 41137 L 12276 41133 L 12270 41125 L 12266 41123 L 12262 41121 L 12256 41119 L 12252 41117 L 12246 41115 L 12242 41115 L 12236 41113 L 12232 41113 L 12226 41111 L 12220 41111 L 12216 41111 L 12210 41111 L 12198 41111 L 12194 41111 L 12190 41113 L 12188 41113 L 12184 41113 L 12180 41115 L 12178 41115 L 12174 41117 L 12170 41119 L 12168 41119 L 12164 41121 L 12162 41123 L 12158 41125 L 12156 41127 L 12152 41129 L 12150 41131 L 12148 41133 L 12146 41137 L 12142 41139 L 12140 41141 L 12138 41145 L 12136 41147 L 12134 41151 L 12132 41153 L 12132 41157 L 12130 41159 L 12128 41163 L 12128 41167 L 12126 41173 L 12122 41187 L 12118 41199 L 12114 41213 L 12112 41225 L 12110 41239 L 12108 41277 L 12108 41293 L 12108 41317 L 12108 41341 L 12108 41365 L 12112 41389 L 12114 41413 L 12126 41467 L 12270 41931 L 12278 41965 L 12286 41999 L 12300 42085 L 12300 42151 L 12294 42163 L 12286 42169" stroke="#FF0000" stroke-width="35" fill="none" stroke-linecap="round" stroke-linejoin="round"/>
<path d="M 12306 41679 L 12320 41679 L 12320 41647 L 12316 41627 L 12304 41627 L 12282 41627 L 12252 41627 L 12216 41627 L 12170 41605 L 12124 41605 L 12074 41605" stroke="#FF0000" stroke-width="35" fill="none" stroke-linecap="round" stroke-linejoin="round"/>
<path d="M 12828 41489 L 12822 41489 L 12814 41465 L 12806 41465 L 12800 41465 L 12790 41443 L 12780 41443 L 12772 41443 L 12762 41443 L 12754 41443 L 12744 41443 L 12738 41443 L 12738 41455 L 12738 41465" stroke="#FF0000" stroke-width="35" fill="none" stroke-linecap="round" stroke-linejoin="round"/>
<path d="M 12880 41695 L 12880 41711 L 12880 41725 L 12880 41735 L 12880 41745 L 12880 41753 L 12880 41757 L 12874 41763 L 12864 41767 L 12856 41767 L 12848 41767 L 12838 41767" stroke="#FF0000" stroke-width="35" fill="none" stroke-linecap="round" stroke-linejoin="round"/>
<path d="M 13924 40919 L 13924 40919 L 13926 40915 L 13926 40915 L 13928 40913 L 13928 40913 L 13930 40911 L 13930 40911 L 13932 40909 L 13932 40909 L 13934 40907 L 13934 40907 L 13936 40907 L 13936 40905 L 13938 40905 L 13938 40905 L 13940 40903 L 13940 40903 L 13942 40903 L 13944 40903 L 13944 40901 L 13946 40901 L 13950 40901 L 13952 40901 L 13948 40899 L 13944 40899 L 13938 40899 L 13934 40899 L 13930 40899 L 13924 40899 L 13912 40901 L 13900 40901 L 13526 40901 L 13526 40901 L 13526 40919 L 13528 40939 L 13530 40957 L 13538 41005 L 13544 41079 L 13560 41171 L 13574 41263 L 13590 41525 L 13600 41733 L 13600 41749 L 13600 41765 L 13600 41781 L 13598 41799 L 13598 41815 L 13594 41829 L 13592 41845 L 13588 41861 L 13582 41877 L 13578 41891 L 13562 41929 L 13560 41933 L 13558 41937 L 13558 41943 L 13556 41947 L 13556 41951 L 13554 41957 L 13554 41961 L 13554 41973 L 13554 41975 L 13590 41979 L 13598 41979 L 13606 41979 L 13614 41977 L 13622 41975 L 13630 41975 L 13636 41973 L 13644 41969 L 13666 41961 L 13672 41959 L 13680 41957 L 13688 41955 L 13694 41955 L 13702 41953 L 13710 41953 L 13716 41953 L 13724 41953 L 13732 41953 L 13748 41957 L 13756 41957 L 13766 41959 L 13774 41959 L 13782 41959 L 13790 41959 L 13798 41957 L 13808 41957 L 13826 41953 L 13838 41949 L 13852 41945 L 13864 41941 L 13876 41939 L 13890 41937 L 13904 41935 L 13938 41933 L 14114 41933 L 14130 41933" stroke="#FF0000" stroke-width="35" fill="none" stroke-linecap="round" stroke-linejoin="round"/>
<path d="M 14304 41337 L 14280 41335 L 14268 41319 L 14268 41319 L 14262 41315 L 14260 41315 L 14260 41315 L 14260 41315 L 14260 41315 L 14260 41315 L 14260 41315 L 14260 41315 L 14260 41315 L 14258 41315 L 14258 41315 L 14258 41315 L 14258 41315 L 14258 41315 L 14258 41315 L 14258 41315 L 14258 41315 L 14256 41315 L 14256 41315 L 14256 41315 L 14256 41315 L 14256 41315 L 14256 41315 L 14256 41315 L 14256 41315 L 14256 41315 L 14256 41315 L 14254 41313 L 14254 41313 L 14254 41313 L 14254 41313 L 14254 41313 L 14254 41313 L 14254 41313 L 14254 41313 L 14254 41313 L 14254 41311 L 14254 41311 L 14254 41311 L 14254 41309 L 14254 41309 L 14254 41307 L 14254 41305 L 14254 41305 L 14254 41303 L 14254 41301 L 14252 41301 L 14252 41299 L 14252 41299 L 14252 41297 L 14252 41295 L 14250 41295 L 14250 41293 L 14250 41293 L 14250 41291 L 14248 41289 L 14246 41287 L 14246 41283 L 14244 41279 L 14244 41277 L 14242 41273 L 14242 41269 L 14242 41265 L 14242 41261 L 14242 41257 L 14242 41245 L 14242 41243 L 14260 41233 L 14266 41225 L 14266 41223 L 14268 41223 L 14268 41221 L 14268 41221 L 14270 41221 L 14270 41219 L 14272 41219 L 14272 41219 L 14272 41217 L 14274 41217 L 14274 41217 L 14276 41215 L 14276 41215 L 14278 41215 L 14278 41215 L 14280 41213 L 14280 41213 L 14282 41213 L 14284 41213 L 14284 41213 L 14286 41213 L 14286 41213 L 14288 41213 L 14288 41213 L 14290 41213 L 14290 41213 L 14292 41213 L 14292 41213 L 14294 41213 L 14296 41215 L 14302 41215 L 14308 41215 L 14312 41215 L 14318 41215 L 14322 41215 L 14328 41215 L 14332 41217 L 14338 41217 L 14342 41219 L 14348 41221 L 14352 41223 L 14366 41229 L 14370 41233 L 14372 41235 L 14376 41239 L 14378 41241 L 14380 41245 L 14384 41249 L 14386 41251 L 14388 41255 L 14390 41259 L 14392 41263 L 14394 41267 L 14394 41271 L 14396 41275 L 14398 41279 L 14400 41291 L 14402 41305 L 14404 41317 L 14404 41329 L 14406 41343 L 14406 41355 L 14406 41369 L 14404 41381 L 14402 41393 L 14400 41407 L 14398 41419 L 14394 41431 L 14392 41443 L 14386 41455 L 14382 41467 L 14376 41479 L 14370 41491 L 14364 41501 L 14358 41513 L 14350 41523 L 14342 41533 L 14334 41543 L 14326 41553 L 14318 41561 L 14308 41571 L 14288 41587 L 14288 41587 L 14286 41587 L 14286 41587 L 14286 41587 L 14284 41589 L 14284 41589 L 14284 41589 L 14282 41589 L 14282 41591 L 14282 41591 L 14282 41591 L 14280 41591 L 14280 41593 L 14280 41593 L 14280 41593 L 14278 41595 L 14278 41595 L 14278 41595 L 14278 41597 L 14278 41597 L 14278 41597 L 14278 41599 L 14278 41599 L 14276 41599 L 14276 41601 L 14276 41601 L 14276 41603 L 14276 41605 L 14294 41613 L 14352 41613 L 14362 41613 L 14426 41613 L 14448 41613" stroke="#FF0000" stroke-width="35" fill="none" stroke-linecap="round" stroke-linejoin="round"/>
<path d="M 14664 41523 L 14664 41523 L 14660 41523 L 14654 41533 L 14650 41547 L 14640 41561 L 14632 41577 L 14622 41595 L 14614 41615 L 14604 41639 L 14596 41659 L 14582 41681 L 14578 41699 L 14564 41717" stroke="#FF0000" stroke-width="35" fill="none" stroke-linecap="round" stroke-linejoin="round"/>
<path d="M 14990 41177 L 14988 41177 L 14988 41177 L 14986 41177 L 14986 41177 L 14984 41177 L 14984 41175 L 14982 41175 L 14980 41175 L 14980 41175 L 14978 41175 L 14978 41173 L 14976 41173 L 14976 41173 L 14974 41171 L 14974 41171 L 14974 41171 L 14972 41169 L 14972 41169 L 14970 41167 L 14968 41167 L 14968 41165 L 14966 41165 L 14966 41163 L 14964 41163 L 14964 41161 L 14962 41161 L 14962 41159 L 14960 41159 L 14958 41159 L 14958 41157 L 14956 41157 L 14954 41157 L 14954 41157 L 14952 41157 L 14950 41155 L 14948 41155 L 14948 41155 L 14944 41155 L 14922 41153 L 14910 41139 L 14910 41139 L 14922 41137 L 14984 41139 L 14992 41141 L 14998 41145 L 15006 41147 L 15012 41151 L 15018 41155 L 15024 41159 L 15030 41163 L 15044 41173 L 15046 41175 L 15050 41177 L 15052 41179 L 15054 41181 L 15056 41185 L 15058 41187 L 15060 41189 L 15062 41193 L 15064 41195 L 15066 41197 L 15068 41201 L 15068 41203 L 15070 41207 L 15070 41211 L 15072 41213 L 15072 41217 L 15074 41219 L 15074 41227 L 15080 41263 L 15082 41267 L 15082 41269 L 15084 41273 L 15084 41275 L 15084 41279 L 15086 41281 L 15086 41285 L 15086 41289 L 15086 41291 L 15086 41295 L 15086 41297 L 15086 41301 L 15084 41303 L 15084 41307 L 15084 41311 L 15082 41313 L 15082 41317 L 15080 41319 L 15078 41323 L 15078 41325 L 15074 41331 L 15068 41339 L 15048 41373 L 15048 41373 L 15046 41375 L 15046 41377 L 15046 41377 L 15046 41379 L 15044 41379 L 15044 41381 L 15044 41381 L 15044 41383 L 15044 41385 L 15044 41385 L 15044 41387 L 15044 41389 L 15044 41389 L 15044 41391 L 15044 41391 L 15044 41393 L 15044 41395 L 15044 41395 L 15046 41397 L 15046 41397 L 15046 41399 L 15046 41401 L 15048 41401 L 15048 41403 L 15050 41405 L 15126 41481 L 15158 41535 L 15160 41537 L 15160 41539 L 15162 41541 L 15162 41543 L 15164 41545 L 15164 41547 L 15164 41549 L 15166 41551 L 15166 41553 L 15166 41557 L 15166 41559 L 15166 41561 L 15168 41563 L 15168 41565 L 15166 41567 L 15166 41569 L 15166 41571 L 15166 41573 L 15166 41575 L 15166 41577 L 15164 41581 L 15164 41583 L 15162 41585 L 15162 41587 L 15160 41589 L 15160 41591 L 15158 41591 L 15158 41593 L 15156 41595 L 15154 41597 L 15154 41599 L 15152 41601 L 15150 41601 L 15148 41603 L 15146 41605 L 15144 41605 L 15144 41607 L 15142 41609 L 15140 41609 L 15138 41611 L 15136 41611 L 15134 41611 L 15130 41613 L 15128 41613 L 15126 41613 L 15122 41615 L 15012 41615 L 14990 41615" stroke="#FF0000" stroke-width="35" fill="none" stroke-linecap="round" stroke-linejoin="round"/>
<path d="M 15646 41575 L 15646 41571 L 15646 41569 L 15646 41569 L 15646 41569 L 15646 41567 L 15646 41567 L 15646 41565 L 15646 41565 L 15646 41563 L 15646 41563 L 15646 41563 L 15644 41561 L 15644 41561 L 15644 41559 L 15644 41559 L 15644 41559 L 15642 41557 L 15642 41557 L 15642 41557 L 15642 41555 L 15640 41555 L 15640 41555 L 15640 41553 L 15638 41553 L 15638 41553 L 15638 41553 L 15636 41551 L 15636 41551 L 15636 41551 L 15634 41551 L 15634 41551 L 15632 41549 L 15632 41549 L 15630 41549 L 15588 41549 L 15584 41549 L 15582 41549 L 15580 41549 L 15578 41551 L 15576 41551 L 15574 41553 L 15572 41553 L 15570 41555 L 15568 41555 L 15566 41557 L 15566 41557 L 15564 41559 L 15562 41561 L 15560 41563 L 15558 41563 L 15558 41565 L 15556 41567 L 15554 41569 L 15554 41571 L 15552 41573 L 15550 41575 L 15550 41577 L 15550 41579 L 15548 41583 L 15528 41643 L 15522 41665 L 15498 41749 L 15496 41765" stroke="#FF0000" stroke-width="35" fill="none" stroke-linecap="round" stroke-linejoin="round"/>
<path d="M 16206 41195 L 16206 41195 L 16208 41191 L 16220 41179 L 16222 41175 L 16222 41171 L 16222 41171 L 16222 41171 L 16222 41169 L 16222 41169 L 16222 41169 L 16222 41167 L 16222 41167 L 16222 41167 L 16222 41165 L 16220 41165 L 16220 41165 L 16220 41165 L 16220 41163 L 16220 41163 L 16218 41163 L 16218 41161 L 16218 41161 L 16218 41161 L 16218 41161 L 16216 41161 L 16216 41159 L 16216 41159 L 16214 41159 L 16214 41159 L 16214 41159 L 16214 41159 L 16212 41157 L 16212 41157 L 16210 41157 L 16180 41153 L 16102 41163 L 16074 41167 L 16068 41167 L 16062 41167 L 16054 41169 L 16046 41169 L 16040 41171 L 16032 41173 L 16026 41175 L 16008 41181 L 16006 41181 L 16004 41183 L 16002 41185 L 16000 41185 L 16000 41187 L 15998 41189 L 15996 41191 L 15994 41193 L 15992 41195 L 15992 41197 L 15990 41199 L 15988 41201 L 15988 41203 L 15986 41205 L 15986 41207 L 15984 41209 L 15984 41211 L 15984 41213 L 15982 41215 L 15982 41217 L 15982 41221 L 15982 41223 L 15982 41225 L 15982 41231 L 15982 41429 L 15982 41429 L 15982 41429 L 15984 41431 L 15984 41431 L 15986 41433 L 15986 41433 L 15988 41433 L 15988 41435 L 15990 41435 L 15992 41435 L 15992 41437 L 15994 41437 L 15994 41437 L 15996 41437 L 15998 41437 L 15998 41437 L 16000 41437 L 16002 41437 L 16002 41437 L 16004 41437 L 16004 41437 L 16008 41437 L 16044 41439 L 16046 41439 L 16056 41437 L 16066 41437 L 16076 41437 L 16086 41439 L 16096 41439 L 16104 41441 L 16114 41443 L 16124 41445 L 16132 41447 L 16142 41451 L 16150 41453 L 16160 41457 L 16168 41463 L 16176 41467 L 16184 41471 L 16192 41477 L 16200 41483 L 16208 41489 L 16216 41495 L 16222 41501 L 16228 41509 L 16236 41515 L 16250 41535 L 16254 41543 L 16258 41549 L 16262 41555 L 16264 41561 L 16266 41569 L 16270 41575 L 16272 41583 L 16274 41589 L 16274 41597 L 16276 41603 L 16278 41611 L 16278 41619 L 16278 41625 L 16278 41633 L 16278 41641 L 16274 41659 L 16274 41663 L 16274 41667 L 16272 41671 L 16270 41675 L 16270 41677 L 16268 41681 L 16266 41685 L 16264 41689 L 16262 41691 L 16260 41695 L 16256 41697 L 16254 41701 L 16252 41703 L 16246 41709 L 16242 41711 L 16240 41713 L 16236 41717 L 16232 41719 L 16228 41719 L 16224 41721 L 16220 41723 L 16216 41725 L 16212 41725 L 16208 41727 L 16204 41727 L 16200 41729 L 16196 41729 L 16192 41729 L 16182 41729 L 16162 41729 L 16138 41729" stroke="#FF0000" stroke-width="35" fill="none" stroke-linecap="round" stroke-linejoin="round"/>
<path d="M 16570 40993 L 16570 40993 L 16570 40993 L 16568 40993 L 16568 40993 L 16568 40993 L 16568 40993 L 16566 40993 L 16566 40993 L 16566 40993 L 16566 40993 L 16564 40993 L 16564 40993 L 16564 40991 L 16564 40991 L 16564 40991 L 16562 40991 L 16562 40991 L 16562 40991 L 16562 40991 L 16562 40989 L 16560 40989 L 16560 40989 L 16560 40989 L 16560 40989 L 16560 40989 L 16560 40987 L 16560 40987 L 16558 40987 L 16558 40987 L 16558 40985 L 16558 40985 L 16558 40985 L 16558 40985 L 16558 40985 L 16558 40983 L 16558 40983 L 16558 40981 L 16558 40981 L 16558 40981 L 16558 40981 L 16558 40981 L 16558 40979 L 16558 40979 L 16556 40979 L 16556 40979 L 16556 40979 L 16556 40977 L 16556 40977 L 16556 40977 L 16556 40977 L 16556 40977 L 16554 40977 L 16554 40975 L 16554 40975 L 16554 40975 L 16554 40975 L 16554 40975 L 16552 40975 L 16552 40975 L 16552 40975 L 16552 40973 L 16552 40973 L 16550 40973 L 16550 40973 L 16550 40973 L 16550 40973 L 16548 40973 L 16548 40973 L 16548 40973 L 16546 40973 L 16546 40973 L 16546 40973 L 16546 40973 L 16544 40973 L 16544 40973 L 16544 40973 L 16544 40973 L 16542 40973 L 16542 40973 L 16542 40973 L 16542 40973 L 16540 40971 L 16540 40971 L 16540 40971 L 16540 40971 L 16538 40971 L 16538 40971 L 16538 40971 L 16538 40969 L 16538 40969 L 16536 40969 L 16536 40969 L 16536 40969 L 16536 40967 L 16536 40967 L 16536 40967 L 16534 40967 L 16534 40965 L 16534 40965 L 16534 40965 L 16534 40965 L 16534 40963 L 16534 40963 L 16534 40961 L 16534 40961 L 16534 40961 L 16532 40959 L 16532 40959 L 16532 40959 L 16532 40959 L 16532 40957 L 16532 40957 L 16532 40957 L 16530 40957 L 16530 40955 L 16530 40955 L 16530 40955 L 16530 40955 L 16528 40955 L 16528 40955 L 16528 40953 L 16528 40953 L 16526 40953 L 16526 40953 L 16526 40953 L 16526 40953 L 16524 40953 L 16524 40953 L 16524 40951 L 16524 40951 L 16522 40951 L 16522 40951 L 16522 40951 L 16520 40951 L 16518 40951 L 16518 40951 L 16518 40951 L 16516 40951 L 16516 40951 L 16514 40951 L 16514 40951 L 16514 40951 L 16512 40951 L 16512 40951 L 16512 40949 L 16510 40949 L 16510 40949 L 16510 40949 L 16508 40949 L 16508 40947 L 16508 40947 L 16508 40947 L 16506 40945 L 16506 40945 L 16506 40945 L 16506 40945 L 16504 40943 L 16504 40943 L 16504 40943 L 16504 40941 L 16502 40939 L 16502 40939 L 16502 40937 L 16502 40937 L 16500 40937 L 16500 40935 L 16500 40935 L 16498 40933 L 16498 40933 L 16498 40933 L 16496 40931 L 16496 40931 L 16494 40931 L 16494 40931 L 16494 40929 L 16492 40929 L 16492 40929 L 16490 40929 L 16490 40927 L 16488 40927 L 16488 40927 L 16486 40927 L 16486 40927 L 16484 40927 L 16484 40927 L 16482 40927 L 16480 40927 L 16480 40927 L 16478 40927 L 16478 40927 L 16478 40927 L 16476 40927 L 16476 40927 L 16474 40927 L 16474 40927 L 16474 40927 L 16472 40927 L 16472 40925 L 16470 40925 L 16470 40925 L 16470 40925 L 16468 40925 L 16468 40923 L 16468 40923 L 16466 40923 L 16466 40923 L 16466 40921 L 16466 40921 L 16464 40921 L 16464 40921 L 16464 40919 L 16464 40919 L 16462 40919 L 16462 40917 L 16462 40917 L 16462 40915 L 16462 40915 L 16460 40915 L 16460 40913 L 16460 40913 L 16460 40913 L 16460 40911 L 16458 40907 L 16458 40905 L 16458 40905 L 16458 40905 L 16458 40905 L 16456 40903 L 16456 40903 L 16456 40903 L 16456 40903 L 16456 40901 L 16456 40901 L 16456 40901 L 16456 40901 L 16456 40899 L 16456 40899 L 16454 40899 L 16454 40899 L 16454 40897 L 16454 40897 L 16454 40897 L 16454 40895 L 16454 40895 L 16456 40895 L 16456 40895 L 16456 40893 L 16456 40893 L 16456 40893 L 16456 40891 L 16456 40891 L 16456 40891 L 16456 40891 L 16456 40889 L 16458 40889 L 16458 40889 L 16458 40889 L 16458 40889 L 16458 40887 L 16460 40887 L 16460 40887 L 16460 40887 L 16460 40887 L 16460 40885 L 16462 40885 L 16462 40885 L 16462 40885 L 16462 40885 L 16464 40885 L 16464 40885 L 16464 40885 L 16466 40885 L 16466 40885 L 16466 40885 L 16466 40883 L 16468 40883 L 16468 40883 L 16470 40885 L 16514 40893 L 16548 40899 L 16566 40901 L 16584 40905 L 16602 40907 L 16618 40913 L 16636 40917 L 16654 40923 L 16690 40939 L 16700 40943 L 16708 40947 L 16718 40953 L 16726 40957 L 16734 40963 L 16742 40971 L 16750 40977 L 16758 40983 L 16766 40991 L 16772 40999 L 16778 41007 L 16784 41015 L 16798 41035 L 16810 41057 L 16822 41079 L 16832 41101 L 16840 41125 L 16848 41149 L 16866 41211 L 16894 41357 L 16924 41525 L 16928 41553 L 16942 41719 L 16956 41855 L 16958 41865 L 16958 41867 L 16958 41869 L 16958 41871 L 16958 41871 L 16958 41873 L 16958 41875 L 16958 41877 L 16958 41879 L 16958 41881 L 16958 41883 L 16958 41885 L 16956 41887 L 16956 41889 L 16956 41891 L 16954 41893 L 16954 41895 L 16952 41895 L 16950 41899 L 16942 41905 L 16932 41909 L 16924 41913 L 16914 41917 L 16904 41921 L 16894 41925 L 16884 41927 L 16874 41929 L 16864 41931 L 16842 41933 L 16718 41935 L 16656 41933 L 16514 41935 L 16372 41935 L 16242 41933 L 16184 41933" stroke="#FF0000" stroke-width="35" fill="none" stroke-linecap="round" stroke-linejoin="round"/></svg>