<svg xmlns="http://www.w3.org/2000/svg" width="2690" height="726" viewBox="0 0 2690 726"><path d="M 72 106 L 66 106 L 60 106 L 50 106 L 44 84 L 36 84 L 30 84 L 26 84 L 22 84 L 18 84 L 12 64 L 10 64 L 10 44 L 26 44 L 40 44 L 54 44 L 70 44 L 86 44 L 100 44 L 122 44 L 146 44 L 172 44 L 200 44 L 224 44 L 252 44 L 274 52 L 296 60 L 314 72 L 314 80 L 330 94 L 330 112 L 330 128 L 326 146 L 316 164 L 304 182 L 286 198 L 268 216 L 248 228 L 228 242 L 206 250 L 188 262 L 168 272 L 160 278 L 154 284 L 150 288 L 150 292 L 150 294 L 150 296 L 174 300 L 192 302 L 206 306 L 224 312 L 246 314 L 262 324 L 280 334 L 296 348 L 312 360 L 312 378 L 312 394 L 312 416 L 312 434 L 312 454 L 308 474 L 292 496 L 274 512 L 256 530 L 232 550 L 212 564 L 188 578 L 164 584 L 146 588 L 128 588" stroke="#000000" stroke-width="50.00001" fill="none" stroke-linecap="round" stroke-linejoin="round"/>
<path d="M 666 52 L 652 52 L 640 52 L 626 28 L 612 28 L 600 28 L 584 28 L 572 28 L 558 28 L 546 28 L 536 28 L 528 28 L 522 28 L 522 10 L 538 10 L 554 10 L 568 10 L 586 10 L 606 14 L 626 14 L 650 18 L 668 24 L 690 32 L 706 42 L 706 56 L 724 72 L 724 88 L 724 106 L 724 128 L 720 150 L 708 172 L 696 190 L 680 210 L 666 226 L 646 244 L 626 258 L 612 268 L 604 282 L 596 292 L 596 300 L 596 308 L 596 316 L 622 322 L 636 326 L 658 332 L 680 338 L 706 346 L 728 354 L 756 362 L 776 372 L 794 386 L 794 400 L 808 416 L 808 434 L 804 450 L 794 468 L 776 486 L 748 504 L 720 518 L 688 534 L 650 546 L 616 556 L 576 564 L 544 566" stroke="#000000" stroke-width="50.00001" fill="none" stroke-linecap="round" stroke-linejoin="round"/>
<path d="M 1204 396 L 1218 396 L 1236 396 L 1248 396 L 1248 402 L 1248 416 L 1248 434 L 1248 454 L 1246 478 L 1238 508 L 1232 538 L 1228 570 L 1222 602 L 1214 634 L 1208 666 L 1200 692 L 1196 716" stroke="#000000" stroke-width="50.00001" fill="none" stroke-linecap="round" stroke-linejoin="round"/>
<path d="M 1910 92 L 1886 92 L 1862 92 L 1840 92 L 1816 92 L 1798 92 L 1776 92 L 1760 92 L 1748 92 L 1738 92 L 1732 92 L 1732 72 L 1752 72 L 1768 72 L 1790 50 L 1816 50 L 1848 50 L 1878 50 L 1914 50 L 1950 50 L 1982 50 L 2020 50 L 2054 50 L 2082 54 L 2104 66 L 2122 82 L 2122 100 L 2134 120 L 2134 140 L 2134 164 L 2124 182 L 2116 202 L 2102 226 L 2082 246 L 2068 266 L 2046 280 L 2030 298 L 2018 310 L 2004 324 L 2004 334 L 2004 342 L 2004 348 L 2004 356 L 2022 364 L 2038 374 L 2058 384 L 2076 392 L 2094 402 L 2106 416 L 2122 430 L 2122 448 L 2134 468 L 2134 488 L 2128 508 L 2120 528 L 2102 548 L 2076 564 L 2048 584 L 2018 602 L 1982 618 L 1946 632 L 1910 642 L 1876 650 L 1848 654 L 1816 654" stroke="#000000" stroke-width="50.00001" fill="none" stroke-linecap="round" stroke-linejoin="round"/>
<path d="M 2464 230 L 2464 204 L 2464 180 L 2460 180 L 2458 180 L 2450 156 L 2444 156 L 2436 156 L 2430 156 L 2424 156 L 2414 158 L 2414 160 L 2408 166 L 2404 170 L 2402 180 L 2402 188 L 2402 196 L 2402 206 L 2402 216 L 2416 230 L 2416 244 L 2448 254 L 2470 270 L 2496 282 L 2518 298 L 2546 312 L 2576 330 L 2596 346 L 2626 368 L 2646 392 L 2668 412 L 2680 436 L 2680 460 L 2680 484 L 2680 504 L 2680 524 L 2680 546 L 2666 562 L 2644 580 L 2622 596 L 2600 608 L 2578 616 L 2550 620 L 2528 620 L 2510 620 L 2496 620 L 2482 620 L 2474 594 L 2474 554 L 2474 530 L 2474 502 L 2492 474 L 2506 438 L 2524 404 L 2538 368 L 2550 330 L 2564 298 L 2564 264 L 2584 232 L 2584 204 L 2584 178 L 2584 156 L 2578 156 L 2564 120 L 2546 120 L 2524 120 L 2492 100 L 2458 100 L 2424 100 L 2386 106 L 2354 118" stroke="#000000" stroke-width="50.00001" fill="none" stroke-linecap="round" stroke-linejoin="round"/></svg>