<svg xmlns="http://www.w3.org/2000/svg" width="9854" height="4726" viewBox="0 0 9854 4726"><path d="M 5072 122 L 5072 124 L 5086 128 L 5086 130 L 5086 132 L 5104 132 L 5104 134 L 5104 136 L 5120 136 L 5120 136 L 5132 136 L 5132 140 L 5128 142 L 5122 144 L 5112 144 L 5100 144 L 5086 148 L 5062 148 L 5030 148 L 4994 148 L 4952 148 L 4900 148 L 4842 148 L 4780 148 L 4710 148 L 4638 148 L 4562 124 L 4480 124 L 4396 124 L 4312 104 L 4234 104 L 4154 104 L 4082 86 L 4016 86 L 3956 86 L 3902 86 L 3854 86 L 3810 86 L 3768 86 L 3736 86 L 3706 86 L 3678 86 L 3652 66 L 3630 66 L 3612 66 L 3590 66 L 3572 66 L 3554 66 L 3536 66 L 3520 66 L 3502 66 L 3486 66 L 3472 66 L 3460 66 L 3452 66 L 3442 66 L 3434 66 L 3424 66 L 3424 66 L 3416 66 L 3414 70 L 3410 70 L 3410 74 L 3406 76 L 3406 80 L 3402 82 L 3398 86 L 3392 88 L 3388 88 L 3378 88 L 3370 90 L 3360 94 L 3352 96 L 3342 98 L 3334 100 L 3324 100 L 3318 102 L 3310 104 L 3304 106 L 3296 108 L 3292 108 L 3290 110 L 3286 110 L 3284 114 L 3284 118 L 3284 120 L 3284 126 L 3284 136 L 3284 148 L 3304 164 L 3304 182 L 3320 206 L 3320 234 L 3336 266 L 3336 302 L 3356 340 L 3356 378 L 3368 418 L 3368 456 L 3368 496 L 3384 534 L 3384 568 L 3384 600 L 3384 628 L 3384 650 L 3384 670 L 3384 682 L 3384 694 L 3384 700 L 3384 706 L 3378 708 L 3378 710 L 3378 710 L 3378 712 L 3378 714 L 3378 716 L 3378 718 L 3378 718 L 3378 724 L 3376 726 L 3376 728 L 3376 730 L 3376 732 L 3376 736 L 3376 738 L 3388 738 L 3388 738 L 3406 738 L 3424 738 L 3434 738 L 3456 738 L 3482 738 L 3506 738 L 3540 738 L 3576 738 L 3616 738 L 3658 738 L 3706 738 L 3754 738 L 3804 718 L 3856 718 L 3910 718 L 3962 718 L 4018 718 L 4068 724 L 4122 728 L 4170 732 L 4220 740 L 4270 746 L 4314 754 L 4360 760 L 4398 766 L 4444 776 L 4484 780 L 4516 788 L 4554 796 L 4592 804 L 4628 810 L 4660 818 L 4690 824 L 4722 828 L 4748 834 L 4772 838 L 4798 842 L 4818 846 L 4842 850 L 4866 852 L 4890 852 L 4910 854 L 4934 854 L 4958 854 L 4976 854 L 5000 854 L 5026 854 L 5048 854 L 5072 854 L 5096 854 L 5120 854 L 5144 854 L 5162 854 L 5182 854 L 5200 854 L 5214 854 L 5232 856 L 5232 858 L 5246 862 L 5246 864 L 5246 866 L 5242 866 L 5240 866 L 5240 840 L 5240 814 L 5240 780 L 5240 758 L 5236 738 L 5236 710 L 5232 688 L 5232 660 L 5230 628 L 5228 596 L 5224 566 L 5222 534 L 5214 502 L 5212 472 L 5206 440 L 5200 406 L 5192 380 L 5188 350 L 5178 320 L 5172 290 L 5162 260 L 5154 228 L 5146 200 L 5138 168 L 5128 140 L 5122 112 L 5112 84 L 5106 60 L 5100 40 L 5094 40 L 5092 10 L 5088 10" stroke="#000000" stroke-width="35" fill="none" stroke-linecap="round" stroke-linejoin="round"/>
<path d="M 3818 1198 L 3834 1178 L 3848 1178 L 3866 1178 L 3880 1178 L 3880 1158 L 3870 1158 L 3862 1158 L 3850 1158 L 3834 1158 L 3810 1158 L 3782 1158 L 3742 1158 L 3692 1158 L 3632 1158 L 3568 1158 L 3494 1158 L 3410 1158 L 3316 1158 L 3218 1158 L 3116 1158 L 3008 1158 L 2898 1158 L 2788 1158 L 2680 1164 L 2582 1164 L 2486 1168 L 2400 1170 L 2322 1174 L 2254 1174 L 2192 1176 L 2142 1178 L 2098 1182 L 2066 1184 L 2042 1184 L 2028 1186 L 2014 1188 L 2008 1188 L 2006 1188 L 2006 1190 L 2024 1190 L 2038 1190 L 2038 1192 L 2048 1192 L 2048 1194 L 2048 1194 L 2048 1198 L 2048 1202 L 2048 1212 L 2064 1222 L 2064 1238 L 2064 1260 L 2064 1282 L 2064 1308 L 2064 1338 L 2064 1370 L 2064 1406 L 2064 1442 L 2064 1484 L 2064 1524 L 2064 1564 L 2064 1600 L 2064 1636 L 2062 1670 L 2062 1700 L 2058 1726 L 2056 1746 L 2056 1764 L 2052 1778 L 2052 1792 L 2052 1804 L 2052 1810 L 2052 1814 L 2052 1820 L 2052 1822 L 2052 1826 L 2052 1830 L 2052 1832 L 2066 1834 L 2066 1838 L 2066 1842 L 2082 1842 L 2082 1844 L 2098 1846 L 2122 1846 L 2144 1848 L 2158 1848 L 2172 1848 L 2192 1848 L 2210 1848 L 2232 1826 L 2256 1826 L 2284 1826 L 2314 1804 L 2346 1804 L 2378 1804 L 2416 1782 L 2456 1782 L 2496 1782 L 2536 1782 L 2578 1760 L 2626 1760 L 2668 1760 L 2716 1760 L 2758 1760 L 2802 1760 L 2846 1760 L 2882 1760 L 2924 1760 L 2960 1760 L 2998 1760 L 3030 1762 L 3066 1766 L 3098 1772 L 3128 1776 L 3152 1782 L 3182 1786 L 3204 1794 L 3228 1800 L 3252 1804 L 3274 1808 L 3296 1812 L 3314 1814 L 3334 1814 L 3352 1820 L 3366 1820 L 3384 1820 L 3394 1822 L 3406 1822 L 3420 1822 L 3440 1822 L 3466 1822 L 3466 1800 L 3486 1800 L 3506 1800 L 3526 1800 L 3548 1800 L 3574 1800 L 3590 1800 L 3604 1800 L 3624 1800 L 3640 1800 L 3650 1800 L 3664 1800 L 3678 1800 L 3700 1778 L 3728 1778 L 3738 1778 L 3758 1778 L 3778 1756 L 3794 1756 L 3794 1732 L 3810 1732 L 3826 1732 L 3826 1712 L 3838 1712 L 3838 1690 L 3838 1692 L 3850 1692 L 3848 1670 L 3844 1670 L 3844 1650 L 3842 1650 L 3842 1630 L 3838 1630 L 3838 1604 L 3834 1604 L 3832 1576 L 3830 1556 L 3826 1556 L 3822 1518 L 3818 1518 L 3816 1484 L 3814 1484 L 3810 1452 L 3808 1422 L 3804 1422 L 3804 1394 L 3800 1394 L 3800 1370 L 3798 1370 L 3798 1352 L 3794 1352 L 3794 1322 L 3792 1322 L 3792 1300 L 3788 1300 L 3788 1272 L 3784 1272 L 3782 1244 L 3778 1244 L 3776 1212 L 3774 1212 L 3774 1188 L 3768 1188 L 3766 1166 L 3764 1144 L 3760 1144" stroke="#000000" stroke-width="35" fill="none" stroke-linecap="round" stroke-linejoin="round"/>
<path d="M 4828 1268 L 4828 1268 L 4824 1244 L 4822 1244 L 4820 1244 L 4816 1244 L 4814 1226 L 4810 1226 L 4806 1226 L 4804 1226 L 4800 1226 L 4800 1206 L 4798 1206 L 4794 1206 L 4790 1206 L 4790 1210 L 4790 1218 L 4790 1226 L 4790 1240 L 4790 1256 L 4790 1274 L 4790 1300 L 4790 1328 L 4790 1356 L 4790 1388 L 4806 1420 L 4806 1456 L 4804 1492 L 4804 1530 L 4804 1560 L 4804 1588 L 4804 1616 L 4804 1642 L 4804 1664 L 4816 1680 L 4816 1694 L 4816 1706 L 4816 1716 L 4816 1724 L 4816 1730 L 4816 1732 L 4816 1738 L 4816 1740 L 4816 1742 L 4828 1742 L 4828 1748 L 4828 1750 L 4828 1750 L 4828 1756 L 4828 1758 L 4842 1760 L 4842 1760 L 4862 1764 L 4862 1766 L 4874 1768 L 4874 1770 L 4892 1770 L 4892 1770 L 4920 1770 L 4938 1770 L 4952 1770 L 4972 1774 L 4992 1774 L 5014 1774 L 5032 1774 L 5054 1774 L 5072 1774 L 5092 1774 L 5112 1774 L 5134 1778 L 5158 1778 L 5178 1780 L 5200 1786 L 5224 1790 L 5244 1796 L 5264 1800 L 5286 1806 L 5312 1808 L 5340 1814 L 5368 1822 L 5396 1822 L 5426 1826 L 5454 1836 L 5486 1842 L 5516 1848 L 5548 1852 L 5578 1856 L 5614 1860 L 5644 1864 L 5678 1864 L 5716 1864 L 5746 1864 L 5778 1864 L 5814 1864 L 5844 1864 L 5880 1864 L 5912 1864 L 5940 1864 L 5970 1864 L 5994 1864 L 6022 1864 L 6044 1864 L 6064 1864 L 6086 1864 L 6102 1864 L 6122 1864 L 6136 1864 L 6150 1864 L 6164 1864 L 6186 1864 L 6204 1864 L 6224 1864 L 6238 1864 L 6252 1864 L 6252 1864 L 6266 1864 L 6284 1864 L 6302 1864 L 6316 1864 L 6332 1864 L 6348 1864 L 6348 1846 L 6344 1846 L 6342 1846 L 6338 1824 L 6334 1824 L 6330 1824 L 6324 1798 L 6320 1798 L 6316 1774 L 6310 1774 L 6304 1750 L 6302 1750 L 6298 1704 L 6294 1678 L 6292 1648 L 6288 1616 L 6284 1586 L 6284 1552 L 6284 1520 L 6284 1486 L 6280 1454 L 6280 1422 L 6280 1388 L 6280 1358 L 6280 1328 L 6280 1302 L 6280 1282 L 6280 1254 L 6280 1234 L 6292 1234 L 6288 1234 L 6284 1234 L 6284 1234 L 6274 1234 L 6266 1234 L 6256 1234 L 6248 1234 L 6234 1234 L 6218 1234 L 6196 1234 L 6178 1212 L 6150 1212 L 6122 1212 L 6086 1212 L 6052 1212 L 6012 1188 L 5972 1188 L 5930 1188 L 5892 1188 L 5852 1188 L 5810 1188 L 5770 1168 L 5730 1168 L 5690 1168 L 5656 1168 L 5618 1168 L 5586 1168 L 5554 1168 L 5522 1168 L 5492 1170 L 5464 1174 L 5438 1174 L 5408 1176 L 5378 1178 L 5348 1178 L 5314 1178 L 5282 1178 L 5246 1178 L 5214 1178 L 5176 1178 L 5142 1178 L 5108 1178 L 5076 1178 L 5048 1178 L 5022 1178 L 4992 1178 L 4972 1158 L 4952 1158 L 4938 1158 L 4920 1158 L 4910 1158 L 4902 1158 L 4892 1158 L 4890 1158 L 4888 1158 L 4884 1158 L 4880 1158 L 4878 1158 L 4874 1158 L 4870 1160 L 4870 1164 L 4862 1166 L 4860 1170 L 4856 1172 L 4850 1178 L 4848 1178 L 4842 1184 L 4838 1186 L 4838 1188 L 4834 1190 L 4828 1192 L 4828 1194 L 4824 1196 L 4822 1198 L 4822 1200 L 4820 1202 L 4816 1202 L 4816 1204 L 4816 1206" stroke="#000000" stroke-width="35" fill="none" stroke-linecap="round" stroke-linejoin="round"/>
<path d="M 7414 1278 L 7414 1256 L 7414 1236 L 7426 1236 L 7424 1236 L 7424 1214 L 7424 1194 L 7424 1200 L 7424 1208 L 7424 1222 L 7424 1240 L 7424 1260 L 7424 1284 L 7424 1312 L 7424 1344 L 7424 1378 L 7424 1410 L 7424 1450 L 7424 1490 L 7424 1532 L 7424 1570 L 7438 1606 L 7438 1640 L 7438 1670 L 7438 1698 L 7438 1722 L 7450 1742 L 7450 1760 L 7450 1774 L 7450 1786 L 7450 1796 L 7450 1802 L 7466 1808 L 7466 1808 L 7478 1808 L 7496 1808 L 7510 1808 L 7534 1808 L 7550 1788 L 7566 1788 L 7584 1788 L 7602 1788 L 7626 1788 L 7652 1788 L 7676 1788 L 7708 1788 L 7744 1788 L 7778 1788 L 7814 1790 L 7850 1796 L 7896 1800 L 7934 1806 L 7982 1810 L 8030 1818 L 8084 1826 L 8134 1834 L 8186 1840 L 8240 1850 L 8292 1856 L 8344 1866 L 8396 1874 L 8450 1882 L 8502 1890 L 8552 1898 L 8602 1904 L 8650 1912 L 8698 1920 L 8740 1926 L 8782 1932 L 8822 1938 L 8860 1944 L 8892 1952 L 8928 1956 L 8958 1960 L 8990 1962 L 9020 1966 L 9048 1968 L 9072 1970 L 9098 1974 L 9118 1976 L 9142 1980 L 9160 1984 L 9182 1988 L 9202 1990 L 9218 1994 L 9236 1998 L 9252 2000 L 9268 2002 L 9268 2006 L 9292 2008 L 9304 2014 L 9304 2018 L 9328 2020 L 9328 2024 L 9344 2026 L 9344 2028 L 9344 2028 L 9358 2028 L 9352 2028 L 9348 2004 L 9344 2004 L 9338 2004 L 9334 1978 L 9328 1978 L 9320 1952 L 9312 1952 L 9302 1922 L 9296 1922 L 9282 1886 L 9278 1864 L 9268 1842 L 9262 1818 L 9254 1794 L 9250 1770 L 9246 1742 L 9242 1712 L 9234 1676 L 9232 1644 L 9232 1610 L 9232 1578 L 9232 1544 L 9228 1512 L 9228 1484 L 9228 1454 L 9228 1424 L 9228 1396 L 9228 1368 L 9228 1348 L 9228 1314 L 9228 1294 L 9228 1272 L 9224 1272 L 9222 1272 L 9218 1272 L 9214 1272 L 9212 1248 L 9210 1248 L 9206 1248 L 9202 1248 L 9200 1248 L 9196 1248 L 9194 1230 L 9192 1230 L 9184 1230 L 9182 1230 L 9176 1230 L 9172 1230 L 9166 1210 L 9160 1210 L 9150 1210 L 9138 1210 L 9118 1210 L 9100 1210 L 9080 1210 L 9052 1210 L 9020 1210 L 8982 1210 L 8942 1210 L 8896 1210 L 8846 1210 L 8796 1188 L 8740 1188 L 8682 1188 L 8622 1188 L 8566 1188 L 8508 1166 L 8452 1166 L 8394 1166 L 8344 1166 L 8294 1144 L 8244 1144 L 8202 1144 L 8162 1144 L 8126 1144 L 8090 1144 L 8058 1144 L 8028 1144 L 7998 1144 L 7970 1146 L 7940 1148 L 7914 1150 L 7886 1150 L 7854 1152 L 7820 1152 L 7786 1152 L 7754 1152 L 7724 1152 L 7694 1152 L 7666 1152 L 7634 1152 L 7610 1152 L 7584 1130 L 7562 1130 L 7542 1130 L 7524 1130 L 7506 1130 L 7496 1130 L 7486 1130 L 7476 1130 L 7470 1130 L 7466 1130 L 7460 1130 L 7456 1130 L 7450 1130 L 7448 1130 L 7446 1130 L 7442 1130 L 7438 1130 L 7436 1130 L 7432 1130 L 7428 1130 L 7426 1130 L 7424 1130 L 7420 1130 L 7416 1130 L 7414 1130 L 7408 1130 L 7404 1130 L 7402 1130 L 7402 1130 L 7398 1132 L 7398 1134 L 7398 1138 L 7398 1140 L 7414 1144" stroke="#000000" stroke-width="35" fill="none" stroke-linecap="round" stroke-linejoin="round"/>
<path d="M 294 1420 L 288 1392 L 282 1392 L 274 1392 L 270 1368 L 264 1368 L 256 1368 L 252 1348 L 244 1348 L 238 1348 L 234 1348 L 230 1326 L 222 1326 L 220 1326 L 216 1326 L 212 1326 L 212 1332 L 212 1344 L 212 1358 L 212 1378 L 212 1402 L 212 1430 L 230 1458 L 230 1490 L 230 1524 L 230 1558 L 242 1594 L 242 1628 L 242 1662 L 242 1690 L 242 1716 L 242 1738 L 242 1754 L 242 1766 L 242 1772 L 238 1772 L 234 1738 L 234 1720 L 234 1700 L 234 1676 L 234 1652 L 234 1626 L 252 1600 L 252 1576 L 270 1550 L 270 1530 L 294 1510 L 312 1510 L 332 1482 L 350 1482 L 372 1482 L 390 1482 L 408 1482 L 426 1482 L 442 1496 L 442 1512 L 458 1532 L 458 1558 L 458 1582 L 452 1610 L 440 1636 L 424 1664 L 404 1692 L 376 1722 L 350 1730 L 318 1754 L 288 1774 L 256 1790 L 230 1806 L 206 1818 L 192 1830 L 180 1836" stroke="#000000" stroke-width="35" fill="none" stroke-linecap="round" stroke-linejoin="round"/>
<path d="M 558 1634 L 572 1604 L 590 1582 L 606 1562 L 606 1566 L 600 1570 L 592 1580 L 590 1592 L 582 1604 L 580 1618 L 578 1634 L 574 1648 L 574 1664 L 574 1682 L 574 1698 L 574 1710 L 574 1720 L 586 1728 L 586 1734 L 608 1736 L 624 1736 L 642 1736 L 658 1738 L 678 1738 L 696 1738 L 710 1708 L 726 1708 L 726 1680 L 744 1680 L 744 1650 L 744 1626 L 738 1626 L 726 1606 L 710 1606 L 696 1606 L 674 1606 L 654 1606 L 632 1606" stroke="#000000" stroke-width="35" fill="none" stroke-linecap="round" stroke-linejoin="round"/>
<path d="M 738 1592 L 750 1572 L 772 1572 L 784 1572 L 784 1574 L 784 1588 L 784 1604 L 798 1626 L 798 1644 L 798 1670 L 798 1694 L 812 1718 L 812 1742 L 812 1766 L 828 1790 L 828 1808 L 828 1824" stroke="#000000" stroke-width="35" fill="none" stroke-linecap="round" stroke-linejoin="round"/>
<path d="M 884 1362 L 884 1338 L 884 1316 L 884 1280 L 884 1258 L 884 1264 L 884 1276 L 900 1296 L 900 1322 L 900 1356 L 912 1392 L 912 1430 L 924 1472 L 924 1516 L 940 1558 L 940 1602 L 956 1644 L 956 1682 L 974 1714 L 974 1742 L 986 1768" stroke="#000000" stroke-width="35" fill="none" stroke-linecap="round" stroke-linejoin="round"/>
<path d="M 1072 1622 L 1072 1622 L 1072 1592 L 1086 1592 L 1086 1568 L 1082 1568 L 1078 1544 L 1072 1544 L 1062 1544 L 1052 1544 L 1036 1544 L 1018 1546 L 1000 1548 L 976 1554 L 954 1558 L 934 1564 L 912 1570 L 890 1576" stroke="#000000" stroke-width="35" fill="none" stroke-linecap="round" stroke-linejoin="round"/>
<path d="M 1206 1564 L 1220 1564 L 1234 1544 L 1234 1548 L 1230 1556 L 1224 1568 L 1222 1580 L 1210 1596 L 1200 1606 L 1184 1624 L 1172 1640 L 1160 1654 L 1146 1670 L 1134 1690 L 1124 1702 L 1120 1716 L 1116 1732 L 1110 1742 L 1110 1750 L 1110 1760 L 1110 1762 L 1110 1766 L 1124 1770 L 1152 1770 L 1164 1770 L 1184 1770 L 1204 1770 L 1222 1748 L 1244 1748 L 1264 1748 L 1284 1722 L 1306 1722" stroke="#000000" stroke-width="35" fill="none" stroke-linecap="round" stroke-linejoin="round"/>
<path d="M 1410 1440 L 1404 1416 L 1396 1416 L 1392 1398 L 1386 1398 L 1378 1398 L 1376 1378 L 1368 1378 L 1368 1380 L 1368 1388 L 1368 1400 L 1368 1416 L 1368 1440 L 1368 1464 L 1386 1494 L 1386 1524 L 1386 1554 L 1400 1588 L 1400 1618 L 1400 1652 L 1414 1682 L 1414 1708 L 1414 1732 L 1428 1750 L 1428 1764 L 1428 1770 L 1428 1772 L 1444 1772 L 1444 1740 L 1462 1740 L 1462 1710 L 1478 1710 L 1478 1674 L 1496 1674 L 1496 1640 L 1520 1640 L 1520 1612 L 1546 1612 L 1558 1612 L 1570 1612 L 1584 1612 L 1608 1614 L 1608 1628 L 1624 1646 L 1624 1664 L 1648 1684 L 1648 1706 L 1668 1728 L 1668 1748 L 1682 1766 L 1682 1780 L 1682 1794" stroke="#000000" stroke-width="35" fill="none" stroke-linecap="round" stroke-linejoin="round"/>
<path d="M 2424 1346 L 2452 1360 L 2480 1374 L 2506 1390 L 2544 1408 L 2586 1430 L 2626 1456 L 2668 1476 L 2708 1502 L 2746 1522 L 2784 1542 L 2820 1560 L 2848 1574 L 2874 1586 L 2898 1598 L 2914 1608" stroke="#00A0D7" stroke-width="35" fill="none" stroke-linecap="round" stroke-linejoin="round"/>
<path d="M 2838 1376 L 2834 1376 L 2830 1350 L 2824 1350 L 2820 1350 L 2812 1350 L 2800 1350 L 2788 1352 L 2772 1362 L 2754 1380 L 2728 1400 L 2700 1422 L 2676 1452 L 2648 1482 L 2620 1512 L 2592 1544 L 2566 1574 L 2538 1604 L 2518 1632 L 2496 1658" stroke="#00A0D7" stroke-width="35" fill="none" stroke-linecap="round" stroke-linejoin="round"/>
<path d="M 5100 1422 L 5088 1422 L 5078 1400 L 5070 1400 L 5060 1400 L 5078 1400 L 5096 1404 L 5112 1412 L 5138 1426 L 5162 1440 L 5182 1456 L 5210 1476 L 5240 1496 L 5274 1518 L 5306 1540 L 5334 1560 L 5370 1582 L 5398 1602 L 5426 1620 L 5450 1640" stroke="#00A0D7" stroke-width="35" fill="none" stroke-linecap="round" stroke-linejoin="round"/>
<path d="M 5482 1470 L 5468 1450 L 5460 1450 L 5448 1450 L 5436 1450 L 5414 1450 L 5394 1450 L 5370 1450 L 5344 1450 L 5312 1450 L 5280 1456 L 5246 1466 L 5214 1478 L 5182 1490 L 5150 1506 L 5122 1520 L 5096 1538 L 5072 1556 L 5054 1572" stroke="#00A0D7" stroke-width="35" fill="none" stroke-linecap="round" stroke-linejoin="round"/>
<path d="M 3184 1240 L 3182 1240 L 3180 1240 L 3172 1240 L 3166 1240 L 3160 1240 L 3160 1242 L 3160 1244 L 3160 1246 L 3174 1250 L 3174 1254 L 3188 1262 L 3188 1272 L 3208 1280 L 3222 1292 L 3240 1306 L 3256 1322 L 3276 1340 L 3300 1360 L 3322 1378 L 3342 1398 L 3366 1416 L 3386 1438 L 3408 1456 L 3426 1474 L 3446 1490 L 3460 1504 L 3474 1518 L 3474 1530 L 3494 1540 L 3494 1546 L 3510 1550" stroke="#FF0000" stroke-width="35" fill="none" stroke-linecap="round" stroke-linejoin="round"/>
<path d="M 3434 1308 L 3426 1308 L 3420 1308 L 3414 1308 L 3406 1308 L 3400 1308 L 3390 1308 L 3380 1308 L 3372 1320 L 3362 1332 L 3350 1350 L 3336 1368 L 3322 1388 L 3306 1410 L 3294 1436 L 3276 1460 L 3264 1484 L 3248 1510 L 3232 1534 L 3216 1556 L 3200 1578 L 3184 1594 L 3174 1608" stroke="#FF0000" stroke-width="35" fill="none" stroke-linecap="round" stroke-linejoin="round"/>
<path d="M 5522 1390 L 5514 1390 L 5504 1390 L 5496 1368 L 5488 1368 L 5480 1368 L 5472 1368 L 5470 1368 L 5466 1368 L 5464 1368 L 5454 1368 L 5466 1368 L 5482 1372 L 5482 1378 L 5504 1388 L 5518 1398 L 5536 1414 L 5556 1430 L 5578 1450 L 5604 1470 L 5628 1490 L 5656 1514 L 5684 1538 L 5710 1558 L 5736 1580 L 5764 1602 L 5786 1622 L 5808 1642 L 5826 1652 L 5842 1662 L 5858 1664" stroke="#FF0000" stroke-width="35" fill="none" stroke-linecap="round" stroke-linejoin="round"/>
<path d="M 5810 1430 L 5798 1430 L 5786 1430 L 5774 1406 L 5764 1406 L 5752 1406 L 5738 1406 L 5724 1406 L 5706 1414 L 5690 1424 L 5672 1434 L 5652 1452 L 5634 1470 L 5616 1488 L 5596 1510 L 5582 1534 L 5564 1558 L 5558 1580 L 5546 1606 L 5532 1628" stroke="#FF0000" stroke-width="35" fill="none" stroke-linecap="round" stroke-linejoin="round"/>
<path d="M 7714 1420 L 7704 1420 L 7692 1420 L 7682 1420 L 7674 1396 L 7664 1396 L 7654 1396 L 7648 1396 L 7642 1396 L 7636 1396 L 7632 1396 L 7630 1396 L 7642 1396 L 7642 1404 L 7664 1416 L 7680 1432 L 7698 1448 L 7722 1466 L 7746 1488 L 7768 1508 L 7796 1532 L 7824 1558 L 7852 1584 L 7882 1610 L 7912 1634 L 7938 1656 L 7958 1676 L 7980 1692 L 7992 1702" stroke="#FF0000" stroke-width="35" fill="none" stroke-linecap="round" stroke-linejoin="round"/>
<path d="M 7890 1496 L 7890 1496 L 7890 1476 L 7904 1476 L 7920 1476 L 7920 1478 L 7920 1484 L 7914 1496 L 7904 1510 L 7888 1528 L 7868 1548 L 7846 1572 L 7818 1596 L 7788 1624 L 7754 1652 L 7722 1682 L 7688 1710 L 7656 1742 L 7628 1768 L 7598 1796 L 7572 1814" stroke="#FF0000" stroke-width="35" fill="none" stroke-linecap="round" stroke-linejoin="round"/>
<path d="M 204 320 L 204 320 L 204 300 L 218 300 L 218 280 L 214 280 L 210 280 L 208 280 L 204 280 L 202 280 L 202 260 L 200 260 L 196 260 L 196 240 L 196 244 L 196 248 L 196 258 L 196 272 L 196 286 L 196 308 L 196 334 L 208 362 L 208 394 L 208 426 L 226 460 L 226 496 L 226 534 L 242 568 L 242 602 L 242 634 L 256 660 L 256 684 L 256 706 L 256 722 L 256 732 L 256 736 L 256 736 L 248 736 L 242 700 L 236 700 L 230 658 L 224 634 L 224 612 L 224 586 L 224 562 L 224 534 L 224 506 L 242 484 L 256 462 L 274 462 L 288 430 L 310 430 L 332 430 L 356 430 L 380 430 L 406 432 L 428 448 L 448 464 L 466 484 L 466 508 L 466 534 L 466 564 L 466 592 L 466 622 L 458 654 L 444 678 L 426 702 L 404 724 L 380 740 L 360 754 L 338 762" stroke="#000000" stroke-width="35" fill="none" stroke-linecap="round" stroke-linejoin="round"/>
<path d="M 712 610 L 712 586 L 712 564 L 708 564 L 690 564 L 676 564 L 652 544 L 634 544 L 616 546 L 596 552 L 582 560 L 566 568 L 556 580 L 550 598 L 542 614 L 536 628 L 536 644 L 536 658 L 536 674 L 536 684 L 554 692 L 574 696 L 588 700 L 610 700 L 628 700 L 650 700 L 668 676 L 684 676 L 698 646 L 716 646 L 716 612 L 730 612 L 730 576 L 730 548 L 720 528" stroke="#000000" stroke-width="35" fill="none" stroke-linecap="round" stroke-linejoin="round"/>
<path d="M 738 552 L 738 552 L 750 552 L 750 566 L 750 586 L 750 606 L 762 632 L 762 660 L 762 688 L 780 718 L 780 744 L 798 766 L 798 790" stroke="#000000" stroke-width="35" fill="none" stroke-linecap="round" stroke-linejoin="round"/>
<path d="M 844 228 L 830 204 L 820 204 L 812 176 L 806 176 L 802 176 L 802 184 L 802 200 L 802 224 L 802 250 L 802 280 L 820 314 L 820 352 L 834 394 L 850 436 L 862 478 L 862 520 L 886 560 L 886 596" stroke="#000000" stroke-width="35" fill="none" stroke-linecap="round" stroke-linejoin="round"/>
<path d="M 1042 544 L 1038 526 L 1032 526 L 1026 496 L 1020 496 L 1010 496 L 1000 496 L 982 496 L 968 496 L 950 496 L 926 502 L 908 514 L 884 528 L 866 542 L 844 552 L 828 566" stroke="#000000" stroke-width="35" fill="none" stroke-linecap="round" stroke-linejoin="round"/>
<path d="M 1054 502 L 1070 502 L 1082 478 L 1096 478 L 1094 478 L 1088 478 L 1082 490 L 1070 506 L 1060 520 L 1052 536 L 1040 554 L 1026 574 L 1020 592 L 1018 612 L 1014 630 L 1014 648 L 1014 666 L 1014 678 L 1014 692 L 1036 698 L 1036 702 L 1060 702 L 1076 702 L 1094 702 L 1110 702 L 1128 702 L 1146 674 L 1164 674 L 1182 642 L 1194 642" stroke="#000000" stroke-width="35" fill="none" stroke-linecap="round" stroke-linejoin="round"/>
<path d="M 1156 324 L 1152 324 L 1152 304 L 1152 286 L 1162 286 L 1162 290 L 1162 296 L 1162 310 L 1178 332 L 1178 356 L 1196 384 L 1196 414 L 1218 448 L 1218 482 L 1240 520 L 1240 558 L 1264 598 L 1264 636 L 1284 672 L 1284 706 L 1302 730 L 1302 746 L 1302 752 L 1302 754 L 1314 754 L 1314 718 L 1314 698 L 1314 670 L 1314 644 L 1314 616 L 1330 586 L 1330 560 L 1330 538 L 1354 538 L 1354 514 L 1382 514 L 1398 514 L 1414 516 L 1432 524 L 1448 538 L 1464 552 L 1464 574 L 1482 600 L 1496 624 L 1496 654 L 1518 676 L 1518 698 L 1534 712" stroke="#000000" stroke-width="35" fill="none" stroke-linecap="round" stroke-linejoin="round"/>
<path d="M 750 302 L 766 302 L 766 282 L 782 282 L 794 282 L 794 288 L 794 290 L 794 294 L 794 298 L 794 306 L 794 312 L 794 318 L 794 326 L 806 334 L 806 344 L 806 354 L 824 368 L 824 384 L 840 402 L 840 422 L 860 442 L 860 466 L 878 490 L 878 516 L 900 540 L 900 566 L 916 594 L 916 622 L 932 650 L 932 680 L 932 704 L 932 724 L 946 746 L 946 764 L 946 780 L 946 794 L 946 808 L 946 818 L 942 828 L 940 836 L 940 842 L 940 846 L 936 848 L 936 850" stroke="#000000" stroke-width="35" fill="none" stroke-linecap="round" stroke-linejoin="round"/>
<path d="M 1720 224 L 1720 224 L 1736 224 L 1750 224 L 1746 224 L 1742 224 L 1738 224 L 1734 224 L 1724 224 L 1716 224 L 1706 228 L 1688 232 L 1678 238 L 1662 244 L 1648 250 L 1634 258 L 1620 264 L 1606 272 L 1594 278 L 1582 286 L 1572 292 L 1566 296 L 1560 302 L 1556 308 L 1556 314 L 1556 326 L 1556 336 L 1556 350 L 1576 366 L 1576 374 L 1594 392 L 1594 414 L 1612 438 L 1612 466 L 1634 494 L 1634 524 L 1652 554 L 1652 586 L 1670 616 L 1670 644 L 1684 674 L 1684 702 L 1684 728 L 1684 752 L 1702 774 L 1702 792 L 1702 802 L 1702 812 L 1716 818" stroke="#000000" stroke-width="35" fill="none" stroke-linecap="round" stroke-linejoin="round"/>
<path d="M 1780 586 L 1780 552 L 1794 552 L 1792 530 L 1786 530 L 1784 530 L 1776 530 L 1768 530 L 1752 530 L 1738 532 L 1712 538 L 1690 544 L 1670 554 L 1640 566 L 1616 574 L 1590 584 L 1566 592" stroke="#000000" stroke-width="35" fill="none" stroke-linecap="round" stroke-linejoin="round"/>
<path d="M 1794 590 L 1826 590 L 1850 590 L 1872 566 L 1890 566 L 1904 566 L 1922 566 L 1916 566 L 1910 566 L 1900 568 L 1894 576 L 1888 586 L 1878 600 L 1878 614 L 1876 626 L 1876 642 L 1876 658 L 1876 670 L 1894 682 L 1894 690 L 1920 698 L 1930 704 L 1952 704 L 1964 704 L 1980 704 L 2002 684 L 2002 658 L 2000 622 L 1988 602 L 1970 602 L 1952 572 L 1930 572 L 1910 552 L 1884 552 L 1862 552 L 1840 552" stroke="#000000" stroke-width="35" fill="none" stroke-linecap="round" stroke-linejoin="round"/>
<path d="M 2062 580 L 2062 580 L 2072 554 L 2072 556 L 2072 568 L 2072 580 L 2072 594 L 2086 612 L 2086 626 L 2098 642 L 2098 658 L 2114 674 L 2114 688 L 2126 698 L 2126 704 L 2126 706 L 2126 680 L 2124 642 L 2122 618 L 2114 594 L 2114 574 L 2112 546 L 2108 520 L 2108 498 L 2108 466 L 2122 466" stroke="#000000" stroke-width="35" fill="none" stroke-linecap="round" stroke-linejoin="round"/>
<path d="M 2350 500 L 2346 500 L 2340 500 L 2336 500 L 2332 500 L 2328 500 L 2326 500 L 2326 512 L 2326 524 L 2326 544 L 2346 566 L 2346 592 L 2354 620 L 2354 648 L 2374 676 L 2374 706 L 2390 732 L 2390 754 L 2390 776 L 2402 792 L 2402 796 L 2402 800 L 2396 800 L 2390 800 L 2384 774 L 2378 774 L 2372 732 L 2364 704 L 2354 674 L 2350 640 L 2346 608 L 2346 574 L 2346 538 L 2346 508 L 2346 484 L 2346 458 L 2354 438 L 2382 414 L 2396 414 L 2418 414 L 2436 418 L 2456 430 L 2470 450 L 2470 472 L 2486 498 L 2486 522 L 2486 546 L 2484 570 L 2476 590 L 2466 610 L 2450 622 L 2432 638 L 2408 648 L 2386 658 L 2378 658 L 2354 658" stroke="#000000" stroke-width="35" fill="none" stroke-linecap="round" stroke-linejoin="round"/>
<path d="M 2452 530 L 2476 508 L 2498 508 L 2516 508 L 2534 486 L 2548 486 L 2566 468 L 2566 478 L 2564 488 L 2560 500 L 2560 516 L 2560 532 L 2560 546 L 2560 564 L 2560 578 L 2560 594 L 2576 612 L 2576 622 L 2590 630 L 2590 636 L 2612 636 L 2636 636 L 2654 612 L 2668 576 L 2668 558 L 2686 524 L 2686 488 L 2686 466 L 2696 466 L 2696 468 L 2696 478 L 2696 488 L 2696 504 L 2696 522 L 2696 542 L 2712 562 L 2712 580 L 2728 596 L 2728 614 L 2750 626 L 2750 634 L 2772 640 L 2788 640" stroke="#000000" stroke-width="35" fill="none" stroke-linecap="round" stroke-linejoin="round"/>
<path d="M 2864 270 L 2860 270 L 2856 246 L 2852 246 L 2846 246 L 2846 248 L 2846 266 L 2860 282 L 2860 306 L 2860 334 L 2878 362 L 2878 396 L 2892 430 L 2892 462 L 2892 496 L 2908 528 L 2908 560 L 2908 588 L 2908 612 L 2920 630 L 2920 646 L 2920 650 L 2920 654 L 2920 628 L 2932 628 L 2932 600 L 2948 568 L 2964 538 L 2984 514 L 3012 514 L 3022 514 L 3038 514 L 3038 514 L 3058 526 L 3058 540 L 3058 558 L 3058 576 L 3052 596 L 3044 614 L 3032 630 L 3012 646 L 2990 660 L 2960 676 L 2932 682 L 2900 694 L 2874 700" stroke="#000000" stroke-width="35" fill="none" stroke-linecap="round" stroke-linejoin="round"/>
<path d="M 148 2082 L 144 2082 L 144 2060 L 142 2060 L 138 2040 L 134 2040 L 132 2040 L 130 2044 L 130 2054 L 124 2068 L 124 2090 L 124 2114 L 124 2140 L 124 2172 L 124 2202 L 124 2238 L 124 2272 L 144 2312 L 144 2352 L 144 2390 L 162 2428 L 162 2460 L 180 2486 L 180 2506 L 202 2518 L 202 2526 L 230 2526 L 240 2526 L 256 2526 L 268 2526 L 284 2500 L 296 2500 L 296 2464" stroke="#000000" stroke-width="35" fill="none" stroke-linecap="round" stroke-linejoin="round"/>
<path d="M 358 2282 L 350 2282 L 340 2282 L 326 2282 L 312 2282 L 296 2282 L 276 2282 L 256 2282 L 232 2282 L 206 2284 L 174 2294 L 144 2306 L 116 2316 L 86 2332 L 58 2344 L 36 2356 L 10 2368" stroke="#000000" stroke-width="35" fill="none" stroke-linecap="round" stroke-linejoin="round"/>
<path d="M 272 2316 L 284 2294 L 300 2294 L 312 2294 L 324 2294 L 324 2298 L 324 2308 L 322 2320 L 318 2330 L 318 2346 L 314 2358 L 314 2376 L 314 2388 L 314 2398 L 314 2410 L 334 2416 L 334 2418 L 354 2420 L 364 2420 L 380 2420 L 394 2420 L 408 2398 L 424 2398 L 424 2374 L 442 2374 L 442 2342 L 442 2312 L 436 2292 L 424 2292 L 404 2292 L 386 2292 L 368 2292" stroke="#000000" stroke-width="35" fill="none" stroke-linecap="round" stroke-linejoin="round"/>
<path d="M 784 2286 L 802 2286 L 802 2266 L 802 2246 L 794 2246 L 788 2246 L 780 2246 L 770 2246 L 762 2246 L 752 2246 L 748 2246 L 734 2254 L 730 2262 L 720 2274 L 710 2290 L 702 2304 L 694 2322 L 684 2342 L 682 2362 L 678 2382 L 676 2402 L 676 2418 L 676 2434 L 676 2450 L 692 2460 L 692 2466 L 716 2472 L 734 2474 L 756 2474 L 780 2474 L 798 2474 L 824 2448 L 846 2448 L 874 2414 L 900 2390" stroke="#000000" stroke-width="35" fill="none" stroke-linecap="round" stroke-linejoin="round"/>
<path d="M 1022 2116 L 1018 2116 L 1008 2092 L 998 2092 L 992 2092 L 988 2092 L 986 2092 L 982 2092 L 982 2098 L 982 2112 L 982 2132 L 982 2158 L 982 2184 L 998 2212 L 998 2244 L 1014 2274 L 1014 2308 L 1028 2340 L 1028 2370 L 1042 2398 L 1042 2426 L 1042 2448 L 1060 2464 L 1060 2474 L 1060 2480 L 1060 2448 L 1072 2416 L 1072 2398 L 1072 2360 L 1094 2360 L 1094 2330 L 1116 2330 L 1128 2330 L 1146 2330 L 1164 2330 L 1180 2330 L 1198 2336 L 1214 2350 L 1230 2370 L 1244 2388 L 1258 2412 L 1272 2436 L 1272 2460 L 1286 2482 L 1286 2500 L 1298 2514 L 1298 2526" stroke="#000000" stroke-width="35" fill="none" stroke-linecap="round" stroke-linejoin="round"/>
<path d="M 1390 2338 L 1390 2338 L 1390 2306 L 1384 2284 L 1376 2284 L 1366 2284 L 1356 2284 L 1340 2284 L 1326 2284 L 1312 2284 L 1300 2284 L 1288 2290 L 1280 2300 L 1278 2306 L 1276 2316 L 1276 2326 L 1276 2334 L 1276 2340 L 1290 2344 L 1290 2350 L 1316 2350 L 1330 2350 L 1348 2350 L 1366 2350 L 1386 2350 L 1404 2326 L 1416 2326 L 1432 2302 L 1452 2278 L 1452 2254 L 1442 2254 L 1436 2254 L 1420 2254 L 1404 2254 L 1386 2258 L 1366 2272 L 1352 2286 L 1336 2304 L 1322 2324 L 1312 2344 L 1306 2366 L 1302 2388 L 1302 2410 L 1302 2428 L 1302 2444 L 1326 2458 L 1326 2466 L 1352 2470 L 1370 2474 L 1394 2474 L 1416 2474 L 1442 2474 L 1464 2474 L 1486 2450 L 1508 2450 L 1528 2420 L 1542 2420 L 1554 2380 L 1576 2344 L 1576 2308 L 1590 2308 L 1590 2280 L 1588 2280 L 1582 2280 L 1578 2280 L 1572 2286 L 1566 2302 L 1560 2320 L 1558 2338 L 1554 2358 L 1554 2380 L 1554 2400 L 1554 2420 L 1554 2440 L 1554 2458 L 1554 2470 L 1572 2482 L 1572 2488 L 1590 2490 L 1606 2490 L 1622 2490 L 1644 2490 L 1662 2490 L 1684 2468 L 1702 2468" stroke="#000000" stroke-width="35" fill="none" stroke-linecap="round" stroke-linejoin="round"/>
<path d="M 1838 2168 L 1832 2146 L 1824 2146 L 1822 2146 L 1818 2122 L 1816 2122 L 1814 2122 L 1806 2122 L 1804 2122 L 1800 2126 L 1800 2144 L 1800 2164 L 1800 2192 L 1800 2220 L 1800 2254 L 1800 2290 L 1818 2326 L 1818 2364 L 1832 2402 L 1832 2436 L 1850 2470 L 1850 2506 L 1866 2532 L 1866 2554 L 1880 2572 L 1880 2582 L 1892 2588 L 1910 2588 L 1910 2566 L 1910 2530 L 1910 2508 L 1910 2486 L 1910 2460 L 1910 2436 L 1920 2412 L 1920 2388 L 1920 2366 L 1920 2344 L 1920 2316 L 1920 2316 L 1920 2330 L 1916 2344 L 1910 2360 L 1902 2374 L 1900 2392 L 1896 2412 L 1896 2428 L 1892 2444 L 1892 2460 L 1892 2476 L 1892 2486 L 1892 2496 L 1910 2502 L 1910 2506 L 1934 2506 L 1950 2506 L 1970 2506 L 1996 2506 L 2020 2506 L 2048 2506 L 2076 2506" stroke="#000000" stroke-width="35" fill="none" stroke-linecap="round" stroke-linejoin="round"/>
<path d="M 316 2700 L 332 2700 L 332 2674 L 350 2674 L 362 2652 L 358 2652 L 356 2652 L 354 2652 L 340 2652 L 336 2652 L 322 2652 L 306 2652 L 302 2652 L 284 2652 L 274 2666 L 264 2686 L 256 2706 L 252 2730 L 248 2756 L 244 2788 L 244 2822 L 244 2858 L 244 2896 L 266 2936 L 278 2974 L 292 3012 L 310 3048 L 328 3080 L 328 3110 L 354 3134 L 354 3154 L 376 3166" stroke="#000000" stroke-width="35" fill="none" stroke-linecap="round" stroke-linejoin="round"/>
<path d="M 390 2998 L 390 2966 L 390 2936 L 386 2936 L 376 2936 L 366 2946 L 350 2958 L 336 2970 L 316 2984 L 298 2998 L 278 3010 L 260 3020 L 248 3030" stroke="#000000" stroke-width="35" fill="none" stroke-linecap="round" stroke-linejoin="round"/>
<path d="M 346 2968 L 370 2968 L 390 2942 L 406 2942 L 426 2916 L 440 2916 L 440 2892 L 458 2892 L 458 2874 L 458 2876 L 458 2880 L 458 2886 L 458 2892 L 458 2904 L 458 2916 L 458 2926 L 458 2934 L 458 2944 L 472 2954 L 472 2958 L 490 2960 L 512 2960 L 538 2960 L 538 2940 L 558 2940 L 558 2910 L 574 2910 L 574 2870 L 574 2852 L 574 2830 L 568 2810 L 556 2810 L 546 2782 L 538 2782" stroke="#000000" stroke-width="35" fill="none" stroke-linecap="round" stroke-linejoin="round"/>
<path d="M 496 2758 L 514 2758 L 514 2764 L 538 2772 L 538 2774 L 560 2782 L 578 2790 L 578 2796 L 596 2806 L 596 2814 L 616 2826 L 616 2844 L 632 2860 L 632 2876 L 648 2894 L 648 2912 L 666 2930 L 666 2948 L 684 2964 L 684 2978 L 700 2990 L 700 3000 L 712 3006 L 712 2986 L 712 2954 L 712 2934 L 712 2908 L 710 2882 L 708 2854 L 700 2826 L 698 2800 L 698 2772 L 698 2748 L 698 2726 L 710 2696" stroke="#000000" stroke-width="35" fill="none" stroke-linecap="round" stroke-linejoin="round"/>
<path d="M 1022 2776 L 1022 2776 L 1022 2778 L 1018 2778 L 1010 2780 L 1002 2786 L 992 2794 L 982 2802 L 976 2816 L 970 2830 L 964 2850 L 958 2866 L 958 2886 L 958 2906 L 958 2924 L 958 2944 L 958 2964 L 972 2982 L 972 2996 L 994 3008 L 1008 3014 L 1022 3020 L 1042 3020 L 1060 3020 L 1078 3020 L 1096 2996 L 1116 2996 L 1132 2964 L 1132 2944 L 1150 2922 L 1150 2898 L 1150 2876 L 1150 2854 L 1146 2832 L 1138 2832 L 1124 2798 L 1106 2798 L 1088 2772 L 1066 2772 L 1044 2772" stroke="#000000" stroke-width="35" fill="none" stroke-linecap="round" stroke-linejoin="round"/>
<path d="M 1052 2786 L 1070 2786 L 1088 2786 L 1104 2786 L 1120 2786 L 1120 2764 L 1142 2764 L 1162 2766 L 1162 2770 L 1178 2776 L 1178 2786 L 1196 2800 L 1196 2816 L 1222 2834 L 1234 2856 L 1246 2878 L 1262 2902 L 1276 2924 L 1294 2944 L 1306 2962 L 1306 2980 L 1330 2992 L 1344 3000 L 1358 3006 L 1374 3006 L 1396 3006 L 1414 2982 L 1414 2948 L 1414 2924 L 1426 2900 L 1426 2872 L 1424 2846 L 1420 2818 L 1420 2790 L 1420 2764 L 1416 2740 L 1416 2716" stroke="#000000" stroke-width="35" fill="none" stroke-linecap="round" stroke-linejoin="round"/>
<path d="M 1492 2674 L 1492 2684 L 1514 2694 L 1514 2704 L 1526 2716 L 1526 2726 L 1526 2736 L 1526 2746 L 1526 2754 L 1542 2762 L 1536 2768 L 1534 2774 L 1532 2784 L 1532 2792 L 1532 2796 L 1532 2804 L 1532 2812 L 1532 2816 L 1546 2820 L 1546 2822 L 1566 2822 L 1584 2822 L 1610 2822 L 1630 2794 L 1648 2774 L 1648 2746 L 1640 2746 L 1630 2746 L 1618 2746 L 1602 2756 L 1588 2770 L 1576 2784 L 1564 2804 L 1550 2822 L 1542 2842 L 1534 2860 L 1532 2880 L 1532 2900 L 1532 2918 L 1532 2936 L 1550 2950 L 1566 2962 L 1578 2972 L 1600 2976 L 1620 2976 L 1644 2976 L 1666 2976 L 1688 2976 L 1712 2976 L 1734 2948 L 1750 2948 L 1764 2916 L 1780 2916 L 1780 2880 L 1800 2860 L 1814 2824 L 1814 2794 L 1830 2794 L 1830 2772 L 1830 2774 L 1830 2780 L 1830 2790 L 1830 2804 L 1840 2820 L 1840 2834 L 1840 2850 L 1858 2866 L 1858 2882 L 1858 2896 L 1872 2908 L 1872 2920 L 1872 2928 L 1888 2932 L 1888 2934 L 1888 2912 L 1888 2880 L 1888 2860 L 1886 2840 L 1882 2814 L 1882 2792 L 1876 2768 L 1872 2746 L 1872 2722 L 1872 2704 L 1872 2674" stroke="#000000" stroke-width="35" fill="none" stroke-linecap="round" stroke-linejoin="round"/>
<path d="M 2072 2736 L 2068 2736 L 2064 2718 L 2058 2718 L 2056 2718 L 2048 2720 L 2042 2722 L 2032 2722 L 2028 2722 L 2020 2724 L 2010 2730 L 2006 2732 L 2002 2736 L 1996 2740 L 1992 2744 L 1992 2750 L 1992 2754 L 1992 2760 L 2010 2764 L 2010 2770 L 2024 2772 L 2024 2778 L 2048 2778 L 2064 2778 L 2080 2778 L 2096 2778 L 2114 2778 L 2130 2778 L 2148 2752 L 2162 2752 L 2176 2726 L 2192 2694 L 2192 2664 L 2192 2634 L 2184 2634 L 2172 2634 L 2162 2634 L 2148 2634 L 2134 2634 L 2122 2646 L 2106 2664 L 2092 2688 L 2082 2718 L 2076 2748 L 2074 2780 L 2072 2816 L 2072 2852 L 2072 2888 L 2072 2922 L 2092 2958 L 2106 2984 L 2116 3010 L 2134 3030 L 2154 3044 L 2176 3052 L 2200 3056 L 2224 3056 L 2244 3056 L 2266 3056 L 2286 3036 L 2310 3036 L 2328 3006 L 2346 3006 L 2364 2968 L 2378 2946 L 2378 2924 L 2396 2904 L 2396 2882 L 2396 2862 L 2396 2832 L 2390 2832 L 2384 2838 L 2378 2848 L 2372 2862 L 2372 2878 L 2372 2894 L 2372 2912 L 2372 2928 L 2372 2946 L 2372 2960 L 2390 2970 L 2390 2980 L 2412 2984 L 2428 2984 L 2450 2984 L 2468 2960 L 2468 2932 L 2468 2904 L 2466 2904 L 2458 2874 L 2450 2874 L 2434 2874 L 2418 2854 L 2402 2854" stroke="#000000" stroke-width="35" fill="none" stroke-linecap="round" stroke-linejoin="round"/>
<path d="M 2450 2904 L 2466 2904 L 2484 2904 L 2484 2910 L 2484 2922 L 2484 2938 L 2484 2948 L 2500 2964 L 2500 2978 L 2516 2990 L 2516 2998 L 2534 3006 L 2534 3012 L 2558 3014 L 2574 3014 L 2588 3014 L 2606 3014 L 2618 3014 L 2634 2990 L 2656 2964 L 2674 2932 L 2674 2900 L 2686 2900 L 2686 2880 L 2698 2882 L 2698 2892 L 2698 2906 L 2698 2924 L 2698 2944 L 2712 2964 L 2712 2986 L 2712 3006 L 2726 3024 L 2726 3048 L 2726 3068 L 2726 3082 L 2742 3094 L 2742 3100 L 2742 3100 L 2740 3100 L 2732 3100 L 2732 3078 L 2726 3078 L 2720 3044 L 2712 3024 L 2708 3002 L 2698 2976 L 2694 2952 L 2688 2926 L 2686 2902 L 2686 2880 L 2686 2858 L 2686 2824 L 2708 2806 L 2732 2806 L 2742 2806 L 2758 2808 L 2772 2820 L 2772 2832 L 2790 2854 L 2790 2874 L 2790 2900 L 2790 2928 L 2788 2952 L 2780 2978 L 2762 2998" stroke="#000000" stroke-width="35" fill="none" stroke-linecap="round" stroke-linejoin="round"/>
<path d="M 3290 1970 L 3276 1952 L 3266 1952 L 3250 1952 L 3234 1952 L 3216 1952 L 3194 1954 L 3172 1962 L 3152 1972 L 3126 1984 L 3104 2002 L 3084 2020 L 3064 2042 L 3046 2064 L 3032 2090 L 3024 2116 L 3018 2140 L 3018 2170 L 3018 2194 L 3018 2218 L 3018 2240 L 3036 2258 L 3036 2274 L 3066 2284 L 3084 2298 L 3102 2300 L 3122 2300 L 3142 2300 L 3166 2300 L 3188 2300" stroke="#000000" stroke-width="35" fill="none" stroke-linecap="round" stroke-linejoin="round"/>
<path d="M 3336 2078 L 3336 2078 L 3334 2078 L 3332 2078 L 3324 2078 L 3318 2078 L 3312 2082 L 3304 2090 L 3300 2102 L 3294 2114 L 3284 2128 L 3274 2144 L 3268 2160 L 3258 2178 L 3254 2194 L 3246 2212 L 3244 2230 L 3240 2244 L 3240 2258 L 3240 2270 L 3240 2278 L 3258 2278 L 3286 2278 L 3304 2246 L 3324 2246 L 3342 2210 L 3360 2210 L 3376 2174 L 3392 2156 L 3392 2134 L 3408 2116 L 3408 2084 L 3396 2084 L 3384 2064 L 3370 2064" stroke="#000000" stroke-width="35" fill="none" stroke-linecap="round" stroke-linejoin="round"/>
<path d="M 3314 2060 L 3334 2060 L 3348 2040 L 3366 2040 L 3366 2040 L 3378 2040 L 3378 2050 L 3378 2062 L 3398 2076 L 3398 2094 L 3410 2112 L 3410 2134 L 3428 2154 L 3428 2176 L 3446 2198 L 3446 2218" stroke="#000000" stroke-width="35" fill="none" stroke-linecap="round" stroke-linejoin="round"/>
<path d="M 3616 2116 L 3616 2096 L 3616 2076 L 3616 2048 L 3616 2026 L 3614 2026 L 3606 2026 L 3598 2026 L 3592 2026 L 3582 2034 L 3574 2048 L 3572 2064 L 3564 2078 L 3562 2092 L 3558 2108 L 3558 2124 L 3558 2140 L 3558 2150 L 3558 2162 L 3574 2172 L 3574 2182 L 3596 2188 L 3612 2194 L 3626 2200 L 3642 2206 L 3658 2212 L 3670 2220 L 3670 2226 L 3692 2232 L 3692 2240 L 3692 2246 L 3692 2254 L 3692 2264 L 3678 2272 L 3668 2280 L 3656 2284 L 3640 2284 L 3620 2290 L 3602 2292" stroke="#000000" stroke-width="35" fill="none" stroke-linecap="round" stroke-linejoin="round"/>
<path d="M 3838 2052 L 3834 2052 L 3830 2052 L 3818 2052 L 3816 2052 L 3810 2052 L 3800 2052 L 3792 2052 L 3778 2052 L 3768 2054 L 3758 2056 L 3746 2058 L 3736 2062 L 3728 2064 L 3718 2064 L 3710 2068 L 3700 2072 L 3698 2074 L 3698 2076 L 3698 2076 L 3698 2078 L 3714 2078 L 3736 2078 L 3750 2078 L 3764 2078 L 3778 2078 L 3796 2054 L 3814 2054 L 3826 2054 L 3842 2028 L 3860 2004 L 3860 1982 L 3860 1956 L 3850 1956 L 3842 1956 L 3830 1956 L 3816 1956 L 3800 1968 L 3788 1982 L 3774 1998 L 3764 2014 L 3758 2036 L 3754 2056 L 3754 2078 L 3754 2100 L 3754 2122 L 3754 2142 L 3774 2162 L 3774 2178 L 3800 2192 L 3818 2204 L 3838 2208 L 3860 2210 L 3880 2210 L 3906 2210 L 3924 2210 L 3948 2210 L 3966 2188" stroke="#000000" stroke-width="35" fill="none" stroke-linecap="round" stroke-linejoin="round"/>
<path d="M 4152 2016 L 4152 2016 L 4170 2018 L 4170 2024 L 4170 2032 L 4170 2040 L 4170 2052 L 4170 2068 L 4182 2086 L 4182 2104 L 4178 2122 L 4178 2142 L 4178 2162 L 4178 2176 L 4178 2194 L 4178 2212 L 4178 2226 L 4178 2238 L 4178 2244 L 4178 2250 L 4176 2250 L 4172 2250 L 4170 2250 L 4170 2224 L 4164 2224 L 4160 2188 L 4156 2164 L 4152 2144 L 4144 2120 L 4136 2094 L 4132 2068 L 4130 2042 L 4122 2016 L 4118 1994 L 4114 1958 L 4110 1938 L 4108 1946 L 4104 1960 L 4100 1978 L 4100 1996 L 4100 2020 L 4100 2050 L 4100 2074 L 4100 2100 L 4100 2128 L 4100 2154" stroke="#000000" stroke-width="35" fill="none" stroke-linecap="round" stroke-linejoin="round"/>
<path d="M 5294 2086 L 5286 2086 L 5284 2062 L 5280 2062 L 5278 2062 L 5274 2062 L 5270 2040 L 5268 2040 L 5264 2040 L 5262 2020 L 5256 2020 L 5246 2020 L 5236 2020 L 5224 2020 L 5212 2026 L 5196 2034 L 5182 2050 L 5168 2062 L 5150 2076 L 5138 2092 L 5126 2110 L 5120 2130 L 5112 2152 L 5112 2176 L 5112 2196 L 5112 2220 L 5112 2238 L 5132 2254 L 5146 2266 L 5168 2274 L 5188 2278 L 5214 2280 L 5242 2280 L 5270 2280 L 5302 2280 L 5330 2280 L 5358 2252 L 5384 2252 L 5404 2224 L 5426 2224 L 5446 2194 L 5464 2194 L 5476 2168 L 5498 2144 L 5498 2124 L 5510 2124 L 5506 2124 L 5504 2104 L 5500 2104 L 5496 2110 L 5486 2110 L 5476 2114 L 5466 2118 L 5456 2128 L 5452 2134 L 5442 2144 L 5436 2156 L 5430 2170 L 5426 2184 L 5422 2198 L 5422 2214 L 5422 2226 L 5414 2240 L 5414 2252 L 5426 2260 L 5426 2266 L 5446 2270 L 5456 2270 L 5472 2270 L 5488 2270 L 5500 2270 L 5516 2242 L 5532 2218 L 5532 2190 L 5528 2190 L 5528 2168 L 5522 2168 L 5510 2168 L 5496 2140" stroke="#000000" stroke-width="35" fill="none" stroke-linecap="round" stroke-linejoin="round"/>
<path d="M 5706 2164 L 5706 2144 L 5702 2144 L 5694 2122 L 5686 2122 L 5680 2102 L 5672 2102 L 5664 2102 L 5660 2082 L 5654 2082 L 5648 2082 L 5646 2082 L 5642 2082 L 5638 2086 L 5638 2096 L 5638 2110 L 5638 2122 L 5638 2140 L 5638 2156 L 5638 2174 L 5638 2192 L 5638 2210 L 5638 2226 L 5654 2244 L 5654 2260 L 5666 2274 L 5666 2284 L 5682 2288" stroke="#000000" stroke-width="35" fill="none" stroke-linecap="round" stroke-linejoin="round"/>
<path d="M 5602 2096 L 5602 2096 L 5602 2076 L 5602 2056 L 5598 2056 L 5596 2056 L 5592 2056 L 5588 2056 L 5584 2056 L 5580 2062 L 5578 2072 L 5574 2072 L 5570 2086 L 5568 2100 L 5568 2118 L 5566 2134 L 5566 2150 L 5566 2170 L 5566 2188 L 5566 2206 L 5566 2224 L 5566 2240 L 5578 2254 L 5578 2264 L 5592 2272 L 5592 2278 L 5616 2280 L 5636 2280 L 5660 2280 L 5674 2280" stroke="#000000" stroke-width="35" fill="none" stroke-linecap="round" stroke-linejoin="round"/>
<path d="M 5794 2082 L 5790 2060 L 5788 2060 L 5782 2060 L 5776 2060 L 5772 2060 L 5768 2040 L 5760 2040 L 5752 2040 L 5742 2040 L 5732 2040 L 5720 2040 L 5706 2044 L 5694 2048 L 5684 2054 L 5674 2060 L 5666 2068 L 5656 2078 L 5652 2086 L 5652 2096 L 5652 2106 L 5652 2116 L 5652 2126 L 5652 2138 L 5666 2148 L 5666 2158 L 5694 2166 L 5710 2174 L 5732 2186 L 5754 2196 L 5776 2206 L 5798 2212 L 5818 2224 L 5838 2232 L 5850 2242 L 5862 2252 L 5862 2262 L 5862 2272 L 5862 2282 L 5862 2290 L 5862 2296 L 5862 2306 L 5858 2310 L 5846 2314 L 5838 2316 L 5826 2320" stroke="#000000" stroke-width="35" fill="none" stroke-linecap="round" stroke-linejoin="round"/>
<path d="M 5980 2138 L 5976 2140 L 5962 2140 L 5954 2140 L 5940 2140 L 5930 2140 L 5922 2140 L 5916 2116 L 5908 2116 L 5898 2116 L 5898 2116 L 5912 2118 L 5912 2120 L 5944 2122 L 5960 2124 L 5976 2124 L 5996 2124 L 6012 2124 L 6032 2124 L 6050 2124 L 6064 2124 L 6078 2124 L 6092 2124 L 6092 2098 L 6090 2098 L 6080 2078 L 6070 2078 L 6056 2078 L 6036 2078 L 6014 2078 L 5996 2078 L 5978 2082 L 5960 2086 L 5940 2096 L 5928 2104 L 5920 2120 L 5912 2134 L 5912 2152 L 5912 2170 L 5912 2186 L 5912 2200 L 5934 2210 L 5950 2222 L 5968 2230 L 5988 2236 L 6010 2236 L 6032 2236 L 6056 2236" stroke="#000000" stroke-width="35" fill="none" stroke-linecap="round" stroke-linejoin="round"/>
<path d="M 6300 2134 L 6290 2134 L 6284 2134 L 6278 2134 L 6272 2134 L 6266 2134 L 6256 2134 L 6250 2110 L 6248 2110 L 6240 2110 L 6234 2110 L 6232 2088 L 6232 2064 L 6248 2042 L 6260 2042 L 6278 2042 L 6296 2042 L 6296 2044 L 6314 2050 L 6314 2062 L 6314 2080 L 6314 2096 L 6314 2112 L 6314 2132 L 6308 2152 L 6304 2170 L 6296 2190 L 6286 2210 L 6278 2224 L 6268 2238 L 6260 2252 L 6252 2262 L 6250 2272 L 6250 2280 L 6250 2284 L 6250 2292 L 6250 2296 L 6272 2300 L 6286 2302 L 6304 2302 L 6328 2302 L 6352 2302 L 6376 2302 L 6404 2302" stroke="#000000" stroke-width="35" fill="none" stroke-linecap="round" stroke-linejoin="round"/>
<path d="M 7916 2158 L 7916 2158 L 7916 2128 L 7912 2108 L 7906 2108 L 7900 2086 L 7890 2086 L 7878 2062 L 7864 2062 L 7840 2062 L 7826 2062 L 7804 2062 L 7782 2062 L 7758 2066 L 7732 2080 L 7708 2096 L 7686 2116 L 7666 2138 L 7652 2162 L 7646 2192 L 7636 2220 L 7636 2248 L 7636 2280 L 7636 2308 L 7648 2334 L 7664 2354 L 7682 2370 L 7708 2380 L 7732 2384 L 7764 2386 L 7796 2386 L 7828 2386" stroke="#000000" stroke-width="35" fill="none" stroke-linecap="round" stroke-linejoin="round"/>
<path d="M 8084 2224 L 8080 2224 L 8070 2224 L 8056 2202 L 8042 2202 L 8022 2202 L 8006 2202 L 7990 2202 L 7972 2202 L 7954 2202 L 7938 2210 L 7922 2220 L 7908 2228 L 7898 2238 L 7888 2254 L 7886 2270 L 7886 2286 L 7886 2304 L 7886 2318 L 7900 2332 L 7900 2344 L 7922 2352 L 7938 2356 L 7954 2358 L 7972 2358 L 7990 2358 L 8010 2358 L 8028 2358 L 8042 2330 L 8056 2330 L 8056 2296 L 8070 2296 L 8070 2258 L 8060 2224 L 8056 2224 L 8042 2194 L 8028 2194" stroke="#000000" stroke-width="35" fill="none" stroke-linecap="round" stroke-linejoin="round"/>
<path d="M 8042 2222 L 8042 2222 L 8058 2222 L 8058 2224 L 8058 2232 L 8058 2238 L 8070 2250 L 8070 2260 L 8070 2274 L 8070 2290 L 8068 2306 L 8068 2326 L 8060 2344 L 8060 2360 L 8060 2380 L 8060 2394 L 8060 2404" stroke="#000000" stroke-width="35" fill="none" stroke-linecap="round" stroke-linejoin="round"/>
<path d="M 8250 2222 L 8250 2222 L 8250 2190 L 8264 2190 L 8260 2162 L 8256 2162 L 8250 2140 L 8246 2140 L 8242 2140 L 8228 2140 L 8220 2140 L 8210 2140 L 8198 2146 L 8188 2152 L 8178 2162 L 8176 2172 L 8168 2182 L 8162 2192 L 8158 2204 L 8158 2218 L 8154 2228 L 8154 2238 L 8154 2246 L 8154 2256 L 8154 2264 L 8176 2272 L 8176 2278 L 8204 2284 L 8220 2290 L 8236 2298 L 8250 2304 L 8270 2312 L 8284 2324 L 8300 2336 L 8300 2346 L 8322 2360 L 8322 2370 L 8322 2382 L 8322 2394 L 8322 2404 L 8318 2412 L 8310 2420 L 8296 2426 L 8284 2428 L 8272 2432 L 8256 2432" stroke="#000000" stroke-width="35" fill="none" stroke-linecap="round" stroke-linejoin="round"/>
<path d="M 8484 2260 L 8484 2236 L 8484 2214 L 8480 2214 L 8470 2214 L 8460 2214 L 8452 2214 L 8444 2214 L 8434 2218 L 8422 2230 L 8412 2244 L 8408 2260 L 8398 2274 L 8394 2294 L 8384 2314 L 8384 2334 L 8384 2354 L 8384 2376 L 8384 2396 L 8384 2414 L 8394 2428 L 8394 2438 L 8416 2446 L 8432 2450 L 8448 2450 L 8470 2450 L 8488 2450 L 8510 2450 L 8532 2428 L 8554 2428 L 8574 2406" stroke="#000000" stroke-width="35" fill="none" stroke-linecap="round" stroke-linejoin="round"/>
<path d="M 8714 2224 L 8708 2224 L 8700 2224 L 8690 2224 L 8686 2224 L 8676 2224 L 8664 2200 L 8654 2200 L 8642 2200 L 8630 2178 L 8620 2178 L 8612 2178 L 8604 2154 L 8598 2154 L 8620 2154 L 8646 2154 L 8660 2160 L 8680 2172 L 8694 2182 L 8714 2192 L 8726 2206 L 8726 2220 L 8748 2234 L 8748 2242 L 8748 2254 L 8758 2266 L 8758 2276 L 8758 2284 L 8756 2290 L 8754 2294 L 8750 2298 L 8744 2302 L 8740 2306 L 8738 2312 L 8736 2314 L 8736 2322 L 8736 2326 L 8736 2336 L 8750 2346 L 8750 2360 L 8766 2374 L 8766 2390 L 8788 2408 L 8788 2426 L 8788 2446 L 8788 2460 L 8788 2476 L 8778 2486 L 8758 2496 L 8736 2502 L 8708 2504 L 8672 2506 L 8638 2506 L 8602 2506" stroke="#000000" stroke-width="35" fill="none" stroke-linecap="round" stroke-linejoin="round"/>
<path d="M 4498 3188 L 4498 3188 L 4496 3168 L 4494 3168 L 4490 3168 L 4484 3168 L 4484 3148 L 4484 3148 L 4480 3148 L 4476 3148 L 4472 3148 L 4462 3148 L 4448 3148 L 4436 3154 L 4422 3158 L 4404 3164 L 4388 3174 L 4370 3188 L 4354 3202 L 4338 3214 L 4324 3230 L 4312 3246 L 4302 3264 L 4296 3280 L 4296 3298 L 4296 3314 L 4296 3326 L 4310 3336 L 4324 3342 L 4344 3346 L 4370 3346 L 4394 3346 L 4422 3346 L 4452 3346 L 4480 3324 L 4508 3324" stroke="#000000" stroke-width="35" fill="none" stroke-linecap="round" stroke-linejoin="round"/>
<path d="M 4688 3192 L 4684 3170 L 4678 3170 L 4672 3170 L 4666 3170 L 4660 3170 L 4646 3170 L 4636 3170 L 4628 3170 L 4616 3172 L 4606 3176 L 4598 3180 L 4586 3188 L 4576 3200 L 4566 3212 L 4564 3226 L 4560 3240 L 4560 3254 L 4560 3272 L 4560 3288 L 4576 3304 L 4588 3314 L 4600 3322 L 4618 3324 L 4642 3326 L 4664 3326 L 4688 3326 L 4716 3326 L 4740 3326 L 4766 3302 L 4784 3302 L 4802 3276 L 4820 3244 L 4820 3214 L 4818 3190 L 4812 3190 L 4802 3190" stroke="#000000" stroke-width="35" fill="none" stroke-linecap="round" stroke-linejoin="round"/>
<path d="M 4788 3168 L 4802 3168 L 4816 3168 L 4830 3168 L 4830 3174 L 4830 3186 L 4848 3202 L 4848 3216 L 4860 3232 L 4860 3250 L 4884 3264 L 4900 3276 L 4918 3290 L 4936 3298" stroke="#000000" stroke-width="35" fill="none" stroke-linecap="round" stroke-linejoin="round"/>
<path d="M 5096 3218 L 5096 3186 L 5096 3156 L 5096 3132 L 5092 3132 L 5084 3112 L 5074 3112 L 5062 3112 L 5054 3112 L 5044 3114 L 5034 3118 L 5028 3128 L 5028 3136 L 5024 3146 L 5020 3156 L 5020 3166 L 5016 3176 L 5016 3184 L 5016 3194 L 5016 3204 L 5016 3212 L 5030 3216 L 5030 3222 L 5054 3228 L 5070 3230 L 5084 3234 L 5102 3240 L 5120 3240 L 5140 3246 L 5152 3252 L 5168 3260 L 5168 3264 L 5186 3274 L 5186 3284 L 5186 3292 L 5182 3304 L 5178 3312 L 5168 3318 L 5158 3324 L 5142 3330" stroke="#000000" stroke-width="35" fill="none" stroke-linecap="round" stroke-linejoin="round"/>
<path d="M 5358 3296 L 5358 3278 L 5352 3278 L 5348 3278 L 5344 3278 L 5340 3278 L 5340 3258 L 5334 3258 L 5334 3258 L 5330 3258 L 5326 3258 L 5326 3262" stroke="#000000" stroke-width="35" fill="none" stroke-linecap="round" stroke-linejoin="round"/>
<path d="M 5340 3238 L 5334 3212 L 5330 3212 L 5326 3188 L 5320 3188 L 5316 3188 L 5312 3188 L 5312 3166 L 5308 3166 L 5302 3166 L 5296 3166 L 5290 3166 L 5284 3166 L 5278 3168 L 5270 3170 L 5264 3174 L 5262 3178 L 5256 3182 L 5252 3186 L 5250 3194 L 5250 3196 L 5250 3198 L 5250 3200 L 5262 3200 L 5280 3200 L 5308 3200 L 5320 3200 L 5340 3180 L 5354 3180 L 5370 3180 L 5382 3156 L 5394 3156 L 5416 3130 L 5416 3108 L 5430 3108 L 5426 3108 L 5420 3108 L 5412 3088 L 5402 3088 L 5388 3090 L 5376 3092 L 5362 3100 L 5348 3110 L 5340 3120 L 5326 3132 L 5314 3148 L 5308 3162 L 5308 3180 L 5308 3196 L 5306 3216 L 5306 3232 L 5306 3250 L 5306 3266 L 5324 3280 L 5340 3290 L 5358 3294 L 5376 3298 L 5394 3298 L 5420 3298 L 5442 3298 L 5466 3298" stroke="#000000" stroke-width="35" fill="none" stroke-linecap="round" stroke-linejoin="round"/>
<path d="M 5930 3230 L 5926 3234 L 5920 3238 L 5912 3242 L 5904 3246 L 5896 3250 L 5890 3254 L 5888 3256 L 5880 3256 L 5876 3260 L 5872 3262 L 5868 3264 L 5866 3264 L 5862 3264 L 5858 3264 L 5854 3264 L 5848 3264 L 5844 3236 L 5840 3236 L 5836 3206 L 5830 3188 L 5826 3168 L 5822 3146 L 5820 3146 L 5820 3108 L 5812 3086 L 5810 3066 L 5808 3066 L 5802 3034 L 5794 3034 L 5792 3034 L 5788 3034 L 5782 3038 L 5776 3054 L 5770 3072 L 5762 3098 L 5754 3122 L 5748 3150 L 5742 3180 L 5734 3208 L 5726 3234 L 5716 3264" stroke="#000000" stroke-width="35" fill="none" stroke-linecap="round" stroke-linejoin="round"/>
<path d="M 4360 3622 L 4360 3602 L 4374 3582 L 4392 3582 L 4404 3582 L 4400 3582 L 4396 3582 L 4394 3582 L 4384 3586 L 4374 3592 L 4364 3600 L 4356 3610 L 4346 3626 L 4336 3638 L 4324 3656 L 4314 3674 L 4302 3692 L 4292 3710 L 4288 3730 L 4286 3748 L 4282 3766 L 4282 3782 L 4282 3798 L 4282 3808 L 4302 3814 L 4314 3818 L 4328 3818 L 4346 3818 L 4364 3818 L 4392 3818 L 4416 3796" stroke="#000000" stroke-width="35" fill="none" stroke-linecap="round" stroke-linejoin="round"/>
<path d="M 4656 3648 L 4656 3648 L 4652 3648 L 4646 3626 L 4636 3626 L 4632 3626 L 4626 3626 L 4618 3626 L 4614 3626 L 4604 3628 L 4596 3634 L 4586 3640 L 4582 3648 L 4574 3658 L 4574 3672 L 4574 3682 L 4574 3692 L 4574 3704 L 4574 3718 L 4574 3728 L 4592 3736 L 4592 3742 L 4606 3748 L 4606 3750 L 4628 3752 L 4644 3752 L 4660 3752 L 4676 3752 L 4688 3752 L 4688 3724 L 4702 3724 L 4702 3698 L 4702 3670 L 4698 3644 L 4690 3644 L 4678 3644 L 4666 3620 L 4650 3620 L 4632 3620" stroke="#000000" stroke-width="35" fill="none" stroke-linecap="round" stroke-linejoin="round"/>
<path d="M 4706 3668 L 4724 3668 L 4724 3644 L 4738 3644 L 4738 3648 L 4738 3658 L 4752 3670 L 4752 3684 L 4752 3698 L 4770 3716 L 4770 3734 L 4788 3754 L 4788 3774 L 4812 3792" stroke="#000000" stroke-width="35" fill="none" stroke-linecap="round" stroke-linejoin="round"/>
<path d="M 4960 3658 L 4960 3638 L 4960 3608 L 4960 3586 L 4958 3586 L 4956 3586 L 4952 3586 L 4950 3586 L 4942 3586 L 4940 3590 L 4934 3600 L 4926 3614 L 4924 3626 L 4918 3638 L 4910 3652 L 4906 3666 L 4900 3678 L 4892 3690 L 4890 3700 L 4888 3710 L 4888 3716 L 4888 3720 L 4888 3722 L 4906 3724 L 4930 3726 L 4946 3726 L 4960 3726 L 4976 3728 L 4994 3730 L 5012 3736 L 5022 3740 L 5022 3748 L 5042 3758 L 5042 3770 L 5042 3784 L 5040 3796 L 5036 3806 L 5022 3818 L 5012 3828 L 4992 3838 L 4974 3846" stroke="#000000" stroke-width="35" fill="none" stroke-linecap="round" stroke-linejoin="round"/>
<path d="M 5172 3648 L 5168 3648 L 5162 3648 L 5156 3648 L 5148 3648 L 5140 3648 L 5130 3648 L 5124 3648 L 5114 3648 L 5110 3648 L 5102 3648 L 5096 3648 L 5092 3648 L 5092 3652 L 5092 3654 L 5092 3658 L 5092 3662 L 5110 3670 L 5110 3672 L 5138 3676 L 5148 3682 L 5164 3682 L 5182 3682 L 5202 3682 L 5224 3682 L 5242 3682 L 5262 3682 L 5282 3682 L 5298 3682 L 5310 3656 L 5330 3656 L 5330 3626 L 5330 3606 L 5322 3606 L 5312 3606 L 5298 3606 L 5282 3606 L 5262 3606 L 5244 3606 L 5226 3608 L 5212 3618 L 5196 3626 L 5190 3640 L 5180 3654 L 5180 3674 L 5180 3692 L 5180 3714 L 5180 3730 L 5196 3748 L 5196 3760 L 5224 3770 L 5244 3780 L 5270 3784 L 5294 3786 L 5320 3786" stroke="#000000" stroke-width="35" fill="none" stroke-linecap="round" stroke-linejoin="round"/>
<path d="M 5652 3674 L 5648 3674 L 5642 3674 L 5638 3674 L 5628 3652 L 5620 3652 L 5612 3652 L 5602 3652 L 5592 3652 L 5584 3652 L 5574 3630 L 5568 3630 L 5558 3630 L 5552 3630 L 5550 3612 L 5550 3590 L 5568 3590 L 5592 3590 L 5608 3590 L 5624 3590 L 5638 3590 L 5656 3594 L 5670 3604 L 5670 3616 L 5688 3630 L 5688 3644 L 5704 3660 L 5704 3678 L 5704 3692 L 5704 3710 L 5704 3726 L 5704 3738 L 5698 3752 L 5692 3764 L 5686 3774 L 5684 3782 L 5680 3788 L 5680 3794 L 5680 3800 L 5680 3802 L 5694 3806 L 5706 3812 L 5724 3812 L 5744 3814 L 5772 3816 L 5798 3816 L 5828 3816 L 5858 3816" stroke="#000000" stroke-width="35" fill="none" stroke-linecap="round" stroke-linejoin="round"/>
<path d="M 6536 3744 L 6548 3744 L 6570 3744 L 6588 3744 L 6588 3744 L 6570 3744 L 6548 3744 L 6522 3744 L 6494 3744 L 6458 3744 L 6422 3744 L 6386 3744 L 6348 3744 L 6310 3724 L 6274 3724 L 6244 3728 L 6214 3730 L 6194 3730 L 6172 3730 L 6164 3734" stroke="#000000" stroke-width="35" fill="none" stroke-linecap="round" stroke-linejoin="round"/>
<path d="M 6628 3664 L 6644 3664 L 6644 3636 L 6644 3610 L 6644 3586 L 6638 3586 L 6632 3586 L 6626 3586 L 6624 3586 L 6620 3586 L 6636 3592 L 6636 3602 L 6656 3610 L 6656 3622 L 6686 3636 L 6704 3650 L 6718 3664 L 6740 3682 L 6762 3698 L 6780 3716 L 6798 3736 L 6798 3754 L 6814 3772 L 6814 3788 L 6814 3802 L 6812 3816 L 6802 3828 L 6784 3838 L 6766 3844 L 6744 3850 L 6718 3854 L 6690 3860" stroke="#000000" stroke-width="35" fill="none" stroke-linecap="round" stroke-linejoin="round"/>
<path d="M 4472 4170 L 4472 4170 L 4468 4170 L 4466 4148 L 4462 4128 L 4456 4128 L 4452 4128 L 4448 4108 L 4446 4108 L 4458 4086 L 4472 4086 L 4486 4086 L 4480 4086 L 4472 4086 L 4462 4090 L 4456 4100 L 4444 4110 L 4434 4122 L 4426 4136 L 4412 4148 L 4400 4164 L 4390 4176 L 4384 4194 L 4374 4212 L 4370 4230 L 4364 4246 L 4364 4260 L 4364 4276 L 4364 4288 L 4382 4300 L 4382 4314 L 4404 4326 L 4418 4336 L 4434 4346 L 4456 4356 L 4476 4362 L 4496 4364 L 4516 4366 L 4546 4366 L 4566 4366 L 4592 4366" stroke="#000000" stroke-width="35" fill="none" stroke-linecap="round" stroke-linejoin="round"/>
<path d="M 4780 4266 L 4776 4266 L 4772 4266 L 4768 4266 L 4766 4246 L 4764 4246 L 4758 4246 L 4754 4246 L 4750 4246 L 4748 4226 L 4738 4228 L 4732 4232 L 4726 4236 L 4718 4244 L 4714 4252 L 4708 4262 L 4704 4270 L 4700 4280 L 4698 4290 L 4698 4300 L 4698 4312 L 4698 4326 L 4698 4338 L 4718 4348 L 4718 4356 L 4736 4360 L 4748 4362 L 4764 4362 L 4780 4362 L 4798 4362 L 4814 4362 L 4824 4344 L 4850 4314 L 4862 4278 L 4862 4242 L 4860 4242 L 4852 4212 L 4848 4212 L 4838 4212 L 4828 4188 L 4820 4188" stroke="#000000" stroke-width="35" fill="none" stroke-linecap="round" stroke-linejoin="round"/>
<path d="M 4910 4302 L 4926 4282 L 4926 4262 L 4924 4262 L 4920 4266 L 4920 4274 L 4920 4288 L 4920 4306 L 4920 4324 L 4920 4344 L 4936 4364 L 4936 4384 L 4954 4402 L 4954 4420 L 4980 4434" stroke="#000000" stroke-width="35" fill="none" stroke-linecap="round" stroke-linejoin="round"/>
<path d="M 5124 4342 L 5124 4318 L 5124 4298 L 5124 4278 L 5124 4258 L 5120 4258 L 5110 4222 L 5102 4192 L 5096 4192 L 5088 4172 L 5078 4172 L 5070 4172 L 5062 4172 L 5056 4172 L 5046 4174 L 5040 4180 L 5034 4186 L 5028 4196 L 5024 4206 L 5022 4220 L 5022 4232 L 5022 4248 L 5022 4264 L 5022 4278 L 5038 4290 L 5038 4300 L 5052 4308 L 5064 4318 L 5082 4330 L 5096 4340 L 5114 4350 L 5130 4362 L 5146 4374 L 5158 4384 L 5158 4398 L 5176 4410 L 5176 4424 L 5176 4440 L 5176 4452 L 5176 4464 L 5176 4476 L 5166 4484 L 5156 4492 L 5140 4500 L 5128 4506 L 5110 4510" stroke="#000000" stroke-width="35" fill="none" stroke-linecap="round" stroke-linejoin="round"/>
<path d="M 5316 4316 L 5312 4316 L 5304 4292 L 5298 4292 L 5292 4292 L 5282 4272 L 5276 4272 L 5270 4272 L 5264 4272 L 5258 4272 L 5252 4272 L 5244 4272 L 5266 4272 L 5284 4272 L 5302 4272 L 5316 4272 L 5332 4272 L 5348 4252 L 5364 4252 L 5384 4252 L 5384 4228 L 5400 4228 L 5400 4208 L 5398 4208 L 5388 4208 L 5376 4208 L 5360 4208 L 5344 4208 L 5330 4214 L 5316 4222 L 5308 4234 L 5302 4246 L 5298 4264 L 5294 4280 L 5294 4296 L 5294 4312 L 5294 4330 L 5294 4344 L 5320 4358 L 5334 4372 L 5350 4382 L 5374 4390 L 5394 4396 L 5422 4398 L 5446 4398 L 5472 4398" stroke="#000000" stroke-width="35" fill="none" stroke-linecap="round" stroke-linejoin="round"/>
<path d="M 6556 4390 L 6576 4390 L 6596 4390 L 6612 4390 L 6630 4390 L 6646 4372 L 6662 4372 L 6680 4372 L 6696 4372 L 6690 4372 L 6680 4376 L 6666 4378 L 6646 4380 L 6626 4386 L 6596 4390 L 6566 4394 L 6528 4398 L 6494 4402 L 6454 4404 L 6414 4408 L 6372 4408 L 6340 4412 L 6302 4416 L 6272 4418 L 6244 4420 L 6218 4424 L 6200 4424" stroke="#000000" stroke-width="35" fill="none" stroke-linecap="round" stroke-linejoin="round"/>
<path d="M 6868 4358 L 6868 4334 L 6864 4334 L 6864 4312 L 6862 4312 L 6860 4312 L 6856 4312 L 6848 4312 L 6846 4290 L 6840 4290 L 6836 4290 L 6830 4290 L 6826 4290 L 6818 4270 L 6812 4270 L 6808 4270 L 6806 4270 L 6802 4270 L 6816 4274 L 6816 4276 L 6836 4284 L 6848 4292 L 6864 4302 L 6880 4314 L 6896 4328 L 6910 4344 L 6910 4362 L 6930 4382 L 6930 4400 L 6930 4420 L 6930 4440 L 6928 4452 L 6918 4468 L 6904 4482 L 6886 4496 L 6868 4506" stroke="#000000" stroke-width="35" fill="none" stroke-linecap="round" stroke-linejoin="round"/>
<path d="M 7704 4378 L 7704 4378 L 7698 4378 L 7696 4378 L 7688 4378 L 7682 4378 L 7680 4356 L 7674 4356 L 7666 4356 L 7664 4356 L 7658 4356 L 7654 4356 L 7652 4336 L 7648 4336 L 7646 4336 L 7646 4314 L 7662 4294 L 7682 4294 L 7698 4270 L 7718 4270 L 7732 4270 L 7754 4252 L 7772 4252 L 7794 4252 L 7816 4252 L 7838 4252 L 7858 4252 L 7878 4252 L 7890 4252 L 7910 4264 L 7910 4276 L 7910 4288 L 7910 4302 L 7906 4316 L 7898 4334 L 7888 4346 L 7874 4362 L 7862 4380 L 7850 4396 L 7838 4412 L 7824 4426 L 7814 4440 L 7804 4452 L 7796 4464 L 7794 4474 L 7790 4482 L 7790 4494 L 7790 4504 L 7790 4516 L 7804 4524 L 7804 4536 L 7818 4544 L 7818 4550 L 7834 4558" stroke="#000000" stroke-width="35" fill="none" stroke-linecap="round" stroke-linejoin="round"/>
<path d="M 7814 4714 L 7810 4716 L 7804 4716 L 7800 4716 L 7798 4716 L 7790 4716 L 7786 4716 L 7782 4716 L 7780 4716 L 7772 4716 L 7770 4716 L 7768 4716 L 7764 4716 L 7762 4716 L 7758 4716 L 7754 4716 L 7768 4716" stroke="#000000" stroke-width="35" fill="none" stroke-linecap="round" stroke-linejoin="round"/>
<path d="M 6300 3168 L 6300 3168 L 6296 3146 L 6314 3146 L 6328 3146 L 6328 3148 L 6342 3150 L 6342 3152 L 6342 3154 L 6354 3154 L 6354 3156 L 6368 3156 L 6368 3158 L 6368 3160 L 6368 3162 L 6368 3164 L 6368 3164 L 6358 3168 L 6350 3172 L 6336 3178 L 6324 3182 L 6308 3186 L 6294 3194 L 6274 3204 L 6256 3210 L 6234 3218 L 6212 3222 L 6206 3230 L 6188 3240 L 6166 3244 L 6152 3252 L 6142 3256 L 6130 3258 L 6114 3264 L 6104 3266 L 6094 3268 L 6090 3268 L 6086 3268 L 6104 3268" stroke="#000000" stroke-width="35" fill="none" stroke-linecap="round" stroke-linejoin="round"/>
<path d="M 6314 3006 L 6314 3006 L 6310 3006 L 6306 3006 L 6304 3006 L 6300 2984 L 6294 2984 L 6290 2984 L 6288 2984 L 6284 2984 L 6282 2984 L 6280 2986 L 6272 2986 L 6270 2990 L 6266 2992 L 6266 2996 L 6262 2996 L 6262 2998 L 6256 2998 L 6256 3000 L 6256 3002 L 6256 3006 L 6256 3008 L 6256 3010 L 6256 3014 L 6280 3020 L 6280 3026 L 6300 3036 L 6318 3044 L 6332 3052 L 6350 3060 L 6372 3072 L 6394 3084 L 6418 3096 L 6440 3106 L 6464 3106 L 6486 3120 L 6508 3134 L 6526 3150 L 6538 3164 L 6538 3174 L 6556 3186 L 6556 3202 L 6556 3216 L 6556 3230 L 6552 3242 L 6542 3258 L 6526 3270 L 6510 3284 L 6492 3298 L 6474 3306 L 6454 3318 L 6436 3326 L 6418 3334 L 6404 3342 L 6396 3346" stroke="#000000" stroke-width="35" fill="none" stroke-linecap="round" stroke-linejoin="round"/>
<path d="M 5648 4188 L 5640 4188 L 5634 4188 L 5628 4188 L 5618 4166 L 5614 4166 L 5606 4166 L 5604 4166 L 5596 4166 L 5594 4146 L 5590 4146 L 5586 4146 L 5582 4146 L 5578 4146 L 5576 4126 L 5590 4126 L 5604 4126 L 5624 4126 L 5638 4130 L 5658 4134 L 5678 4136 L 5692 4140 L 5708 4146 L 5728 4152 L 5746 4156 L 5764 4164 L 5778 4170 L 5796 4178 L 5796 4186 L 5810 4196 L 5810 4204 L 5810 4214 L 5810 4222 L 5806 4230 L 5796 4240 L 5778 4248 L 5764 4254 L 5748 4262 L 5730 4270 L 5716 4274 L 5696 4278 L 5682 4282 L 5666 4284 L 5652 4284 L 5648 4284 L 5640 4284 L 5638 4284 L 5638 4286 L 5638 4288 L 5638 4290 L 5650 4292 L 5650 4294 L 5666 4296 L 5666 4298 L 5688 4300 L 5688 4306 L 5708 4310 L 5708 4316 L 5730 4322 L 5730 4330 L 5746 4338 L 5746 4348 L 5746 4358 L 5746 4368 L 5746 4376 L 5746 4386 L 5738 4398 L 5730 4410 L 5718 4422 L 5702 4432 L 5684 4444 L 5668 4450 L 5650 4460 L 5632 4468 L 5614 4472 L 5600 4476 L 5590 4480" stroke="#000000" stroke-width="35" fill="none" stroke-linecap="round" stroke-linejoin="round"/>
<path d="M 6950 2990 L 6942 2990 L 6938 2970 L 6936 2970 L 6926 2970 L 6924 2950 L 6924 2956 L 6924 2960 L 6924 2966 L 6924 2976 L 6938 2988 L 6938 3000 L 6938 3012 L 6950 3026 L 6950 3042 L 6966 3056 L 6966 3072 L 6966 3086 L 6984 3100 L 6984 3114 L 6998 3126 L 6998 3134 L 7012 3138 L 7012 3144 L 7030 3146 L 7040 3146 L 7056 3146 L 7074 3146 L 7074 3122 L 7094 3122 L 7094 3098 L 7116 3098 L 7116 3068 L 7134 3068 L 7134 3038 L 7152 3038 L 7152 3010 L 7168 3010 L 7168 2986 L 7184 2958 L 7184 2938 L 7184 2940 L 7184 2948 L 7184 2956 L 7184 2968 L 7184 2978 L 7196 2990 L 7196 3004 L 7196 3018 L 7212 3032 L 7212 3044 L 7232 3060 L 7232 3072 L 7252 3084 L 7268 3096 L 7280 3106" stroke="#000000" stroke-width="35" fill="none" stroke-linecap="round" stroke-linejoin="round"/>
<path d="M 7374 3064 L 7370 3064 L 7360 3064 L 7358 3064 L 7354 3064 L 7352 3064 L 7352 3070 L 7352 3078 L 7352 3092 L 7352 3106 L 7352 3118 L 7364 3136 L 7364 3154 L 7364 3172 L 7378 3192 L 7378 3212 L 7398 3232 L 7398 3250 L 7414 3264 L 7414 3278 L 7414 3288 L 7414 3298 L 7426 3302 L 7426 3304 L 7424 3304 L 7420 3304 L 7414 3304 L 7408 3304 L 7404 3276 L 7398 3276 L 7394 3244 L 7388 3244 L 7386 3206 L 7382 3188 L 7382 3168 L 7382 3146 L 7382 3126 L 7382 3106 L 7382 3088 L 7402 3088 L 7402 3058 L 7424 3058 L 7446 3036 L 7460 3036 L 7474 3036 L 7492 3042 L 7504 3050 L 7504 3062 L 7526 3078 L 7526 3094 L 7526 3108 L 7526 3126 L 7518 3144 L 7510 3158 L 7492 3174 L 7470 3186 L 7446 3202 L 7420 3212 L 7392 3222 L 7368 3226 L 7334 3230" stroke="#000000" stroke-width="35" fill="none" stroke-linecap="round" stroke-linejoin="round"/>
<path d="M 7768 3120 L 7764 3120 L 7756 3120 L 7750 3096 L 7744 3096 L 7736 3096 L 7732 3096 L 7722 3096 L 7718 3096 L 7710 3096 L 7704 3096 L 7696 3098 L 7692 3106 L 7686 3114 L 7682 3124 L 7678 3134 L 7678 3144 L 7678 3156 L 7678 3164 L 7678 3174 L 7678 3182 L 7678 3190 L 7692 3192 L 7710 3192 L 7734 3192 L 7750 3192 L 7766 3192 L 7784 3166 L 7800 3166 L 7816 3166 L 7828 3136 L 7840 3136 L 7840 3110 L 7856 3110 L 7856 3082 L 7856 3054 L 7848 3054 L 7838 3034 L 7820 3034 L 7806 3034 L 7790 3034 L 7768 3012" stroke="#000000" stroke-width="35" fill="none" stroke-linecap="round" stroke-linejoin="round"/>
<path d="M 7738 2886 L 7738 2864 L 7738 2844 L 7738 2826 L 7738 2806 L 7738 2774 L 7738 2748 L 7736 2748 L 7736 2758 L 7736 2780 L 7736 2804 L 7736 2832 L 7736 2866 L 7748 2900 L 7748 2940 L 7748 2984 L 7768 3024 L 7768 3066 L 7768 3108 L 7782 3148 L 7782 3184 L 7782 3216 L 7798 3242 L 7798 3262" stroke="#000000" stroke-width="35" fill="none" stroke-linecap="round" stroke-linejoin="round"/>
<path d="M 7938 3158 L 7938 3158 L 7938 3134 L 7950 3134 L 7950 3110 L 7948 3110 L 7942 3110 L 7940 3110 L 7938 3110 L 7934 3110 L 7932 3110 L 7932 3112 L 7932 3118 L 7932 3126 L 7932 3132 L 7932 3138 L 7932 3144 L 7932 3150 L 7932 3154 L 7948 3158 L 7948 3162 L 7966 3162 L 7978 3162 L 7992 3162 L 8010 3162 L 8020 3162 L 8046 3140 L 8068 3120 L 8080 3098 L 8076 3072 L 8070 3072 L 8060 3072 L 8046 3072 L 8030 3072 L 8016 3072 L 8000 3072 L 7984 3072 L 7972 3072 L 7960 3074" stroke="#000000" stroke-width="35" fill="none" stroke-linecap="round" stroke-linejoin="round"/>
<path d="M 8018 3072 L 8030 3072 L 8052 3046 L 8068 3046 L 8068 3022 L 8068 3024 L 8068 3030 L 8068 3036 L 8068 3050 L 8080 3062 L 8080 3076 L 8080 3090 L 8080 3108 L 8080 3126 L 8094 3144 L 8094 3160 L 8110 3172 L 8110 3188 L 8132 3198 L 8132 3202 L 8156 3202 L 8170 3202 L 8186 3202" stroke="#000000" stroke-width="35" fill="none" stroke-linecap="round" stroke-linejoin="round"/>
<path d="M 8274 2884 L 8274 2860 L 8270 2860 L 8270 2828 L 8260 2828 L 8260 2808 L 8256 2808 L 8256 2812 L 8256 2824 L 8256 2842 L 8256 2864 L 8256 2892 L 8256 2924 L 8256 2956 L 8270 2992 L 8270 3030 L 8288 3068 L 8288 3106 L 8288 3142 L 8302 3176 L 8302 3204 L 8302 3228 L 8314 3248 L 8314 3262 L 8314 3270" stroke="#000000" stroke-width="35" fill="none" stroke-linecap="round" stroke-linejoin="round"/>
<path d="M 8406 3158 L 8406 3158 L 8406 3132 L 8406 3104 L 8402 3104 L 8400 3080 L 8394 3080 L 8384 3080 L 8374 3080 L 8360 3080 L 8342 3080 L 8324 3080 L 8304 3080 L 8282 3080 L 8262 3080 L 8242 3082 L 8220 3084 L 8202 3088" stroke="#000000" stroke-width="35" fill="none" stroke-linecap="round" stroke-linejoin="round"/>
<path d="M 8470 3082 L 8484 3082 L 8504 3082 L 8520 3082 L 8534 3082 L 8534 3086 L 8548 3092 L 8572 3096 L 8588 3102 L 8604 3104 L 8618 3106 L 8638 3112 L 8658 3112 L 8678 3112 L 8696 3112 L 8716 3112 L 8732 3112 L 8742 3112 L 8742 3086 L 8756 3086 L 8756 3058 L 8752 3058 L 8748 3058 L 8734 3058 L 8718 3058 L 8700 3058 L 8678 3058 L 8654 3058 L 8632 3058 L 8606 3058 L 8588 3068 L 8570 3072 L 8554 3084 L 8544 3096 L 8538 3110 L 8534 3124 L 8534 3138 L 8534 3152 L 8534 3164 L 8560 3178 L 8576 3192 L 8596 3200 L 8618 3210 L 8646 3218 L 8672 3222 L 8700 3224 L 8732 3224 L 8758 3224 L 8790 3224 L 8818 3224 L 8842 3224" stroke="#000000" stroke-width="35" fill="none" stroke-linecap="round" stroke-linejoin="round"/>
<path d="M 9192 2868 L 9190 2868 L 9190 2846 L 9186 2846 L 9182 2846 L 9182 2826 L 9178 2826 L 9174 2826 L 9170 2826 L 9168 2826 L 9160 2806 L 9156 2806 L 9150 2806 L 9142 2806 L 9136 2806 L 9128 2806 L 9118 2806 L 9110 2806 L 9096 2806 L 9082 2806 L 9072 2812 L 9060 2816 L 9046 2822 L 9030 2830 L 9018 2834 L 9008 2844 L 8996 2850 L 8986 2858 L 8976 2866 L 8966 2874 L 8958 2882 L 8958 2890 L 8950 2896 L 8950 2902 L 8948 2908 L 8948 2912 L 8948 2916 L 8948 2922 L 8948 2928 L 8948 2934 L 8958 2938 L 8958 2944 L 8958 2950 L 8978 2954 L 8978 2960 L 8978 2968 L 8994 2978 L 8994 2988 L 8994 3002 L 8994 3016 L 9008 3032 L 9008 3050 L 9006 3066 L 9006 3086 L 9006 3106 L 9004 3126 L 8998 3144 L 8994 3164 L 8990 3180 L 8986 3200 L 8978 3216 L 8972 3232 L 8966 3246 L 8962 3254 L 8958 3264 L 8958 3268 L 8958 3274 L 8958 3278 L 8958 3284 L 8958 3288 L 8958 3292 L 8958 3296 L 8972 3300 L 8972 3302 L 8990 3306 L 9004 3310 L 9004 3312 L 9030 3316 L 9046 3318 L 9062 3322 L 9080 3322 L 9100 3326 L 9118 3326 L 9136 3326 L 9158 3326 L 9174 3326 L 9196 3326 L 9210 3326 L 9230 3326" stroke="#000000" stroke-width="35" fill="none" stroke-linecap="round" stroke-linejoin="round"/>
<path d="M 9200 3132 L 9200 3132 L 9200 3108 L 9200 3084 L 9196 3084 L 9194 3084 L 9186 3084 L 9178 3084 L 9166 3084 L 9150 3084 L 9128 3084 L 9110 3084 L 9084 3084 L 9058 3084 L 9030 3084 L 8998 3084 L 8970 3088 L 8946 3090 L 8924 3090 L 8906 3096" stroke="#000000" stroke-width="35" fill="none" stroke-linecap="round" stroke-linejoin="round"/>
<path d="M 9366 3138 L 9366 3114 L 9366 3092 L 9362 3092 L 9352 3092 L 9348 3092 L 9344 3092 L 9344 3094 L 9334 3102 L 9330 3114 L 9330 3126 L 9326 3138 L 9324 3152 L 9324 3164 L 9324 3178 L 9324 3188 L 9324 3200 L 9324 3210 L 9344 3218 L 9344 3222 L 9344 3226 L 9366 3226 L 9390 3226 L 9406 3226 L 9422 3226 L 9422 3200 L 9444 3200 L 9466 3168 L 9466 3144 L 9466 3120 L 9464 3096 L 9450 3096 L 9440 3096 L 9422 3072 L 9402 3072 L 9384 3072 L 9366 3072 L 9348 3054" stroke="#000000" stroke-width="35" fill="none" stroke-linecap="round" stroke-linejoin="round"/>
<path d="M 9630 3106 L 9644 3106 L 9656 3106 L 9656 3084 L 9672 3084 L 9672 3064 L 9664 3064 L 9658 3064 L 9654 3064 L 9644 3064 L 9630 3064 L 9622 3066 L 9606 3072 L 9594 3080 L 9582 3086 L 9566 3094 L 9550 3102 L 9538 3112 L 9526 3120 L 9514 3130 L 9506 3138 L 9504 3148 L 9502 3158 L 9498 3166 L 9498 3176 L 9498 3182 L 9498 3190 L 9516 3194 L 9516 3198 L 9540 3206 L 9558 3210 L 9576 3212 L 9594 3212 L 9612 3216 L 9634 3222 L 9656 3222 L 9674 3222 L 9696 3222 L 9714 3222 L 9732 3222 L 9748 3222" stroke="#000000" stroke-width="35" fill="none" stroke-linecap="round" stroke-linejoin="round"/>
<path d="M 7128 3736 L 7128 3736 L 7124 3736 L 7118 3712 L 7114 3712 L 7114 3694 L 7112 3694 L 7108 3694 L 7108 3696 L 7108 3702 L 7108 3708 L 7108 3718 L 7108 3726 L 7108 3740 L 7108 3752 L 7108 3770 L 7108 3784 L 7108 3800 L 7108 3818 L 7124 3834 L 7124 3850 L 7124 3864 L 7136 3880 L 7136 3894 L 7136 3904 L 7158 3916 L 7158 3924 L 7170 3930 L 7170 3932 L 7186 3934 L 7204 3934 L 7222 3934 L 7242 3912 L 7260 3888 L 7278 3856 L 7294 3818 L 7294 3798 L 7310 3764 L 7310 3738 L 7324 3738 L 7324 3740 L 7324 3754 L 7324 3770 L 7342 3790 L 7342 3812 L 7342 3834 L 7342 3858 L 7356 3880 L 7356 3902 L 7356 3922 L 7356 3942 L 7372 3956 L 7372 3968 L 7372 3976 L 7384 3982" stroke="#000000" stroke-width="35" fill="none" stroke-linecap="round" stroke-linejoin="round"/>
<path d="M 7464 3838 L 7464 3816 L 7462 3816 L 7462 3792 L 7460 3792 L 7456 3792 L 7454 3792 L 7454 3802 L 7454 3814 L 7468 3834 L 7468 3854 L 7484 3876 L 7484 3900 L 7504 3926 L 7504 3948 L 7516 3974 L 7516 3996 L 7516 4018 L 7534 4040 L 7534 4054 L 7534 4062 L 7534 4066 L 7530 4066 L 7526 4066 L 7514 4048 L 7508 4048 L 7498 4012 L 7494 3990 L 7488 3966 L 7478 3940 L 7474 3916 L 7472 3890 L 7468 3862 L 7468 3840 L 7468 3818 L 7468 3800 L 7490 3766 L 7508 3748 L 7534 3748 L 7548 3748 L 7564 3748 L 7580 3748 L 7592 3756 L 7604 3766 L 7604 3780 L 7624 3796 L 7624 3814 L 7624 3834 L 7624 3852 L 7614 3868 L 7604 3884 L 7590 3898 L 7576 3912 L 7562 3922 L 7544 3932 L 7526 3942 L 7508 3948" stroke="#000000" stroke-width="35" fill="none" stroke-linecap="round" stroke-linejoin="round"/>
<path d="M 7786 3856 L 7780 3832 L 7778 3810 L 7772 3810 L 7768 3810 L 7764 3810 L 7762 3814 L 7754 3818 L 7748 3828 L 7746 3838 L 7738 3850 L 7736 3862 L 7736 3876 L 7734 3890 L 7734 3904 L 7734 3918 L 7734 3930 L 7734 3944 L 7746 3952 L 7746 3960 L 7764 3966 L 7788 3966 L 7804 3966 L 7820 3966 L 7838 3940 L 7854 3940 L 7872 3916 L 7888 3916 L 7904 3884 L 7924 3848 L 7924 3812 L 7924 3780 L 7920 3754 L 7906 3754 L 7890 3754 L 7878 3754 L 7858 3754 L 7848 3754" stroke="#000000" stroke-width="35" fill="none" stroke-linecap="round" stroke-linejoin="round"/>
<path d="M 7970 3636 L 7970 3616 L 7970 3596 L 7970 3576 L 7966 3576 L 7962 3546 L 7958 3546 L 7956 3546 L 7952 3526 L 7948 3526 L 7946 3530 L 7946 3546 L 7946 3566 L 7946 3594 L 7946 3628 L 7946 3668 L 7966 3708 L 7966 3748 L 7984 3792 L 7984 3834 L 8002 3876 L 8002 3920 L 8018 3958 L 8018 3992 L 8030 4022 L 8030 4044 L 8042 4060" stroke="#000000" stroke-width="35" fill="none" stroke-linecap="round" stroke-linejoin="round"/>
<path d="M 8112 3880 L 8112 3856 L 8126 3856 L 8124 3856 L 8124 3828 L 8122 3828 L 8118 3806 L 8112 3806 L 8108 3806 L 8106 3806 L 8102 3806 L 8096 3806 L 8090 3806 L 8084 3812 L 8080 3818 L 8070 3828 L 8070 3840 L 8066 3854 L 8066 3866 L 8066 3884 L 8066 3898 L 8066 3914 L 8066 3928 L 8066 3942 L 8080 3952 L 8080 3958 L 8102 3964 L 8114 3966 L 8126 3966 L 8142 3966 L 8158 3966 L 8176 3966 L 8194 3966 L 8204 3940 L 8222 3940 L 8232 3906 L 8248 3868 L 8248 3848 L 8248 3814 L 8248 3784 L 8244 3784 L 8240 3762 L 8226 3762 L 8212 3762 L 8202 3762 L 8190 3762" stroke="#000000" stroke-width="35" fill="none" stroke-linecap="round" stroke-linejoin="round"/>
<path d="M 8220 3806 L 8234 3806 L 8234 3784 L 8246 3784 L 8262 3784 L 8262 3794 L 8262 3810 L 8262 3828 L 8274 3848 L 8274 3868 L 8274 3892 L 8300 3916 L 8300 3934 L 8314 3958 L 8314 3978 L 8332 3994 L 8332 4006 L 8356 4014 L 8372 4020 L 8386 4020" stroke="#000000" stroke-width="35" fill="none" stroke-linecap="round" stroke-linejoin="round"/>
<path d="M 8484 3644 L 8478 3616 L 8476 3616 L 8470 3616 L 8468 3616 L 8466 3616 L 8462 3616 L 8460 3616 L 8460 3624 L 8454 3642 L 8454 3664 L 8454 3694 L 8454 3724 L 8454 3754 L 8470 3792 L 8470 3828 L 8486 3864 L 8486 3900 L 8506 3936 L 8506 3966 L 8524 3994 L 8524 4014 L 8546 4030 L 8546 4040 L 8566 4044" stroke="#000000" stroke-width="35" fill="none" stroke-linecap="round" stroke-linejoin="round"/>
<path d="M 8598 3850 L 8592 3850 L 8588 3826 L 8584 3826 L 8576 3804 L 8566 3804 L 8556 3804 L 8548 3804 L 8534 3784 L 8516 3784 L 8494 3784 L 8468 3784 L 8444 3784 L 8418 3784 L 8394 3784 L 8374 3788 L 8354 3792" stroke="#000000" stroke-width="35" fill="none" stroke-linecap="round" stroke-linejoin="round"/>
<path d="M 8654 3876 L 8672 3854 L 8672 3832 L 8668 3832 L 8668 3832 L 8668 3834 L 8682 3840 L 8682 3846 L 8704 3852 L 8716 3858 L 8732 3862 L 8748 3864 L 8762 3866 L 8778 3866 L 8792 3866 L 8808 3866 L 8822 3866 L 8842 3866 L 8842 3846 L 8842 3820 L 8840 3820 L 8830 3820 L 8822 3820 L 8806 3820 L 8792 3820 L 8778 3820 L 8762 3820 L 8748 3820 L 8732 3830 L 8718 3842 L 8708 3860 L 8704 3876 L 8696 3894 L 8694 3912 L 8694 3932 L 8694 3950 L 8694 3970 L 8694 3986 L 8708 4002 L 8708 4014 L 8726 4024 L 8726 4034 L 8754 4038 L 8768 4042 L 8784 4042 L 8800 4042 L 8816 4042 L 8838 4042 L 8860 4042 L 8878 4022 L 8902 4022" stroke="#000000" stroke-width="35" fill="none" stroke-linecap="round" stroke-linejoin="round"/>
<path d="M 9156 3722 L 9156 3700 L 9168 3700 L 9190 3676 L 9190 3652 L 9182 3652 L 9160 3652 L 9150 3652 L 9132 3652 L 9118 3652 L 9100 3652 L 9080 3654 L 9062 3656 L 9044 3660 L 9026 3662 L 9008 3664 L 8988 3666 L 8972 3670 L 8958 3670 L 8948 3672 L 8936 3674 L 8928 3676 L 8928 3678 L 8928 3682 L 8928 3686 L 8928 3692 L 8928 3700 L 8928 3710 L 8942 3724 L 8942 3738 L 8942 3756 L 8958 3774 L 8958 3796 L 8958 3818 L 8970 3844 L 8970 3870 L 8970 3898 L 8970 3922 L 8986 3946 L 8986 3974 L 8986 3994 L 8986 4018 L 8986 4034 L 8998 4052 L 8998 4066 L 8998 4076 L 9018 4084 L 9018 4090 L 9038 4092 L 9060 4092 L 9088 4092 L 9102 4092 L 9122 4070 L 9132 4070 L 9150 4070 L 9168 4042 L 9186 4042 L 9200 4042 L 9218 4018 L 9232 4018" stroke="#000000" stroke-width="35" fill="none" stroke-linecap="round" stroke-linejoin="round"/>
<path d="M 9196 3898 L 9196 3898 L 9192 3898 L 9192 3876 L 9192 3876 L 9186 3854 L 9182 3854 L 9174 3854 L 9162 3854 L 9150 3854 L 9132 3854 L 9110 3854 L 9090 3854 L 9068 3856 L 9048 3858 L 9026 3862 L 9008 3866 L 8990 3868" stroke="#000000" stroke-width="35" fill="none" stroke-linecap="round" stroke-linejoin="round"/>
<path d="M 9362 3878 L 9362 3878 L 9362 3858 L 9374 3858 L 9370 3858 L 9364 3858 L 9358 3858 L 9352 3858 L 9346 3864 L 9338 3874 L 9334 3884 L 9330 3898 L 9328 3912 L 9328 3928 L 9328 3944 L 9328 3960 L 9328 3976 L 9328 3990 L 9344 4004 L 9344 4014 L 9362 4024 L 9362 4028 L 9388 4030 L 9404 4032 L 9424 4032 L 9442 4032 L 9460 4032 L 9474 4032 L 9500 3998 L 9514 3968 L 9514 3936 L 9504 3902 L 9494 3902 L 9480 3880 L 9460 3880 L 9442 3880 L 9420 3880 L 9402 3860 L 9384 3860" stroke="#000000" stroke-width="35" fill="none" stroke-linecap="round" stroke-linejoin="round"/>
<path d="M 9702 3896 L 9716 3896 L 9716 3870 L 9728 3870 L 9728 3848 L 9726 3848 L 9724 3848 L 9716 3848 L 9710 3848 L 9702 3854 L 9692 3862 L 9686 3872 L 9676 3884 L 9670 3900 L 9660 3912 L 9652 3928 L 9646 3944 L 9640 3960 L 9634 3978 L 9630 3994 L 9630 4008 L 9630 4022 L 9630 4034 L 9630 4046 L 9646 4054 L 9646 4062 L 9670 4066 L 9684 4070 L 9698 4070 L 9716 4070 L 9738 4070 L 9760 4070 L 9782 4070 L 9804 4050 L 9826 4050 L 9844 4050" stroke="#000000" stroke-width="35" fill="none" stroke-linecap="round" stroke-linejoin="round"/></svg>