<svg xmlns="http://www.w3.org/2000/svg" width="23125" height="5636" viewBox="0 0 23125 5636"><path d="M 2083 10 L 813 2550" stroke="#000000" stroke-width="50" fill="none" stroke-linecap="round" stroke-linejoin="round"/>
<path d="M 1037 2382 L 813 2550 L 813 2270" stroke="#000000" stroke-width="50" fill="none" stroke-linecap="round" stroke-linejoin="round"/>
<path d="M 9703 10 L 8433 3820" stroke="#000000" stroke-width="50" fill="none" stroke-linecap="round" stroke-linejoin="round"/>
<path d="M 8631 3622 L 8433 3820 L 8393 3543" stroke="#000000" stroke-width="50" fill="none" stroke-linecap="round" stroke-linejoin="round"/>
<path d="M 19732 4291 L 19739 4298 L 19749 4304 L 19768 4311 L 19803 4317 L 19853 4321 L 19914 4324 L 19987 4329 L 20071 4334 L 20160 4337 L 20255 4339 L 20347 4341 L 20436 4341 L 20519 4339 L 20594 4339 L 20655 4341 L 20711 4341 L 20756 4339 L 20797 4339 L 20833 4341 L 20866 4341 L 20898 4339 L 20931 4339 L 20966 4341 L 21005 4341 L 21047 4339 L 21090 4339 L 21138 4341 L 21184 4341 L 21225 4339 L 21265 4339 L 21303 4341 L 21336 4341 L 21367 4339 L 21401 4339 L 21442 4341 L 21482 4341 L 21523 4339 L 21563 4339 L 21604 4341 L 21640 4341 L 21680 4339 L 21721 4339 L 21761 4341 L 21802 4341 L 21842 4339 L 21882 4339 L 21918 4341 L 21958 4341 L 21999 4339 L 22039 4339 L 22074 4341 L 22110 4341 L 22146 4339 L 22184 4339 L 22222 4341 L 22259 4341 L 22293 4339 L 22325 4339 L 22355 4341 L 22381 4341 L 22409 4339 L 22439 4339 L 22467 4341 L 22497 4341 L 22525 4339 L 22560 4339 L 22596 4341 L 22631 4341 L 22662 4339 L 22695 4339 L 22718 4341" stroke="#000000" stroke-width="100" fill="none" stroke-linecap="round" stroke-linejoin="round"/>
<path d="M 600 4369 L 608 4371 L 625 4371 L 648 4374 L 673 4381 L 707 4386 L 744 4392 L 784 4400 L 832 4414 L 881 4432 L 932 4448 L 992 4463 L 1058 4473 L 1124 4483 L 1190 4491 L 1250 4496 L 1303 4500 L 1349 4506 L 1376 4515 L 1382 4521 L 1356 4526 L 1303 4523 L 1233 4518 L 1154 4510 L 1060 4500 L 960 4490 L 860 4481 L 754 4476 L 648 4473 L 555 4473 L 486 4475" stroke="#FFFFFF" stroke-width="25" fill="none" stroke-linecap="round" stroke-linejoin="round"/>
<path d="M 972 4423 L 972 4421" stroke="#FFFFFF" stroke-width="25" fill="none" stroke-linecap="round" stroke-linejoin="round"/>
<path d="M 814 4397 L 817 4397 L 831 4397 L 852 4397 L 878 4397 L 913 4400 L 950 4404 L 993 4415 L 1037 4427 L 1082 4437 L 1125 4445 L 1173 4450 L 1224 4453 L 1280 4457 L 1340 4458 L 1404 4460 L 1470 4460 L 1532 4458 L 1585 4458 L 1629 4460 L 1672 4460 L 1697 4458 L 1684 4452 L 1633 4443 L 1543 4437 L 1403 4430 L 1217 4423 L 1006 4420 L 771 4417 L 539 4415 L 333 4414 L 161 4414 L 50 4415 L 10 4422 L 32 4433 L 98 4447 L 199 4458 L 325 4471 L 467 4483 L 616 4493 L 769 4500 L 917 4501 L 1049 4501 L 1170 4500 L 1272 4496 L 1353 4495 L 1416 4493 L 1461 4493 L 1489 4491 L 1499 4478 L 1489 4463 L 1467 4447 L 1442 4430 L 1409 4412 L 1380 4400 L 1376 4394 L 1401 4392 L 1459 4392 L 1535 4394 L 1613 4397 L 1687 4399 L 1750 4400 L 1780 4400 L 1768 4399 L 1714 4389 L 1621 4377 L 1495 4361 L 1363 4344 L 1234 4333 L 1125 4318 L 1041 4304 L 989 4301 L 979 4308 L 1007 4319 L 1069 4336 L 1155 4351 L 1265 4364 L 1385 4377 L 1499 4387 L 1604 4394 L 1695 4399 L 1765 4402 L 1813 4394 L 1839 4377 L 1826 4352 L 1776 4324 L 1690 4298 L 1563 4275 L 1408 4248 L 1234 4220 L 1059 4197 L 892 4182 L 748 4172 L 635 4167 L 563 4179 L 539 4199 L 573 4222 L 647 4245 L 766 4270 L 913 4294 L 1085 4314 L 1254 4329 L 1406 4339 L 1507 4344 L 1543 4347 L 1515 4344 L 1442 4339 L 1337 4331 L 1217 4321 L 1108 4304 L 1022 4299 L 981 4304 L 984 4321 L 1029 4341 L 1098 4362 L 1183 4382 L 1270 4397 L 1337 4407 L 1370 4414 L 1363 4418 L 1327 4422 L 1267 4420 L 1196 4410 L 1130 4399 L 1079 4394 L 1052 4394 L 1065 4399 L 1105 4405 L 1165 4410 L 1231 4414 L 1297 4417 L 1360 4418 L 1413 4414 L 1454 4400 L 1480 4379 L 1495 4356 L 1502 4328 L 1499 4298 L 1475 4273 L 1431 4255 L 1366 4245 L 1290 4240 L 1206 4238 L 1125 4242 L 1055 4251 L 996 4270 L 958 4298 L 951 4328 L 973 4357 L 1019 4382 L 1082 4400 L 1155 4410 L 1222 4415 L 1275 4417" stroke="#FFFFFF" stroke-width="25" fill="none" stroke-linecap="round" stroke-linejoin="round"/>
<path d="M 548 4291 L 548 4298 L 548 4308 L 548 4321 L 555 4339 L 568 4359 L 601 4377 L 651 4394 L 713 4407 L 781 4422 L 856 4435 L 935 4443 L 1016 4450 L 1099 4453 L 1176 4456 L 1243 4458 L 1299 4460 L 1332 4460 L 1333 4451 L 1304 4438 L 1243 4423 L 1166 4410 L 1090 4390 L 1019 4370 L 958 4354 L 905 4344 L 885 4339 L 899 4337 L 951 4337 L 1031 4337 L 1133 4337 L 1252 4337 L 1373 4337 L 1486 4337 L 1586 4337 L 1666 4337 L 1725 4337 L 1752 4334 L 1745 4331 L 1709 4322 L 1646 4311 L 1568 4301 L 1477 4294 L 1385 4293 L 1300 4289 L 1228 4291 L 1166 4291 L 1114 4298 L 1076 4308 L 1052 4321 L 1037 4342 L 1031 4372 L 1031 4403 L 1034 4437 L 1044 4473 L 1062 4509 L 1104 4544 L 1160 4572 L 1233 4595 L 1327 4610 L 1429 4618 L 1534 4622 L 1636 4617 L 1732 4595 L 1813 4569 L 1881 4536 L 1934 4499 L 1968 4460 L 1988 4418 L 1997 4379 L 1983 4341 L 1940 4304 L 1868 4270 L 1777 4241 L 1681 4218 L 1580 4200 L 1481 4188 L 1381 4182 L 1286 4180 L 1196 4180 L 1122 4185 L 1057 4198 L 1008 4215 L 975 4241 L 956 4273 L 950 4303 L 948 4337 L 955 4377 L 980 4417 L 1023 4456 L 1080 4489 L 1150 4513 L 1228 4529 L 1305 4537 L 1381 4542 L 1449 4546 L 1504 4546 L 1550 4537 L 1585 4521 L 1608 4493 L 1620 4453 L 1616 4408 L 1603 4369 L 1565 4331 L 1509 4294 L 1438 4268 L 1362 4250 L 1294 4240 L 1236 4235 L 1186 4238 L 1150 4246 L 1128 4265 L 1117 4294 L 1117 4331 L 1137 4369 L 1170 4403 L 1223 4433 L 1289 4456 L 1362 4471 L 1434 4480 L 1504 4483 L 1567 4484 L 1621 4483 L 1663 4473 L 1689 4456 L 1697 4438 L 1681 4423 L 1636 4403 L 1583 4384 L 1512 4367 L 1436 4354 L 1365 4346 L 1302 4339 L 1251 4337 L 1209 4337 L 1183 4341 L 1170 4354 L 1190 4382 L 1233 4415 L 1292 4443 L 1363 4473 L 1433 4503 L 1501 4527 L 1560 4546 L 1613 4556 L 1656 4557 L 1682 4546 L 1694 4529 L 1684 4508 L 1646 4489 L 1586 4473 L 1514 4463 L 1438 4458 L 1368 4456 L 1304 4456 L 1252 4460 L 1226 4466 L 1231 4481 L 1261 4498 L 1322 4513 L 1408 4526 L 1507 4534 L 1613 4537 L 1715 4539 L 1808 4539 L 1876 4527 L 1916 4514 L 1914 4496 L 1864 4473 L 1773 4453 L 1643 4438 L 1491 4428 L 1340 4423 L 1208 4420 L 1110 4417 L 1061 4415 L 1071 4413 L 1132 4413 L 1233 4415 L 1375 4415 L 1539 4413 L 1706 4413 L 1851 4415 L 1970 4415 L 2046 4410 L 2086 4403 L 2078 4400 L 2031 4397 L 1954 4395 L 1858 4394 L 1754 4394 L 1653 4395 L 1563 4398 L 1491 4410 L 1439 4427 L 1419 4443 L 1434 4461 L 1487 4476 L 1570 4486 L 1692 4493 L 1833 4498 L 1973 4501 L 2109 4499 L 2220 4493 L 2307 4484 L 2367 4468 L 2403 4446 L 2410 4417 L 2375 4389 L 2289 4367 L 2155 4351 L 1973 4339 L 1758 4334 L 1542 4334 L 1348 4336 L 1196 4336 L 1087 4341 L 1018 4354 L 986 4379 L 994 4405 L 1034 4430 L 1102 4450 L 1198 4466 L 1309 4480 L 1421 4488 L 1534 4494 L 1629 4496 L 1702 4496 L 1760 4496 L 1800 4493 L 1825 4486 L 1838 4471 L 1835 4451 L 1821 4427 L 1797 4403 L 1763 4382 L 1719 4364 L 1669 4351 L 1623 4341 L 1585 4341 L 1558 4349 L 1543 4362 L 1547 4374 L 1572 4384 L 1613 4392 L 1659 4397 L 1709 4400 L 1758 4400 L 1806 4398 L 1848 4395 L 1878 4384 L 1886 4370 L 1881 4357 L 1861 4357 L 1826 4367 L 1787 4387 L 1749 4408 L 1715 4432 L 1687 4453 L 1671 4480 L 1669 4501 L 1679 4518 L 1707 4532 L 1745 4546 L 1792 4554 L 1841 4554 L 1884 4542 L 1919 4526 L 1944 4506 L 1954 4478 L 1944 4451 L 1912 4423 L 1861 4397 L 1805 4374 L 1734 4357 L 1656 4346 L 1583 4337 L 1519 4334 L 1466 4334 L 1428 4336" stroke="#FFFFFF" stroke-width="25" fill="none" stroke-linecap="round" stroke-linejoin="round"/>
<path d="M 1370 4317 L 1363 4317 L 1353 4317 L 1334 4317 L 1309 4317 L 1276 4317 L 1231 4317 L 1175 4317 L 1112 4317 L 1051 4317 L 990 4320 L 930 4324 L 885 4335 L 862 4353 L 854 4380 L 884 4408 L 950 4438 L 1044 4463 L 1173 4482 L 1334 4496 L 1502 4502 L 1666 4506 L 1803 4506 L 1912 4504 L 1990 4497 L 2028 4489 L 2031 4479 L 2003 4463 L 1952 4448 L 1883 4436 L 1803 4426 L 1712 4420 L 1603 4415 L 1489 4411 L 1390 4410 L 1304 4410 L 1244 4410 L 1221 4416 L 1238 4426 L 1282 4436 L 1347 4444 L 1423 4449 L 1501 4453 L 1575 4456 L 1641 4458 L 1694 4459 L 1734 4453 L 1747 4441 L 1724 4421 L 1674 4396 L 1600 4370 L 1506 4343 L 1400 4324 L 1286 4310 L 1170 4300 L 1069 4294 L 986 4292 L 925 4289 L 887 4297 L 867 4317 L 864 4340 L 881 4370 L 919 4401 L 973 4429 L 1039 4453 L 1112 4479 L 1198 4501 L 1287 4517 L 1373 4529 L 1451 4535 L 1517 4539 L 1572 4539 L 1615 4537 L 1646 4530 L 1664 4515 L 1674 4492 L 1679 4466 L 1681 4431 L 1661 4395 L 1621 4363 L 1565 4337 L 1496 4314 L 1405 4294 L 1287 4279 L 1158 4269 L 1021 4264 L 890 4261 L 785 4261 L 700 4262 L 637 4262 L 596 4264 L 573 4274 L 563 4291 L 561 4312 L 570 4337 L 593 4360 L 639 4380 L 694 4395 L 756 4405 L 828 4410 L 897 4413 L 963 4416 L 1021 4418 L 1054 4413 L 1062 4400 L 1046 4378 L 1008 4358 L 960 4340 L 900 4324 L 844 4305 L 795 4291 L 756 4284 L 735 4287 L 728 4294 L 728 4305 L 742 4319 L 771 4337 L 808 4350 L 849 4363 L 884 4377 L 900 4386 L 899 4393 L 871 4401 L 824 4408 L 773 4413 L 723 4423 L 675 4434 L 636 4443 L 599 4449 L 570 4453 L 545 4456 L 530 4458 L 533 4459 L 556 4459 L 601 4458 L 669 4458 L 761 4459 L 890 4459 L 1046 4458 L 1223 4458 L 1406 4459 L 1582 4459 L 1742 4458 L 1876 4458 L 1979 4459 L 2053 4459 L 2094 4451 L 2108 4441 L 2096 4429 L 2060 4413 L 1995 4400 L 1912 4375 L 1821 4348 L 1714 4327 L 1595 4307 L 1466 4292 L 1340 4282 L 1233 4277 L 1147 4274 L 1086 4277 L 1046 4289 L 1033 4310 L 1049 4330 L 1092 4350 L 1163 4367 L 1248 4380 L 1350 4388 L 1461 4395 L 1578 4396 L 1691 4396 L 1788 4396 L 1874 4396 L 1939 4390 L 1979 4373 L 1988 4357 L 1965 4335 L 1911 4317 L 1823 4300 L 1707 4291 L 1563 4286 L 1413 4284 L 1264 4287 L 1137 4287 L 1039 4286 L 973 4296 L 937 4310" stroke="#FFFFFF" stroke-width="200" fill="none" stroke-linecap="round" stroke-linejoin="round"/>
<path d="M 19916 4265 L 19926 4265 L 19942 4265 L 19974 4265 L 20019 4265 L 20081 4265 L 20166 4265 L 20273 4265 L 20412 4265 L 20564 4265 L 20720 4265 L 20869 4265 L 20996 4265 L 21097 4265 L 21160 4265 L 21171 4265 L 21140 4265 L 21074 4265 L 20974 4265 L 20862 4265 L 20743 4265 L 20630 4265 L 20528 4265 L 20445 4265 L 20377 4265 L 20319 4265 L 20270 4265 L 20224 4265 L 20182 4265 L 20143 4265 L 20101 4265 L 20055 4272 L 20005 4285 L 19952 4298 L 19898 4311 L 19842 4325 L 19790 4334 L 19747 4341 L 19704 4343 L 19666 4343 L 19651 4341 L 19665 4338 L 19701 4336 L 19757 4334 L 19825 4334 L 19899 4336 L 19979 4336 L 20060 4334 L 20143 4334 L 20217 4336 L 20290 4336 L 20354 4334 L 20414 4334 L 20468 4336 L 20515 4336 L 20553 4341 L 20586 4348 L 20614 4353 L 20647 4356 L 20678 4361 L 20715 4364 L 20753 4369 L 20796 4374 L 20840 4377 L 20892 4376 L 20941 4374 L 20996 4374 L 21054 4376 L 21117 4376 L 21179 4374 L 21244 4374 L 21302 4376 L 21355 4376 L 21406 4374 L 21456 4374 L 21507 4376 L 21553 4376 L 21598 4374 L 21637 4374 L 21679 4376 L 21725 4376 L 21770 4374 L 21816 4374 L 21857 4376 L 21900 4376 L 21945 4374 L 21986 4374 L 22029 4376 L 22069 4376 L 22110 4374 L 22150 4374 L 22185 4376 L 22215 4376 L 22241 4374 L 22269 4374 L 22296 4376 L 22320 4376 L 22347 4374 L 22375 4368 L 22405 4356 L 22433 4343 L 22463 4325 L 22494 4311 L 22525 4301 L 22555 4291 L 22583 4283 L 22611 4275 L 22641 4268 L 22669 4263 L 22694 4260 L 22721 4258 L 22747 4258 L 22774 4258 L 22787 4258 L 22780 4258 L 22757 4258 L 22724 4258 L 22679 4258 L 22626 4258 L 22568 4258 L 22516 4258 L 22459 4258 L 22400 4258 L 22325 4258 L 22239 4258 L 22148 4258 L 22059 4258 L 21975 4258 L 21897 4258 L 21824 4262 L 21753 4268 L 21690 4280 L 21636 4293 L 21593 4305 L 21560 4318 L 21548 4328 L 21565 4334 L 21606 4339 L 21675 4343 L 21766 4344 L 21871 4344 L 21986 4344 L 22110 4344 L 22238 4344 L 22360 4344 L 22466 4344 L 22547 4344 L 22606 4344 L 22641 4341 L 22635 4331 L 22605 4320 L 22545 4311 L 22468 4301 L 22378 4291 L 22284 4280 L 22188 4268 L 22102 4258 L 22021 4250 L 21952 4245 L 21897 4242 L 21854 4242 L 21826 4250 L 21824 4267 L 21851 4285 L 21912 4305 L 21998 4321 L 22099 4331 L 22208 4336 L 22324 4338 L 22438 4338 L 22542 4338 L 22635 4338 L 22707 4338 L 22764 4338 L 22807 4338 L 22835 4334 L 22853 4321 L 22853 4303 L 22830 4286 L 22783 4275 L 22709 4268 L 22613 4263 L 22509 4260 L 22403 4255 L 22304 4252 L 22211 4250 L 22129 4248 L 22062 4245 L 22005 4244 L 21955 4242 L 21910 4242 L 21874 4244 L 21842 4244 L 21814 4242 L 21798 4242 L 21795 4244 L 21823 4244 L 21877 4242 L 21953 4242 L 22038 4244 L 22129 4244 L 22215 4242 L 22289 4242 L 22335 4244 L 22347 4244 L 22330 4242 L 22292 4242 L 22241 4244 L 22181 4244 L 22117 4242 L 22051 4242 L 21993 4244 L 21943 4244 L 21900 4242 L 21866 4242 L 21834 4244 L 21804 4244 L 21771 4235 L 21730 4225 L 21687 4217 L 21636 4212 L 21576 4209 L 21513 4205 L 21447 4204 L 21389 4202 L 21336 4202 L 21289 4204 L 21246 4201 L 21211 4196 L 21176 4192 L 21143 4191 L 21108 4186 L 21075 4179 L 21037 4172 L 20984 4169 L 20923 4166 L 20850 4164 L 20759 4162 L 20647 4162 L 20513 4164 L 20354 4164 L 20181 4162 L 20009 4162 L 19856 4164 L 19727 4164 L 19628 4162 L 19554 4162 L 19504 4167 L 19483 4177 L 19493 4196 L 19531 4212 L 19582 4230 L 19645 4245 L 19719 4262 L 19794 4275 L 19870 4286 L 19941 4300 L 20005 4311 L 20058 4325 L 20100 4334 L 20136 4341 L 20164 4349 L 20191 4359 L 20215 4368 L 20238 4371 L 20263 4372 L 20290 4371 L 20315 4371 L 20338 4371 L 20366 4371 L 20392 4371 L 20419 4371 L 20445 4371 L 20472 4371 L 20498 4371 L 20525 4371 L 20551 4371 L 20577 4371 L 20601 4374 L 20604 4384 L 20589 4396 L 20558 4404 L 20511 4417 L 20458 4430 L 20405 4440 L 20356 4447 L 20306 4452 L 20252 4455 L 20194 4457 L 20128 4457 L 20055 4457 L 19982 4457 L 19909 4457 L 19837 4457 L 19764 4457 L 19694 4457 L 19635 4457 L 19584 4457 L 19541 4457 L 19506 4457 L 19476 4457 L 19450 4457 L 19428 4457 L 19405 4457 L 19393 4457 L 19387 4460 L 19397 4463 L 19427 4468 L 19471 4473 L 19529 4477 L 19595 4478 L 19670 4483 L 19749 4490 L 19827 4493 L 19906 4497 L 19984 4498 L 20053 4500 L 20124 4500 L 20187 4498 L 20248 4498 L 20310 4500 L 20366 4500 L 20427 4498 L 20488 4498 L 20548 4500 L 20599 4500 L 20649 4498 L 20693 4498 L 20733 4500 L 20771 4500 L 20807 4498 L 20839 4498 L 20865 4500 L 20893 4500 L 20920 4498 L 20948 4498 L 20961 4500 L 20954 4500 L 20938 4498 L 20908 4498 L 20867 4500 L 20819 4500 L 20766 4498 L 20708 4498 L 20645 4500 L 20584 4500 L 20521 4498 L 20452 4498 L 20387 4500 L 20329 4500 L 20276 4498 L 20229 4498 L 20189 4497 L 20171 4493 L 20177 4490 L 20215 4485 L 20281 4480 L 20366 4477 L 20468 4475 L 20587 4473 L 20721 4473 L 20873 4475 L 21050 4475 L 21242 4473 L 21446 4473 L 21654 4475 L 21844 4475 L 22010 4473 L 22150 4473 L 22266 4475 L 22360 4475 L 22433 4473 L 22484 4473 L 22524 4475 L 22555 4475 L 22572 4473 L 22563 4472 L 22547 4468 L 22519 4467 L 22479 4463 L 22438 4462 L 22398 4460 L 22360 4457 L 22327 4455 L 22299 4454 L 22269 4454 L 22231 4455 L 22185 4455 L 22129 4454 L 22066 4454 L 21995 4455 L 21904 4455 L 21785 4454 L 21634 4454 L 21456 4455 L 21229 4455 L 20968 4457 L 20685 4463 L 20439 4473" stroke="#FFFFFF" stroke-width="200" fill="none" stroke-linecap="round" stroke-linejoin="round"/>
<path d="M 19890 5085 L 19883 5085 L 19873 5082 L 19864 5072 L 19852 5054 L 19844 5035 L 19850 5022 L 19873 5011 L 19916 5004 L 19978 4999 L 20049 4996 L 20125 4992 L 20201 4987 L 20265 4982 L 20323 4976 L 20376 4964 L 20421 4948 L 20454 4926 L 20472 4903 L 20475 4880 L 20469 4852 L 20444 4827 L 20394 4804 L 20336 4787 L 20274 4776 L 20209 4768 L 20151 4764 L 20098 4764 L 20054 4766 L 20017 4766 L 19986 4774 L 19963 4791 L 19948 4820 L 19946 4852 L 19953 4890 L 19978 4926 L 20021 4964 L 20088 4999 L 20171 5029 L 20267 5052 L 20371 5067 L 20485 5075 L 20601 5082 L 20710 5083 L 20808 5073 L 20882 5052 L 20932 5019 L 20962 4976 L 20970 4930 L 20942 4882 L 20879 4835 L 20783 4791 L 20656 4744 L 20505 4703 L 20353 4667 L 20208 4639 L 20075 4619 L 19969 4607 L 19883 4604 L 19824 4605 L 19787 4615 L 19768 4634 L 19759 4662 L 19759 4695 L 19778 4751 L 19824 4817 L 19890 4888 L 19969 4958 L 20075 5029 L 20204 5095 L 20360 5163 L 20527 5226 L 20707 5277 L 20885 5326 L 21059 5366 L 21211 5394 L 21332 5411 L 21418 5419 L 21478 5416 L 21514 5401 L 21524 5366 L 21512 5320 L 21474 5265 L 21415 5212 L 21330 5154 L 21218 5102 L 21081 5054 L 20928 5017 L 20757 4992 L 20581 4976 L 20409 4973 L 20249 4987 L 20113 5009 L 20002 5042 L 19920 5077 L 19864 5113 L 19832 5148 L 19817 5191 L 19814 5239 L 19821 5287 L 19842 5333 L 19882 5368 L 19930 5394 L 19979 5412 L 20032 5422 L 20083 5427 L 20130 5429 L 20171 5429 L 20201 5426 L 20219 5416 L 20217 5404 L 20201 5393 L 20169 5383 L 20145 5381 L 20141 5386 L 20160 5396 L 20208 5411 L 20280 5432 L 20379 5452 L 20502 5467 L 20637 5477 L 20785 5482 L 20925 5485 L 21051 5488 L 21148 5490 L 21211 5492 L 21236 5492 L 21210 5490 L 21148 5484 L 21056 5475 L 20938 5465 L 20806 5455 L 20675 5447 L 20553 5436 L 20449 5426 L 20373 5422 L 20332 5424 L 20320 5439 L 20330 5462 L 20356 5490 L 20394 5522 L 20441 5548 L 20485 5574 L 20528 5594 L 20568 5608 L 20603 5617 L 20619 5624 L 20608 5626 L 20571 5622 L 20504 5621 L 20416 5617 L 20317 5617 L 20216 5619 L 20126 5619 L 20059 5617 L 20002 5617 L 19961 5619 L 19936 5619 L 19930 5617 L 19936 5617 L 19963 5619 L 20006 5619 L 20062 5617 L 20130 5617 L 20201 5619 L 20277 5616 L 20356 5608 L 20437 5601 L 20527 5591 L 20621 5581 L 20727 5566 L 20834 5551 L 20943 5538 L 21044 5530 L 21140 5527 L 21221 5525 L 21292 5525 L 21358 5527 L 21425 5527 L 21494 5525 L 21563 5525 L 21641 5523 L 21739 5517 L 21841 5508 L 21942 5502 L 22036 5488 L 22126 5475 L 22197 5465 L 22258 5455 L 22314 5447 L 22361 5439 L 22392 5432 L 22392 5424 L 22361 5411 L 22291 5399 L 22187 5386 L 22053 5371 L 21907 5358 L 21749 5346 L 21587 5340 L 21425 5331 L 21287 5328 L 21173 5326 L 21087 5326 L 21031 5331 L 21001 5341 L 21006 5360 L 21048 5379 L 21117 5398 L 21216 5414 L 21347 5429 L 21522 5439 L 21735 5445 L 21964 5450 L 22202 5454 L 22422 5455 L 22623 5455 L 22790 5452 L 22923 5442 L 23017 5431 L 23077 5416 L 23108 5399 L 23115 5376 L 23103 5358 L 23070 5343 L 23012 5326 L 22936 5313 L 22850 5302 L 22749 5285 L 22643 5267 L 22542 5254 L 22447 5245 L 22357 5239 L 22283 5237 L 22228 5244 L 22185 5257 L 22154 5280 L 22142 5303 L 22139 5328 L 22147 5353 L 22162 5376 L 22182 5398 L 22207 5416 L 22240 5432 L 22278 5449 L 22324 5464 L 22374 5475 L 22423 5485 L 22465 5495 L 22506 5503 L 22549 5508 L 22590 5512 L 22628 5512 L 22665 5510 L 22695 5510 L 22716 5508 L 22734 5498 L 22744 5492 L 22748 5490 L 22746 5503 L 22728 5522 L 22691 5538 L 22632 5551 L 22557 5560 L 22475 5566 L 22387 5568 L 22298 5568 L 22210 5568 L 22113 5568 L 22010 5568 L 21904 5568 L 21800 5568 L 21704 5568 L 21626 5568 L 21563 5568 L 21512 5568 L 21474 5568 L 21441 5568 L 21413 5568 L 21387 5568 L 21372 5568 L 21382 5568 L 21415 5568 L 21476 5568 L 21555 5568 L 21649 5568 L 21749 5568 L 21855 5568 L 21957 5568 L 22050 5568 L 22124 5568 L 22184 5568 L 22212 5568 L 22198 5568 L 22142 5561 L 22040 5551 L 21899 5538 L 21732 5517 L 21544 5490 L 21334 5469 L 21124 5449 L 20935 5426 L 20771 5406 L 20637 5391 L 20535 5381 L 20459 5376 L 20404 5369 L 20370 5363" stroke="#FFFFFF" stroke-width="350" fill="none" stroke-linecap="round" stroke-linejoin="round"/></svg>