<svg xmlns="http://www.w3.org/2000/svg" width="9304" height="4765" viewBox="0 0 9304 4765"><path d="M 18 17 L 16 17 L 15 17 L 11 17 L 10 17 L 10 19 L 10 20 L 10 25 L 10 37 L 21 48 L 21 67 L 21 85 L 21 110 L 21 138 L 33 167 L 33 202 L 33 235 L 33 273 L 41 311 L 41 346 L 41 382 L 41 417 L 41 445 L 41 472 L 41 492 L 41 505 L 41 515 L 41 516 L 41 505 L 41 492 L 39 475 L 38 455 L 36 427 L 35 399 L 35 371 L 33 339 L 30 306 L 30 275 L 30 244 L 30 212 L 28 184 L 26 159 L 25 134 L 21 111 L 21 93 L 21 81 L 21 72 L 35 73 L 35 75 L 46 81 L 58 96 L 66 111 L 78 133 L 92 153 L 109 179 L 124 207 L 139 235 L 157 263 L 175 292 L 192 316 L 205 341 L 215 364 L 230 382 L 240 402 L 254 414 L 264 425 L 274 434 L 284 437 L 284 439 L 299 439 L 309 429 L 322 406 L 322 391 L 331 373 L 331 349 L 331 325 L 331 295 L 331 265 L 331 232 L 331 202 L 331 169 L 331 139 L 331 111 L 327 86 L 324 63 L 321 42 L 317 22 L 317 10" stroke="#000000" stroke-width="50.00001" fill="none" stroke-linecap="round" stroke-linejoin="round"/>
<path d="M 544 471 L 539 451 L 537 451 L 536 435 L 534 435 L 531 421 L 526 421 L 519 423 L 514 425 L 504 430 L 499 436 L 489 446 L 483 459 L 471 474 L 465 491 L 460 506 L 453 524 L 450 540 L 450 557 L 450 570 L 450 583 L 450 590 L 458 595 L 458 597 L 473 597 L 488 597 L 503 585 L 516 572 L 532 559 L 547 540 L 562 526 L 575 506 L 584 489 L 584 473 L 584 458 L 584 441 L 584 430 L 584 418 L 579 418 L 569 407" stroke="#000000" stroke-width="50.00001" fill="none" stroke-linecap="round" stroke-linejoin="round"/>
<path d="M 682 267 L 682 250 L 690 236 L 690 226 L 690 211 L 690 201 L 690 188 L 690 176 L 690 156 L 690 146 L 690 150 L 690 155 L 700 166 L 700 179 L 700 199 L 700 221 L 708 249 L 708 277 L 718 308 L 718 343 L 725 378 L 725 413 L 740 447 L 740 479 L 748 515 L 748 543 L 761 571 L 761 596 L 775 614 L 785 627 L 793 634 L 804 637 L 814 637" stroke="#000000" stroke-width="50.00001" fill="none" stroke-linecap="round" stroke-linejoin="round"/>
<path d="M 854 441 L 846 441 L 837 421 L 826 421 L 814 408 L 799 408 L 788 408 L 768 408 L 753 408 L 733 408 L 715 410" stroke="#000000" stroke-width="50.00001" fill="none" stroke-linecap="round" stroke-linejoin="round"/>
<path d="M 882 423 L 882 423 L 890 410 L 889 410 L 887 410 L 887 411 L 887 413 L 887 418 L 897 420 L 897 421 L 913 423 L 925 423 L 940 423 L 953 423 L 970 423 L 986 408 L 1006 408 L 1024 398 L 1042 398 L 1054 382 L 1067 382 L 1067 365 L 1080 365 L 1080 347 L 1079 347 L 1071 347 L 1056 347 L 1041 347 L 1023 349 L 1001 360 L 980 372 L 958 387 L 940 402 L 922 418 L 910 435 L 900 456 L 897 474 L 897 496 L 897 514 L 897 529 L 910 539 L 923 549 L 943 554 L 965 559 L 988 559 L 1016 559 L 1042 559 L 1069 559" stroke="#000000" stroke-width="50.00001" fill="none" stroke-linecap="round" stroke-linejoin="round"/>
<path d="M 1218 423 L 1218 403 L 1218 393 L 1228 393 L 1228 373 L 1228 362 L 1225 363 L 1216 370 L 1210 377 L 1203 388 L 1195 397 L 1188 406 L 1182 416 L 1175 425 L 1175 435 L 1173 443 L 1173 451 L 1173 453 L 1173 456 L 1192 461 L 1205 468 L 1220 473 L 1239 476 L 1263 483 L 1284 489 L 1304 497 L 1322 506 L 1335 517 L 1345 527 L 1345 539 L 1345 549 L 1345 559 L 1345 567 L 1340 575 L 1327 583 L 1307 588 L 1291 593 L 1268 598" stroke="#000000" stroke-width="50.00001" fill="none" stroke-linecap="round" stroke-linejoin="round"/>
<path d="M 1892 397 L 1915 397 L 1935 397 L 1955 397 L 1976 397 L 1991 397 L 2008 397 L 2014 397 L 2014 399 L 2014 400 L 2014 405 L 2011 407 L 1996 412 L 1976 417 L 1952 420 L 1920 423 L 1882 427 L 1846 428 L 1803 430 L 1758 430 L 1717 433 L 1674 433 L 1634 433 L 1598 433 L 1565 433 L 1538 435" stroke="#000000" stroke-width="50.00001" fill="none" stroke-linecap="round" stroke-linejoin="round"/>
<path d="M 2072 307 L 2067 307 L 2060 307 L 2054 295 L 2047 295 L 2041 295 L 2036 295 L 2027 282 L 2024 282 L 2019 282 L 2017 282 L 2027 286 L 2041 292 L 2052 299 L 2069 307 L 2084 315 L 2102 328 L 2122 342 L 2143 357 L 2163 371 L 2179 391 L 2179 408 L 2194 428 L 2194 446 L 2194 464 L 2186 479 L 2173 494 L 2156 505 L 2138 520 L 2113 530" stroke="#000000" stroke-width="50.00001" fill="none" stroke-linecap="round" stroke-linejoin="round"/>
<path d="M 2766 315 L 2766 315 L 2776 300 L 2776 290 L 2786 290 L 2794 295 L 2794 303 L 2794 315 L 2794 332 L 2794 348 L 2794 375 L 2802 404 L 2802 434 L 2802 469 L 2802 504 L 2802 538 L 2802 573 L 2812 606 L 2812 637 L 2812 666 L 2812 690 L 2812 710" stroke="#000000" stroke-width="50.00001" fill="none" stroke-linecap="round" stroke-linejoin="round"/>
<path d="M 2794 389 L 2792 372 L 2787 358 L 2786 346 L 2784 346 L 2782 329 L 2781 329 L 2781 315 L 2787 300 L 2806 300 L 2824 290 L 2844 291 L 2863 291 L 2887 296 L 2911 306 L 2935 321 L 2959 336 L 2983 354 L 2997 374 L 3014 399 L 3014 417 L 3024 440 L 3024 465 L 3019 487 L 3011 505 L 2992 521 L 2973 535 L 2949 546 L 2926 553" stroke="#000000" stroke-width="50.00001" fill="none" stroke-linecap="round" stroke-linejoin="round"/>
<path d="M 3116 389 L 3116 389 L 3114 389 L 3111 376 L 3108 376 L 3104 376 L 3096 376 L 3090 377 L 3085 382 L 3080 391 L 3078 399 L 3075 407 L 3073 422 L 3073 434 L 3073 450 L 3073 465 L 3085 478 L 3085 488 L 3101 501 L 3111 511 L 3126 520 L 3141 525 L 3154 525 L 3174 525 L 3192 525 L 3212 525 L 3230 510 L 3250 498 L 3260 487 L 3271 473 L 3271 458 L 3271 442 L 3271 430 L 3268 430 L 3257 410 L 3243 410 L 3222 401" stroke="#000000" stroke-width="50.00001" fill="none" stroke-linecap="round" stroke-linejoin="round"/>
<path d="M 3386 407 L 3383 395 L 3381 395 L 3379 395 L 3376 395 L 3376 399 L 3376 407 L 3376 420 L 3376 435 L 3376 455 L 3376 475 L 3386 500 L 3386 526 L 3386 551 L 3396 576 L 3396 600 L 3396 622 L 3396 639 L 3396 652 L 3396 658 L 3396 660 L 3394 660 L 3389 660 L 3386 648 L 3379 632 L 3374 614 L 3369 589 L 3363 562 L 3358 534 L 3353 503 L 3351 473 L 3351 442 L 3351 414 L 3351 392 L 3366 369 L 3376 352 L 3389 339 L 3406 339 L 3427 339 L 3452 339 L 3475 339 L 3500 346 L 3522 359 L 3540 377 L 3558 399 L 3568 422 L 3568 443 L 3568 468 L 3568 488 L 3568 508" stroke="#000000" stroke-width="50.00001" fill="none" stroke-linecap="round" stroke-linejoin="round"/>
<path d="M 3694 415 L 3694 405 L 3692 405 L 3691 395 L 3686 395 L 3679 395 L 3676 380 L 3669 380 L 3666 380 L 3659 382 L 3658 389 L 3654 397 L 3653 407 L 3653 420 L 3653 433 L 3653 448 L 3653 466 L 3653 483 L 3653 499 L 3666 516 L 3666 531 L 3676 541 L 3676 549 L 3692 552 L 3702 554 L 3717 554 L 3727 554 L 3742 541 L 3758 532 L 3773 519 L 3788 503 L 3803 486 L 3818 470 L 3831 455 L 3841 440 L 3851 440 L 3859 428 L 3868 428 L 3884 432 L 3884 440 L 3894 453 L 3894 466 L 3894 484 L 3909 504 L 3909 526 L 3919 544 L 3919 565 L 3935 585 L 3947 599 L 3959 607 L 3972 610 L 3983 613 L 3998 613" stroke="#000000" stroke-width="50.00001" fill="none" stroke-linecap="round" stroke-linejoin="round"/>
<path d="M 4152 445 L 4152 445 L 4152 435 L 4152 440 L 4152 450 L 4152 465 L 4152 483 L 4160 506 L 4160 533 L 4160 561 L 4160 587 L 4160 619 L 4160 650 L 4160 678 L 4160 708 L 4159 733 L 4155 753 L 4154 766 L 4150 774 L 4145 774 L 4140 774 L 4135 774 L 4131 756 L 4126 736 L 4124 715 L 4121 688 L 4121 658 L 4121 627 L 4121 595 L 4121 564 L 4132 533 L 4144 503 L 4154 476 L 4170 457 L 4187 437 L 4207 425 L 4228 425 L 4253 425 L 4279 425 L 4306 425 L 4326 435 L 4345 452 L 4359 471 L 4359 493 L 4372 514 L 4372 539 L 4369 559 L 4355 582 L 4339 600" stroke="#000000" stroke-width="50.00001" fill="none" stroke-linecap="round" stroke-linejoin="round"/>
<path d="M 5042 199 L 5042 186 L 5050 186 L 5050 168 L 5050 154 L 5050 161 L 5050 171 L 5050 187 L 5050 209 L 5050 234 L 5050 263 L 5050 293 L 5050 326 L 5050 359 L 5050 392 L 5060 426 L 5060 455 L 5060 483 L 5060 508 L 5072 528 L 5072 541 L 5090 551 L 5098 556 L 5110 556" stroke="#000000" stroke-width="50.00001" fill="none" stroke-linecap="round" stroke-linejoin="round"/>
<path d="M 5240 439 L 5227 422 L 5215 422 L 5204 408 L 5187 408 L 5169 396 L 5152 396 L 5129 396 L 5103 396 L 5076 396 L 5043 396 L 5010 396 L 4974 398 L 4947 401" stroke="#000000" stroke-width="50.00001" fill="none" stroke-linecap="round" stroke-linejoin="round"/>
<path d="M 5230 423 L 5251 423 L 5270 410 L 5280 410 L 5280 411 L 5273 418 L 5265 426 L 5255 435 L 5250 446 L 5243 461 L 5243 473 L 5243 489 L 5243 506 L 5243 522 L 5253 535 L 5261 547 L 5276 554 L 5293 559 L 5318 560 L 5346 560 L 5374 560 L 5407 560 L 5437 542 L 5460 530 L 5483 516 L 5498 497 L 5498 478 L 5498 463 L 5498 444 L 5493 431 L 5480 431 L 5457 418 L 5428 418 L 5397 418" stroke="#000000" stroke-width="50.00001" fill="none" stroke-linecap="round" stroke-linejoin="round"/>
<path d="M 5930 317 L 5927 317 L 5925 300 L 5923 300 L 5923 305 L 5935 320 L 5935 335 L 5950 355 L 5958 377 L 5970 401 L 5983 424 L 5993 451 L 6003 474 L 6014 497 L 6023 519 L 6031 534 L 6041 544 L 6041 549 L 6059 549 L 6072 549 L 6072 532 L 6089 517 L 6089 499 L 6104 479 L 6104 466 L 6122 451 L 6130 438 L 6140 438 L 6152 424 L 6160 424 L 6170 424 L 6183 424 L 6195 426 L 6205 433 L 6213 441 L 6223 454 L 6223 466 L 6238 477 L 6238 491 L 6256 497 L 6256 502 L 6272 502 L 6284 502 L 6284 492 L 6297 482 L 6297 469 L 6310 451 L 6310 431 L 6324 411 L 6324 395 L 6333 375 L 6333 360 L 6342 348" stroke="#000000" stroke-width="50.00001" fill="none" stroke-linecap="round" stroke-linejoin="round"/>
<path d="M 6462 453 L 6462 433 L 6462 422 L 6462 410 L 6462 397 L 6472 397 L 6487 402 L 6487 407 L 6487 413 L 6502 427 L 6502 440 L 6508 456 L 6508 471 L 6522 486 L 6522 501 L 6531 516 L 6531 526 L 6531 532 L 6531 536 L 6538 536 L 6538 517 L 6538 504 L 6538 488 L 6538 470 L 6550 448 L 6550 432 L 6565 412 L 6565 398 L 6581 384 L 6593 384" stroke="#000000" stroke-width="50.00001" fill="none" stroke-linecap="round" stroke-linejoin="round"/>
<path d="M 6748 395 L 6746 380 L 6743 380 L 6740 367 L 6738 367 L 6738 375 L 6738 382 L 6738 393 L 6738 405 L 6751 418 L 6751 433 L 6761 450 L 6761 464 L 6771 478" stroke="#000000" stroke-width="50.00001" fill="none" stroke-linecap="round" stroke-linejoin="round"/>
<path d="M 6736 219 L 6729 198 L 6721 174 L 6713 159 L 6711 146 L 6705 136 L 6703 136 L 6700 136 L 6698 136" stroke="#000000" stroke-width="50.00001" fill="none" stroke-linecap="round" stroke-linejoin="round"/>
<path d="M 6930 143 L 6937 143 L 6937 130 L 6953 130 L 6963 130 L 6973 130 L 6973 131 L 6973 143 L 6973 160 L 6973 181 L 6973 204 L 6973 229 L 6973 262 L 6973 293 L 6973 325 L 6973 358 L 6973 393 L 6981 426 L 6981 457 L 6981 485 L 6993 510 L 6993 533 L 7006 550 L 7019 563 L 7033 573" stroke="#000000" stroke-width="50.00001" fill="none" stroke-linecap="round" stroke-linejoin="round"/>
<path d="M 7170 425 L 7162 425 L 7150 412 L 7135 412 L 7122 412 L 7104 412 L 7082 412 L 7059 412 L 7031 417 L 7003 422 L 6975 427" stroke="#000000" stroke-width="50.00001" fill="none" stroke-linecap="round" stroke-linejoin="round"/>
<path d="M 7238 393 L 7238 393 L 7251 378 L 7250 378 L 7246 378 L 7245 378 L 7245 380 L 7245 386 L 7245 395 L 7245 401 L 7255 408 L 7263 413 L 7278 419 L 7293 423 L 7311 424 L 7327 424 L 7350 424 L 7369 424 L 7390 424 L 7407 408 L 7418 408 L 7418 390 L 7431 390 L 7431 372 L 7431 360 L 7422 360 L 7407 360 L 7388 362 L 7365 367 L 7344 375 L 7322 386 L 7299 400 L 7283 414 L 7268 433 L 7259 454 L 7258 474 L 7258 494 L 7258 515 L 7258 534 L 7276 547 L 7293 558 L 7319 565 L 7347 568 L 7382 568" stroke="#000000" stroke-width="50.00001" fill="none" stroke-linecap="round" stroke-linejoin="round"/>
<path d="M 7874 423 L 7874 405 L 7871 395 L 7867 395 L 7867 378 L 7877 385 L 7877 393 L 7877 406 L 7891 421 L 7891 438 L 7899 456 L 7899 473 L 7910 489 L 7910 504 L 7920 519 L 7920 529 L 7934 534 L 7934 537 L 7948 537 L 7965 537 L 7975 521 L 7983 504 L 7996 489 L 8006 473 L 8016 458 L 8031 444 L 8044 435 L 8058 435 L 8071 435 L 8086 435 L 8097 435 L 8110 435 L 8120 441 L 8130 453 L 8139 464 L 8139 474 L 8157 492 L 8157 507 L 8170 522 L 8170 537 L 8182 547 L 8182 555 L 8195 560 L 8195 562 L 8215 562 L 8226 562 L 8236 562 L 8249 562" stroke="#000000" stroke-width="50.00001" fill="none" stroke-linecap="round" stroke-linejoin="round"/>
<path d="M 8362 429 L 8360 429 L 8360 411 L 8360 401 L 8357 403 L 8354 408 L 8352 419 L 8347 431 L 8342 444 L 8337 460 L 8336 475 L 8334 492 L 8334 508 L 8334 528 L 8334 543 L 8334 560 L 8347 571 L 8355 579 L 8367 584 L 8380 584 L 8395 584 L 8413 584 L 8430 584 L 8446 563 L 8461 551 L 8471 538 L 8483 523 L 8483 507 L 8483 492 L 8483 477 L 8483 465" stroke="#000000" stroke-width="50.00001" fill="none" stroke-linecap="round" stroke-linejoin="round"/>
<path d="M 8596 187 L 8616 166 L 8632 147 L 8644 134 L 8656 134 L 8670 134 L 8670 141 L 8670 161 L 8670 187 L 8665 218 L 8662 260 L 8660 301 L 8657 344 L 8654 392 L 8654 435 L 8654 476 L 8654 519" stroke="#000000" stroke-width="50.00001" fill="none" stroke-linecap="round" stroke-linejoin="round"/>
<path d="M 8744 333 L 8744 320 L 8737 320 L 8723 320 L 8708 320 L 8689 323 L 8666 328 L 8640 333 L 8612 340 L 8582 346" stroke="#000000" stroke-width="50.00001" fill="none" stroke-linecap="round" stroke-linejoin="round"/>
<path d="M 8736 305 L 8751 305 L 8764 305 L 8771 305 L 8781 305 L 8781 310 L 8781 315 L 8781 325 L 8789 333 L 8789 343 L 8802 350 L 8810 360 L 8822 366 L 8835 371 L 8848 374 L 8865 376 L 8883 376 L 8903 376 L 8920 376 L 8939 365 L 8954 365 L 8966 348 L 8976 348 L 8976 330 L 8976 310 L 8972 310 L 8964 310 L 8948 310 L 8933 310 L 8911 312 L 8891 322 L 8870 331 L 8850 345 L 8834 361 L 8820 378 L 8810 396 L 8804 414 L 8802 434 L 8802 452 L 8802 467 L 8812 482 L 8825 495 L 8842 507 L 8863 515 L 8888 523 L 8916 530 L 8948 530 L 8979 533 L 9011 533 L 9042 533" stroke="#000000" stroke-width="50.00001" fill="none" stroke-linecap="round" stroke-linejoin="round"/>
<path d="M 9294 509 L 9294 509" stroke="#000000" stroke-width="50.00001" fill="none" stroke-linecap="round" stroke-linejoin="round"/>
<path d="M 1046 2093 L 1043 2093 L 1041 2093 L 1039 2080 L 1038 2080 L 1036 2080 L 1034 2068 L 1033 2068 L 1031 2068 L 1029 2068 L 1026 2068 L 1023 2068 L 1020 2068 L 1018 2070 L 1015 2072 L 1013 2075 L 1010 2076 L 1006 2083 L 1006 2090 L 1006 2101 L 1006 2114 L 1006 2128 L 1006 2149 L 1006 2174 L 1006 2200 L 1006 2230 L 1006 2260 L 1016 2293 L 1016 2328 L 1016 2364 L 1025 2396 L 1025 2429 L 1025 2458 L 1025 2485 L 1025 2508 L 1025 2530 L 1034 2546 L 1034 2563 L 1034 2571 L 1034 2574 L 1034 2579 L 1034 2581" stroke="#000000" stroke-width="50.00001" fill="none" stroke-linecap="round" stroke-linejoin="round"/>
<path d="M 956 2177 L 953 2157 L 949 2157 L 948 2141 L 944 2141 L 943 2127 L 939 2114 L 939 2106 L 951 2091 L 961 2091 L 969 2091 L 982 2091 L 999 2091 L 1017 2091 L 1040 2091 L 1067 2093 L 1093 2098 L 1120 2106 L 1153 2114 L 1184 2122 L 1212 2137 L 1237 2154 L 1259 2174 L 1272 2192 L 1272 2213 L 1272 2235 L 1272 2253 L 1272 2276 L 1262 2298 L 1240 2316 L 1216 2334 L 1184 2347 L 1153 2362 L 1115 2374" stroke="#000000" stroke-width="50.00001" fill="none" stroke-linecap="round" stroke-linejoin="round"/>
<path d="M 1260 2401 L 1260 2401 L 1260 2383 L 1272 2383 L 1272 2368 L 1283 2368 L 1283 2355 L 1296 2355 L 1306 2355 L 1323 2355 L 1333 2356 L 1333 2363 L 1348 2373 L 1348 2386 L 1361 2403 L 1361 2419 L 1361 2439 L 1361 2457 L 1361 2474 L 1361 2490 L 1358 2504 L 1356 2512 L 1349 2518 L 1343 2520 L 1338 2520 L 1331 2520 L 1326 2520 L 1321 2508 L 1320 2499 L 1320 2484 L 1320 2465 L 1320 2446 L 1328 2427 L 1328 2406 L 1344 2386 L 1358 2371 L 1372 2355" stroke="#000000" stroke-width="50.00001" fill="none" stroke-linecap="round" stroke-linejoin="round"/>
<path d="M 1562 2425 L 1562 2427 L 1562 2428 L 1562 2433 L 1562 2437 L 1562 2440 L 1562 2443 L 1562 2450 L 1562 2458 L 1562 2468 L 1562 2476 L 1570 2486 L 1570 2499 L 1570 2509 L 1570 2523 L 1588 2534 L 1588 2542 L 1603 2547 L 1617 2554 L 1628 2556 L 1645 2556 L 1661 2556 L 1679 2556 L 1699 2541 L 1719 2541 L 1734 2518 L 1749 2504 L 1757 2489 L 1757 2473 L 1757 2458 L 1757 2442 L 1757 2432 L 1751 2432 L 1736 2415 L 1717 2415 L 1694 2415" stroke="#000000" stroke-width="50.00001" fill="none" stroke-linecap="round" stroke-linejoin="round"/>
<path d="M 1952 2205 L 1952 2205 L 1952 2188 L 1952 2179 L 1949 2179 L 1947 2179 L 1944 2179 L 1940 2180 L 1932 2187 L 1929 2203 L 1926 2222 L 1921 2245 L 1921 2273 L 1921 2306 L 1921 2339 L 1921 2377 L 1921 2415 L 1921 2453 L 1929 2498 L 1929 2536 L 1945 2574 L 1954 2607 L 1964 2637 L 1977 2661" stroke="#000000" stroke-width="50.00001" fill="none" stroke-linecap="round" stroke-linejoin="round"/>
<path d="M 2028 2451 L 2023 2441 L 2018 2441 L 2016 2430 L 2013 2430 L 2008 2430 L 2000 2430 L 1990 2434 L 1977 2441 L 1960 2449 L 1944 2459 L 1925 2469 L 1906 2481" stroke="#000000" stroke-width="50.00001" fill="none" stroke-linecap="round" stroke-linejoin="round"/>
<path d="M 2062 2469 L 2085 2457 L 2107 2457 L 2126 2459 L 2143 2464 L 2161 2474 L 2174 2484 L 2186 2497 L 2198 2510 L 2198 2527 L 2209 2543 L 2209 2560 L 2219 2573" stroke="#000000" stroke-width="50.00001" fill="none" stroke-linecap="round" stroke-linejoin="round"/>
<path d="M 2174 2411 L 2164 2386 L 2157 2368 L 2151 2347 L 2144 2332 L 2139 2318 L 2133 2318 L 2131 2307 L 2128 2307" stroke="#000000" stroke-width="50.00001" fill="none" stroke-linecap="round" stroke-linejoin="round"/>
<path d="M 2340 2373 L 2340 2373 L 2340 2360 L 2347 2360 L 2357 2360 L 2371 2360 L 2381 2360 L 2391 2365 L 2403 2370 L 2414 2375 L 2433 2378 L 2454 2380 L 2471 2381 L 2495 2381 L 2519 2381 L 2537 2381 L 2558 2381 L 2575 2368 L 2588 2368 L 2595 2352 L 2595 2333 L 2588 2318 L 2576 2318 L 2563 2318 L 2543 2318 L 2527 2327 L 2502 2335 L 2479 2345 L 2461 2361 L 2441 2376 L 2431 2396 L 2423 2418 L 2414 2441 L 2414 2462 L 2414 2485 L 2426 2507 L 2439 2527 L 2457 2542 L 2474 2558 L 2502 2570 L 2529 2576 L 2555 2583 L 2583 2590 L 2608 2590 L 2631 2590 L 2653 2590 L 2672 2590 L 2687 2571 L 2697 2571 L 2697 2550 L 2714 2538 L 2714 2527 L 2714 2514 L 2714 2505 L 2712 2489 L 2709 2489 L 2705 2489 L 2702 2476 L 2699 2476 L 2699 2477 L 2699 2482 L 2699 2485 L 2714 2490 L 2720 2495 L 2732 2497 L 2740 2497 L 2753 2497 L 2768 2497 L 2783 2497 L 2795 2497 L 2805 2480 L 2820 2480 L 2829 2466 L 2846 2446 L 2846 2433 L 2836 2419 L 2823 2419 L 2811 2421 L 2791 2426 L 2770 2431 L 2750 2437 L 2730 2444 L 2712 2452 L 2694 2466 L 2676 2477 L 2667 2494 L 2664 2507 L 2662 2519 L 2662 2533 L 2662 2547 L 2676 2560 L 2691 2570 L 2712 2578 L 2739 2590 L 2768 2595 L 2803 2600" stroke="#000000" stroke-width="50.00001" fill="none" stroke-linecap="round" stroke-linejoin="round"/>
<path d="M 258 1715 L 258 1715 L 258 1702 L 265 1702 L 275 1702 L 284 1703 L 284 1715 L 284 1727 L 284 1746 L 296 1770 L 296 1801 L 306 1836 L 306 1874 L 321 1915 L 331 1960 L 341 2009 L 352 2059 L 364 2114 L 372 2165 L 379 2214 L 392 2262 L 399 2307 L 408 2345 L 418 2378 L 418 2405 L 430 2431 L 430 2449 L 430 2467 L 430 2479 L 438 2491 L 438 2496 L 438 2499 L 438 2502 L 447 2502 L 447 2492 L 447 2477 L 447 2459 L 447 2444 L 442 2429 L 438 2408 L 435 2385 L 428 2360 L 420 2330 L 408 2299 L 397 2262 L 387 2224 L 372 2183 L 359 2143 L 344 2104 L 331 2061 L 318 2023 L 303 1983 L 291 1948 L 278 1917 L 265 1885 L 255 1859 L 246 1836 L 240 1814 L 233 1798 L 228 1786 L 225 1786 L 223 1770 L 233 1770 L 245 1770 L 258 1770 L 271 1770 L 286 1770 L 296 1770 L 311 1770 L 324 1758 L 337 1758 L 354 1746 L 372 1746 L 394 1732 L 418 1732 L 442 1720 L 471 1720 L 503 1703 L 533 1703 L 567 1690 L 599 1690 L 633 1690 L 670 1677 L 706 1677 L 743 1677 L 774 1677 L 807 1677 L 838 1677 L 872 1677 L 903 1677 L 933 1677 L 961 1677 L 992 1680 L 1025 1684 L 1062 1684 L 1095 1687 L 1129 1689 L 1164 1689 L 1204 1689 L 1240 1690 L 1278 1690 L 1321 1690 L 1359 1690 L 1401 1690 L 1440 1690 L 1483 1690 L 1525 1690 L 1563 1690 L 1602 1690 L 1640 1690 L 1680 1690 L 1717 1690 L 1751 1690 L 1788 1690 L 1822 1690 L 1857 1690 L 1890 1694 L 1923 1697 L 1955 1700 L 1991 1702 L 2024 1707 L 2060 1712 L 2092 1715 L 2130 1718 L 2161 1720 L 2191 1723 L 2223 1728 L 2254 1732 L 2284 1733 L 2315 1736 L 2345 1738 L 2376 1741 L 2406 1745 L 2434 1746 L 2461 1748 L 2487 1751 L 2514 1751 L 2540 1751 L 2568 1751 L 2598 1753 L 2628 1753 L 2661 1753 L 2689 1753 L 2719 1753 L 2748 1753 L 2778 1753 L 2805 1755 L 2831 1755 L 2858 1756 L 2881 1758 L 2901 1760 L 2922 1761 L 2940 1763 L 2957 1766 L 2972 1771 L 2983 1776 L 2995 1781 L 3005 1786 L 3011 1793 L 3011 1799 L 3028 1806 L 3038 1816 L 3046 1822 L 3056 1831 L 3064 1842 L 3064 1851 L 3081 1857 L 3089 1865 L 3101 1875 L 3111 1884 L 3117 1890 L 3127 1899 L 3135 1908 L 3145 1917 L 3145 1925 L 3160 1935 L 3160 1948 L 3175 1961 L 3175 1980 L 3187 1994 L 3187 2016 L 3200 2041 L 3200 2064 L 3210 2095 L 3210 2125 L 3210 2160 L 3220 2193 L 3220 2231 L 3220 2267 L 3220 2305 L 3220 2340 L 3220 2376 L 3230 2411 L 3230 2444 L 3230 2479 L 3230 2509 L 3230 2539 L 3230 2567 L 3230 2590 L 3240 2610 L 3240 2633 L 3240 2651 L 3253 2666 L 3253 2682 L 3259 2694 L 3259 2704 L 3273 2715 L 3273 2724 L 3273 2730 L 3273 2737 L 3273 2742 L 3273 2745 L 3273 2750 L 3266 2752 L 3256 2752 L 3241 2753 L 3220 2753 L 3195 2753 L 3170 2753 L 3139 2755 L 3109 2755 L 3071 2755 L 3033 2755 L 2995 2755 L 2953 2742 L 2912 2742 L 2867 2742 L 2824 2742 L 2783 2742 L 2737 2730 L 2695 2730 L 2654 2730 L 2609 2730 L 2568 2730 L 2523 2730 L 2477 2730 L 2434 2730 L 2385 2730 L 2338 2719 L 2287 2719 L 2239 2719 L 2186 2719 L 2138 2719 L 2085 2719 L 2034 2719 L 1979 2719 L 1925 2719 L 1874 2707 L 1819 2707 L 1766 2707 L 1715 2707 L 1660 2707 L 1612 2707 L 1558 2707 L 1508 2707 L 1460 2707 L 1411 2707 L 1363 2707 L 1313 2707 L 1270 2707 L 1225 2707 L 1181 2707 L 1139 2707 L 1100 2699 L 1062 2699 L 1024 2699 L 989 2699 L 956 2699 L 919 2699 L 890 2699 L 860 2699 L 832 2699 L 807 2699 L 782 2699 L 759 2699 L 739 2699 L 714 2699 L 695 2699 L 676 2699 L 657 2699 L 637 2699 L 622 2699 L 604 2699 L 590 2699 L 571 2699 L 559 2699 L 546 2699 L 531 2699 L 519 2699 L 504 2699 L 496 2699 L 486 2699 L 478 2699 L 466 2701 L 456 2701 L 447 2701 L 438 2701 L 435 2701 L 428 2702 L 422 2702 L 417 2702 L 410 2702 L 405 2702 L 404 2702 L 400 2702 L 399 2702 L 397 2702 L 407 2702 L 417 2702" stroke="#000000" stroke-width="50.00001" fill="none" stroke-linecap="round" stroke-linejoin="round"/>
<path d="M 1008 3159 L 1008 3146 L 1005 3146 L 993 3146 L 983 3146 L 967 3146 L 947 3146 L 924 3154 L 899 3162 L 872 3176 L 843 3194 L 816 3214 L 786 3238 L 763 3263 L 742 3293 L 722 3321 L 707 3354 L 694 3382 L 684 3414 L 684 3438 L 684 3465 L 684 3486 L 699 3505 L 712 3518 L 732 3526 L 758 3529 L 786 3529 L 819 3529 L 853 3516 L 891 3505 L 925 3493 L 960 3477 L 993 3462 L 1028 3445" stroke="#000000" stroke-width="50.00001" fill="none" stroke-linecap="round" stroke-linejoin="round"/>
<path d="M 1114 3465 L 1114 3450 L 1109 3450 L 1106 3450 L 1101 3450 L 1094 3450 L 1086 3450 L 1079 3450 L 1074 3450 L 1068 3457 L 1064 3467 L 1058 3477 L 1058 3486 L 1058 3498 L 1069 3510 L 1069 3520 L 1078 3531 L 1088 3538 L 1102 3539 L 1117 3541 L 1137 3541 L 1159 3541 L 1178 3541 L 1198 3521 L 1218 3510 L 1235 3496 L 1246 3482 L 1246 3467 L 1258 3450 L 1258 3435 L 1255 3420 L 1246 3409 L 1233 3409 L 1217 3397" stroke="#000000" stroke-width="50.00001" fill="none" stroke-linecap="round" stroke-linejoin="round"/>
<path d="M 1148 3431 L 1168 3431 L 1186 3418 L 1206 3418 L 1224 3418 L 1234 3418 L 1247 3418 L 1260 3418 L 1270 3419 L 1270 3429 L 1285 3441 L 1285 3452 L 1297 3469 L 1297 3484 L 1307 3502 L 1307 3517" stroke="#000000" stroke-width="50.00001" fill="none" stroke-linecap="round" stroke-linejoin="round"/>
<path d="M 1400 3345 L 1388 3345 L 1374 3332 L 1362 3332 L 1349 3332 L 1339 3332 L 1331 3332 L 1326 3332 L 1322 3332 L 1322 3335 L 1322 3338 L 1322 3342 L 1334 3343 L 1342 3347 L 1357 3348 L 1374 3348 L 1395 3348 L 1421 3348 L 1446 3348 L 1476 3333 L 1507 3333 L 1537 3310 L 1564 3295 L 1587 3282 L 1608 3264 L 1622 3247 L 1630 3231 L 1630 3219 L 1630 3208 L 1625 3195 L 1613 3195 L 1593 3195 L 1570 3204 L 1547 3218 L 1522 3231 L 1499 3254 L 1479 3279 L 1461 3305 L 1448 3337 L 1443 3366 L 1443 3390 L 1443 3421 L 1443 3449 L 1464 3479 L 1483 3504 L 1503 3527 L 1531 3543 L 1560 3558 L 1590 3570 L 1620 3577 L 1646 3581 L 1671 3581 L 1691 3581 L 1706 3581" stroke="#000000" stroke-width="50.00001" fill="none" stroke-linecap="round" stroke-linejoin="round"/>
<path d="M 1724 3493 L 1716 3475 L 1704 3462 L 1693 3447 L 1684 3435 L 1673 3435 L 1663 3419 L 1655 3419 L 1650 3419 L 1641 3419 L 1640 3419 L 1638 3420 L 1638 3425 L 1638 3429 L 1638 3435 L 1655 3442 L 1655 3447 L 1671 3452 L 1684 3457 L 1698 3460 L 1714 3460 L 1731 3460 L 1750 3460 L 1767 3460 L 1790 3442 L 1812 3442 L 1830 3422 L 1850 3410 L 1865 3399 L 1881 3386 L 1889 3374 L 1889 3364 L 1904 3364 L 1904 3351 L 1899 3351 L 1893 3352 L 1883 3359 L 1873 3372 L 1855 3386 L 1840 3405 L 1823 3425 L 1810 3447 L 1797 3470 L 1787 3493 L 1780 3516 L 1777 3539 L 1777 3557 L 1777 3574 L 1777 3591 L 1788 3602 L 1802 3610 L 1817 3614 L 1835 3614 L 1856 3614 L 1881 3614 L 1901 3600 L 1924 3589 L 1947 3574 L 1965 3559 L 1984 3541 L 2000 3521 L 2013 3503 L 2022 3488 L 2033 3470 L 2033 3452 L 2048 3437 L 2048 3425 L 2056 3412 L 2056 3417 L 2068 3425 L 2068 3433 L 2068 3445 L 2080 3457 L 2080 3472 L 2094 3485 L 2104 3498 L 2116 3510 L 2127 3521 L 2139 3533 L 2149 3538 L 2159 3539 L 2170 3539 L 2180 3539 L 2189 3539 L 2199 3521 L 2199 3511 L 2210 3496 L 2210 3483 L 2223 3468 L 2223 3453 L 2233 3443 L 2233 3429 L 2243 3429 L 2243 3430 L 2243 3433 L 2253 3440 L 2253 3452 L 2253 3467 L 2253 3483 L 2253 3501 L 2266 3519" stroke="#000000" stroke-width="50.00001" fill="none" stroke-linecap="round" stroke-linejoin="round"/>
<path d="M 2364 3473 L 2364 3456 L 2359 3456 L 2352 3445 L 2347 3445 L 2341 3445 L 2336 3448 L 2333 3455 L 2328 3465 L 2326 3473 L 2321 3481 L 2321 3493 L 2321 3504 L 2321 3516 L 2321 3531 L 2336 3542 L 2343 3554 L 2357 3564 L 2371 3572 L 2389 3576 L 2407 3577 L 2430 3577 L 2452 3577 L 2475 3577 L 2498 3561 L 2521 3561 L 2536 3541 L 2546 3528 L 2546 3513 L 2557 3499 L 2557 3486 L 2557 3476 L 2556 3476 L 2546 3463 L 2533 3463 L 2513 3463 L 2490 3463" stroke="#000000" stroke-width="50.00001" fill="none" stroke-linecap="round" stroke-linejoin="round"/>
<path d="M 2426 3277 L 2441 3259 L 2441 3242 L 2441 3229 L 2451 3229 L 2451 3221 L 2461 3221 L 2461 3224 L 2471 3231 L 2471 3252 L 2487 3274 L 2495 3295 L 2504 3322 L 2514 3351 L 2529 3381 L 2537 3413 L 2552 3442 L 2565 3472" stroke="#000000" stroke-width="50.00001" fill="none" stroke-linecap="round" stroke-linejoin="round"/>
<path d="M 2716 3473 L 2716 3461 L 2714 3445 L 2709 3445 L 2708 3445 L 2704 3448 L 2703 3455 L 2703 3465 L 2703 3476 L 2703 3490 L 2703 3503 L 2714 3518 L 2714 3534 L 2724 3547 L 2724 3561 L 2734 3571 L 2734 3576 L 2751 3579 L 2761 3579 L 2771 3579 L 2784 3579 L 2794 3567 L 2805 3557 L 2817 3542 L 2830 3526 L 2838 3508 L 2838 3493 L 2850 3478 L 2850 3465 L 2850 3450 L 2847 3450 L 2838 3440 L 2830 3440 L 2817 3440 L 2800 3440" stroke="#000000" stroke-width="50.00001" fill="none" stroke-linecap="round" stroke-linejoin="round"/>
<path d="M 2798 3477 L 2810 3465 L 2819 3465 L 2829 3449 L 2843 3449 L 2853 3449 L 2853 3456 L 2853 3467 L 2864 3480 L 2864 3497 L 2864 3515 L 2879 3533 L 2887 3553 L 2897 3571 L 2909 3589" stroke="#000000" stroke-width="50.00001" fill="none" stroke-linecap="round" stroke-linejoin="round"/>
<path d="M 3044 3473 L 3044 3455 L 3044 3442 L 3044 3430 L 3052 3430 L 3052 3433 L 3052 3442 L 3061 3453 L 3061 3468 L 3074 3483 L 3074 3498 L 3090 3514 L 3100 3531 L 3100 3546 L 3115 3559 L 3115 3569 L 3127 3574 L 3127 3561 L 3127 3547 L 3127 3531 L 3127 3509 L 3127 3486 L 3127 3463 L 3127 3438 L 3127 3417 L 3138 3399 L 3138 3382" stroke="#000000" stroke-width="50.00001" fill="none" stroke-linecap="round" stroke-linejoin="round"/>
<path d="M 4494 1973 L 4492 1960 L 4492 1961 L 4492 1968 L 4492 1980 L 4504 1994 L 4504 2018 L 4514 2042 L 4514 2064 L 4530 2097 L 4530 2128 L 4545 2165 L 4545 2200 L 4560 2234 L 4560 2269 L 4570 2302 L 4570 2329 L 4570 2353 L 4580 2372 L 4580 2385 L 4580 2393 L 4580 2398 L 4578 2398 L 4575 2398 L 4570 2398 L 4567 2380 L 4563 2368 L 4557 2350 L 4552 2332 L 4547 2310 L 4544 2287 L 4540 2259 L 4539 2234 L 4539 2206 L 4539 2178 L 4539 2150 L 4539 2120 L 4554 2095 L 4565 2072 L 4577 2049 L 4597 2036 L 4621 2023 L 4649 2023 L 4683 2023 L 4714 2023 L 4745 2023 L 4773 2037 L 4800 2056 L 4821 2080 L 4835 2110 L 4835 2142 L 4843 2175 L 4843 2208 L 4838 2244 L 4830 2276 L 4808 2304" stroke="#000000" stroke-width="50.00001" fill="none" stroke-linecap="round" stroke-linejoin="round"/>
<path d="M 4952 2393 L 4952 2376 L 4952 2365 L 4952 2352 L 4952 2338 L 4962 2338 L 4962 2342 L 4972 2348 L 4972 2362 L 4982 2376 L 4982 2393 L 4982 2410 L 4982 2431 L 4990 2449 L 4990 2467 L 4990 2484 L 4988 2500 L 4987 2509 L 4985 2514 L 4982 2515 L 4975 2515 L 4969 2515 L 4965 2499 L 4959 2484 L 4957 2464 L 4957 2441 L 4957 2414 L 4957 2386 L 4965 2360 L 4965 2333 L 4983 2310 L 4993 2289 L 5007 2274 L 5021 2262" stroke="#000000" stroke-width="50.00001" fill="none" stroke-linecap="round" stroke-linejoin="round"/>
<path d="M 4732 2221 L 4742 2221 L 4742 2209 L 4752 2209 L 4760 2209 L 4768 2209 L 4768 2213 L 4780 2216 L 4780 2221 L 4780 2229 L 4780 2236 L 4780 2242 L 4780 2247 L 4780 2256 L 4780 2267 L 4780 2276 L 4775 2284 L 4770 2292 L 4763 2304 L 4752 2312 L 4739 2322 L 4725 2332 L 4707 2338 L 4689 2343 L 4666 2347 L 4641 2350 L 4618 2355 L 4595 2357 L 4570 2357 L 4547 2360 L 4527 2360 L 4504 2360 L 4487 2360 L 4472 2360 L 4459 2360 L 4448 2360 L 4443 2360" stroke="#000000" stroke-width="50.00001" fill="none" stroke-linecap="round" stroke-linejoin="round"/>
<path d="M 4512 2329 L 4512 2329 L 4520 2329 L 4520 2317 L 4532 2317 L 4540 2317 L 4540 2322 L 4540 2331 L 4540 2341 L 4540 2350 L 4550 2365 L 4550 2377 L 4550 2393 L 4550 2410 L 4560 2428 L 4560 2445 L 4560 2463 L 4560 2479 L 4572 2496 L 4572 2508 L 4572 2522 L 4572 2532 L 4572 2539 L 4580 2544 L 4580 2546" stroke="#000000" stroke-width="50.00001" fill="none" stroke-linecap="round" stroke-linejoin="round"/>
<path d="M 5162 2333 L 5162 2320 L 5162 2310 L 5160 2310 L 5157 2310 L 5154 2310 L 5152 2310 L 5147 2312 L 5145 2318 L 5141 2325 L 5137 2336 L 5137 2348 L 5137 2363 L 5137 2376 L 5137 2388 L 5137 2404 L 5152 2419 L 5152 2436 L 5162 2445 L 5175 2459 L 5187 2467 L 5200 2470 L 5217 2474 L 5230 2474 L 5250 2474 L 5269 2474 L 5286 2460 L 5303 2449 L 5314 2439 L 5326 2426 L 5326 2411 L 5326 2396 L 5326 2381 L 5326 2369 L 5326 2358 L 5317 2358 L 5304 2345 L 5286 2345" stroke="#000000" stroke-width="50.00001" fill="none" stroke-linecap="round" stroke-linejoin="round"/>
<path d="M 5446 2377 L 5444 2377 L 5443 2365 L 5439 2365 L 5438 2349 L 5436 2349 L 5433 2349 L 5431 2336 L 5428 2336 L 5426 2336 L 5426 2341 L 5426 2352 L 5426 2365 L 5426 2377 L 5426 2397 L 5438 2413 L 5438 2432 L 5438 2445 L 5448 2465 L 5448 2483 L 5456 2503 L 5456 2519 L 5456 2536 L 5469 2549 L 5469 2561 L 5479 2569 L 5479 2574 L 5479 2577 L 5487 2580 L 5487 2582 L 5487 2584 L 5487 2587 L 5487 2589 L 5487 2590 L 5496 2594 L 5496 2597 L 5496 2602 L 5496 2609 L 5496 2615 L 5496 2625 L 5496 2633 L 5496 2640 L 5496 2653 L 5491 2663 L 5489 2673 L 5487 2683 L 5481 2693 L 5477 2699 L 5469 2704 L 5459 2706 L 5451 2708 L 5441 2709 L 5428 2709 L 5418 2709 L 5405 2709 L 5393 2699 L 5385 2699 L 5378 2680 L 5375 2666 L 5372 2653 L 5372 2638 L 5372 2622 L 5372 2602 L 5382 2584 L 5390 2569 L 5401 2551 L 5416 2532 L 5431 2516 L 5448 2503 L 5467 2489 L 5482 2489" stroke="#000000" stroke-width="50.00001" fill="none" stroke-linecap="round" stroke-linejoin="round"/>
<path d="M 5630 2469 L 5628 2469 L 5625 2457 L 5622 2457 L 5618 2444 L 5615 2444 L 5612 2436 L 5620 2436 L 5635 2436 L 5645 2436 L 5656 2426 L 5671 2426 L 5685 2426 L 5698 2426 L 5713 2411 L 5728 2411 L 5736 2411 L 5736 2398 L 5744 2398 L 5744 2386 L 5741 2386 L 5734 2386 L 5719 2386 L 5708 2391 L 5691 2398 L 5671 2406 L 5653 2416 L 5633 2428 L 5618 2441 L 5605 2456 L 5595 2471 L 5587 2486 L 5587 2504 L 5587 2517 L 5587 2532 L 5587 2543 L 5602 2555 L 5617 2562 L 5632 2567 L 5653 2568 L 5673 2568 L 5696 2568 L 5719 2568 L 5744 2557 L 5764 2557 L 5787 2537 L 5807 2522 L 5823 2507 L 5842 2490 L 5857 2472 L 5871 2452 L 5883 2438 L 5893 2424 L 5893 2408 L 5908 2396 L 5919 2380 L 5918 2383 L 5913 2388 L 5909 2398 L 5906 2409 L 5901 2426 L 5900 2439 L 5896 2451 L 5893 2467 L 5890 2482 L 5888 2499 L 5888 2510 L 5888 2524 L 5888 2533 L 5888 2542 L 5898 2547 L 5898 2550 L 5918 2553 L 5929 2553 L 5943 2553 L 5959 2553 L 5981 2540" stroke="#000000" stroke-width="50.00001" fill="none" stroke-linecap="round" stroke-linejoin="round"/>
<path d="M 6172 2245 L 6169 2233 L 6164 2233 L 6159 2215 L 6157 2215 L 6155 2215 L 6154 2215 L 6152 2217 L 6152 2232 L 6152 2248 L 6152 2273 L 6152 2301 L 6152 2333 L 6152 2367 L 6162 2402 L 6162 2438 L 6162 2473 L 6162 2508 L 6162 2541" stroke="#000000" stroke-width="50.00001" fill="none" stroke-linecap="round" stroke-linejoin="round"/>
<path d="M 6284 2477 L 6296 2464 L 6296 2451 L 6296 2441 L 6296 2427 L 6291 2427 L 6279 2427 L 6264 2427 L 6246 2427 L 6223 2427 L 6198 2427 L 6172 2427 L 6145 2427 L 6120 2429" stroke="#000000" stroke-width="50.00001" fill="none" stroke-linecap="round" stroke-linejoin="round"/>
<path d="M 6418 2419 L 6443 2401 L 6459 2401 L 6473 2381 L 6479 2381 L 6479 2368 L 6479 2353 L 6478 2353 L 6471 2343 L 6459 2343 L 6449 2345 L 6441 2346 L 6435 2350 L 6426 2355 L 6423 2363 L 6420 2371 L 6420 2379 L 6420 2389 L 6420 2402 L 6436 2412 L 6436 2427 L 6454 2440 L 6473 2452 L 6491 2469 L 6512 2483 L 6535 2498 L 6552 2515 L 6565 2533 L 6575 2548 L 6575 2566 L 6575 2576 L 6575 2589 L 6575 2599 L 6567 2608 L 6552 2616 L 6535 2622 L 6521 2626" stroke="#000000" stroke-width="50.00001" fill="none" stroke-linecap="round" stroke-linejoin="round"/>
<path d="M 4562 3011 L 4562 3011 L 4562 3021 L 4562 3032 L 4562 3051 L 4570 3071 L 4570 3097 L 4570 3132 L 4570 3168 L 4570 3209 L 4579 3249 L 4579 3294 L 4579 3335 L 4579 3378 L 4579 3419 L 4579 3459 L 4579 3494 L 4579 3527 L 4579 3553 L 4579 3575 L 4579 3588 L 4579 3596" stroke="#000000" stroke-width="50.00001" fill="none" stroke-linecap="round" stroke-linejoin="round"/>
<path d="M 4698 3383 L 4698 3383 L 4696 3363 L 4695 3363 L 4695 3343 L 4695 3330 L 4705 3330 L 4721 3330 L 4734 3330 L 4751 3333 L 4764 3342 L 4776 3350 L 4794 3363 L 4805 3376 L 4819 3388 L 4830 3406 L 4840 3421 L 4850 3434 L 4850 3444 L 4850 3452 L 4858 3459 L 4858 3438 L 4858 3424 L 4858 3409 L 4858 3395 L 4868 3376 L 4868 3365 L 4882 3352 L 4898 3338 L 4923 3338 L 4938 3342 L 4956 3352 L 4969 3362 L 4982 3376 L 4992 3391 L 5006 3411 L 5016 3431 L 5024 3449 L 5024 3471 L 5037 3486" stroke="#000000" stroke-width="50.00001" fill="none" stroke-linecap="round" stroke-linejoin="round"/>
<path d="M 5182 3135 L 5182 3122 L 5194 3122 L 5205 3125 L 5205 3140 L 5217 3161 L 5217 3185 L 5227 3214 L 5227 3247 L 5240 3284 L 5240 3322 L 5256 3362 L 5266 3403 L 5278 3443 L 5286 3482 L 5286 3515 L 5298 3548 L 5308 3573" stroke="#000000" stroke-width="50.00001" fill="none" stroke-linecap="round" stroke-linejoin="round"/>
<path d="M 5382 3403 L 5382 3390 L 5379 3390 L 5374 3378 L 5367 3378 L 5356 3378 L 5347 3378 L 5331 3378 L 5314 3382 L 5293 3385 L 5270 3388 L 5241 3390 L 5213 3393 L 5184 3396" stroke="#000000" stroke-width="50.00001" fill="none" stroke-linecap="round" stroke-linejoin="round"/>
<path d="M 5378 3393 L 5401 3393 L 5418 3380 L 5431 3380 L 5441 3380 L 5449 3380 L 5459 3370 L 5474 3370 L 5474 3372 L 5484 3373 L 5484 3376 L 5499 3380 L 5510 3381 L 5522 3383 L 5537 3383 L 5553 3383 L 5571 3383 L 5590 3383 L 5610 3383 L 5626 3370 L 5641 3370 L 5651 3358 L 5662 3342 L 5662 3324 L 5654 3324 L 5644 3324 L 5631 3324 L 5613 3324 L 5590 3324 L 5565 3324 L 5542 3332 L 5520 3343 L 5497 3357 L 5481 3370 L 5469 3385 L 5459 3403 L 5456 3419 L 5456 3436 L 5456 3453 L 5456 3467 L 5476 3481 L 5489 3491 L 5507 3499 L 5530 3504 L 5552 3507 L 5571 3507 L 5595 3507 L 5614 3507 L 5631 3507 L 5646 3489 L 5659 3479 L 5669 3466 L 5669 3449 L 5679 3434 L 5679 3421 L 5679 3408 L 5679 3396 L 5679 3380 L 5687 3380 L 5687 3383 L 5687 3390 L 5687 3403 L 5697 3418 L 5697 3431 L 5709 3448 L 5709 3466 L 5709 3482 L 5720 3496 L 5720 3507 L 5732 3517 L 5732 3522 L 5732 3527 L 5742 3527 L 5742 3509 L 5742 3494 L 5750 3477 L 5750 3457 L 5750 3438 L 5765 3418 L 5765 3398 L 5781 3378" stroke="#000000" stroke-width="50.00001" fill="none" stroke-linecap="round" stroke-linejoin="round"/>
<path d="M 5952 3441 L 5942 3441 L 5934 3441 L 5926 3424 L 5917 3424 L 5904 3424 L 5897 3424 L 5889 3424 L 5884 3424 L 5879 3431 L 5874 3434 L 5874 3441 L 5874 3451 L 5874 3462 L 5874 3476 L 5874 3492 L 5889 3504 L 5901 3515 L 5917 3527 L 5931 3537 L 5947 3544 L 5964 3547 L 5985 3547 L 6005 3547 L 6026 3547 L 6050 3547 L 6066 3532 L 6079 3532 L 6091 3510 L 6091 3497 L 6091 3486 L 6091 3472 L 6083 3451 L 6071 3451 L 6053 3436 L 6031 3436" stroke="#000000" stroke-width="50.00001" fill="none" stroke-linecap="round" stroke-linejoin="round"/>
<path d="M 6080 3471 L 6097 3471 L 6111 3454 L 6123 3454 L 6123 3438 L 6136 3438 L 6136 3428 L 6136 3431 L 6135 3438 L 6133 3446 L 6133 3456 L 6133 3469 L 6133 3483 L 6146 3497 L 6146 3511 L 6161 3527 L 6173 3540 L 6189 3550" stroke="#000000" stroke-width="50.00001" fill="none" stroke-linecap="round" stroke-linejoin="round"/>
<path d="M 6414 3337 L 6414 3337 L 6414 3325 L 6412 3325 L 6411 3325 L 6409 3325 L 6407 3325 L 6402 3325 L 6399 3325 L 6393 3330 L 6386 3337 L 6378 3345 L 6369 3357 L 6356 3368 L 6343 3382 L 6333 3398 L 6320 3413 L 6310 3428 L 6298 3443 L 6290 3461 L 6283 3476 L 6280 3492 L 6280 3504 L 6280 3516 L 6280 3527 L 6293 3534 L 6307 3540 L 6320 3544 L 6341 3547 L 6359 3547 L 6386 3547 L 6414 3547 L 6444 3547 L 6472 3535 L 6502 3535" stroke="#000000" stroke-width="50.00001" fill="none" stroke-linecap="round" stroke-linejoin="round"/>
<path d="M 6596 3087 L 6596 3057 L 6606 3032 L 6606 3014 L 6606 2998 L 6614 2998 L 6614 3011 L 6614 3031 L 6624 3062 L 6624 3097 L 6624 3143 L 6637 3188 L 6637 3241 L 6651 3294 L 6651 3347 L 6665 3401 L 6665 3447 L 6677 3492 L 6677 3529 L 6687 3557" stroke="#000000" stroke-width="50.00001" fill="none" stroke-linecap="round" stroke-linejoin="round"/>
<path d="M 6718 3401 L 6718 3383 L 6718 3368 L 6718 3355 L 6716 3355 L 6708 3343 L 6697 3343 L 6682 3343 L 6663 3333 L 6640 3333 L 6614 3333 L 6587 3335 L 6559 3337 L 6534 3340 L 6506 3345 L 6483 3348" stroke="#000000" stroke-width="50.00001" fill="none" stroke-linecap="round" stroke-linejoin="round"/>
<path d="M 6840 3327 L 6858 3317 L 6866 3317 L 6875 3317 L 6890 3320 L 6890 3324 L 6890 3334 L 6890 3347 L 6898 3358 L 6898 3375 L 6898 3391 L 6898 3410 L 6898 3425 L 6908 3444 L 6908 3463 L 6908 3477" stroke="#000000" stroke-width="50.00001" fill="none" stroke-linecap="round" stroke-linejoin="round"/>
<path d="M 6910 3249 L 6902 3219 L 6897 3189 L 6890 3163 L 6880 3138 L 6872 3118 L 6865 3102 L 6859 3094 L 6855 3094 L 6852 3094" stroke="#000000" stroke-width="50.00001" fill="none" stroke-linecap="round" stroke-linejoin="round"/>
<path d="M 7084 3291 L 7084 3293 L 7094 3301 L 7094 3306 L 7094 3314 L 7094 3322 L 7094 3334 L 7094 3346 L 7094 3359 L 7094 3369 L 7094 3384 L 7094 3400 L 7094 3417 L 7105 3435 L 7105 3451 L 7122 3471 L 7134 3488 L 7144 3499 L 7157 3509 L 7172 3514 L 7188 3516 L 7201 3516 L 7220 3516 L 7236 3516 L 7251 3504 L 7259 3494 L 7259 3481 L 7259 3466 L 7259 3448 L 7259 3432 L 7254 3415 L 7238 3402 L 7221 3389 L 7201 3389 L 7183 3374" stroke="#000000" stroke-width="50.00001" fill="none" stroke-linecap="round" stroke-linejoin="round"/>
<path d="M 7310 3395 L 7310 3378 L 7325 3365 L 7325 3352 L 7325 3340 L 7331 3340 L 7331 3324 L 7331 3327 L 7331 3335 L 7343 3345 L 7343 3359 L 7353 3372 L 7353 3387 L 7370 3403 L 7381 3420 L 7391 3438 L 7404 3455 L 7416 3471 L 7426 3484 L 7439 3496 L 7449 3506 L 7449 3514 L 7462 3519 L 7462 3521 L 7474 3521 L 7474 3504 L 7484 3494 L 7484 3479 L 7484 3464 L 7484 3445 L 7484 3425 L 7484 3408 L 7492 3392 L 7492 3377 L 7505 3367 L 7512 3367 L 7522 3367 L 7530 3367 L 7543 3367 L 7553 3367 L 7553 3378 L 7571 3397 L 7580 3415 L 7580 3436 L 7593 3461 L 7593 3484 L 7606 3509 L 7606 3534 L 7614 3557" stroke="#000000" stroke-width="50.00001" fill="none" stroke-linecap="round" stroke-linejoin="round"/>
<path d="M 7704 3315 L 7704 3294 L 7704 3277 L 7704 3262 L 7714 3262 L 7709 3247 L 7707 3247 L 7704 3247 L 7699 3247 L 7689 3247 L 7683 3249 L 7674 3254 L 7666 3262 L 7656 3269 L 7651 3280 L 7649 3292 L 7646 3305 L 7644 3318 L 7644 3332 L 7644 3345 L 7644 3358 L 7644 3373 L 7659 3388 L 7673 3406 L 7687 3421 L 7706 3437 L 7722 3456 L 7739 3477 L 7754 3495 L 7767 3512 L 7767 3532 L 7767 3548 L 7767 3563 L 7767 3576 L 7762 3593 L 7745 3598 L 7725 3601 L 7706 3603 L 7679 3604" stroke="#000000" stroke-width="50.00001" fill="none" stroke-linecap="round" stroke-linejoin="round"/>
<path d="M 4498 4057 L 4498 4057 L 4498 4045 L 4498 4047 L 4498 4049 L 4498 4050 L 4498 4052 L 4505 4054 L 4505 4055 L 4505 4059 L 4505 4060 L 4505 4062 L 4505 4065 L 4505 4069 L 4505 4072 L 4505 4080 L 4505 4088 L 4505 4100 L 4505 4118 L 4513 4135 L 4513 4158 L 4513 4186 L 4513 4216 L 4524 4249 L 4524 4282 L 4524 4318 L 4536 4353 L 4536 4391 L 4536 4424 L 4548 4457 L 4548 4487 L 4548 4515 L 4548 4542 L 4558 4565 L 4558 4583 L 4558 4601 L 4558 4613 L 4558 4628 L 4558 4637 L 4567 4647 L 4567 4657 L 4567 4664" stroke="#000000" stroke-width="50.00001" fill="none" stroke-linecap="round" stroke-linejoin="round"/>
<path d="M 4628 4347 L 4623 4329 L 4616 4329 L 4611 4311 L 4610 4311 L 4608 4296 L 4618 4296 L 4630 4296 L 4636 4299 L 4648 4314 L 4661 4329 L 4673 4345 L 4686 4367 L 4697 4387 L 4706 4408 L 4714 4428 L 4726 4450 L 4726 4469 L 4737 4484 L 4737 4497 L 4737 4504 L 4737 4507 L 4744 4507 L 4744 4486 L 4744 4474 L 4744 4453 L 4757 4433 L 4757 4411 L 4767 4393 L 4767 4375 L 4777 4360 L 4787 4360 L 4800 4350 L 4815 4350 L 4830 4350 L 4840 4355 L 4856 4368 L 4869 4382 L 4883 4402 L 4893 4420 L 4903 4445 L 4914 4471 L 4924 4494 L 4932 4517 L 4932 4540 L 4949 4555 L 4949 4570 L 4960 4582 L 4960 4587 L 4972 4590" stroke="#000000" stroke-width="50.00001" fill="none" stroke-linecap="round" stroke-linejoin="round"/>
<path d="M 5144 4027 L 5141 4017 L 5136 4017 L 5131 4017 L 5126 4017 L 5119 4024 L 5109 4037 L 5094 4057 L 5084 4082 L 5070 4105 L 5055 4139 L 5043 4174 L 5032 4216 L 5023 4260 L 5017 4308 L 5013 4356 L 5012 4406 L 5012 4454 L 5012 4502 L 5012 4550 L 5023 4598 L 5032 4641 L 5045 4682 L 5058 4720 L 5071 4755" stroke="#000000" stroke-width="50.00001" fill="none" stroke-linecap="round" stroke-linejoin="round"/>
<path d="M 5150 4563 L 5150 4550 L 5148 4550 L 5148 4532 L 5147 4532 L 5145 4513 L 5135 4513 L 5127 4499 L 5112 4499 L 5097 4499 L 5082 4487 L 5064 4487 L 5046 4487 L 5029 4487 L 5014 4490" stroke="#000000" stroke-width="50.00001" fill="none" stroke-linecap="round" stroke-linejoin="round"/>
<path d="M 5226 4521 L 5238 4509 L 5238 4498 L 5251 4486 L 5251 4471 L 5251 4475 L 5251 4481 L 5251 4491 L 5261 4504 L 5261 4513 L 5276 4528 L 5284 4539 L 5295 4549 L 5309 4557 L 5322 4564 L 5340 4564 L 5357 4564 L 5376 4564 L 5391 4564 L 5408 4544 L 5418 4533 L 5418 4518 L 5418 4501 L 5418 4483 L 5418 4470 L 5408 4455 L 5391 4443 L 5375 4443" stroke="#000000" stroke-width="50.00001" fill="none" stroke-linecap="round" stroke-linejoin="round"/>
<path d="M 5476 4441 L 5476 4424 L 5489 4411 L 5489 4400 L 5489 4385 L 5489 4375 L 5497 4375 L 5497 4362 L 5497 4363 L 5507 4370 L 5507 4380 L 5522 4391 L 5532 4411 L 5544 4428 L 5554 4448 L 5565 4471 L 5577 4489 L 5588 4509 L 5600 4525 L 5608 4542 L 5608 4550 L 5620 4557 L 5620 4562 L 5631 4562 L 5631 4548 L 5641 4537 L 5641 4519 L 5641 4499 L 5653 4477 L 5653 4456 L 5669 4436 L 5681 4418" stroke="#000000" stroke-width="50.00001" fill="none" stroke-linecap="round" stroke-linejoin="round"/>
<path d="M 5830 4453 L 5823 4443 L 5820 4443 L 5815 4443 L 5828 4448 L 5828 4455 L 5843 4466 L 5856 4474 L 5866 4486 L 5878 4499 L 5886 4511 L 5898 4522 L 5909 4531 L 5923 4537 L 5933 4539 L 5946 4539 L 5957 4539 L 5967 4539 L 5977 4524 L 5989 4513 L 5989 4501 L 6004 4486 L 6004 4473 L 6019 4460 L 6033 4445 L 6048 4445 L 6057 4445 L 6057 4451 L 6070 4460 L 6070 4471 L 6080 4481 L 6080 4496 L 6080 4508 L 6090 4517 L 6090 4527 L 6100 4532 L 6100 4534 L 6109 4534 L 6119 4534 L 6119 4517 L 6131 4504 L 6131 4489 L 6144 4474 L 6144 4465 L 6156 4465 L 6156 4446 L 6176 4446 L 6186 4446 L 6194 4446 L 6207 4446 L 6214 4453 L 6224 4465 L 6233 4474 L 6243 4488 L 6253 4504 L 6260 4521 L 6273 4537 L 6281 4549" stroke="#000000" stroke-width="50.00001" fill="none" stroke-linecap="round" stroke-linejoin="round"/>
<path d="M 6746 4385 L 6741 4375 L 6736 4364 L 6733 4354 L 6726 4354 L 6715 4342 L 6701 4342 L 6686 4342 L 6673 4345 L 6657 4349 L 6642 4357 L 6627 4367 L 6612 4380 L 6604 4397 L 6594 4413 L 6589 4436 L 6587 4459 L 6587 4484 L 6587 4509 L 6587 4535 L 6604 4557 L 6619 4578 L 6639 4595 L 6658 4607 L 6680 4613 L 6708 4618 L 6736 4618 L 6761 4618" stroke="#000000" stroke-width="50.00001" fill="none" stroke-linecap="round" stroke-linejoin="round"/>
<path d="M 6910 4441 L 6905 4441 L 6900 4431 L 6897 4431 L 6890 4431 L 6884 4431 L 6877 4431 L 6870 4431 L 6865 4431 L 6859 4431 L 6850 4433 L 6846 4439 L 6842 4446 L 6837 4456 L 6837 4467 L 6837 4476 L 6837 4487 L 6849 4501 L 6849 4510 L 6864 4520 L 6875 4530 L 6892 4537 L 6908 4540 L 6930 4542 L 6951 4542 L 6971 4542 L 6993 4542 L 7006 4529 L 7017 4517 L 7017 4505 L 7017 4492 L 7017 4479 L 7017 4467 L 7011 4454 L 6998 4454 L 6981 4436" stroke="#000000" stroke-width="50.00001" fill="none" stroke-linecap="round" stroke-linejoin="round"/>
<path d="M 7072 4485 L 7087 4473 L 7102 4459 L 7117 4444 L 7127 4432 L 7135 4419 L 7155 4406 L 7168 4406 L 7183 4412 L 7183 4422 L 7193 4437 L 7193 4450 L 7204 4468 L 7204 4483 L 7216 4502 L 7216 4518 L 7216 4535 L 7229 4546 L 7229 4556 L 7241 4563 L 7251 4563 L 7259 4548 L 7259 4535 L 7272 4518 L 7272 4502 L 7292 4487 L 7292 4473 L 7310 4459 L 7322 4459 L 7330 4445 L 7342 4445 L 7351 4445 L 7361 4445 L 7373 4452 L 7383 4460 L 7383 4472 L 7394 4485 L 7394 4500 L 7406 4515 L 7406 4531 L 7406 4543 L 7418 4553 L 7418 4561 L 7418 4564 L 7428 4566 L 7439 4566 L 7451 4545 L 7464 4528 L 7474 4528 L 7482 4508 L 7492 4508 L 7505 4508 L 7515 4508 L 7522 4508 L 7532 4508 L 7545 4515 L 7555 4525 L 7566 4538 L 7578 4549 L 7578 4566 L 7588 4581" stroke="#000000" stroke-width="50.00001" fill="none" stroke-linecap="round" stroke-linejoin="round"/>
<path d="M 7522 4371 L 7522 4358 L 7530 4358" stroke="#000000" stroke-width="50.00001" fill="none" stroke-linecap="round" stroke-linejoin="round"/>
<path d="M 7532 4371 L 7532 4356 L 7545 4356 L 7545 4345 L 7545 4336 L 7553 4336 L 7553 4321 L 7550 4326 L 7547 4331 L 7544 4340 L 7539 4348 L 7532 4359 L 7527 4371 L 7524 4384 L 7522 4399 L 7519 4411 L 7517 4422 L 7517 4435 L 7515 4447 L 7515 4457 L 7515 4469 L 7515 4475 L 7515 4482 L 7527 4488 L 7527 4493 L 7540 4500 L 7540 4505 L 7553 4510 L 7563 4517 L 7573 4523 L 7583 4531 L 7583 4541 L 7596 4550 L 7596 4561 L 7613 4571 L 7613 4581 L 7613 4593 L 7611 4601 L 7605 4607 L 7595 4616 L 7585 4621 L 7572 4626 L 7557 4627 L 7545 4627 L 7529 4627 L 7515 4627" stroke="#000000" stroke-width="50.00001" fill="none" stroke-linecap="round" stroke-linejoin="round"/>
<path d="M 7716 4409 L 7711 4409 L 7706 4396 L 7699 4396 L 7693 4386 L 7686 4386 L 7680 4386 L 7673 4373 L 7668 4373 L 7661 4373 L 7658 4373 L 7656 4373 L 7668 4373 L 7678 4374 L 7688 4379 L 7703 4383 L 7718 4386 L 7734 4389 L 7752 4391 L 7771 4392 L 7787 4392 L 7804 4392 L 7819 4392 L 7832 4392 L 7840 4392 L 7838 4392 L 7833 4392 L 7820 4392 L 7805 4392 L 7789 4392 L 7772 4401 L 7752 4409 L 7734 4419 L 7718 4434 L 7703 4450 L 7690 4469 L 7680 4485 L 7675 4505 L 7673 4523 L 7673 4541 L 7673 4555 L 7673 4568 L 7693 4576 L 7706 4581 L 7719 4583 L 7739 4583 L 7757 4583 L 7779 4583 L 7799 4569 L 7819 4555 L 7837 4541 L 7853 4523 L 7871 4507 L 7888 4487 L 7905 4470 L 7914 4452 L 7921 4437 L 7931 4424 L 7944 4414 L 7957 4417 L 7957 4424 L 7957 4435 L 7966 4449 L 7966 4465 L 7966 4477 L 7976 4492 L 7976 4507 L 7982 4518 L 7982 4530 L 8000 4535 L 8000 4536 L 8017 4536 L 8029 4536 L 8038 4536 L 8050 4520 L 8065 4507 L 8080 4492 L 8095 4477 L 8110 4464 L 8123 4447 L 8134 4435 L 8146 4435 L 8159 4435 L 8167 4435 L 8177 4435 L 8177 4447 L 8177 4464 L 8177 4480 L 8177 4503 L 8177 4528 L 8177 4550 L 8177 4574 L 8174 4599 L 8172 4616" stroke="#000000" stroke-width="50.00001" fill="none" stroke-linecap="round" stroke-linejoin="round"/>
<path d="M 8320 4175 L 8320 4154 L 8320 4137 L 8328 4124 L 8328 4129 L 8328 4144 L 8328 4162 L 8338 4190 L 8338 4223 L 8338 4259 L 8338 4299 L 8335 4344 L 8335 4388 L 8333 4435 L 8328 4479 L 8327 4522" stroke="#000000" stroke-width="50.00001" fill="none" stroke-linecap="round" stroke-linejoin="round"/>
<path d="M 8436 4261 L 8448 4249 L 8448 4235 L 8444 4235 L 8434 4235 L 8419 4235 L 8395 4235 L 8367 4238 L 8327 4240 L 8284 4243 L 8238 4248 L 8190 4251" stroke="#000000" stroke-width="50.00001" fill="none" stroke-linecap="round" stroke-linejoin="round"/></svg>