<svg xmlns="http://www.w3.org/2000/svg" width="35766" height="19442" viewBox="0 0 35766 19442"><path d="M 6907 685 L 6907 19432" stroke="#E71225" stroke-width="35" fill="none" stroke-linecap="round" stroke-linejoin="round"/>
<path d="M 12885 669 L 12885 19358" stroke="#E71225" stroke-width="35" fill="none" stroke-linecap="round" stroke-linejoin="round"/>
<path d="M 24860 800 L 24860 19374" stroke="#E71225" stroke-width="35" fill="none" stroke-linecap="round" stroke-linejoin="round"/>
<path d="M 18889 625 L 18889 19343" stroke="#E71225" stroke-width="35" fill="none" stroke-linecap="round" stroke-linejoin="round"/>
<path d="M 8408 934 L 12840 934 L 12840 2245 L 8408 2245 L 8408 934" stroke="#000000" stroke-width="35" fill="none" stroke-linecap="round" stroke-linejoin="round"/>
<path d="M 5407 2453 L 18812 2453 L 18812 3713 L 5407 3713 L 5407 2453" stroke="#66CC00" stroke-width="35" fill="none" stroke-linecap="round" stroke-linejoin="round"/>
<path d="M 9927 5621 L 20370 5621 L 20370 6859 L 9927 6859 L 9927 5621" stroke="#FFC114" stroke-width="35" fill="none" stroke-linecap="round" stroke-linejoin="round"/>
<path d="M 11407 3988 L 14410 3988 L 14410 5247 L 11407 5247 L 11407 3988" stroke="#00A0D7" stroke-width="35" fill="none" stroke-linecap="round" stroke-linejoin="round"/>
<path d="M 17409 7145 L 20234 7145 L 20234 8427 L 17409 8427 L 17409 7145" stroke="#00A0D7" stroke-width="35" fill="none" stroke-linecap="round" stroke-linejoin="round"/>
<path d="M 12237 86 L 12234 79 L 12230 69 L 12225 56 L 12224 41 L 12230 28 L 12244 17 L 12263 10 L 12287 12 L 12306 18 L 12328 26 L 12351 33 L 12369 46 L 12383 63 L 12392 83 L 12399 107 L 12401 134 L 12397 159 L 12392 182 L 12383 205 L 12364 227 L 12336 245 L 12310 261 L 12283 278 L 12263 296 L 12250 314 L 12244 327 L 12250 336 L 12263 342 L 12283 344 L 12310 344 L 12336 344 L 12366 344 L 12396 344 L 12424 344 L 12445 344" stroke="#000000" stroke-width="35" fill="none" stroke-linecap="round" stroke-linejoin="round"/>
<path d="M 12687 166 L 12687 159 L 12687 149 L 12687 136 L 12687 115 L 12687 102 L 12687 97 L 12687 100 L 12687 115 L 12687 136 L 12687 159 L 12687 187 L 12687 216 L 12687 242 L 12687 270 L 12684 293 L 12680 315 L 12675 335 L 12670 356 L 12661 379 L 12649 388 L 12641 384 L 12634 373 L 12631 355 L 12627 331 L 12626 307 L 12624 278 L 12624 252 L 12626 226 L 12626 196 L 12624 166 L 12624 138 L 12626 110 L 12632 87 L 12641 65 L 12647 54 L 12654 54 L 12661 63 L 12664 80 L 12667 105 L 12669 133 L 12670 156" stroke="#000000" stroke-width="35" fill="none" stroke-linecap="round" stroke-linejoin="round"/>
<path d="M 12687 192 L 12687 195 L 12684 199 L 12674 204 L 12659 209 L 12641 212 L 12614 213 L 12588 215 L 12561 215 L 12538 210 L 12522 200 L 12510 182 L 12505 162 L 12505 141 L 12507 114 L 12510 89 L 12515 66 L 12522 45" stroke="#000000" stroke-width="35" fill="none" stroke-linecap="round" stroke-linejoin="round"/>
<circle cx="12899" cy="166" r="17.5" fill="#000000"/>
<circle cx="12845" cy="430" r="17.5" fill="#000000"/>
<path d="M 13111 138 L 13104 138 L 13088 151 L 13071 174 L 13056 201 L 13045 232 L 13038 265 L 13035 297 L 13035 327 L 13040 350 L 13050 368 L 13068 376 L 13088 379 L 13113 383 L 13136 378 L 13157 366 L 13174 350 L 13187 328 L 13199 303 L 13205 274 L 13210 244 L 13214 216 L 13214 188 L 13209 164 L 13199 146 L 13180 135 L 13161 128 L 13136 126 L 13113 126" stroke="#000000" stroke-width="35" fill="none" stroke-linecap="round" stroke-linejoin="round"/>
<path d="M 13455 166 L 13448 166 L 13438 166 L 13419 169 L 13394 176 L 13371 184 L 13346 201 L 13326 219 L 13308 239 L 13291 259 L 13276 275 L 13266 292 L 13260 310 L 13255 328 L 13252 348 L 13253 366 L 13260 383 L 13275 394 L 13295 401 L 13319 406 L 13346 409 L 13374 411 L 13404 407 L 13429 394 L 13448 376 L 13462 356 L 13465 331 L 13465 305 L 13463 275 L 13457 249 L 13445 227 L 13432 211" stroke="#000000" stroke-width="35" fill="none" stroke-linecap="round" stroke-linejoin="round"/>
<path d="M 5975 238 L 5972 231 L 5968 221 L 5963 208 L 5962 193 L 5968 180 L 5982 169 L 6001 162 L 6025 164 L 6044 170 L 6066 178 L 6089 185 L 6107 198 L 6121 215 L 6130 235 L 6137 259 L 6139 286 L 6135 311 L 6130 334 L 6121 357 L 6102 379 L 6074 397 L 6048 413 L 6021 430 L 6001 448 L 5988 466 L 5982 479 L 5988 488 L 6001 494 L 6021 496 L 6048 496 L 6074 496 L 6104 496 L 6134 496 L 6162 496 L 6183 496" stroke="#000000" stroke-width="35" fill="none" stroke-linecap="round" stroke-linejoin="round"/>
<path d="M 6425 318 L 6425 311 L 6425 301 L 6425 288 L 6425 267 L 6425 254 L 6425 249 L 6425 252 L 6425 267 L 6425 288 L 6425 311 L 6425 339 L 6425 368 L 6425 394 L 6425 422 L 6422 445 L 6418 467 L 6413 487 L 6408 508 L 6399 531 L 6387 540 L 6379 536 L 6372 525 L 6369 507 L 6365 483 L 6364 459 L 6362 430 L 6362 404 L 6364 378 L 6364 348 L 6362 318 L 6362 290 L 6364 262 L 6370 239 L 6379 217 L 6385 206 L 6392 206 L 6399 215 L 6402 232 L 6405 257 L 6407 285 L 6408 308" stroke="#000000" stroke-width="35" fill="none" stroke-linecap="round" stroke-linejoin="round"/>
<path d="M 6425 344 L 6425 347 L 6422 351 L 6412 356 L 6397 361 L 6379 364 L 6352 365 L 6326 367 L 6299 367 L 6276 362 L 6260 352 L 6248 334 L 6243 314 L 6243 293 L 6245 266 L 6248 241 L 6253 218 L 6260 197" stroke="#000000" stroke-width="35" fill="none" stroke-linecap="round" stroke-linejoin="round"/>
<circle cx="6637" cy="318" r="17.5" fill="#000000"/>
<circle cx="6583" cy="582" r="17.5" fill="#000000"/>
<path d="M 6849 290 L 6842 290 L 6826 303 L 6809 326 L 6794 353 L 6783 384 L 6776 417 L 6773 449 L 6773 479 L 6778 502 L 6788 520 L 6806 528 L 6826 531 L 6851 535 L 6874 530 L 6895 518 L 6912 502 L 6925 480 L 6937 455 L 6943 426 L 6948 396 L 6952 368 L 6952 340 L 6947 316 L 6937 298 L 6918 287 L 6899 280 L 6874 278 L 6851 278" stroke="#000000" stroke-width="35" fill="none" stroke-linecap="round" stroke-linejoin="round"/>
<path d="M 7193 318 L 7186 318 L 7176 318 L 7157 321 L 7132 328 L 7109 336 L 7084 353 L 7064 371 L 7046 391 L 7029 411 L 7014 427 L 7004 444 L 6998 462 L 6993 480 L 6990 500 L 6991 518 L 6998 535 L 7013 546 L 7033 553 L 7057 558 L 7084 561 L 7112 563 L 7142 559 L 7167 546 L 7186 528 L 7200 508 L 7203 483 L 7203 457 L 7201 427 L 7195 401 L 7183 379 L 7170 363" stroke="#000000" stroke-width="35" fill="none" stroke-linecap="round" stroke-linejoin="round"/>
<path d="M 18457 184 L 18454 177 L 18450 167 L 18445 154 L 18444 139 L 18450 126 L 18464 115 L 18483 108 L 18507 110 L 18526 116 L 18548 124 L 18571 131 L 18589 144 L 18603 161 L 18612 181 L 18619 205 L 18621 232 L 18617 257 L 18612 280 L 18603 303 L 18584 325 L 18556 343 L 18530 359 L 18503 376 L 18483 394 L 18470 412 L 18464 425 L 18470 434 L 18483 440 L 18503 442 L 18530 442 L 18556 442 L 18586 442 L 18616 442 L 18644 442 L 18665 442" stroke="#000000" stroke-width="35" fill="none" stroke-linecap="round" stroke-linejoin="round"/>
<path d="M 18907 264 L 18907 257 L 18907 247 L 18907 234 L 18907 213 L 18907 200 L 18907 195 L 18907 198 L 18907 213 L 18907 234 L 18907 257 L 18907 285 L 18907 314 L 18907 340 L 18907 368 L 18904 391 L 18900 413 L 18895 433 L 18890 454 L 18881 477 L 18869 486 L 18861 482 L 18854 471 L 18851 453 L 18847 429 L 18846 405 L 18844 376 L 18844 350 L 18846 324 L 18846 294 L 18844 264 L 18844 236 L 18846 208 L 18852 185 L 18861 163 L 18867 152 L 18874 152 L 18881 161 L 18884 178 L 18887 203 L 18889 231 L 18890 254" stroke="#000000" stroke-width="35" fill="none" stroke-linecap="round" stroke-linejoin="round"/>
<path d="M 18907 290 L 18907 293 L 18904 297 L 18894 302 L 18879 307 L 18861 310 L 18834 311 L 18808 313 L 18781 313 L 18758 308 L 18742 298 L 18730 280 L 18725 260 L 18725 239 L 18727 212 L 18730 187 L 18735 164 L 18742 143" stroke="#000000" stroke-width="35" fill="none" stroke-linecap="round" stroke-linejoin="round"/>
<circle cx="19119" cy="264" r="17.5" fill="#000000"/>
<circle cx="19065" cy="528" r="17.5" fill="#000000"/>
<path d="M 19331 236 L 19324 236 L 19308 249 L 19291 272 L 19276 299 L 19265 330 L 19258 363 L 19255 395 L 19255 425 L 19260 448 L 19270 466 L 19288 474 L 19308 477 L 19333 481 L 19356 476 L 19377 464 L 19394 448 L 19407 426 L 19419 401 L 19425 372 L 19430 342 L 19434 314 L 19434 286 L 19429 262 L 19419 244 L 19400 233 L 19381 226 L 19356 224 L 19333 224" stroke="#000000" stroke-width="35" fill="none" stroke-linecap="round" stroke-linejoin="round"/>
<path d="M 19675 264 L 19668 264 L 19658 264 L 19639 267 L 19614 274 L 19591 282 L 19566 299 L 19546 317 L 19528 337 L 19511 357 L 19496 373 L 19486 390 L 19480 408 L 19475 426 L 19472 446 L 19473 464 L 19480 481 L 19495 492 L 19515 499 L 19539 504 L 19566 507 L 19594 509 L 19624 505 L 19649 492 L 19668 474 L 19682 454 L 19685 429 L 19685 403 L 19683 373 L 19677 347 L 19665 325 L 19652 309" stroke="#000000" stroke-width="35" fill="none" stroke-linecap="round" stroke-linejoin="round"/>
<path d="M 24294 220 L 24291 213 L 24287 203 L 24282 190 L 24281 175 L 24287 162 L 24301 151 L 24320 144 L 24344 146 L 24363 152 L 24385 160 L 24408 167 L 24426 180 L 24440 197 L 24449 217 L 24456 241 L 24458 268 L 24454 293 L 24449 316 L 24440 339 L 24421 361 L 24393 379 L 24367 395 L 24340 412 L 24320 430 L 24307 448 L 24301 461 L 24307 470 L 24320 476 L 24340 478 L 24367 478 L 24393 478 L 24423 478 L 24453 478 L 24481 478 L 24502 478" stroke="#000000" stroke-width="35" fill="none" stroke-linecap="round" stroke-linejoin="round"/>
<path d="M 24744 300 L 24744 293 L 24744 283 L 24744 270 L 24744 249 L 24744 236 L 24744 231 L 24744 234 L 24744 249 L 24744 270 L 24744 293 L 24744 321 L 24744 350 L 24744 376 L 24744 404 L 24741 427 L 24737 449 L 24732 469 L 24727 490 L 24718 513 L 24706 522 L 24698 518 L 24691 507 L 24688 489 L 24684 465 L 24683 441 L 24681 412 L 24681 386 L 24683 360 L 24683 330 L 24681 300 L 24681 272 L 24683 244 L 24689 221 L 24698 199 L 24704 188 L 24711 188 L 24718 197 L 24721 214 L 24724 239 L 24726 267 L 24727 290" stroke="#000000" stroke-width="35" fill="none" stroke-linecap="round" stroke-linejoin="round"/>
<path d="M 24744 326 L 24744 329 L 24741 333 L 24731 338 L 24716 343 L 24698 346 L 24671 347 L 24645 349 L 24618 349 L 24595 344 L 24579 334 L 24567 316 L 24562 296 L 24562 275 L 24564 248 L 24567 223 L 24572 200 L 24579 179" stroke="#000000" stroke-width="35" fill="none" stroke-linecap="round" stroke-linejoin="round"/>
<circle cx="24956" cy="300" r="17.5" fill="#000000"/>
<circle cx="24902" cy="564" r="17.5" fill="#000000"/>
<path d="M 25168 272 L 25161 272 L 25145 285 L 25128 308 L 25113 335 L 25102 366 L 25095 399 L 25092 431 L 25092 461 L 25097 484 L 25107 502 L 25125 510 L 25145 513 L 25170 517 L 25193 512 L 25214 500 L 25231 484 L 25244 462 L 25256 437 L 25262 408 L 25267 378 L 25271 350 L 25271 322 L 25266 298 L 25256 280 L 25237 269 L 25218 262 L 25193 260 L 25170 260" stroke="#000000" stroke-width="35" fill="none" stroke-linecap="round" stroke-linejoin="round"/>
<path d="M 25512 300 L 25505 300 L 25495 300 L 25476 303 L 25451 310 L 25428 318 L 25403 335 L 25383 353 L 25365 373 L 25348 393 L 25333 409 L 25323 426 L 25317 444 L 25312 462 L 25309 482 L 25310 500 L 25317 517 L 25332 528 L 25352 535 L 25376 540 L 25403 543 L 25431 545 L 25461 541 L 25486 528 L 25505 510 L 25519 490 L 25522 465 L 25522 439 L 25520 409 L 25514 383 L 25502 361 L 25489 345" stroke="#000000" stroke-width="35" fill="none" stroke-linecap="round" stroke-linejoin="round"/>
<path d="M 21901 8663 L 23435 8663 L 23435 9944 L 21901 9944 L 21901 8663" stroke="#00A0D7" stroke-width="35" fill="none" stroke-linecap="round" stroke-linejoin="round"/>
<path d="M 2419 1031 L 6851 1031 L 6851 2342 L 2419 2342 L 2419 1031" stroke="#000000" stroke-width="35" fill="none" stroke-linecap="round" stroke-linejoin="round"/>
<path d="M 14402 1004 L 18834 1004 L 18834 2314 L 14402 2314 L 14402 1004" stroke="#000000" stroke-width="35" fill="none" stroke-linecap="round" stroke-linejoin="round"/>
<path d="M 20364 1066 L 24796 1066 L 24796 2377 L 20364 2377 L 20364 1066" stroke="#000000" stroke-width="35" fill="none" stroke-linecap="round" stroke-linejoin="round"/>
<path d="M 26375 1113 L 30807 1113 L 30807 2423 L 26375 2423 L 26375 1113" stroke="#000000" stroke-width="35" fill="none" stroke-linecap="round" stroke-linejoin="round"/>
<path d="M 30813 703 L 30813 19422" stroke="#E71225" stroke-width="35" fill="none" stroke-linecap="round" stroke-linejoin="round"/>
<path d="M 27917 8686 L 29450 8686 L 29450 9967 L 27917 9967 L 27917 8686" stroke="#00A0D7" stroke-width="35" fill="none" stroke-linecap="round" stroke-linejoin="round"/>
<path d="M 8405 3076 L 8400 3076 L 8393 3069 L 8392 3056 L 8398 3040 L 8410 3026 L 8426 3015 L 8450 3008 L 8474 3007 L 8499 3003 L 8522 3005 L 8544 3007 L 8569 3007 L 8595 3002 L 8622 2995 L 8648 2987 L 8675 2980 L 8698 2975 L 8718 2978 L 8732 2990 L 8742 3007 L 8747 3026 L 8747 3048 L 8737 3074 L 8721 3099 L 8699 3119 L 8678 3137 L 8655 3154 L 8627 3169 L 8598 3185 L 8572 3205 L 8551 3226 L 8534 3243 L 8522 3258 L 8506 3271 L 8493 3283 L 8481 3299 L 8474 3321 L 8466 3337 L 8460 3354 L 8465 3369 L 8478 3380 L 8496 3387 L 8519 3390 L 8549 3390 L 8580 3389 L 8612 3389 L 8641 3390 L 8673 3387 L 8704 3382 L 8734 3377 L 8762 3374 L 8790 3372 L 8813 3370" stroke="#00A0D7" stroke-width="50.00001" fill="none" stroke-linecap="round" stroke-linejoin="round"/>
<path d="M 11653 4664 L 11658 4664 L 11668 4664 L 11681 4664 L 11699 4664 L 11722 4664 L 11747 4664 L 11770 4667 L 11789 4677 L 11803 4695 L 11813 4717 L 11820 4740 L 11818 4760 L 11812 4778 L 11800 4795 L 11780 4813 L 11759 4829 L 11739 4844 L 11721 4859 L 11701 4872 L 11686 4881 L 11679 4884 L 11684 4886 L 11701 4886 L 11721 4884 L 11742 4884 L 11765 4889 L 11784 4899 L 11807 4909 L 11827 4924 L 11842 4942 L 11851 4962 L 11856 4982 L 11853 5005 L 11843 5028 L 11828 5049 L 11810 5064 L 11784 5077 L 11757 5086 L 11731 5092 L 11704 5094 L 11674 5094 L 11645 5094 L 11620 5094" stroke="#00A0D7" stroke-width="50.00001" fill="none" stroke-linecap="round" stroke-linejoin="round"/>
<path d="M 10531 6014 L 10531 6017 L 10531 6027 L 10531 6042 L 10531 6064 L 10531 6087 L 10531 6115 L 10531 6143 L 10531 6176 L 10531 6211 L 10531 6244 L 10531 6275 L 10531 6305 L 10531 6333 L 10531 6365 L 10531 6394 L 10531 6421 L 10524 6446 L 10518 6472 L 10514 6500 L 10508 6527 L 10500 6545 L 10493 6551 L 10488 6543 L 10485 6527 L 10483 6507 L 10481 6485 L 10478 6459 L 10473 6434 L 10465 6421 L 10455 6416 L 10438 6416 L 10417 6417 L 10392 6421 L 10369 6417 L 10352 6409 L 10341 6394 L 10336 6368 L 10336 6336 L 10338 6303 L 10338 6269 L 10336 6236 L 10336 6201 L 10338 6171 L 10338 6143 L 10336 6113 L 10336 6088" stroke="#00A0D7" stroke-width="50.00001" fill="none" stroke-linecap="round" stroke-linejoin="round"/>
<path d="M 3161 1488 L 3163 1495 L 3163 1508 L 3161 1551 L 3161 1607 L 3163 1662 L 3163 1713 L 3161 1759 L 3161 1799 L 3163 1829 L 3159 1855 L 3154 1880 L 3149 1903 L 3146 1925 L 3144 1948 L 3143 1961 L 3140 1963 L 3138 1953 L 3136 1928 L 3140 1901 L 3144 1877 L 3149 1847 L 3153 1815 L 3154 1786 L 3156 1758 L 3159 1729 L 3161 1703 L 3163 1678 L 3163 1655 L 3161 1630 L 3161 1604 L 3163 1582 L 3149 1582 L 3128 1597 L 3101 1617 L 3080 1642 L 3060 1668 L 3044 1693" stroke="#00A0D7" stroke-width="50.00001" fill="none" stroke-linecap="round" stroke-linejoin="round"/>
<path d="M 8983 1512 L 8988 1510 L 8998 1507 L 9029 1489 L 9069 1467 L 9107 1444 L 9140 1418 L 9172 1396 L 9198 1376 L 9221 1362 L 9241 1355 L 9256 1358 L 9266 1375 L 9271 1396 L 9274 1428 L 9274 1464 L 9272 1497 L 9272 1525 L 9274 1558 L 9274 1590 L 9272 1619 L 9269 1654 L 9261 1689 L 9251 1729 L 9236 1770 L 9221 1806 L 9208 1841 L 9196 1874 L 9186 1899" stroke="#00A0D7" stroke-width="50.00001" fill="none" stroke-linecap="round" stroke-linejoin="round"/>
<path d="M 14879 1512 L 14877 1507 L 14874 1494 L 14882 1477 L 14897 1457 L 14940 1429 L 14991 1400 L 15043 1375 L 15089 1352 L 15130 1335 L 15167 1323 L 15198 1319 L 15225 1319 L 15248 1320 L 15271 1320 L 15289 1325 L 15297 1338 L 15297 1363 L 15294 1393 L 15287 1431 L 15279 1467 L 15269 1502 L 15261 1537 L 15251 1570 L 15243 1601 L 15235 1628 L 15228 1656 L 15223 1682 L 15216 1704 L 15211 1724 L 15208 1742 L 15205 1762 L 15200 1783 L 15195 1803 L 15188 1821 L 15180 1838" stroke="#00A0D7" stroke-width="50.00001" fill="none" stroke-linecap="round" stroke-linejoin="round"/>
<path d="M 20917 1488 L 20919 1488 L 20922 1491 L 20925 1501 L 20927 1516 L 20925 1534 L 20919 1557 L 20912 1581 L 20899 1605 L 20882 1630 L 20866 1657 L 20854 1681 L 20843 1705 L 20836 1729 L 20828 1756 L 20821 1781 L 20810 1801 L 20796 1819 L 20781 1832 L 20768 1845 L 20757 1855 L 20753 1862 L 20762 1867 L 20773 1870" stroke="#00A0D7" stroke-width="50.00001" fill="none" stroke-linecap="round" stroke-linejoin="round"/>
<path d="M 20965 1584 L 20965 1589 L 20965 1599 L 20965 1614 L 20965 1637 L 20965 1667 L 20965 1698 L 20965 1733 L 20965 1769 L 20965 1809 L 20965 1847 L 20965 1883 L 20965 1915 L 20965 1944 L 20965 1973 L 20965 1997 L 20965 2021 L 20972 2040 L 20978 2055" stroke="#00A0D7" stroke-width="50.00001" fill="none" stroke-linecap="round" stroke-linejoin="round"/>
<path d="M 27125 1656 L 27123 1658 L 27113 1658 L 27097 1659 L 27079 1669 L 27057 1687 L 27037 1707 L 27014 1727 L 26988 1750 L 26966 1777 L 26946 1798 L 26928 1818 L 26908 1833 L 26887 1846 L 26864 1859 L 26846 1873" stroke="#00A0D7" stroke-width="50.00001" fill="none" stroke-linecap="round" stroke-linejoin="round"/>
<path d="M 27149 1704 L 27146 1709 L 27136 1749 L 27128 1807 L 27119 1869 L 27113 1926 L 27108 1974 L 27104 2012 L 27103 2048 L 27103 2078 L 27103 2106 L 27103 2131 L 27103 2157 L 27103 2180" stroke="#00A0D7" stroke-width="50.00001" fill="none" stroke-linecap="round" stroke-linejoin="round"/>
<path d="M 5567 2716 L 5567 2711 L 5567 2701 L 5570 2690 L 5580 2680 L 5598 2671 L 5620 2666 L 5643 2663 L 5666 2663 L 5688 2665 L 5713 2668 L 5739 2673 L 5762 2690 L 5782 2709 L 5797 2734 L 5807 2764 L 5808 2792 L 5805 2815 L 5797 2835 L 5782 2853 L 5762 2866 L 5741 2878 L 5717 2891 L 5693 2905 L 5666 2918 L 5643 2931 L 5623 2944 L 5608 2964 L 5598 2987 L 5593 3010 L 5590 3032 L 5593 3050 L 5602 3063 L 5617 3073 L 5636 3080 L 5658 3081 L 5681 3081 L 5706 3080 L 5732 3076 L 5759 3075 L 5782 3073 L 5802 3073" stroke="#00A0D7" stroke-width="50.00001" fill="none" stroke-linecap="round" stroke-linejoin="round"/>
<path d="M 14999 3052 L 14992 3054 L 14986 3050 L 14979 3039 L 14973 3022 L 14969 3004 L 14966 2983 L 14964 2959 L 14963 2933 L 14969 2911 L 14981 2895 L 14997 2883 L 15019 2877 L 15039 2873 L 15062 2873 L 15092 2875 L 15126 2875 L 15161 2873 L 15194 2873 L 15219 2878 L 15235 2892 L 15247 2910 L 15250 2930 L 15249 2953 L 15247 2979 L 15244 3004 L 15242 3031 L 15234 3062 L 15221 3095 L 15202 3125 L 15183 3151 L 15161 3169 L 15145 3189 L 15130 3207 L 15111 3221 L 15092 3231 L 15072 3237 L 15052 3242 L 15029 3245 L 15002 3250 L 14984 3254 L 14978 3259 L 14982 3264 L 14999 3267 L 15020 3269 L 15052 3270 L 15088 3270 L 15125 3269 L 15159 3269 L 15191 3270 L 15217 3270" stroke="#00A0D7" stroke-width="50.00001" fill="none" stroke-linecap="round" stroke-linejoin="round"/>
<path d="M 21927 5620 L 32370 5620 L 32370 6858 L 21927 6858 L 21927 5620" stroke="#FFC114" stroke-width="35" fill="none" stroke-linecap="round" stroke-linejoin="round"/>
<path d="M 30178 223 L 30175 216 L 30171 206 L 30166 193 L 30165 178 L 30171 165 L 30185 154 L 30204 147 L 30228 149 L 30247 155 L 30269 163 L 30292 170 L 30310 183 L 30324 200 L 30333 220 L 30340 244 L 30342 271 L 30338 296 L 30333 319 L 30324 342 L 30305 364 L 30277 382 L 30251 398 L 30224 415 L 30204 433 L 30191 451 L 30185 464 L 30191 473 L 30204 479 L 30224 481 L 30251 481 L 30277 481 L 30307 481 L 30337 481 L 30365 481 L 30386 481" stroke="#000000" stroke-width="35" fill="none" stroke-linecap="round" stroke-linejoin="round"/>
<path d="M 30628 303 L 30628 296 L 30628 286 L 30628 273 L 30628 252 L 30628 239 L 30628 234 L 30628 237 L 30628 252 L 30628 273 L 30628 296 L 30628 324 L 30628 353 L 30628 379 L 30628 407 L 30625 430 L 30621 452 L 30616 472 L 30611 493 L 30602 516 L 30590 525 L 30582 521 L 30575 510 L 30572 492 L 30568 468 L 30567 444 L 30565 415 L 30565 389 L 30567 363 L 30567 333 L 30565 303 L 30565 275 L 30567 247 L 30573 224 L 30582 202 L 30588 191 L 30595 191 L 30602 200 L 30605 217 L 30608 242 L 30610 270 L 30611 293" stroke="#000000" stroke-width="35" fill="none" stroke-linecap="round" stroke-linejoin="round"/>
<path d="M 30628 329 L 30628 332 L 30625 336 L 30615 341 L 30600 346 L 30582 349 L 30555 350 L 30529 352 L 30502 352 L 30479 347 L 30463 337 L 30451 319 L 30446 299 L 30446 278 L 30448 251 L 30451 226 L 30456 203 L 30463 182" stroke="#000000" stroke-width="35" fill="none" stroke-linecap="round" stroke-linejoin="round"/>
<circle cx="30840" cy="303" r="17.5" fill="#000000"/>
<circle cx="30786" cy="567" r="17.5" fill="#000000"/>
<path d="M 31052 275 L 31045 275 L 31029 288 L 31012 311 L 30997 338 L 30986 369 L 30979 402 L 30976 434 L 30976 464 L 30981 487 L 30991 505 L 31009 513 L 31029 516 L 31054 520 L 31077 515 L 31098 503 L 31115 487 L 31128 465 L 31140 440 L 31146 411 L 31151 381 L 31155 353 L 31155 325 L 31150 301 L 31140 283 L 31121 272 L 31102 265 L 31077 263 L 31054 263" stroke="#000000" stroke-width="35" fill="none" stroke-linecap="round" stroke-linejoin="round"/>
<path d="M 31396 303 L 31389 303 L 31379 303 L 31360 306 L 31335 313 L 31312 321 L 31287 338 L 31267 356 L 31249 376 L 31232 396 L 31217 412 L 31207 429 L 31201 447 L 31196 465 L 31193 485 L 31194 503 L 31201 520 L 31216 531 L 31236 538 L 31260 543 L 31287 546 L 31315 548 L 31345 544 L 31370 531 L 31389 513 L 31403 493 L 31406 468 L 31406 442 L 31404 412 L 31398 386 L 31386 364 L 31373 348" stroke="#000000" stroke-width="35" fill="none" stroke-linecap="round" stroke-linejoin="round"/>
<path d="M 22553 5964 L 22553 5967 L 22553 5977 L 22553 5992 L 22553 6014 L 22553 6037 L 22553 6065 L 22553 6093 L 22553 6126 L 22553 6161 L 22553 6194 L 22553 6225 L 22553 6255 L 22553 6283 L 22553 6315 L 22553 6344 L 22553 6371 L 22546 6396 L 22540 6422 L 22536 6450 L 22530 6477 L 22522 6495 L 22515 6501 L 22510 6493 L 22507 6477 L 22505 6457 L 22503 6435 L 22500 6409 L 22495 6384 L 22487 6371 L 22477 6366 L 22460 6366 L 22439 6367 L 22414 6371 L 22391 6367 L 22374 6359 L 22363 6344 L 22358 6318 L 22358 6286 L 22360 6253 L 22360 6219 L 22358 6186 L 22358 6151 L 22360 6121 L 22360 6093 L 22358 6063 L 22358 6038" stroke="#00A0D7" stroke-width="50.00001" fill="none" stroke-linecap="round" stroke-linejoin="round"/>
<path d="M 35756 11500 L 10 11506" stroke="#AB008B" stroke-width="35" fill="none" stroke-linecap="round" stroke-linejoin="round"/>
<path d="M 5401 11641 L 6732 11641 L 6732 12932 L 5401 12932 L 5401 11641" stroke="#66CC00" stroke-width="35" fill="none" stroke-linecap="round" stroke-linejoin="round"/>
<path d="M 6959 11646 L 12669 11646 L 12669 12902 L 6959 12902 L 6959 11646" stroke="#66CC00" stroke-width="35" fill="none" stroke-linecap="round" stroke-linejoin="round"/>
<path d="M 12823 11673 L 18736 11673 L 18736 12929 L 12823 12929 L 12823 11673" stroke="#66CC00" stroke-width="35" fill="none" stroke-linecap="round" stroke-linejoin="round"/>
<path d="M 11268 13133 L 14271 13133 L 14271 14393 L 11268 14393 L 11268 13133" stroke="#00A0D7" stroke-width="35" fill="none" stroke-linecap="round" stroke-linejoin="round"/>
<path d="M 9819 14643 L 12727 14643 L 12727 15881 L 9819 15881 L 9819 14643" stroke="#FFC114" stroke-width="35" fill="none" stroke-linecap="round" stroke-linejoin="round"/>
<path d="M 12880 14643 L 18697 14643 L 18697 15881 L 12880 15881 L 12880 14643" stroke="#FFC114" stroke-width="35" fill="none" stroke-linecap="round" stroke-linejoin="round"/>
<path d="M 18904 14656 L 20182 14656 L 20182 15894 L 18904 15894 L 18904 14656" stroke="#FFC114" stroke-width="35" fill="none" stroke-linecap="round" stroke-linejoin="round"/>
<path d="M 17285 16070 L 18714 16070 L 18714 17351 L 17285 17351 L 17285 16070" stroke="#00A0D7" stroke-width="35" fill="none" stroke-linecap="round" stroke-linejoin="round"/>
<path d="M 5819 12151 L 5814 12151 L 5807 12144 L 5806 12131 L 5812 12115 L 5824 12101 L 5840 12090 L 5864 12083 L 5888 12082 L 5913 12078 L 5936 12080 L 5958 12082 L 5983 12082 L 6009 12077 L 6036 12070 L 6062 12062 L 6089 12055 L 6112 12050 L 6132 12053 L 6146 12065 L 6156 12082 L 6161 12101 L 6161 12123 L 6151 12149 L 6135 12174 L 6113 12194 L 6092 12212 L 6069 12229 L 6041 12244 L 6012 12260 L 5986 12280 L 5965 12301 L 5948 12318 L 5936 12333 L 5920 12346 L 5907 12358 L 5895 12374 L 5888 12396 L 5880 12412 L 5874 12429 L 5879 12444 L 5892 12455 L 5910 12462 L 5933 12465 L 5963 12465 L 5994 12464 L 6026 12464 L 6055 12465 L 6087 12462 L 6118 12457 L 6148 12452 L 6176 12449 L 6204 12447 L 6227 12445" stroke="#00A0D7" stroke-width="50.00001" fill="none" stroke-linecap="round" stroke-linejoin="round"/>
<path d="M 7392 12265 L 7387 12265 L 7380 12258 L 7379 12245 L 7385 12229 L 7397 12215 L 7413 12204 L 7437 12197 L 7461 12196 L 7486 12192 L 7509 12194 L 7531 12196 L 7556 12196 L 7582 12191 L 7609 12184 L 7635 12176 L 7662 12169 L 7685 12164 L 7705 12167 L 7719 12179 L 7729 12196 L 7734 12215 L 7734 12237 L 7724 12263 L 7708 12288 L 7686 12308 L 7665 12326 L 7642 12343 L 7614 12358 L 7585 12374 L 7559 12394 L 7538 12415 L 7521 12432 L 7509 12447 L 7493 12460 L 7480 12472 L 7468 12488 L 7461 12510 L 7453 12526 L 7447 12543 L 7452 12558 L 7465 12569 L 7483 12576 L 7506 12579 L 7536 12579 L 7567 12578 L 7599 12578 L 7628 12579 L 7660 12576 L 7691 12571 L 7721 12566 L 7749 12563 L 7777 12561 L 7800 12559" stroke="#00A0D7" stroke-width="50.00001" fill="none" stroke-linecap="round" stroke-linejoin="round"/>
<path d="M 11664 13579 L 11669 13579 L 11679 13579 L 11692 13579 L 11710 13579 L 11733 13579 L 11758 13579 L 11781 13582 L 11800 13592 L 11814 13610 L 11824 13632 L 11831 13655 L 11829 13675 L 11823 13693 L 11811 13710 L 11791 13728 L 11770 13744 L 11750 13759 L 11732 13774 L 11712 13787 L 11697 13796 L 11690 13799 L 11695 13801 L 11712 13801 L 11732 13799 L 11753 13799 L 11776 13804 L 11795 13814 L 11818 13824 L 11838 13839 L 11853 13857 L 11862 13877 L 11867 13897 L 11864 13920 L 11854 13943 L 11839 13964 L 11821 13979 L 11795 13992 L 11768 14001 L 11742 14007 L 11715 14009 L 11685 14009 L 11656 14009 L 11631 14009" stroke="#00A0D7" stroke-width="50.00001" fill="none" stroke-linecap="round" stroke-linejoin="round"/>
<path d="M 10501 15050 L 10501 15053 L 10501 15063 L 10501 15078 L 10501 15100 L 10501 15123 L 10501 15151 L 10501 15179 L 10501 15212 L 10501 15247 L 10501 15280 L 10501 15311 L 10501 15341 L 10501 15369 L 10501 15401 L 10501 15430 L 10501 15457 L 10494 15482 L 10488 15508 L 10484 15536 L 10478 15563 L 10470 15581 L 10463 15587 L 10458 15579 L 10455 15563 L 10453 15543 L 10451 15521 L 10448 15495 L 10443 15470 L 10435 15457 L 10425 15452 L 10408 15452 L 10387 15453 L 10362 15457 L 10339 15453 L 10322 15445 L 10311 15430 L 10306 15404 L 10306 15372 L 10308 15339 L 10308 15305 L 10306 15272 L 10306 15237 L 10308 15207 L 10308 15179 L 10306 15149 L 10306 15124" stroke="#00A0D7" stroke-width="50.00001" fill="none" stroke-linecap="round" stroke-linejoin="round"/>
<path d="M 13283 12260 L 13278 12260 L 13271 12253 L 13270 12240 L 13276 12224 L 13288 12210 L 13304 12199 L 13328 12192 L 13352 12191 L 13377 12187 L 13400 12189 L 13422 12191 L 13447 12191 L 13473 12186 L 13500 12179 L 13526 12171 L 13553 12164 L 13576 12159 L 13596 12162 L 13610 12174 L 13620 12191 L 13625 12210 L 13625 12232 L 13615 12258 L 13599 12283 L 13577 12303 L 13556 12321 L 13533 12338 L 13505 12353 L 13476 12369 L 13450 12389 L 13429 12410 L 13412 12427 L 13400 12442 L 13384 12455 L 13371 12467 L 13359 12483 L 13352 12505 L 13344 12521 L 13338 12538 L 13343 12553 L 13356 12564 L 13374 12571 L 13397 12574 L 13427 12574 L 13458 12573 L 13490 12573 L 13519 12574 L 13551 12571 L 13582 12566 L 13612 12561 L 13640 12558 L 13668 12556 L 13691 12554" stroke="#00A0D7" stroke-width="50.00001" fill="none" stroke-linecap="round" stroke-linejoin="round"/>
<path d="M 21930 11685 L 24663 11685 L 24663 12923 L 21930 12923 L 21930 11685" stroke="#FFC114" stroke-width="35" fill="none" stroke-linecap="round" stroke-linejoin="round"/>
<path d="M 19014 16099 L 20315 16099 L 20315 17381 L 19014 17381 L 19014 16099" stroke="#00A0D7" stroke-width="35" fill="none" stroke-linecap="round" stroke-linejoin="round"/>
<path d="M 19850 16396 L 19848 16398 L 19845 16404 L 19835 16419 L 19820 16436 L 19799 16452 L 19776 16467 L 19754 16479 L 19733 16489 L 19706 16495 L 19678 16497 L 19648 16497 L 19614 16495 L 19574 16492 L 19529 16490 L 19483 16489 L 19442 16489 L 19399 16490 L 19361 16490 L 19329 16489 L 19306 16492 L 19291 16500 L 19283 16515 L 19276 16535 L 19275 16556 L 19275 16580 L 19276 16608 L 19283 16641 L 19288 16672 L 19291 16705 L 19296 16737 L 19303 16760 L 19311 16776 L 19321 16775 L 19332 16766 L 19342 16750 L 19356 16735 L 19374 16723 L 19394 16714 L 19415 16707 L 19442 16702 L 19466 16699 L 19493 16697 L 19524 16697 L 19557 16697 L 19590 16700 L 19617 16714 L 19643 16735 L 19666 16761 L 19686 16790 L 19701 16819 L 19711 16849 L 19716 16877 L 19719 16902 L 19719 16928 L 19714 16955 L 19701 16978 L 19683 17005 L 19660 17026 L 19637 17046 L 19615 17064 L 19590 17077 L 19564 17086 L 19537 17092 L 19508 17094 L 19478 17094 L 19450 17094 L 19418 17094 L 19385 17094 L 19356 17094 L 19329 17094 L 19301 17091 L 19278 17087" stroke="#00A0D7" stroke-width="50.00001" fill="none" stroke-linecap="round" stroke-linejoin="round"/>
<path d="M 22559 12066 L 22559 12069 L 22559 12079 L 22559 12094 L 22559 12116 L 22559 12139 L 22559 12167 L 22559 12195 L 22559 12228 L 22559 12263 L 22559 12296 L 22559 12327 L 22559 12357 L 22559 12385 L 22559 12417 L 22559 12446 L 22559 12473 L 22552 12498 L 22546 12524 L 22542 12552 L 22536 12579 L 22528 12597 L 22521 12603 L 22516 12595 L 22513 12579 L 22511 12559 L 22509 12537 L 22506 12511 L 22501 12486 L 22493 12473 L 22483 12468 L 22466 12468 L 22445 12469 L 22420 12473 L 22397 12469 L 22380 12461 L 22369 12446 L 22364 12420 L 22364 12388 L 22366 12355 L 22366 12321 L 22364 12288 L 22364 12253 L 22366 12223 L 22366 12195 L 22364 12165 L 22364 12140" stroke="#00A0D7" stroke-width="50.00001" fill="none" stroke-linecap="round" stroke-linejoin="round"/>
<path d="M 24991 11688 L 30721 11688 L 30721 12926 L 24991 12926 L 24991 11688" stroke="#FFC114" stroke-width="35" fill="none" stroke-linecap="round" stroke-linejoin="round"/>
<path d="M 25627 12069 L 25627 12072 L 25627 12082 L 25627 12097 L 25627 12119 L 25627 12142 L 25627 12170 L 25627 12198 L 25627 12231 L 25627 12266 L 25627 12299 L 25627 12330 L 25627 12360 L 25627 12388 L 25627 12420 L 25627 12449 L 25627 12476 L 25619 12501 L 25613 12527 L 25609 12555 L 25603 12582 L 25595 12600 L 25588 12606 L 25583 12598 L 25580 12582 L 25578 12562 L 25576 12540 L 25573 12514 L 25568 12489 L 25560 12476 L 25550 12471 L 25533 12471 L 25511 12472 L 25486 12476 L 25463 12472 L 25446 12464 L 25435 12449 L 25429 12423 L 25429 12391 L 25431 12358 L 25431 12324 L 25429 12291 L 25429 12256 L 25431 12226 L 25431 12198 L 25429 12168 L 25429 12143" stroke="#00A0D7" stroke-width="50.00001" fill="none" stroke-linecap="round" stroke-linejoin="round"/>
<path d="M 27919 13107 L 29452 13107 L 29452 14389 L 27919 14389 L 27919 13107" stroke="#00A0D7" stroke-width="35" fill="none" stroke-linecap="round" stroke-linejoin="round"/>
<path d="M 30909 11664 L 32245 11664 L 32245 12902 L 30909 12902 L 30909 11664" stroke="#FFC114" stroke-width="35" fill="none" stroke-linecap="round" stroke-linejoin="round"/>
<path d="M 18097 7460 L 18097 7460 L 18117 7425 L 18133 7425 L 18133 7427 L 18133 7429 L 18153 7429 L 18152 7429 L 18150 7429 L 18145 7429 L 18143 7429 L 18133 7435 L 18127 7437 L 18114 7443 L 18100 7445 L 18087 7450 L 18069 7450 L 18054 7457 L 18034 7462 L 18014 7467 L 17993 7473 L 17973 7481 L 17950 7488 L 17932 7491 L 17912 7495 L 17890 7501 L 17875 7505 L 17862 7505 L 17847 7510 L 17834 7511 L 17821 7511 L 17811 7513 L 17799 7520 L 17791 7520 L 17781 7520 L 17773 7520 L 17770 7520 L 17761 7520 L 17755 7521 L 17753 7521 L 17751 7521 L 17748 7521 L 17741 7521 L 17740 7521 L 17738 7521 L 17738 7526 L 17738 7529 L 17738 7533 L 17738 7539 L 17738 7546 L 17738 7551 L 17738 7564 L 17738 7571 L 17755 7586 L 17755 7596 L 17755 7606 L 17776 7619 L 17776 7627 L 17776 7642 L 17776 7652 L 17796 7663 L 17796 7672 L 17796 7680 L 17796 7688 L 17796 7693 L 17796 7698 L 17796 7700 L 17796 7708 L 17796 7715 L 17796 7720 L 17796 7721 L 17814 7721 L 17836 7721 L 17857 7721 L 17857 7692 L 17887 7692 L 17907 7692 L 17933 7692 L 17961 7692 L 17993 7692 L 18014 7692 L 18034 7693 L 18049 7698 L 18074 7705 L 18092 7713 L 18114 7723 L 18133 7731 L 18152 7746 L 18152 7759 L 18183 7769 L 18183 7784 L 18183 7799 L 18206 7814 L 18206 7832 L 18206 7847 L 18206 7863 L 18201 7877 L 18193 7893 L 18173 7908 L 18152 7923 L 18127 7938 L 18100 7951 L 18069 7963 L 18039 7978 L 18009 7989 L 17978 8001 L 17953 8009 L 17928 8019 L 17902 8027 L 17875 8034 L 17856 8039 L 17841 8044 L 17834 8045 L 17821 8047 L 17816 8047 L 17811 8050 L 17806 8050 L 17801 8050 L 17793 8022" stroke="#00A0D7" stroke-width="50.00001" fill="none" stroke-linecap="round" stroke-linejoin="round"/>
<path d="M 22481 9076 L 22476 9076 L 22471 9076 L 22471 9041 L 22468 9041 L 22463 9041 L 22461 9041 L 22458 9041 L 22453 9041 L 22451 9041 L 22448 9041 L 22443 9041 L 22438 9041 L 22433 9041 L 22430 9016 L 22426 9016 L 22423 9016 L 22420 9016 L 22413 9016 L 22412 9016 L 22407 9016 L 22402 9016 L 22397 9016 L 22392 9016 L 22383 9016 L 22377 9016 L 22362 9021 L 22352 9035 L 22337 9046 L 22327 9061 L 22317 9078 L 22307 9096 L 22297 9116 L 22286 9142 L 22278 9164 L 22269 9190 L 22263 9218 L 22254 9245 L 22245 9265 L 22241 9286 L 22238 9308 L 22238 9327 L 22238 9346 L 22238 9357 L 22238 9370 L 22238 9384 L 22238 9392 L 22238 9398 L 22238 9403 L 22238 9412 L 22254 9418 L 22278 9432 L 22296 9436 L 22296 9440 L 22296 9446 L 22321 9451 L 22321 9456 L 22347 9465 L 22347 9470 L 22377 9471 L 22377 9476 L 22397 9479 L 22420 9479 L 22420 9486 L 22441 9486 L 22463 9486 L 22463 9456 L 22483 9456 L 22483 9423 L 22502 9423 L 22502 9389 L 22502 9351 L 22524 9316 L 22519 9284 L 22517 9284 L 22514 9284 L 22507 9284 L 22498 9256 L 22489 9256 L 22478 9256 L 22463 9256 L 22441 9256 L 22415 9256 L 22393 9256 L 22365 9256 L 22337 9256 L 22311 9256 L 22281 9256 L 22259 9256 L 22235 9256 L 22213 9256 L 22200 9256 L 22190 9256 L 22168 9256" stroke="#00A0D7" stroke-width="50.00001" fill="none" stroke-linecap="round" stroke-linejoin="round"/>
<path d="M 28525 9048 L 28510 9048 L 28504 9018 L 28495 9018 L 28489 9018 L 28485 9018 L 28479 9018 L 28470 9018 L 28465 9018 L 28457 8988 L 28451 8988 L 28447 8988 L 28441 8988 L 28434 8988 L 28424 8988 L 28421 8988 L 28414 8988 L 28404 8988 L 28399 8988 L 28384 8988 L 28373 8990 L 28366 8997 L 28353 9000 L 28338 9010 L 28327 9020 L 28308 9031 L 28293 9048 L 28277 9061 L 28265 9079 L 28249 9096 L 28232 9116 L 28222 9141 L 28206 9164 L 28193 9192 L 28183 9218 L 28173 9245 L 28166 9271 L 28165 9296 L 28163 9324 L 28158 9351 L 28156 9374 L 28156 9395 L 28156 9417 L 28156 9437 L 28156 9458 L 28156 9476 L 28156 9490 L 28156 9499 L 28181 9513 L 28181 9526 L 28181 9536 L 28181 9541 L 28201 9541 L 28201 9542 L 28201 9544 L 28222 9547 L 28222 9551 L 28249 9551 L 28272 9551 L 28297 9551 L 28318 9551 L 28318 9519 L 28338 9519 L 28365 9519 L 28365 9488 L 28384 9488 L 28384 9455 L 28379 9423 L 28373 9423 L 28365 9423 L 28361 9390 L 28353 9390 L 28343 9390 L 28328 9390 L 28315 9354 L 28307 9354 L 28293 9354 L 28282 9354 L 28269 9354 L 28255 9323 L 28244 9326 L 28231 9326 L 28222 9326 L 28212 9326 L 28204 9326 L 28196 9332" stroke="#00A0D7" stroke-width="50.00001" fill="none" stroke-linecap="round" stroke-linejoin="round"/>
<path d="M 17897 16453 L 17897 16453 L 17917 16418 L 17933 16418 L 17933 16420 L 17933 16422 L 17953 16422 L 17952 16422 L 17950 16422 L 17945 16422 L 17943 16422 L 17933 16428 L 17927 16430 L 17914 16436 L 17900 16438 L 17887 16443 L 17869 16443 L 17854 16450 L 17834 16455 L 17814 16460 L 17793 16466 L 17773 16474 L 17750 16481 L 17732 16484 L 17712 16488 L 17690 16494 L 17675 16498 L 17662 16498 L 17647 16503 L 17634 16504 L 17621 16504 L 17611 16506 L 17599 16513 L 17591 16513 L 17581 16513 L 17573 16513 L 17570 16513 L 17561 16513 L 17555 16514 L 17553 16514 L 17551 16514 L 17548 16514 L 17541 16514 L 17540 16514 L 17538 16514 L 17538 16519 L 17538 16522 L 17538 16526 L 17538 16532 L 17538 16539 L 17538 16544 L 17538 16557 L 17538 16564 L 17555 16579 L 17555 16589 L 17555 16599 L 17576 16612 L 17576 16620 L 17576 16635 L 17576 16645 L 17596 16656 L 17596 16665 L 17596 16673 L 17596 16681 L 17596 16686 L 17596 16691 L 17596 16693 L 17596 16701 L 17596 16708 L 17596 16713 L 17596 16714 L 17614 16714 L 17636 16714 L 17657 16714 L 17657 16685 L 17687 16685 L 17707 16685 L 17733 16685 L 17761 16685 L 17793 16685 L 17814 16685 L 17834 16686 L 17849 16691 L 17874 16698 L 17892 16706 L 17914 16716 L 17933 16724 L 17952 16739 L 17952 16752 L 17983 16762 L 17983 16777 L 17983 16792 L 18006 16807 L 18006 16825 L 18006 16840 L 18006 16856 L 18001 16870 L 17993 16886 L 17973 16901 L 17952 16916 L 17927 16931 L 17900 16944 L 17869 16956 L 17839 16971 L 17809 16982 L 17778 16994 L 17753 17002 L 17728 17012 L 17702 17020 L 17675 17027 L 17656 17032 L 17641 17037 L 17634 17038 L 17621 17040 L 17616 17040 L 17611 17043 L 17606 17043 L 17601 17043 L 17593 17015" stroke="#00A0D7" stroke-width="50.00001" fill="none" stroke-linecap="round" stroke-linejoin="round"/>
<path d="M 21953 13168 L 23487 13168 L 23487 14449 L 21953 14449 L 21953 13168" stroke="#00A0D7" stroke-width="35" fill="none" stroke-linecap="round" stroke-linejoin="round"/>
<path d="M 22533 13581 L 22528 13581 L 22523 13581 L 22523 13546 L 22520 13546 L 22515 13546 L 22513 13546 L 22510 13546 L 22505 13546 L 22503 13546 L 22500 13546 L 22495 13546 L 22490 13546 L 22485 13546 L 22482 13521 L 22478 13521 L 22475 13521 L 22472 13521 L 22465 13521 L 22464 13521 L 22459 13521 L 22454 13521 L 22449 13521 L 22444 13521 L 22435 13521 L 22429 13521 L 22414 13526 L 22404 13540 L 22389 13551 L 22379 13566 L 22369 13583 L 22359 13601 L 22349 13621 L 22338 13647 L 22330 13669 L 22321 13695 L 22315 13723 L 22306 13750 L 22297 13770 L 22293 13791 L 22290 13813 L 22290 13832 L 22290 13851 L 22290 13862 L 22290 13875 L 22290 13889 L 22290 13897 L 22290 13903 L 22290 13908 L 22290 13917 L 22306 13923 L 22330 13937 L 22348 13941 L 22348 13945 L 22348 13951 L 22373 13956 L 22373 13961 L 22399 13970 L 22399 13975 L 22429 13976 L 22429 13981 L 22449 13984 L 22472 13984 L 22472 13991 L 22493 13991 L 22515 13991 L 22515 13961 L 22535 13961 L 22535 13928 L 22554 13928 L 22554 13894 L 22554 13856 L 22576 13821 L 22571 13789 L 22569 13789 L 22566 13789 L 22559 13789 L 22550 13761 L 22541 13761 L 22530 13761 L 22515 13761 L 22493 13761 L 22467 13761 L 22445 13761 L 22417 13761 L 22389 13761 L 22363 13761 L 22333 13761 L 22311 13761 L 22287 13761 L 22265 13761 L 22252 13761 L 22242 13761 L 22220 13761" stroke="#00A0D7" stroke-width="50.00001" fill="none" stroke-linecap="round" stroke-linejoin="round"/>
<path d="M 28531 13586 L 28526 13586 L 28521 13586 L 28521 13551 L 28518 13551 L 28513 13551 L 28511 13551 L 28508 13551 L 28503 13551 L 28501 13551 L 28498 13551 L 28493 13551 L 28488 13551 L 28483 13551 L 28480 13526 L 28476 13526 L 28473 13526 L 28470 13526 L 28463 13526 L 28462 13526 L 28457 13526 L 28452 13526 L 28447 13526 L 28442 13526 L 28433 13526 L 28427 13526 L 28412 13531 L 28402 13545 L 28387 13556 L 28377 13571 L 28367 13588 L 28357 13606 L 28347 13626 L 28336 13652 L 28328 13674 L 28319 13700 L 28313 13728 L 28304 13755 L 28295 13775 L 28291 13796 L 28288 13818 L 28288 13837 L 28288 13856 L 28288 13867 L 28288 13880 L 28288 13894 L 28288 13902 L 28288 13908 L 28288 13913 L 28288 13922 L 28304 13928 L 28328 13942 L 28346 13946 L 28346 13950 L 28346 13956 L 28371 13961 L 28371 13966 L 28397 13975 L 28397 13980 L 28427 13981 L 28427 13986 L 28447 13989 L 28470 13989 L 28470 13996 L 28491 13996 L 28513 13996 L 28513 13966 L 28533 13966 L 28533 13933 L 28552 13933 L 28552 13899 L 28552 13861 L 28574 13826 L 28569 13794 L 28567 13794 L 28564 13794 L 28557 13794 L 28548 13766 L 28539 13766 L 28528 13766 L 28513 13766 L 28491 13766 L 28465 13766 L 28443 13766 L 28415 13766 L 28387 13766 L 28361 13766 L 28331 13766 L 28309 13766 L 28285 13766 L 28263 13766 L 28250 13766 L 28240 13766 L 28218 13766" stroke="#00A0D7" stroke-width="50.00001" fill="none" stroke-linecap="round" stroke-linejoin="round"/></svg>