<svg xmlns="http://www.w3.org/2000/svg" width="17465" height="8962" viewBox="0 0 17465 8962"><path d="M 1773 696 L 1773 670 L 1797 670 L 1821 670 L 1841 670 L 1859 644 L 1879 644 L 1895 644 L 1893 644 L 1889 644 L 1883 644 L 1879 644 L 1867 644 L 1855 644 L 1833 646 L 1809 648 L 1787 656 L 1763 662 L 1739 672 L 1713 676 L 1687 682 L 1665 690 L 1639 700 L 1617 704 L 1597 712 L 1583 720 L 1575 730 L 1571 738 L 1571 748 L 1571 756 L 1593 766 L 1593 772 L 1625 784 L 1645 796 L 1673 806 L 1699 820 L 1727 834 L 1749 848 L 1771 860 L 1791 874 L 1791 890 L 1815 908 L 1815 926 L 1815 944 L 1813 964 L 1805 984 L 1787 1004 L 1769 1022 L 1745 1034 L 1717 1046 L 1685 1064 L 1653 1076 L 1625 1090 L 1597 1102 L 1567 1112 L 1541 1116 L 1519 1120 L 1501 1120 L 1495 1120" stroke="#000000" stroke-width="25.00001" fill="none" stroke-linecap="round" stroke-linejoin="round"/>
<path d="M 2091 610 L 2091 582 L 2107 582 L 2107 550 L 2105 550 L 2105 556 L 2105 578 L 2105 606 L 2103 634 L 2099 664 L 2099 700 L 2097 742 L 2095 784 L 2091 820 L 2087 862 L 2085 902 L 2085 942 L 2085 980 L 2083 1008 L 2083 1030 L 2079 1046 L 2075 1056 L 2075 1062 L 2075 1064 L 2095 1030 L 2115 998 L 2139 960 L 2157 920 L 2173 920 L 2173 892 L 2203 892 L 2203 858 L 2229 858 L 2255 834 L 2283 838 L 2283 844 L 2309 856 L 2309 872 L 2309 888 L 2327 912 L 2327 934 L 2327 958 L 2315 988 L 2299 998 L 2277 1028 L 2249 1056 L 2213 1078 L 2179 1092 L 2139 1110 L 2095 1122 L 2057 1136 L 2015 1140 L 1979 1140 L 1951 1140" stroke="#000000" stroke-width="25.00001" fill="none" stroke-linecap="round" stroke-linejoin="round"/>
<path d="M 4563 594 L 4559 594 L 4559 570 L 4555 570 L 4551 570 L 4549 570 L 4547 544 L 4545 544 L 4541 544 L 4539 544 L 4539 518 L 4537 518 L 4537 524 L 4537 540 L 4537 560 L 4537 580 L 4537 606 L 4537 636 L 4537 666 L 4537 702 L 4537 738 L 4537 772 L 4537 812 L 4535 848 L 4531 886 L 4529 922 L 4529 952 L 4529 976 L 4529 996 L 4529 1014 L 4529 1028 L 4529 1038 L 4529 1040 L 4529 1042 L 4549 1042 L 4573 1042 L 4597 1042 L 4625 1042 L 4645 1042 L 4665 1042 L 4689 1042 L 4711 1042 L 4733 1042 L 4757 1042 L 4779 1042 L 4803 1042 L 4829 1042 L 4853 1046 L 4877 1050 L 4903 1054 L 4931 1054 L 4951 1060 L 4977 1062 L 4993 1062 L 5015 1062 L 5035 1062 L 5055 1062 L 5073 1062 L 5093 1062 L 5115 1062 L 5133 1062 L 5155 1062 L 5175 1062 L 5195 1062 L 5231 1062 L 5253 1062 L 5277 1062 L 5303 1062 L 5325 1062 L 5351 1064 L 5377 1066 L 5401 1066 L 5427 1066 L 5455 1066 L 5477 1070 L 5503 1070 L 5527 1070 L 5549 1070 L 5573 1072 L 5593 1072 L 5615 1074 L 5637 1074 L 5657 1074 L 5681 1076 L 5705 1076 L 5725 1078 L 5749 1078 L 5771 1080 L 5799 1086 L 5821 1086 L 5841 1088 L 5865 1096 L 5887 1096 L 5911 1098 L 5935 1104 L 5955 1106 L 5975 1106 L 5999 1106 L 6017 1106 L 6039 1106 L 6061 1106 L 6083 1106 L 6105 1108 L 6131 1108 L 6153 1108 L 6173 1108 L 6201 1108 L 6223 1108 L 6249 1108 L 6277 1108 L 6305 1108 L 6329 1108 L 6357 1108 L 6387 1108 L 6415 1108 L 6439 1108 L 6467 1108 L 6493 1108 L 6521 1108 L 6547 1108 L 6571 1108 L 6595 1108 L 6621 1108 L 6645 1108 L 6669 1108 L 6691 1108 L 6717 1108 L 6733 1108 L 6755 1108 L 6777 1108 L 6797 1108 L 6815 1108 L 6833 1108 L 6849 1108 L 6867 1108 L 6887 1108 L 6919 1108 L 6945 1108 L 6971 1108 L 6993 1108 L 7021 1108 L 7051 1108 L 7079 1108 L 7113 1108 L 7131 1108 L 7149 1108 L 7171 1108 L 7191 1108 L 7213 1108 L 7231 1108 L 7259 1108 L 7289 1108 L 7319 1112 L 7349 1112 L 7385 1112 L 7415 1112 L 7449 1112 L 7483 1112 L 7521 1112 L 7557 1112 L 7595 1112 L 7637 1112 L 7673 1112 L 7713 1112 L 7751 1082 L 7793 1082 L 7837 1082 L 7875 1082 L 7913 1082 L 7953 1082 L 7995 1082 L 8035 1054 L 8073 1054 L 8109 1054 L 8147 1054 L 8183 1054 L 8217 1054 L 8255 1054 L 8291 1054 L 8321 1054 L 8353 1054 L 8385 1054 L 8415 1054 L 8449 1054 L 8481 1028 L 8509 1028 L 8537 1028 L 8569 1028 L 8593 1028 L 8619 1028 L 8645 1028 L 8665 1028 L 8685 1028 L 8705 1028 L 8725 1028 L 8743 1028 L 8761 1028 L 8789 1028 L 8823 1028 L 8847 1028 L 8875 1028 L 8903 1028 L 8903 1036 L 8931 1038 L 8931 1044 L 8961 1048 L 8961 1054 L 8989 1058 L 9019 1066 L 9039 1070 L 9075 1070 L 9101 1076 L 9123 1076 L 9149 1080 L 9171 1086 L 9197 1088 L 9229 1096 L 9263 1098 L 9295 1104 L 9331 1112 L 9363 1112 L 9399 1114 L 9431 1116 L 9467 1118 L 9505 1122 L 9539 1128 L 9577 1134 L 9617 1140 L 9657 1144 L 9697 1144 L 9731 1150 L 9765 1156 L 9805 1162 L 9839 1164 L 9873 1168 L 9903 1172 L 9937 1176 L 9969 1182 L 9999 1186 L 10029 1188 L 10057 1194 L 10087 1198 L 10113 1198 L 10145 1198 L 10173 1198 L 10201 1200 L 10229 1202 L 10257 1208 L 10287 1210 L 10317 1210 L 10345 1210 L 10375 1216 L 10407 1220 L 10437 1224 L 10465 1230 L 10493 1236 L 10523 1236 L 10549 1238 L 10577 1246 L 10603 1250 L 10637 1254 L 10669 1258 L 10701 1260 L 10737 1264 L 10769 1266 L 10799 1268 L 10831 1268 L 10861 1268 L 10899 1268 L 10935 1268 L 10967 1268 L 11003 1268 L 11037 1268 L 11077 1268 L 11105 1268 L 11137 1268 L 11169 1268 L 11201 1270 L 11229 1270 L 11261 1270 L 11291 1270 L 11319 1270 L 11347 1270 L 11377 1274 L 11399 1274 L 11429 1276 L 11457 1276 L 11485 1276 L 11509 1278 L 11539 1278 L 11571 1278 L 11601 1278 L 11633 1278 L 11667 1278 L 11701 1278 L 11741 1278 L 11779 1278 L 11817 1278 L 11859 1278 L 11899 1278 L 11937 1278 L 11975 1278 L 12013 1278 L 12045 1278 L 12079 1278 L 12111 1278 L 12139 1278 L 12167 1278 L 12191 1278 L 12217 1278 L 12243 1278 L 12263 1278 L 12283 1278 L 12303 1278 L 12325 1278 L 12345 1278 L 12369 1278 L 12391 1278 L 12417 1278 L 12441 1278 L 12467 1278 L 12493 1278 L 12521 1278 L 12551 1278 L 12579 1278 L 12609 1278 L 12643 1278 L 12673 1278 L 12701 1278 L 12735 1278 L 12769 1278 L 12797 1254 L 12827 1254 L 12863 1254 L 12891 1254 L 12919 1254 L 12947 1254 L 12979 1254 L 13009 1254 L 13037 1254 L 13063 1254 L 13093 1254 L 13121 1254 L 13149 1254 L 13181 1254 L 13205 1254 L 13237 1254 L 13265 1254 L 13295 1226 L 13325 1226 L 13353 1226 L 13381 1226 L 13407 1226 L 13433 1226 L 13459 1226 L 13487 1226 L 13513 1226 L 13539 1226 L 13563 1226 L 13593 1200 L 13613 1200 L 13637 1200 L 13663 1200 L 13689 1200 L 13717 1200 L 13747 1200 L 13773 1200 L 13801 1200 L 13831 1200 L 13859 1200 L 13885 1200 L 13909 1200 L 13935 1200 L 13963 1200 L 13985 1200 L 14009 1200 L 14031 1200 L 14049 1200 L 14065 1200 L 14085 1200 L 14113 1200 L 14137 1200 L 14159 1200 L 14179 1200 L 14197 1200 L 14219 1200 L 14241 1200 L 14259 1200 L 14281 1200 L 14281 1172 L 14297 1172 L 14297 1144 L 14315 1144 L 14311 1144 L 14311 1114 L 14309 1114 L 14307 1082 L 14303 1082 L 14301 1052 L 14299 1018 L 14297 1018 L 14297 980 L 14293 980 L 14289 936 L 14289 936 L 14285 894 L 14281 894 L 14281 856 L 14277 856 L 14277 818 L 14275 818 L 14273 790 L 14269 790 L 14269 758 L 14261 758 L 14261 732 L 14259 732 L 14257 732 L 14257 706 L 14255 706 L 14251 706 L 14249 678 L 14247 650 L 14241 650 L 14241 650 L 14235 618 L 14233 618 L 14231 618 L 14227 590 L 14227 558 L 14227 532 L 14227 534 L 14241 534 L 14241 534" stroke="#000000" stroke-width="25.00001" fill="none" stroke-linecap="round" stroke-linejoin="round"/>
<path d="M 4865 1586 L 4883 1586 L 4881 1586 L 4903 1586" stroke="#000000" stroke-width="25.00001" fill="none" stroke-linecap="round" stroke-linejoin="round"/>
<path d="M 4903 1616 L 4903 1616 L 4899 1620 L 4897 1620 L 4889 1620 L 4887 1620 L 4881 1620 L 4879 1620 L 4877 1620 L 4873 1620 L 4871 1620 L 4871 1622 L 4869 1630 L 4869 1640 L 4869 1650 L 4869 1664 L 4869 1678 L 4865 1700 L 4865 1724 L 4865 1754 L 4865 1784 L 4865 1816 L 4865 1850 L 4865 1884 L 4865 1920 L 4865 1954 L 4865 1984 L 4865 2012 L 4865 2038 L 4865 2062 L 4865 2080 L 4865 2098 L 4865 2110 L 4865 2116 L 4865 2118 L 4865 2088 L 4865 2052 L 4887 2022 L 4887 1994 L 4905 1994 L 4923 1994 L 4923 1994 L 4923 1998 L 4923 2000 L 4923 2002 L 4923 2006 L 4923 2008 L 4923 2010 L 4923 2012 L 4923 2014 L 4923 2016 L 4923 2018 L 4923 2020 L 4923 2022 L 4923 2024 L 4919 2024 L 4917 2024 L 4917 2026 L 4917 2028 L 4917 2032 L 4917 2032 L 4917 2036 L 4917 2040 L 4937 2040 L 4937 2042 L 4957 2046 L 4977 2046 L 5005 2046 L 5023 2046 L 5041 2048 L 5061 2050 L 5087 2050 L 5111 2050 L 5137 2052 L 5163 2054 L 5191 2054 L 5219 2054 L 5245 2054 L 5271 2054 L 5299 2054 L 5327 2054 L 5357 2054 L 5383 2056 L 5411 2056 L 5433 2056 L 5461 2056 L 5489 2056 L 5515 2056 L 5545 2056 L 5577 2056 L 5603 2056 L 5639 2056 L 5671 2056 L 5705 2056 L 5739 2056 L 5767 2056 L 5801 2056 L 5827 2056 L 5857 2056 L 5883 2056 L 5911 2056 L 5939 2032 L 5959 2032 L 5983 2032 L 6005 2032 L 6025 2032 L 6045 2032 L 6065 2032 L 6085 2032 L 6107 2032 L 6129 2032 L 6149 2002 L 6169 2002 L 6191 2002 L 6213 2002 L 6233 2002 L 6251 2002 L 6269 2002 L 6295 2002 L 6311 2002 L 6329 2002 L 6349 2002 L 6367 2002 L 6367 2004 L 6385 2008 L 6385 2012 L 6385 2012 L 6407 2018 L 6407 2020 L 6407 2022 L 6431 2024 L 6431 2026 L 6449 2026 L 6445 1992 L 6439 1992 L 6437 1964 L 6431 1964 L 6427 1926 L 6421 1926 L 6417 1878 L 6413 1850 L 6407 1822 L 6403 1790 L 6397 1758 L 6397 1726 L 6391 1694 L 6387 1664 L 6385 1640 L 6385 1614 L 6383 1614 L 6379 1572 L 6379 1536 L 6379 1536 L 6375 1506 L 6371 1506 L 6369 1506 L 6367 1506 L 6365 1506 L 6359 1506 L 6353 1506 L 6349 1506 L 6341 1506 L 6331 1506 L 6317 1506 L 6301 1506 L 6283 1506 L 6261 1506 L 6241 1506 L 6213 1506 L 6181 1506 L 6147 1506 L 6109 1506 L 6067 1506 L 6025 1506 L 5977 1474 L 5929 1474 L 5881 1474 L 5829 1474 L 5781 1474 L 5731 1448 L 5681 1448 L 5629 1448 L 5577 1448 L 5529 1448 L 5481 1448 L 5433 1420 L 5393 1420 L 5349 1420 L 5307 1420 L 5271 1420 L 5231 1420 L 5195 1420 L 5167 1420 L 5139 1420 L 5117 1420 L 5095 1420 L 5075 1420 L 5057 1420 L 5045 1420 L 5029 1420 L 5013 1420 L 5001 1420 L 4991 1420 L 4979 1420 L 4969 1420 L 4959 1420 L 4951 1420 L 4939 1420 L 4931 1420 L 4919 1420 L 4909 1422 L 4905 1422 L 4897 1424 L 4891 1424 L 4887 1428 L 4883 1428 L 4879 1428 L 4877 1430 L 4871 1432 L 4871 1434 L 4869 1438 L 4861 1440 L 4855 1444 L 4851 1448 L 4849 1452 L 4843 1458 L 4835 1458 L 4823 1462 L 4819 1466 L 4811 1470 L 4803 1474 L 4793 1478 L 4789 1482 L 4781 1486 L 4775 1488 L 4767 1490 L 4763 1490 L 4763 1492 L 4761 1494 L 4761 1496 L 4761 1498 L 4761 1500 L 4761 1504 L 4761 1506 L 4777 1506 L 4777 1512 L 4777 1516 L 4777 1518 L 4803 1520 L 4803 1526 L 4803 1532 L 4819 1538 L 4819 1544 L 4819 1552 L 4843 1560 L 4843 1572 L 4861 1582 L 4861 1592 L 4879 1602 L 4879 1614" stroke="#000000" stroke-width="25.00001" fill="none" stroke-linecap="round" stroke-linejoin="round"/>
<path d="M 12792 4926 L 12792 4926 L 12790 4898 L 12784 4898 L 12782 4898 L 12778 4898 L 12774 4898 L 12772 4898 L 12768 4898 L 12766 4898 L 12764 4898 L 12764 4874 L 12764 4876 L 12760 4876 L 12760 4880 L 12760 4882 L 12760 4888 L 12760 4898 L 12760 4910 L 12760 4922 L 12760 4940 L 12760 4958 L 12760 4978 L 12778 5004 L 12778 5030 L 12778 5060 L 12778 5092 L 12778 5122 L 12796 5156 L 12796 5186 L 12796 5216 L 12796 5242 L 12796 5266 L 12812 5292 L 12812 5312 L 12812 5328 L 12812 5346 L 12812 5356 L 12812 5364 L 12812 5372 L 12832 5376 L 12832 5378 L 12832 5380 L 12846 5380 L 12864 5380 L 12892 5380 L 12916 5380 L 12944 5380 L 12966 5380 L 12988 5380 L 13008 5380 L 13036 5380 L 13062 5380 L 13090 5380 L 13118 5380 L 13146 5380 L 13178 5380 L 13206 5380 L 13234 5380 L 13262 5380 L 13296 5380 L 13330 5380 L 13362 5380 L 13390 5380 L 13422 5380 L 13448 5380 L 13476 5380 L 13508 5380 L 13540 5380 L 13568 5380 L 13598 5380 L 13628 5380 L 13660 5380 L 13694 5380 L 13728 5382 L 13762 5386 L 13796 5390 L 13830 5390 L 13866 5392 L 13900 5396 L 13934 5398 L 13966 5400 L 14000 5402 L 14036 5408 L 14070 5408 L 14104 5414 L 14138 5418 L 14158 5422 L 14192 5428 L 14224 5428 L 14254 5434 L 14284 5436 L 14314 5442 L 14340 5444 L 14368 5444 L 14394 5448 L 14422 5450 L 14446 5452 L 14476 5452 L 14500 5456 L 14528 5456 L 14554 5458 L 14580 5458 L 14610 5458 L 14638 5458 L 14664 5458 L 14692 5458 L 14722 5462 L 14750 5462 L 14780 5466 L 14804 5468 L 14830 5468 L 14856 5468 L 14878 5468 L 14904 5468 L 14924 5468 L 14946 5468 L 14970 5468 L 14992 5468 L 15014 5468 L 15034 5468 L 15052 5468 L 15072 5468 L 15088 5468 L 15108 5442 L 15122 5442 L 15142 5442 L 15160 5442 L 15188 5416 L 15204 5416 L 15226 5416 L 15226 5390 L 15250 5390 L 15276 5390 L 15298 5390 L 15322 5362 L 15340 5362 L 15360 5362 L 15378 5362 L 15400 5362 L 15400 5340 L 15394 5340 L 15392 5310 L 15384 5310 L 15378 5310 L 15374 5310 L 15366 5276 L 15360 5276 L 15356 5276 L 15346 5242 L 15344 5242 L 15336 5210 L 15332 5210 L 15328 5178 L 15322 5178 L 15322 5140 L 15318 5140 L 15318 5106 L 15314 5074 L 15312 5044 L 15312 5008 L 15312 4980 L 15312 4956 L 15312 4928 L 15312 4902 L 15308 4902 L 15300 4902 L 15296 4902 L 15290 4902 L 15280 4902 L 15270 4902 L 15258 4902 L 15240 4872 L 15222 4872 L 15202 4872 L 15176 4872 L 15154 4872 L 15128 4844 L 15102 4844 L 15074 4844 L 15042 4844 L 15006 4818 L 14970 4818 L 14934 4818 L 14900 4818 L 14864 4818 L 14830 4818 L 14796 4788 L 14762 4788 L 14730 4788 L 14694 4788 L 14664 4788 L 14630 4788 L 14596 4788 L 14564 4788 L 14534 4788 L 14506 4788 L 14468 4764 L 14436 4764 L 14400 4764 L 14372 4764 L 14340 4764 L 14308 4764 L 14276 4764 L 14242 4764 L 14210 4764 L 14180 4764 L 14146 4764 L 14116 4764 L 14084 4764 L 14056 4764 L 14028 4764 L 14000 4764 L 13972 4764 L 13946 4764 L 13916 4764 L 13894 4764 L 13870 4764 L 13844 4764 L 13818 4764 L 13796 4764 L 13770 4764 L 13746 4764 L 13724 4764 L 13696 4764 L 13670 4764 L 13646 4764 L 13618 4764 L 13592 4764 L 13568 4764 L 13546 4764 L 13524 4764 L 13500 4764 L 13484 4764 L 13464 4764 L 13448 4764 L 13436 4766 L 13422 4766 L 13410 4766 L 13398 4768 L 13388 4768 L 13380 4770 L 13366 4770 L 13356 4772 L 13342 4772 L 13330 4774 L 13314 4776 L 13300 4778 L 13280 4780 L 13262 4782 L 13246 4782 L 13224 4784 L 13204 4784 L 13182 4784 L 13162 4784 L 13140 4786 L 13120 4786 L 13098 4786 L 13078 4788 L 13056 4788 L 13036 4788 L 13020 4792 L 13004 4792 L 12988 4792 L 12970 4792 L 12958 4794 L 12948 4796 L 12934 4796 L 12924 4796 L 12914 4796 L 12906 4796 L 12898 4796 L 12892 4798 L 12888 4798 L 12882 4798 L 12878 4798 L 12874 4798 L 12864 4798 L 12860 4798 L 12852 4798 L 12846 4800 L 12840 4802 L 12834 4802 L 12828 4806 L 12824 4806 L 12816 4806 L 12806 4810 L 12804 4810 L 12796 4810 L 12788 4812 L 12778 4814 L 12774 4814 L 12766 4814 L 12760 4814 L 12756 4816 L 12750 4816 L 12746 4818 L 12744 4818 L 12738 4818 L 12732 4818 L 12730 4818 L 12728 4820 L 12724 4820 L 12722 4820 L 12720 4820 L 12718 4820 L 12718 4822 L 12736 4824" stroke="#000000" stroke-width="25.00001" fill="none" stroke-linecap="round" stroke-linejoin="round"/>
<path d="M 1297 1854 L 1297 1854 L 1317 1820 L 1317 1790 L 1317 1764 L 1311 1764 L 1311 1764 L 1299 1764 L 1291 1764 L 1277 1764 L 1269 1764 L 1253 1764 L 1231 1770 L 1211 1774 L 1189 1786 L 1169 1800 L 1143 1814 L 1121 1832 L 1099 1848 L 1079 1868 L 1061 1888 L 1051 1906 L 1043 1926 L 1041 1946 L 1039 1964 L 1039 1982 L 1039 2000 L 1055 2016 L 1055 2026 L 1091 2036 L 1111 2044 L 1131 2048 L 1159 2052 L 1183 2054 L 1203 2054 L 1225 2054 L 1245 2054 L 1263 2054 L 1283 2054 L 1299 2054" stroke="#000000" stroke-width="25.00001" fill="none" stroke-linecap="round" stroke-linejoin="round"/>
<path d="M 14664 5862 L 14660 5862 L 14660 5836 L 14660 5810 L 14660 5812 L 14660 5814 L 14658 5814 L 14658 5818 L 14658 5822 L 14658 5828 L 14658 5836 L 14658 5848 L 14658 5862 L 14658 5876 L 14658 5892 L 14658 5912 L 14658 5932 L 14658 5952 L 14658 5978 L 14658 6000 L 14658 6030 L 14676 6054 L 14676 6078 L 14676 6106 L 14676 6128 L 14676 6150 L 14676 6170 L 14676 6188 L 14676 6206 L 14676 6220 L 14676 6238 L 14676 6248 L 14676 6258 L 14676 6270 L 14676 6280 L 14676 6282 L 14676 6288 L 14676 6296 L 14692 6304 L 14692 6308 L 14688 6310 L 14688 6314 L 14688 6316 L 14688 6318 L 14706 6318 L 14706 6294 L 14730 6294 L 14748 6294 L 14768 6294 L 14792 6294 L 14818 6294 L 14850 6294 L 14870 6294 L 14904 6294 L 14922 6294 L 14938 6294 L 14958 6294 L 14978 6294 L 14998 6294 L 15024 6294 L 15048 6294 L 15076 6294 L 15106 6294 L 15130 6294 L 15156 6294 L 15182 6294 L 15214 6294 L 15242 6294 L 15270 6294 L 15300 6294 L 15328 6294 L 15350 6296 L 15374 6300 L 15400 6306 L 15424 6310 L 15442 6316 L 15466 6324 L 15490 6326 L 15508 6328 L 15530 6330 L 15548 6330 L 15570 6334 L 15590 6338 L 15614 6342 L 15636 6342 L 15660 6342 L 15686 6344 L 15712 6344 L 15738 6344 L 15764 6344 L 15792 6344 L 15818 6344 L 15844 6344 L 15870 6344 L 15898 6344 L 15924 6344 L 15952 6346 L 15976 6348 L 16006 6350 L 16032 6350 L 16058 6354 L 16086 6356 L 16112 6356 L 16140 6360 L 16164 6360 L 16194 6360 L 16218 6360 L 16250 6362 L 16278 6362 L 16302 6362 L 16330 6362 L 16352 6362 L 16378 6362 L 16402 6362 L 16426 6362 L 16456 6362 L 16480 6362 L 16506 6362 L 16530 6362 L 16554 6362 L 16576 6362 L 16604 6334 L 16626 6334 L 16654 6334 L 16682 6334 L 16706 6334 L 16732 6334 L 16760 6334 L 16786 6334 L 16810 6334 L 16834 6334 L 16854 6334 L 16878 6334 L 16894 6334 L 16912 6334 L 16948 6334 L 16976 6334 L 16994 6334 L 17018 6334 L 17046 6334 L 17070 6334 L 17098 6334 L 17124 6334 L 17152 6334 L 17174 6334 L 17192 6334 L 17210 6334 L 17210 6308 L 17210 6276 L 17210 6246 L 17210 6212 L 17210 6170 L 17210 6122 L 17210 6076 L 17232 6028 L 17232 5986 L 17232 5960 L 17248 5960 L 17246 5960 L 17246 5932 L 17238 5932 L 17238 5904 L 17238 5904 L 17232 5904 L 17226 5904 L 17224 5880 L 17218 5880 L 17216 5880 L 17216 5850 L 17212 5850 L 17210 5850 L 17210 5826 L 17208 5826 L 17200 5826 L 17194 5826 L 17190 5826 L 17182 5800 L 17178 5800 L 17172 5800 L 17164 5800 L 17156 5800 L 17150 5800 L 17138 5800 L 17124 5800 L 17112 5800 L 17098 5800 L 17084 5800 L 17070 5800 L 17058 5802 L 17046 5806 L 17030 5808 L 17010 5810 L 16996 5810 L 16976 5812 L 16958 5812 L 16932 5814 L 16912 5814 L 16894 5814 L 16872 5814 L 16852 5814 L 16832 5814 L 16810 5814 L 16790 5814 L 16770 5814 L 16750 5814 L 16728 5814 L 16710 5814 L 16692 5814 L 16674 5814 L 16656 5814 L 16642 5814 L 16626 5814 L 16608 5814 L 16590 5814 L 16572 5814 L 16552 5814 L 16530 5814 L 16508 5814 L 16484 5814 L 16458 5814 L 16430 5814 L 16406 5814 L 16374 5814 L 16344 5814 L 16316 5814 L 16288 5814 L 16260 5814 L 16234 5814 L 16208 5814 L 16186 5814 L 16158 5814 L 16140 5814 L 16114 5814 L 16094 5814 L 16072 5814 L 16054 5814 L 16034 5814 L 16012 5814 L 15986 5814 L 15960 5814 L 15938 5814 L 15910 5814 L 15882 5788 L 15854 5788 L 15826 5788 L 15800 5788 L 15772 5788 L 15744 5788 L 15714 5788 L 15690 5760 L 15668 5760 L 15648 5760 L 15630 5760 L 15612 5760 L 15594 5760 L 15576 5760 L 15562 5760 L 15544 5760 L 15538 5760 L 15520 5760 L 15506 5760 L 15488 5760 L 15470 5760 L 15448 5760 L 15428 5760 L 15406 5760 L 15384 5760 L 15360 5760 L 15338 5760 L 15314 5760 L 15290 5734 L 15260 5734 L 15234 5734 L 15208 5734 L 15180 5734 L 15156 5734 L 15134 5734 L 15114 5734 L 15094 5734 L 15076 5734 L 15060 5734 L 15042 5734 L 15030 5734 L 15014 5734 L 15006 5734 L 15002 5734 L 14994 5734 L 14992 5734 L 14986 5734 L 14980 5734 L 14978 5734 L 14970 5734 L 14964 5734 L 14960 5734 L 14956 5734 L 14950 5734 L 14946 5734 L 14942 5734 L 14936 5734 L 14932 5734 L 14924 5734 L 14914 5734 L 14908 5734 L 14898 5734 L 14888 5734 L 14878 5734 L 14868 5734 L 14860 5734 L 14850 5734 L 14838 5734 L 14826 5734 L 14816 5734 L 14804 5736 L 14794 5736 L 14788 5736 L 14780 5736 L 14772 5738 L 14766 5740 L 14762 5742 L 14754 5742 L 14750 5742 L 14746 5742 L 14742 5742 L 14738 5742 L 14736 5744 L 14730 5744 L 14726 5746 L 14726 5748 L 14722 5748 L 14720 5750 L 14716 5750 L 14708 5750 L 14706 5750 L 14698 5752 L 14694 5752 L 14688 5752 L 14684 5754 L 14676 5756 L 14670 5758 L 14664 5758 L 14658 5758 L 14652 5758 L 14648 5760 L 14642 5760 L 14640 5762 L 14634 5764 L 14630 5766 L 14626 5766 L 14622 5766 L 14618 5766 L 14612 5766 L 14610 5766 L 14606 5766 L 14604 5766 L 14604 5768 L 14602 5772 L 14598 5772 L 14596 5772 L 14592 5772 L 14592 5772 L 14592 5774 L 14592 5780" stroke="#000000" stroke-width="25.00001" fill="none" stroke-linecap="round" stroke-linejoin="round"/>
<path d="M 13669 182 L 13665 182 L 13659 182 L 13653 182 L 13651 150 L 13645 150 L 13645 150 L 13637 150 L 13633 150 L 13631 150 L 13625 122 L 13623 122 L 13619 124 L 13617 124 L 13617 128 L 13617 132 L 13617 136 L 13617 138 L 13617 140 L 13617 144 L 13637 148 L 13637 154 L 13659 158 L 13659 164 L 13683 168 L 13703 168 L 13721 168 L 13741 168 L 13761 168 L 13787 168 L 13811 168 L 13843 168 L 13871 140 L 13899 140 L 13923 140 L 13945 112 L 13963 112 L 13963 86 L 13995 86 L 13995 48 L 13995 16 L 13979 16 L 13963 16 L 13945 16 L 13923 16 L 13903 16 L 13883 16 L 13865 16 L 13847 24 L 13835 30 L 13819 44 L 13807 62 L 13797 80 L 13789 96 L 13789 116 L 13781 130 L 13781 148 L 13779 166 L 13779 180 L 13779 196 L 13779 208 L 13779 218 L 13803 224 L 13803 234 L 13803 238 L 13823 242 L 13823 244 L 13847 244 L 13867 244 L 13891 244 L 13917 244 L 13941 216 L 13963 216 L 13987 216 L 14007 216" stroke="#000000" stroke-width="25.00001" fill="none" stroke-linecap="round" stroke-linejoin="round"/>
<path d="M 14159 312 L 14159 312 L 14159 280 L 14155 280 L 14177 280 L 14177 292 L 14177 298 L 14195 310 L 14195 320 L 14195 328 L 14215 334 L 14215 340 L 14231 346 L 14257 346 L 14257 322 L 14277 322 L 14297 322 L 14297 298 L 14319 298 L 14337 298 L 14337 270 L 14355 270 L 14355 272 L 14375 278 L 14375 290 L 14397 304 L 14417 310 L 14417 330 L 14439 350 L 14439 368 L 14457 390 L 14457 406 L 14457 422 L 14477 448 L 14477 458 L 14477 462 L 14495 462 L 14513 436 L 14513 402 L 14537 402 L 14537 364 L 14537 326 L 14555 326 L 14555 292 L 14577 266 L 14577 270 L 14577 276 L 14577 284 L 14595 290 L 14595 298 L 14595 308 L 14595 318 L 14595 324 L 14615 334 L 14615 344 L 14633 350 L 14633 356 L 14657 360 L 14657 364 L 14685 368 L 14685 372 L 14715 372 L 14739 372 L 14765 372 L 14783 372 L 14783 340 L 14783 314 L 14773 314 L 14765 314 L 14755 314 L 14745 314 L 14737 314 L 14727 314 L 14719 314 L 14709 288" stroke="#000000" stroke-width="25.00001" fill="none" stroke-linecap="round" stroke-linejoin="round"/>
<path d="M 14731 188 L 14731 188 L 14731 150 L 14753 150 L 14753 116 L 14773 116 L 14773 78 L 14773 44 L 14793 44 L 14793 10 L 14809 10 L 14809 14 L 14809 34 L 14809 56 L 14829 86 L 14829 118 L 14829 156 L 14829 198 L 14845 242 L 14845 286 L 14845 330 L 14867 374 L 14867 418 L 14883 458 L 14883 492 L 14883 520" stroke="#000000" stroke-width="25.00001" fill="none" stroke-linecap="round" stroke-linejoin="round"/>
<path d="M 12264 5496 L 12264 5464 L 12282 5464 L 12278 5464 L 12278 5464 L 12274 5464 L 12270 5464 L 12266 5464 L 12266 5472 L 12288 5478 L 12288 5488 L 12288 5500 L 12288 5514 L 12288 5530 L 12288 5548 L 12288 5566 L 12288 5582 L 12288 5602 L 12288 5622 L 12288 5642 L 12288 5662 L 12288 5680 L 12288 5694 L 12284 5708 L 12278 5720 L 12274 5726 L 12270 5730 L 12268 5730 L 12266 5730 L 12266 5700 L 12284 5662 L 12284 5620 L 12284 5574 L 12306 5574 L 12306 5530 L 12328 5490 L 12328 5460 L 12350 5460 L 12350 5428 L 12370 5430 L 12370 5434 L 12370 5444 L 12370 5454 L 12370 5462 L 12366 5472 L 12364 5482 L 12356 5496 L 12352 5506 L 12344 5518 L 12336 5530 L 12326 5538 L 12320 5550 L 12316 5558 L 12310 5566 L 12308 5570 L 12302 5576 L 12302 5582 L 12302 5586 L 12302 5588 L 12302 5592 L 12334 5596 L 12334 5600 L 12370 5608 L 12392 5616 L 12408 5624 L 12432 5634 L 12450 5642 L 12468 5652 L 12468 5660 L 12498 5664 L 12498 5674 L 12526 5680 L 12526 5688 L 12526 5694 L 12540 5702 L 12540 5708 L 12540 5710 L 12536 5710" stroke="#000000" stroke-width="25.00001" fill="none" stroke-linecap="round" stroke-linejoin="round"/>
<path d="M 12778 5484 L 12778 5484 L 12792 5484 L 12792 5484 L 12784 5484 L 12778 5484 L 12762 5484 L 12744 5484 L 12720 5484 L 12696 5484 L 12668 5484 L 12640 5484 L 12614 5484 L 12592 5484 L 12566 5484 L 12540 5458 L 12516 5458 L 12498 5458 L 12486 5458 L 12476 5458 L 12504 5460 L 12522 5464 L 12542 5470 L 12564 5474 L 12582 5480 L 12618 5480 L 12636 5488 L 12636 5492 L 12664 5494 L 12688 5494 L 12688 5498 L 12706 5504 L 12706 5508 L 12706 5516 L 12706 5524 L 12724 5536 L 12724 5548 L 12724 5564 L 12724 5580 L 12724 5598 L 12724 5618 L 12724 5630 L 12724 5652 L 12724 5668 L 12724 5682 L 12724 5702 L 12724 5718 L 12724 5732 L 12724 5746 L 12724 5756 L 12738 5756 L 12738 5762" stroke="#000000" stroke-width="25.00001" fill="none" stroke-linecap="round" stroke-linejoin="round"/>
<path d="M 14504 6574 L 14504 6574 L 14500 6574 L 14498 6574 L 14496 6574 L 14492 6548 L 14490 6548 L 14488 6548 L 14484 6548 L 14482 6548 L 14482 6550 L 14482 6550 L 14482 6558 L 14482 6564 L 14482 6572 L 14482 6586 L 14482 6602 L 14482 6626 L 14500 6650 L 14500 6674 L 14500 6696 L 14500 6718 L 14500 6740 L 14500 6760 L 14500 6780 L 14522 6804 L 14522 6820 L 14522 6836 L 14522 6846 L 14522 6854 L 14518 6854 L 14516 6854 L 14510 6854 L 14510 6828 L 14508 6794 L 14506 6794 L 14506 6748 L 14506 6702 L 14506 6650 L 14506 6622 L 14532 6596 L 14546 6554 L 14566 6524 L 14586 6524 L 14586 6496 L 14610 6496 L 14626 6496 L 14646 6498 L 14646 6506 L 14646 6512 L 14646 6518 L 14646 6526 L 14646 6536 L 14640 6544 L 14634 6552 L 14630 6560 L 14622 6568 L 14614 6574 L 14606 6576 L 14604 6584 L 14596 6590 L 14592 6598 L 14588 6602 L 14588 6612 L 14588 6620 L 14588 6628 L 14588 6638 L 14604 6650 L 14604 6660 L 14624 6668 L 14624 6682 L 14646 6696 L 14646 6712 L 14672 6728 L 14672 6742 L 14694 6756 L 14694 6768 L 14722 6776 L 14722 6788 L 14748 6798 L 14748 6804 L 14766 6808 L 14766 6814 L 14788 6814" stroke="#000000" stroke-width="25.00001" fill="none" stroke-linecap="round" stroke-linejoin="round"/>
<path d="M 14922 6526 L 14922 6526 L 14922 6500 L 14938 6500 L 14936 6470 L 14934 6470 L 14930 6470 L 14926 6470 L 14924 6470 L 14918 6470 L 14906 6470 L 14892 6470 L 14878 6470 L 14862 6470 L 14840 6472 L 14818 6474 L 14796 6476 L 14774 6480 L 14754 6482 L 14736 6484 L 14716 6492 L 14698 6492 L 14680 6496 L 14668 6496 L 14658 6498 L 14650 6500 L 14650 6504 L 14668 6510" stroke="#000000" stroke-width="25.00001" fill="none" stroke-linecap="round" stroke-linejoin="round"/>
<path d="M 14816 6518 L 14834 6518 L 14854 6518 L 14850 6522 L 14846 6532 L 14844 6542 L 14844 6558 L 14844 6574 L 14844 6590 L 14844 6606 L 14844 6622 L 14844 6642 L 14844 6658 L 14844 6676 L 14844 6696 L 14862 6712 L 14862 6726 L 14858 6742 L 14858 6754 L 14858 6760" stroke="#000000" stroke-width="25.00001" fill="none" stroke-linecap="round" stroke-linejoin="round"/>
<path d="M 3913 226 L 3931 226 L 3931 198 L 3929 200 L 3921 202 L 3911 204 L 3899 208 L 3889 212 L 3871 218 L 3857 224 L 3839 232 L 3823 240 L 3811 252 L 3795 258 L 3779 268 L 3775 278 L 3765 284 L 3755 292 L 3749 300 L 3749 310 L 3749 320 L 3749 326 L 3767 336 L 3767 346 L 3795 354 L 3795 364 L 3831 374 L 3851 380 L 3871 390 L 3893 396 L 3913 406 L 3931 416 L 3955 424 L 3973 436 L 3973 442 L 3993 452 L 3993 464 L 3993 474 L 3993 484 L 3993 498 L 3993 504 L 3985 514 L 3973 514 L 3959 522 L 3947 530 L 3935 540 L 3925 546 L 3911 552 L 3907 558 L 3899 558" stroke="#000000" stroke-width="25.00001" fill="none" stroke-linecap="round" stroke-linejoin="round"/>
<path d="M 4115 180 L 4115 180 L 4115 152 L 4131 152 L 4129 152 L 4129 154 L 4129 168 L 4129 186 L 4129 208 L 4151 232 L 4151 256 L 4151 288 L 4167 318 L 4167 350 L 4167 380 L 4167 408 L 4189 436 L 4189 462 L 4189 486 L 4189 508 L 4211 526 L 4211 538" stroke="#000000" stroke-width="25.00001" fill="none" stroke-linecap="round" stroke-linejoin="round"/>
<path d="M 4281 436 L 4279 402 L 4273 370 L 4267 370 L 4261 370 L 4251 370 L 4239 374 L 4225 376 L 4205 386 L 4183 394 L 4161 402 L 4135 410 L 4113 418 L 4087 422 L 4065 432 L 4047 438" stroke="#000000" stroke-width="25.00001" fill="none" stroke-linecap="round" stroke-linejoin="round"/>
<path d="M 4281 392 L 4305 392 L 4335 392 L 4335 364 L 4353 364 L 4353 366 L 4353 374 L 4353 382 L 4353 388 L 4353 398 L 4353 406 L 4353 416 L 4371 422 L 4371 424 L 4371 426 L 4399 426 L 4421 390 L 4421 356 L 4421 320 L 4413 320 L 4395 320 L 4385 320 L 4369 320 L 4353 324" stroke="#000000" stroke-width="25.00001" fill="none" stroke-linecap="round" stroke-linejoin="round"/>
<path d="M 4419 354 L 4449 354 L 4449 330 L 4471 330 L 4491 302 L 4491 304 L 4491 312 L 4491 320 L 4507 332 L 4507 344 L 4507 354 L 4531 368 L 4531 378" stroke="#000000" stroke-width="25.00001" fill="none" stroke-linecap="round" stroke-linejoin="round"/>
<path d="M 4605 358 L 4605 358 L 4605 328 L 4605 340 L 4623 354 L 4623 366 L 4639 380 L 4639 392 L 4639 404 L 4659 416 L 4659 426 L 4659 434 L 4659 438 L 4659 440 L 4659 414 L 4659 378 L 4659 334 L 4679 288 L 4695 248 L 4721 218 L 4753 218 L 4775 190 L 4795 190 L 4817 190 L 4839 190" stroke="#000000" stroke-width="25.00001" fill="none" stroke-linecap="round" stroke-linejoin="round"/>
<path d="M 5039 164 L 5039 164 L 5039 130 L 5035 102 L 5035 104 L 5035 110 L 5029 122 L 5025 138 L 5025 162 L 5025 190 L 5025 224 L 5025 260 L 5025 298 L 5025 334 L 5025 372 L 5025 408 L 5043 448 L 5043 484 L 5043 514 L 5065 542 L 5065 566 L 5065 584" stroke="#000000" stroke-width="25.00001" fill="none" stroke-linecap="round" stroke-linejoin="round"/>
<path d="M 5165 410 L 5161 380 L 5155 380 L 5149 352 L 5141 352 L 5131 352 L 5119 352 L 5101 352 L 5079 352 L 5051 352 L 5019 352 L 4987 358 L 4951 366 L 4911 374 L 4875 374" stroke="#000000" stroke-width="25.00001" fill="none" stroke-linecap="round" stroke-linejoin="round"/>
<path d="M 17029 2514 L 17025 2514 L 17019 2514 L 17013 2514 L 17005 2518 L 16999 2518 L 16991 2518 L 16981 2518 L 16971 2518 L 16967 2518 L 16953 2518 L 16941 2518 L 16933 2518 L 16921 2518 L 16913 2518 L 16905 2518 L 16897 2518 L 16887 2518 L 16881 2518 L 16871 2518 L 16863 2518 L 16857 2518 L 16853 2518 L 16843 2518 L 16839 2518 L 16835 2518 L 16829 2518 L 16823 2518 L 16815 2518 L 16807 2518 L 16799 2518 L 16787 2518 L 16775 2518 L 16757 2518 L 16741 2518 L 16719 2518 L 16693 2518 L 16665 2518 L 16637 2518 L 16605 2518 L 16571 2518 L 16531 2518 L 16491 2518 L 16449 2518 L 16403 2520 L 16363 2524 L 16315 2524 L 16269 2524 L 16223 2528 L 16175 2528 L 16133 2530 L 16089 2532 L 16045 2536 L 16003 2538 L 15965 2542 L 15927 2544 L 15893 2544 L 15861 2548 L 15831 2548 L 15803 2550 L 15777 2552 L 15755 2554 L 15735 2556 L 15711 2558 L 15691 2560 L 15677 2564 L 15657 2566 L 15641 2566 L 15627 2570 L 15611 2570 L 15595 2570 L 15581 2572 L 15567 2572 L 15557 2574 L 15545 2574 L 15533 2576 L 15521 2576 L 15511 2576 L 15499 2576 L 15493 2576 L 15485 2576 L 15483 2576 L 15477 2576 L 15471 2576 L 15465 2576 L 15459 2576 L 15457 2576 L 15449 2576 L 15447 2576 L 15443 2576 L 15439 2576 L 15437 2576 L 15433 2576 L 15453 2576 L 15453 2578 L 15453 2586 L 15453 2594 L 15453 2608 L 15453 2624 L 15453 2640 L 15453 2658 L 15453 2680 L 15453 2700 L 15453 2728 L 15453 2758 L 15453 2786 L 15453 2816 L 15471 2846 L 15471 2872 L 15471 2900 L 15471 2922 L 15471 2940 L 15471 2958 L 15471 2972 L 15471 2986 L 15471 2996 L 15471 3004 L 15471 3008 L 15471 3014 L 15471 3016 L 15471 3020 L 15471 3024 L 15471 3026 L 15471 3030 L 15471 3032 L 15471 3036 L 15471 3040 L 15471 3048 L 15471 3060 L 15471 3070 L 15471 3080 L 15471 3094 L 15471 3106 L 15471 3116 L 15471 3128 L 15471 3134 L 15471 3146 L 15471 3154 L 15471 3168 L 15471 3176 L 15471 3182 L 15471 3190 L 15471 3194 L 15471 3196 L 15469 3196 L 15465 3196 L 15479 3198 L 15477 3198 L 15495 3198 L 15513 3198 L 15539 3198 L 15561 3198 L 15579 3198 L 15609 3198 L 15623 3198 L 15623 3204 L 15657 3206 L 15677 3206 L 15697 3206 L 15719 3206 L 15743 3206 L 15763 3206 L 15791 3206 L 15811 3208 L 15839 3210 L 15861 3214 L 15887 3218 L 15913 3218 L 15941 3218 L 15967 3218 L 16003 3218 L 16031 3218 L 16063 3218 L 16091 3218 L 16119 3224 L 16151 3226 L 16177 3232 L 16205 3234 L 16237 3236 L 16261 3236 L 16289 3236 L 16315 3236 L 16341 3236 L 16365 3236 L 16385 3236 L 16407 3236 L 16431 3236 L 16451 3238 L 16471 3240 L 16495 3240 L 16513 3240 L 16531 3240 L 16551 3240 L 16573 3240 L 16593 3212 L 16617 3212 L 16641 3212 L 16661 3212 L 16683 3212 L 16707 3212 L 16729 3212 L 16747 3212 L 16771 3212 L 16791 3212 L 16813 3180 L 16833 3180 L 16853 3180 L 16875 3180 L 16897 3180 L 16917 3180 L 16933 3182 L 16957 3182 L 16987 3182 L 17005 3182 L 17027 3182 L 17027 3184 L 17047 3188 L 17047 3190 L 17045 3190 L 17041 3190 L 17041 3192 L 17059 3192 L 17055 3192 L 17051 3160 L 17043 3160 L 17037 3116 L 17029 3116 L 17029 3072 L 17023 3044 L 17015 3014 L 17009 2984 L 17005 2952 L 16995 2920 L 16987 2890 L 16981 2858 L 16975 2828 L 16967 2798 L 16959 2774 L 16955 2774 L 16953 2736 L 16947 2736 L 16941 2708 L 16941 2680 L 16941 2652 L 16941 2624 L 16941 2598 L 16941 2572 L 16941 2544 L 16941 2546 L 16941 2548 L 16941 2548 L 16957 2548" stroke="#000000" stroke-width="25.00001" fill="none" stroke-linecap="round" stroke-linejoin="round"/>
<path d="M 14919 3516 L 14919 3516 L 14919 3524 L 14937 3530 L 14937 3538 L 14937 3540 L 14937 3552 L 14937 3566 L 14937 3576 L 14937 3596 L 14957 3616 L 14957 3644 L 14957 3670 L 14973 3702 L 14973 3732 L 14973 3770 L 14973 3802 L 14973 3840 L 14973 3874 L 14991 3912 L 14991 3944 L 14991 3976 L 14991 4006 L 14991 4028 L 14991 4052 L 14991 4070 L 14991 4084 L 14991 4094 L 14991 4102 L 14991 4108 L 14991 4110 L 15009 4112 L 15007 4112 L 15003 4112 L 14999 4112 L 14997 4112 L 14989 4112 L 14975 4112 L 14961 4112 L 14947 4112 L 14927 4112 L 14897 4112 L 14867 4112 L 14829 4112 L 14791 4112 L 14743 4112 L 14699 4112 L 14649 4084 L 14599 4084 L 14543 4084 L 14495 4084 L 14447 4084 L 14393 4084 L 14343 4084 L 14293 4084 L 14247 4084 L 14203 4084 L 14159 4084 L 14121 4084 L 14079 4084 L 14037 4084 L 13997 4084 L 13955 4084 L 13911 4084 L 13863 4084 L 13821 4084 L 13775 4084 L 13731 4084 L 13689 4084 L 13647 4084 L 13607 4084 L 13567 4084 L 13529 4084 L 13491 4084 L 13453 4056 L 13421 4056 L 13387 4056 L 13357 4056 L 13339 4056 L 13311 4056 L 13281 4056 L 13261 4056 L 13239 4056 L 13219 4056 L 13205 4056 L 13187 4056 L 13171 4056 L 13157 4056 L 13147 4056 L 13139 4056 L 13129 4056 L 13121 4056 L 13115 4056 L 13109 4056 L 13099 4056 L 13091 4056 L 13083 4056 L 13081 4056 L 13071 4056 L 13067 4056 L 13061 4056 L 13059 4056 L 13055 4056 L 13051 4056 L 13045 4056 L 13043 4056 L 13043 4028 L 13059 4028 L 13059 3998 L 13077 3972 L 13077 3936 L 13077 3890 L 13091 3840 L 13091 3814 L 13091 3786 L 13091 3758 L 13091 3730 L 13087 3702 L 13083 3676 L 13077 3676 L 13071 3634 L 13067 3634 L 13059 3594 L 13049 3594 L 13043 3564 L 13039 3564 L 13031 3538 L 13025 3538 L 13021 3538 L 13015 3510 L 13013 3510 L 13007 3510 L 13005 3482 L 13001 3482 L 12999 3482 L 12995 3458 L 12995 3458 L 13013 3458 L 13033 3458 L 13051 3458 L 13073 3458 L 13105 3458 L 13123 3458 L 13143 3458 L 13165 3458 L 13185 3458 L 13209 3458 L 13233 3458 L 13263 3458 L 13293 3458 L 13327 3458 L 13357 3458 L 13393 3458 L 13427 3458 L 13463 3458 L 13501 3462 L 13539 3464 L 13577 3464 L 13611 3470 L 13651 3472 L 13687 3476 L 13721 3478 L 13759 3480 L 13793 3482 L 13821 3482 L 13855 3482 L 13889 3482 L 13919 3482 L 13949 3482 L 13983 3482 L 14011 3482 L 14043 3482 L 14073 3482 L 14103 3482 L 14131 3482 L 14161 3482 L 14189 3482 L 14215 3454 L 14243 3454 L 14271 3454 L 14293 3454 L 14317 3454 L 14341 3454 L 14361 3454 L 14379 3428 L 14399 3428 L 14413 3428 L 14431 3428 L 14459 3428 L 14485 3428 L 14515 3428 L 14549 3428 L 14569 3428 L 14585 3428 L 14607 3430 L 14625 3434 L 14645 3434 L 14663 3434 L 14685 3434 L 14703 3436 L 14719 3436 L 14741 3436 L 14741 3438 L 14771 3442 L 14791 3442 L 14791 3444 L 14815 3446 L 14815 3448 L 14839 3448 L 14859 3448 L 14877 3448 L 14895 3448 L 14895 3450 L 14895 3452 L 14915 3454 L 14933 3454 L 14933 3456 L 14953 3460 L 14953 3462 L 14953 3464 L 14953 3466 L 14969 3466 L 14969 3468 L 14969 3472 L 14969 3474 L 14969 3478 L 14969 3480 L 14969 3490 L 14969 3492 L 14985 3498 L 14985 3502 L 14985 3512 L 14985 3516 L 14985 3526 L 14985 3534 L 14985 3544 L 14985 3556 L 15003 3564 L 15003 3578 L 15003 3590 L 15003 3604" stroke="#000000" stroke-width="25.00001" fill="none" stroke-linecap="round" stroke-linejoin="round"/>
<path d="M 3389 2314 L 3387 2314 L 3383 2314 L 3383 2288 L 3379 2288 L 3375 2288 L 3375 2288 L 3369 2288 L 3367 2288 L 3361 2288 L 3359 2288 L 3355 2288 L 3355 2288 L 3347 2288 L 3337 2290 L 3327 2294 L 3319 2298 L 3315 2304 L 3301 2308 L 3293 2316 L 3283 2324 L 3275 2330 L 3269 2338 L 3259 2348 L 3253 2356 L 3247 2366 L 3245 2374 L 3245 2380 L 3245 2386 L 3245 2394 L 3263 2400 L 3263 2406 L 3283 2412 L 3283 2416 L 3313 2422 L 3313 2426 L 3347 2428 L 3363 2432 L 3383 2434 L 3397 2436 L 3397 2440 L 3429 2442 L 3429 2444 L 3451 2448 L 3451 2456 L 3451 2462 L 3451 2470 L 3451 2478 L 3451 2488 L 3451 2496 L 3451 2506 L 3439 2516 L 3423 2526 L 3411 2536 L 3395 2544 L 3379 2556 L 3363 2564 L 3347 2570 L 3329 2576 L 3319 2578 L 3313 2580" stroke="#000000" stroke-width="25.00001" fill="none" stroke-linecap="round" stroke-linejoin="round"/>
<path d="M 17363 2872 L 17363 2872 L 17381 2872 L 17377 2872 L 17373 2872 L 17367 2872 L 17359 2872 L 17355 2872 L 17345 2872 L 17339 2874 L 17327 2878 L 17317 2882 L 17307 2884 L 17297 2886 L 17285 2886 L 17273 2890 L 17257 2892 L 17245 2894 L 17237 2894 L 17225 2896 L 17215 2896 L 17209 2896 L 17203 2900 L 17195 2900 L 17189 2904 L 17187 2906 L 17185 2914 L 17185 2920 L 17185 2928 L 17185 2936 L 17185 2948 L 17185 2960 L 17185 2972 L 17185 2984 L 17185 3000 L 17185 3020 L 17185 3040 L 17185 3062 L 17185 3084 L 17185 3106 L 17185 3124 L 17185 3142 L 17185 3160 L 17185 3174 L 17185 3190 L 17185 3202 L 17203 3216 L 17203 3230 L 17203 3238 L 17203 3246 L 17203 3250 L 17225 3250 L 17225 3252 L 17243 3252 L 17265 3254 L 17285 3254 L 17307 3254 L 17325 3254 L 17359 3254 L 17381 3254 L 17401 3254 L 17421 3254 L 17437 3254 L 17455 3254 L 17455 3258" stroke="#000000" stroke-width="25.00001" fill="none" stroke-linecap="round" stroke-linejoin="round"/>
<path d="M 17307 3122 L 17307 3122 L 17331 3122 L 17327 3122 L 17327 3094 L 17325 3094 L 17321 3094 L 17317 3094 L 17313 3094 L 17307 3094 L 17299 3094 L 17289 3094 L 17275 3094 L 17257 3094 L 17243 3094 L 17225 3094 L 17205 3094 L 17189 3094 L 17169 3094 L 17161 3094" stroke="#000000" stroke-width="25.00001" fill="none" stroke-linecap="round" stroke-linejoin="round"/>
<path d="M 12829 4330 L 12829 4330 L 12825 4330 L 12815 4330 L 12811 4330 L 12801 4330 L 12793 4330 L 12785 4332 L 12775 4336 L 12761 4338 L 12747 4342 L 12737 4346 L 12719 4352 L 12709 4356 L 12695 4362 L 12681 4368 L 12673 4372 L 12669 4380 L 12663 4390 L 12663 4396 L 12663 4404 L 12663 4412 L 12663 4420 L 12663 4428 L 12695 4436 L 12695 4440 L 12729 4448 L 12747 4454 L 12767 4460 L 12785 4468 L 12805 4472 L 12829 4478 L 12847 4484 L 12863 4492 L 12863 4500 L 12885 4508 L 12885 4516 L 12885 4528 L 12885 4542 L 12879 4550 L 12865 4562 L 12853 4574 L 12833 4584 L 12811 4596 L 12785 4608 L 12757 4618 L 12729 4630 L 12701 4638 L 12675 4644 L 12647 4650 L 12627 4658 L 12609 4660 L 12599 4660" stroke="#000000" stroke-width="25.00001" fill="none" stroke-linecap="round" stroke-linejoin="round"/>
<path d="M 14975 4348 L 14975 4348 L 14997 4348 L 15015 4348 L 15029 4348 L 15029 4322 L 15029 4324 L 15027 4324 L 15025 4324 L 15019 4324 L 15017 4324 L 15009 4324 L 15003 4324 L 14993 4326 L 14981 4328 L 14969 4330 L 14955 4332 L 14937 4332 L 14915 4334 L 14897 4334 L 14881 4334 L 14861 4334 L 14845 4334 L 14827 4336 L 14809 4336 L 14795 4338 L 14779 4342 L 14767 4342 L 14757 4344 L 14749 4344 L 14741 4344 L 14739 4346 L 14739 4350 L 14739 4362 L 14739 4372 L 14739 4382 L 14739 4398 L 14739 4412 L 14739 4430 L 14739 4448 L 14739 4468 L 14739 4486 L 14739 4506 L 14739 4526 L 14739 4546 L 14739 4564 L 14739 4584 L 14757 4596 L 14757 4608 L 14757 4618 L 14757 4622 L 14757 4630 L 14757 4632 L 14779 4632 L 14779 4636 L 14795 4638 L 14815 4638 L 14839 4638 L 14855 4638 L 14883 4638 L 14913 4638" stroke="#000000" stroke-width="25.00001" fill="none" stroke-linecap="round" stroke-linejoin="round"/>
<path d="M 14941 4526 L 14933 4526 L 14923 4526 L 14911 4526 L 14897 4526 L 14881 4526 L 14859 4526 L 14837 4526 L 14805 4526 L 14773 4526 L 14741 4500 L 14707 4500 L 14673 4500 L 14643 4500 L 14611 4500" stroke="#000000" stroke-width="25.00001" fill="none" stroke-linecap="round" stroke-linejoin="round"/>
<path d="M 3827 4900 L 3827 4902 L 3827 4904 L 3827 4906 L 3823 4906 L 3819 4906 L 3819 4908 L 3819 4914 L 3819 4920 L 3819 4928 L 3819 4932 L 3819 4942 L 3819 4958 L 3819 4974 L 3819 4990 L 3835 5016 L 3835 5042 L 3835 5068 L 3835 5098 L 3857 5130 L 3857 5158 L 3857 5186 L 3857 5210 L 3857 5232 L 3857 5256 L 3857 5270 L 3857 5286 L 3857 5298 L 3857 5312 L 3857 5318 L 3857 5324 L 3857 5330 L 3857 5334 L 3873 5334 L 3871 5334 L 3895 5334 L 3913 5334 L 3909 5334 L 3927 5334 L 3927 5304 L 3953 5304 L 3973 5304 L 3995 5304 L 4015 5304 L 4041 5304 L 4069 5304 L 4097 5304 L 4125 5304 L 4157 5304 L 4195 5306 L 4225 5306 L 4265 5306 L 4299 5312 L 4337 5316 L 4377 5318 L 4407 5326 L 4441 5328 L 4473 5330 L 4505 5334 L 4537 5334 L 4565 5334 L 4593 5336 L 4615 5338 L 4641 5338 L 4665 5338 L 4689 5338 L 4713 5338 L 4739 5338 L 4767 5338 L 4797 5338 L 4825 5338 L 4855 5338 L 4891 5338 L 4929 5338 L 4965 5338 L 5007 5338 L 5045 5338 L 5083 5338 L 5123 5312 L 5161 5312 L 5195 5312 L 5225 5312 L 5257 5312 L 5285 5314 L 5311 5318 L 5337 5322 L 5359 5322 L 5379 5324 L 5379 5324 L 5407 5324 L 5427 5324 L 5445 5330 L 5463 5330 L 5463 5332 L 5493 5334 L 5493 5338 L 5529 5340 L 5557 5344 L 5557 5346 L 5575 5346 L 5589 5348 L 5589 5352 L 5613 5354 L 5613 5354 L 5613 5358 L 5633 5358 L 5627 5358 L 5645 5358 L 5639 5358 L 5639 5326 L 5637 5326 L 5633 5290 L 5633 5258 L 5631 5258 L 5627 5212 L 5625 5212 L 5621 5166 L 5617 5140 L 5613 5112 L 5611 5084 L 5605 5058 L 5599 5058 L 5595 5018 L 5587 4988 L 5585 4988 L 5585 4962 L 5583 4962 L 5579 4962 L 5579 4934 L 5575 4934 L 5571 4934 L 5571 4906 L 5571 4880 L 5569 4880 L 5567 4880 L 5563 4854 L 5557 4854 L 5551 4854 L 5541 4828 L 5535 4828 L 5531 4828 L 5525 4828 L 5521 4828 L 5517 4828 L 5515 4828 L 5509 4800 L 5499 4800 L 5497 4800 L 5493 4800 L 5491 4800 L 5489 4800 L 5487 4800 L 5481 4776 L 5479 4776 L 5475 4776 L 5471 4776 L 5463 4776 L 5455 4776 L 5447 4776 L 5437 4776 L 5427 4776 L 5415 4748 L 5403 4748 L 5391 4748 L 5375 4748 L 5359 4748 L 5341 4748 L 5321 4748 L 5303 4748 L 5279 4748 L 5249 4748 L 5219 4748 L 5187 4748 L 5153 4748 L 5117 4748 L 5081 4748 L 5043 4748 L 4997 4748 L 4959 4748 L 4915 4748 L 4873 4748 L 4831 4748 L 4787 4748 L 4745 4748 L 4707 4748 L 4673 4748 L 4633 4748 L 4591 4748 L 4551 4748 L 4509 4748 L 4471 4748 L 4435 4748 L 4395 4748 L 4357 4748 L 4321 4748 L 4285 4748 L 4249 4752 L 4217 4752 L 4185 4752 L 4157 4754 L 4127 4754 L 4101 4754 L 4073 4754 L 4047 4754 L 4019 4754 L 3995 4754 L 3973 4754 L 3953 4754 L 3931 4754 L 3913 4754 L 3899 4754 L 3881 4754 L 3867 4754 L 3857 4754 L 3843 4754 L 3835 4754 L 3831 4754 L 3823 4754 L 3817 4754 L 3815 4754 L 3811 4754 L 3803 4754 L 3797 4754 L 3791 4754 L 3789 4754 L 3781 4754 L 3779 4754 L 3769 4754 L 3763 4754 L 3757 4754 L 3755 4754 L 3747 4754 L 3745 4754 L 3743 4754 L 3739 4754 L 3737 4754 L 3735 4754 L 3731 4754 L 3731 4756 L 3731 4760 L 3751 4760 L 3751 4762 L 3751 4768 L 3751 4770 L 3769 4774 L 3769 4780 L 3769 4784 L 3769 4796 L 3769 4806 L 3769 4818 L 3785 4832 L 3785 4848 L 3785 4864 L 3785 4878 L 3811 4894 L 3811 4910 L 3811 4924 L 3811 4940 L 3831 4952 L 3831 4968 L 3831 4982 L 3831 4990 L 3831 5000 L 3849 5004" stroke="#000000" stroke-width="25.00001" fill="none" stroke-linecap="round" stroke-linejoin="round"/>
<path d="M 3561 5644 L 3561 5644 L 3561 5618 L 3561 5592 L 3561 5594 L 3561 5600 L 3561 5610 L 3561 5620 L 3561 5634 L 3561 5646 L 3561 5658 L 3561 5672 L 3561 5684 L 3581 5696 L 3577 5712 L 3577 5724 L 3577 5734 L 3577 5744 L 3575 5750 L 3573 5754 L 3567 5754 L 3565 5754 L 3559 5754 L 3555 5754 L 3547 5754 L 3547 5754 L 3545 5726 L 3545 5686 L 3545 5656 L 3545 5622 L 3559 5622 L 3559 5592 L 3581 5592 L 3605 5560 L 3637 5560 L 3669 5560 L 3685 5560 L 3703 5560 L 3703 5564 L 3703 5574 L 3703 5584 L 3703 5592 L 3703 5602 L 3703 5610 L 3697 5614 L 3685 5622 L 3671 5630 L 3657 5634 L 3643 5640 L 3633 5642 L 3623 5642 L 3615 5646 L 3605 5646 L 3601 5648 L 3601 5648 L 3601 5652 L 3601 5654 L 3601 5658 L 3621 5660 L 3621 5664 L 3643 5668 L 3661 5676 L 3661 5680 L 3697 5688 L 3711 5696 L 3731 5704 L 3753 5712 L 3773 5720 L 3773 5724 L 3797 5730" stroke="#000000" stroke-width="25.00001" fill="none" stroke-linecap="round" stroke-linejoin="round"/>
<path d="M 3973 5568 L 3973 5568 L 3973 5536 L 3973 5510 L 3967 5510 L 3959 5510 L 3951 5510 L 3939 5510 L 3921 5510 L 3911 5510 L 3893 5510 L 3875 5510 L 3857 5510 L 3843 5510 L 3823 5510 L 3803 5510 L 3787 5510 L 3771 5510 L 3759 5510 L 3751 5510 L 3743 5510" stroke="#000000" stroke-width="25.00001" fill="none" stroke-linecap="round" stroke-linejoin="round"/>
<path d="M 3799 5516 L 3799 5516 L 3827 5518 L 3851 5518 L 3881 5518 L 3901 5518 L 3901 5520 L 3919 5526 L 3919 5534 L 3937 5544 L 3937 5558 L 3937 5570 L 3937 5582 L 3937 5598 L 3937 5614 L 3937 5632 L 3937 5648 L 3937 5664 L 3937 5682 L 3937 5696 L 3937 5712 L 3937 5724 L 3937 5738 L 3937 5750" stroke="#000000" stroke-width="25.00001" fill="none" stroke-linecap="round" stroke-linejoin="round"/>
<path d="M 1051 6332 L 1051 6332 L 1047 6332 L 1045 6306 L 1041 6306 L 1041 6308 L 1041 6314 L 1041 6328 L 1041 6340 L 1041 6356 L 1041 6376 L 1041 6400 L 1055 6424 L 1055 6452 L 1055 6486 L 1055 6512 L 1055 6540 L 1055 6570 L 1055 6602 L 1055 6624 L 1077 6646 L 1077 6666 L 1077 6684 L 1077 6700 L 1077 6712 L 1077 6724 L 1077 6730 L 1077 6734 L 1077 6738 L 1077 6740 L 1077 6742 L 1077 6746 L 1077 6748 L 1077 6748 L 1077 6754 L 1077 6756 L 1077 6756 L 1077 6758 L 1077 6760 L 1099 6760 L 1099 6762 L 1099 6766 L 1123 6766 L 1147 6766 L 1165 6766 L 1183 6766 L 1207 6766 L 1231 6766 L 1257 6766 L 1289 6766 L 1317 6742 L 1349 6742 L 1377 6742 L 1411 6742 L 1441 6742 L 1473 6742 L 1503 6742 L 1535 6742 L 1563 6742 L 1589 6742 L 1611 6742 L 1639 6742 L 1667 6742 L 1693 6742 L 1725 6742 L 1753 6742 L 1781 6742 L 1811 6742 L 1845 6742 L 1873 6742 L 1905 6742 L 1935 6742 L 1963 6742 L 1995 6742 L 2023 6746 L 2051 6748 L 2075 6748 L 2099 6752 L 2125 6754 L 2147 6754 L 2171 6754 L 2189 6754 L 2221 6754 L 2249 6754 L 2275 6754 L 2297 6754 L 2321 6754 L 2345 6754 L 2373 6754 L 2397 6754 L 2421 6754 L 2445 6754 L 2469 6754 L 2493 6754 L 2519 6756 L 2543 6756 L 2563 6756 L 2579 6756 L 2595 6756 L 2595 6758 L 2631 6758 L 2649 6760 L 2663 6762 L 2681 6762 L 2699 6762 L 2731 6762 L 2751 6762 L 2771 6762 L 2787 6762 L 2805 6762 L 2827 6762 L 2847 6762 L 2867 6762 L 2889 6762 L 2907 6764 L 2907 6766 L 2937 6766 L 2955 6768 L 2955 6772 L 2987 6772 L 3009 6774 L 3009 6776 L 3031 6780 L 3031 6784 L 3051 6786 L 3051 6786 L 3071 6786 L 3089 6786 L 3111 6786 L 3111 6760 L 3127 6760 L 3127 6732 L 3127 6696 L 3127 6656 L 3127 6604 L 3123 6604 L 3121 6554 L 3119 6528 L 3119 6498 L 3117 6470 L 3111 6444 L 3111 6394 L 3111 6354 L 3111 6326 L 3111 6294 L 3111 6268 L 3129 6270 L 3127 6270 L 3123 6270 L 3121 6270 L 3119 6270 L 3117 6270 L 3113 6242 L 3111 6242 L 3109 6242 L 3105 6242 L 3099 6242 L 3099 6242 L 3091 6242 L 3089 6242 L 3081 6242 L 3071 6242 L 3061 6242 L 3049 6242 L 3033 6242 L 3017 6242 L 2997 6242 L 2975 6242 L 2953 6242 L 2925 6242 L 2897 6242 L 2867 6242 L 2837 6242 L 2803 6242 L 2773 6242 L 2737 6242 L 2703 6242 L 2663 6242 L 2629 6242 L 2593 6242 L 2555 6242 L 2521 6242 L 2489 6242 L 2459 6242 L 2425 6242 L 2391 6242 L 2363 6242 L 2331 6242 L 2303 6246 L 2275 6250 L 2245 6254 L 2221 6260 L 2191 6260 L 2163 6260 L 2135 6266 L 2107 6270 L 2077 6274 L 2049 6280 L 2021 6282 L 1991 6286 L 1963 6290 L 1929 6294 L 1899 6296 L 1867 6298 L 1839 6304 L 1809 6308 L 1779 6310 L 1753 6314 L 1721 6318 L 1689 6322 L 1661 6328 L 1629 6332 L 1601 6336 L 1575 6338 L 1547 6338 L 1519 6342 L 1495 6346 L 1467 6350 L 1441 6350 L 1415 6356 L 1393 6356 L 1371 6362 L 1349 6364 L 1341 6366 L 1323 6368 L 1305 6368 L 1289 6368 L 1275 6368 L 1257 6368 L 1245 6368 L 1231 6368 L 1219 6370 L 1207 6370 L 1197 6370 L 1189 6372 L 1179 6372 L 1169 6372 L 1161 6372 L 1151 6372 L 1143 6372 L 1135 6372 L 1129 6372 L 1123 6372 L 1119 6372 L 1113 6372 L 1107 6372 L 1103 6372 L 1099 6372 L 1093 6372 L 1087 6372 L 1083 6372 L 1077 6372 L 1075 6372 L 1073 6372 L 1069 6372 L 1067 6372 L 1065 6372 L 1059 6344 L 1055 6344 L 1055 6344 L 1051 6344 L 1047 6344 L 1045 6344 L 1041 6344 L 1039 6344 L 1037 6344 L 1031 6344 L 1027 6344 L 1019 6344 L 1017 6320 L 1015 6320 L 1013 6320 L 1007 6320" stroke="#000000" stroke-width="25.00001" fill="none" stroke-linecap="round" stroke-linejoin="round"/>
<path d="M 881 7098 L 871 7098 L 861 7098 L 857 7074 L 845 7074 L 837 7074 L 831 7074 L 829 7046 L 821 7046 L 815 7046 L 811 7046 L 811 7056 L 811 7066 L 811 7084 L 829 7102 L 829 7122 L 829 7142 L 829 7164 L 829 7186 L 829 7208 L 829 7230 L 847 7254 L 847 7274 L 847 7292 L 847 7308 L 847 7316 L 847 7326 L 847 7328 L 847 7292 L 847 7262 L 847 7224 L 847 7182 L 847 7150 L 869 7150 L 869 7114 L 869 7090 L 869 7064 L 889 7064 L 889 7064 L 889 7066 L 889 7070 L 889 7074 L 889 7074 L 885 7078 L 885 7082 L 881 7086 L 873 7092 L 873 7096 L 869 7102 L 861 7108 L 857 7108 L 847 7112 L 845 7114 L 843 7122 L 843 7126 L 843 7132 L 863 7136 L 863 7142 L 891 7150 L 891 7156 L 925 7164 L 945 7172 L 965 7180 L 991 7190 L 1011 7198 L 1033 7210 L 1057 7220 L 1077 7230 L 1095 7238 L 1095 7246 L 1121 7252 L 1121 7256 L 1141 7260 L 1141 7264" stroke="#000000" stroke-width="25.00001" fill="none" stroke-linecap="round" stroke-linejoin="round"/>
<path d="M 1359 7060 L 1381 7034 L 1399 7034 L 1399 7004 L 1393 7004 L 1377 7004 L 1363 7004 L 1345 7004 L 1325 7006 L 1303 7006 L 1283 7008 L 1257 7012 L 1239 7016 L 1221 7018 L 1199 7022 L 1179 7022 L 1161 7022 L 1145 7026 L 1135 7026 L 1129 7026 L 1125 7026" stroke="#000000" stroke-width="25.00001" fill="none" stroke-linecap="round" stroke-linejoin="round"/>
<path d="M 1191 7026 L 1191 7026 L 1215 7026 L 1233 7026 L 1249 7026 L 1249 7028 L 1249 7034 L 1249 7042 L 1267 7050 L 1267 7060 L 1267 7074 L 1267 7088 L 1267 7102 L 1267 7116 L 1267 7128 L 1267 7144 L 1267 7160 L 1267 7174 L 1267 7192 L 1267 7206 L 1267 7220 L 1267 7232 L 1267 7240 L 1267 7250 L 1267 7258 L 1267 7264" stroke="#000000" stroke-width="25.00001" fill="none" stroke-linecap="round" stroke-linejoin="round"/>
<path d="M 707 6904 L 707 6904 L 727 6904 L 743 6908 L 743 6908 L 743 6910 L 743 6912 L 743 6916 L 743 6918 L 743 6920 L 761 6926 L 761 6928 L 761 6938 L 761 6946 L 779 6950 L 779 6954 L 779 6956 L 779 6960 L 779 6970 L 779 6982 L 795 6994 L 795 7004 L 795 7022 L 795 7034 L 795 7048 L 815 7068 L 815 7088 L 815 7106 L 815 7124 L 835 7142 L 835 7160 L 835 7176 L 835 7188 L 835 7200 L 849 7210 L 849 7220 L 849 7226 L 849 7232 L 849 7236 L 849 7240 L 847 7212 L 845 7184 L 839 7184 L 835 7152 L 835 7152 L 835 7120 L 829 7120 L 827 7084 L 821 7084 L 819 7052 L 817 7052 L 817 7014 L 817 6982 L 817 6946 L 835 6946 L 835 6922 L 861 6922 L 877 6922 L 899 6922 L 921 6922 L 943 6926 L 943 6930 L 943 6932 L 961 6938 L 961 6946 L 961 6946 L 987 6954 L 987 6958 L 987 6966 L 1013 6972 L 1013 6978 L 1013 6986 L 1037 6994 L 1037 6996 L 1037 7004 L 1037 7010 L 1037 7014 L 1037 7024 L 1037 7032 L 1031 7036 L 1019 7046 L 1007 7054 L 991 7064 L 977 7074 L 959 7082 L 941 7090 L 921 7098 L 903 7106 L 883 7110 L 869 7114 L 853 7114 L 839 7118 L 829 7118 L 823 7118" stroke="#000000" stroke-width="25.00001" fill="none" stroke-linecap="round" stroke-linejoin="round"/>
<path d="M 4257 1110 L 4257 1110 L 4257 1084 L 4253 1084 L 4253 1084 L 4249 1084 L 4243 1084 L 4239 1084 L 4235 1084 L 4227 1084 L 4221 1084 L 4213 1084 L 4203 1084 L 4193 1084 L 4181 1084 L 4171 1086 L 4157 1086 L 4139 1086 L 4129 1086 L 4111 1086 L 4097 1090 L 4085 1096" stroke="#000000" stroke-width="25.00001" fill="none" stroke-linecap="round" stroke-linejoin="round"/>
<path d="M 3771 1090 L 3771 1090 L 3789 1090 L 3785 1090 L 3785 1090 L 3779 1090 L 3773 1090 L 3771 1090 L 3767 1090 L 3757 1090 L 3751 1090 L 3745 1090 L 3737 1092 L 3729 1094 L 3719 1100 L 3709 1102 L 3701 1104 L 3689 1106 L 3681 1108" stroke="#000000" stroke-width="25.00001" fill="none" stroke-linecap="round" stroke-linejoin="round"/>
<path d="M 3393 1130 L 3393 1130 L 3389 1130 L 3379 1130 L 3369 1130 L 3359 1130 L 3347 1130 L 3331 1130 L 3315 1130 L 3303 1130 L 3287 1130 L 3273 1130 L 3255 1130" stroke="#000000" stroke-width="25.00001" fill="none" stroke-linecap="round" stroke-linejoin="round"/>
<path d="M 16089 680 L 16087 680 L 16085 680 L 16081 680 L 16079 680 L 16075 680 L 16075 654 L 16071 654 L 16067 654 L 16065 654 L 16061 654 L 16061 656 L 16061 660 L 16061 670 L 16061 682 L 16061 694 L 16061 710 L 16061 728 L 16061 750 L 16061 772 L 16061 798 L 16061 826 L 16061 854 L 16061 882 L 16061 910 L 16057 938 L 16055 964 L 16055 988 L 16055 1008 L 16053 1028 L 16053 1046 L 16053 1056 L 16049 1066 L 16049 1074 L 16049 1080 L 16047 1084 L 16047 1086 L 16047 1086 L 16047 1088 L 16047 1090 L 16047 1092 L 16047 1094 L 16047 1096 L 16047 1096 L 16047 1100 L 16047 1102 L 16047 1106 L 16047 1114 L 16047 1114 L 16047 1120 L 16047 1124 L 16043 1128 L 16043 1134 L 16039 1136 L 16039 1144 L 16039 1146 L 16037 1150 L 16037 1152 L 16037 1154 L 16037 1160 L 16035 1162 L 16029 1162 L 16027 1162 L 16025 1162 L 16021 1162 L 16019 1162 L 16017 1162 L 16015 1162 L 16011 1162 L 16007 1162 L 16007 1162 L 15999 1162 L 15993 1162 L 15987 1162 L 15975 1162 L 15967 1162 L 15959 1162 L 15945 1162 L 15931 1162 L 15915 1162 L 15901 1162 L 15887 1162 L 15873 1162 L 15859 1162 L 15845 1162 L 15835 1162 L 15823 1162 L 15817 1162 L 15809 1162 L 15799 1134 L 15791 1134 L 15783 1134 L 15779 1134 L 15775 1134 L 15771 1134 L 15769 1134 L 15767 1134 L 15763 1134" stroke="#000000" stroke-width="25.00001" fill="none" stroke-linecap="round" stroke-linejoin="round"/>
<path d="M 15421 1120 L 15421 1120 L 15437 1122 L 15457 1124 L 15457 1128 L 15479 1130 L 15497 1130 L 15497 1132 L 15497 1134 L 15517 1136 L 15517 1138 L 15539 1144 L 15539 1144 L 15539 1146 L 15555 1148 L 15555 1150 L 15553 1152 L 15553 1154 L 15549 1154 L 15541 1154 L 15533 1154 L 15525 1154 L 15511 1158 L 15499 1158 L 15489 1160 L 15473 1162 L 15461 1162 L 15445 1164 L 15433 1164 L 15417 1164 L 15405 1164 L 15393 1164 L 15383 1164 L 15379 1166 L 15369 1166 L 15365 1166 L 15359 1166 L 15351 1166" stroke="#000000" stroke-width="25.00001" fill="none" stroke-linecap="round" stroke-linejoin="round"/>
<path d="M 15133 1150 L 15133 1150 L 15133 1152 L 15151 1152 L 15151 1154 L 15151 1154 L 15151 1156 L 15167 1156 L 15161 1156 L 15157 1158 L 15147 1162 L 15137 1164 L 15125 1164 L 15109 1164 L 15091 1164 L 15071 1164 L 15051 1164 L 15027 1166 L 15007 1166 L 14983 1170 L 14965 1170 L 14945 1170 L 14927 1170 L 14915 1170 L 14907 1170 L 14899 1170 L 14893 1170" stroke="#000000" stroke-width="25.00001" fill="none" stroke-linecap="round" stroke-linejoin="round"/>
<path d="M 14629 1164 L 14629 1164 L 14629 1166 L 14629 1168 L 14629 1168 L 14629 1172 L 14629 1174 L 14625 1174 L 14615 1174 L 14615 1174 L 14605 1174 L 14599 1176 L 14589 1178 L 14581 1178 L 14569 1182 L 14559 1182 L 14547 1188 L 14531 1188 L 14515 1188 L 14501 1192 L 14485 1194 L 14473 1196 L 14461 1196 L 14449 1196 L 14443 1196" stroke="#000000" stroke-width="25.00001" fill="none" stroke-linecap="round" stroke-linejoin="round"/>
<path d="M 17431 1110 L 17431 1114 L 17427 1114 L 17417 1114 L 17409 1114 L 17399 1114 L 17387 1114 L 17377 1114 L 17367 1114 L 17357 1114 L 17345 1114 L 17339 1114 L 17327 1114 L 17321 1114 L 17311 1114 L 17303 1114 L 17297 1114 L 17293 1114 L 17281 1114 L 17275 1114 L 17265 1114 L 17257 1114 L 17243 1114 L 17225 1118 L 17207 1120 L 17181 1120 L 17151 1120 L 17121 1122 L 17089 1126 L 17053 1130 L 17017 1134 L 16977 1136 L 16935 1140 L 16893 1142 L 16857 1144 L 16815 1144 L 16783 1146 L 16751 1150 L 16723 1150 L 16701 1152 L 16681 1152 L 16667 1152 L 16653 1152 L 16643 1152 L 16639 1152 L 16633 1152 L 16633 1152 L 16631 1152 L 16627 1152" stroke="#000000" stroke-width="25.00001" fill="none" stroke-linecap="round" stroke-linejoin="round"/>
<path d="M 16857 918 L 16857 918 L 16857 894 L 16855 894 L 16849 894 L 16849 898 L 16847 902 L 16843 908 L 16843 914 L 16843 922 L 16833 932 L 16823 940 L 16815 952 L 16801 962 L 16787 976 L 16767 990 L 16761 1002 L 16741 1016 L 16719 1028 L 16699 1044 L 16679 1056 L 16655 1070 L 16633 1082 L 16613 1092 L 16593 1098 L 16577 1108 L 16565 1114 L 16553 1120 L 16543 1124 L 16531 1124 L 16527 1126 L 16521 1130 L 16519 1132 L 16513 1132 L 16513 1134 L 16513 1136 L 16513 1140 L 16513 1146 L 16513 1150 L 16513 1152 L 16513 1156 L 16513 1162 L 16513 1172 L 16535 1178 L 16535 1186 L 16535 1194 L 16535 1198 L 16557 1206 L 16557 1214 L 16581 1224 L 16581 1232 L 16603 1240 L 16603 1248 L 16631 1256 L 16631 1264 L 16653 1268 L 16653 1276 L 16677 1280 L 16699 1286 L 16699 1290 L 16723 1296" stroke="#000000" stroke-width="25.00001" fill="none" stroke-linecap="round" stroke-linejoin="round"/>
<path d="M 5135 2645 L 5131 2645 L 5125 2645 L 5119 2645 L 5111 2649 L 5105 2649 L 5097 2649 L 5087 2649 L 5077 2649 L 5073 2649 L 5059 2649 L 5047 2649 L 5039 2649 L 5027 2649 L 5019 2649 L 5011 2649 L 5003 2649 L 4993 2649 L 4987 2649 L 4977 2649 L 4969 2649 L 4963 2649 L 4959 2649 L 4949 2649 L 4945 2649 L 4941 2649 L 4935 2649 L 4929 2649 L 4921 2649 L 4913 2649 L 4905 2649 L 4893 2649 L 4881 2649 L 4863 2649 L 4847 2649 L 4825 2649 L 4799 2649 L 4771 2649 L 4743 2649 L 4711 2649 L 4677 2649 L 4637 2649 L 4597 2649 L 4555 2649 L 4509 2651 L 4469 2655 L 4421 2655 L 4375 2655 L 4329 2659 L 4281 2659 L 4239 2661 L 4195 2663 L 4151 2667 L 4109 2669 L 4071 2673 L 4033 2675 L 3999 2675 L 3967 2679 L 3937 2679 L 3909 2681 L 3883 2683 L 3861 2685 L 3841 2687 L 3817 2689 L 3797 2691 L 3783 2695 L 3763 2697 L 3747 2697 L 3733 2701 L 3717 2701 L 3701 2701 L 3687 2703 L 3673 2703 L 3663 2705 L 3651 2705 L 3639 2707 L 3627 2707 L 3617 2707 L 3605 2707 L 3599 2707 L 3591 2707 L 3589 2707 L 3583 2707 L 3577 2707 L 3571 2707 L 3565 2707 L 3563 2707 L 3555 2707 L 3553 2707 L 3549 2707 L 3545 2707 L 3543 2707 L 3539 2707 L 3559 2707 L 3559 2709 L 3559 2717 L 3559 2725 L 3559 2739 L 3559 2755 L 3559 2771 L 3559 2789 L 3559 2811 L 3559 2831 L 3559 2859 L 3559 2889 L 3559 2917 L 3559 2947 L 3577 2977 L 3577 3003 L 3577 3031 L 3577 3053 L 3577 3071 L 3577 3089 L 3577 3103 L 3577 3117 L 3577 3127 L 3577 3135 L 3577 3139 L 3577 3145 L 3577 3147 L 3577 3151 L 3577 3155 L 3577 3157 L 3577 3161 L 3577 3163 L 3577 3167 L 3577 3171 L 3577 3179 L 3577 3191 L 3577 3201 L 3577 3211 L 3577 3225 L 3577 3237 L 3577 3247 L 3577 3259 L 3577 3265 L 3577 3277 L 3577 3285 L 3577 3299 L 3577 3307 L 3577 3313 L 3577 3321 L 3577 3325 L 3577 3327 L 3575 3327 L 3571 3327 L 3585 3329 L 3583 3329 L 3601 3329 L 3619 3329 L 3645 3329 L 3667 3329 L 3685 3329 L 3715 3329 L 3729 3329 L 3729 3335 L 3763 3337 L 3783 3337 L 3803 3337 L 3825 3337 L 3849 3337 L 3869 3337 L 3897 3337 L 3917 3339 L 3945 3341 L 3967 3345 L 3993 3349 L 4019 3349 L 4047 3349 L 4073 3349 L 4109 3349 L 4137 3349 L 4169 3349 L 4197 3349 L 4225 3355 L 4257 3357 L 4283 3363 L 4311 3365 L 4343 3367 L 4367 3367 L 4395 3367 L 4421 3367 L 4447 3367 L 4471 3367 L 4491 3367 L 4513 3367 L 4537 3367 L 4557 3369 L 4577 3371 L 4601 3371 L 4619 3371 L 4637 3371 L 4657 3371 L 4679 3371 L 4699 3343 L 4723 3343 L 4747 3343 L 4767 3343 L 4789 3343 L 4813 3343 L 4835 3343 L 4853 3343 L 4877 3343 L 4897 3343 L 4919 3311 L 4939 3311 L 4959 3311 L 4981 3311 L 5003 3311 L 5023 3311 L 5039 3313 L 5063 3313 L 5093 3313 L 5111 3313 L 5133 3313 L 5133 3315 L 5153 3319 L 5153 3321 L 5151 3321 L 5147 3321 L 5147 3323 L 5165 3323 L 5161 3323 L 5157 3291 L 5149 3291 L 5143 3247 L 5135 3247 L 5135 3203 L 5129 3175 L 5121 3145 L 5115 3115 L 5111 3083 L 5101 3051 L 5093 3021 L 5087 2989 L 5081 2959 L 5073 2929 L 5065 2905 L 5061 2905 L 5059 2867 L 5053 2867 L 5047 2839 L 5047 2811 L 5047 2783 L 5047 2755 L 5047 2729 L 5047 2703 L 5047 2675 L 5047 2677 L 5047 2679 L 5047 2679 L 5063 2679" stroke="#000000" stroke-width="25.00001" fill="none" stroke-linecap="round" stroke-linejoin="round"/>
<path d="M 3025 3647 L 3025 3647 L 3025 3655 L 3043 3661 L 3043 3669 L 3043 3671 L 3043 3683 L 3043 3697 L 3043 3707 L 3043 3727 L 3063 3747 L 3063 3775 L 3063 3801 L 3079 3833 L 3079 3863 L 3079 3901 L 3079 3933 L 3079 3971 L 3079 4005 L 3097 4043 L 3097 4075 L 3097 4107 L 3097 4137 L 3097 4159 L 3097 4183 L 3097 4201 L 3097 4215 L 3097 4225 L 3097 4233 L 3097 4239 L 3097 4241 L 3115 4243 L 3113 4243 L 3109 4243 L 3105 4243 L 3103 4243 L 3095 4243 L 3081 4243 L 3067 4243 L 3053 4243 L 3033 4243 L 3003 4243 L 2973 4243 L 2935 4243 L 2897 4243 L 2849 4243 L 2805 4243 L 2755 4215 L 2705 4215 L 2649 4215 L 2601 4215 L 2553 4215 L 2499 4215 L 2449 4215 L 2399 4215 L 2353 4215 L 2309 4215 L 2265 4215 L 2227 4215 L 2185 4215 L 2143 4215 L 2103 4215 L 2061 4215 L 2017 4215 L 1969 4215 L 1927 4215 L 1881 4215 L 1837 4215 L 1795 4215 L 1753 4215 L 1713 4215 L 1673 4215 L 1635 4215 L 1597 4215 L 1559 4187 L 1527 4187 L 1493 4187 L 1463 4187 L 1445 4187 L 1417 4187 L 1387 4187 L 1367 4187 L 1345 4187 L 1325 4187 L 1311 4187 L 1293 4187 L 1277 4187 L 1263 4187 L 1253 4187 L 1245 4187 L 1235 4187 L 1227 4187 L 1221 4187 L 1215 4187 L 1205 4187 L 1197 4187 L 1189 4187 L 1187 4187 L 1177 4187 L 1173 4187 L 1167 4187 L 1165 4187 L 1161 4187 L 1157 4187 L 1151 4187 L 1149 4187 L 1149 4159 L 1165 4159 L 1165 4129 L 1183 4103 L 1183 4067 L 1183 4021 L 1197 3971 L 1197 3945 L 1197 3917 L 1197 3889 L 1197 3861 L 1193 3833 L 1189 3807 L 1183 3807 L 1177 3765 L 1173 3765 L 1165 3725 L 1155 3725 L 1149 3695 L 1145 3695 L 1137 3669 L 1131 3669 L 1127 3669 L 1121 3641 L 1119 3641 L 1113 3641 L 1111 3613 L 1107 3613 L 1105 3613 L 1101 3589 L 1101 3589 L 1119 3589 L 1139 3589 L 1157 3589 L 1179 3589 L 1211 3589 L 1229 3589 L 1249 3589 L 1271 3589 L 1291 3589 L 1315 3589 L 1339 3589 L 1369 3589 L 1399 3589 L 1433 3589 L 1463 3589 L 1499 3589 L 1533 3589 L 1569 3589 L 1607 3593 L 1645 3595 L 1683 3595 L 1717 3601 L 1757 3603 L 1793 3607 L 1827 3609 L 1865 3611 L 1899 3613 L 1927 3613 L 1961 3613 L 1995 3613 L 2025 3613 L 2055 3613 L 2089 3613 L 2117 3613 L 2149 3613 L 2179 3613 L 2209 3613 L 2237 3613 L 2267 3613 L 2295 3613 L 2321 3585 L 2349 3585 L 2377 3585 L 2399 3585 L 2423 3585 L 2447 3585 L 2467 3585 L 2485 3559 L 2505 3559 L 2519 3559 L 2537 3559 L 2565 3559 L 2591 3559 L 2621 3559 L 2655 3559 L 2675 3559 L 2691 3559 L 2713 3561 L 2731 3565 L 2751 3565 L 2769 3565 L 2791 3565 L 2809 3567 L 2825 3567 L 2847 3567 L 2847 3569 L 2877 3573 L 2897 3573 L 2897 3575 L 2921 3577 L 2921 3579 L 2945 3579 L 2965 3579 L 2983 3579 L 3001 3579 L 3001 3581 L 3001 3583 L 3021 3585 L 3039 3585 L 3039 3587 L 3059 3591 L 3059 3593 L 3059 3595 L 3059 3597 L 3075 3597 L 3075 3599 L 3075 3603 L 3075 3605 L 3075 3609 L 3075 3611 L 3075 3621 L 3075 3623 L 3091 3629 L 3091 3633 L 3091 3643 L 3091 3647 L 3091 3657 L 3091 3665 L 3091 3675 L 3091 3687 L 3109 3695 L 3109 3709 L 3109 3721 L 3109 3735" stroke="#000000" stroke-width="25.00001" fill="none" stroke-linecap="round" stroke-linejoin="round"/>
<path d="M 5469 3003 L 5469 3003 L 5487 3003 L 5483 3003 L 5479 3003 L 5473 3003 L 5465 3003 L 5461 3003 L 5451 3003 L 5445 3005 L 5433 3009 L 5423 3013 L 5413 3015 L 5403 3017 L 5391 3017 L 5379 3021 L 5363 3023 L 5351 3025 L 5343 3025 L 5331 3027 L 5321 3027 L 5315 3027 L 5309 3031 L 5301 3031 L 5295 3035 L 5293 3037 L 5291 3045 L 5291 3051 L 5291 3059 L 5291 3067 L 5291 3079 L 5291 3091 L 5291 3103 L 5291 3115 L 5291 3131 L 5291 3151 L 5291 3171 L 5291 3193 L 5291 3215 L 5291 3237 L 5291 3255 L 5291 3273 L 5291 3291 L 5291 3305 L 5291 3321 L 5291 3333 L 5309 3347 L 5309 3361 L 5309 3369 L 5309 3377 L 5309 3381 L 5331 3381 L 5331 3383 L 5349 3383 L 5371 3385 L 5391 3385 L 5413 3385 L 5431 3385 L 5465 3385 L 5487 3385 L 5507 3385 L 5527 3385 L 5543 3385 L 5561 3385 L 5561 3389" stroke="#000000" stroke-width="25.00001" fill="none" stroke-linecap="round" stroke-linejoin="round"/>
<path d="M 5413 3253 L 5413 3253 L 5437 3253 L 5433 3253 L 5433 3225 L 5431 3225 L 5427 3225 L 5423 3225 L 5419 3225 L 5413 3225 L 5405 3225 L 5395 3225 L 5381 3225 L 5363 3225 L 5349 3225 L 5331 3225 L 5311 3225 L 5295 3225 L 5275 3225 L 5267 3225" stroke="#000000" stroke-width="25.00001" fill="none" stroke-linecap="round" stroke-linejoin="round"/>
<path d="M 935 4461 L 935 4461 L 931 4461 L 921 4461 L 917 4461 L 907 4461 L 899 4461 L 891 4463 L 881 4467 L 867 4469 L 853 4473 L 843 4477 L 825 4483 L 815 4487 L 801 4493 L 787 4499 L 779 4503 L 775 4511 L 769 4521 L 769 4527 L 769 4535 L 769 4543 L 769 4551 L 769 4559 L 801 4567 L 801 4571 L 835 4579 L 853 4585 L 873 4591 L 891 4599 L 911 4603 L 935 4609 L 953 4615 L 969 4623 L 969 4631 L 991 4639 L 991 4647 L 991 4659 L 991 4673 L 985 4681 L 971 4693 L 959 4705 L 939 4715 L 917 4727 L 891 4739 L 863 4749 L 835 4761 L 807 4769 L 781 4775 L 753 4781 L 733 4789 L 715 4791 L 705 4791" stroke="#000000" stroke-width="25.00001" fill="none" stroke-linecap="round" stroke-linejoin="round"/>
<path d="M 3081 4479 L 3081 4479 L 3103 4479 L 3121 4479 L 3135 4479 L 3135 4453 L 3135 4455 L 3133 4455 L 3131 4455 L 3125 4455 L 3123 4455 L 3115 4455 L 3109 4455 L 3099 4457 L 3087 4459 L 3075 4461 L 3061 4463 L 3043 4463 L 3021 4465 L 3003 4465 L 2987 4465 L 2967 4465 L 2951 4465 L 2933 4467 L 2915 4467 L 2901 4469 L 2885 4473 L 2873 4473 L 2863 4475 L 2855 4475 L 2847 4475 L 2845 4477 L 2845 4481 L 2845 4493 L 2845 4503 L 2845 4513 L 2845 4529 L 2845 4543 L 2845 4561 L 2845 4579 L 2845 4599 L 2845 4617 L 2845 4637 L 2845 4657 L 2845 4677 L 2845 4695 L 2845 4715 L 2863 4727 L 2863 4739 L 2863 4749 L 2863 4753 L 2863 4761 L 2863 4763 L 2885 4763 L 2885 4767 L 2901 4769 L 2921 4769 L 2945 4769 L 2961 4769 L 2989 4769 L 3019 4769" stroke="#000000" stroke-width="25.00001" fill="none" stroke-linecap="round" stroke-linejoin="round"/>
<path d="M 3047 4657 L 3039 4657 L 3029 4657 L 3017 4657 L 3003 4657 L 2987 4657 L 2965 4657 L 2943 4657 L 2911 4657 L 2879 4657 L 2847 4631 L 2813 4631 L 2779 4631 L 2749 4631 L 2717 4631" stroke="#000000" stroke-width="25.00001" fill="none" stroke-linecap="round" stroke-linejoin="round"/>
<path d="M 15103 2238 L 15103 2238 L 15117 2238 L 15111 2238 L 15107 2238 L 15103 2238 L 15095 2238 L 15089 2238 L 15079 2238 L 15073 2238 L 15063 2238 L 15053 2242 L 15047 2246 L 15041 2252 L 15031 2260 L 15019 2270 L 15009 2280 L 14997 2290 L 14991 2298 L 14983 2306 L 14979 2314 L 14975 2326 L 14973 2332 L 14967 2340 L 14967 2348 L 14967 2358 L 14967 2362 L 14967 2370 L 14967 2374 L 14987 2376 L 14987 2386 L 15003 2388 L 15003 2396 L 15021 2404 L 15021 2410 L 15041 2414 L 15041 2424 L 15063 2432 L 15063 2444 L 15085 2454 L 15085 2468 L 15103 2478 L 15103 2492 L 15111 2500 L 15111 2514 L 15111 2528 L 15111 2536 L 15109 2544 L 15103 2552 L 15095 2560 L 15085 2566 L 15069 2570 L 15055 2574 L 15041 2574 L 15023 2574 L 15005 2576 L 14989 2576 L 14975 2576 L 14959 2576 L 14949 2576 L 14935 2576 L 14929 2576 L 14923 2576 L 14917 2576" stroke="#000000" stroke-width="25.00001" fill="none" stroke-linecap="round" stroke-linejoin="round"/>
<path d="M 4507 1488 L 4507 1488 L 4507 1464 L 4519 1464 L 4531 1464 L 4531 1466 L 4531 1474 L 4531 1486 L 4531 1498 L 4531 1508 L 4531 1520 L 4531 1532 L 4531 1550 L 4531 1564 L 4545 1578 L 4545 1600" stroke="#00A0D7" stroke-width="35" fill="none" stroke-linecap="round" stroke-linejoin="round"/>
<path d="M 4433 2036 L 4433 2036 L 4433 2038 L 4445 2044 L 4445 2052 L 4445 2064 L 4445 2070 L 4445 2080 L 4445 2096 L 4445 2108 L 4445 2124 L 4445 2140 L 4445 2156 L 4445 2176 L 4445 2192 L 4445 2210 L 4445 2224" stroke="#00A0D7" stroke-width="35" fill="none" stroke-linecap="round" stroke-linejoin="round"/>
<path d="M 4483 2590 L 4479 2592 L 4479 2598 L 4475 2604 L 4473 2610 L 4471 2618 L 4469 2628 L 4463 2636 L 4459 2640 L 4459 2652 L 4457 2664 L 4451 2680 L 4451 2696 L 4451 2710 L 4451 2730 L 4451 2748 L 4449 2764 L 4449 2782 L 4449 2798" stroke="#00A0D7" stroke-width="35" fill="none" stroke-linecap="round" stroke-linejoin="round"/>
<path d="M 4449 2972 L 4449 2982 L 4447 2996 L 4447 3012 L 4443 3024 L 4441 3040 L 4435 3052 L 4435 3070 L 4433 3084 L 4433 3100 L 4427 3114 L 4427 3130 L 4427 3146 L 4427 3160 L 4427 3178 L 4427 3194 L 4427 3208 L 4427 3220 L 4427 3234 L 4427 3248" stroke="#00A0D7" stroke-width="35" fill="none" stroke-linecap="round" stroke-linejoin="round"/>
<circle cx="4429" cy="3272" r="17.5" fill="#00A0D7"/>
<path d="M 4437 3480 L 4451 3500 L 4451 3520 L 4451 3542 L 4451 3558 L 4451 3574 L 4451 3592 L 4451 3608 L 4451 3624 L 4451 3642 L 4451 3658 L 4451 3674 L 4451 3694 L 4451 3710" stroke="#00A0D7" stroke-width="35" fill="none" stroke-linecap="round" stroke-linejoin="round"/>
<path d="M 4463 3830 L 4463 3844 L 4463 3860 L 4463 3872 L 4463 3888 L 4463 3900 L 4463 3916 L 4463 3926 L 4463 3940 L 4463 3956 L 4463 3970 L 4463 3988 L 4459 4004 L 4457 4018 L 4451 4034 L 4451 4054 L 4449 4070 L 4449 4084 L 4449 4104 L 4449 4122 L 4449 4138 L 4449 4156 L 4449 4168" stroke="#00A0D7" stroke-width="35" fill="none" stroke-linecap="round" stroke-linejoin="round"/>
<path d="M 4463 4344 L 4459 4358 L 4459 4372 L 4451 4390 L 4451 4406 L 4449 4426 L 4443 4444 L 4437 4462 L 4435 4484 L 4429 4504 L 4429 4528 L 4427 4550 L 4421 4570 L 4419 4592 L 4419 4610 L 4413 4634 L 4413 4660 L 4413 4678 L 4413 4702 L 4411 4722 L 4411 4738 L 4411 4754 L 4411 4774 L 4411 4788" stroke="#00A0D7" stroke-width="35" fill="none" stroke-linecap="round" stroke-linejoin="round"/>
<path d="M 4427 4900 L 4427 4910 L 4423 4924 L 4421 4938 L 4421 4952 L 4421 4964 L 4419 4980 L 4415 4994 L 4415 5012 L 4413 5024 L 4413 5038 L 4413 5058 L 4405 5058 L 4405 5072 L 4405 5084 L 4405 5098 L 4405 5114 L 4405 5126 L 4405 5138 L 4405 5152 L 4405 5166 L 4405 5180" stroke="#00A0D7" stroke-width="35" fill="none" stroke-linecap="round" stroke-linejoin="round"/>
<path d="M 4433 5324 L 4433 5344 L 4433 5364 L 4433 5386 L 4433 5406 L 4433 5428 L 4433 5450 L 4433 5472 L 4433 5496 L 4433 5516 L 4433 5538 L 4433 5558 L 4433 5576 L 4433 5592 L 4433 5614 L 4433 5628 L 4433 5644 L 4433 5658 L 4433 5672 L 4433 5684 L 4443 5700 L 4443 5710 L 4443 5720 L 4443 5732 L 4463 5748 L 4463 5762 L 4463 5778 L 4473 5796 L 4473 5812 L 4473 5834 L 4473 5854 L 4487 5878 L 4487 5900 L 4487 5928 L 4487 5952 L 4487 5976 L 4487 5998 L 4487 6022 L 4487 6048 L 4487 6066 L 4483 6086 L 4483 6104 L 4477 6124 L 4475 6140 L 4473 6156 L 4473 6172 L 4471 6186 L 4471 6196 L 4467 6208 L 4465 6216 L 4463 6230 L 4463 6240" stroke="#00A0D7" stroke-width="35" fill="none" stroke-linecap="round" stroke-linejoin="round"/>
<path d="M 4451 6278 L 4451 6288 L 4451 6298 L 4451 6304 L 4451 6318 L 4451 6330 L 4451 6342 L 4451 6356 L 4451 6370 L 4451 6386 L 4451 6400 L 4451 6416 L 4451 6432 L 4451 6448 L 4451 6468 L 4465 6484 L 4465 6500 L 4465 6516 L 4465 6532 L 4465 6546 L 4465 6560 L 4465 6576 L 4463 6588 L 4463 6604 L 4463 6618 L 4463 6634" stroke="#00A0D7" stroke-width="35" fill="none" stroke-linecap="round" stroke-linejoin="round"/>
<path d="M 4463 6664 L 4463 6680 L 4463 6698 L 4463 6716 L 4463 6736 L 4463 6754 L 4463 6778 L 4463 6798 L 4473 6822 L 4473 6846 L 4473 6868 L 4473 6892 L 4473 6914 L 4473 6938 L 4473 6962 L 4473 6984 L 4473 7010 L 4473 7032 L 4473 7054 L 4473 7078 L 4473 7096 L 4473 7114 L 4473 7134 L 4473 7152 L 4473 7166 L 4473 7182" stroke="#00A0D7" stroke-width="35" fill="none" stroke-linecap="round" stroke-linejoin="round"/>
<path d="M 4497 7362 L 4497 7382 L 4515 7400 L 4515 7416 L 4515 7438 L 4515 7456 L 4515 7474 L 4515 7490 L 4515 7506 L 4511 7522 L 4511 7538 L 4509 7554 L 4509 7568 L 4507 7584 L 4507 7596 L 4507 7608 L 4507 7620 L 4507 7634" stroke="#00A0D7" stroke-width="35" fill="none" stroke-linecap="round" stroke-linejoin="round"/>
<path d="M 4525 7732 L 4525 7748 L 4525 7768 L 4525 7786" stroke="#00A0D7" stroke-width="35" fill="none" stroke-linecap="round" stroke-linejoin="round"/>
<path d="M 4525 7826 L 4525 7846 L 4525 7868 L 4537 7890 L 4537 7912 L 4533 7938 L 4533 7962 L 4533 7984 L 4533 8008 L 4531 8032 L 4531 8052 L 4531 8078 L 4531 8106 L 4531 8128 L 4531 8154 L 4531 8182 L 4531 8206 L 4531 8228 L 4531 8250 L 4531 8272 L 4531 8294 L 4531 8316 L 4531 8336 L 4531 8356 L 4531 8372" stroke="#00A0D7" stroke-width="35" fill="none" stroke-linecap="round" stroke-linejoin="round"/>
<path d="M 4533 8532 L 4533 8546 L 4533 8562 L 4533 8578 L 4533 8596 L 4531 8612 L 4527 8626 L 4523 8640 L 4519 8652 L 4519 8666 L 4517 8678 L 4509 8690 L 4503 8698 L 4499 8700" stroke="#00A0D7" stroke-width="35" fill="none" stroke-linecap="round" stroke-linejoin="round"/>
<path d="M 14169 1414 L 14169 1414 L 14169 1390 L 14165 1390 L 14165 1400 L 14165 1410 L 14177 1418 L 14177 1428 L 14177 1436 L 14177 1446 L 14187 1460 L 14187 1478 L 14187 1496 L 14187 1516 L 14187 1534 L 14187 1552 L 14207 1572 L 14207 1590 L 14207 1608 L 14207 1624 L 14207 1644 L 14207 1658 L 14207 1676 L 14207 1692 L 14203 1706 L 14201 1720 L 14199 1736 L 14199 1752 L 14199 1764 L 14199 1780 L 14199 1794" stroke="#00A0D7" stroke-width="35" fill="none" stroke-linecap="round" stroke-linejoin="round"/>
<path d="M 14213 2012 L 14213 2026 L 14213 2042 L 14209 2054 L 14209 2070 L 14207 2086 L 14199 2102 L 14199 2116 L 14195 2130 L 14191 2140 L 14187 2156" stroke="#00A0D7" stroke-width="35" fill="none" stroke-linecap="round" stroke-linejoin="round"/>
<path d="M 14161 2448 L 14157 2470 L 14157 2490 L 14155 2506 L 14153 2522 L 14153 2540 L 14153 2560 L 14149 2576 L 14147 2592 L 14147 2606" stroke="#00A0D7" stroke-width="35" fill="none" stroke-linecap="round" stroke-linejoin="round"/>
<path d="M 14103 3526 L 14103 3544 L 14101 3564 L 14101 3580 L 14095 3602 L 14093 3618 L 14089 3638 L 14089 3656 L 14081 3676 L 14079 3694 L 14079 3714 L 14073 3732 L 14069 3750 L 14067 3774 L 14067 3796 L 14067 3816 L 14067 3836 L 14067 3856 L 14067 3874" stroke="#00A0D7" stroke-width="35" fill="none" stroke-linecap="round" stroke-linejoin="round"/>
<path d="M 14111 4032 L 14111 4046 L 14111 4060 L 14111 4072 L 14125 4084 L 14125 4094 L 14125 4106 L 14125 4114 L 14125 4128 L 14125 4140 L 14125 4152 L 14125 4168 L 14125 4180 L 14125 4196 L 14125 4210 L 14125 4226 L 14125 4242 L 14125 4258 L 14125 4276 L 14125 4300 L 14125 4318 L 14125 4344 L 14125 4370 L 14121 4394 L 14121 4426 L 14117 4456 L 14113 4486 L 14111 4514 L 14107 4550 L 14107 4582 L 14103 4620 L 14103 4652 L 14097 4690 L 14097 4724" stroke="#00A0D7" stroke-width="35" fill="none" stroke-linecap="round" stroke-linejoin="round"/>
<path d="M 14127 5082 L 14127 5104 L 14127 5128 L 14127 5154 L 14141 5174 L 14141 5202 L 14141 5224 L 14141 5246 L 14141 5272 L 14139 5298 L 14135 5326 L 14135 5354 L 14131 5382 L 14127 5406 L 14125 5432" stroke="#00A0D7" stroke-width="35" fill="none" stroke-linecap="round" stroke-linejoin="round"/>
<path d="M 14123 5684 L 14123 5698 L 14123 5718 L 14135 5732 L 14135 5746 L 14135 5762 L 14135 5776 L 14135 5792 L 14135 5804 L 14135 5822 L 14135 5840 L 14135 5858 L 14135 5876 L 14131 5890 L 14127 5908 L 14125 5922 L 14125 5938" stroke="#00A0D7" stroke-width="35" fill="none" stroke-linecap="round" stroke-linejoin="round"/>
<path d="M 14125 6088 L 14125 6104 L 14125 6124 L 14125 6140 L 14125 6162 L 14125 6184 L 14125 6208 L 14125 6228 L 14125 6252 L 14125 6274 L 14139 6300 L 14135 6322 L 14135 6350 L 14135 6378 L 14135 6404 L 14149 6434 L 14149 6462 L 14149 6490 L 14149 6516 L 14149 6544 L 14163 6570 L 14163 6592 L 14163 6618 L 14163 6642 L 14163 6666 L 14177 6688 L 14177 6714 L 14177 6732 L 14177 6754 L 14177 6776 L 14177 6798 L 14195 6818 L 14195 6838 L 14195 6866 L 14195 6888 L 14195 6908 L 14195 6934 L 14195 6960 L 14195 6982 L 14195 7006 L 14195 7032 L 14193 7054 L 14193 7076 L 14193 7096 L 14193 7116 L 14193 7140 L 14191 7160 L 14187 7178" stroke="#00A0D7" stroke-width="35" fill="none" stroke-linecap="round" stroke-linejoin="round"/>
<path d="M 14213 7460 L 14213 7474 L 14213 7490 L 14213 7504 L 14213 7520 L 14213 7538 L 14209 7554 L 14209 7570 L 14209 7584 L 14199 7598 L 14199 7612 L 14191 7622 L 14185 7642 L 14179 7656 L 14179 7672 L 14177 7682 L 14171 7696 L 14171 7710 L 14171 7724 L 14171 7732 L 14171 7742 L 14171 7754 L 14171 7768 L 14171 7780 L 14171 7794 L 14171 7808 L 14171 7828 L 14171 7846 L 14171 7866 L 14171 7884 L 14171 7904 L 14171 7924 L 14171 7948 L 14169 7970 L 14169 7994 L 14169 8016 L 14165 8036 L 14165 8056 L 14163 8076 L 14163 8092 L 14163 8106 L 14163 8116 L 14161 8130 L 14161 8140 L 14157 8146" stroke="#00A0D7" stroke-width="35" fill="none" stroke-linecap="round" stroke-linejoin="round"/>
<path d="M 14157 8234 L 14157 8246 L 14157 8258 L 14157 8270 L 14157 8286 L 14177 8302 L 14177 8322 L 14177 8338 L 14177 8354 L 14177 8368 L 14177 8382 L 14177 8398 L 14177 8412 L 14177 8424 L 14177 8440 L 14177 8454 L 14177 8468 L 14177 8482 L 14177 8490 L 14177 8504 L 14177 8516 L 14177 8528 L 14177 8544 L 14177 8556 L 14187 8572 L 14187 8584 L 14187 8600" stroke="#00A0D7" stroke-width="35" fill="none" stroke-linecap="round" stroke-linejoin="round"/>
<path d="M 14207 8648 L 14221 8662 L 14221 8678 L 14235 8692 L 14235 8708 L 14247 8724 L 14247 8738 L 14247 8760 L 14261 8776 L 14261 8796 L 14261 8812 L 14261 8830 L 14261 8850 L 14261 8866 L 14261 8886 L 14261 8902 L 14261 8916 L 14261 8930 L 14261 8940 L 14261 8952" stroke="#00A0D7" stroke-width="35" fill="none" stroke-linecap="round" stroke-linejoin="round"/>
<path d="M 6173 2569 L 6173 3318 L 8289 3318 L 8289 2569 L 6173 2569" stroke="#000000" stroke-width="25.00001" fill="none" stroke-linecap="round" stroke-linejoin="round"/>
<path d="M 6236 3486 L 6230 3486 L 6220 3486 L 6206 3486 L 6184 3486 L 6162 3486 L 6136 3486 L 6114 3490 L 6098 3500 L 6086 3518 L 6084 3536 L 6090 3548 L 6100 3564 L 6116 3576 L 6132 3588 L 6146 3598 L 6160 3614 L 6174 3628 L 6194 3642 L 6212 3654 L 6230 3662 L 6248 3672 L 6270 3674 L 6288 3678 L 6302 3690 L 6308 3704 L 6308 3720 L 6298 3740 L 6286 3762 L 6270 3782 L 6258 3800 L 6250 3820 L 6240 3838 L 6226 3848 L 6212 3860 L 6194 3870 L 6184 3882 L 6166 3890 L 6150 3902 L 6136 3916 L 6124 3930 L 6110 3942 L 6094 3952 L 6078 3958" stroke="#000000" stroke-width="25.00001" fill="none" stroke-linecap="round" stroke-linejoin="round"/>
<path d="M 8248 3486 L 8244 3486 L 8234 3486 L 8220 3486 L 8202 3486 L 8176 3486 L 8148 3486 L 8122 3486 L 8092 3486 L 8066 3490 L 8048 3500 L 8034 3518 L 8026 3538 L 8024 3562 L 8022 3588 L 8030 3614 L 8040 3636 L 8050 3658 L 8058 3682 L 8062 3704 L 8066 3726 L 8070 3750 L 8074 3774 L 8082 3790 L 8096 3802 L 8116 3810 L 8138 3814 L 8166 3814 L 8190 3812" stroke="#000000" stroke-width="25.00001" fill="none" stroke-linecap="round" stroke-linejoin="round"/>
<path d="M 8248 3698 L 8244 3698 L 8234 3698 L 8220 3698 L 8202 3698 L 8176 3698 L 8148 3698 L 8122 3698 L 8092 3698 L 8062 3698 L 8034 3698 L 8006 3698 L 7980 3698 L 7958 3698" stroke="#000000" stroke-width="25.00001" fill="none" stroke-linecap="round" stroke-linejoin="round"/>
<path d="M 68 7086 L 60 7086 L 52 7086 L 46 7058 L 42 7058 L 38 7058 L 34 7058 L 30 7058 L 28 7034 L 26 7034 L 20 7034 L 16 7034 L 14 7034 L 10 7034 L 10 7004 L 10 7008 L 10 7012 L 10 7020 L 10 7028 L 10 7044 L 10 7062 L 10 7080 L 38 7100 L 38 7126 L 38 7148 L 38 7172 L 38 7198 L 68 7226 L 68 7254 L 68 7278 L 68 7300 L 96 7322 L 96 7340 L 96 7352 L 96 7360 L 96 7368 L 96 7324 L 96 7282 L 96 7254 L 96 7226 L 92 7196 L 92 7166 L 92 7134 L 92 7104 L 90 7074 L 90 7044 L 90 7000 L 90 6964 L 118 6964 L 118 6966 L 156 6978 L 156 6990 L 188 7000 L 188 7018 L 188 7034 L 226 7052 L 226 7070 L 264 7080 L 264 7096 L 264 7110 L 294 7120 L 294 7124 L 322 7124 L 322 7096 L 322 7064 L 322 7028 L 322 6990 L 322 6956 L 350 6956 L 350 6928 L 378 6928 L 378 6930 L 378 6940 L 408 6952 L 408 6966 L 408 6986 L 440 7008 L 440 7028 L 464 7054 L 464 7076 L 464 7100 L 492 7122 L 492 7144 L 492 7164 L 492 7180 L 492 7196 L 520 7206 L 520 7218 L 520 7230 L 520 7240 L 520 7248 L 520 7258 L 520 7260 L 520 7266 L 520 7272 L 520 7276 L 520 7284 L 520 7286 L 520 7290 L 520 7292 L 520 7294 L 520 7298 L 550 7298" stroke="#000000" stroke-width="25.00001" fill="none" stroke-linecap="round" stroke-linejoin="round"/>
<circle cx="2960" cy="5676" r="12.500005" fill="#000000"/>
<path d="M 2986 5676 L 2986 5676 L 3018 5676 L 3046 5676 L 3046 5648 L 3046 5652 L 3046 5624 L 3070 5624 L 3070 5624 L 3070 5630 L 3070 5634 L 3070 5642 L 3070 5650 L 3070 5658 L 3070 5668 L 3070 5680 L 3070 5690 L 3070 5704 L 3070 5718 L 3070 5730 L 3070 5746 L 3070 5760 L 3070 5774 L 3070 5786 L 3070 5796 L 3070 5804 L 3070 5814 L 3070 5824 L 3070 5826 L 3070 5830 L 3070 5834 L 3070 5804 L 3070 5780 L 3070 5748 L 3070 5714 L 3070 5680 L 3070 5642 L 3070 5614 L 3100 5614 L 3100 5584 L 3096 5584 L 3096 5556 L 3124 5556 L 3154 5556 L 3184 5556 L 3184 5558 L 3184 5564 L 3184 5570 L 3184 5578 L 3184 5592 L 3216 5600 L 3216 5614 L 3216 5624 L 3216 5640 L 3216 5652 L 3248 5666 L 3248 5680 L 3248 5690 L 3248 5704 L 3248 5714 L 3274 5724 L 3274 5730 L 3274 5738 L 3274 5742 L 3274 5744 L 3274 5746 L 3268 5718 L 3268 5690 L 3268 5660 L 3268 5632 L 3296 5632 L 3294 5632 L 3294 5602 L 3288 5602 L 3288 5574 L 3288 5576 L 3316 5576 L 3316 5576 L 3308 5576 L 3336 5576 L 3334 5576 L 3330 5576 L 3354 5576 L 3382 5576 L 3382 5586 L 3382 5590 L 3382 5596 L 3382 5604 L 3382 5614 L 3382 5624 L 3382 5636 L 3382 5652 L 3382 5664 L 3410 5680 L 3410 5694 L 3410 5710 L 3436 5728 L 3436 5748 L 3436 5766 L 3462 5786 L 3462 5804 L 3462 5824 L 3462 5838 L 3496 5852 L 3496 5866 L 3520 5876 L 3520 5888 L 3520 5898 L 3520 5906 L 3520 5910 L 3520 5916 L 3544 5920 L 3544 5920 L 3544 5922 L 3544 5924 L 3544 5926" stroke="#000000" stroke-width="25.00001" fill="none" stroke-linecap="round" stroke-linejoin="round"/>
<path d="M 3956 2914 L 3950 2914 L 3942 2914 L 3936 2914 L 3932 2914 L 3924 2914 L 3920 2914 L 3914 2914 L 3912 2914 L 3908 2890 L 3902 2890 L 3900 2890 L 3898 2890 L 3896 2890 L 3894 2890 L 3912 2890 L 3912 2898 L 3936 2906 L 3950 2914 L 3972 2924 L 3990 2936 L 4016 2946 L 4044 2960 L 4066 2976 L 4094 2992 L 4122 3008 L 4152 3024 L 4172 3042 L 4196 3056 L 4218 3064 L 4238 3076 L 4238 3084 L 4262 3092 L 4262 3096 L 4282 3104 L 4282 3106" stroke="#FF0000" stroke-width="35" fill="none" stroke-linecap="round" stroke-linejoin="round"/>
<path d="M 4202 2880 L 4198 2880 L 4196 2880 L 4194 2880 L 4192 2880 L 4188 2880 L 4186 2880 L 4180 2884 L 4178 2892 L 4168 2904 L 4166 2922 L 4156 2938 L 4146 2954 L 4132 2976 L 4120 2998 L 4102 3018 L 4082 3042 L 4066 3066 L 4048 3086 L 4032 3106 L 4018 3126 L 4002 3146 L 3988 3158 L 3976 3170 L 3966 3182 L 3954 3192 L 3948 3200 L 3942 3208" stroke="#FF0000" stroke-width="35" fill="none" stroke-linecap="round" stroke-linejoin="round"/>
<path d="M 1818 3750 L 1818 3750 L 1810 3750 L 1830 3750 L 1830 3754 L 1852 3764 L 1872 3774 L 1898 3784 L 1920 3798 L 1946 3812 L 1978 3828 L 2014 3848 L 2048 3864 L 2082 3880 L 2114 3904 L 2150 3924 L 2180 3942 L 2210 3964 L 2240 3980 L 2266 3994 L 2284 4010 L 2304 4022 L 2304 4030 L 2324 4036" stroke="#FF0000" stroke-width="35" fill="none" stroke-linecap="round" stroke-linejoin="round"/>
<path d="M 2244 3822 L 2242 3822 L 2234 3822 L 2234 3796 L 2232 3796 L 2230 3796 L 2224 3770 L 2222 3770 L 2214 3772 L 2208 3776 L 2202 3784 L 2192 3792 L 2188 3806 L 2180 3824 L 2172 3846 L 2156 3872 L 2144 3892 L 2130 3918 L 2116 3946 L 2102 3974 L 2086 4004 L 2072 4034 L 2058 4060 L 2048 4082 L 2034 4102 L 2026 4116 L 2014 4132 L 2010 4142 L 2004 4150 L 2000 4154 L 1996 4156" stroke="#FF0000" stroke-width="35" fill="none" stroke-linecap="round" stroke-linejoin="round"/>
<path d="M 4696 5052 L 4684 5052 L 4676 5052 L 4668 5052 L 4656 5052 L 4652 5024 L 4644 5024 L 4634 5024 L 4628 5024 L 4622 5024 L 4610 5024 L 4606 5024 L 4596 5024 L 4592 5024 L 4590 5024 L 4588 5024 L 4586 5024 L 4600 5024 L 4622 5028 L 4638 5038 L 4660 5050 L 4680 5058 L 4700 5074 L 4720 5088 L 4742 5106 L 4764 5124 L 4786 5140 L 4812 5152 L 4834 5172 L 4854 5184 L 4868 5196 L 4868 5204 L 4894 5214 L 4894 5220 L 4894 5224 L 4914 5232" stroke="#FF0000" stroke-width="35" fill="none" stroke-linecap="round" stroke-linejoin="round"/>
<path d="M 4842 5002 L 4838 5002 L 4836 5002 L 4832 5002 L 4830 5002 L 4828 5002 L 4818 5004 L 4808 5016 L 4800 5030 L 4786 5048 L 4770 5066 L 4752 5082 L 4736 5100 L 4716 5122 L 4698 5144 L 4676 5170 L 4658 5192 L 4636 5216 L 4618 5234 L 4598 5252 L 4580 5272 L 4566 5284 L 4556 5296 L 4546 5306 L 4542 5312 L 4534 5314" stroke="#FF0000" stroke-width="35" fill="none" stroke-linecap="round" stroke-linejoin="round"/>
<path d="M 2052 6484 L 2048 6484 L 2044 6484 L 2040 6484 L 2036 6484 L 2036 6460 L 2030 6460 L 2028 6460 L 2024 6460 L 2024 6438 L 2022 6438 L 2014 6438 L 2044 6438 L 2068 6440 L 2094 6452 L 2114 6460 L 2144 6474 L 2172 6488 L 2208 6500 L 2246 6516 L 2286 6534 L 2324 6550 L 2366 6568 L 2400 6582 L 2438 6600 L 2468 6614 L 2494 6626 L 2518 6640 L 2536 6650 L 2536 6654 L 2558 6654" stroke="#FF0000" stroke-width="35" fill="none" stroke-linecap="round" stroke-linejoin="round"/>
<path d="M 2494 6432 L 2492 6432 L 2492 6408 L 2490 6408 L 2490 6376 L 2488 6376 L 2488 6350 L 2482 6352 L 2480 6352 L 2480 6354 L 2474 6362 L 2468 6370 L 2466 6386 L 2462 6402 L 2452 6426 L 2442 6448 L 2434 6472 L 2420 6494 L 2404 6520 L 2392 6544 L 2374 6568 L 2360 6592 L 2346 6612 L 2330 6632 L 2318 6652 L 2306 6664 L 2294 6674 L 2280 6684 L 2272 6686" stroke="#FF0000" stroke-width="35" fill="none" stroke-linecap="round" stroke-linejoin="round"/>
<path d="M 3228 1088 L 3228 1088 L 3226 1088 L 3222 1088 L 3214 1088 L 3214 1088 L 3214 1090 L 3208 1090 L 3204 1090 L 3202 1090 L 3200 1090 L 3198 1090 L 3194 1090 L 3192 1092 L 3192 1094 L 3188 1094 L 3186 1096 L 3184 1096 L 3176 1096 L 3176 1096 L 3168 1096 L 3162 1096 L 3152 1096 L 3142 1096 L 3132 1096 L 3120 1096 L 3110 1096 L 3098 1096 L 3088 1096 L 3078 1096 L 3064 1096 L 3056 1096 L 3046 1096 L 3032 1096 L 3022 1096 L 3008 1096 L 3000 1096 L 2994 1096 L 2984 1096 L 2978 1096 L 2972 1096 L 2966 1096 L 2958 1096 L 2956 1096 L 2946 1096 L 2944 1096 L 2938 1096 L 2936 1096 L 2934 1096 L 2930 1096 L 2928 1096 L 2928 1096 L 2926 1096 L 2922 1096 L 2918 1096 L 2918 1096 L 2918 1074 L 2916 1074 L 2916 1050 L 2914 1050 L 2914 1024 L 2910 1024 L 2910 988 L 2908 988 L 2906 964 L 2904 940 L 2900 914 L 2898 914 L 2898 892 L 2898 892 L 2894 892 L 2890 858 L 2890 824 L 2888 824 L 2884 798 L 2882 798 L 2880 772 L 2880 772 L 2880 742 L 2874 712 L 2874 690 L 2874 666 L 2870 666 L 2868 666 L 2868 644 L 2866 644 L 2866 618 L 2864 620 L 2860 620 L 2860 598" stroke="#000000" stroke-width="25.00001" fill="none" stroke-linecap="round" stroke-linejoin="round"/>
<path d="M 2618 1509 L 3838 1502" stroke="#FF0000" stroke-width="35" fill="none" stroke-linecap="round" stroke-linejoin="round"/>
<path d="M 3607 1389 L 3838 1502 L 3608 1619" stroke="#FF0000" stroke-width="35" fill="none" stroke-linecap="round" stroke-linejoin="round"/></svg>