<svg xmlns="http://www.w3.org/2000/svg" width="23715" height="218644" viewBox="0 0 23715 218644"><path d="M 1663 10 L 1655 10 L 1638 10 L 1605 10 L 1554 10 L 1488 10 L 1413 10 L 1331 10 L 1256 10 L 1192 10 L 1132 10 L 1083 10 L 1040 17 L 1005 30 L 980 50 L 957 79 L 930 119 L 902 154 L 866 190 L 821 232 L 775 278 L 735 323 L 699 359 L 666 394 L 631 430 L 595 470 L 563 504 L 540 538 L 524 576 L 515 612 L 510 650 L 507 685 L 507 718 L 509 748 L 512 777 L 514 805 L 517 834 L 525 863 L 537 895 L 560 923 L 583 953 L 605 982 L 623 1014 L 649 1042 L 682 1072 L 722 1098 L 765 1116 L 811 1126 L 859 1134 L 916 1148 L 973 1161 L 1043 1171 L 1116 1177 L 1190 1186 L 1269 1192 L 1347 1204 L 1413 1217 L 1478 1229 L 1541 1239 L 1605 1247 L 1668 1254 L 1729 1260 L 1787 1263 L 1850 1267 L 1909 1268 L 1967 1270 L 2017 1270 L 2071 1268 L 2121 1268 L 2174 1270 L 2229 1270 L 2288 1268 L 2349 1268 L 2419 1270 L 2491 1270 L 2556 1268 L 2616 1268 L 2673 1270 L 2730 1270 L 2783 1268 L 2827 1268 L 2870 1270 L 2912 1267 L 2954 1252 L 2991 1227 L 3022 1197 L 3054 1164 L 3080 1126 L 3108 1087 L 3135 1045 L 3156 999 L 3176 958 L 3193 918 L 3206 877 L 3214 834 L 3221 794 L 3222 752 L 3222 709 L 3222 665 L 3216 612 L 3203 559 L 3183 506 L 3153 450 L 3120 400 L 3085 356 L 3052 318 L 3014 281 L 2971 246 L 2916 215 L 2855 182 L 2786 156 L 2708 136 L 2627 122 L 2541 116 L 2448 113 L 2356 113 L 2257 114 L 2157 117 L 2055 119 L 1946 119 L 1838 117 L 1724 117 L 1608 119 L 1501 119 L 1410 117 L 1331 117 L 1268 119 L 1218 119 L 1183 117" stroke="#FFC114" stroke-width="100" fill="none" stroke-linecap="round" stroke-linejoin="round"/>
<path d="M 137 7584 L 142 7584 L 158 7584 L 200 7584 L 259 7584 L 345 7584 L 461 7584 L 607 7584 L 784 7584 L 1002 7584 L 1255 7584 L 1526 7584 L 1806 7584 L 2080 7584 L 2350 7584 L 2624 7584 L 2885 7584 L 3135 7584 L 3381 7584 L 3606 7584 L 3821 7584 L 4026 7584 L 4220 7584 L 4412 7584 L 4589 7584 L 4761 7584 L 4928 7584 L 5086 7584 L 5230 7584 L 5372 7584 L 5510 7584 L 5644 7584 L 5779 7584 L 5915 7584 L 6055 7584 L 6203 7584 L 6358 7584 L 6522 7584 L 6692 7587 L 6864 7601 L 7038 7615 L 7210 7629 L 7380 7640 L 7552 7650 L 7736 7658 L 7927 7663 L 8141 7667 L 8366 7670 L 8595 7672 L 8837 7673 L 9093 7673 L 9354 7672 L 9624 7672 L 9897 7673 L 10171 7673 L 10459 7672 L 10748 7672 L 11028 7673 L 11302 7673 L 11574 7672 L 11846 7672 L 12118 7673 L 12391 7673 L 12665 7672 L 12933 7672 L 13196 7673 L 13446 7673 L 13684 7672 L 13910 7672 L 14132 7673 L 14348 7673 L 14550 7672 L 14745 7672 L 14929 7673 L 15119 7673 L 15304 7672 L 15488 7672 L 15673 7673 L 15870 7673 L 16065 7672 L 16263 7672 L 16460 7673 L 16655 7673 L 16849 7672 L 17041 7672 L 17229 7673 L 17414 7673 L 17585 7672 L 17743 7672 L 17907 7673 L 18076 7673 L 18244 7672 L 18415 7672 L 18585 7673 L 18757 7673 L 18921 7672 L 19073 7672 L 19213 7673 L 19342 7673 L 19453 7672 L 19564 7672 L 19667 7673 L 19761 7673 L 19852 7672 L 19934 7672 L 20017 7673 L 20105 7673 L 20186 7672 L 20268 7672 L 20350 7673 L 20427 7673 L 20507 7672 L 20583 7672 L 20652 7673 L 20717 7673 L 20775 7672 L 20827 7672 L 20875 7673 L 20918 7673 L 20953 7672 L 20986 7672 L 21014 7673 L 21044 7673 L 21072 7672 L 21105 7672 L 21133 7680 L 21163 7690 L 21191 7698 L 21211 7703 L 21216 7706 L 21209 7710 L 21191 7711 L 21168 7713 L 21140 7716 L 21109 7721 L 21075 7726 L 21036 7726 L 20989 7731 L 20946 7738 L 20900 7746 L 20846 7756 L 20793 7764 L 20745 7773 L 20695 7779 L 20646 7784 L 20601 7794 L 20563 7806 L 20530 7812 L 20498 7820 L 20469 7827 L 20437 7839 L 20414 7862 L 20396 7890 L 20388 7921 L 20384 7954 L 20381 7987 L 20383 8021 L 20384 8054 L 20384 8083 L 20383 8113 L 20369 8138 L 20341 8156 L 20295 8159 L 20225 8155 L 20120 8146 L 19989 8136 L 19817 8126 L 19607 8118 L 19376 8113 L 19127 8110 L 18873 8110 L 18626 8112 L 18393 8112 L 18178 8110 L 17988 8110 L 17821 8112 L 17682 8112 L 17560 8110 L 17441 8110 L 17323 8112 L 17204 8112 L 17077 8110 L 16941 8110 L 16797 8112 L 16634 8112 L 16458 8110 L 16272 8110 L 16081 8112 L 15880 8112 L 15688 8110 L 15508 8110 L 15322 8112 L 15139 8112 L 14967 8110 L 14797 8110 L 14625 8112 L 14444 8112 L 14253 8110 L 14059 8110 L 13861 8112 L 13664 8112 L 13462 8110 L 13269 8110 L 13082 8112 L 12900 8112 L 12736 8110 L 12579 8110 L 12434 8112 L 12296 8112 L 12167 8110 L 12043 8110 L 11924 8112 L 11800 8112 L 11671 8110 L 11541 8110 L 11405 8112 L 11268 8112 L 11124 8110 L 10972 8110 L 10818 8112 L 10669 8112 L 10519 8110 L 10373 8110 L 10234 8112 L 10102 8112 L 9966 8110 L 9834 8110 L 9703 8112 L 9564 8112 L 9414 8110 L 9242 8110 L 9057 8112 L 8855 8112 L 8643 8110 L 8413 8110 L 8182 8112 L 7955 8112 L 7740 8110 L 7540 8110 L 7344 8112 L 7162 8112 L 6990 8110 L 6823 8110 L 6667 8112 L 6513 8112 L 6365 8110 L 6224 8110 L 6080 8112 L 5935 8112 L 5786 8110 L 5630 8110 L 5460 8112 L 5273 8112 L 5081 8110 L 4886 8110 L 4701 8112 L 4521 8112 L 4352 8110 L 4195 8110 L 4056 8112 L 3934 8112 L 3831 8110 L 3747 8110 L 3666 8112 L 3583 8112 L 3491 8110 L 3383 8110 L 3264 8112 L 3133 8112 L 2998 8110 L 2854 8110 L 2710 8112 L 2571 8112 L 2437 8110 L 2315 8110 L 2194 8112 L 2072 8112 L 1951 8110 L 1827 8110 L 1698 8112 L 1562 8112 L 1425 8110 L 1298 8110 L 1182 8112 L 1066 8112 L 956 8110 L 851 8110 L 752 8112 L 655 8112 L 572 8110 L 494 8110 L 421 8112 L 354 8112 L 287 8110 L 230 8110 L 180 8112 L 135 8112 L 97 8110 L 64 8110 L 36 8112 L 10 8112 L 15 8110 L 58 8110 L 154 8112 L 297 8112 L 478 8110 L 699 8110 L 954 8112 L 1227 8112 L 1523 8110 L 1824 8110 L 2131 8112 L 2450 8105 L 2773 8087 L 3094 8060 L 3405 8037 L 3707 8021 L 3992 8009 L 4271 8001 L 4542 7997 L 4818 7997 L 5100 7999 L 5392 7999 L 5690 7997 L 5988 7997 L 6295 7999 L 6599 7999 L 6905 7997 L 7210 7997 L 7506 7999 L 7787 7999 L 8056 7997 L 8326 7997 L 8614 7999 L 8910 7999 L 9209 7997 L 9500 7997 L 9778 7999 L 10029 7999 L 10264 7997 L 10486 7997 L 10696 7999 L 10892 7999 L 11087 7997 L 11274 7997 L 11474 7999 L 11676 7999 L 11880 7997 L 12080 7997 L 12275 7992 L 12463 7986 L 12657 7968 L 12857 7948 L 13055 7931 L 13259 7918 L 13477 7910 L 13694 7903 L 13918 7902 L 14157 7902 L 14408 7902 L 14666 7902 L 14937 7902 L 15212 7902 L 15489 7902 L 15749 7902 L 15994 7902 L 16220 7902 L 16429 7902 L 16614 7902 L 16778 7902 L 16930 7902 L 17070 7902 L 17209 7902 L 17353 7902 L 17502 7902 L 17659 7902 L 17811 7902 L 17962 7902 L 18114 7902 L 18271 7902 L 18423 7902 L 18572 7902 L 18717 7902 L 18851 7902 L 18977 7902 L 19088 7902 L 19190 7902 L 19281 7902 L 19366 7902 L 19438 7902 L 19506 7902 L 19569 7902 L 19627 7902 L 19683 7902 L 19729 7902 L 19781 7902 L 19837 7902 L 19898 7902 L 19968 7902 L 20044 7902 L 20128 7902 L 20216 7902 L 20311 7902 L 20407 7902 L 20498 7902 L 20579 7902 L 20649 7902 L 20705 7902 L 20750 7902 L 20791 7902 L 20834 7902 L 20874 7902 L 20922 7902 L 20975 7902 L 21036 7902 L 21105 7902 L 21181 7902 L 21266 7902 L 21353 7902 L 21443 7902 L 21529 7902 L 21603 7902 L 21663 7898 L 21704 7888 L 21724 7863 L 21720 7825 L 21697 7769 L 21656 7705 L 21605 7637 L 21542 7574 L 21469 7515 L 21385 7460 L 21279 7414 L 21155 7372 L 21032 7333 L 20917 7300 L 20819 7276 L 20741 7263 L 20679 7255 L 20621 7258 L 20566 7267 L 20526 7280 L 20497 7300 L 20477 7323 L 20465 7349 L 20455 7377 L 20454 7407 L 20467 7435 L 20497 7458 L 20530 7483 L 20568 7505 L 20607 7521 L 20646 7541 L 20685 7559 L 20718 7576 L 20751 7597 L 20778 7620 L 20798 7647 L 20811 7675 L 20817 7705 L 20821 7733 L 20824 7763 L 20826 7791 L 20827 7819 L 20831 7849 L 20839 7880 L 20851 7915 L 20870 7954 L 20890 7994 L 20907 8034 L 20917 8070 L 20902 8107 L 20851 8135 L 20758 8159 L 20619 8186 L 20450 8216 L 20262 8242 L 20065 8267 L 19862 8297 L 19676 8331 L 19526 8361 L 19417 8388 L 19352 8406 L 19326 8419 L 19334 8427 L 19374 8431 L 19432 8429 L 19511 8417 L 19629 8381 L 19774 8328 L 19948 8267 L 20126 8201 L 20303 8136 L 20459 8073 L 20589 8019 L 20695 7971 L 20776 7935 L 20842 7906 L 20894 7888 L 20933 7878 L 20971 7875 L 21011 7873 L 21049 7875 L 21089 7878 L 21122 7892 L 21148 7910 L 21168 7933 L 21171 7958 L 21152 7978 L 21104 7992 L 21014 8002 L 20880 8007 L 20708 8011 L 20498 8011 L 20250 8009 L 19968 8006 L 19643 8004 L 19278 8001 L 18878 7999 L 18456 7997 L 18029 7997 L 17593 7999 L 17141 7999 L 16665 7997 L 16177 7997 L 15685 7999 L 15193 7999 L 14742 7997 L 14332 7997 L 13963 7999 L 13642 7999 L 13360 7997 L 13115 7997 L 12888 7999 L 12667 7999 L 12453 7997 L 12228 7997 L 11992 7999 L 11737 7999 L 11461 7997 L 11180 7997 L 10894 7999 L 10598 7999 L 10304 7997 L 10003 7997 L 9700 7999 L 9407 7999 L 9106 7997 L 8799 7997 L 8483 7999 L 8151 7999 L 7820 7997 L 7492 7997 L 7175 7999 L 6876 7999 L 6604 7997 L 6368 7997 L 6176 7999 L 6022 7999 L 5910 7997 L 5832 7997 L 5773 7999 L 5721 7999 L 5682 7997 L 5647 7997 L 5620 7999" stroke="#FFFC00" stroke-width="83.99999" fill="none" stroke-linecap="round" stroke-linejoin="round" opacity="0.50"/>
<path d="M 1193 1272 L 1188 1270 L 1181 1274 L 1173 1292 L 1167 1327 L 1162 1373 L 1158 1436 L 1163 1515 L 1175 1606 L 1198 1709 L 1239 1833 L 1287 1958 L 1340 2096 L 1401 2248 L 1477 2421 L 1555 2597 L 1638 2790 L 1730 2997 L 1825 3208 L 1924 3435 L 2025 3670 L 2124 3916 L 2210 4158 L 2279 4384 L 2339 4594 L 2390 4779 L 2430 4935 L 2465 5067 L 2504 5188 L 2549 5297 L 2589 5388 L 2627 5457 L 2663 5514 L 2696 5571 L 2728 5633 L 2757 5696 L 2795 5775 L 2828 5859 L 2863 5945 L 2896 6026 L 2928 6109 L 2957 6187 L 2989 6258 L 3017 6317 L 3050 6382 L 3086 6438 L 3119 6486 L 3154 6526 L 3187 6562 L 3212 6595 L 3229 6627 L 3240 6653 L 3245 6681 L 3252 6708 L 3260 6729" stroke="#FFC114" stroke-width="100" fill="none" stroke-linecap="round" stroke-linejoin="round"/>
<path d="M 2189 136770 L 2194 136768 L 2207 136768 L 2239 136770 L 2285 136773 L 2353 136785 L 2439 136796 L 2549 136806 L 2698 136815 L 2882 136820 L 3097 136823 L 3333 136826 L 3593 136828 L 3864 136830 L 4145 136830 L 4416 136828 L 4676 136828 L 4931 136830 L 5171 136830 L 5392 136828 L 5596 136828 L 5776 136830 L 5935 136830 L 6077 136828 L 6206 136828 L 6323 136830 L 6427 136830 L 6533 136828 L 6634 136828 L 6737 136830 L 6841 136830 L 6953 136828 L 7079 136828 L 7208 136830 L 7340 136830 L 7464 136828 L 7583 136828 L 7701 136830 L 7823 136830 L 7945 136828 L 8066 136828 L 8197 136833 L 8329 136839 L 8461 136843 L 8590 136846 L 8723 136848 L 8853 136849 L 8979 136849 L 9103 136848 L 9219 136854 L 9328 136863 L 9442 136873 L 9553 136881 L 9662 136889 L 9768 136899 L 9869 136907 L 9971 136916 L 10075 136919 L 10181 136920 L 10284 136919 L 10383 136919 L 10477 136919 L 10566 136919 L 10654 136919 L 10740 136919 L 10828 136919 L 10910 136919 L 10991 136919 L 11074 136919 L 11155 136919 L 11239 136919 L 11315 136919 L 11382 136919 L 11443 136919 L 11509 136919 L 11577 136919 L 11646 136919 L 11712 136919 L 11774 136919 L 11833 136919 L 11894 136919 L 11960 136919 L 12030 136919 L 12106 136919 L 12184 136919 L 12261 136919 L 12337 136919 L 12415 136919 L 12493 136919 L 12572 136919 L 12653 136919 L 12726 136919 L 12797 136919 L 12870 136919 L 12944 136919 L 13017 136919 L 13085 136919 L 13141 136919 L 13194 136919 L 13245 136919 L 13295 136919 L 13346 136919 L 13389 136919 L 13430 136919 L 13475 136919 L 13521 136919 L 13564 136919 L 13604 136919 L 13645 136919 L 13688 136919 L 13743 136919 L 13799 136919 L 13854 136919 L 13908 136919 L 13961 136919 L 14009 136919 L 14062 136919 L 14110 136919 L 14156 136919 L 14203 136919 L 14252 136919 L 14299 136919 L 14340 136919 L 14376 136919 L 14408 136919 L 14438 136919 L 14467 136919 L 14495 136919 L 14524 136919 L 14550 136919" stroke="#FFC114" stroke-width="100" fill="none" stroke-linecap="round" stroke-linejoin="round"/>
<path d="M 23677 218634 L 23682 218629 L 23689 218616 L 23697 218593 L 23703 218560 L 23705 218498 L 23682 218416 L 23624 218302 L 23531 218143 L 23417 217939 L 23262 217668 L 23082 217323 L 22903 216922 L 22723 216464 L 22554 215990 L 22394 215527 L 22245 215087 L 22118 214683 L 22010 214298 L 21904 213938 L 21807 213605 L 21717 213291 L 21630 212982 L 21547 212676 L 21464 212378 L 21383 212091 L 21306 211816 L 21223 211563 L 21144 211336 L 21069 211148 L 20990 210981 L 20919 210834 L 20856 210701 L 20791 210581 L 20727 210475 L 20667 210381 L 20616 210301 L 20570 210225 L 20532 210162 L 20499 210101 L 20469 210050 L 20446 210010" stroke="#FFC114" stroke-width="100" fill="none" stroke-linecap="round" stroke-linejoin="round"/>
<path d="M 20363 209978 L 20358 209978 L 20351 209981 L 20343 209995 L 20337 210019 L 20332 210056 L 20328 210100 L 20327 210150 L 20325 210205 L 20328 210262 L 20337 210319 L 20351 210375 L 20368 210426 L 20386 210471 L 20401 210507 L 20411 210542 L 20418 210573 L 20423 210603 L 20426 210630 L 20427 210651" stroke="#FFC114" stroke-width="100" fill="none" stroke-linecap="round" stroke-linejoin="round"/>
<path d="M 20419 209978 L 20424 209978 L 20434 209981 L 20465 209995 L 20523 210026 L 20599 210072 L 20687 210130 L 20794 210190 L 20923 210243 L 21067 210292 L 21218 210348 L 21363 210403 L 21491 210448 L 21590 210481 L 21658 210501" stroke="#FFC114" stroke-width="100" fill="none" stroke-linecap="round" stroke-linejoin="round"/></svg>