<svg xmlns="http://www.w3.org/2000/svg" width="972" height="1396" viewBox="0 0 972 1396"><path d="M 608 1324 L 632 1324 L 650 1324 L 664 1324 L 684 1302 L 698 1302 L 718 1302 L 734 1302 L 746 1302 L 756 1302 L 774 1302 L 792 1302 L 788 1310 L 770 1312 L 736 1318 L 690 1324 L 636 1328 L 578 1332 L 514 1338 L 444 1348 L 372 1354 L 308 1362 L 250 1366 L 180 1376 L 122 1382 L 68 1384 L 30 1386 L 10 1386" stroke="#66CC00" stroke-width="35" fill="none" stroke-linecap="round" stroke-linejoin="round"/>
<path d="M 922 10 L 944 14 L 944 22 L 962 24 L 962 30 L 962 34 L 962 40 L 962 44 L 962 52 L 948 58 L 926 66 L 898 72 L 862 78 L 822 88 L 774 94 L 720 102 L 660 110 L 602 118 L 544 124 L 488 130 L 432 136 L 384 140 L 348 140 L 324 140" stroke="#66CC00" stroke-width="35" fill="none" stroke-linecap="round" stroke-linejoin="round"/></svg>