<svg xmlns="http://www.w3.org/2000/svg" width="9344" height="5428" viewBox="0 0 9344 5428"><path d="M 84 22 L 86 26 L 86 36 L 84 52 L 84 66 L 86 90 L 86 118 L 84 146 L 84 172 L 86 200 L 86 230 L 84 258 L 84 282 L 86 304 L 86 324 L 84 344 L 84 366 L 86 386 L 92 400 L 104 414 L 120 424 L 146 430 L 174 436 L 204 438 L 240 440 L 278 446 L 312 454 L 342 456 L 376 460 L 410 466 L 442 470 L 478 474 L 518 472 L 556 470 L 596 470 L 634 472 L 662 472 L 694 476 L 722 484 L 746 488 L 772 494 L 796 504 L 820 510 L 848 514 L 882 518 L 914 520 L 940 520 L 964 520 L 986 520 L 1012 520 L 1036 520 L 1062 520 L 1092 520 L 1124 520 L 1156 520 L 1192 520 L 1226 520 L 1262 520 L 1294 520 L 1322 520 L 1352 520 L 1380 520 L 1410 520 L 1438 520 L 1464 520 L 1482 520 L 1502 520 L 1526 520 L 1556 520 L 1584 520 L 1618 520 L 1654 520 L 1686 520 L 1718 520 L 1748 520 L 1778 520 L 1804 520 L 1824 520 L 1838 520 L 1848 516 L 1854 506 L 1856 488 L 1860 466 L 1862 444 L 1864 414 L 1864 380 L 1862 348 L 1862 318 L 1864 288 L 1864 260 L 1862 238 L 1862 212 L 1864 184 L 1864 158 L 1862 132 L 1862 110 L 1860 88 L 1856 70 L 1846 56 L 1832 50 L 1810 46 L 1784 46 L 1756 48 L 1730 48 L 1698 46 L 1664 46 L 1630 48 L 1590 48 L 1542 46 L 1496 46 L 1446 48 L 1390 48 L 1330 46 L 1262 46 L 1192 48 L 1120 48 L 1060 46 L 1004 46 L 954 48 L 910 48 L 868 46 L 832 46 L 798 48 L 764 48 L 730 46 L 700 46 L 670 48 L 642 48 L 614 46 L 584 40 L 556 36 L 528 32 L 500 26 L 480 24 L 460 18 L 442 14 L 422 10 L 396 12 L 374 14 L 348 14 L 322 12 L 294 12 L 270 14 L 252 14 L 230 12 L 206 12 L 188 14" stroke="#000000" stroke-width="35" fill="none" stroke-linecap="round" stroke-linejoin="round"/>
<path d="M 89 1624 L 91 1628 L 91 1638 L 89 1654 L 89 1668 L 91 1692 L 91 1720 L 89 1748 L 89 1774 L 91 1802 L 91 1832 L 89 1860 L 89 1884 L 91 1906 L 91 1926 L 89 1946 L 89 1968 L 91 1988 L 97 2002 L 109 2016 L 125 2026 L 151 2032 L 179 2038 L 209 2040 L 245 2042 L 283 2048 L 317 2056 L 347 2058 L 381 2062 L 415 2068 L 447 2072 L 483 2076 L 523 2074 L 561 2072 L 601 2072 L 639 2074 L 667 2074 L 699 2078 L 727 2086 L 751 2090 L 777 2096 L 801 2106 L 825 2112 L 853 2116 L 887 2120 L 919 2122 L 945 2122 L 969 2122 L 991 2122 L 1017 2122 L 1041 2122 L 1067 2122 L 1097 2122 L 1129 2122 L 1161 2122 L 1197 2122 L 1231 2122 L 1267 2122 L 1299 2122 L 1327 2122 L 1357 2122 L 1385 2122 L 1415 2122 L 1443 2122 L 1469 2122 L 1487 2122 L 1507 2122 L 1531 2122 L 1561 2122 L 1589 2122 L 1623 2122 L 1659 2122 L 1691 2122 L 1723 2122 L 1753 2122 L 1783 2122 L 1809 2122 L 1829 2122 L 1843 2122 L 1853 2118 L 1859 2108 L 1861 2090 L 1865 2068 L 1867 2046 L 1869 2016 L 1869 1982 L 1867 1950 L 1867 1920 L 1869 1890 L 1869 1862 L 1867 1840 L 1867 1814 L 1869 1786 L 1869 1760 L 1867 1734 L 1867 1712 L 1865 1690 L 1861 1672 L 1851 1658 L 1837 1652 L 1815 1648 L 1789 1648 L 1761 1650 L 1735 1650 L 1703 1648 L 1669 1648 L 1635 1650 L 1595 1650 L 1547 1648 L 1501 1648 L 1451 1650 L 1395 1650 L 1335 1648 L 1267 1648 L 1197 1650 L 1125 1650 L 1065 1648 L 1009 1648 L 959 1650 L 915 1650 L 873 1648 L 837 1648 L 803 1650 L 769 1650 L 735 1648 L 705 1648 L 675 1650 L 647 1650 L 619 1648 L 589 1642 L 561 1638 L 533 1634 L 505 1628 L 485 1626 L 465 1620 L 447 1616 L 427 1612 L 401 1614 L 379 1616 L 353 1616 L 327 1614 L 299 1614 L 275 1616 L 257 1616 L 235 1614 L 211 1614 L 193 1616" stroke="#000000" stroke-width="35" fill="none" stroke-linecap="round" stroke-linejoin="round"/>
<path d="M 10 2630 L 12 2634 L 12 2644 L 10 2660 L 10 2674 L 12 2698 L 12 2726 L 10 2754 L 10 2780 L 12 2808 L 12 2838 L 10 2866 L 10 2890 L 12 2912 L 12 2932 L 10 2952 L 10 2974 L 12 2994 L 18 3008 L 30 3022 L 46 3032 L 72 3038 L 100 3044 L 130 3046 L 166 3048 L 204 3054 L 238 3062 L 268 3064 L 302 3068 L 336 3074 L 368 3078 L 404 3082 L 444 3080 L 482 3078 L 522 3078 L 560 3080 L 588 3080 L 620 3084 L 648 3092 L 672 3096 L 698 3102 L 722 3112 L 746 3118 L 774 3122 L 808 3126 L 840 3128 L 866 3128 L 890 3128 L 912 3128 L 938 3128 L 962 3128 L 988 3128 L 1018 3128 L 1050 3128 L 1082 3128 L 1118 3128 L 1152 3128 L 1188 3128 L 1220 3128 L 1248 3128 L 1278 3128 L 1306 3128 L 1336 3128 L 1364 3128 L 1390 3128 L 1408 3128 L 1428 3128 L 1452 3128 L 1482 3128 L 1510 3128 L 1544 3128 L 1580 3128 L 1612 3128 L 1644 3128 L 1674 3128 L 1704 3128 L 1730 3128 L 1750 3128 L 1764 3128 L 1774 3124 L 1780 3114 L 1782 3096 L 1786 3074 L 1788 3052 L 1790 3022 L 1790 2988 L 1788 2956 L 1788 2926 L 1790 2896 L 1790 2868 L 1788 2846 L 1788 2820 L 1790 2792 L 1790 2766 L 1788 2740 L 1788 2718 L 1786 2696 L 1782 2678 L 1772 2664 L 1758 2658 L 1736 2654 L 1710 2654 L 1682 2656 L 1656 2656 L 1624 2654 L 1590 2654 L 1556 2656 L 1516 2656 L 1468 2654 L 1422 2654 L 1372 2656 L 1316 2656 L 1256 2654 L 1188 2654 L 1118 2656 L 1046 2656 L 986 2654 L 930 2654 L 880 2656 L 836 2656 L 794 2654 L 758 2654 L 724 2656 L 690 2656 L 656 2654 L 626 2654 L 596 2656 L 568 2656 L 540 2654 L 510 2648 L 482 2644 L 454 2640 L 426 2634 L 406 2632 L 386 2626 L 368 2622 L 348 2618 L 322 2620 L 300 2622 L 274 2622 L 248 2620 L 220 2620 L 196 2622 L 178 2622 L 156 2620 L 132 2620 L 114 2622" stroke="#000000" stroke-width="35" fill="none" stroke-linecap="round" stroke-linejoin="round"/>
<path d="M 36 3715 L 38 3719 L 38 3729 L 36 3745 L 36 3759 L 38 3783 L 38 3811 L 36 3839 L 36 3865 L 38 3893 L 38 3923 L 36 3951 L 36 3975 L 38 3997 L 38 4017 L 36 4037 L 36 4059 L 38 4079 L 44 4093 L 56 4107 L 72 4117 L 98 4123 L 126 4129 L 156 4131 L 192 4133 L 230 4139 L 264 4147 L 294 4149 L 328 4153 L 362 4159 L 394 4163 L 430 4167 L 470 4165 L 508 4163 L 548 4163 L 586 4165 L 614 4165 L 646 4169 L 674 4177 L 698 4181 L 724 4187 L 748 4197 L 772 4203 L 800 4207 L 834 4211 L 866 4213 L 892 4213 L 916 4213 L 938 4213 L 964 4213 L 988 4213 L 1014 4213 L 1044 4213 L 1076 4213 L 1108 4213 L 1144 4213 L 1178 4213 L 1214 4213 L 1246 4213 L 1274 4213 L 1304 4213 L 1332 4213 L 1362 4213 L 1390 4213 L 1416 4213 L 1434 4213 L 1454 4213 L 1478 4213 L 1508 4213 L 1536 4213 L 1570 4213 L 1606 4213 L 1638 4213 L 1670 4213 L 1700 4213 L 1730 4213 L 1756 4213 L 1776 4213 L 1790 4213 L 1800 4209 L 1806 4199 L 1808 4181 L 1812 4159 L 1814 4137 L 1816 4107 L 1816 4073 L 1814 4041 L 1814 4011 L 1816 3981 L 1816 3953 L 1814 3931 L 1814 3905 L 1816 3877 L 1816 3851 L 1814 3825 L 1814 3803 L 1812 3781 L 1808 3763 L 1798 3749 L 1784 3743 L 1762 3739 L 1736 3739 L 1708 3741 L 1682 3741 L 1650 3739 L 1616 3739 L 1582 3741 L 1542 3741 L 1494 3739 L 1448 3739 L 1398 3741 L 1342 3741 L 1282 3739 L 1214 3739 L 1144 3741 L 1072 3741 L 1012 3739 L 956 3739 L 906 3741 L 862 3741 L 820 3739 L 784 3739 L 750 3741 L 716 3741 L 682 3739 L 652 3739 L 622 3741 L 594 3741 L 566 3739 L 536 3733 L 508 3729 L 480 3725 L 452 3719 L 432 3717 L 412 3711 L 394 3707 L 374 3703 L 348 3705 L 326 3707 L 300 3707 L 274 3705 L 246 3705 L 222 3707 L 204 3707 L 182 3705 L 158 3705 L 140 3707" stroke="#000000" stroke-width="35" fill="none" stroke-linecap="round" stroke-linejoin="round"/>
<path d="M 63 4799 L 65 4803 L 65 4813 L 63 4829 L 63 4843 L 65 4867 L 65 4895 L 63 4923 L 63 4949 L 65 4977 L 65 5007 L 63 5035 L 63 5059 L 65 5081 L 65 5101 L 63 5121 L 63 5143 L 65 5163 L 71 5177 L 83 5191 L 99 5201 L 125 5207 L 153 5213 L 183 5215 L 219 5217 L 257 5223 L 291 5231 L 321 5233 L 355 5237 L 389 5243 L 421 5247 L 457 5251 L 497 5249 L 535 5247 L 575 5247 L 613 5249 L 641 5249 L 673 5253 L 701 5261 L 725 5265 L 751 5271 L 775 5281 L 799 5287 L 827 5291 L 861 5295 L 893 5297 L 919 5297 L 943 5297 L 965 5297 L 991 5297 L 1015 5297 L 1041 5297 L 1071 5297 L 1103 5297 L 1135 5297 L 1171 5297 L 1205 5297 L 1241 5297 L 1273 5297 L 1301 5297 L 1331 5297 L 1359 5297 L 1389 5297 L 1417 5297 L 1443 5297 L 1461 5297 L 1481 5297 L 1505 5297 L 1535 5297 L 1563 5297 L 1597 5297 L 1633 5297 L 1665 5297 L 1697 5297 L 1727 5297 L 1757 5297 L 1783 5297 L 1803 5297 L 1817 5297 L 1827 5293 L 1833 5283 L 1835 5265 L 1839 5243 L 1841 5221 L 1843 5191 L 1843 5157 L 1841 5125 L 1841 5095 L 1843 5065 L 1843 5037 L 1841 5015 L 1841 4989 L 1843 4961 L 1843 4935 L 1841 4909 L 1841 4887 L 1839 4865 L 1835 4847 L 1825 4833 L 1811 4827 L 1789 4823 L 1763 4823 L 1735 4825 L 1709 4825 L 1677 4823 L 1643 4823 L 1609 4825 L 1569 4825 L 1521 4823 L 1475 4823 L 1425 4825 L 1369 4825 L 1309 4823 L 1241 4823 L 1171 4825 L 1099 4825 L 1039 4823 L 983 4823 L 933 4825 L 889 4825 L 847 4823 L 811 4823 L 777 4825 L 743 4825 L 709 4823 L 679 4823 L 649 4825 L 621 4825 L 593 4823 L 563 4817 L 535 4813 L 507 4809 L 479 4803 L 459 4801 L 439 4795 L 421 4791 L 401 4787 L 375 4789 L 353 4791 L 327 4791 L 301 4789 L 273 4789 L 249 4791 L 231 4791 L 209 4789 L 185 4789 L 167 4791" stroke="#000000" stroke-width="35" fill="none" stroke-linecap="round" stroke-linejoin="round"/>
<path d="M 2571 143 L 2573 147 L 2573 157 L 2571 173 L 2571 187 L 2573 211 L 2573 239 L 2571 267 L 2571 293 L 2573 321 L 2573 351 L 2571 379 L 2571 403 L 2573 425 L 2573 445 L 2571 465 L 2571 487 L 2573 507 L 2579 521 L 2591 535 L 2607 545 L 2633 551 L 2661 557 L 2691 559 L 2727 561 L 2765 567 L 2799 575 L 2829 577 L 2863 581 L 2897 587 L 2929 591 L 2965 595 L 3005 593 L 3043 591 L 3083 591 L 3121 593 L 3149 593 L 3181 597 L 3209 605 L 3233 609 L 3259 615 L 3283 625 L 3307 631 L 3335 635 L 3369 639 L 3401 641 L 3427 641 L 3451 641 L 3473 641 L 3499 641 L 3523 641 L 3549 641 L 3579 641 L 3611 641 L 3643 641 L 3679 641 L 3713 641 L 3749 641 L 3781 641 L 3809 641 L 3839 641 L 3867 641 L 3897 641 L 3925 641 L 3951 641 L 3969 641 L 3989 641 L 4013 641 L 4043 641 L 4071 641 L 4105 641 L 4141 641 L 4173 641 L 4205 641 L 4235 641 L 4265 641 L 4291 641 L 4311 641 L 4325 641 L 4335 637 L 4341 627 L 4343 609 L 4347 587 L 4349 565 L 4351 535 L 4351 501 L 4349 469 L 4349 439 L 4351 409 L 4351 381 L 4349 359 L 4349 333 L 4351 305 L 4351 279 L 4349 253 L 4349 231 L 4347 209 L 4343 191 L 4333 177 L 4319 171 L 4297 167 L 4271 167 L 4243 169 L 4217 169 L 4185 167 L 4151 167 L 4117 169 L 4077 169 L 4029 167 L 3983 167 L 3933 169 L 3877 169 L 3817 167 L 3749 167 L 3679 169 L 3607 169 L 3547 167 L 3491 167 L 3441 169 L 3397 169 L 3355 167 L 3319 167 L 3285 169 L 3251 169 L 3217 167 L 3187 167 L 3157 169 L 3129 169 L 3101 167 L 3071 161 L 3043 157 L 3015 153 L 2987 147 L 2967 145 L 2947 139 L 2929 135 L 2909 131 L 2883 133 L 2861 135 L 2835 135 L 2809 133 L 2781 133 L 2757 135 L 2739 135 L 2717 133 L 2693 133 L 2675 135" stroke="#000000" stroke-width="35" fill="none" stroke-linecap="round" stroke-linejoin="round"/>
<path d="M 2603 978 L 2605 982 L 2605 992 L 2603 1008 L 2603 1022 L 2605 1046 L 2605 1074 L 2603 1102 L 2603 1128 L 2605 1156 L 2605 1186 L 2603 1214 L 2603 1238 L 2605 1260 L 2605 1280 L 2603 1300 L 2603 1322 L 2605 1342 L 2611 1356 L 2623 1370 L 2639 1380 L 2665 1386 L 2693 1392 L 2723 1394 L 2759 1396 L 2797 1402 L 2831 1410 L 2861 1412 L 2895 1416 L 2929 1422 L 2961 1426 L 2997 1430 L 3037 1428 L 3075 1426 L 3115 1426 L 3153 1428 L 3181 1428 L 3213 1432 L 3241 1440 L 3265 1444 L 3291 1450 L 3315 1460 L 3339 1466 L 3367 1470 L 3401 1474 L 3433 1476 L 3459 1476 L 3483 1476 L 3505 1476 L 3531 1476 L 3555 1476 L 3581 1476 L 3611 1476 L 3643 1476 L 3675 1476 L 3711 1476 L 3745 1476 L 3781 1476 L 3813 1476 L 3841 1476 L 3871 1476 L 3899 1476 L 3929 1476 L 3957 1476 L 3983 1476 L 4001 1476 L 4021 1476 L 4045 1476 L 4075 1476 L 4103 1476 L 4137 1476 L 4173 1476 L 4205 1476 L 4237 1476 L 4267 1476 L 4297 1476 L 4323 1476 L 4343 1476 L 4357 1476 L 4367 1472 L 4373 1462 L 4375 1444 L 4379 1422 L 4381 1400 L 4383 1370 L 4383 1336 L 4381 1304 L 4381 1274 L 4383 1244 L 4383 1216 L 4381 1194 L 4381 1168 L 4383 1140 L 4383 1114 L 4381 1088 L 4381 1066 L 4379 1044 L 4375 1026 L 4365 1012 L 4351 1006 L 4329 1002 L 4303 1002 L 4275 1004 L 4249 1004 L 4217 1002 L 4183 1002 L 4149 1004 L 4109 1004 L 4061 1002 L 4015 1002 L 3965 1004 L 3909 1004 L 3849 1002 L 3781 1002 L 3711 1004 L 3639 1004 L 3579 1002 L 3523 1002 L 3473 1004 L 3429 1004 L 3387 1002 L 3351 1002 L 3317 1004 L 3283 1004 L 3249 1002 L 3219 1002 L 3189 1004 L 3161 1004 L 3133 1002 L 3103 996 L 3075 992 L 3047 988 L 3019 982 L 2999 980 L 2979 974 L 2961 970 L 2941 966 L 2915 968 L 2893 970 L 2867 970 L 2841 968 L 2813 968 L 2789 970 L 2771 970 L 2749 968 L 2725 968 L 2707 970" stroke="#000000" stroke-width="35" fill="none" stroke-linecap="round" stroke-linejoin="round"/>
<path d="M 2523 3835 L 2525 3839 L 2525 3849 L 2523 3865 L 2523 3879 L 2525 3903 L 2525 3931 L 2523 3959 L 2523 3985 L 2525 4013 L 2525 4043 L 2523 4071 L 2523 4095 L 2525 4117 L 2525 4137 L 2523 4157 L 2523 4179 L 2525 4199 L 2531 4213 L 2543 4227 L 2559 4237 L 2585 4243 L 2613 4249 L 2643 4251 L 2679 4253 L 2717 4259 L 2751 4267 L 2781 4269 L 2815 4273 L 2849 4279 L 2881 4283 L 2917 4287 L 2957 4285 L 2995 4283 L 3035 4283 L 3073 4285 L 3101 4285 L 3133 4289 L 3161 4297 L 3185 4301 L 3211 4307 L 3235 4317 L 3259 4323 L 3287 4327 L 3321 4331 L 3353 4333 L 3379 4333 L 3403 4333 L 3425 4333 L 3451 4333 L 3475 4333 L 3501 4333 L 3531 4333 L 3563 4333 L 3595 4333 L 3631 4333 L 3665 4333 L 3701 4333 L 3733 4333 L 3761 4333 L 3791 4333 L 3819 4333 L 3849 4333 L 3877 4333 L 3903 4333 L 3921 4333 L 3941 4333 L 3965 4333 L 3995 4333 L 4023 4333 L 4057 4333 L 4093 4333 L 4125 4333 L 4157 4333 L 4187 4333 L 4217 4333 L 4243 4333 L 4263 4333 L 4277 4333 L 4287 4329 L 4293 4319 L 4295 4301 L 4299 4279 L 4301 4257 L 4303 4227 L 4303 4193 L 4301 4161 L 4301 4131 L 4303 4101 L 4303 4073 L 4301 4051 L 4301 4025 L 4303 3997 L 4303 3971 L 4301 3945 L 4301 3923 L 4299 3901 L 4295 3883 L 4285 3869 L 4271 3863 L 4249 3859 L 4223 3859 L 4195 3861 L 4169 3861 L 4137 3859 L 4103 3859 L 4069 3861 L 4029 3861 L 3981 3859 L 3935 3859 L 3885 3861 L 3829 3861 L 3769 3859 L 3701 3859 L 3631 3861 L 3559 3861 L 3499 3859 L 3443 3859 L 3393 3861 L 3349 3861 L 3307 3859 L 3271 3859 L 3237 3861 L 3203 3861 L 3169 3859 L 3139 3859 L 3109 3861 L 3081 3861 L 3053 3859 L 3023 3853 L 2995 3849 L 2967 3845 L 2939 3839 L 2919 3837 L 2899 3831 L 2881 3827 L 2861 3823 L 2835 3825 L 2813 3827 L 2787 3827 L 2761 3825 L 2733 3825 L 2709 3827 L 2691 3827 L 2669 3825 L 2645 3825 L 2627 3827" stroke="#000000" stroke-width="35" fill="none" stroke-linecap="round" stroke-linejoin="round"/>
<path d="M 2550 4920 L 2552 4924 L 2552 4934 L 2550 4950 L 2550 4964 L 2552 4988 L 2552 5016 L 2550 5044 L 2550 5070 L 2552 5098 L 2552 5128 L 2550 5156 L 2550 5180 L 2552 5202 L 2552 5222 L 2550 5242 L 2550 5264 L 2552 5284 L 2558 5298 L 2570 5312 L 2586 5322 L 2612 5328 L 2640 5334 L 2670 5336 L 2706 5338 L 2744 5344 L 2778 5352 L 2808 5354 L 2842 5358 L 2876 5364 L 2908 5368 L 2944 5372 L 2984 5370 L 3022 5368 L 3062 5368 L 3100 5370 L 3128 5370 L 3160 5374 L 3188 5382 L 3212 5386 L 3238 5392 L 3262 5402 L 3286 5408 L 3314 5412 L 3348 5416 L 3380 5418 L 3406 5418 L 3430 5418 L 3452 5418 L 3478 5418 L 3502 5418 L 3528 5418 L 3558 5418 L 3590 5418 L 3622 5418 L 3658 5418 L 3692 5418 L 3728 5418 L 3760 5418 L 3788 5418 L 3818 5418 L 3846 5418 L 3876 5418 L 3904 5418 L 3930 5418 L 3948 5418 L 3968 5418 L 3992 5418 L 4022 5418 L 4050 5418 L 4084 5418 L 4120 5418 L 4152 5418 L 4184 5418 L 4214 5418 L 4244 5418 L 4270 5418 L 4290 5418 L 4304 5418 L 4314 5414 L 4320 5404 L 4322 5386 L 4326 5364 L 4328 5342 L 4330 5312 L 4330 5278 L 4328 5246 L 4328 5216 L 4330 5186 L 4330 5158 L 4328 5136 L 4328 5110 L 4330 5082 L 4330 5056 L 4328 5030 L 4328 5008 L 4326 4986 L 4322 4968 L 4312 4954 L 4298 4948 L 4276 4944 L 4250 4944 L 4222 4946 L 4196 4946 L 4164 4944 L 4130 4944 L 4096 4946 L 4056 4946 L 4008 4944 L 3962 4944 L 3912 4946 L 3856 4946 L 3796 4944 L 3728 4944 L 3658 4946 L 3586 4946 L 3526 4944 L 3470 4944 L 3420 4946 L 3376 4946 L 3334 4944 L 3298 4944 L 3264 4946 L 3230 4946 L 3196 4944 L 3166 4944 L 3136 4946 L 3108 4946 L 3080 4944 L 3050 4938 L 3022 4934 L 2994 4930 L 2966 4924 L 2946 4922 L 2926 4916 L 2908 4912 L 2888 4908 L 2862 4910 L 2840 4912 L 2814 4912 L 2788 4910 L 2760 4910 L 2736 4912 L 2718 4912 L 2696 4910 L 2672 4910 L 2654 4912" stroke="#000000" stroke-width="35" fill="none" stroke-linecap="round" stroke-linejoin="round"/>
<path d="M 4870 4094 L 4874 4096 L 4884 4102 L 4902 4108 L 4930 4114 L 4960 4128 L 4996 4146 L 5034 4160 L 5068 4172 L 5102 4178 L 5132 4182 L 5162 4182 L 5190 4174 L 5218 4164 L 5250 4152 L 5278 4126 L 5298 4096 L 5314 4070 L 5324 4048 L 5330 4024 L 5334 4006" stroke="#00A0D7" stroke-width="35" fill="none" stroke-linecap="round" stroke-linejoin="round"/>
<path d="M 5002 5098 L 5002 5102 L 5002 5112 L 5002 5126 L 5002 5140 L 5006 5164 L 5016 5186 L 5034 5206 L 5054 5220 L 5074 5230 L 5094 5232 L 5122 5222 L 5150 5204 L 5184 5176 L 5226 5146 L 5262 5116 L 5290 5092 L 5312 5066 L 5328 5044 L 5342 5022 L 5356 5008" stroke="#00A0D7" stroke-width="35" fill="none" stroke-linecap="round" stroke-linejoin="round"/>
<path d="M 6114 3910 L 6108 3908 L 6098 3908 L 6088 3916 L 6076 3930 L 6054 3944 L 6028 3964 L 6004 3982 L 5976 4002 L 5938 4030 L 5902 4060 L 5872 4096 L 5850 4134 L 5834 4170 L 5826 4206 L 5826 4234 L 5832 4258 L 5844 4278 L 5862 4296 L 5890 4310 L 5916 4316 L 5938 4320 L 5968 4320 L 5996 4312 L 6022 4302 L 6042 4290 L 6054 4270 L 6062 4250" stroke="#00A0D7" stroke-width="35" fill="none" stroke-linecap="round" stroke-linejoin="round"/>
<path d="M 6010 4200 L 6008 4198 L 6006 4196 L 5996 4186 L 5976 4170 L 5956 4156 L 5932 4142 L 5906 4130 L 5882 4124" stroke="#00A0D7" stroke-width="35" fill="none" stroke-linecap="round" stroke-linejoin="round"/>
<path d="M 6220 4172 L 6216 4174 L 6206 4176 L 6196 4178 L 6186 4184 L 6178 4194 L 6168 4204 L 6162 4212 L 6160 4220 L 6168 4224 L 6180 4224 L 6200 4224 L 6224 4224 L 6244 4224 L 6262 4220 L 6282 4204 L 6300 4182 L 6316 4158 L 6330 4128 L 6340 4098 L 6348 4070 L 6352 4048 L 6352 4032 L 6340 4020 L 6322 4014 L 6300 4014 L 6274 4016 L 6254 4020 L 6234 4028 L 6210 4038 L 6194 4046 L 6176 4058 L 6158 4074 L 6144 4090 L 6132 4102" stroke="#00A0D7" stroke-width="35" fill="none" stroke-linecap="round" stroke-linejoin="round"/>
<path d="M 6538 4016 L 6532 4020 L 6522 4030 L 6512 4050 L 6494 4068 L 6472 4088 L 6446 4104 L 6418 4126 L 6400 4144 L 6386 4168 L 6372 4192 L 6362 4206 L 6356 4222 L 6352 4238 L 6348 4260 L 6350 4284 L 6362 4308 L 6380 4324 L 6400 4332 L 6426 4336 L 6448 4340" stroke="#00A0D7" stroke-width="35" fill="none" stroke-linecap="round" stroke-linejoin="round"/>
<path d="M 5878 4992 L 5874 4994 L 5866 4994 L 5854 4992 L 5842 4996 L 5824 5006 L 5800 5024 L 5774 5042 L 5750 5066 L 5726 5090 L 5708 5112 L 5694 5132 L 5682 5150 L 5676 5168 L 5672 5186 L 5668 5206 L 5672 5230 L 5680 5254 L 5694 5272 L 5710 5282 L 5736 5286 L 5764 5288 L 5790 5288 L 5814 5284 L 5836 5278 L 5858 5274" stroke="#00A0D7" stroke-width="35" fill="none" stroke-linecap="round" stroke-linejoin="round"/>
<path d="M 5798 5178 L 5794 5176 L 5784 5176 L 5772 5176 L 5756 5176 L 5740 5176 L 5720 5176 L 5696 5176 L 5672 5176" stroke="#00A0D7" stroke-width="35" fill="none" stroke-linecap="round" stroke-linejoin="round"/>
<path d="M 6036 5152 L 6032 5154 L 6024 5156 L 6012 5162 L 6002 5166 L 5994 5176 L 5988 5192 L 5984 5210 L 5982 5234 L 5990 5252 L 6004 5268 L 6022 5278 L 6040 5282 L 6060 5286 L 6084 5286 L 6108 5280 L 6128 5272 L 6144 5256 L 6154 5236 L 6158 5216 L 6160 5196 L 6164 5176 L 6164 5154 L 6162 5128 L 6162 5106 L 6160 5090 L 6154 5078 L 6136 5070 L 6118 5068 L 6098 5068 L 6078 5070 L 6054 5072 L 6028 5084 L 6008 5098" stroke="#00A0D7" stroke-width="35" fill="none" stroke-linecap="round" stroke-linejoin="round"/>
<path d="M 6378 5072 L 6378 5074 L 6378 5076 L 6374 5082 L 6364 5094 L 6346 5106 L 6326 5124 L 6306 5144 L 6288 5166 L 6278 5190 L 6274 5218 L 6272 5242 L 6276 5266 L 6286 5286 L 6300 5296 L 6318 5304 L 6338 5308 L 6362 5312 L 6384 5312 L 6406 5310 L 6430 5304 L 6454 5298" stroke="#00A0D7" stroke-width="35" fill="none" stroke-linecap="round" stroke-linejoin="round"/>
<path d="M 5640 2880 L 5636 2878 L 5626 2876 L 5614 2880 L 5598 2888 L 5582 2894 L 5566 2904 L 5548 2918 L 5526 2936 L 5506 2956 L 5482 2978 L 5460 3000 L 5438 3016 L 5420 3030 L 5404 3048 L 5384 3062 L 5366 3074 L 5352 3090 L 5344 3106 L 5344 3122 L 5352 3134 L 5368 3142 L 5384 3150 L 5404 3152 L 5426 3152 L 5452 3150 L 5480 3146 L 5506 3142 L 5530 3130 L 5552 3116 L 5578 3104 L 5598 3092 L 5622 3076 L 5644 3056 L 5664 3036 L 5682 3016 L 5702 3000 L 5720 2984 L 5732 2968 L 5738 2952 L 5734 2942 L 5724 2938 L 5712 2938" stroke="#66CC00" stroke-width="35" fill="none" stroke-linecap="round" stroke-linejoin="round"/>
<path d="M 5718 2932 L 5722 2930 L 5730 2934 L 5736 2946 L 5742 2960 L 5746 2976 L 5750 2996 L 5752 3018 L 5752 3042 L 5752 3060 L 5752 3080 L 5752 3096 L 5752 3108" stroke="#66CC00" stroke-width="35" fill="none" stroke-linecap="round" stroke-linejoin="round"/>
<path d="M 5984 2986 L 5982 2984 L 5980 2988 L 5976 3000 L 5970 3018 L 5966 3038 L 5966 3056 L 5970 3068 L 5984 3080 L 6006 3086 L 6028 3090 L 6056 3090 L 6084 3086 L 6112 3072 L 6136 3054 L 6156 3034 L 6170 3018 L 6174 3004 L 6170 2996 L 6158 2990 L 6142 2988 L 6120 2988 L 6098 2988 L 6078 2988 L 6056 2988 L 6030 2988 L 6006 2988 L 5986 2988" stroke="#66CC00" stroke-width="35" fill="none" stroke-linecap="round" stroke-linejoin="round"/>
<path d="M 6220 2774 L 6216 2772 L 6206 2772 L 6196 2778 L 6186 2790 L 6180 2808 L 6178 2828 L 6174 2852 L 6168 2878 L 6164 2902 L 6160 2930 L 6162 2958 L 6160 2988 L 6158 3016 L 6154 3040 L 6152 3060 L 6154 3074" stroke="#66CC00" stroke-width="35" fill="none" stroke-linecap="round" stroke-linejoin="round"/>
<path d="M 6404 3064 L 6398 3066 L 6390 3068 L 6384 3078 L 6378 3094 L 6374 3112 L 6370 3132 L 6376 3148 L 6384 3164 L 6394 3180 L 6408 3192 L 6428 3202 L 6448 3208 L 6466 3210 L 6486 3210 L 6512 3202 L 6538 3192 L 6560 3180 L 6582 3164 L 6600 3146 L 6612 3126 L 6612 3106 L 6608 3088 L 6598 3076 L 6580 3068 L 6566 3068 L 6548 3072 L 6528 3078 L 6510 3082 L 6490 3086 L 6474 3088" stroke="#66CC00" stroke-width="35" fill="none" stroke-linecap="round" stroke-linejoin="round"/>
<path d="M 6616 2774 L 6616 2776 L 6616 2786 L 6616 2802 L 6616 2824 L 6616 2842 L 6616 2864 L 6616 2888 L 6616 2916 L 6616 2944 L 6616 2970 L 6616 2992 L 6616 3016 L 6616 3036 L 6616 3064 L 6616 3092 L 6616 3118 L 6620 3140 L 6626 3152" stroke="#66CC00" stroke-width="35" fill="none" stroke-linecap="round" stroke-linejoin="round"/>
<path d="M 5108 1134 L 5108 1138 L 5108 1148 L 5108 1158 L 5108 1174 L 5108 1190 L 5108 1216 L 5108 1248 L 5108 1282 L 5108 1320 L 5112 1358 L 5122 1396 L 5132 1426 L 5144 1454 L 5154 1478 L 5162 1502 L 5170 1518 L 5178 1526 L 5182 1520 L 5186 1508 L 5188 1490 L 5188 1464 L 5188 1438 L 5188 1416 L 5188 1388 L 5188 1364 L 5188 1340 L 5188 1320 L 5188 1300 L 5188 1280 L 5188 1260 L 5188 1236 L 5194 1216 L 5204 1202 L 5214 1188 L 5226 1176 L 5244 1170 L 5264 1166 L 5284 1162 L 5312 1160 L 5340 1158 L 5362 1154" stroke="#FF0000" stroke-width="35" fill="none" stroke-linecap="round" stroke-linejoin="round"/>
<path d="M 5508 1214 L 5504 1214 L 5494 1218 L 5474 1230 L 5466 1242 L 5476 1256 L 5494 1264 L 5518 1270 L 5550 1272 L 5586 1276 L 5620 1274 L 5652 1266 L 5684 1256 L 5712 1240 L 5732 1222 L 5744 1204 L 5744 1188 L 5734 1176 L 5718 1168 L 5696 1164 L 5676 1162 L 5648 1160 L 5628 1162 L 5604 1164 L 5582 1174 L 5562 1190 L 5548 1210 L 5538 1238 L 5532 1262 L 5530 1286 L 5530 1306 L 5532 1330 L 5534 1352 L 5536 1372 L 5540 1390 L 5544 1410 L 5556 1428 L 5570 1444 L 5588 1458 L 5604 1468 L 5626 1476 L 5648 1476 L 5678 1476 L 5710 1472 L 5738 1462 L 5762 1446 L 5780 1428" stroke="#FF0000" stroke-width="35" fill="none" stroke-linecap="round" stroke-linejoin="round"/>
<path d="M 5850 1268 L 5852 1274 L 5852 1282 L 5850 1292 L 5850 1304 L 5852 1322 L 5852 1342 L 5850 1360 L 5850 1384 L 5852 1406 L 5852 1428 L 5850 1454 L 5856 1476 L 5868 1492 L 5884 1498 L 5898 1490 L 5916 1470 L 5932 1444 L 5948 1412 L 5958 1374 L 5968 1330 L 5978 1292 L 5994 1260 L 6008 1240 L 6020 1234 L 6030 1242 L 6036 1254 L 6042 1272 L 6046 1292 L 6046 1316 L 6050 1342 L 6054 1370 L 6056 1400 L 6060 1428 L 6066 1446 L 6074 1454 L 6076 1446 L 6080 1434 L 6082 1416 L 6084 1394 L 6084 1368 L 6088 1348 L 6094 1328 L 6106 1310 L 6122 1302 L 6142 1296 L 6160 1294 L 6180 1294 L 6202 1294 L 6226 1298 L 6244 1310 L 6258 1322 L 6278 1336 L 6298 1354 L 6314 1370 L 6324 1390 L 6330 1412 L 6332 1432 L 6332 1446" stroke="#FF0000" stroke-width="35" fill="none" stroke-linecap="round" stroke-linejoin="round"/>
<path d="M 6484 1294 L 6478 1294 L 6468 1304 L 6454 1320 L 6440 1342 L 6426 1366 L 6418 1394 L 6414 1420 L 6414 1450 L 6416 1476 L 6422 1494 L 6438 1508 L 6454 1516 L 6470 1518 L 6492 1524 L 6518 1528 L 6544 1532 L 6570 1530 L 6596 1526 L 6620 1512 L 6646 1500 L 6668 1486 L 6684 1470 L 6696 1450 L 6706 1432 L 6712 1414 L 6718 1400 L 6720 1384 L 6722 1364 L 6718 1342 L 6716 1322 L 6704 1308 L 6690 1304 L 6672 1310 L 6650 1318 L 6628 1328" stroke="#FF0000" stroke-width="35" fill="none" stroke-linecap="round" stroke-linejoin="round"/>
<path d="M 6802 1346 L 6808 1342 L 6826 1342 L 6842 1350 L 6864 1368 L 6882 1388 L 6902 1422 L 6922 1454 L 6944 1480 L 6968 1492 L 6986 1482 L 7004 1458 L 7016 1424 L 7032 1380 L 7048 1330 L 7066 1280 L 7084 1236 L 7096 1190 L 7104 1150 L 7118 1120 L 7130 1092 L 7140 1068 L 7148 1054 L 7152 1048" stroke="#FF0000" stroke-width="35" fill="none" stroke-linecap="round" stroke-linejoin="round"/>
<path d="M 7278 1372 L 7272 1372 L 7282 1372 L 7294 1372 L 7312 1372 L 7336 1372 L 7368 1372 L 7394 1372 L 7418 1368 L 7446 1358 L 7474 1344 L 7500 1330 L 7522 1316 L 7534 1294 L 7540 1272 L 7540 1246 L 7538 1224 L 7538 1200 L 7536 1182 L 7526 1170 L 7506 1164 L 7484 1158 L 7468 1158 L 7450 1160 L 7430 1170 L 7414 1186 L 7400 1212 L 7392 1240 L 7386 1262 L 7384 1282 L 7384 1304 L 7384 1328 L 7384 1348 L 7384 1368 L 7388 1390 L 7390 1410 L 7402 1428 L 7414 1444 L 7426 1456 L 7448 1464 L 7474 1468 L 7500 1472 L 7522 1472 L 7548 1474 L 7570 1474" stroke="#FF0000" stroke-width="35" fill="none" stroke-linecap="round" stroke-linejoin="round"/>
<path d="M 2550 1810 L 2552 1814 L 2552 1824 L 2550 1840 L 2550 1854 L 2552 1878 L 2552 1906 L 2550 1934 L 2550 1960 L 2552 1988 L 2552 2018 L 2550 2046 L 2550 2070 L 2552 2092 L 2552 2112 L 2550 2132 L 2550 2154 L 2552 2174 L 2558 2188 L 2570 2202 L 2586 2212 L 2612 2218 L 2640 2224 L 2670 2226 L 2706 2228 L 2744 2234 L 2778 2242 L 2808 2244 L 2842 2248 L 2876 2254 L 2908 2258 L 2944 2262 L 2984 2260 L 3022 2258 L 3062 2258 L 3100 2260 L 3128 2260 L 3160 2264 L 3188 2272 L 3212 2276 L 3238 2282 L 3262 2292 L 3286 2298 L 3314 2302 L 3348 2306 L 3380 2308 L 3406 2308 L 3430 2308 L 3452 2308 L 3478 2308 L 3502 2308 L 3528 2308 L 3558 2308 L 3590 2308 L 3622 2308 L 3658 2308 L 3692 2308 L 3728 2308 L 3760 2308 L 3788 2308 L 3818 2308 L 3846 2308 L 3876 2308 L 3904 2308 L 3930 2308 L 3948 2308 L 3968 2308 L 3992 2308 L 4022 2308 L 4050 2308 L 4084 2308 L 4120 2308 L 4152 2308 L 4184 2308 L 4214 2308 L 4244 2308 L 4270 2308 L 4290 2308 L 4304 2308 L 4314 2304 L 4320 2294 L 4322 2276 L 4326 2254 L 4328 2232 L 4330 2202 L 4330 2168 L 4328 2136 L 4328 2106 L 4330 2076 L 4330 2048 L 4328 2026 L 4328 2000 L 4330 1972 L 4330 1946 L 4328 1920 L 4328 1898 L 4326 1876 L 4322 1858 L 4312 1844 L 4298 1838 L 4276 1834 L 4250 1834 L 4222 1836 L 4196 1836 L 4164 1834 L 4130 1834 L 4096 1836 L 4056 1836 L 4008 1834 L 3962 1834 L 3912 1836 L 3856 1836 L 3796 1834 L 3728 1834 L 3658 1836 L 3586 1836 L 3526 1834 L 3470 1834 L 3420 1836 L 3376 1836 L 3334 1834 L 3298 1834 L 3264 1836 L 3230 1836 L 3196 1834 L 3166 1834 L 3136 1836 L 3108 1836 L 3080 1834 L 3050 1828 L 3022 1824 L 2994 1820 L 2966 1814 L 2946 1812 L 2926 1806 L 2908 1802 L 2888 1798 L 2862 1800 L 2840 1802 L 2814 1802 L 2788 1800 L 2760 1800 L 2736 1802 L 2718 1802 L 2696 1800 L 2672 1800 L 2654 1802" stroke="#000000" stroke-width="35" fill="none" stroke-linecap="round" stroke-linejoin="round"/>
<path d="M 5268 2114 L 5264 2114 L 5254 2114 L 5242 2114 L 5226 2114 L 5214 2118 L 5196 2120 L 5178 2126 L 5158 2138 L 5142 2150 L 5128 2168 L 5114 2186 L 5104 2206 L 5098 2224 L 5092 2240 L 5090 2258 L 5088 2280 L 5088 2302 L 5092 2322 L 5094 2340 L 5100 2360 L 5108 2378 L 5120 2392 L 5138 2402 L 5160 2408 L 5182 2410 L 5204 2406 L 5224 2398 L 5238 2386 L 5254 2372 L 5272 2362 L 5290 2346 L 5302 2324 L 5314 2302 L 5330 2282 L 5352 2268 L 5368 2252 L 5382 2234 L 5390 2214 L 5394 2190 L 5386 2170 L 5372 2156 L 5356 2146" stroke="#66CC00" stroke-width="35" fill="none" stroke-linecap="round" stroke-linejoin="round"/>
<path d="M 5428 2166 L 5424 2166 L 5416 2170 L 5412 2180 L 5408 2198 L 5404 2216 L 5396 2228 L 5392 2244 L 5388 2260 L 5384 2278 L 5380 2302 L 5378 2322 L 5380 2340 L 5384 2360 L 5390 2378 L 5402 2390" stroke="#66CC00" stroke-width="35" fill="none" stroke-linecap="round" stroke-linejoin="round"/>
<path d="M 5746 2166 L 5738 2166 L 5724 2170 L 5702 2180 L 5678 2198 L 5660 2216 L 5646 2232 L 5636 2250 L 5628 2272 L 5626 2294 L 5634 2314 L 5646 2330 L 5658 2346 L 5674 2358 L 5694 2364 L 5712 2372 L 5732 2374 L 5754 2378 L 5778 2376 L 5802 2372 L 5824 2364 L 5844 2358 L 5860 2348 L 5874 2332 L 5884 2316 L 5894 2302 L 5904 2286 L 5904 2270 L 5894 2258 L 5876 2252 L 5856 2248 L 5830 2242 L 5804 2234 L 5780 2228" stroke="#66CC00" stroke-width="35" fill="none" stroke-linecap="round" stroke-linejoin="round"/>
<path d="M 6010 1928 L 6006 1932 L 5996 1932 L 5984 1936 L 5976 1946 L 5962 1962 L 5948 1980 L 5938 2004 L 5928 2034 L 5920 2066 L 5912 2094 L 5906 2124 L 5900 2160 L 5898 2194 L 5896 2226 L 5896 2252 L 5896 2278 L 5896 2306 L 5900 2332 L 5906 2352" stroke="#66CC00" stroke-width="35" fill="none" stroke-linecap="round" stroke-linejoin="round"/>
<path d="M 6166 2244 L 6166 2246 L 6162 2246 L 6152 2246 L 6134 2246 L 6114 2248 L 6094 2258 L 6076 2270 L 6066 2286 L 6062 2302 L 6060 2318 L 6060 2334 L 6060 2352 L 6060 2374 L 6060 2402 L 6060 2426 L 6060 2446 L 6064 2460 L 6074 2470 L 6088 2476 L 6106 2478 L 6126 2474 L 6150 2470 L 6172 2468 L 6190 2460 L 6208 2450 L 6228 2440 L 6248 2424 L 6260 2404 L 6268 2384 L 6276 2364 L 6276 2342 L 6270 2318 L 6256 2296 L 6236 2278 L 6214 2266 L 6198 2256 L 6182 2248" stroke="#66CC00" stroke-width="35" fill="none" stroke-linecap="round" stroke-linejoin="round"/>
<path d="M 6378 1928 L 6374 1932 L 6368 1932 L 6360 1936 L 6350 1946 L 6342 1962 L 6336 1980 L 6324 2000 L 6314 2020 L 6306 2048 L 6298 2074 L 6296 2106 L 6292 2140 L 6290 2176 L 6288 2210 L 6288 2240 L 6290 2270 L 6290 2298 L 6288 2322 L 6296 2342 L 6304 2362 L 6314 2380" stroke="#66CC00" stroke-width="35" fill="none" stroke-linecap="round" stroke-linejoin="round"/>
<path d="M 6882 1928 L 6876 1932 L 6858 1932 L 6840 1940 L 6824 1960 L 6810 1984 L 6792 2020 L 6772 2068 L 6752 2116 L 6724 2170 L 6700 2228 L 6670 2286 L 6642 2342 L 6618 2392 L 6598 2430 L 6582 2458 L 6568 2478 L 6556 2496 L 6550 2516 L 6542 2534" stroke="#66CC00" stroke-width="35" fill="none" stroke-linecap="round" stroke-linejoin="round"/>
<path d="M 6908 2218 L 6908 2216 L 6908 2220 L 6908 2234 L 6908 2260 L 6908 2290 L 6908 2316 L 6912 2334 L 6918 2346 L 6922 2366 L 6926 2386 L 6932 2408 L 6934 2428 L 6936 2446 L 6938 2466 L 6938 2480 L 6936 2488 L 6936 2480 L 6938 2460 L 6938 2432 L 6936 2404 L 6936 2378 L 6938 2348 L 6938 2318 L 6940 2290 L 6950 2270 L 6964 2256 L 6980 2248 L 6998 2244 L 7014 2240 L 7030 2232 L 7050 2226 L 7072 2220 L 7088 2216" stroke="#66CC00" stroke-width="35" fill="none" stroke-linecap="round" stroke-linejoin="round"/>
<path d="M 7252 2298 L 7252 2294 L 7252 2284 L 7252 2274 L 7252 2258 L 7258 2244 L 7268 2226 L 7278 2208 L 7290 2188 L 7302 2168 L 7312 2150 L 7320 2138 L 7324 2126 L 7324 2120 L 7318 2114 L 7308 2114 L 7292 2118 L 7274 2122 L 7256 2132 L 7242 2148 L 7230 2164 L 7214 2188 L 7196 2208 L 7182 2230 L 7174 2254 L 7170 2278 L 7170 2302 L 7170 2322 L 7174 2340 L 7188 2358 L 7202 2376 L 7216 2388 L 7228 2398 L 7244 2408 L 7262 2416 L 7282 2422 L 7300 2434 L 7320 2444 L 7342 2446 L 7362 2442" stroke="#66CC00" stroke-width="35" fill="none" stroke-linecap="round" stroke-linejoin="round"/>
<path d="M 7542 2140 L 7542 2146 L 7542 2156 L 7542 2170 L 7542 2192 L 7542 2214 L 7542 2246 L 7542 2278 L 7542 2316 L 7542 2352 L 7542 2390 L 7542 2424 L 7542 2454 L 7542 2484 L 7542 2512 L 7542 2536 L 7542 2564 L 7542 2590 L 7542 2610 L 7542 2612 L 7542 2606 L 7542 2584 L 7542 2558 L 7542 2530 L 7542 2498 L 7542 2458 L 7542 2418 L 7542 2382 L 7542 2346 L 7542 2310 L 7542 2272 L 7542 2236 L 7548 2206 L 7558 2178 L 7572 2156 L 7594 2140 L 7614 2132 L 7632 2126 L 7652 2130 L 7670 2144 L 7690 2162 L 7710 2178 L 7730 2200 L 7746 2220 L 7756 2240 L 7760 2260 L 7764 2282 L 7760 2302 L 7756 2320 L 7744 2334 L 7724 2342 L 7702 2348 L 7676 2350 L 7652 2350 L 7628 2348 L 7600 2346 L 7576 2344" stroke="#66CC00" stroke-width="35" fill="none" stroke-linecap="round" stroke-linejoin="round"/>
<path d="M 7702 2298 L 7708 2296 L 7718 2294 L 7728 2292 L 7740 2290 L 7768 2290 L 7794 2292 L 7828 2292 L 7868 2284 L 7914 2274 L 7960 2264 L 8006 2254 L 8052 2234 L 8098 2208 L 8138 2180 L 8172 2160 L 8208 2144 L 8238 2128 L 8262 2106 L 8280 2084 L 8294 2064 L 8306 2046 L 8306 2030 L 8300 2018 L 8290 2008 L 8276 2000 L 8254 1998 L 8232 1996 L 8204 2000 L 8172 2026 L 8138 2054 L 8108 2090 L 8086 2128 L 8070 2168 L 8060 2200 L 8050 2230 L 8042 2256 L 8038 2274 L 8034 2294 L 8022 2316 L 8012 2340 L 8012 2360 L 8016 2380 L 8026 2392 L 8038 2402 L 8056 2412 L 8080 2420 L 8108 2426 L 8138 2428 L 8168 2428 L 8198 2426 L 8226 2426 L 8248 2428 L 8268 2428 L 8290 2426 L 8312 2426 L 8338 2428 L 8360 2428 L 8380 2426 L 8404 2424 L 8432 2412 L 8460 2392 L 8490 2372 L 8518 2346 L 8546 2316 L 8572 2290 L 8594 2272 L 8610 2252 L 8622 2234" stroke="#66CC00" stroke-width="35" fill="none" stroke-linecap="round" stroke-linejoin="round"/>
<path d="M 8600 2192 L 8602 2190 L 8592 2190 L 8572 2192 L 8548 2196 L 8524 2206 L 8502 2220 L 8482 2236 L 8462 2254 L 8442 2274 L 8426 2300 L 8414 2322 L 8404 2342 L 8402 2358 L 8406 2368 L 8420 2372 L 8438 2376 L 8462 2378 L 8490 2378 L 8516 2376 L 8546 2376 L 8572 2378 L 8594 2374 L 8614 2366 L 8628 2360 L 8638 2350 L 8652 2340 L 8666 2320 L 8680 2300 L 8690 2276 L 8694 2254 L 8686 2234 L 8672 2224" stroke="#66CC00" stroke-width="35" fill="none" stroke-linecap="round" stroke-linejoin="round"/>
<path d="M 8626 2218 L 8624 2222 L 8624 2230 L 8626 2242 L 8626 2254 L 8624 2276 L 8624 2300 L 8626 2320 L 8626 2342 L 8624 2366 L 8628 2386 L 8632 2412 L 8644 2434 L 8660 2454 L 8676 2472 L 8688 2492 L 8698 2510 L 8708 2528 L 8716 2538" stroke="#66CC00" stroke-width="35" fill="none" stroke-linecap="round" stroke-linejoin="round"/>
<path d="M 8944 2244 L 8940 2246 L 8934 2246 L 8926 2246 L 8910 2246 L 8894 2246 L 8878 2246 L 8856 2248 L 8834 2268 L 8818 2294 L 8806 2324 L 8802 2352 L 8802 2378 L 8804 2404 L 8804 2428 L 8802 2448 L 8802 2472 L 8810 2496 L 8830 2516 L 8854 2530 L 8878 2540 L 8900 2546 L 8924 2548 L 8948 2548" stroke="#66CC00" stroke-width="35" fill="none" stroke-linecap="round" stroke-linejoin="round"/>
<path d="M 9130 2376 L 9130 2372 L 9130 2364 L 9134 2354 L 9144 2338 L 9162 2316 L 9180 2294 L 9192 2276 L 9202 2254 L 9204 2238 L 9192 2226 L 9176 2222 L 9154 2226 L 9130 2234 L 9106 2248 L 9090 2272 L 9078 2296 L 9070 2318 L 9064 2334 L 9060 2354 L 9058 2376 L 9056 2402 L 9058 2428 L 9064 2448 L 9080 2462 L 9096 2476 L 9116 2486 L 9134 2494 L 9156 2498 L 9182 2502 L 9202 2504 L 9222 2504 L 9242 2504 L 9262 2504 L 9286 2504 L 9312 2504 L 9334 2504" stroke="#66CC00" stroke-width="35" fill="none" stroke-linecap="round" stroke-linejoin="round"/></svg>