<svg xmlns="http://www.w3.org/2000/svg" width="11992" height="5262" viewBox="0 0 11992 5262"><path d="M 18 2856 L 18 2856 L 14 2856 L 10 2838 L 26 2838 L 44 2838 L 70 2838 L 82 2838 L 98 2838 L 118 2842 L 132 2842 L 154 2844 L 176 2844 L 200 2844 L 222 2848 L 250 2852 L 278 2852 L 310 2856 L 338 2856 L 370 2856 L 404 2860 L 440 2860 L 470 2862 L 508 2868 L 542 2870 L 576 2872 L 610 2878 L 644 2880 L 678 2884 L 712 2886 L 738 2890 L 770 2894 L 798 2898 L 824 2900 L 852 2904 L 876 2908 L 904 2910 L 926 2910 L 954 2914 L 978 2916 L 1004 2916 L 1026 2916 L 1056 2916 L 1080 2916 L 1108 2916 L 1132 2916 L 1160 2916 L 1186 2916 L 1214 2916 L 1242 2916 L 1270 2916 L 1300 2916 L 1334 2916 L 1362 2916 L 1398 2916 L 1432 2916 L 1458 2916 L 1492 2896 L 1532 2896 L 1570 2896 L 1608 2896 L 1652 2896 L 1694 2896 L 1744 2876 L 1790 2876 L 1838 2876 L 1880 2876 L 1930 2876 L 1980 2852 L 2032 2852 L 2082 2852 L 2134 2852 L 2188 2830 L 2238 2830 L 2290 2830 L 2340 2808 L 2390 2808 L 2440 2808 L 2492 2780 L 2544 2780 L 2600 2760 L 2656 2760 L 2708 2738 L 2766 2738 L 2824 2718 L 2878 2718 L 2936 2698 L 2994 2698 L 3050 2680 L 3108 2680 L 3168 2680 L 3222 2660 L 3278 2660 L 3336 2660 L 3388 2660 L 3442 2660 L 3490 2642 L 3536 2642 L 3580 2642 L 3620 2642 L 3660 2642 L 3692 2642 L 3722 2622 L 3750 2622 L 3774 2622 L 3796 2622 L 3814 2622 L 3828 2622 L 3852 2602 L 3868 2602 L 3884 2602 L 3896 2602 L 3910 2602 L 3924 2602 L 3924 2602 L 3942 2604 L 3956 2604 L 3956 2606 L 3974 2608 L 3988 2610 L 3988 2612 L 4004 2612 L 4004 2614 L 4004 2616 L 4016 2616 L 4016 2618" stroke="#000000" stroke-width="25.00001" fill="none" stroke-linecap="round" stroke-linejoin="round"/>
<path d="M 4812 2154 L 4812 2132 L 4812 2138 L 4812 2142 L 4812 2150 L 4826 2156 L 4826 2162 L 4826 2170 L 4826 2174 L 4840 2178 L 4840 2186 L 4840 2192 L 4840 2196 L 4854 2200 L 4868 2200 L 4868 2178 L 4880 2160 L 4880 2168 L 4880 2176 L 4880 2190 L 4880 2210 L 4880 2232 L 4880 2262 L 4894 2292 L 4894 2326 L 4894 2360 L 4912 2396 L 4912 2428 L 4934 2462 L 4934 2492 L 4958 2520 L 4974 2540 L 4992 2552 L 5014 2558 L 5036 2558 L 5056 2558 L 5082 2558 L 5110 2526 L 5134 2502 L 5162 2474 L 5190 2440 L 5216 2404 L 5236 2368 L 5258 2334 L 5276 2298 L 5288 2264 L 5288 2232 L 5304 2206 L 5304 2178 L 5304 2156" stroke="#000000" stroke-width="25.00001" fill="none" stroke-linecap="round" stroke-linejoin="round"/>
<path d="M 5652 2396 L 5652 2368 L 5646 2340 L 5642 2340 L 5630 2314 L 5618 2314 L 5602 2314 L 5580 2292 L 5562 2292 L 5538 2292 L 5516 2296 L 5494 2302 L 5468 2314 L 5450 2324 L 5428 2336 L 5408 2352 L 5388 2362 L 5372 2374 L 5360 2386 L 5354 2400 L 5348 2410 L 5348 2416 L 5348 2422 L 5348 2424 L 5364 2428 L 5378 2428 L 5388 2430 L 5408 2430 L 5426 2434 L 5440 2442 L 5456 2454 L 5468 2468 L 5468 2482 L 5490 2506 L 5490 2526 L 5490 2550 L 5490 2574 L 5488 2600 L 5476 2626 L 5464 2650 L 5448 2668 L 5436 2690" stroke="#000000" stroke-width="25.00001" fill="none" stroke-linecap="round" stroke-linejoin="round"/>
<path d="M 5674 2556 L 5692 2556 L 5708 2526 L 5726 2526 L 5726 2504 L 5726 2484 L 5726 2484 L 5726 2488 L 5726 2490 L 5740 2492 L 5756 2494 L 5780 2494 L 5794 2494 L 5812 2494 L 5830 2494 L 5844 2494 L 5844 2474 L 5870 2474 L 5870 2450 L 5870 2428 L 5860 2428 L 5848 2428 L 5830 2430 L 5812 2432 L 5786 2442 L 5764 2452 L 5736 2466 L 5714 2484 L 5700 2504 L 5688 2522 L 5678 2548 L 5674 2572 L 5674 2598 L 5674 2622 L 5674 2642 L 5688 2654 L 5706 2666 L 5724 2670 L 5746 2676 L 5772 2676 L 5802 2676 L 5830 2676 L 5858 2676 L 5882 2648 L 5908 2648 L 5932 2614 L 5950 2594 L 5966 2572 L 5982 2552 L 5994 2552 L 5994 2518 L 6012 2518 L 6012 2490 L 6028 2490 L 6028 2468 L 6042 2470 L 6042 2474 L 6042 2486 L 6042 2500 L 6052 2518 L 6052 2536 L 6068 2552 L 6068 2570 L 6080 2586 L 6080 2602 L 6096 2618 L 6096 2628 L 6096 2638 L 6096 2638 L 6108 2638 L 6108 2606 L 6108 2586 L 6108 2560 L 6102 2536 L 6096 2508 L 6094 2484 L 6090 2456 L 6086 2432 L 6086 2400" stroke="#000000" stroke-width="25.00001" fill="none" stroke-linecap="round" stroke-linejoin="round"/>
<path d="M 6372 2474 L 6372 2440 L 6372 2406 L 6372 2374 L 6372 2352 L 6368 2352 L 6362 2352 L 6358 2352 L 6350 2352 L 6340 2354 L 6336 2362 L 6328 2374 L 6320 2382 L 6310 2394 L 6304 2406 L 6298 2416 L 6294 2426 L 6290 2438 L 6290 2444 L 6290 2450 L 6290 2452 L 6290 2456 L 6308 2458 L 6308 2460 L 6322 2460 L 6322 2462 L 6344 2468 L 6344 2474 L 6368 2478 L 6368 2488 L 6382 2506 L 6382 2526 L 6382 2546 L 6376 2564 L 6368 2584 L 6350 2602 L 6336 2620 L 6314 2636" stroke="#000000" stroke-width="25.00001" fill="none" stroke-linecap="round" stroke-linejoin="round"/>
<path d="M 6918 2686 L 6914 2664 L 6904 2664 L 6900 2664 L 6890 2664 L 6884 2664 L 6878 2664 L 6868 2664 L 6860 2646 L 6850 2646 L 6844 2646 L 6836 2646 L 6826 2646 L 6818 2646 L 6810 2646 L 6802 2646 L 6794 2646 L 6784 2646 L 6780 2646 L 6772 2646 L 6766 2646" stroke="#000000" stroke-width="25.00001" fill="none" stroke-linecap="round" stroke-linejoin="round"/>
<path d="M 7074 2308 L 7096 2308 L 7096 2274 L 7110 2246 L 7110 2222 L 7110 2198 L 7108 2198 L 7108 2208 L 7108 2226 L 7108 2246 L 7102 2274 L 7102 2300 L 7098 2332 L 7098 2366 L 7098 2402 L 7098 2442 L 7098 2482 L 7098 2522 L 7116 2562 L 7116 2594 L 7116 2628 L 7116 2656 L 7134 2676" stroke="#000000" stroke-width="25.00001" fill="none" stroke-linecap="round" stroke-linejoin="round"/>
<path d="M 7330 2576 L 7326 2576 L 7318 2552 L 7312 2552 L 7308 2552 L 7306 2528 L 7304 2528 L 7298 2528 L 7298 2500 L 7298 2504 L 7322 2504 L 7344 2516 L 7344 2534 L 7362 2554 L 7362 2572 L 7382 2594 L 7382 2614 L 7406 2634 L 7406 2654 L 7424 2674 L 7424 2688 L 7440 2692 L 7440 2704 L 7440 2704 L 7456 2704 L 7468 2682 L 7468 2646 L 7486 2624 L 7486 2604 L 7500 2584 L 7500 2562 L 7516 2562 L 7516 2536 L 7538 2536 L 7560 2536 L 7580 2536 L 7580 2546 L 7598 2562 L 7598 2580 L 7612 2600 L 7612 2624 L 7612 2648" stroke="#000000" stroke-width="25.00001" fill="none" stroke-linecap="round" stroke-linejoin="round"/>
<path d="M 7728 2572 L 7728 2572 L 7728 2542 L 7728 2516 L 7728 2494 L 7724 2494 L 7722 2494 L 7718 2494 L 7732 2494 L 7732 2496 L 7742 2500 L 7742 2506 L 7754 2510 L 7754 2518 L 7770 2520 L 7770 2524 L 7770 2528 L 7786 2528 L 7786 2530 L 7800 2530 L 7796 2530 L 7790 2530 L 7782 2530 L 7776 2530 L 7768 2532 L 7762 2538 L 7752 2546 L 7742 2558 L 7736 2568 L 7732 2582 L 7728 2596 L 7728 2606 L 7728 2620 L 7728 2634 L 7728 2644 L 7742 2654 L 7742 2662 L 7768 2666 L 7782 2670 L 7804 2672 L 7822 2672 L 7848 2672 L 7874 2672 L 7898 2672 L 7924 2672 L 7942 2672 L 7962 2646" stroke="#000000" stroke-width="25.00001" fill="none" stroke-linecap="round" stroke-linejoin="round"/>
<path d="M 8002 2482 L 7988 2482 L 7982 2460 L 7974 2460 L 7964 2440 L 7956 2440 L 7948 2440 L 7948 2412 L 7940 2412 L 7934 2412 L 7926 2392 L 7918 2392 L 7914 2392 L 7914 2370 L 7934 2370 L 7958 2370 L 7974 2370 L 7988 2370 L 8006 2344 L 8036 2344 L 8054 2318 L 8074 2318 L 8088 2318 L 8100 2290 L 8118 2270 L 8116 2270 L 8104 2270 L 8094 2270 L 8084 2270 L 8070 2276 L 8054 2290 L 8042 2300 L 8026 2322 L 8016 2346 L 8006 2372 L 7998 2400 L 7996 2430 L 7996 2460 L 7996 2492 L 7996 2522 L 8010 2544 L 8010 2566 L 8042 2582 L 8060 2592 L 8082 2600 L 8104 2606 L 8128 2606 L 8154 2606 L 8172 2606 L 8194 2588 L 8212 2588 L 8230 2560 L 8244 2560 L 8256 2524 L 8278 2496 L 8278 2478 L 8278 2486 L 8278 2496 L 8278 2510 L 8278 2526 L 8278 2542 L 8290 2556 L 8290 2572 L 8290 2578 L 8314 2586 L 8314 2588 L 8340 2590 L 8360 2590 L 8370 2590 L 8386 2590 L 8400 2566 L 8414 2566 L 8430 2566 L 8446 2536 L 8470 2536 L 8482 2536 L 8504 2536 L 8522 2538 L 8522 2554 L 8542 2568 L 8542 2586 L 8560 2608 L 8560 2626 L 8574 2648 L 8574 2668 L 8598 2684" stroke="#000000" stroke-width="25.00001" fill="none" stroke-linecap="round" stroke-linejoin="round"/>
<path d="M 8746 2518 L 8746 2518 L 8746 2484 L 8738 2484 L 8732 2460 L 8722 2460 L 8710 2460 L 8700 2460 L 8688 2460 L 8678 2460 L 8670 2460 L 8660 2460 L 8656 2464 L 8656 2476 L 8656 2486 L 8656 2500 L 8656 2516 L 8656 2532 L 8656 2550 L 8674 2560 L 8674 2572 L 8698 2580 L 8710 2582 L 8724 2586 L 8742 2586 L 8760 2586 L 8780 2586 L 8796 2586 L 8812 2566 L 8834 2542 L 8834 2520 L 8834 2492 L 8830 2472 L 8814 2472 L 8800 2472 L 8780 2448 L 8760 2448 L 8742 2448" stroke="#000000" stroke-width="25.00001" fill="none" stroke-linecap="round" stroke-linejoin="round"/>
<path d="M 8736 2334 L 8754 2316 L 8770 2292 L 8786 2274 L 8802 2252 L 8802 2232 L 8824 2212 L 8824 2178 L 8838 2178 L 8838 2196 L 8838 2218 L 8838 2242 L 8838 2272 L 8838 2304 L 8838 2338 L 8838 2376 L 8838 2416 L 8838 2452 L 8838 2486 L 8854 2516 L 8854 2540" stroke="#000000" stroke-width="25.00001" fill="none" stroke-linecap="round" stroke-linejoin="round"/>
<path d="M 8930 2474 L 8930 2474 L 8930 2448 L 8926 2448 L 8924 2428 L 8922 2428 L 8914 2428 L 8914 2404 L 8912 2404 L 8930 2404 L 8948 2404 L 8964 2406 L 8982 2412 L 8998 2412 L 9016 2414 L 9034 2416 L 9054 2416 L 9074 2416 L 9092 2416 L 9104 2416 L 9118 2416 L 9136 2392 L 9128 2372 L 9118 2372 L 9106 2372 L 9092 2374 L 9074 2384 L 9054 2392 L 9034 2402 L 9020 2418 L 9008 2434 L 8994 2454 L 8984 2478 L 8982 2500 L 8980 2526 L 8980 2546 L 8980 2570 L 8980 2594 L 9002 2614 L 9014 2628 L 9032 2638 L 9050 2650 L 9076 2652 L 9100 2660 L 9132 2660 L 9160 2660 L 9186 2660" stroke="#000000" stroke-width="25.00001" fill="none" stroke-linecap="round" stroke-linejoin="round"/>
<path d="M 9576 2078 L 9576 2056 L 9572 2036 L 9572 2010 L 9572 2010 L 9562 2012 L 9558 2024 L 9548 2040 L 9536 2064 L 9526 2094 L 9514 2130 L 9504 2172 L 9494 2216 L 9486 2264 L 9476 2318 L 9474 2372 L 9470 2428 L 9470 2484 L 9470 2542 L 9470 2592 L 9486 2638 L 9486 2682 L 9510 2720 L 9526 2752 L 9544 2782 L 9572 2800 L 9590 2818 L 9616 2828" stroke="#000000" stroke-width="25.00001" fill="none" stroke-linecap="round" stroke-linejoin="round"/>
<path d="M 9976 2280 L 9988 2256 L 9988 2238 L 9988 2218 L 9988 2188 L 9988 2160 L 9988 2140 L 9982 2140 L 9970 2140 L 9956 2140 L 9938 2142 L 9916 2146 L 9894 2152 L 9866 2160 L 9840 2168 L 9812 2172 L 9782 2182 L 9760 2190 L 9732 2198 L 9710 2206 L 9688 2214 L 9670 2218 L 9656 2222 L 9644 2226 L 9638 2230 L 9638 2234 L 9638 2240 L 9638 2252 L 9638 2264 L 9660 2284 L 9660 2306 L 9678 2336 L 9678 2366 L 9694 2400 L 9694 2436 L 9712 2476 L 9712 2514 L 9732 2554 L 9732 2592 L 9732 2626 L 9746 2658 L 9746 2686" stroke="#000000" stroke-width="25.00001" fill="none" stroke-linecap="round" stroke-linejoin="round"/>
<path d="M 9858 2542 L 9858 2542 L 9872 2510 L 9870 2490 L 9862 2490 L 9854 2490 L 9840 2490 L 9820 2490 L 9798 2490 L 9774 2490 L 9746 2490 L 9718 2490 L 9690 2490 L 9662 2494" stroke="#000000" stroke-width="25.00001" fill="none" stroke-linecap="round" stroke-linejoin="round"/>
<path d="M 9862 2524 L 9884 2524 L 9904 2524 L 9924 2524 L 9938 2524 L 9934 2524 L 9930 2530 L 9924 2538 L 9920 2552 L 9920 2566 L 9920 2580 L 9920 2596 L 9920 2610 L 9920 2626 L 9938 2636 L 9938 2646 L 9966 2648 L 9984 2652 L 10006 2652 L 10022 2652 L 10046 2652 L 10064 2652 L 10078 2620 L 10096 2586 L 10096 2564 L 10096 2540 L 10094 2520 L 10082 2500 L 10064 2500 L 10040 2466 L 10014 2466 L 9982 2444 L 9954 2444 L 9924 2444" stroke="#000000" stroke-width="25.00001" fill="none" stroke-linecap="round" stroke-linejoin="round"/>
<path d="M 9954 2550 L 9978 2550 L 10004 2550 L 10024 2526 L 10044 2526 L 10058 2526 L 10058 2506 L 10082 2506 L 10092 2506 L 10104 2510 L 10104 2524 L 10104 2532 L 10104 2550 L 10124 2570 L 10124 2588 L 10136 2604 L 10136 2622 L 10156 2636 L 10156 2648 L 10180 2654 L 10196 2660 L 10216 2660 L 10228 2660 L 10246 2660 L 10256 2660 L 10256 2636 L 10284 2636 L 10284 2608 L 10302 2608 L 10302 2574 L 10312 2574 L 10312 2542 L 10312 2516 L 10328 2516 L 10344 2516 L 10344 2518 L 10360 2532 L 10360 2546 L 10376 2564 L 10376 2580 L 10394 2594 L 10394 2610 L 10412 2622 L 10412 2632 L 10434 2642 L 10454 2642 L 10468 2642 L 10468 2618 L 10480 2618 L 10480 2576 L 10480 2554 L 10498 2526 L 10498 2498 L 10498 2472" stroke="#000000" stroke-width="25.00001" fill="none" stroke-linecap="round" stroke-linejoin="round"/>
<path d="M 10682 2396 L 10682 2400 L 10696 2406 L 10696 2410 L 10688 2414 L 10686 2420 L 10672 2422 L 10668 2432 L 10660 2440 L 10654 2450 L 10648 2462 L 10648 2472 L 10646 2486 L 10646 2498 L 10646 2516 L 10646 2532 L 10646 2546 L 10646 2560 L 10668 2570 L 10668 2576 L 10688 2582 L 10702 2582 L 10716 2582 L 10732 2582 L 10748 2582 L 10772 2558 L 10772 2532 L 10772 2494 L 10772 2474 L 10770 2474 L 10756 2440 L 10744 2440 L 10726 2412 L 10704 2412" stroke="#000000" stroke-width="25.00001" fill="none" stroke-linecap="round" stroke-linejoin="round"/>
<path d="M 10858 2406 L 10858 2374 L 10878 2374 L 10878 2342 L 10872 2342 L 10872 2320 L 10872 2324 L 10872 2334 L 10872 2352 L 10872 2372 L 10890 2396 L 10890 2422 L 10908 2454 L 10908 2484 L 10926 2512 L 10926 2540 L 10942 2566 L 10942 2584 L 10954 2596 L 10954 2600 L 10968 2600 L 10968 2580 L 10968 2562 L 10968 2538 L 10964 2510 L 10964 2482 L 10964 2452 L 10964 2422 L 10964 2392 L 10964 2364 L 10964 2340 L 10964 2318 L 10976 2318 L 10976 2294 L 10998 2294" stroke="#000000" stroke-width="25.00001" fill="none" stroke-linecap="round" stroke-linejoin="round"/>
<path d="M 11152 2394 L 11152 2398 L 11166 2400 L 11166 2408 L 11166 2416 L 11182 2426 L 11182 2436 L 11182 2452 L 11182 2468 L 11182 2488 L 11182 2506 L 11182 2524 L 11182 2542 L 11182 2562 L 11194 2580 L 11194 2596 L 11194 2606 L 11194 2608" stroke="#000000" stroke-width="25.00001" fill="none" stroke-linecap="round" stroke-linejoin="round"/>
<path d="M 11170 2304 L 11164 2262 L 11156 2224 L 11146 2188 L 11138 2152 L 11132 2118 L 11126 2090 L 11120 2062 L 11120 2044 L 11114 2044 L 11110 2022 L 11108 2022" stroke="#000000" stroke-width="25.00001" fill="none" stroke-linecap="round" stroke-linejoin="round"/>
<path d="M 11362 2194 L 11376 2194 L 11390 2194 L 11404 2194 L 11404 2170 L 11398 2170 L 11394 2178 L 11386 2190 L 11380 2208 L 11378 2232 L 11376 2264 L 11376 2296 L 11376 2332 L 11376 2370 L 11376 2408 L 11376 2450 L 11394 2490 L 11394 2528 L 11404 2562 L 11404 2594 L 11420 2620" stroke="#000000" stroke-width="25.00001" fill="none" stroke-linecap="round" stroke-linejoin="round"/>
<path d="M 11454 2584 L 11448 2564 L 11446 2564 L 11442 2526 L 11438 2506 L 11432 2506 L 11428 2474 L 11420 2474 L 11414 2450 L 11402 2450 L 11396 2450 L 11386 2450 L 11378 2450 L 11370 2450 L 11362 2450" stroke="#000000" stroke-width="25.00001" fill="none" stroke-linecap="round" stroke-linejoin="round"/>
<path d="M 11468 2472 L 11482 2472 L 11504 2444 L 11522 2444 L 11522 2422 L 11536 2422 L 11550 2422 L 11560 2422 L 11560 2430 L 11580 2434 L 11580 2442 L 11598 2450 L 11598 2456 L 11622 2462 L 11622 2468 L 11648 2470 L 11664 2470 L 11674 2472 L 11698 2472 L 11698 2452 L 11712 2452 L 11712 2432 L 11710 2432 L 11706 2408 L 11698 2408 L 11684 2386 L 11672 2386 L 11654 2386 L 11636 2386 L 11616 2386 L 11596 2386 L 11576 2386 L 11560 2390 L 11546 2400 L 11536 2412 L 11528 2428 L 11522 2444 L 11522 2466 L 11522 2484 L 11522 2506 L 11522 2524 L 11546 2544 L 11560 2558 L 11580 2570 L 11600 2578 L 11622 2584 L 11648 2588 L 11674 2588" stroke="#000000" stroke-width="25.00001" fill="none" stroke-linecap="round" stroke-linejoin="round"/>
<path d="M 11886 2100 L 11872 2100 L 11862 2066 L 11852 2066 L 11848 2066 L 11844 2066 L 11844 2086 L 11858 2114 L 11872 2156 L 11894 2208 L 11916 2268 L 11936 2338 L 11954 2418 L 11966 2496 L 11966 2582 L 11982 2670 L 11982 2760 L 11982 2846 L 11974 2928 L 11964 3006 L 11938 3074 L 11908 3136 L 11862 3184" stroke="#000000" stroke-width="25.00001" fill="none" stroke-linecap="round" stroke-linejoin="round"/>
<path d="M 1552 3414 L 2810 4102" stroke="#000000" stroke-width="25.00001" fill="none" stroke-linecap="round" stroke-linejoin="round"/>
<path d="M 3114 3780 L 3114 3756 L 3110 3756 L 3110 3736 L 3106 3736 L 3104 3736 L 3104 3714 L 3100 3714 L 3098 3714 L 3110 3714 L 3110 3720 L 3110 3732 L 3110 3746 L 3110 3764 L 3126 3788 L 3126 3814 L 3126 3844 L 3126 3878 L 3146 3912 L 3146 3950 L 3158 3990 L 3158 4032 L 3182 4068 L 3194 4102 L 3206 4136 L 3222 4162 L 3238 4180 L 3256 4194 L 3274 4200 L 3292 4200 L 3310 4200 L 3328 4200 L 3352 4170 L 3374 4146 L 3392 4114 L 3410 4074 L 3432 4034 L 3452 3984 L 3470 3934 L 3482 3880 L 3482 3830 L 3504 3778 L 3504 3734 L 3504 3692 L 3504 3660 L 3504 3640" stroke="#000000" stroke-width="25.00001" fill="none" stroke-linecap="round" stroke-linejoin="round"/>
<path d="M 3704 4008 L 3704 4008 L 3718 3976 L 3718 3950 L 3732 3950 L 3732 3926 L 3732 3908 L 3732 3888 L 3724 3888 L 3714 3888 L 3700 3888 L 3680 3888 L 3664 3888 L 3642 3888 L 3618 3888 L 3594 3894 L 3568 3900 L 3546 3908 L 3522 3912 L 3504 3918 L 3486 3926 L 3470 3928 L 3466 3936 L 3460 3946 L 3460 3954 L 3460 3962 L 3460 3970 L 3480 3978 L 3498 3984 L 3516 3996 L 3538 4008 L 3562 4020 L 3588 4032 L 3610 4050 L 3628 4066 L 3642 4084 L 3656 4102 L 3656 4122 L 3656 4138 L 3656 4156 L 3656 4176 L 3656 4188 L 3646 4204 L 3632 4218 L 3614 4228 L 3596 4240 L 3578 4252" stroke="#000000" stroke-width="25.00001" fill="none" stroke-linecap="round" stroke-linejoin="round"/>
<path d="M 3812 4128 L 3812 4128 L 3808 4094 L 3804 4094 L 3798 4068 L 3796 4068 L 3788 4068 L 3782 4040 L 3778 4040 L 3772 4040 L 3770 4040 L 3770 4022 L 3770 4024 L 3786 4028 L 3786 4030 L 3808 4030 L 3820 4030 L 3836 4030 L 3854 4030 L 3870 4030 L 3884 4006 L 3904 4006 L 3920 4006 L 3934 4006 L 3934 3984 L 3956 3984 L 3956 3960 L 3954 3960 L 3940 3960 L 3924 3960 L 3910 3960 L 3892 3960 L 3874 3962 L 3854 3974 L 3836 3988 L 3820 4000 L 3808 4018 L 3798 4038 L 3796 4056 L 3796 4078 L 3796 4098 L 3796 4118 L 3796 4138 L 3816 4154 L 3834 4166 L 3854 4180 L 3874 4190 L 3898 4196 L 3920 4198 L 3940 4198" stroke="#000000" stroke-width="25.00001" fill="none" stroke-linecap="round" stroke-linejoin="round"/>
<path d="M 4104 4080 L 4104 4046 L 4104 4012 L 4104 3990 L 4100 3990 L 4100 3994 L 4100 4006 L 4100 4020 L 4100 4040 L 4112 4058 L 4112 4080 L 4128 4098 L 4128 4118 L 4128 4136 L 4146 4154 L 4146 4170 L 4146 4180 L 4146 4180 L 4146 4160 L 4146 4122 L 4146 4102 L 4146 4076 L 4146 4052 L 4144 4028 L 4144 4002 L 4144 3976 L 4144 3952 L 4158 3934 L 4180 3914" stroke="#000000" stroke-width="25.00001" fill="none" stroke-linecap="round" stroke-linejoin="round"/>
<path d="M 4412 4022 L 4412 4022 L 4412 3996 L 4408 3996 L 4408 3972 L 4408 3948 L 4408 3922 L 4402 3922 L 4398 3922 L 4398 3930 L 4390 3940 L 4388 3952 L 4380 3966 L 4376 3980 L 4372 3992 L 4362 4008 L 4360 4026 L 4358 4040 L 4358 4054 L 4354 4066 L 4354 4074 L 4354 4080 L 4354 4088 L 4354 4092 L 4370 4094 L 4384 4100 L 4384 4102 L 4408 4104 L 4408 4106 L 4430 4112 L 4430 4120 L 4452 4128 L 4452 4138 L 4452 4152 L 4452 4168 L 4452 4182 L 4440 4198 L 4428 4216 L 4426 4232 L 4408 4246 L 4384 4260" stroke="#000000" stroke-width="25.00001" fill="none" stroke-linecap="round" stroke-linejoin="round"/>
<path d="M 4748 4176 L 4748 4154 L 4748 4132" stroke="#000000" stroke-width="25.00001" fill="none" stroke-linecap="round" stroke-linejoin="round"/>
<path d="M 5138 3748 L 5138 3748 L 5134 3748 L 5134 3726 L 5132 3726 L 5128 3706 L 5126 3706 L 5124 3706 L 5118 3706 L 5116 3706 L 5114 3684 L 5110 3684 L 5106 3684 L 5104 3684 L 5104 3664 L 5104 3666 L 5104 3666 L 5104 3668 L 5104 3672 L 5104 3682 L 5104 3696 L 5104 3714 L 5104 3738 L 5104 3766 L 5104 3800 L 5116 3836 L 5116 3874 L 5116 3912 L 5116 3954 L 5116 3996 L 5116 4040 L 5132 4082 L 5132 4124 L 5132 4156 L 5132 4184 L 5132 4206" stroke="#000000" stroke-width="25.00001" fill="none" stroke-linecap="round" stroke-linejoin="round"/>
<path d="M 5284 4118 L 5276 4100 L 5270 4078 L 5270 4058 L 5270 4034 L 5288 4034 L 5302 4034 L 5318 4034 L 5334 4034 L 5348 4036 L 5348 4052 L 5374 4066 L 5386 4084 L 5402 4106 L 5414 4122 L 5414 4144 L 5436 4162 L 5436 4180 L 5452 4192 L 5452 4204 L 5452 4212 L 5468 4212 L 5468 4180 L 5468 4160 L 5468 4138 L 5482 4116 L 5482 4094 L 5482 4072 L 5500 4072 L 5500 4040 L 5522 4040 L 5536 4040 L 5550 4040 L 5566 4040 L 5582 4046 L 5594 4060 L 5610 4076 L 5622 4096 L 5622 4120 L 5642 4142 L 5642 4170" stroke="#000000" stroke-width="25.00001" fill="none" stroke-linecap="round" stroke-linejoin="round"/>
<path d="M 5852 4134 L 5852 4110 L 5852 4086 L 5848 4066 L 5844 4066 L 5838 4066 L 5824 4066 L 5814 4066 L 5800 4066 L 5784 4066 L 5770 4072 L 5756 4084 L 5742 4100 L 5734 4118 L 5728 4138 L 5724 4160 L 5724 4180 L 5724 4202 L 5724 4224 L 5724 4244 L 5742 4262 L 5742 4276 L 5772 4290 L 5800 4294 L 5824 4298 L 5848 4300 L 5876 4300 L 5904 4300 L 5934 4300" stroke="#000000" stroke-width="25.00001" fill="none" stroke-linecap="round" stroke-linejoin="round"/>
<path d="M 6066 4124 L 6054 4124 L 6046 4124 L 6036 4100 L 6028 4100 L 6018 4100 L 6014 4082 L 6006 4082 L 6000 4082 L 5996 4082 L 5992 4060 L 5986 4060 L 6006 4060 L 6028 4060 L 6042 4060 L 6054 4060 L 6070 4036 L 6086 4036 L 6102 4036 L 6120 4014 L 6136 4014 L 6148 3988 L 6166 3960 L 6166 3930 L 6166 3910 L 6162 3910 L 6156 3910 L 6144 3910 L 6130 3910 L 6112 3918 L 6096 3932 L 6080 3948 L 6068 3968 L 6054 3992 L 6046 4016 L 6046 4042 L 6046 4072 L 6046 4100 L 6046 4126 L 6046 4152 L 6066 4172 L 6066 4188 L 6094 4202 L 6112 4210 L 6134 4214 L 6156 4216 L 6184 4216 L 6206 4216 L 6234 4216 L 6254 4216 L 6272 4196 L 6290 4196 L 6310 4166 L 6322 4166 L 6338 4142 L 6358 4122 L 6376 4122 L 6388 4134 L 6388 4148 L 6388 4162 L 6388 4176 L 6406 4186 L 6406 4198 L 6422 4208 L 6422 4218 L 6440 4224 L 6456 4224 L 6472 4224 L 6484 4224 L 6500 4224 L 6514 4206 L 6530 4206 L 6548 4176 L 6564 4176 L 6576 4148 L 6600 4120 L 6614 4120 L 6630 4100 L 6630 4100 L 6630 4110 L 6642 4124 L 6642 4140 L 6642 4158 L 6642 4180 L 6642 4202 L 6642 4220 L 6642 4238 L 6642 4258 L 6642 4274" stroke="#000000" stroke-width="25.00001" fill="none" stroke-linecap="round" stroke-linejoin="round"/>
<path d="M 6766 4136 L 6766 4112 L 6766 4094 L 6762 4094 L 6758 4074 L 6752 4074 L 6748 4074 L 6742 4074 L 6734 4076 L 6730 4080 L 6726 4086 L 6724 4096 L 6724 4110 L 6724 4122 L 6724 4138 L 6724 4154 L 6724 4170 L 6724 4186 L 6742 4198 L 6742 4212 L 6752 4222 L 6770 4226 L 6782 4228 L 6800 4228 L 6818 4228 L 6834 4228 L 6850 4228 L 6864 4208 L 6884 4182 L 6900 4150 L 6900 4120 L 6896 4120 L 6896 4094 L 6886 4094 L 6878 4074 L 6866 4074 L 6854 4074" stroke="#000000" stroke-width="25.00001" fill="none" stroke-linecap="round" stroke-linejoin="round"/>
<path d="M 6886 4006 L 6886 4006 L 6910 3970 L 6910 3946 L 6924 3922 L 6924 3898 L 6924 3878 L 6924 3854 L 6924 3832 L 6924 3804 L 6918 3804 L 6912 3804 L 6910 3804 L 6904 3820 L 6902 3844 L 6900 3870 L 6900 3904 L 6896 3942 L 6896 3982 L 6896 4024 L 6896 4066 L 6896 4108 L 6896 4148 L 6896 4188 L 6912 4222 L 6912 4250 L 6912 4268 L 6930 4282" stroke="#000000" stroke-width="25.00001" fill="none" stroke-linecap="round" stroke-linejoin="round"/>
<path d="M 6986 4154 L 6986 4154 L 6986 4120 L 6986 4092 L 6986 4070 L 6986 4046 L 7002 4046 L 7024 4046 L 7046 4046 L 7070 4050 L 7070 4052 L 7096 4052 L 7116 4052 L 7138 4052 L 7162 4052 L 7192 4052 L 7218 4052 L 7238 4052 L 7258 4052 L 7272 4052 L 7272 4028 L 7290 4028 L 7290 4002 L 7286 4002 L 7278 4002 L 7266 4004 L 7250 4010 L 7228 4024 L 7210 4030 L 7188 4044 L 7170 4060 L 7156 4076 L 7144 4098 L 7136 4122 L 7128 4148 L 7128 4172 L 7128 4196 L 7128 4216 L 7128 4236 L 7128 4254 L 7154 4266 L 7170 4278 L 7188 4282 L 7210 4282 L 7230 4282 L 7258 4282" stroke="#000000" stroke-width="25.00001" fill="none" stroke-linecap="round" stroke-linejoin="round"/>
<path d="M 8180 3860 L 8202 3838 L 8222 3838 L 8240 3838 L 8256 3814 L 8274 3814 L 8290 3790 L 8286 3790 L 8280 3770 L 8268 3770 L 8256 3770 L 8240 3770 L 8222 3770 L 8198 3770 L 8176 3770 L 8156 3770 L 8130 3770 L 8106 3770 L 8080 3770 L 8060 3770 L 8038 3772 L 8014 3772 L 8002 3778 L 7992 3780 L 7982 3788 L 7982 3794 L 7982 3804 L 7982 3818 L 7982 3832 L 7982 3848 L 7982 3872 L 7982 3902 L 7996 3934 L 7996 3970 L 7996 4006 L 7996 4046 L 7996 4084 L 8010 4126 L 8010 4164 L 8010 4202 L 8010 4238 L 8010 4266 L 8010 4296 L 8010 4320 L 8010 4338 L 8010 4348 L 8032 4352 L 8054 4354 L 8072 4354 L 8090 4354 L 8116 4354 L 8140 4330 L 8166 4330 L 8198 4308 L 8226 4308 L 8256 4288 L 8282 4288" stroke="#000000" stroke-width="25.00001" fill="none" stroke-linecap="round" stroke-linejoin="round"/>
<path d="M 8240 4102 L 8234 4102 L 8230 4078 L 8226 4078 L 8222 4078 L 8216 4078 L 8206 4054 L 8194 4054 L 8178 4054 L 8158 4054 L 8130 4054 L 8104 4032 L 8076 4032 L 8042 4032 L 8010 4032 L 7978 4032 L 7952 4032" stroke="#000000" stroke-width="25.00001" fill="none" stroke-linecap="round" stroke-linejoin="round"/>
<path d="M 8268 4052 L 8290 4052 L 8304 4030 L 8328 4030 L 8328 4006 L 8340 4006 L 8354 4006 L 8354 4010 L 8372 4018 L 8388 4030 L 8404 4046 L 8418 4064 L 8432 4084 L 8454 4106 L 8472 4128 L 8490 4152 L 8506 4170 L 8530 4186 L 8550 4200" stroke="#000000" stroke-width="25.00001" fill="none" stroke-linecap="round" stroke-linejoin="round"/>
<path d="M 8632 4096 L 8632 4096 L 8632 4068 L 8628 4046 L 8624 4046 L 8616 4046 L 8606 4046 L 8598 4046 L 8580 4046 L 8566 4058 L 8552 4074 L 8534 4098 L 8516 4118 L 8498 4140 L 8474 4168 L 8454 4194 L 8436 4218 L 8418 4244 L 8398 4264" stroke="#000000" stroke-width="25.00001" fill="none" stroke-linecap="round" stroke-linejoin="round"/>
<path d="M 8722 4108 L 8722 4108 L 8722 4084 L 8718 4084 L 8712 4060 L 8710 4060 L 8708 4060 L 8704 4060 L 8700 4060 L 8700 4070 L 8700 4086 L 8700 4108 L 8700 4134 L 8700 4168 L 8718 4202 L 8718 4236 L 8718 4276 L 8718 4314 L 8732 4346 L 8732 4380 L 8732 4410 L 8732 4434 L 8744 4446 L 8744 4452 L 8744 4418 L 8738 4390 L 8738 4358 L 8736 4322 L 8736 4282 L 8736 4242 L 8736 4198 L 8736 4158 L 8736 4122 L 8746 4088 L 8746 4060 L 8770 4036 L 8782 4018 L 8796 4018 L 8814 3994 L 8832 3994 L 8852 3994 L 8872 4000 L 8888 4010 L 8898 4026 L 8898 4050 L 8898 4074 L 8898 4102 L 8898 4128 L 8898 4154 L 8892 4178 L 8878 4202 L 8862 4222 L 8842 4240 L 8820 4252 L 8796 4260" stroke="#000000" stroke-width="25.00001" fill="none" stroke-linecap="round" stroke-linejoin="round"/>
<path d="M 8904 4122 L 8930 4122 L 8956 4090 L 8974 4090 L 8990 4060 L 9002 4060 L 9024 4038 L 9024 4046 L 9024 4054 L 9024 4068 L 9024 4080 L 9024 4098 L 9024 4118 L 9024 4134 L 9024 4148 L 9024 4164 L 9024 4176" stroke="#000000" stroke-width="25.00001" fill="none" stroke-linecap="round" stroke-linejoin="round"/>
<path d="M 8998 3952 L 8994 3924 L 8984 3894 L 8984 3868 L 8980 3844 L 8976 3826 L 8972 3826 L 8972 3796 L 8966 3796 L 8964 3796" stroke="#000000" stroke-width="25.00001" fill="none" stroke-linecap="round" stroke-linejoin="round"/>
<path d="M 9054 3974 L 9044 3948 L 9034 3948 L 9030 3922 L 9020 3922 L 9012 3900 L 9004 3900 L 8994 3900 L 8990 3900 L 8980 3900 L 8972 3900 L 8972 3900 L 8966 3900 L 8966 3908 L 8982 3916 L 8982 3924 L 9004 3932 L 9016 3940 L 9032 3946 L 9048 3954 L 9068 3958 L 9088 3958 L 9110 3960 L 9128 3960 L 9146 3960 L 9164 3960 L 9174 3960 L 9186 3938 L 9202 3916 L 9202 3892 L 9200 3892 L 9194 3870 L 9182 3870 L 9172 3870 L 9154 3874 L 9142 3880 L 9126 3890 L 9114 3902 L 9100 3920 L 9092 3940 L 9082 3960 L 9076 3988 L 9074 4012 L 9074 4040 L 9074 4064 L 9074 4086 L 9074 4104 L 9092 4120 L 9092 4132 L 9116 4140 L 9136 4144 L 9154 4144 L 9172 4144 L 9190 4144 L 9210 4144 L 9228 4144 L 9246 4116 L 9262 4116 L 9278 4094 L 9292 4094 L 9292 4062 L 9316 4062 L 9316 4032 L 9326 4032 L 9326 4002 L 9326 3978 L 9326 3958 L 9326 3938 L 9324 3938 L 9320 3938 L 9316 3938 L 9308 3938 L 9306 3938 L 9302 3938 L 9298 3942 L 9298 3958 L 9298 3972 L 9298 3990 L 9298 4012 L 9298 4036 L 9298 4058 L 9298 4084 L 9316 4110 L 9316 4132 L 9316 4156 L 9316 4176 L 9330 4188 L 9330 4198 L 9346 4198 L 9356 4198 L 9356 4174 L 9376 4154 L 9376 4132 L 9388 4106 L 9388 4080 L 9402 4054 L 9402 4028 L 9418 4006 L 9418 3982 L 9436 3960 L 9450 3926" stroke="#000000" stroke-width="25.00001" fill="none" stroke-linecap="round" stroke-linejoin="round"/>
<path d="M 9572 3974 L 9572 3978 L 9590 3984 L 9590 3990 L 9590 3994 L 9590 3998 L 9590 4008 L 9588 4016 L 9588 4026 L 9588 4040 L 9588 4056 L 9588 4076 L 9588 4096 L 9588 4120 L 9588 4146 L 9604 4170 L 9604 4194 L 9604 4214 L 9604 4230 L 9604 4244" stroke="#000000" stroke-width="25.00001" fill="none" stroke-linecap="round" stroke-linejoin="round"/>
<path d="M 9578 4024 L 9570 3982 L 9562 3942 L 9550 3902 L 9544 3866 L 9538 3832 L 9528 3800 L 9522 3778 L 9516 3756 L 9512 3756 L 9508 3756 L 9508 3736" stroke="#000000" stroke-width="25.00001" fill="none" stroke-linecap="round" stroke-linejoin="round"/>
<path d="M 9700 3976 L 9718 3984 L 9718 3992 L 9734 4000 L 9734 4006 L 9734 4010 L 9734 4016 L 9746 4024 L 9746 4030 L 9746 4042 L 9746 4054 L 9746 4066 L 9746 4078 L 9762 4092 L 9762 4108 L 9762 4124 L 9782 4134 L 9782 4148 L 9800 4160 L 9800 4170 L 9818 4174 L 9840 4174 L 9864 4174 L 9864 4146 L 9886 4146 L 9886 4116 L 9908 4116 L 9908 4080 L 9926 4080 L 9926 4048 L 9944 4048 L 9962 4028 L 9962 4030 L 9962 4038 L 9976 4048 L 9976 4066 L 9976 4084 L 9976 4104 L 9988 4126 L 9988 4150 L 9988 4172 L 10000 4190 L 10000 4208 L 10016 4218 L 10016 4228 L 10032 4228 L 10054 4228 L 10072 4206 L 10094 4176 L 10114 4144 L 10126 4114 L 10144 4096 L 10158 4096 L 10158 4106 L 10172 4122 L 10172 4138 L 10172 4156 L 10186 4176 L 10186 4196 L 10186 4216 L 10208 4236 L 10208 4254" stroke="#000000" stroke-width="25.00001" fill="none" stroke-linecap="round" stroke-linejoin="round"/>
<path d="M 10340 4220 L 10340 4200 L 10340 4182 L 10336 4162 L 10330 4142 L 10322 4142 L 10318 4114 L 10308 4114 L 10304 4088 L 10300 4088 L 10296 4088 L 10312 4088 L 10336 4092 L 10336 4094 L 10358 4100 L 10372 4100 L 10386 4100 L 10402 4100 L 10418 4100 L 10432 4100 L 10452 4100 L 10452 4076 L 10468 4076 L 10468 4046 L 10464 4046 L 10460 4026 L 10456 4026 L 10442 4030 L 10430 4036 L 10418 4046 L 10408 4060 L 10398 4072 L 10390 4090 L 10386 4110 L 10380 4130 L 10376 4150 L 10376 4174 L 10376 4194 L 10376 4210 L 10376 4226 L 10398 4242 L 10398 4248 L 10424 4252 L 10440 4252 L 10458 4252 L 10478 4252 L 10496 4252 L 10514 4226 L 10536 4226 L 10558 4194 L 10574 4194 L 10594 4162 L 10612 4162 L 10632 4128 L 10644 4128 L 10660 4100 L 10678 4100 L 10690 4100 L 10710 4100 L 10720 4100 L 10734 4110 L 10734 4122 L 10734 4138 L 10734 4150 L 10750 4162 L 10750 4176 L 10750 4186 L 10750 4198 L 10764 4206 L 10764 4210 L 10786 4210 L 10802 4210 L 10814 4210 L 10828 4210 L 10828 4182 L 10850 4182 L 10850 4158 L 10872 4158 L 10872 4136 L 10896 4136 L 10918 4136 L 10932 4138 L 10932 4148 L 10932 4168 L 10932 4186 L 10932 4206 L 10932 4226 L 10932 4248 L 10932 4270 L 10932 4292 L 10932 4312" stroke="#000000" stroke-width="25.00001" fill="none" stroke-linecap="round" stroke-linejoin="round"/>
<path d="M 11048 3948 L 11048 3914 L 11048 3882 L 11062 3858 L 11062 3838 L 11060 3838 L 11060 3846 L 11060 3866 L 11060 3890 L 11060 3922 L 11060 3958 L 11060 4000 L 11060 4040 L 11060 4078 L 11060 4116 L 11060 4152 L 11060 4186 L 11060 4210" stroke="#000000" stroke-width="25.00001" fill="none" stroke-linecap="round" stroke-linejoin="round"/>
<path d="M 11162 4094 L 11176 4094 L 11176 4066 L 11176 4038 L 11172 4038 L 11158 4042 L 11140 4050 L 11116 4056 L 11090 4068 L 11062 4078 L 11034 4088 L 11002 4098" stroke="#000000" stroke-width="25.00001" fill="none" stroke-linecap="round" stroke-linejoin="round"/>
<path d="M 11220 4038 L 11244 4038 L 11268 4014 L 11292 4014 L 11312 4014 L 11328 3994 L 11340 3994 L 11358 3976 L 11358 3976 L 11352 3976 L 11348 3976 L 11340 3978 L 11338 3986 L 11334 3986 L 11334 3996 L 11334 4006 L 11334 4022 L 11334 4040 L 11334 4058 L 11348 4080 L 11348 4098 L 11370 4118 L 11388 4138 L 11402 4160 L 11420 4186 L 11436 4208 L 11448 4232 L 11448 4258 L 11468 4282 L 11468 4308 L 11468 4330 L 11468 4350 L 11460 4368 L 11446 4384 L 11430 4398 L 11412 4410 L 11390 4420 L 11362 4426 L 11338 4428 L 11310 4434" stroke="#000000" stroke-width="25.00001" fill="none" stroke-linecap="round" stroke-linejoin="round"/>
<path d="M 8174 4742 L 8186 4716 L 8186 4688 L 8186 4660 L 8198 4660 L 8198 4640 L 8198 4646 L 8198 4658 L 8198 4674 L 8214 4702 L 8214 4732 L 8228 4768 L 8228 4810 L 8242 4852 L 8242 4896 L 8260 4938 L 8260 4982 L 8260 5024 L 8274 5058 L 8274 5084 L 8274 5100 L 8274 5110" stroke="#000000" stroke-width="25.00001" fill="none" stroke-linecap="round" stroke-linejoin="round"/>
<path d="M 8216 4896 L 8214 4860 L 8212 4824 L 8208 4788 L 8208 4758 L 8208 4728 L 8208 4702 L 8226 4682 L 8248 4648 L 8278 4624 L 8296 4624 L 8314 4624 L 8338 4624 L 8364 4624 L 8388 4624 L 8416 4632 L 8440 4644 L 8466 4662 L 8488 4688 L 8506 4718 L 8520 4754 L 8520 4792 L 8534 4834 L 8530 4872 L 8530 4912 L 8518 4954 L 8502 4994 L 8480 5030 L 8456 5062 L 8434 5088 L 8402 5114 L 8376 5136 L 8344 5154 L 8316 5164 L 8292 5172" stroke="#000000" stroke-width="25.00001" fill="none" stroke-linecap="round" stroke-linejoin="round"/>
<path d="M 8602 5044 L 8602 5022 L 8622 5022 L 8622 5002 L 8636 5002 L 8636 4974 L 8636 4950 L 8634 4950 L 8632 4950 L 8626 4952 L 8624 4956 L 8624 4966 L 8622 4978 L 8622 4992 L 8622 5006 L 8622 5022 L 8622 5040 L 8622 5058 L 8636 5074 L 8636 5088 L 8654 5102 L 8672 5108 L 8686 5114 L 8704 5114 L 8726 5114 L 8748 5114 L 8770 5114 L 8788 5084 L 8808 5084 L 8820 5046 L 8820 5020 L 8838 4994 L 8838 4972 L 8838 4950 L 8832 4916 L 8820 4916 L 8804 4896 L 8786 4896 L 8772 4896 L 8752 4896 L 8730 4896 L 8708 4896 L 8692 4898 L 8680 4906 L 8672 4916 L 8664 4930 L 8662 4938 L 8662 4946 L 8662 4952 L 8684 4952 L 8700 4952 L 8712 4952 L 8730 4952 L 8730 4934 L 8754 4934 L 8770 4934 L 8782 4910 L 8804 4910 L 8824 4910 L 8836 4910 L 8836 4916 L 8836 4928 L 8850 4944 L 8850 4964 L 8864 4982 L 8864 5002 L 8878 5020 L 8878 5038 L 8896 5052" stroke="#000000" stroke-width="25.00001" fill="none" stroke-linecap="round" stroke-linejoin="round"/>
<path d="M 9070 4894 L 9084 4852 L 9084 4812 L 9104 4772 L 9104 4730 L 9116 4698 L 9116 4668 L 9116 4638 L 9116 4616 L 9114 4616 L 9114 4634 L 9112 4662 L 9112 4704 L 9112 4756 L 9112 4806 L 9122 4860 L 9122 4918 L 9122 4976 L 9138 5032 L 9138 5090 L 9138 5138" stroke="#000000" stroke-width="25.00001" fill="none" stroke-linecap="round" stroke-linejoin="round"/>
<path d="M 9186 5036 L 9186 5002 L 9198 4972 L 9198 4946 L 9198 4922 L 9196 4902 L 9188 4902 L 9180 4874 L 9166 4874 L 9152 4874 L 9130 4874 L 9104 4874 L 9086 4874 L 9058 4874 L 9034 4878 L 9012 4884" stroke="#000000" stroke-width="25.00001" fill="none" stroke-linecap="round" stroke-linejoin="round"/>
<path d="M 9126 4868 L 9150 4868 L 9172 4868 L 9196 4868 L 9214 4850 L 9232 4850 L 9246 4854 L 9258 4862 L 9258 4874 L 9278 4890 L 9278 4908 L 9298 4928 L 9298 4950 L 9298 4972 L 9316 5000 L 9316 5024 L 9334 5046 L 9334 5074 L 9356 5094 L 9370 5108 L 9388 5114 L 9402 5114 L 9416 5114 L 9434 5114 L 9452 5114 L 9468 5092 L 9480 5092 L 9480 5054 L 9502 5030 L 9502 5006 L 9500 4976 L 9500 4950 L 9486 4928 L 9474 4928 L 9458 4894 L 9438 4894 L 9418 4894 L 9396 4894 L 9378 4868" stroke="#000000" stroke-width="25.00001" fill="none" stroke-linecap="round" stroke-linejoin="round"/>
<path d="M 9374 4954 L 9392 4954 L 9410 4954 L 9428 4954 L 9446 4954 L 9460 4954 L 9474 4930 L 9494 4930 L 9494 4936 L 9510 4946 L 9510 4956 L 9510 4976 L 9530 4996 L 9530 5020 L 9544 5044 L 9544 5066 L 9560 5088 L 9560 5106 L 9580 5122 L 9580 5130" stroke="#000000" stroke-width="25.00001" fill="none" stroke-linecap="round" stroke-linejoin="round"/>
<path d="M 9798 4824 L 9798 4824 L 9812 4802 L 9812 4782 L 9808 4782 L 9794 4782 L 9780 4782 L 9764 4782 L 9752 4792 L 9736 4806 L 9724 4820 L 9710 4836 L 9698 4850 L 9690 4866 L 9690 4882 L 9688 4898 L 9682 4916 L 9682 4934 L 9682 4948 L 9702 4962 L 9714 4976 L 9736 4988 L 9756 5000 L 9776 5012 L 9798 5028 L 9820 5046 L 9840 5066 L 9852 5088 L 9852 5112 L 9872 5132 L 9870 5148 L 9870 5162 L 9870 5180 L 9862 5192 L 9850 5202 L 9840 5210 L 9826 5218 L 9812 5220" stroke="#000000" stroke-width="25.00001" fill="none" stroke-linecap="round" stroke-linejoin="round"/>
<path d="M 9768 5004 L 9782 4982 L 9806 4964 L 9824 4964 L 9842 4930 L 9862 4930 L 9878 4906 L 9894 4906 L 9914 4886 L 9930 4886 L 9944 4886 L 9962 4886 L 9962 4890 L 9982 4894 L 9982 4902 L 10004 4908 L 10004 4914 L 10024 4922 L 10024 4928 L 10046 4932 L 10056 4932 L 10068 4932 L 10082 4932 L 10106 4932 L 10132 4932 L 10132 4908 L 10144 4908 L 10144 4888 L 10144 4864 L 10140 4864 L 10132 4864 L 10118 4864 L 10104 4864 L 10086 4868 L 10066 4878 L 10048 4888 L 10030 4902 L 10014 4920 L 10002 4942 L 9992 4964 L 9984 4988 L 9982 5008 L 9982 5030 L 9982 5052 L 9982 5070 L 10002 5084 L 10014 5094 L 10032 5102 L 10054 5104 L 10078 5106 L 10106 5106 L 10132 5106 L 10158 5106 L 10186 5106 L 10212 5076 L 10238 5076 L 10260 5054 L 10284 5054" stroke="#000000" stroke-width="25.00001" fill="none" stroke-linecap="round" stroke-linejoin="round"/>
<path d="M 10362 4912 L 10362 4912 L 10362 4884 L 10362 4854 L 10362 4824 L 10362 4798 L 10362 4768 L 10362 4740 L 10362 4718 L 10362 4720 L 10362 4730 L 10362 4750 L 10362 4770 L 10362 4794 L 10358 4824 L 10358 4856 L 10358 4888 L 10354 4922 L 10350 4954 L 10348 4988 L 10344 5020 L 10344 5048 L 10344 5072 L 10344 5092 L 10344 5108 L 10340 5114 L 10340 5122 L 10340 5124" stroke="#000000" stroke-width="25.00001" fill="none" stroke-linecap="round" stroke-linejoin="round"/>
<path d="M 10390 4664 L 10390 4664 L 10406 4664 L 10418 4664 L 10418 4668 L 10414 4676 L 10406 4688 L 10394 4698 L 10376 4708 L 10356 4720 L 10330 4730 L 10306 4742 L 10278 4752 L 10252 4762 L 10222 4770 L 10194 4776 L 10170 4784" stroke="#000000" stroke-width="25.00001" fill="none" stroke-linecap="round" stroke-linejoin="round"/>
<path d="M 10320 4644 L 10320 4626 L 10332 4626 L 10332 4602 L 10344 4602 L 10344 4580 L 10360 4580 L 10360 4562 L 10360 4562 L 10360 4570 L 10360 4580 L 10360 4592 L 10360 4608 L 10360 4626 L 10360 4648 L 10360 4676 L 10360 4704 L 10372 4736" stroke="#000000" stroke-width="25.00001" fill="none" stroke-linecap="round" stroke-linejoin="round"/>
<path d="M 10556 4992 L 10556 4992 L 10568 4956 L 10568 4928 L 10568 4900 L 10568 4874 L 10568 4854 L 10580 4854 L 10580 4832 L 10578 4832 L 10574 4832 L 10570 4832 L 10568 4832 L 10560 4832 L 10560 4832 L 10552 4832 L 10546 4836 L 10542 4842 L 10536 4846 L 10532 4854 L 10530 4864 L 10528 4872 L 10524 4882 L 10524 4892 L 10524 4902 L 10524 4912 L 10524 4924 L 10524 4934 L 10540 4948 L 10540 4960 L 10556 4972 L 10556 4986 L 10578 4998 L 10578 5010 L 10600 5024 L 10600 5036 L 10628 5054 L 10628 5070 L 10646 5088 L 10646 5108 L 10646 5126 L 10646 5148 L 10636 5164 L 10620 5182 L 10604 5198 L 10580 5212 L 10552 5224 L 10522 5236 L 10494 5246 L 10458 5252" stroke="#000000" stroke-width="25.00001" fill="none" stroke-linecap="round" stroke-linejoin="round"/>
<path d="M 1120 1910 L 1114 1910 L 1110 1910 L 1106 1910 L 1106 1888 L 1102 1888 L 1096 1888 L 1096 1888 L 1092 1888 L 1088 1888 L 1086 1888 L 1078 1888 L 1078 1870 L 1088 1870 L 1088 1850 L 1102 1850 L 1102 1828 L 1114 1828 L 1114 1810 L 1136 1810 L 1148 1790 L 1162 1790 L 1182 1766 L 1200 1766 L 1226 1740 L 1248 1740 L 1272 1706 L 1296 1706 L 1328 1678 L 1354 1678 L 1386 1650 L 1420 1632 L 1450 1612 L 1486 1592 L 1520 1572 L 1554 1546 L 1588 1522 L 1624 1498 L 1660 1476 L 1696 1476 L 1734 1430 L 1768 1404 L 1802 1376 L 1834 1350 L 1868 1322 L 1898 1300 L 1928 1276 L 1956 1252 L 1982 1232 L 2010 1232 L 2028 1198 L 2046 1198 L 2066 1168 L 2078 1168 L 2094 1142 L 2112 1120 L 2134 1100 L 2146 1100 L 2146 1074 L 2158 1074 L 2158 1050 L 2176 1050 L 2176 1022 L 2188 1004 L 2202 978 L 2218 954 L 2238 926 L 2264 896 L 2290 866 L 2300 866 L 2314 836 L 2336 804 L 2358 778 L 2382 750 L 2400 730 L 2416 710 L 2432 684 L 2448 662 L 2448 644 L 2460 644 L 2456 644 L 2452 644 L 2450 644 L 2448 644" stroke="#000000" stroke-width="25.00001" fill="none" stroke-linecap="round" stroke-linejoin="round"/>
<path d="M 2642 310 L 2642 310 L 2656 282 L 2656 258 L 2656 238 L 2666 216 L 2666 198 L 2666 178 L 2680 178 L 2680 180 L 2680 182 L 2676 182 L 2676 190 L 2676 204 L 2676 224 L 2676 248 L 2676 276 L 2694 306 L 2694 340 L 2708 378 L 2708 420 L 2730 464 L 2730 506 L 2754 552 L 2754 594 L 2774 636 L 2774 670 L 2790 696 L 2790 716 L 2790 726 L 2784 726 L 2782 726 L 2774 726 L 2766 692 L 2754 668 L 2744 638 L 2732 602 L 2724 568 L 2712 534 L 2702 496 L 2694 458 L 2690 422 L 2684 392 L 2684 362 L 2684 336 L 2684 308 L 2684 286 L 2684 268 L 2702 268 L 2714 238 L 2730 238 L 2744 238 L 2770 212 L 2794 212 L 2824 212 L 2854 214 L 2886 222 L 2922 234 L 2960 254 L 2996 274 L 3038 302 L 3066 336 L 3098 372 L 3120 414 L 3134 458 L 3148 504 L 3148 554 L 3148 602 L 3136 648 L 3124 696 L 3102 736 L 3074 774 L 3044 806 L 3012 834 L 2978 856 L 2944 874" stroke="#000000" stroke-width="25.00001" fill="none" stroke-linecap="round" stroke-linejoin="round"/>
<path d="M 3258 578 L 3250 560 L 3244 560 L 3232 560 L 3218 560 L 3208 560 L 3194 560 L 3182 560 L 3168 568 L 3158 582 L 3158 594 L 3158 612 L 3158 630 L 3158 652 L 3158 674 L 3158 692 L 3182 712 L 3182 726 L 3214 736 L 3232 746 L 3250 746 L 3278 746 L 3306 746 L 3338 746 L 3364 746 L 3388 746 L 3410 716 L 3430 716 L 3430 678 L 3448 660 L 3448 640 L 3444 640 L 3436 608 L 3420 608 L 3402 586 L 3378 586 L 3352 586 L 3320 586 L 3288 586 L 3254 586 L 3224 592" stroke="#000000" stroke-width="25.00001" fill="none" stroke-linecap="round" stroke-linejoin="round"/>
<path d="M 3466 600 L 3466 580 L 3480 580 L 3476 580 L 3476 588 L 3476 604 L 3476 620 L 3476 642 L 3476 662 L 3476 690 L 3494 718 L 3494 746 L 3512 774 L 3512 800 L 3530 826 L 3548 846" stroke="#000000" stroke-width="25.00001" fill="none" stroke-linecap="round" stroke-linejoin="round"/>
<path d="M 3626 342 L 3620 308 L 3612 280 L 3608 260 L 3602 260 L 3602 238 L 3602 238 L 3602 246 L 3602 264 L 3602 290 L 3612 320 L 3612 358 L 3630 400 L 3630 448 L 3648 498 L 3648 548 L 3666 602 L 3666 648 L 3682 698 L 3682 742" stroke="#000000" stroke-width="25.00001" fill="none" stroke-linecap="round" stroke-linejoin="round"/>
<path d="M 3884 606 L 3884 586 L 3884 550 L 3884 518 L 3876 518 L 3870 500 L 3858 500 L 3846 500 L 3828 500 L 3804 504 L 3778 514 L 3746 528 L 3716 544 L 3676 564 L 3660 582 L 3620 604 L 3580 624 L 3542 644 L 3506 668" stroke="#000000" stroke-width="25.00001" fill="none" stroke-linecap="round" stroke-linejoin="round"/>
<path d="M 3910 676 L 3924 650 L 3942 650 L 3942 626 L 3954 626 L 3954 606 L 3952 606 L 3944 606 L 3934 606 L 3924 606 L 3916 606 L 3910 614 L 3906 630 L 3902 642 L 3902 658 L 3898 678 L 3898 694 L 3898 710 L 3898 726 L 3914 738 L 3914 748 L 3938 754 L 3954 754 L 3970 754 L 3982 754 L 3998 754 L 4012 732 L 4026 732 L 4026 698 L 4040 678 L 4040 656 L 4040 634 L 4040 614 L 4038 614 L 4026 580 L 4016 580 L 4000 556 L 3986 556 L 3970 556 L 3952 556" stroke="#000000" stroke-width="25.00001" fill="none" stroke-linecap="round" stroke-linejoin="round"/>
<path d="M 4072 610 L 4072 610 L 4094 588 L 4108 588 L 4106 588 L 4106 596 L 4106 610 L 4106 626 L 4106 646 L 4106 668 L 4106 692 L 4124 714 L 4124 738 L 4148 760 L 4148 780 L 4174 798 L 4190 808 L 4208 818 L 4228 822" stroke="#000000" stroke-width="25.00001" fill="none" stroke-linecap="round" stroke-linejoin="round"/>
<path d="M 4286 456 L 4282 422 L 4280 422 L 4278 388 L 4278 352 L 4274 352 L 4274 324 L 4272 324 L 4272 332 L 4272 352 L 4272 380 L 4290 412 L 4290 452 L 4290 494 L 4306 534 L 4306 576 L 4306 622 L 4306 664 L 4318 708 L 4314 744 L 4314 772 L 4314 786 L 4314 794 L 4310 794 L 4310 794 L 4300 756 L 4300 728 L 4296 692 L 4292 652 L 4286 608 L 4286 558 L 4286 510 L 4286 460 L 4286 416 L 4286 374 L 4286 336 L 4300 304 L 4300 286 L 4328 286 L 4342 286 L 4360 286 L 4382 286 L 4404 298 L 4424 328 L 4448 362 L 4470 402 L 4494 448 L 4520 496 L 4540 546 L 4560 594 L 4574 642 L 4590 686 L 4590 728 L 4608 762 L 4608 790 L 4608 812 L 4628 826 L 4628 834" stroke="#000000" stroke-width="25.00001" fill="none" stroke-linecap="round" stroke-linejoin="round"/>
<path d="M 4608 716 L 4602 690 L 4596 664 L 4590 638 L 4582 616 L 4574 616 L 4562 588 L 4550 588 L 4534 588 L 4518 588 L 4498 588 L 4480 588 L 4458 600 L 4432 614 L 4412 630 L 4392 648" stroke="#000000" stroke-width="25.00001" fill="none" stroke-linecap="round" stroke-linejoin="round"/>
<path d="M 4828 672 L 4842 652 L 4862 652 L 4862 624 L 4862 604 L 4856 582 L 4852 582 L 4842 582 L 4832 558 L 4820 558 L 4810 558 L 4798 558 L 4784 562 L 4770 568 L 4756 578 L 4744 590 L 4732 602 L 4726 620 L 4720 638 L 4718 658 L 4718 680 L 4718 702 L 4718 724 L 4718 744 L 4738 760 L 4754 772 L 4774 782 L 4794 786 L 4816 788 L 4838 788 L 4862 788 L 4888 788 L 4910 788 L 4936 760" stroke="#000000" stroke-width="25.00001" fill="none" stroke-linecap="round" stroke-linejoin="round"/>
<path d="M 4980 604 L 4976 604 L 4976 604 L 4972 584 L 4968 584 L 4962 584 L 4958 584 L 4956 584 L 4954 584 L 4946 584 L 4944 584 L 4938 584 L 4930 584 L 4926 584 L 4918 584 L 4908 584 L 4900 584 L 4888 588 L 4874 596 L 4862 606 L 4852 618 L 4838 630 L 4828 646 L 4820 660 L 4810 676 L 4804 696 L 4802 714 L 4802 734 L 4802 752 L 4802 768 L 4802 780 L 4820 792 L 4832 802 L 4846 808 L 4862 810 L 4884 812 L 4904 812 L 4928 812 L 4948 812 L 4972 812 L 4994 812" stroke="#000000" stroke-width="25.00001" fill="none" stroke-linecap="round" stroke-linejoin="round"/>
<path d="M 5086 626 L 5086 626 L 5086 628 L 5086 630 L 5086 630 L 5082 630 L 5080 630 L 5096 630 L 5110 630 L 5128 630 L 5142 630 L 5158 608 L 5174 608 L 5186 608 L 5204 608 L 5218 584 L 5232 584 L 5254 560 L 5272 560 L 5272 538 L 5262 538 L 5250 538 L 5238 538 L 5222 538 L 5204 538 L 5186 544 L 5168 554 L 5148 566 L 5128 578 L 5114 592 L 5098 606 L 5086 620 L 5080 634 L 5074 650 L 5074 668 L 5074 682 L 5074 696 L 5074 708 L 5096 722 L 5114 730 L 5132 738 L 5158 744 L 5182 748 L 5214 752 L 5244 752 L 5276 752 L 5310 752" stroke="#000000" stroke-width="25.00001" fill="none" stroke-linecap="round" stroke-linejoin="round"/>
<path d="M 5624 576 L 5610 576 L 5602 552 L 5590 552 L 5574 524 L 5560 524 L 5540 524 L 5522 524 L 5498 504 L 5476 504 L 5456 504 L 5436 504 L 5414 512 L 5400 518 L 5386 528 L 5372 538 L 5364 552 L 5362 568 L 5358 584 L 5358 602 L 5358 620 L 5358 636 L 5382 650 L 5396 664 L 5414 678 L 5438 692 L 5464 704 L 5490 714 L 5520 724 L 5550 734 L 5574 742 L 5602 752 L 5624 760 L 5642 772 L 5658 786 L 5658 800 L 5674 818 L 5674 834 L 5674 848 L 5666 862 L 5652 876 L 5638 886" stroke="#000000" stroke-width="25.00001" fill="none" stroke-linecap="round" stroke-linejoin="round"/>
<path d="M 5758 614 L 5776 592 L 5792 572 L 5808 572 L 5808 538 L 5808 512 L 5798 512 L 5786 512 L 5768 512 L 5748 512 L 5730 512 L 5712 512 L 5696 520 L 5684 532 L 5668 540 L 5656 554 L 5646 570 L 5642 584 L 5642 598 L 5642 612 L 5642 626 L 5658 638 L 5658 650 L 5686 664 L 5708 678 L 5730 694 L 5752 708 L 5776 724 L 5794 742 L 5812 760 L 5830 780 L 5830 798 L 5844 818 L 5844 836 L 5844 854 L 5842 868 L 5836 884 L 5822 890" stroke="#000000" stroke-width="25.00001" fill="none" stroke-linecap="round" stroke-linejoin="round"/>
<path d="M 5692 336 L 5708 312 L 5708 286 L 5722 286 L 5722 256 L 5722 232 L 5736 232 L 5736 208 L 5748 180 L 5748 158 L 5748 138 L 5764 148 L 5764 156 L 5764 170 L 5764 194 L 5782 216 L 5782 242 L 5798 274 L 5798 306 L 5812 340 L 5812 378 L 5830 416 L 5830 452 L 5842 486 L 5842 522 L 5842 550 L 5858 580 L 5858 602 L 5858 616 L 5858 628 L 5858 630 L 5854 630 L 5850 630 L 5848 630 L 5842 600 L 5840 560 L 5840 528 L 5840 494 L 5840 454 L 5840 414 L 5840 374 L 5840 332 L 5840 294 L 5850 258 L 5850 222 L 5866 188 L 5866 156 L 5878 128 L 5878 102 L 5900 102 L 5900 78 L 5926 84 L 5946 84 L 5946 98 L 5974 112 L 5974 132 L 5986 158 L 5986 186 L 5986 216 L 5986 246 L 5986 276 L 5986 308 L 5984 340 L 5978 368 L 5968 390 L 5956 414 L 5946 434 L 5938 450 L 5928 464 L 5924 474 L 5914 482 L 5914 488 L 5914 494 L 5914 500 L 5932 504 L 5946 512 L 5964 516 L 5992 522 L 6014 532 L 6046 538 L 6080 548 L 6112 560 L 6146 570 L 6176 580 L 6206 588 L 6236 598 L 6264 606 L 6280 608" stroke="#000000" stroke-width="25.00001" fill="none" stroke-linecap="round" stroke-linejoin="round"/>
<path d="M 6230 450 L 6216 418 L 6206 418 L 6196 396 L 6188 396 L 6180 396 L 6170 396 L 6168 396 L 6188 400 L 6188 408 L 6188 420 L 6206 428 L 6224 436 L 6242 444 L 6260 448 L 6280 452 L 6302 456 L 6320 456 L 6340 456 L 6358 456 L 6372 456 L 6390 434 L 6390 410 L 6386 388 L 6368 388 L 6350 388 L 6332 390 L 6308 396 L 6282 402 L 6258 416 L 6234 434 L 6216 452 L 6198 476 L 6188 504 L 6180 532 L 6178 560 L 6178 588 L 6178 616 L 6178 642 L 6192 662 L 6212 674 L 6230 686 L 6252 694 L 6280 694 L 6308 694 L 6336 694 L 6362 694 L 6390 674 L 6416 674 L 6438 642 L 6460 620 L 6480 598 L 6500 576 L 6520 550 L 6530 526 L 6530 504 L 6552 484 L 6552 464 L 6568 434 L 6564 434 L 6560 434 L 6556 434 L 6550 444 L 6542 464 L 6538 484 L 6532 502 L 6528 526 L 6524 546 L 6522 566 L 6522 588 L 6522 604 L 6522 618 L 6522 626 L 6522 630 L 6540 630 L 6560 630 L 6574 612 L 6590 612 L 6606 576 L 6616 554 L 6616 532 L 6640 506 L 6640 484 L 6654 456 L 6654 436 L 6654 418 L 6648 396 L 6640 396 L 6626 396" stroke="#000000" stroke-width="25.00001" fill="none" stroke-linecap="round" stroke-linejoin="round"/>
<path d="M 6624 580 L 6640 580 L 6652 580 L 6670 558 L 6670 572 L 6670 594 L 6670 622 L 6670 654 L 6682 690 L 6682 730 L 6682 772 L 6682 814 L 6698 858 L 6698 900 L 6698 940 L 6698 978 L 6714 1012 L 6714 1040 L 6714 1060" stroke="#000000" stroke-width="25.00001" fill="none" stroke-linecap="round" stroke-linejoin="round"/>
<path d="M 6776 572 L 6776 548 L 6776 518 L 6776 498 L 6776 500 L 6788 506 L 6788 518 L 6788 530 L 6788 548 L 6788 566 L 6788 586 L 6802 608 L 6802 630 L 6818 650 L 6818 670 L 6834 686 L 6834 700 L 6856 710 L 6856 712 L 6882 712 L 6904 712 L 6918 712 L 6932 682 L 6946 682 L 6946 644 L 6968 622 L 6968 596 L 6986 576 L 6986 554 L 7000 534 L 7000 500 L 7016 500 L 7016 504 L 7016 518 L 7026 538 L 7026 558 L 7026 584 L 7026 608 L 7042 634 L 7042 660 L 7042 682 L 7060 704 L 7060 720 L 7076 734 L 7076 740" stroke="#000000" stroke-width="25.00001" fill="none" stroke-linecap="round" stroke-linejoin="round"/>
<path d="M 7250 572 L 7250 546 L 7244 524 L 7236 524 L 7226 502 L 7212 502 L 7208 482 L 7200 482 L 7194 482 L 7190 482 L 7188 482 L 7188 484 L 7208 490 L 7208 494 L 7226 498 L 7226 500 L 7250 504 L 7268 506 L 7292 506 L 7312 506 L 7328 506 L 7346 506 L 7360 506 L 7378 490 L 7396 490 L 7396 460 L 7392 434 L 7388 434 L 7370 434 L 7358 434 L 7342 434 L 7332 434 L 7312 442 L 7296 452 L 7276 462 L 7258 476 L 7250 490 L 7244 510 L 7240 530 L 7240 552 L 7240 574 L 7240 592 L 7256 610 L 7272 624 L 7284 634 L 7306 648 L 7328 658 L 7342 662 L 7370 664 L 7398 666 L 7428 666 L 7456 666 L 7482 666" stroke="#000000" stroke-width="25.00001" fill="none" stroke-linecap="round" stroke-linejoin="round"/>
<path d="M 7702 456 L 7702 432 L 7698 432 L 7690 432 L 7688 432 L 7682 432 L 7674 432 L 7666 438 L 7656 450 L 7648 460 L 7634 472 L 7620 488 L 7606 500 L 7594 514 L 7580 528 L 7566 540 L 7554 548 L 7544 558 L 7534 568 L 7530 578 L 7526 586 L 7526 594 L 7526 598 L 7526 606 L 7526 614 L 7542 624 L 7542 632 L 7560 642 L 7560 652 L 7582 664 L 7582 678 L 7602 692 L 7602 704 L 7616 718 L 7616 730 L 7630 742 L 7630 754 L 7630 766 L 7630 774 L 7630 782 L 7630 788 L 7620 792 L 7616 794 L 7612 794" stroke="#000000" stroke-width="25.00001" fill="none" stroke-linecap="round" stroke-linejoin="round"/>
<path d="M 7906 142 L 7906 142 L 7906 112 L 7906 92 L 7902 92 L 7902 92 L 7892 98 L 7892 108 L 7892 130 L 7892 156 L 7892 192 L 7892 232 L 7892 280 L 7910 334 L 7910 386 L 7910 442 L 7928 500 L 7928 556 L 7928 608 L 7946 654 L 7946 696 L 7946 730" stroke="#000000" stroke-width="25.00001" fill="none" stroke-linecap="round" stroke-linejoin="round"/>
<path d="M 7994 486 L 7994 452 L 7994 432 L 7984 432 L 7972 432 L 7956 432 L 7934 434 L 7910 444 L 7878 452 L 7848 462 L 7818 472 L 7782 484" stroke="#000000" stroke-width="25.00001" fill="none" stroke-linecap="round" stroke-linejoin="round"/>
<path d="M 8104 510 L 8118 510 L 8138 510 L 8138 482 L 8156 482 L 8156 456 L 8154 456 L 8146 456 L 8138 456 L 8134 456 L 8128 456 L 8122 458 L 8116 468 L 8112 478 L 8112 492 L 8112 506 L 8112 524 L 8112 544 L 8112 562 L 8130 582 L 8130 604 L 8158 628 L 8176 648 L 8186 672 L 8206 696 L 8216 716 L 8232 738 L 8232 760 L 8248 780 L 8248 800 L 8246 814 L 8236 820 L 8226 832 L 8208 842 L 8186 850 L 8162 858 L 8134 862 L 8104 866 L 8076 868 L 8046 868" stroke="#000000" stroke-width="25.00001" fill="none" stroke-linecap="round" stroke-linejoin="round"/>
<path d="M 8406 786 L 8420 786 L 8438 786 L 8448 786 L 8468 786 L 8484 786 L 8480 786 L 8478 786 L 8474 786 L 8470 786 L 8468 786" stroke="#000000" stroke-width="25.00001" fill="none" stroke-linecap="round" stroke-linejoin="round"/>
<path d="M 8852 226 L 8852 202 L 8852 182 L 8848 160 L 8848 124 L 8848 100 L 8846 100 L 8846 108 L 8846 126 L 8846 150 L 8862 184 L 8862 222 L 8862 266 L 8862 314 L 8876 366 L 8876 416 L 8876 468 L 8890 518 L 8890 566 L 8890 610 L 8890 648 L 8890 676 L 8890 690 L 8890 694 L 8886 660 L 8886 632 L 8882 598 L 8882 560 L 8882 518 L 8882 480 L 8882 432 L 8894 388 L 8894 342 L 8908 304 L 8908 264 L 8936 230 L 8952 202 L 8972 182 L 8998 182 L 9020 160 L 9044 160 L 9066 162 L 9092 174 L 9114 196 L 9134 224 L 9150 260 L 9150 300 L 9168 344 L 9168 392 L 9168 440 L 9164 490 L 9154 538 L 9142 584 L 9114 628 L 9096 666 L 9066 698 L 9034 722 L 9008 740" stroke="#000000" stroke-width="25.00001" fill="none" stroke-linecap="round" stroke-linejoin="round"/>
<path d="M 9196 562 L 9220 538 L 9244 538 L 9262 520 L 9278 520 L 9292 520 L 9284 526 L 9270 536 L 9262 548 L 9246 566 L 9236 582 L 9228 600 L 9220 622 L 9218 642 L 9218 662 L 9218 682 L 9218 694 L 9230 708 L 9246 716 L 9262 720 L 9284 720 L 9306 720 L 9330 720 L 9354 720 L 9380 696 L 9398 696 L 9418 664 L 9418 646 L 9436 626 L 9436 606 L 9428 570 L 9418 570 L 9398 548 L 9380 548 L 9354 548 L 9330 548 L 9302 548 L 9278 548" stroke="#000000" stroke-width="25.00001" fill="none" stroke-linecap="round" stroke-linejoin="round"/>
<path d="M 9298 570 L 9318 546 L 9342 546 L 9360 528 L 9380 528 L 9396 504 L 9408 504 L 9424 504 L 9424 506 L 9424 524 L 9424 546 L 9424 570 L 9424 600 L 9424 630 L 9424 658 L 9424 688 L 9424 718 L 9438 744" stroke="#000000" stroke-width="25.00001" fill="none" stroke-linecap="round" stroke-linejoin="round"/>
<path d="M 9692 82 L 9692 46 L 9692 22 L 9692 48 L 9692 84 L 9692 126 L 9692 176 L 9692 230 L 9708 292 L 9708 354 L 9724 414 L 9724 476 L 9724 534 L 9742 584 L 9742 626" stroke="#000000" stroke-width="25.00001" fill="none" stroke-linecap="round" stroke-linejoin="round"/>
<path d="M 9862 518 L 9862 492 L 9862 468 L 9862 446 L 9848 416 L 9828 416 L 9806 416 L 9780 416 L 9746 416 L 9710 416 L 9666 416 L 9626 416 L 9580 426 L 9540 436 L 9502 450" stroke="#000000" stroke-width="25.00001" fill="none" stroke-linecap="round" stroke-linejoin="round"/>
<path d="M 9678 474 L 9702 474 L 9724 474 L 9742 450 L 9760 450 L 9774 450 L 9786 454 L 9786 464 L 9786 478 L 9786 496 L 9786 514 L 9802 538 L 9802 560 L 9802 584 L 9802 608 L 9802 632 L 9816 652 L 9816 672 L 9836 686 L 9852 696 L 9866 698 L 9884 698 L 9902 698 L 9926 698 L 9944 678 L 9960 678 L 9972 642 L 9972 622 L 9988 598 L 9988 574 L 9988 550 L 9984 528 L 9976 508 L 9956 508 L 9934 480 L 9912 480 L 9888 480 L 9862 480" stroke="#000000" stroke-width="25.00001" fill="none" stroke-linecap="round" stroke-linejoin="round"/>
<path d="M 9948 554 L 9972 532 L 9998 532 L 10020 532 L 10032 508 L 10050 508 L 10050 510 L 10050 524 L 10048 542 L 10048 564 L 10048 588 L 10048 614 L 10048 644 L 10048 672 L 10048 700 L 10048 726 L 10048 754 L 10064 778 L 10064 794 L 10082 804" stroke="#000000" stroke-width="25.00001" fill="none" stroke-linecap="round" stroke-linejoin="round"/>
<path d="M 10320 414 L 10336 384 L 10336 362 L 10336 340 L 10336 308 L 10336 286 L 10332 286 L 10326 288 L 10318 302 L 10306 314 L 10296 324 L 10288 340 L 10278 354 L 10270 372 L 10260 388 L 10256 402 L 10248 418 L 10248 438 L 10246 452 L 10246 466 L 10246 486 L 10246 504 L 10264 522 L 10278 540 L 10278 560 L 10302 582 L 10320 604 L 10332 628 L 10348 656 L 10348 682 L 10370 710 L 10370 736 L 10370 760 L 10370 780 L 10360 798 L 10352 812 L 10332 820 L 10310 828 L 10288 832 L 10268 832" stroke="#000000" stroke-width="25.00001" fill="none" stroke-linecap="round" stroke-linejoin="round"/>
<path d="M 10434 418 L 10434 418 L 10448 418 L 10448 420 L 10448 428 L 10448 432 L 10462 442 L 10462 446 L 10462 454 L 10462 462 L 10462 470 L 10462 478 L 10462 484 L 10476 492 L 10476 500 L 10494 504 L 10506 506 L 10522 506 L 10536 506 L 10556 506 L 10574 506 L 10592 506 L 10614 488 L 10630 488 L 10648 466 L 10664 466 L 10678 438 L 10692 412 L 10692 388 L 10686 388 L 10672 388 L 10658 388 L 10640 388 L 10614 388 L 10582 388 L 10556 390 L 10524 400 L 10496 414 L 10472 430 L 10448 446 L 10430 464 L 10416 486 L 10408 506 L 10400 528 L 10400 548 L 10400 566 L 10400 586 L 10416 600 L 10438 610 L 10458 616 L 10480 622 L 10512 622 L 10540 622 L 10568 622 L 10602 622 L 10630 596 L 10660 576 L 10688 556 L 10716 556 L 10744 516 L 10766 484 L 10788 454 L 10802 422 L 10816 386 L 10816 356 L 10832 318 L 10832 280 L 10832 244 L 10848 208 L 10848 174 L 10848 140 L 10848 110 L 10848 80 L 10844 54 L 10844 32 L 10840 32 L 10840 10 L 10840 14 L 10856 32 L 10856 64 L 10856 98 L 10872 146 L 10872 196 L 10872 256 L 10888 318 L 10888 384 L 10888 450 L 10900 516 L 10900 578 L 10900 634 L 10900 686 L 10900 726" stroke="#000000" stroke-width="25.00001" fill="none" stroke-linecap="round" stroke-linejoin="round"/>
<path d="M 11036 466 L 11052 438 L 11052 414 L 11052 392 L 11052 362 L 11044 362 L 11026 362 L 11004 362 L 10984 362 L 10954 362 L 10918 368 L 10882 376 L 10844 386 L 10812 400 L 10772 414 L 10738 426" stroke="#000000" stroke-width="25.00001" fill="none" stroke-linecap="round" stroke-linejoin="round"/>
<path d="M 11094 418 L 11124 418 L 11150 390 L 11164 390 L 11184 366 L 11194 366 L 11194 346 L 11212 346 L 11208 346 L 11198 346 L 11186 346 L 11172 354 L 11162 366 L 11150 380 L 11136 394 L 11124 412 L 11118 428 L 11112 446 L 11112 470 L 11112 490 L 11112 508 L 11112 528 L 11112 542 L 11130 550 L 11130 566 L 11158 580 L 11176 594 L 11190 610 L 11204 626 L 11222 646 L 11232 664 L 11232 684 L 11252 702 L 11252 722 L 11252 740 L 11252 756 L 11240 766 L 11226 778 L 11208 784 L 11184 788 L 11158 788 L 11128 788" stroke="#000000" stroke-width="25.00001" fill="none" stroke-linecap="round" stroke-linejoin="round"/>
<path d="M 1006 2526 L 1006 2526 L 1018 2526 L 1018 2506 L 1018 2508 L 1018 2510 L 1030 2510 L 1042 2488 L 1060 2488 L 1074 2488 L 1088 2464 L 1106 2464 L 1128 2440 L 1158 2440 L 1192 2406 L 1226 2386 L 1266 2364 L 1308 2336 L 1354 2306 L 1404 2274 L 1458 2240 L 1514 2206 L 1566 2168 L 1622 2124 L 1682 2084 L 1736 2042 L 1794 1996 L 1848 1954 L 1906 1910 L 1956 1868 L 2014 1824 L 2068 1786 L 2120 1750 L 2176 1714 L 2228 1680 L 2278 1648 L 2328 1616 L 2376 1586 L 2422 1560 L 2470 1532 L 2510 1510 L 2552 1488 L 2586 1488 L 2624 1452 L 2652 1452 L 2680 1422 L 2700 1422 L 2722 1394 L 2744 1394 L 2760 1372 L 2776 1372 L 2788 1372 L 2810 1372 L 2810 1348 L 2826 1348 L 2836 1348 L 2854 1348 L 2850 1348 L 2864 1348 L 2882 1348 L 2896 1348 L 2918 1348 L 2934 1348 L 2958 1348 L 2986 1328 L 3002 1328 L 3016 1328 L 3034 1328 L 3046 1328 L 3070 1328 L 3086 1328 L 3086 1308 L 3104 1308 L 3120 1308" stroke="#000000" stroke-width="25.00001" fill="none" stroke-linecap="round" stroke-linejoin="round"/>
<path d="M 3456 1218 L 3452 1192 L 3450 1192 L 3446 1192 L 3442 1192 L 3442 1174 L 3438 1174 L 3432 1174 L 3432 1174 L 3432 1152 L 3428 1152 L 3422 1152 L 3420 1152 L 3432 1158 L 3432 1174 L 3432 1198 L 3446 1222 L 3446 1252 L 3460 1282 L 3460 1314 L 3474 1350 L 3474 1388 L 3492 1426 L 3492 1464 L 3512 1502 L 3512 1536 L 3524 1564 L 3524 1586 L 3524 1598 L 3522 1604 L 3518 1604 L 3508 1604 L 3500 1582 L 3492 1564 L 3482 1534 L 3470 1500 L 3460 1464 L 3452 1426 L 3446 1384 L 3442 1340 L 3442 1298 L 3442 1254 L 3442 1214 L 3460 1174 L 3474 1146 L 3498 1118 L 3528 1098 L 3562 1098 L 3602 1098 L 3644 1098 L 3692 1098 L 3734 1106 L 3782 1126 L 3822 1154 L 3858 1188 L 3886 1228 L 3908 1272 L 3920 1318 L 3920 1368 L 3920 1416 L 3910 1464 L 3892 1510 L 3868 1552 L 3836 1588 L 3804 1622 L 3766 1652 L 3726 1672 L 3684 1694 L 3648 1706 L 3616 1714" stroke="#000000" stroke-width="25.00001" fill="none" stroke-linecap="round" stroke-linejoin="round"/>
<path d="M 4072 1478 L 4072 1478 L 4090 1454 L 4104 1454 L 4100 1454 L 4094 1456 L 4094 1464 L 4094 1474 L 4094 1486 L 4094 1500 L 4094 1508 L 4094 1522 L 4108 1532 L 4108 1540 L 4134 1540 L 4148 1540 L 4164 1540 L 4182 1540 L 4202 1540 L 4220 1540 L 4240 1512 L 4250 1512 L 4250 1482 L 4274 1482 L 4274 1446 L 4274 1416 L 4260 1390 L 4248 1390 L 4230 1390 L 4210 1390 L 4192 1390 L 4172 1390 L 4148 1396" stroke="#000000" stroke-width="25.00001" fill="none" stroke-linecap="round" stroke-linejoin="round"/>
<path d="M 4300 1442 L 4320 1442 L 4334 1442 L 4334 1418 L 4354 1418 L 4370 1424 L 4370 1434 L 4370 1452 L 4370 1472 L 4370 1494 L 4370 1518 L 4370 1546 L 4370 1572 L 4384 1600 L 4384 1628 L 4384 1650 L 4384 1674 L 4384 1690" stroke="#000000" stroke-width="25.00001" fill="none" stroke-linecap="round" stroke-linejoin="round"/>
<path d="M 4480 1342 L 4480 1302 L 4480 1268 L 4496 1234 L 4496 1206 L 4494 1182 L 4494 1162 L 4490 1162 L 4486 1162 L 4480 1170 L 4480 1196 L 4480 1224 L 4480 1260 L 4480 1300 L 4480 1338 L 4496 1380 L 4496 1424 L 4514 1470 L 4514 1514 L 4532 1556" stroke="#000000" stroke-width="25.00001" fill="none" stroke-linecap="round" stroke-linejoin="round"/>
<path d="M 4698 1476 L 4698 1476 L 4698 1442 L 4698 1416 L 4692 1416 L 4684 1416 L 4674 1416 L 4662 1416 L 4646 1416 L 4626 1422 L 4600 1432 L 4572 1442 L 4546 1458 L 4518 1472 L 4490 1488 L 4462 1504" stroke="#000000" stroke-width="25.00001" fill="none" stroke-linecap="round" stroke-linejoin="round"/>
<path d="M 4760 1488 L 4784 1488 L 4802 1488 L 4812 1468 L 4824 1468 L 4824 1472 L 4822 1478 L 4816 1486 L 4812 1494 L 4806 1508 L 4802 1520 L 4798 1534 L 4798 1550 L 4798 1564 L 4798 1578 L 4798 1588 L 4810 1598 L 4810 1608 L 4834 1608 L 4854 1608 L 4872 1608 L 4894 1608 L 4912 1608 L 4936 1578 L 4956 1578 L 4974 1550 L 4986 1550 L 4986 1518 L 5004 1518 L 5004 1488 L 4998 1488 L 4990 1464 L 4972 1464 L 4954 1464 L 4930 1464 L 4908 1472 L 4884 1480 L 4862 1490" stroke="#000000" stroke-width="25.00001" fill="none" stroke-linecap="round" stroke-linejoin="round"/>
<path d="M 4998 1494 L 5022 1494 L 5040 1470 L 5056 1470 L 5074 1470 L 5074 1476 L 5074 1490 L 5074 1508 L 5074 1528 L 5074 1552 L 5074 1576 L 5074 1602 L 5074 1628 L 5074 1652 L 5074 1676 L 5074 1700 L 5086 1714" stroke="#000000" stroke-width="25.00001" fill="none" stroke-linecap="round" stroke-linejoin="round"/>
<path d="M 5266 1250 L 5266 1216 L 5266 1186 L 5266 1162 L 5262 1142 L 5256 1142 L 5250 1150 L 5248 1162 L 5242 1186 L 5234 1216 L 5232 1254 L 5226 1298 L 5218 1344 L 5216 1394 L 5210 1444 L 5210 1492 L 5206 1540 L 5204 1584 L 5200 1620 L 5200 1652 L 5196 1676 L 5196 1692 L 5196 1696 L 5210 1696 L 5210 1664 L 5226 1638 L 5226 1608 L 5248 1568 L 5248 1530 L 5262 1488 L 5262 1446 L 5280 1406 L 5280 1366 L 5300 1326 L 5300 1298 L 5318 1274 L 5338 1274 L 5362 1274 L 5374 1284 L 5386 1310 L 5386 1346 L 5412 1386 L 5426 1430 L 5442 1474 L 5458 1520 L 5470 1564 L 5486 1608 L 5486 1646 L 5504 1676" stroke="#000000" stroke-width="25.00001" fill="none" stroke-linecap="round" stroke-linejoin="round"/>
<path d="M 5504 1626 L 5504 1602 L 5500 1602 L 5500 1566 L 5494 1566 L 5490 1536 L 5480 1536 L 5470 1536 L 5458 1536 L 5446 1536 L 5422 1538 L 5404 1548 L 5384 1560 L 5362 1574 L 5338 1588" stroke="#000000" stroke-width="25.00001" fill="none" stroke-linecap="round" stroke-linejoin="round"/>
<path d="M 5822 1488 L 5814 1488 L 5812 1488 L 5808 1468 L 5804 1468 L 5798 1450 L 5794 1450 L 5784 1450 L 5772 1450 L 5762 1450 L 5746 1450 L 5734 1450 L 5720 1454 L 5706 1470 L 5696 1486 L 5688 1506 L 5682 1528 L 5678 1538 L 5674 1562 L 5674 1584 L 5674 1608 L 5674 1630 L 5674 1650 L 5702 1664 L 5712 1678 L 5734 1684 L 5756 1686 L 5778 1686 L 5804 1686 L 5830 1686 L 5856 1686" stroke="#000000" stroke-width="25.00001" fill="none" stroke-linecap="round" stroke-linejoin="round"/>
<path d="M 6034 1454 L 6028 1454 L 6020 1430 L 6014 1430 L 6012 1430 L 6006 1412 L 5996 1412 L 5992 1412 L 5974 1412 L 5962 1412 L 5950 1412 L 5944 1412 L 5934 1412 L 5924 1424 L 5914 1436 L 5904 1452 L 5892 1470 L 5882 1488 L 5878 1510 L 5876 1532 L 5876 1552 L 5876 1574 L 5876 1592 L 5894 1612 L 5910 1630 L 5924 1640 L 5946 1654 L 5962 1660 L 5986 1660 L 6014 1662 L 6036 1662 L 6066 1662 L 6094 1662" stroke="#000000" stroke-width="25.00001" fill="none" stroke-linecap="round" stroke-linejoin="round"/>
<path d="M 6206 1430 L 6198 1430 L 6188 1410 L 6178 1410 L 6168 1410 L 6158 1410 L 6154 1410 L 6140 1410 L 6134 1410 L 6128 1410 L 6118 1410 L 6114 1410 L 6106 1410 L 6104 1410 L 6100 1414 L 6096 1418 L 6096 1422 L 6114 1422 L 6134 1422 L 6146 1422 L 6164 1402 L 6178 1402 L 6198 1402 L 6212 1376 L 6228 1376 L 6242 1376 L 6258 1352 L 6278 1352 L 6274 1352 L 6266 1352 L 6248 1354 L 6230 1362 L 6208 1372 L 6188 1384 L 6166 1396 L 6146 1414 L 6132 1426 L 6116 1444 L 6106 1458 L 6096 1476 L 6096 1496 L 6096 1514 L 6096 1530 L 6096 1542 L 6116 1558 L 6132 1568 L 6150 1576 L 6172 1586 L 6198 1592 L 6220 1594 L 6242 1596 L 6268 1596 L 6292 1596 L 6316 1596 L 6336 1596" stroke="#000000" stroke-width="25.00001" fill="none" stroke-linecap="round" stroke-linejoin="round"/>
<path d="M 6506 1406 L 6506 1406 L 6506 1386 L 6502 1386 L 6500 1386 L 6492 1386 L 6490 1386 L 6480 1386 L 6472 1386 L 6460 1386 L 6446 1386 L 6430 1392 L 6416 1402 L 6404 1410 L 6388 1420 L 6378 1434 L 6368 1448 L 6358 1464 L 6354 1478 L 6350 1492 L 6350 1506 L 6350 1520 L 6350 1534 L 6362 1546 L 6376 1560 L 6390 1568 L 6412 1580 L 6430 1588 L 6450 1598 L 6472 1608 L 6490 1618 L 6506 1626 L 6520 1638 L 6520 1650 L 6532 1660 L 6532 1670 L 6532 1680 L 6530 1692 L 6520 1702 L 6510 1708 L 6500 1716" stroke="#000000" stroke-width="25.00001" fill="none" stroke-linecap="round" stroke-linejoin="round"/>
<path d="M 6692 1498 L 6704 1498 L 6720 1464 L 6734 1432 L 6734 1410 L 6730 1410 L 6720 1410 L 6712 1410 L 6704 1416 L 6690 1422 L 6674 1432 L 6662 1444 L 6650 1456 L 6636 1464 L 6624 1474 L 6618 1486 L 6610 1502 L 6610 1516 L 6610 1526 L 6610 1536 L 6610 1546 L 6620 1556 L 6620 1564 L 6646 1570 L 6664 1578 L 6682 1584 L 6698 1590 L 6714 1602 L 6730 1614 L 6730 1628 L 6730 1644 L 6744 1658 L 6744 1674 L 6744 1694 L 6744 1710 L 6734 1726 L 6726 1740 L 6714 1752 L 6696 1766" stroke="#000000" stroke-width="25.00001" fill="none" stroke-linecap="round" stroke-linejoin="round"/>
<path d="M 6844 1366 L 6844 1342 L 6844 1318 L 6844 1284 L 6844 1296 L 6856 1316 L 6856 1342 L 6878 1372 L 6878 1404 L 6900 1442 L 6900 1476 L 6926 1512 L 6926 1546 L 6946 1580 L 6946 1602 L 6946 1626 L 6946 1636 L 6946 1640 L 6940 1640 L 6934 1606 L 6926 1580 L 6914 1552 L 6904 1522 L 6894 1490 L 6886 1454 L 6884 1420 L 6882 1388 L 6882 1358 L 6882 1332 L 6882 1306 L 6904 1286 L 6916 1286 L 6934 1262 L 6950 1262 L 6968 1262 L 6986 1262 L 7006 1264 L 7026 1276 L 7042 1288 L 7056 1310 L 7056 1334 L 7070 1360 L 7070 1390 L 7070 1418 L 7070 1448 L 7068 1478 L 7058 1508 L 7042 1534 L 7026 1558 L 7006 1580 L 6986 1594 L 6968 1608 L 6946 1620 L 6928 1628 L 6916 1632 L 6896 1634 L 6890 1634 L 6884 1634 L 6904 1634 L 6918 1634 L 6936 1634 L 6958 1634 L 6984 1634 L 7008 1634 L 7034 1634 L 7060 1636 L 7088 1638 L 7116 1642 L 7142 1648 L 7164 1650" stroke="#000000" stroke-width="25.00001" fill="none" stroke-linecap="round" stroke-linejoin="round"/>
<path d="M 7226 1542 L 7222 1512 L 7212 1512 L 7210 1490 L 7204 1490 L 7198 1490 L 7192 1470 L 7188 1470 L 7210 1470 L 7230 1470 L 7230 1470 L 7254 1474 L 7268 1474 L 7286 1474 L 7298 1476 L 7318 1476 L 7330 1476 L 7344 1476 L 7362 1452 L 7362 1426 L 7358 1406 L 7348 1406 L 7340 1406 L 7322 1406 L 7304 1406 L 7286 1406 L 7262 1406 L 7244 1416 L 7226 1430 L 7218 1450 L 7204 1470 L 7194 1484 L 7192 1508 L 7188 1532 L 7188 1556 L 7188 1578 L 7188 1600 L 7204 1618 L 7204 1632 L 7230 1642 L 7254 1646 L 7272 1652 L 7294 1652 L 7318 1652 L 7340 1652 L 7362 1652 L 7384 1618 L 7406 1618 L 7428 1590 L 7446 1566 L 7464 1542 L 7480 1520 L 7496 1498 L 7496 1472 L 7518 1452 L 7518 1428 L 7518 1408 L 7530 1374 L 7526 1374 L 7520 1356 L 7510 1356 L 7504 1360 L 7498 1368 L 7492 1382 L 7482 1398 L 7480 1416 L 7474 1438 L 7470 1460 L 7468 1480 L 7464 1500 L 7464 1520 L 7464 1534 L 7464 1546 L 7464 1556 L 7480 1564 L 7498 1564 L 7524 1564 L 7536 1534 L 7550 1534 L 7566 1500 L 7582 1480 L 7594 1458 L 7594 1434 L 7616 1412 L 7616 1392" stroke="#000000" stroke-width="25.00001" fill="none" stroke-linecap="round" stroke-linejoin="round"/>
<path d="M 7694 1430 L 7694 1408 L 7706 1408 L 7706 1416 L 7706 1426 L 7706 1442 L 7718 1464 L 7718 1490 L 7718 1516 L 7736 1546 L 7736 1580 L 7750 1616 L 7750 1650 L 7766 1686 L 7766 1722 L 7782 1750 L 7782 1782 L 7782 1806 L 7800 1826 L 7800 1842 L 7800 1854 L 7812 1856" stroke="#000000" stroke-width="25.00001" fill="none" stroke-linecap="round" stroke-linejoin="round"/>
<path d="M 7838 1412 L 7852 1412 L 7852 1392 L 7862 1392 L 7862 1406 L 7862 1420 L 7878 1438 L 7878 1454 L 7890 1474 L 7890 1494 L 7910 1516 L 7910 1538 L 7928 1558 L 7928 1574 L 7954 1588 L 7968 1598 L 7984 1602 L 8000 1602 L 8014 1602 L 8026 1602 L 8044 1602 L 8044 1574 L 8064 1574 L 8064 1540 L 8086 1522 L 8086 1502 L 8102 1502 L 8102 1464 L 8114 1440 L 8114 1444 L 8114 1452 L 8114 1464 L 8114 1486 L 8114 1508 L 8130 1532 L 8130 1554 L 8146 1580 L 8146 1600 L 8170 1622 L 8186 1636 L 8206 1646 L 8224 1656" stroke="#000000" stroke-width="25.00001" fill="none" stroke-linecap="round" stroke-linejoin="round"/>
<path d="M 8314 1436 L 8308 1436 L 8298 1436 L 8290 1436 L 8280 1436 L 8274 1436 L 8264 1436 L 8256 1436 L 8248 1436 L 8240 1436 L 8236 1436 L 8232 1436 L 8232 1438 L 8248 1440 L 8262 1446 L 8278 1450 L 8298 1452 L 8318 1454 L 8336 1454 L 8360 1458 L 8386 1458 L 8414 1458 L 8434 1458 L 8456 1458 L 8480 1458 L 8498 1438 L 8516 1438 L 8516 1414 L 8512 1414 L 8502 1392 L 8490 1392 L 8472 1392 L 8450 1392 L 8422 1392 L 8396 1394 L 8366 1400 L 8338 1412 L 8314 1424 L 8290 1440 L 8270 1456 L 8258 1476 L 8240 1498 L 8236 1522 L 8236 1546 L 8236 1566 L 8236 1584 L 8256 1606 L 8274 1622 L 8296 1634 L 8318 1646 L 8350 1652 L 8378 1656 L 8410 1658 L 8440 1658 L 8472 1658" stroke="#000000" stroke-width="25.00001" fill="none" stroke-linecap="round" stroke-linejoin="round"/>
<path d="M 8736 1462 L 8736 1462 L 8736 1436 L 8732 1436 L 8730 1436 L 8726 1436 L 8722 1436 L 8718 1436 L 8712 1438 L 8704 1448 L 8694 1464 L 8686 1480 L 8676 1496 L 8668 1518 L 8654 1536 L 8642 1556 L 8632 1574 L 8616 1594 L 8602 1614 L 8590 1630 L 8578 1646 L 8568 1656 L 8562 1668 L 8556 1676 L 8552 1680 L 8552 1686 L 8550 1690 L 8550 1694 L 8550 1696 L 8550 1702 L 8566 1706 L 8566 1710 L 8578 1716 L 8578 1722 L 8592 1726 L 8592 1734 L 8608 1740 L 8608 1746 L 8626 1752 L 8626 1758 L 8650 1762 L 8650 1764" stroke="#000000" stroke-width="25.00001" fill="none" stroke-linecap="round" stroke-linejoin="round"/>
<path d="M 8688 1202 L 8684 1202 L 8682 1170 L 8678 1170 L 8678 1142 L 8678 1120 L 8678 1100 L 8690 1100 L 8706 1106 L 8706 1114 L 8706 1124 L 8722 1136 L 8722 1150" stroke="#000000" stroke-width="25.00001" fill="none" stroke-linecap="round" stroke-linejoin="round"/>
<path d="M 8762 1326 L 8776 1326 L 8770 1326 L 8760 1330 L 8752 1340 L 8738 1354 L 8728 1372 L 8712 1390 L 8700 1408 L 8682 1430 L 8668 1454 L 8650 1474 L 8636 1502 L 8624 1526 L 8610 1550 L 8602 1572 L 8596 1592 L 8592 1610 L 8590 1622 L 8590 1632 L 8590 1638 L 8590 1646 L 8604 1650 L 8604 1654 L 8632 1656 L 8644 1656 L 8662 1658 L 8680 1662 L 8694 1664 L 8712 1666 L 8732 1674 L 8752 1684 L 8762 1698 L 8762 1712 L 8778 1732 L 8778 1754 L 8776 1776 L 8762 1798 L 8752 1820 L 8728 1840 L 8700 1858 L 8672 1878 L 8642 1894 L 8610 1904 L 8576 1914 L 8548 1918 L 8516 1920 L 8490 1920 L 8470 1920" stroke="#000000" stroke-width="25.00001" fill="none" stroke-linecap="round" stroke-linejoin="round"/>
<path d="M 8846 1198 L 8846 1174 L 8846 1154 L 8860 1154 L 8860 1122 L 8856 1122 L 8856 1124 L 8856 1136 L 8856 1164 L 8872 1196 L 8872 1236 L 8892 1280 L 8908 1326 L 8924 1380 L 8940 1434 L 8956 1488 L 8966 1540 L 8984 1592 L 8998 1642 L 9014 1682 L 9026 1718 L 9026 1746" stroke="#000000" stroke-width="25.00001" fill="none" stroke-linecap="round" stroke-linejoin="round"/>
<path d="M 9122 1592 L 9136 1564 L 9136 1540 L 9136 1518 L 9136 1498 L 9136 1498 L 9126 1466 L 9114 1466 L 9098 1466 L 9076 1466 L 9048 1466 L 9014 1468 L 8980 1472 L 8940 1482 L 8904 1496 L 8864 1512 L 8828 1528" stroke="#000000" stroke-width="25.00001" fill="none" stroke-linecap="round" stroke-linejoin="round"/>
<path d="M 9240 1498 L 9268 1498 L 9290 1474 L 9308 1474 L 9324 1456 L 9324 1436 L 9312 1436 L 9300 1436 L 9288 1436 L 9274 1436 L 9266 1436 L 9256 1442 L 9246 1456 L 9240 1464 L 9236 1480 L 9232 1494 L 9232 1510 L 9232 1526 L 9232 1540 L 9232 1556 L 9254 1570 L 9266 1584 L 9282 1600 L 9300 1618 L 9316 1636 L 9330 1656 L 9330 1676 L 9350 1696 L 9350 1716 L 9350 1734 L 9350 1752 L 9342 1762 L 9328 1770 L 9306 1780 L 9278 1788 L 9254 1790 L 9228 1790 L 9204 1794 L 9178 1794" stroke="#000000" stroke-width="25.00001" fill="none" stroke-linecap="round" stroke-linejoin="round"/>
<path d="M 9464 1710 L 9482 1710 L 9498 1710 L 9516 1710 L 9516 1688 L 9508 1688 L 9504 1668 L 9494 1668 L 9488 1668" stroke="#000000" stroke-width="25.00001" fill="none" stroke-linecap="round" stroke-linejoin="round"/>
<path d="M 9628 1382 L 9646 1358 L 9646 1336 L 9664 1314 L 9664 1294 L 9682 1294 L 9682 1262 L 9696 1262 L 9692 1262 L 9692 1268 L 9692 1288 L 9692 1312 L 9692 1342 L 9710 1376 L 9710 1410 L 9710 1448 L 9720 1482 L 9720 1520 L 9720 1558 L 9738 1594 L 9738 1626 L 9738 1650 L 9748 1666 L 9748 1672 L 9748 1654 L 9748 1634 L 9746 1606 L 9740 1578 L 9732 1540 L 9728 1502 L 9724 1464 L 9718 1420 L 9714 1376 L 9710 1334 L 9710 1292 L 9710 1254 L 9710 1222 L 9710 1190 L 9728 1166 L 9756 1140 L 9774 1140 L 9798 1140 L 9826 1150 L 9862 1170 L 9892 1196 L 9928 1232 L 9960 1274 L 9984 1324 L 10010 1374 L 10032 1426 L 10032 1482 L 10032 1536 L 10032 1588 L 10032 1634 L 10032 1674 L 10014 1706 L 9986 1734 L 9960 1752 L 9928 1764 L 9894 1770" stroke="#000000" stroke-width="25.00001" fill="none" stroke-linecap="round" stroke-linejoin="round"/>
<path d="M 9912 1500 L 9942 1482 L 9964 1482 L 9990 1448 L 10010 1448 L 10028 1428 L 10040 1428 L 10054 1436 L 10054 1448 L 10054 1464 L 10054 1484 L 10054 1504 L 10054 1530 L 10054 1556 L 10070 1582 L 10070 1610 L 10070 1636 L 10070 1662 L 10070 1686 L 10088 1704 L 10088 1716 L 10112 1724 L 10124 1726 L 10142 1726 L 10160 1726 L 10174 1726 L 10192 1696 L 10210 1696 L 10226 1656 L 10226 1628 L 10244 1600 L 10244 1570 L 10244 1540 L 10244 1512 L 10244 1484 L 10232 1460 L 10216 1438 L 10202 1438 L 10180 1414 L 10156 1414 L 10136 1414 L 10112 1414 L 10088 1414 L 10070 1414" stroke="#000000" stroke-width="25.00001" fill="none" stroke-linecap="round" stroke-linejoin="round"/>
<path d="M 10054 1488 L 10066 1492 L 10086 1498 L 10100 1498 L 10122 1498 L 10140 1498 L 10158 1498 L 10176 1498 L 10196 1478 L 10212 1478 L 10228 1478 L 10240 1482 L 10240 1492 L 10240 1504 L 10240 1520 L 10256 1536 L 10256 1554 L 10256 1574 L 10270 1592 L 10270 1610 L 10288 1626 L 10288 1638 L 10306 1646 L 10328 1648" stroke="#000000" stroke-width="25.00001" fill="none" stroke-linecap="round" stroke-linejoin="round"/>
<path d="M 10496 1238 L 10496 1196 L 10496 1152 L 10496 1118 L 10510 1090 L 10510 1070 L 10510 1074 L 10524 1092 L 10524 1120 L 10524 1162 L 10524 1212 L 10542 1270 L 10542 1330 L 10558 1396 L 10558 1462 L 10574 1526 L 10574 1586 L 10588 1644 L 10588 1682 L 10604 1728 L 10604 1752" stroke="#000000" stroke-width="25.00001" fill="none" stroke-linecap="round" stroke-linejoin="round"/>
<path d="M 10670 1542 L 10670 1506 L 10670 1470 L 10688 1440 L 10688 1414 L 10688 1394 L 10684 1362 L 10680 1362 L 10664 1362 L 10646 1362 L 10620 1362 L 10588 1362 L 10550 1362 L 10512 1362 L 10472 1364 L 10428 1364 L 10388 1368 L 10344 1374" stroke="#000000" stroke-width="25.00001" fill="none" stroke-linecap="round" stroke-linejoin="round"/>
<path d="M 10512 1408 L 10540 1408 L 10564 1408 L 10586 1386 L 10604 1386 L 10624 1386 L 10624 1388 L 10646 1394 L 10646 1398 L 10646 1404 L 10660 1416 L 10660 1428 L 10660 1442 L 10660 1460 L 10660 1476 L 10660 1498 L 10672 1516 L 10672 1536 L 10688 1552 L 10688 1566 L 10708 1580 L 10720 1584 L 10736 1586 L 10752 1586 L 10766 1586 L 10782 1586 L 10798 1566 L 10820 1534 L 10820 1512 L 10820 1490 L 10820 1468 L 10820 1442 L 10820 1422 L 10812 1404 L 10804 1404 L 10788 1376" stroke="#000000" stroke-width="25.00001" fill="none" stroke-linecap="round" stroke-linejoin="round"/>
<path d="M 10762 1420 L 10786 1420 L 10802 1420 L 10802 1398 L 10814 1402 L 10814 1408 L 10814 1418 L 10814 1428 L 10832 1444 L 10832 1462 L 10832 1482 L 10846 1504 L 10846 1530 L 10864 1550 L 10864 1572 L 10890 1588 L 10902 1606 L 10918 1616 L 10932 1618 L 10948 1622 L 10960 1622" stroke="#000000" stroke-width="25.00001" fill="none" stroke-linecap="round" stroke-linejoin="round"/>
<path d="M 11056 1404 L 11056 1404 L 11052 1374 L 11052 1374 L 11052 1348 L 11048 1324 L 11042 1324 L 11038 1324 L 11034 1304 L 11028 1304 L 11022 1308 L 11014 1314 L 11004 1324 L 10998 1336 L 10984 1348 L 10974 1356 L 10966 1370 L 10956 1380 L 10952 1396 L 10942 1408 L 10938 1420 L 10938 1432 L 10938 1442 L 10938 1450 L 10938 1456 L 10954 1462 L 10954 1466 L 10980 1472 L 10998 1476 L 11014 1482 L 11032 1488 L 11052 1502 L 11070 1516 L 11084 1532 L 11096 1548 L 11096 1566 L 11096 1582 L 11096 1600 L 11096 1616 L 11094 1632 L 11078 1644 L 11062 1652 L 11038 1658 L 11016 1662 L 10992 1666" stroke="#000000" stroke-width="25.00001" fill="none" stroke-linecap="round" stroke-linejoin="round"/>
<path d="M 11114 1450 L 11114 1450 L 11136 1426 L 11152 1426 L 11152 1404 L 11164 1404 L 11164 1382 L 11182 1382 L 11182 1384 L 11196 1388 L 11220 1390 L 11232 1392 L 11246 1392 L 11260 1392 L 11276 1392 L 11288 1392 L 11300 1392 L 11318 1392 L 11318 1372 L 11318 1352 L 11316 1352 L 11308 1352 L 11288 1352 L 11268 1352 L 11244 1352 L 11224 1356 L 11204 1368 L 11182 1382 L 11164 1402 L 11146 1420 L 11128 1442 L 11124 1468 L 11114 1492 L 11114 1520 L 11114 1548 L 11114 1572 L 11114 1596 L 11142 1614 L 11160 1630 L 11178 1640 L 11204 1648 L 11228 1652 L 11256 1652 L 11284 1652 L 11316 1652 L 11348 1628 L 11376 1608 L 11406 1584 L 11436 1554 L 11468 1524" stroke="#000000" stroke-width="25.00001" fill="none" stroke-linecap="round" stroke-linejoin="round"/>
<path d="M 11606 1268 L 11620 1228 L 11620 1190 L 11620 1154 L 11620 1124 L 11620 1096 L 11616 1076 L 11606 1076 L 11594 1052 L 11582 1052 L 11570 1054 L 11556 1062 L 11550 1082 L 11544 1110 L 11540 1148 L 11540 1190 L 11540 1238 L 11540 1292 L 11540 1350 L 11540 1410 L 11556 1472 L 11556 1530 L 11556 1584 L 11574 1634 L 11574 1674" stroke="#000000" stroke-width="25.00001" fill="none" stroke-linecap="round" stroke-linejoin="round"/>
<path d="M 11718 1516 L 11718 1484 L 11718 1454 L 11718 1432 L 11714 1406 L 11702 1406 L 11680 1406 L 11656 1406 L 11628 1384 L 11598 1390 L 11562 1398 L 11528 1410 L 11494 1424" stroke="#000000" stroke-width="25.00001" fill="none" stroke-linecap="round" stroke-linejoin="round"/>
<path d="M 11634 1428 L 11662 1428 L 11684 1390 L 11702 1390 L 11720 1356 L 11734 1356 L 11734 1330 L 11744 1330 L 11744 1310 L 11742 1314 L 11734 1318 L 11726 1328 L 11718 1338 L 11710 1348 L 11702 1358 L 11696 1374 L 11696 1386 L 11696 1402 L 11696 1416 L 11696 1432 L 11696 1452 L 11720 1470 L 11736 1490 L 11752 1510 L 11772 1526 L 11794 1548 L 11818 1570 L 11836 1592 L 11852 1614 L 11852 1634 L 11868 1656 L 11868 1680 L 11860 1698 L 11852 1712 L 11836 1726 L 11820 1736 L 11800 1742 L 11780 1748 L 11754 1750" stroke="#000000" stroke-width="25.00001" fill="none" stroke-linecap="round" stroke-linejoin="round"/></svg>