<svg xmlns="http://www.w3.org/2000/svg" width="19188" height="20478" viewBox="0 0 19188 20478"><circle cx="8657" cy="8465" r="25.000005" fill="#333333"/>
<path d="M 17873 11523 L 17878 11525 L 17888 11528 L 17901 11530 L 17919 11531 L 17946 11531 L 17984 11530 L 18030 11530 L 18083 11531 L 18139 11528 L 18199 11516 L 18257 11505 L 18310 11492 L 18354 11473 L 18391 11454 L 18427 11432 L 18465 11412 L 18506 11394 L 18546 11377 L 18586 11363 L 18629 11346 L 18672 11330 L 18716 11311 L 18761 11293 L 18804 11277 L 18845 11258 L 18880 11240 L 18916 11220 L 18948 11199 L 18979 11179 L 19002 11161 L 19024 11144 L 19042 11129 L 19062 11115 L 19082 11098 L 19098 11080 L 19112 11062 L 19123 11042 L 19133 11017 L 19145 10987 L 19155 10952 L 19163 10919 L 19168 10880 L 19171 10837 L 19174 10790 L 19176 10742 L 19178 10693 L 19178 10645 L 19176 10599 L 19173 10551 L 19161 10504 L 19141 10453 L 19115 10403 L 19082 10356 L 19039 10308 L 18989 10255 L 18935 10200 L 18877 10144 L 18814 10093 L 18748 10033 L 18683 9974 L 18611 9917 L 18539 9864 L 18473 9816 L 18410 9770 L 18354 9725 L 18296 9686 L 18242 9648 L 18189 9611 L 18136 9573 L 18080 9534 L 18027 9492 L 17972 9453 L 17919 9418 L 17861 9382 L 17805 9342 L 17744 9297 L 17683 9251 L 17627 9206 L 17572 9167 L 17517 9130 L 17465 9097 L 17410 9062 L 17354 9023 L 17299 8981 L 17246 8942 L 17195 8905 L 17149 8872 L 17107 8844 L 17068 8818 L 17033 8793 L 17000 8766 L 16965 8745 L 16929 8725 L 16892 8707 L 16854 8690 L 16816 8675 L 16780 8661 L 16749 8644 L 16714 8626 L 16674 8608 L 16628 8591 L 16578 8573 L 16519 8551 L 16457 8528 L 16391 8498 L 16330 8467 L 16267 8436 L 16204 8406 L 16147 8378 L 16095 8353 L 16052 8330 L 16014 8310 L 15980 8292 L 15953 8279 L 15930 8264 L 15904 8247 L 15875 8229 L 15846 8207 L 15814 8184 L 15784 8161 L 15761 8140 L 15736 8121 L 15705 8105 L 15675 8092 L 15647 8077 L 15622 8060 L 15603 8049 L 15586 8035 L 15569 8026 L 15551 8016 L 15536 8004 L 15523 7989 L 15510 7969 L 15493 7949 L 15477 7930 L 15462 7910 L 15447 7890 L 15424 7870 L 15399 7850 L 15378 7840 L 15364 7840 L 15361 7849 L 15364 7865 L 15373 7887 L 15388 7913 L 15407 7938 L 15426 7961 L 15442 7983 L 15460 7999 L 15474 8016 L 15485 8034 L 15492 8052 L 15500 8065 L 15507 8080 L 15512 8097 L 15518 8112 L 15526 8128 L 15533 8143" stroke="#FFC114" stroke-width="50.00001" fill="none" stroke-linecap="round" stroke-linejoin="round"/>
<path d="M 15367 7815 L 15369 7817 L 15372 7820 L 15380 7825 L 15393 7835 L 15412 7841 L 15431 7850 L 15453 7856 L 15476 7865 L 15498 7878 L 15519 7898 L 15539 7921 L 15557 7941 L 15577 7956 L 15599 7965 L 15622 7970 L 15643 7974 L 15665 7974 L 15685 7972" stroke="#FFC114" stroke-width="50.00001" fill="none" stroke-linecap="round" stroke-linejoin="round"/>
<path d="M 16234 11070 L 16236 11068 L 16249 11062 L 16270 11057 L 16307 11050 L 16356 11042 L 16408 11035 L 16462 11027 L 16525 11020 L 16594 11012 L 16662 11006 L 16733 10999 L 16803 10992 L 16869 10989 L 16933 10986 L 17000 10984 L 17064 10982 L 17120 10982 L 17173 10984 L 17221 10984 L 17264 10982 L 17309 10982 L 17352 10984 L 17388 10984 L 17420 10982 L 17444 10982 L 17464 10984 L 17483 10984 L 17502 10982 L 17524 10982 L 17544 10984 L 17565 10984 L 17595 10982 L 17630 10982 L 17673 10987 L 17717 10994 L 17759 10999 L 17798 11002 L 17838 11009 L 17878 11014 L 17914 11017 L 17947 11022 L 17975 11025 L 18002 11027 L 18023 11029 L 18043 11029 L 18063 11027 L 18083 11027 L 18109 11029 L 18142 11029 L 18175 11027 L 18205 11027 L 18232 11029 L 18253 11029" stroke="#FFFC00" stroke-width="83.99999" fill="none" stroke-linecap="round" stroke-linejoin="round" opacity="0.50"/>
<path d="M 16446 10820 L 16444 10818 L 16434 10812 L 16406 10807 L 16360 10800 L 16305 10792 L 16236 10782 L 16158 10764 L 16072 10742 L 15980 10722 L 15887 10706 L 15791 10686 L 15692 10668 L 15588 10651 L 15475 10640 L 15365 10627 L 15252 10612 L 15146 10595 L 15044 10584 L 14944 10570 L 14844 10560 L 14741 10554 L 14644 10542 L 14534 10526 L 14419 10511 L 14295 10498 L 14154 10474 L 14002 10438 L 13840 10393 L 13665 10342 L 13478 10289 L 13294 10235 L 13112 10172 L 12944 10111 L 12786 10058 L 12639 10006 L 12507 9963 L 12391 9925 L 12285 9896 L 12178 9868 L 12075 9843 L 11978 9816 L 11885 9790 L 11799 9767 L 11720 9743 L 11644 9719 L 11564 9687 L 11497 9661 L 11437 9636 L 11379 9610 L 11330 9585 L 11285 9562 L 11247 9545 L 11214 9530 L 11182 9512 L 11153 9492 L 11125 9472 L 11098 9452 L 11068 9433 L 11035 9409 L 11001 9386 L 10964 9361 L 10929 9337 L 10896 9314 L 10868 9289 L 10845 9264 L 10817 9241 L 10787 9219 L 10759 9194 L 10738 9168 L 10718 9142 L 10703 9115 L 10690 9089 L 10681 9065 L 10675 9042 L 10671 9021 L 10665 8999 L 10660 8979 L 10653 8965 L 10645 8958 L 10638 8960 L 10633 8970 L 10630 8984 L 10628 9003 L 10628 9022 L 10628 9046 L 10628 9069 L 10628 9094 L 10628 9118 L 10628 9142 L 10628 9163 L 10628 9185 L 10628 9204 L 10628 9223 L 10628 9242 L 10628 9264 L 10632 9280 L 10638 9292 L 10650 9297 L 10663 9297" stroke="#FFC114" stroke-width="50.00001" fill="none" stroke-linecap="round" stroke-linejoin="round"/>
<path d="M 10630 8920 L 10632 8928 L 10638 8941 L 10650 8955 L 10673 8968 L 10711 8981 L 10761 8991 L 10819 8998 L 10890 9003 L 10962 9006 L 11033 9008 L 11100 9008 L 11161 9008 L 11214 9008 L 11255 9008 L 11282 9008" stroke="#FFC114" stroke-width="50.00001" fill="none" stroke-linecap="round" stroke-linejoin="round"/>
<path d="M 7258 11008 L 7263 11010 L 7273 11010 L 7291 11008 L 7314 11008 L 7349 11010 L 7390 11010 L 7440 11008 L 7491 11008 L 7542 11010 L 7585 11010 L 7623 11008 L 7658 11008 L 7691 11010 L 7721 11010 L 7747 11008 L 7772 11008 L 7795 11010 L 7817 11010 L 7837 11008 L 7857 11008 L 7876 11010 L 7896 11010 L 7916 11008 L 7939 11008 L 7962 11010 L 7984 11010 L 8005 11008 L 8025 11008 L 8043 11010 L 8063 11010 L 8085 11008 L 8105 11008 L 8123 11010 L 8143 11010 L 8164 11008 L 8187 11008 L 8215 11010 L 8244 11010 L 8270 11008 L 8292 11008" stroke="#D9AEFF" stroke-width="83.99999" fill="none" stroke-linecap="round" stroke-linejoin="round" opacity="0.50"/>
<path d="M 8228 11008 L 8231 11010 L 8241 11010 L 8259 11008 L 8284 11008 L 8311 11010 L 8339 11010 L 8369 11008 L 8400 11008 L 8433 11010 L 8466 11010 L 8499 11008 L 8532 11008 L 8565 11010 L 8595 11010 L 8622 11008 L 8646 11008 L 8670 11010 L 8691 11010 L 8714 11008 L 8737 11008 L 8759 11010 L 8780 11010 L 8803 11008 L 8825 11008 L 8850 11010 L 8876 11010 L 8899 11008 L 8923 11008 L 8947 11013 L 8972 11020 L 8995 11023 L 9017 11026 L 9038 11028 L 9058 11029 L 9076 11029 L 9096 11031 L 9118 11034 L 9138 11036 L 9156 11039 L 9179 11041 L 9207 11046 L 9233 11053 L 9260 11059 L 9286 11063 L 9309 11066 L 9326 11068" stroke="#D9AEFF" stroke-width="83.99999" fill="none" stroke-linecap="round" stroke-linejoin="round" opacity="0.50"/>
<path d="M 10292 11030 L 10297 11028 L 10307 11028 L 10320 11030 L 10338 11030 L 10368 11028 L 10406 11028 L 10452 11030 L 10507 11030 L 10567 11028 L 10621 11028 L 10671 11030 L 10720 11030 L 10772 11028 L 10826 11028 L 10879 11030 L 10932 11030 L 10985 11028 L 11038 11028 L 11084 11030 L 11130 11030 L 11173 11028 L 11216 11028 L 11264 11030 L 11312 11030 L 11355 11028 L 11397 11028 L 11435 11030 L 11478 11030 L 11517 11028 L 11552 11028 L 11585 11030 L 11613 11030 L 11640 11028 L 11666 11028 L 11693 11030 L 11716 11030 L 11742 11028 L 11764 11028 L 11787 11030 L 11808 11030 L 11832 11028 L 11853 11028 L 11875 11030 L 11898 11030 L 11922 11028 L 11947 11028 L 11970 11030 L 11992 11030 L 12017 11028 L 12043 11028 L 12066 11030 L 12090 11030 L 12111 11028 L 12136 11028 L 12162 11030 L 12185 11030 L 12209 11028 L 12230 11028 L 12248 11030" stroke="#A9D8FF" stroke-width="83.99999" fill="none" stroke-linecap="round" stroke-linejoin="round" opacity="0.50"/>
<path d="M 9112 10692 L 9107 10694 L 9100 10690 L 9097 10679 L 9094 10659 L 9092 10634 L 9091 10608 L 9091 10580 L 9092 10550 L 9092 10518 L 9091 10487 L 9091 10451 L 9092 10413 L 9092 10371 L 9091 10335 L 9091 10302 L 9092 10274 L 9092 10250 L 9091 10229 L 9091 10209 L 9092 10191 L 9092 10164 L 9091 10133 L 9091 10100 L 9092 10070 L 9089 10040 L 9084 10009 L 9077 9974 L 9069 9938 L 9059 9908 L 9048 9877 L 9034 9845 L 9018 9816 L 8998 9787 L 8973 9759 L 8947 9733 L 8925 9708 L 8902 9685 L 8880 9663 L 8859 9644 L 8839 9620 L 8818 9597 L 8788 9576 L 8756 9558 L 8720 9541 L 8687 9528 L 8659 9516 L 8636 9506 L 8618 9498 L 8598 9491 L 8578 9482 L 8555 9468 L 8532 9453 L 8507 9440 L 8482 9425 L 8459 9412 L 8437 9402 L 8416 9396 L 8399 9391 L 8394 9391 L 8399 9396 L 8413 9405 L 8426 9420 L 8442 9435 L 8456 9452 L 8467 9470 L 8474 9488 L 8482 9508 L 8485 9529 L 8487 9553 L 8485 9574" stroke="#AB008B" stroke-width="50.00001" fill="none" stroke-linecap="round" stroke-linejoin="round"/>
<path d="M 8354 9342 L 8359 9340 L 8369 9337 L 8382 9335 L 8400 9329 L 8423 9324 L 8448 9317 L 8478 9309 L 8509 9302 L 8538 9297 L 8564 9294 L 8587 9292 L 8610 9292 L 8629 9292" stroke="#AB008B" stroke-width="50.00001" fill="none" stroke-linecap="round" stroke-linejoin="round"/>
<path d="M 10230 10798 L 10222 10796 L 10205 10790 L 10177 10778 L 10139 10758 L 10080 10730 L 10013 10700 L 9944 10666 L 9871 10629 L 9793 10595 L 9714 10563 L 9636 10533 L 9557 10504 L 9484 10476 L 9415 10451 L 9339 10424 L 9258 10398 L 9180 10368 L 9101 10338 L 9015 10313 L 8915 10292 L 8806 10275 L 8690 10259 L 8580 10247 L 8475 10236 L 8386 10223 L 8302 10208 L 8227 10191 L 8165 10170 L 8108 10146 L 8054 10122 L 8003 10097 L 7956 10074 L 7913 10052 L 7870 10034 L 7826 10017 L 7778 10004 L 7735 9993 L 7692 9979 L 7650 9968 L 7609 9958 L 7569 9951 L 7528 9943 L 7488 9936 L 7454 9928 L 7424 9915 L 7397 9898 L 7373 9879 L 7349 9857 L 7321 9831 L 7288 9799 L 7255 9769 L 7222 9741 L 7192 9713 L 7166 9690 L 7144 9669 L 7128 9647 L 7113 9617 L 7096 9589 L 7081 9564 L 7070 9541 L 7060 9521 L 7053 9503 L 7045 9487 L 7035 9472 L 7024 9459 L 7007 9445 L 6994 9429 L 6976 9416 L 6956 9401 L 6931 9378 L 6905 9353 L 6885 9326 L 6862 9296 L 6835 9273 L 6810 9252 L 6787 9234 L 6762 9214 L 6736 9194 L 6711 9177 L 6688 9164 L 6666 9149 L 6647 9129 L 6627 9108 L 6607 9091 L 6587 9075 L 6570 9057 L 6554 9039 L 6539 9022 L 6524 9007 L 6508 8992 L 6489 8976 L 6471 8961 L 6451 8946 L 6430 8933 L 6410 8914 L 6395 8895 L 6382 8876 L 6369 8873 L 6359 8880 L 6352 8898 L 6351 8921 L 6354 8949 L 6359 8976 L 6362 9002 L 6367 9025 L 6375 9045 L 6385 9067 L 6399 9090 L 6413 9111 L 6427 9134 L 6438 9153" stroke="#33CCFF" stroke-width="50.00001" fill="none" stroke-linecap="round" stroke-linejoin="round"/>
<path d="M 6374 8858 L 6369 8860 L 6366 8866 L 6366 8878 L 6371 8888 L 6381 8899 L 6395 8909 L 6415 8921 L 6438 8932 L 6462 8939 L 6483 8944 L 6505 8947 L 6528 8949 L 6549 8952 L 6571 8956 L 6591 8961 L 6612 8965 L 6635 8969 L 6657 8970 L 6683 8972 L 6705 8972" stroke="#33CCFF" stroke-width="50.00001" fill="none" stroke-linecap="round" stroke-linejoin="round"/>
<path d="M 9346 10 L 9353 12 L 9369 15 L 9392 22 L 9434 27 L 9492 30 L 9571 35 L 9657 38 L 9743 40 L 9826 41 L 9905 41 L 9983 40 L 10052 40 L 10110 41 L 10153 41 L 10194 40 L 10226 40 L 10256 41 L 10282 41 L 10303 40 L 10327 40 L 10351 41 L 10378 41 L 10408 40 L 10444 40 L 10482 41 L 10520 41 L 10553 40 L 10585 40 L 10611 41 L 10636 41 L 10659 40 L 10679 40 L 10700 41 L 10730 41 L 10765 40 L 10801 40 L 10836 41 L 10871 41 L 10907 40 L 10945 40 L 10983 41 L 11019 41 L 11061 40 L 11105 40 L 11152 41 L 11191 41 L 11228 40 L 11268 40 L 11306 41 L 11339 41 L 11370 40 L 11403 40 L 11436 41 L 11473 41 L 11506 40 L 11540 40 L 11573 41 L 11605 41 L 11631 40 L 11656 40 L 11679 41 L 11704 41 L 11731 40 L 11762 40 L 11795 41 L 11826 41 L 11856 40 L 11883 40 L 11904 41 L 11924 41 L 11946 40 L 11965 40 L 11989 41 L 12015 41 L 12040 40 L 12063 40 L 12088 41 L 12114 41 L 12139 40 L 12162 40 L 12187 41 L 12213 41 L 12238 40 L 12265 40 L 12293 41 L 12319 41 L 12344 40 L 12367 40 L 12389 41 L 12409 41 L 12428 40 L 12448 40 L 12468 41 L 12491 41 L 12514 40 L 12536 40 L 12557 41 L 12581 41 L 12602 40 L 12620 40 L 12640 41 L 12660 41 L 12680 40 L 12700 40 L 12719 41 L 12743 41 L 12766 40 L 12787 40 L 12809 41 L 12832 41 L 12850 40" stroke="#A2D762" stroke-width="83.99999" fill="none" stroke-linecap="round" stroke-linejoin="round" opacity="0.50"/>
<path d="M 17014 32 L 17019 32 L 17029 32 L 17045 32 L 17067 32 L 17092 32 L 17118 32 L 17148 32 L 17178 35 L 17209 42 L 17237 47 L 17260 50 L 17284 55 L 17308 55 L 17340 53 L 17376 53 L 17417 55 L 17465 55 L 17515 53 L 17563 53 L 17604 55 L 17641 55 L 17672 53 L 17697 53 L 17717 55 L 17735 55 L 17755 53 L 17780 53 L 17806 55 L 17829 55 L 17856 53 L 17884 53 L 17910 55 L 17935 55 L 17958 53 L 17980 53 L 18001 55 L 18024 55 L 18046 53 L 18067 53 L 18087 55 L 18109 55 L 18132 53 L 18153 53 L 18173 55" stroke="#A2D762" stroke-width="83.99999" fill="none" stroke-linecap="round" stroke-linejoin="round" opacity="0.50"/>
<path d="M 5924 14390 L 5922 14388" stroke="#E71225" stroke-width="200" fill="none" stroke-linecap="round" stroke-linejoin="round"/>
<circle cx="6084" cy="15610" r="100" fill="#E71225"/>
<path d="M 5512 18744 L 5514 18744" stroke="#E71225" stroke-width="200" fill="none" stroke-linecap="round" stroke-linejoin="round"/>
<path d="M 5584 19872 L 5586 19874" stroke="#E71225" stroke-width="200" fill="none" stroke-linecap="round" stroke-linejoin="round"/>
<path d="M 298 14498 L 296 14498 L 293 14498 L 290 14491 L 288 14481 L 286 14465 L 283 14443 L 281 14422 L 280 14399 L 280 14374 L 281 14349 L 281 14326 L 280 14301 L 280 14280 L 281 14263 L 281 14247 L 277 14232 L 267 14223 L 257 14220 L 245 14228 L 234 14243 L 224 14263 L 212 14285 L 197 14308 L 184 14329 L 174 14349" stroke="#FFC114" stroke-width="100" fill="none" stroke-linecap="round" stroke-linejoin="round"/>
<path d="M 262 13960 L 257 13958 L 250 13962 L 250 13970 L 254 13981 L 260 13995 L 272 14008 L 285 14028 L 303 14054 L 320 14081 L 333 14107 L 341 14134 L 345 14157 L 343 14180 L 343 14201 L 343 14220 L 343 14239 L 343 14259 L 343 14279 L 343 14302 L 343 14329 L 343 14357 L 343 14383 L 343 14408 L 343 14428 L 343 14449 L 343 14469 L 343 14488 L 343 14507 L 343 14529 L 343 14549 L 343 14567 L 343 14587 L 343 14608 L 340 14628 L 330 14646 L 322 14659" stroke="#FFC114" stroke-width="100" fill="none" stroke-linecap="round" stroke-linejoin="round"/>
<path d="M 190 18082 L 193 18084 L 197 18080 L 198 18074 L 200 18062 L 203 18049 L 205 18031 L 207 18011 L 207 17991 L 205 17971 L 205 17951 L 210 17935 L 220 17922 L 233 17913 L 251 17910 L 271 17915 L 293 17922 L 316 17933 L 337 17950 L 352 17968 L 369 17984 L 380 17999 L 385 18014 L 385 18031 L 383 18049 L 383 18064 L 385 18080 L 385 18097 L 383 18118 L 377 18140 L 369 18163 L 355 18185 L 339 18203 L 319 18219 L 301 18236 L 281 18254 L 263 18272 L 243 18289 L 223 18304 L 203 18315 L 187 18325 L 177 18332 L 175 18333 L 183 18337 L 200 18335 L 223 18335 L 248 18335 L 273 18335 L 296 18335 L 317 18335 L 336 18335 L 352 18335 L 369 18335 L 383 18335 L 398 18335 L 412 18335" stroke="#FFC114" stroke-width="100" fill="none" stroke-linecap="round" stroke-linejoin="round"/>
<path d="M 476 17832 L 478 17835 L 478 17845 L 476 17857 L 476 17868 L 481 17885 L 491 17906 L 504 17931 L 519 17958 L 532 17984 L 540 18007 L 550 18034 L 560 18055 L 569 18075 L 574 18093 L 577 18110 L 577 18128 L 575 18146 L 575 18166 L 577 18188 L 577 18207 L 575 18229 L 575 18252 L 577 18275 L 577 18297 L 575 18315 L 575 18331 L 577 18348 L 577 18366 L 575 18388 L 572 18411 L 567 18434 L 557 18455 L 544 18477 L 529 18500 L 516 18518" stroke="#FFC114" stroke-width="100" fill="none" stroke-linecap="round" stroke-linejoin="round"/>
<path d="M 10 20018 L 12 20016 L 22 20016 L 41 20018 L 66 20018 L 93 20016 L 114 20016 L 134 20018 L 156 20018 L 179 20016 L 200 20016 L 227 20021 L 251 20031 L 278 20044 L 299 20063 L 313 20079 L 314 20094 L 308 20104 L 289 20114 L 266 20122 L 243 20130 L 222 20140 L 200 20149 L 184 20157 L 172 20167 L 164 20178 L 160 20197 L 164 20213 L 172 20228 L 184 20240 L 200 20246 L 220 20250 L 242 20250 L 261 20251 L 276 20258 L 286 20269 L 293 20283 L 298 20304 L 298 20324 L 293 20342 L 283 20359 L 268 20370 L 250 20378 L 230 20385 L 210 20392 L 190 20398 L 174 20402 L 157 20405 L 142 20407" stroke="#FFC114" stroke-width="100" fill="none" stroke-linecap="round" stroke-linejoin="round"/>
<path d="M 388 19838 L 390 19840 L 393 19846 L 403 19855 L 414 19868 L 426 19883 L 439 19899 L 451 19916 L 461 19934 L 469 19952 L 476 19972 L 482 19993 L 489 20013 L 492 20035 L 495 20058 L 497 20081 L 499 20106 L 499 20131 L 497 20154 L 497 20175 L 499 20197 L 499 20217 L 497 20235 L 497 20251 L 499 20270 L 499 20286 L 497 20304 L 497 20323 L 499 20339 L 499 20354 L 494 20366 L 487 20379 L 482 20392 L 476 20409 L 466 20425 L 452 20440 L 438 20455 L 424 20468" stroke="#FFC114" stroke-width="100" fill="none" stroke-linecap="round" stroke-linejoin="round"/></svg>