<svg xmlns="http://www.w3.org/2000/svg" width="27742" height="5186" viewBox="0 0 27742 5186"><path d="M 7996 524 L 7996 524 L 7996 524 L 7996 524 L 7996 524 L 7996 524 L 7996 524 L 7996 526 L 7996 526 L 7996 526 L 7996 526 L 7996 526 L 7998 526 L 7998 526 L 7998 526 L 7998 526 L 7998 526 L 7998 526 L 7998 526 L 7998 528 L 7998 528 L 7998 528 L 7998 528 L 7998 528 L 7996 528 L 7996 528 L 7996 528 L 7996 528 L 7996 528 L 7996 528 L 7996 528 L 7996 530 L 7996 530 L 7996 530 L 7996 530 L 7996 530 L 7996 530 L 7996 530 L 7996 530 L 7996 530 L 7996 530 L 7996 530 L 7996 530 L 7994 530 L 7994 530 L 7994 530 L 7994 530 L 7994 530 L 7994 530 L 7994 530 L 7994 530 L 7994 530 L 7994 530 L 7994 530 L 7992 530 L 7992 530 L 7992 530 L 7992 530 L 7992 530 L 7992 530 L 7992 530 L 7990 530 L 7990 530 L 7990 530 L 7988 530 L 7988 530 L 7988 530 L 7986 530 L 7986 530 L 7986 530 L 7984 530 L 7984 532 L 7984 532 L 7982 532 L 7982 532 L 7982 532 L 7980 532 L 7980 532 L 7980 534 L 7978 534 L 7978 534 L 7978 534 L 7978 536 L 7976 536 L 7976 536 L 7976 536 L 7976 538 L 7974 538 L 7974 538 L 7974 540 L 7974 540 L 7974 542 L 7972 572 L 7972 594 L 7998 1096 L 8016 1350 L 8018 1422 L 8018 1436 L 8018 1448 L 8018 1434" stroke="#FF0000" stroke-width="35" fill="none" stroke-linecap="round" stroke-linejoin="round"/>
<path d="M 7562 1808 L 7566 1786 L 7568 1766 L 7568 1788 L 7568 1790 L 7568 1792 L 7568 1796 L 7568 1798 L 7568 1800 L 7566 1804 L 7566 1806 L 7564 1808 L 7564 1812 L 7562 1814 L 7562 1816 L 7560 1818 L 7560 1820 L 7558 1824 L 7556 1826 L 7552 1830 L 7550 1832 L 7548 1834 L 7546 1836 L 7544 1840 L 7544 1842 L 7542 1844 L 7540 1846 L 7540 1850 L 7538 1852 L 7538 1856 L 7536 1858 L 7536 1860 L 7534 1864 L 7534 1866 L 7534 1870 L 7534 1876 L 7534 2268 L 7534 2268 L 7534 2270 L 7534 2272 L 7534 2272 L 7534 2274 L 7534 2276 L 7534 2276 L 7534 2278 L 7534 2280 L 7536 2280 L 7536 2282 L 7536 2284 L 7536 2284 L 7538 2286 L 7538 2286 L 7538 2288 L 7540 2290 L 7540 2290 L 7542 2292 L 7542 2292 L 7544 2294 L 7544 2294 L 7546 2294 L 7546 2296 L 7548 2296 L 7548 2298 L 7550 2298 L 7550 2298 L 7552 2300 L 7556 2300 L 7600 2304 L 7612 2304 L 7626 2304" stroke="#FF0000" stroke-width="35" fill="none" stroke-linecap="round" stroke-linejoin="round"/>
<path d="M 7594 2078 L 7594 2054 L 7562 2030 L 7540 2010 L 7494 2010 L 7472 1990 L 7442 1990 L 7416 1990 L 7388 1974 L 7360 1974 L 7316 1974" stroke="#FF0000" stroke-width="35" fill="none" stroke-linecap="round" stroke-linejoin="round"/>
<path d="M 7706 2064 L 7708 2060 L 7708 2056 L 7710 2052 L 7712 2050 L 7714 2046 L 7716 2042 L 7718 2038 L 7724 2030 L 7724 2028 L 7724 2028 L 7724 2028 L 7726 2028 L 7726 2028 L 7726 2028 L 7726 2028 L 7726 2028 L 7726 2028 L 7726 2028 L 7726 2028 L 7726 2028 L 7728 2026 L 7728 2026 L 7728 2026 L 7728 2026 L 7728 2026 L 7728 2026 L 7728 2026 L 7730 2026 L 7730 2026 L 7730 2026 L 7730 2026 L 7730 2026 L 7730 2026 L 7730 2026 L 7732 2026 L 7732 2028 L 7732 2028 L 7732 2028 L 7732 2028 L 7732 2028 L 7732 2028 L 7732 2028 L 7734 2028 L 7734 2028 L 7734 2028 L 7734 2028 L 7734 2028 L 7742 2052 L 7752 2132 L 7754 2158 L 7756 2184 L 7770 2248 L 7776 2266" stroke="#FF0000" stroke-width="35" fill="none" stroke-linecap="round" stroke-linejoin="round"/>
<path d="M 7820 2102 L 7820 2074 L 7820 2046 L 7820 2018 L 7820 1992 L 7820 1968 L 7790 1944 L 7790 1922 L 7790 1900 L 7790 1884 L 7764 1884 L 7764 1860" stroke="#FF0000" stroke-width="35" fill="none" stroke-linecap="round" stroke-linejoin="round"/>
<path d="M 7964 2126 L 7968 2134 L 7970 2144 L 7972 2158 L 7972 2212 L 7972 2336 L 7972 2336 L 7972 2338 L 7974 2338 L 7974 2338 L 7974 2338 L 7974 2340 L 7974 2340 L 7974 2340 L 7976 2340 L 7976 2340 L 7976 2342 L 7976 2342 L 7976 2342 L 7978 2342 L 7978 2342 L 7978 2342 L 7978 2342 L 7980 2344 L 7980 2344 L 7980 2344 L 7982 2344 L 7982 2344 L 7982 2344 L 7982 2344 L 7984 2344 L 7984 2344 L 7984 2344 L 7986 2344 L 7986 2344 L 7986 2344 L 7986 2344 L 7988 2344 L 7988 2344 L 7988 2344 L 7988 2344 L 7990 2342 L 7990 2342 L 7990 2342 L 7990 2342 L 7992 2342 L 7992 2342 L 7992 2342 L 7992 2340 L 7994 2340 L 7994 2340 L 7994 2340 L 7994 2340 L 7994 2338 L 7994 2338 L 7996 2336 L 8010 2308 L 8024 2278 L 8054 2194 L 8074 2136 L 8078 2124 L 8082 2112 L 8088 2100 L 8094 2088 L 8100 2078 L 8108 2066 L 8116 2056 L 8140 2026 L 8140 2026 L 8140 2024 L 8140 2024 L 8142 2024 L 8142 2024 L 8144 2022 L 8144 2022 L 8144 2022 L 8146 2022 L 8146 2022 L 8148 2022 L 8148 2022 L 8148 2022 L 8150 2020 L 8150 2020 L 8152 2020 L 8152 2020 L 8152 2020 L 8154 2020 L 8154 2022 L 8156 2022 L 8156 2022 L 8156 2022 L 8158 2022 L 8158 2022 L 8160 2022 L 8160 2022 L 8160 2024 L 8162 2024 L 8162 2024 L 8162 2024 L 8164 2024 L 8164 2026 L 8164 2026 L 8166 2026 L 8166 2028 L 8166 2028 L 8168 2028 L 8168 2030 L 8168 2030 L 8168 2030 L 8168 2032 L 8170 2032 L 8170 2032 L 8170 2034 L 8170 2034 L 8170 2036 L 8186 2074 L 8208 2246 L 8208 2244 L 8208 2244 L 8208 2244 L 8208 2244 L 8208 2244 L 8208 2244 L 8210 2242 L 8210 2242 L 8210 2242 L 8210 2242 L 8210 2242 L 8210 2242 L 8210 2242 L 8210 2240 L 8210 2240 L 8210 2240 L 8210 2240 L 8212 2240 L 8212 2240 L 8212 2240 L 8212 2240 L 8212 2240 L 8212 2240 L 8212 2240 L 8214 2238 L 8214 2238 L 8214 2238 L 8214 2238 L 8214 2238 L 8214 2238 L 8216 2238 L 8216 2238 L 8216 2238 L 8216 2238 L 8216 2238 L 8216 2238 L 8218 2238 L 8218 2238 L 8218 2238 L 8218 2238 L 8218 2238 L 8218 2240 L 8218 2240 L 8220 2240 L 8220 2240 L 8220 2240 L 8220 2240 L 8220 2240 L 8220 2240 L 8220 2240 L 8222 2240 L 8222 2240 L 8222 2242 L 8222 2242 L 8222 2242 L 8222 2242 L 8222 2242 L 8222 2242 L 8222 2242 L 8222 2244 L 8222 2244 L 8222 2244 L 8224 2244 L 8224 2244 L 8224 2244 L 8224 2246 L 8234 2222 L 8238 2208 L 8242 2194 L 8246 2180 L 8250 2166 L 8256 2152 L 8262 2138 L 8270 2126 L 8278 2112 L 8296 2086 L 8296 2086 L 8296 2086 L 8296 2086 L 8296 2084 L 8296 2084 L 8296 2084 L 8298 2084 L 8298 2084 L 8298 2084 L 8298 2084 L 8298 2082 L 8300 2082 L 8300 2082 L 8300 2082 L 8300 2082 L 8300 2082 L 8302 2082 L 8302 2082 L 8302 2082 L 8302 2082 L 8304 2082 L 8304 2082 L 8304 2082 L 8304 2082 L 8306 2082 L 8306 2082 L 8306 2082 L 8306 2082 L 8308 2082 L 8308 2082 L 8308 2082 L 8308 2082 L 8308 2082 L 8310 2082 L 8322 2098 L 8336 2134 L 8338 2156 L 8342 2178 L 8344 2228 L 8344 2250 L 8344 2270 L 8350 2316 L 8354 2338" stroke="#FF0000" stroke-width="35" fill="none" stroke-linecap="round" stroke-linejoin="round"/>
<path d="M 8470 2146 L 8474 2092 L 8476 2070 L 8476 2100 L 8476 2102 L 8476 2106 L 8476 2108 L 8478 2110 L 8478 2114 L 8478 2116 L 8480 2120 L 8480 2122 L 8482 2124 L 8482 2128 L 8484 2130 L 8484 2132 L 8486 2134 L 8488 2138 L 8490 2140 L 8490 2142 L 8492 2144 L 8494 2146 L 8496 2148 L 8498 2150 L 8502 2152 L 8504 2154 L 8506 2156 L 8508 2156 L 8510 2158 L 8514 2160 L 8516 2160 L 8524 2164 L 8534 2166 L 8544 2170 L 8556 2172 L 8566 2174 L 8578 2174 L 8588 2176 L 8610 2176 L 8614 2176 L 8616 2176 L 8618 2176 L 8620 2174 L 8624 2174 L 8626 2174 L 8628 2172 L 8630 2172 L 8632 2170 L 8636 2170 L 8638 2168 L 8640 2166 L 8642 2166 L 8644 2164 L 8646 2162 L 8648 2160 L 8650 2160 L 8652 2158 L 8654 2156 L 8656 2154 L 8656 2152 L 8658 2150 L 8660 2148 L 8660 2144 L 8662 2142 L 8664 2136 L 8668 2128 L 8670 2120 L 8672 2112 L 8674 2106 L 8676 2098 L 8676 2090 L 8678 2082 L 8678 2064 L 8674 2062 L 8654 2062 L 8644 2062 L 8632 2062 L 8622 2062 L 8612 2062 L 8588 2066 L 8584 2068 L 8580 2068 L 8576 2070 L 8572 2072 L 8570 2074 L 8566 2076 L 8562 2078 L 8560 2080 L 8556 2082 L 8554 2084 L 8550 2086 L 8548 2090 L 8546 2092 L 8542 2094 L 8540 2098 L 8536 2106 L 8532 2108 L 8530 2112 L 8528 2116 L 8524 2120 L 8522 2124 L 8522 2130 L 8520 2134 L 8518 2138 L 8516 2142 L 8516 2146 L 8514 2152 L 8514 2156 L 8514 2160 L 8512 2166 L 8512 2180 L 8512 2188 L 8512 2198 L 8512 2206 L 8512 2214 L 8514 2224 L 8514 2232 L 8516 2240 L 8522 2262 L 8522 2266 L 8524 2268 L 8526 2272 L 8528 2274 L 8530 2278 L 8532 2280 L 8534 2282 L 8536 2286 L 8540 2288 L 8542 2290 L 8544 2292 L 8548 2294 L 8550 2296 L 8554 2298 L 8556 2300 L 8560 2302 L 8562 2302 L 8566 2304 L 8570 2304 L 8572 2306 L 8580 2308 L 8630 2316 L 8660 2318" stroke="#FF0000" stroke-width="35" fill="none" stroke-linecap="round" stroke-linejoin="round"/>
<path d="M 8822 2016 L 8822 2016 L 8822 2004 L 8824 2004 L 8826 2004 L 8828 2004 L 8830 2004 L 8832 2004 L 8834 2004 L 8836 2004 L 8838 2004 L 8840 2004 L 8842 2004 L 8844 2004 L 8846 2002 L 8850 2002 L 8864 1992 L 8878 1980 L 8890 1970 L 8902 1958 L 8914 1946 L 8926 1934 L 8936 1920 L 8948 1906 L 8956 1892 L 8966 1878 L 8974 1864 L 8982 1848 L 8988 1832 L 8996 1816 L 9000 1800 L 9006 1784 L 9010 1768 L 9014 1752 L 9016 1734 L 9020 1690 L 9020 1688 L 9020 1688 L 9020 1686 L 9020 1686 L 9020 1684 L 9020 1684 L 9020 1684 L 9020 1682 L 9020 1682 L 9020 1680 L 9018 1680 L 9018 1678 L 9018 1678 L 9018 1678 L 9016 1676 L 9016 1676 L 9016 1676 L 9016 1674 L 9014 1674 L 9014 1674 L 9014 1672 L 9012 1672 L 9012 1672 L 9012 1672 L 9010 1670 L 9010 1670 L 9010 1670 L 9008 1670 L 9008 1670 L 9006 1670 L 9006 1668 L 9004 1668 L 9004 1668 L 9004 1668 L 9002 1668 L 9002 1668 L 9000 1668 L 9000 1668 L 8998 1668 L 8998 1668 L 8998 1668 L 8996 1668 L 8994 1670 L 8990 1670 L 8986 1670 L 8984 1672 L 8980 1672 L 8976 1674 L 8974 1674 L 8970 1676 L 8966 1678 L 8964 1680 L 8956 1684 L 8942 1708 L 8926 1728 L 8910 1750 L 8896 1772 L 8866 1830 L 8858 1852 L 8852 1872 L 8840 1928 L 8836 1950 L 8832 1982 L 8828 2016 L 8828 2050 L 8830 2134 L 8832 2208 L 8832 2214 L 8832 2234 L 8832 2256 L 8834 2276 L 8836 2296 L 8844 2346 L 8846 2350 L 8846 2354 L 8848 2358 L 8848 2362 L 8850 2366 L 8852 2370 L 8854 2372 L 8856 2376 L 8858 2380 L 8860 2384 L 8862 2386 L 8866 2390 L 8868 2392 L 8870 2396 L 8874 2398 L 8876 2402 L 8880 2404 L 8884 2406 L 8886 2408 L 8890 2410 L 8894 2412 L 8898 2414 L 8902 2416 L 8904 2418 L 8908 2418 L 8912 2420 L 8916 2420 L 8920 2422 L 8924 2422 L 8934 2422 L 8938 2422 L 8940 2422 L 8944 2422 L 8948 2422 L 8952 2422 L 8956 2422 L 8960 2422 L 8962 2420 L 8966 2420 L 8970 2418 L 8974 2416 L 8976 2416 L 8980 2414 L 8984 2412 L 8986 2410 L 8990 2408 L 8998 2402 L 9004 2394 L 9010 2388 L 9016 2380 L 9022 2372 L 9028 2362 L 9038 2344 L 9038 2344 L 9048 2322 L 9058 2302 L 9066 2280 L 9074 2258 L 9080 2234 L 9086 2212 L 9096 2150 L 9092 2222 L 9094 2300 L 9096 2380 L 9096 2386 L 9096 2390 L 9096 2394 L 9096 2398 L 9098 2402 L 9098 2406 L 9100 2410 L 9100 2414 L 9102 2418 L 9104 2426 L 9114 2440" stroke="#FF0000" stroke-width="35" fill="none" stroke-linecap="round" stroke-linejoin="round"/>
<path d="M 9118 2018 L 9088 1988 L 9088 1960 L 9064 1936 L 9064 1916 L 9064 1896 L 9036 1878 L 9036 1848" stroke="#FF0000" stroke-width="35" fill="none" stroke-linecap="round" stroke-linejoin="round"/>
<path d="M 9360 2370 L 9360 2370 L 9360 2366 L 9360 2364 L 9360 2364 L 9360 2362 L 9360 2362 L 9360 2360 L 9360 2358 L 9358 2358 L 9358 2356 L 9358 2356 L 9358 2354 L 9358 2354 L 9356 2352 L 9356 2352 L 9356 2350 L 9354 2350 L 9354 2350 L 9354 2348 L 9352 2348 L 9352 2346 L 9352 2346 L 9350 2346 L 9348 2344 L 9346 2342 L 9346 2342 L 9344 2342 L 9344 2340 L 9342 2340 L 9342 2338 L 9340 2338 L 9340 2336 L 9340 2336 L 9338 2334 L 9338 2332 L 9336 2332 L 9336 2330 L 9336 2330 L 9336 2328 L 9334 2326 L 9334 2326 L 9334 2324 L 9334 2322 L 9334 2322 L 9334 2320 L 9334 2316 L 9334 2214 L 9334 2214 L 9334 2214 L 9334 2212 L 9334 2212 L 9334 2212 L 9334 2212 L 9334 2212 L 9334 2212 L 9334 2210 L 9334 2210 L 9334 2210 L 9334 2210 L 9334 2210 L 9334 2210 L 9334 2208 L 9332 2208 L 9332 2208 L 9332 2208 L 9332 2208 L 9332 2208 L 9332 2206 L 9332 2206 L 9332 2206 L 9332 2206 L 9332 2206 L 9330 2206 L 9330 2206 L 9330 2206 L 9330 2206 L 9330 2204 L 9330 2204 L 9330 2204 L 9328 2204 L 9322 2200 L 9308 2190 L 9318 2200 L 9326 2210 L 9332 2222 L 9340 2234 L 9346 2244 L 9352 2256 L 9358 2268 L 9362 2282 L 9368 2294 L 9374 2320 L 9386 2358 L 9390 2370 L 9402 2402 L 9404 2404 L 9404 2406 L 9404 2406 L 9406 2408 L 9406 2408 L 9408 2410 L 9408 2410 L 9408 2412 L 9410 2412 L 9410 2412 L 9412 2414 L 9412 2414 L 9414 2416 L 9414 2416 L 9416 2416 L 9416 2416 L 9418 2418 L 9420 2418 L 9420 2418 L 9422 2418 L 9422 2418 L 9424 2420 L 9426 2420 L 9428 2420 L 9432 2414 L 9434 2408 L 9438 2402 L 9440 2396 L 9444 2390 L 9446 2384 L 9448 2378 L 9450 2372 L 9452 2356 L 9454 2350 L 9456 2344 L 9482 2268 L 9482 2264 L 9484 2262 L 9484 2260 L 9486 2258 L 9488 2254 L 9488 2252 L 9490 2250 L 9492 2248 L 9494 2246 L 9494 2244 L 9496 2242 L 9498 2240 L 9500 2238 L 9502 2236 L 9504 2234 L 9508 2232 L 9510 2230 L 9512 2230 L 9514 2228 L 9516 2226 L 9520 2226 L 9522 2224 L 9530 2222 L 9532 2224 L 9534 2224 L 9536 2224 L 9538 2226 L 9540 2226 L 9542 2226 L 9542 2228 L 9544 2228 L 9546 2230 L 9548 2232 L 9550 2232 L 9552 2234 L 9552 2236 L 9554 2236 L 9556 2238 L 9556 2240 L 9558 2242 L 9560 2244 L 9560 2244 L 9562 2246 L 9562 2248 L 9564 2250 L 9564 2252 L 9564 2254 L 9566 2258 L 9582 2316 L 9584 2324 L 9598 2416 L 9602 2440" stroke="#FF0000" stroke-width="35" fill="none" stroke-linecap="round" stroke-linejoin="round"/>
<path d="M 9662 2290 L 9666 2218 L 9666 2218 L 9668 2220 L 9668 2222 L 9670 2224 L 9670 2224 L 9672 2226 L 9674 2228 L 9674 2228 L 9676 2230 L 9678 2230 L 9678 2232 L 9680 2232 L 9682 2234 L 9684 2234 L 9686 2234 L 9688 2236 L 9688 2236 L 9694 2238 L 9732 2248 L 9824 2250 L 9824 2250 L 9826 2250 L 9826 2250 L 9826 2250 L 9828 2250 L 9828 2248 L 9828 2248 L 9830 2248 L 9830 2248 L 9832 2248 L 9832 2246 L 9832 2246 L 9832 2246 L 9834 2246 L 9834 2244 L 9834 2244 L 9836 2244 L 9836 2242 L 9836 2242 L 9836 2242 L 9836 2240 L 9838 2240 L 9838 2238 L 9838 2238 L 9838 2238 L 9838 2236 L 9838 2236 L 9840 2234 L 9842 2210 L 9842 2208 L 9842 2206 L 9842 2206 L 9842 2206 L 9842 2206 L 9844 2204 L 9844 2204 L 9844 2204 L 9844 2204 L 9844 2202 L 9844 2202 L 9844 2202 L 9844 2202 L 9844 2200 L 9844 2200 L 9844 2200 L 9844 2200 L 9842 2198 L 9842 2198 L 9842 2198 L 9842 2198 L 9842 2198 L 9842 2196 L 9842 2196 L 9842 2196 L 9842 2196 L 9840 2194 L 9840 2194 L 9840 2194 L 9840 2194 L 9840 2194 L 9840 2194 L 9838 2192 L 9838 2192 L 9836 2192 L 9834 2190 L 9832 2190 L 9830 2190 L 9828 2190 L 9826 2190 L 9824 2190 L 9822 2190 L 9820 2190 L 9818 2190 L 9814 2190 L 9812 2190 L 9810 2190 L 9808 2192 L 9806 2192 L 9804 2192 L 9804 2194 L 9802 2194 L 9800 2196 L 9798 2196 L 9792 2200 L 9788 2202 L 9782 2206 L 9778 2210 L 9772 2214 L 9768 2218 L 9764 2222 L 9760 2226 L 9750 2236 L 9748 2242 L 9744 2246 L 9742 2252 L 9740 2258 L 9738 2262 L 9736 2268 L 9734 2274 L 9734 2280 L 9732 2286 L 9732 2292 L 9730 2298 L 9730 2304 L 9730 2310 L 9732 2322 L 9730 2346 L 9730 2352 L 9730 2358 L 9730 2366 L 9730 2372 L 9730 2378 L 9732 2386 L 9736 2404 L 9736 2406 L 9738 2408 L 9740 2410 L 9740 2412 L 9742 2414 L 9742 2416 L 9744 2418 L 9746 2418 L 9748 2420 L 9750 2422 L 9750 2424 L 9752 2424 L 9754 2426 L 9756 2428 L 9758 2428 L 9760 2430 L 9762 2430 L 9764 2432 L 9766 2432 L 9768 2432 L 9770 2434 L 9774 2434 L 9776 2434 L 9778 2434 L 9784 2434 L 9804 2436 L 9826 2436" stroke="#FF0000" stroke-width="35" fill="none" stroke-linecap="round" stroke-linejoin="round"/>
<path d="M 10078 1892 L 10094 1858 L 10096 1854 L 10098 1850 L 10100 1846 L 10102 1842 L 10104 1838 L 10106 1832 L 10106 1828 L 10108 1824 L 10108 1820 L 10110 1814 L 10110 1810 L 10110 1806 L 10110 1802 L 10110 1792 L 10110 1790 L 10110 1790 L 10110 1790 L 10110 1788 L 10110 1788 L 10110 1788 L 10110 1788 L 10110 1786 L 10110 1786 L 10110 1786 L 10110 1784 L 10108 1784 L 10108 1784 L 10108 1784 L 10108 1782 L 10108 1782 L 10108 1782 L 10108 1780 L 10106 1780 L 10106 1780 L 10106 1780 L 10106 1780 L 10106 1778 L 10104 1778 L 10104 1778 L 10104 1778 L 10104 1778 L 10102 1776 L 10102 1776 L 10102 1776 L 10102 1776 L 10100 1776 L 10100 1776 L 10100 1776 L 10098 1776 L 10098 1776 L 10098 1774 L 10098 1774 L 10096 1774 L 10064 1784 L 10014 1816 L 9984 1850 L 9982 1850 L 9982 1852 L 9982 1854 L 9980 1856 L 9980 1856 L 9980 1858 L 9980 1860 L 9978 1860 L 9978 1862 L 9978 1864 L 9978 1866 L 9978 1868 L 9978 1868 L 9978 1872 L 9974 1894 L 9972 1900 L 9968 1904 L 9966 1908 L 9964 1914 L 9962 1918 L 9960 1924 L 9958 1928 L 9956 1934 L 9956 1938 L 9954 1944 L 9954 1948 L 9952 1954 L 9952 1960 L 9952 1974 L 9954 1984 L 9954 1992 L 9956 2000 L 9958 2008 L 9960 2016 L 9962 2026 L 9964 2034 L 9968 2042 L 9972 2048 L 9976 2056 L 9980 2064 L 9992 2084 L 10008 2102 L 10024 2118 L 10040 2136 L 10076 2168 L 10082 2174 L 10090 2180 L 10096 2186 L 10102 2194 L 10108 2202 L 10114 2208 L 10120 2216 L 10124 2224 L 10130 2232 L 10134 2242 L 10142 2262 L 10146 2276 L 10150 2290 L 10152 2304 L 10154 2318 L 10156 2334 L 10158 2374 L 10156 2376 L 10156 2378 L 10156 2380 L 10154 2382 L 10154 2384 L 10152 2386 L 10152 2388 L 10150 2388 L 10150 2390 L 10148 2392 L 10148 2394 L 10146 2394 L 10144 2396 L 10142 2398 L 10142 2398 L 10140 2400 L 10138 2400 L 10136 2402 L 10134 2402 L 10130 2404 L 10094 2422 L 10092 2422 L 10084 2426 L 10060 2428" stroke="#FF0000" stroke-width="35" fill="none" stroke-linecap="round" stroke-linejoin="round"/>
<path d="M 10304 1894 L 10314 1868 L 10322 1842 L 10334 1790 L 10336 1786 L 10336 1794 L 10338 2140 L 10344 2370 L 10346 2456 L 10346 2486" stroke="#FF0000" stroke-width="35" fill="none" stroke-linecap="round" stroke-linejoin="round"/>
<path d="M 10350 2248 L 10350 2218 L 10350 2196 L 10350 2170 L 10354 2156 L 10322 2156 L 10292 2156 L 10250 2156" stroke="#FF0000" stroke-width="35" fill="none" stroke-linecap="round" stroke-linejoin="round"/>
<path d="M 10532 2282 L 10536 2222 L 10536 2220 L 10536 2250 L 10536 2258 L 10538 2266 L 10538 2274 L 10540 2282 L 10540 2290 L 10542 2298 L 10544 2306 L 10546 2312 L 10550 2320 L 10552 2328 L 10562 2348 L 10566 2352 L 10568 2354 L 10570 2358 L 10572 2362 L 10576 2364 L 10578 2368 L 10582 2370 L 10584 2372 L 10588 2376 L 10592 2378 L 10596 2380 L 10598 2382 L 10602 2384 L 10606 2386 L 10610 2388 L 10614 2390 L 10618 2390 L 10622 2392 L 10626 2392 L 10630 2394 L 10634 2394 L 10638 2394 L 10648 2394 L 10650 2394 L 10652 2394 L 10654 2394 L 10656 2394 L 10656 2394 L 10658 2394 L 10660 2394 L 10662 2392 L 10664 2392 L 10666 2392 L 10668 2390 L 10670 2390 L 10672 2388 L 10674 2388 L 10674 2386 L 10676 2386 L 10678 2384 L 10680 2384 L 10682 2382 L 10682 2380 L 10684 2380 L 10684 2378 L 10686 2376 L 10688 2374 L 10688 2372 L 10690 2372 L 10690 2370 L 10690 2368 L 10692 2366 L 10692 2364 L 10692 2362 L 10694 2358 L 10696 2346 L 10698 2336 L 10698 2324 L 10698 2314 L 10698 2284 L 10698 2260 L 10696 2256 L 10696 2252 L 10694 2248 L 10694 2244 L 10692 2240 L 10690 2236 L 10688 2232 L 10686 2228 L 10684 2224 L 10682 2220 L 10680 2216 L 10676 2212 L 10674 2210 L 10670 2206 L 10668 2202 L 10664 2200 L 10662 2198 L 10652 2190 L 10588 2150 L 10574 2146 L 10540 2146" stroke="#FF0000" stroke-width="35" fill="none" stroke-linecap="round" stroke-linejoin="round"/>
<path d="M 10522 2216 L 10538 2220 L 10552 2224 L 10568 2226 L 10582 2228 L 10598 2228 L 10614 2230 L 10650 2228 L 10678 2228 L 10680 2228 L 10680 2228 L 10682 2228 L 10684 2230 L 10686 2230 L 10688 2230 L 10688 2232 L 10690 2232 L 10692 2234 L 10692 2234 L 10694 2236 L 10696 2236 L 10696 2238 L 10698 2238 L 10698 2240 L 10700 2240 L 10700 2242 L 10702 2244 L 10702 2244 L 10704 2246 L 10706 2250 L 10726 2292 L 10734 2310 L 10744 2334 L 10748 2344 L 10752 2354 L 10758 2362 L 10764 2372 L 10776 2390 L 10778 2394 L 10780 2396 L 10782 2398 L 10784 2400 L 10786 2402 L 10790 2404 L 10792 2406 L 10794 2408 L 10796 2408 L 10800 2410 L 10802 2412 L 10806 2412 L 10808 2414 L 10810 2414 L 10814 2416 L 10816 2416 L 10820 2416 L 10822 2418 L 10826 2418 L 10832 2418 L 10834 2418 L 10836 2416 L 10838 2416 L 10840 2416 L 10842 2414 L 10844 2414 L 10846 2412 L 10846 2412 L 10848 2410 L 10850 2410 L 10852 2408 L 10854 2406 L 10854 2406 L 10856 2404 L 10858 2402 L 10858 2400 L 10860 2400 L 10860 2398 L 10862 2396 L 10862 2394 L 10864 2392 L 10866 2388 L 10886 2336 L 10888 2328 L 10908 2280 L 10908 2278 L 10908 2276 L 10910 2276 L 10910 2274 L 10910 2272 L 10912 2270 L 10912 2270 L 10912 2268 L 10914 2266 L 10914 2266 L 10916 2264 L 10916 2264 L 10918 2262 L 10918 2260 L 10920 2260 L 10922 2258 L 10922 2258 L 10924 2256 L 10926 2256 L 10926 2256 L 10928 2254 L 10930 2254 L 10930 2254 L 10932 2252 L 10934 2252 L 10938 2252 L 10940 2254 L 10942 2254 L 10942 2256 L 10944 2258 L 10946 2260 L 10948 2262 L 10948 2264 L 10950 2266 L 10952 2270 L 10952 2272 L 10954 2274 L 10954 2276 L 10954 2278 L 10956 2280 L 10956 2284 L 10956 2286 L 10956 2288 L 10958 2290 L 10958 2296 L 10960 2352 L 10964 2494 L 10966 2468 L 10970 2444 L 10974 2418 L 10980 2394 L 10986 2370 L 10994 2344 L 11004 2322 L 11030 2264 L 11044 2234" stroke="#FF0000" stroke-width="35" fill="none" stroke-linecap="round" stroke-linejoin="round"/>
<path d="M 11172 2018 L 11172 2014 L 11172 2008 L 11172 1978 L 11172 1978 L 11172 1976 L 11172 1976 L 11170 1976 L 11170 1974 L 11170 1974 L 11172 1974 L 11172 1972 L 11172 1972 L 11172 1970 L 11172 1970 L 11172 1970 L 11172 1968 L 11172 1968 L 11172 1968 L 11172 1966 L 11174 1966 L 11174 1966 L 11174 1964 L 11174 1964 L 11174 1964 L 11176 1962 L 11176 1962 L 11176 1962 L 11178 1962 L 11178 1960 L 11180 1960 L 11180 1962 L 11182 1962 L 11182 1964 L 11182 1964 L 11184 1966 L 11184 1966 L 11186 1968 L 11186 1968 L 11186 1970 L 11186 1972 L 11188 1972 L 11188 1974 L 11188 1974 L 11188 1976 L 11188 1978 L 11188 1978 L 11188 1980 L 11188 1980 L 11188 1982 L 11188 1984 L 11188 1984 L 11188 1988 L 11190 1994 L 11220 2264 L 11238 2438 L 11244 2482" stroke="#FF0000" stroke-width="35" fill="none" stroke-linecap="round" stroke-linejoin="round"/>
<path d="M 11324 2328 L 11324 2294 L 11324 2266 L 11324 2238 L 11324 2214 L 11324 2180 L 11292 2158 L 11252 2158 L 11224 2158 L 11190 2158 L 11160 2158 L 11128 2158" stroke="#FF0000" stroke-width="35" fill="none" stroke-linecap="round" stroke-linejoin="round"/>
<path d="M 210 2970 L 210 2970 L 210 2970 L 210 2968 L 210 2968 L 210 2968 L 210 2968 L 212 2966 L 212 2966 L 212 2966 L 212 2966 L 212 2964 L 212 2964 L 212 2964 L 212 2962 L 212 2962 L 212 2962 L 210 2962 L 210 2960 L 210 2960 L 210 2960 L 210 2960 L 210 2958 L 210 2958 L 210 2958 L 210 2958 L 208 2956 L 208 2956 L 208 2956 L 208 2956 L 208 2954 L 206 2954 L 206 2954 L 206 2954 L 204 2954 L 202 2954 L 202 2954 L 202 2954 L 202 2954 L 200 2954 L 200 2954 L 200 2954 L 198 2954 L 198 2954 L 198 2954 L 196 2954 L 196 2954 L 196 2954 L 194 2954 L 194 2954 L 194 2954 L 192 2954 L 192 2954 L 192 2952 L 192 2952 L 190 2952 L 190 2952 L 190 2952 L 188 2952 L 188 2950 L 188 2950 L 188 2950 L 188 2950 L 186 2948 L 186 2948 L 186 2948 L 186 2948 L 186 2946 L 184 2946 L 184 2946 L 184 2944 L 184 2944 L 184 2944 L 184 2944 L 184 2942 L 184 2942 L 184 2942 L 184 2940 L 184 2936 L 184 2938 L 184 2938 L 184 2938 L 186 2938 L 186 2938 L 186 2938 L 186 2938 L 188 2938 L 188 2938 L 188 2938 L 188 2938 L 190 2938 L 190 2938 L 190 2938 L 190 2938 L 192 2938 L 192 2938 L 192 2938 L 192 2938 L 194 2938 L 194 2938 L 194 2936 L 194 2936 L 196 2936 L 196 2936 L 196 2936 L 196 2936 L 196 2936 L 196 2934 L 198 2934 L 198 2934 L 198 2934 L 198 2934 L 198 2932 L 198 2932 L 198 2932 L 200 2932 L 200 2930 L 200 2930 L 200 2930 L 200 2930 L 200 2928 L 200 2928 L 200 2928 L 200 2928 L 200 2928 L 200 2926 L 200 2926 L 200 2924 L 200 2936 L 202 2964 L 206 3014 L 206 3036 L 206 3050 L 206 3062 L 206 3076 L 204 3090 L 198 3124 L 174 3196 L 166 3248 L 152 3356 L 138 3478 L 114 3586 L 102 3698 L 76 3812 L 64 3926 L 54 3986 L 46 4022 L 40 4058 L 34 4140 L 34 4176 L 22 4266 L 16 4300 L 10 4386 L 10 4442" stroke="#FF0000" stroke-width="35" fill="none" stroke-linecap="round" stroke-linejoin="round"/>
<path d="M 27732 2348 L 27732 2348 L 27728 2348 L 27722 2348 L 27712 2350 L 27708 2368 L 27708 2370 L 27708 2372 L 27708 2374 L 27708 2374 L 27708 2376 L 27708 2378 L 27706 2380 L 27706 2382 L 27706 2384 L 27704 2384 L 27704 2386 L 27702 2388 L 27702 2390 L 27700 2390 L 27700 2392 L 27698 2394 L 27698 2394 L 27694 2398 L 27692 2398 L 27692 2400 L 27690 2402 L 27688 2402 L 27688 2404 L 27686 2406 L 27684 2408 L 27684 2410 L 27682 2412 L 27682 2414 L 27682 2414 L 27680 2416 L 27680 2418 L 27680 2420 L 27678 2422 L 27678 2424 L 27678 2426 L 27678 2432 L 27678 2438 L 27676 2444 L 27676 2450 L 27674 2456 L 27674 2462 L 27672 2468 L 27670 2474 L 27666 2488 L 27662 2494 L 27660 2500 L 27658 2506 L 27656 2512 L 27656 2518 L 27654 2524 L 27654 2530 L 27652 2544 L 27652 2554 L 27652 2562 L 27650 2570 L 27648 2580 L 27646 2588 L 27644 2596 L 27642 2604 L 27634 2622 L 27622 2654 L 27612 2692 L 27596 2780 L 27584 2856 L 27578 2882 L 27564 2946 L 27552 3010 L 27536 3194 L 27534 3212 L 27532 3230 L 27530 3246 L 27522 3288 L 27516 3306 L 27514 3324 L 27510 3340 L 27508 3384 L 27508 3484 L 27508 3484 L 27508 3462 L 27508 3448" stroke="#FF0000" stroke-width="35" fill="none" stroke-linecap="round" stroke-linejoin="round"/>
<path d="M 8078 4166 L 8078 4162 L 8078 4150 L 8078 4158 L 8082 4256 L 8084 4270 L 8098 4366 L 8112 4582 L 8112 4582 L 8114 4540 L 8116 4536 L 8116 4530 L 8118 4526 L 8120 4520 L 8122 4516 L 8124 4510 L 8126 4506 L 8128 4502 L 8132 4496 L 8134 4492 L 8138 4488 L 8142 4484 L 8144 4480 L 8156 4470 L 8190 4450 L 8198 4446 L 8206 4440 L 8214 4436 L 8222 4432 L 8232 4428 L 8254 4422 L 8258 4420 L 8262 4420 L 8266 4420 L 8270 4420 L 8274 4420 L 8278 4420 L 8282 4420 L 8288 4420 L 8292 4420 L 8296 4422 L 8300 4422 L 8304 4424 L 8308 4426 L 8310 4428 L 8314 4428 L 8318 4430 L 8322 4432 L 8330 4438 L 8332 4440 L 8334 4442 L 8338 4444 L 8340 4446 L 8342 4448 L 8344 4450 L 8346 4452 L 8348 4454 L 8350 4458 L 8352 4460 L 8354 4462 L 8356 4466 L 8358 4468 L 8358 4472 L 8360 4474 L 8362 4482 L 8366 4540 L 8366 4558 L 8364 4562 L 8364 4566 L 8362 4570 L 8360 4574 L 8358 4576 L 8356 4580 L 8354 4584 L 8352 4586 L 8350 4590 L 8348 4594 L 8346 4596 L 8342 4598 L 8340 4602 L 8336 4604 L 8334 4606 L 8330 4610 L 8328 4612 L 8324 4614 L 8320 4616 L 8318 4618 L 8314 4618 L 8304 4622 L 8290 4628 L 8274 4636 L 8258 4640 L 8244 4646 L 8208 4654 L 8120 4660 L 8116 4664" stroke="#FF0000" stroke-width="35" fill="none" stroke-linecap="round" stroke-linejoin="round"/>
<path d="M 8660 4600 L 8660 4596 L 8660 4592 L 8660 4588 L 8662 4586 L 8662 4582 L 8660 4578 L 8660 4574 L 8660 4572 L 8660 4568 L 8660 4564 L 8658 4562 L 8658 4558 L 8654 4550 L 8652 4548 L 8648 4546 L 8646 4546 L 8644 4544 L 8642 4544 L 8640 4542 L 8636 4542 L 8634 4540 L 8632 4540 L 8628 4540 L 8626 4540 L 8624 4540 L 8620 4540 L 8618 4540 L 8616 4540 L 8608 4540 L 8608 4542 L 8606 4544 L 8606 4546 L 8606 4548 L 8604 4550 L 8604 4552 L 8604 4554 L 8604 4556 L 8602 4558 L 8602 4560 L 8602 4560 L 8602 4562 L 8602 4564 L 8602 4566 L 8602 4568 L 8604 4574 L 8604 4574 L 8604 4578 L 8604 4580 L 8604 4584 L 8604 4586 L 8604 4588 L 8604 4592 L 8606 4594 L 8606 4598 L 8606 4600 L 8608 4602 L 8608 4606 L 8610 4608 L 8612 4610 L 8612 4612 L 8614 4616 L 8616 4618 L 8618 4620 L 8620 4622 L 8620 4624 L 8622 4626 L 8624 4628 L 8628 4630 L 8630 4632 L 8632 4634 L 8634 4634 L 8636 4636 L 8638 4638 L 8642 4638 L 8644 4640 L 8650 4642 L 8662 4644 L 8672 4648 L 8684 4650 L 8696 4650 L 8708 4652 L 8736 4652 L 8744 4652 L 8746 4652 L 8750 4652 L 8752 4652 L 8754 4650 L 8758 4650 L 8760 4650 L 8762 4650 L 8766 4648 L 8768 4648 L 8770 4646 L 8772 4646 L 8776 4644 L 8778 4644 L 8780 4642 L 8782 4640 L 8784 4638 L 8786 4638 L 8788 4636 L 8790 4634 L 8792 4632 L 8794 4630 L 8798 4624 L 8802 4618 L 8804 4614 L 8806 4608 L 8808 4604 L 8810 4598 L 8812 4594 L 8812 4588 L 8814 4582 L 8814 4578 L 8816 4572 L 8816 4566 L 8816 4556 L 8816 4554 L 8814 4552 L 8814 4552 L 8814 4550 L 8812 4550 L 8812 4548 L 8812 4548 L 8810 4546 L 8810 4546 L 8810 4544 L 8808 4544 L 8808 4544 L 8806 4542 L 8806 4542 L 8804 4540 L 8804 4540 L 8802 4540 L 8802 4540 L 8800 4538 L 8798 4538 L 8798 4538 L 8794 4538 L 8754 4524 L 8738 4520 L 8710 4516" stroke="#FF0000" stroke-width="35" fill="none" stroke-linecap="round" stroke-linejoin="round"/>
<path d="M 8612 4580 L 8618 4580 L 8624 4580 L 8628 4578 L 8634 4578 L 8640 4576 L 8646 4576 L 8650 4574 L 8660 4570 L 8666 4568 L 8672 4566 L 8676 4564 L 8682 4562 L 8688 4560 L 8694 4560 L 8698 4560 L 8710 4558 L 8714 4558 L 8720 4556 L 8724 4554 L 8728 4552 L 8732 4550 L 8736 4548 L 8740 4544 L 8744 4542 L 8748 4538 L 8752 4536 L 8754 4532 L 8758 4530 L 8762 4526 L 8770 4516 L 8778 4506 L 8780 4504 L 8780 4504 L 8782 4502 L 8784 4502 L 8784 4502 L 8786 4500 L 8788 4500 L 8790 4500 L 8790 4500 L 8792 4500 L 8794 4498 L 8794 4498 L 8796 4498 L 8798 4498 L 8800 4498 L 8800 4498 L 8802 4498 L 8804 4498 L 8806 4500 L 8806 4500 L 8808 4500 L 8810 4500 L 8810 4500 L 8812 4502 L 8814 4502 L 8816 4502 L 8816 4504 L 8818 4504 L 8818 4504 L 8820 4506 L 8822 4506 L 8822 4508 L 8824 4508 L 8824 4510 L 8826 4512 L 8826 4512 L 8828 4514 L 8828 4514 L 8830 4518 L 8832 4524 L 8834 4530 L 8836 4536 L 8840 4540 L 8842 4546 L 8846 4552 L 8850 4556 L 8854 4562 L 8858 4566 L 8862 4570 L 8866 4576 L 8870 4580 L 8886 4590 L 8904 4596" stroke="#FF0000" stroke-width="35" fill="none" stroke-linecap="round" stroke-linejoin="round"/>
<path d="M 9016 4508 L 9004 4500 L 8994 4490 L 8984 4482 L 8962 4460 L 8962 4460 L 8962 4460 L 8960 4458 L 8960 4458 L 8960 4458 L 8960 4456 L 8958 4456 L 8958 4456 L 8958 4454 L 8958 4454 L 8956 4454 L 8956 4452 L 8956 4452 L 8956 4450 L 8956 4450 L 8956 4448 L 8956 4448 L 8954 4448 L 8954 4446 L 8954 4446 L 8954 4444 L 8954 4444 L 8954 4442 L 8954 4442 L 8954 4442 L 8956 4440 L 8954 4430 L 8954 4430 L 8954 4430 L 8954 4430 L 8954 4428 L 8954 4428 L 8952 4428 L 8952 4428 L 8952 4428 L 8952 4426 L 8952 4426 L 8952 4426 L 8952 4426 L 8952 4426 L 8950 4426 L 8950 4424 L 8950 4424 L 8950 4424 L 8950 4424 L 8950 4424 L 8948 4424 L 8948 4424 L 8948 4424 L 8948 4424 L 8948 4422 L 8946 4422 L 8946 4422 L 8946 4422 L 8946 4422 L 8946 4422 L 8944 4422 L 8944 4422 L 8944 4422 L 8944 4422 L 8942 4422 L 8942 4422 L 8942 4422 L 8942 4422 L 8940 4424 L 8942 4442 L 8960 4490 L 8978 4524 L 8984 4536 L 8990 4546 L 8996 4558 L 9002 4570 L 9008 4582 L 9012 4596 L 9016 4608 L 9020 4620 L 9024 4648 L 9038 4610 L 9044 4574 L 9046 4560 L 9048 4544 L 9052 4530 L 9054 4514 L 9060 4500 L 9064 4486 L 9078 4456 L 9092 4430" stroke="#FF0000" stroke-width="35" fill="none" stroke-linecap="round" stroke-linejoin="round"/>
<path d="M 9272 4424 L 9274 4424 L 9274 4424 L 9276 4424 L 9278 4424 L 9280 4424 L 9280 4424 L 9282 4424 L 9284 4424 L 9286 4424 L 9286 4422 L 9288 4422 L 9290 4422 L 9290 4422 L 9292 4420 L 9294 4420 L 9294 4420 L 9296 4418 L 9298 4418 L 9298 4416 L 9300 4416 L 9300 4414 L 9302 4414 L 9302 4412 L 9304 4412 L 9306 4408 L 9308 4404 L 9318 4388 L 9296 4398 L 9292 4402 L 9284 4406 L 9270 4412 L 9258 4420 L 9244 4428 L 9232 4436 L 9220 4446 L 9208 4456 L 9196 4466 L 9166 4498 L 9166 4500 L 9164 4504 L 9164 4506 L 9162 4508 L 9162 4510 L 9162 4514 L 9160 4516 L 9160 4518 L 9160 4522 L 9160 4524 L 9160 4526 L 9160 4530 L 9160 4532 L 9160 4534 L 9160 4538 L 9162 4540 L 9162 4542 L 9162 4546 L 9164 4548 L 9164 4550 L 9166 4552 L 9166 4556 L 9168 4558 L 9170 4560 L 9170 4562 L 9172 4564 L 9174 4566 L 9178 4570 L 9188 4576 L 9200 4580 L 9210 4584 L 9222 4586 L 9234 4590 L 9246 4592 L 9278 4596 L 9388 4596 L 9440 4594 L 9472 4594" stroke="#FF0000" stroke-width="35" fill="none" stroke-linecap="round" stroke-linejoin="round"/>
<path d="M 9538 4370 L 9538 4348 L 9536 4334 L 9536 4318 L 9538 4304 L 9538 4290 L 9540 4274 L 9548 4234 L 9552 4286 L 9556 4334 L 9556 4348 L 9558 4364 L 9558 4378 L 9558 4392 L 9558 4408 L 9556 4422 L 9548 4460 L 9540 4480 L 9538 4484 L 9536 4488 L 9534 4494 L 9532 4498 L 9530 4502 L 9530 4506 L 9528 4512 L 9528 4516 L 9526 4530 L 9526 4532 L 9526 4534 L 9526 4536 L 9526 4538 L 9526 4540 L 9524 4544 L 9524 4546 L 9524 4548 L 9522 4550 L 9522 4552 L 9520 4554 L 9520 4556 L 9518 4558 L 9518 4560 L 9514 4566 L 9512 4566 L 9510 4568 L 9510 4570 L 9508 4572 L 9508 4574 L 9506 4576 L 9506 4578 L 9504 4580 L 9504 4582 L 9504 4584 L 9502 4586 L 9502 4588 L 9502 4590 L 9502 4592 L 9502 4598 L 9510 4596 L 9516 4590 L 9520 4584 L 9526 4578 L 9532 4572 L 9536 4566 L 9540 4560 L 9544 4554 L 9548 4548 L 9552 4540 L 9556 4534 L 9562 4518 L 9564 4510 L 9568 4504 L 9570 4496 L 9574 4490 L 9578 4482 L 9582 4476 L 9586 4470 L 9592 4464 L 9596 4458 L 9600 4452 L 9606 4446 L 9622 4434 L 9636 4426 L 9640 4422 L 9646 4418 L 9652 4416 L 9656 4412 L 9662 4410 L 9668 4408 L 9686 4402 L 9688 4402 L 9690 4402 L 9692 4402 L 9694 4402 L 9696 4402 L 9698 4402 L 9698 4402 L 9700 4402 L 9702 4402 L 9704 4404 L 9706 4404 L 9708 4404 L 9708 4406 L 9710 4406 L 9712 4408 L 9714 4408 L 9714 4408 L 9716 4410 L 9718 4412 L 9718 4412 L 9720 4414 L 9722 4414 L 9722 4416 L 9724 4418 L 9724 4418 L 9726 4420 L 9726 4422 L 9728 4424 L 9728 4424 L 9728 4426 L 9730 4428 L 9730 4430 L 9730 4434 L 9736 4450 L 9740 4466 L 9744 4484 L 9746 4500 L 9750 4552 L 9754 4606 L 9754 4608 L 9754 4608 L 9754 4610 L 9754 4610 L 9756 4612 L 9756 4612 L 9756 4614 L 9756 4614 L 9756 4616 L 9756 4616 L 9756 4618 L 9756 4618 L 9758 4618 L 9758 4620 L 9758 4620 L 9758 4622 L 9760 4622 L 9760 4624 L 9760 4624 L 9762 4624 L 9762 4626 L 9762 4626 L 9764 4626 L 9766 4628 L 9766 4628 L 9768 4628 L 9768 4628 L 9770 4628 L 9770 4628 L 9772 4628 L 9772 4628 L 9774 4628 L 9774 4626 L 9774 4626 L 9776 4626 L 9776 4626 L 9778 4626 L 9778 4624 L 9780 4624 L 9780 4624 L 9780 4624 L 9782 4622 L 9782 4622 L 9784 4620 L 9818 4574 L 9822 4570 L 9824 4564 L 9830 4556 L 9834 4546 L 9840 4538 L 9846 4530 L 9854 4522 L 9860 4516 L 9868 4508 L 9874 4500 L 9892 4488 L 9914 4474 L 9916 4472 L 9918 4470 L 9922 4470 L 9924 4468 L 9928 4466 L 9930 4464 L 9934 4464 L 9936 4462 L 9940 4462 L 9942 4460 L 9946 4460 L 9950 4460 L 9952 4460 L 9956 4460 L 9958 4458 L 9962 4460 L 9968 4460 L 9970 4460 L 9972 4460 L 9974 4462 L 9974 4462 L 9976 4462 L 9978 4464 L 9978 4464 L 9980 4466 L 9982 4466 L 9982 4468 L 9984 4468 L 9984 4470 L 9986 4472 L 9986 4472 L 9988 4474 L 9988 4476 L 9990 4476 L 9990 4478 L 9990 4480 L 9992 4480 L 9992 4482 L 9992 4484 L 9992 4486 L 9994 4490 L 10002 4538 L 10004 4546 L 10006 4558 L 10018 4616 L 10020 4618 L 10020 4620 L 10020 4622 L 10022 4624 L 10022 4624 L 10024 4626 L 10024 4628 L 10026 4630 L 10026 4630 L 10028 4632 L 10030 4634 L 10030 4634 L 10032 4636 L 10034 4638 L 10034 4638 L 10036 4640 L 10038 4640 L 10040 4642 L 10042 4642 L 10042 4642 L 10044 4644 L 10046 4644 L 10048 4644 L 10050 4646 L 10052 4646 L 10054 4646 L 10058 4646 L 10062 4646 L 10066 4646 L 10068 4646 L 10072 4644 L 10074 4644 L 10078 4644 L 10080 4642 L 10084 4640 L 10086 4640 L 10090 4638 L 10092 4636 L 10096 4636 L 10098 4634 L 10100 4632 L 10104 4630 L 10106 4628 L 10108 4626 L 10110 4622 L 10112 4620 L 10114 4618 L 10116 4616 L 10118 4612 L 10120 4610 L 10122 4608 L 10124 4604 L 10124 4602 L 10126 4598 L 10126 4596 L 10128 4592 L 10128 4590 L 10130 4582 L 10134 4564 L 10136 4546 L 10138 4528 L 10140 4510 L 10140 4474 L 10140 4472 L 10134 4466 L 10114 4448 L 10114 4448 L 10112 4448 L 10112 4446 L 10110 4446 L 10110 4446 L 10110 4444 L 10108 4444 L 10108 4444 L 10106 4444 L 10106 4442 L 10104 4442 L 10104 4442 L 10102 4442 L 10102 4442 L 10100 4442 L 10100 4440 L 10098 4440 L 10098 4440 L 10096 4440 L 10096 4440 L 10094 4440 L 10094 4440 L 10092 4442 L 10090 4442 L 10080 4440 L 10068 4426 L 10034 4422" stroke="#FF0000" stroke-width="35" fill="none" stroke-linecap="round" stroke-linejoin="round"/>
<path d="M 9978 4492 L 10034 4494 L 10116 4500 L 10118 4502 L 10120 4502 L 10122 4502 L 10124 4504 L 10126 4504 L 10126 4506 L 10128 4506 L 10130 4508 L 10132 4508 L 10132 4510 L 10134 4512 L 10136 4512 L 10136 4514 L 10138 4516 L 10138 4518 L 10140 4518 L 10140 4520 L 10142 4522 L 10142 4524 L 10144 4528 L 10160 4572 L 10164 4582 L 10164 4586 L 10166 4590 L 10168 4594 L 10170 4598 L 10170 4602 L 10172 4606 L 10176 4610 L 10178 4614 L 10180 4616 L 10182 4620 L 10186 4624 L 10188 4626 L 10192 4630 L 10194 4632 L 10198 4636 L 10202 4638 L 10204 4640 L 10208 4642 L 10212 4644 L 10216 4646 L 10220 4648 L 10224 4650 L 10228 4652 L 10232 4652 L 10236 4654 L 10240 4654 L 10244 4656 L 10248 4656 L 10252 4656 L 10256 4656 L 10268 4656 L 10272 4654 L 10276 4654 L 10278 4652 L 10282 4650 L 10284 4648 L 10286 4646 L 10290 4644 L 10292 4642 L 10294 4640 L 10298 4638 L 10300 4636 L 10302 4634 L 10304 4630 L 10306 4628 L 10308 4624 L 10312 4618 L 10320 4606 L 10326 4598 L 10332 4590 L 10336 4580 L 10342 4572 L 10352 4546 L 10354 4540 L 10354 4540 L 10354 4540 L 10354 4540 L 10354 4540 L 10354 4540 L 10354 4540 L 10354 4540 L 10354 4540 L 10356 4540 L 10356 4538 L 10356 4538 L 10356 4538 L 10356 4538 L 10356 4538 L 10356 4538 L 10356 4538 L 10356 4538 L 10356 4538 L 10356 4538 L 10356 4538 L 10356 4538 L 10356 4538 L 10356 4538 L 10356 4538 L 10356 4538 L 10356 4538 L 10356 4538 L 10356 4538 L 10356 4538 L 10356 4538 L 10356 4538 L 10358 4538 L 10358 4538 L 10358 4538 L 10358 4538 L 10358 4538 L 10358 4538 L 10358 4538 L 10358 4538 L 10358 4538 L 10358 4538 L 10358 4538 L 10358 4538 L 10358 4538 L 10358 4538 L 10358 4538 L 10358 4538 L 10358 4538 L 10358 4538 L 10358 4538 L 10358 4538 L 10360 4538 L 10360 4538 L 10360 4538 L 10360 4538 L 10360 4538 L 10360 4538 L 10360 4538 L 10360 4540 L 10360 4540 L 10360 4540 L 10360 4540 L 10360 4540 L 10366 4552 L 10372 4574 L 10376 4684 L 10382 4680 L 10388 4666 L 10392 4652 L 10396 4636 L 10400 4622 L 10406 4586 L 10424 4506 L 10424 4500 L 10426 4494 L 10428 4488 L 10430 4482 L 10432 4476 L 10434 4472 L 10438 4466 L 10440 4460 L 10444 4456 L 10448 4450 L 10458 4438 L 10472 4430 L 10482 4404" stroke="#FF0000" stroke-width="35" fill="none" stroke-linecap="round" stroke-linejoin="round"/>
<path d="M 10618 4272 L 10622 4252 L 10622 4234 L 10622 4234 L 10626 4208 L 10632 4208 L 10636 4190 L 10642 4190" stroke="#FF0000" stroke-width="35" fill="none" stroke-linecap="round" stroke-linejoin="round"/>
<path d="M 10628 4318 L 10628 4172 L 10628 4170 L 10628 4180 L 10626 4284 L 10626 4496 L 10630 4532 L 10632 4568 L 10638 4602 L 10660 4698 L 10660 4700 L 10662 4706 L 10662 4712 L 10664 4716 L 10666 4722 L 10668 4728 L 10670 4732 L 10674 4738 L 10676 4742 L 10678 4748 L 10682 4752 L 10686 4756 L 10688 4762 L 10692 4766 L 10696 4770 L 10700 4774 L 10710 4780 L 10722 4786" stroke="#FF0000" stroke-width="35" fill="none" stroke-linecap="round" stroke-linejoin="round"/>
<path d="M 10726 4608 L 10726 4584 L 10726 4566 L 10726 4542 L 10694 4518 L 10694 4496 L 10694 4474 L 10654 4454 L 10654 4436 L 10608 4436 L 10580 4404 L 10550 4404 L 10520 4386 L 10484 4386" stroke="#FF0000" stroke-width="35" fill="none" stroke-linecap="round" stroke-linejoin="round"/>
<path d="M 11248 4214 L 11248 4214 L 11250 4212 L 11250 4212 L 11250 4212 L 11250 4212 L 11250 4210 L 11252 4210 L 11252 4210 L 11252 4208 L 11252 4208 L 11252 4208 L 11252 4206 L 11252 4206 L 11254 4206 L 11254 4204 L 11254 4204 L 11254 4202 L 11254 4202 L 11254 4202 L 11254 4200 L 11254 4200 L 11254 4200 L 11254 4198 L 11254 4198 L 11252 4196 L 11252 4196 L 11252 4196 L 11252 4194 L 11252 4194 L 11252 4192 L 11244 4192 L 11236 4194 L 11228 4194 L 11220 4194 L 11212 4196 L 11206 4198 L 11198 4200 L 11190 4202 L 11184 4206 L 11176 4208 L 11160 4218 L 11140 4226 L 11128 4234 L 11116 4240 L 11104 4248 L 11092 4256 L 11082 4264 L 11072 4274 L 11062 4282 L 11052 4292 L 11042 4302 L 11034 4314 L 11026 4324 L 11018 4336 L 11002 4362 L 10976 4416 L 10966 4432 L 10962 4440 L 10960 4448 L 10958 4456 L 10956 4466 L 10956 4474 L 10954 4482 L 10954 4490 L 10954 4500 L 10954 4508 L 10956 4532 L 10958 4566 L 10958 4570 L 10958 4572 L 10958 4576 L 10958 4580 L 10960 4584 L 10960 4588 L 10960 4590 L 10962 4594 L 10962 4598 L 10964 4600 L 10966 4604 L 10966 4608 L 10968 4610 L 10970 4614 L 10972 4616 L 10974 4620 L 10976 4622 L 10978 4626 L 10980 4628 L 10984 4630 L 10986 4632 L 10994 4638 L 11000 4642 L 11008 4646 L 11016 4650 L 11024 4652 L 11030 4656 L 11038 4658 L 11046 4660 L 11054 4662 L 11076 4664 L 11088 4666 L 11098 4666 L 11110 4668 L 11120 4668 L 11132 4668 L 11142 4668 L 11154 4666 L 11180 4662 L 11206 4638" stroke="#FF0000" stroke-width="35" fill="none" stroke-linecap="round" stroke-linejoin="round"/>
<path d="M 11298 4482 L 11298 4482 L 11298 4482 L 11298 4480 L 11298 4480 L 11298 4480 L 11300 4480 L 11300 4478 L 11300 4478 L 11300 4478 L 11300 4476 L 11300 4476 L 11300 4476 L 11300 4476 L 11300 4474 L 11300 4474 L 11300 4474 L 11300 4472 L 11300 4472 L 11298 4472 L 11298 4472 L 11298 4470 L 11298 4470 L 11298 4470 L 11298 4468 L 11298 4468 L 11298 4468 L 11296 4468 L 11296 4466 L 11296 4466 L 11296 4466 L 11296 4466 L 11294 4466 L 11294 4464 L 11294 4464 L 11292 4464 L 11272 4464 L 11266 4464 L 11244 4466 L 11238 4474 L 11234 4482 L 11232 4484 L 11230 4486 L 11228 4486 L 11228 4488 L 11226 4490 L 11224 4492 L 11222 4494 L 11222 4496 L 11220 4498 L 11218 4500 L 11218 4502 L 11216 4504 L 11216 4506 L 11214 4510 L 11214 4512 L 11214 4514 L 11212 4516 L 11212 4518 L 11212 4522 L 11212 4524 L 11212 4526 L 11212 4528 L 11212 4530 L 11212 4534 L 11214 4540 L 11214 4542 L 11214 4544 L 11214 4546 L 11214 4550 L 11214 4552 L 11216 4554 L 11216 4556 L 11216 4558 L 11218 4560 L 11218 4562 L 11220 4564 L 11220 4566 L 11222 4568 L 11222 4570 L 11224 4572 L 11226 4574 L 11228 4576 L 11228 4578 L 11230 4578 L 11232 4580 L 11234 4582 L 11236 4584 L 11238 4584 L 11240 4586 L 11242 4586 L 11244 4588 L 11246 4588 L 11248 4590 L 11250 4590 L 11252 4590 L 11254 4592 L 11260 4592 L 11274 4594 L 11288 4596 L 11302 4598 L 11316 4598 L 11346 4596 L 11370 4596 L 11374 4596 L 11376 4596 L 11378 4596 L 11382 4596 L 11384 4594 L 11388 4594 L 11390 4594 L 11392 4592 L 11396 4592 L 11398 4590 L 11400 4588 L 11402 4588 L 11410 4584 L 11418 4578 L 11420 4578 L 11420 4576 L 11422 4574 L 11424 4574 L 11426 4572 L 11428 4570 L 11428 4568 L 11430 4566 L 11432 4566 L 11432 4564 L 11434 4562 L 11434 4560 L 11436 4558 L 11436 4556 L 11438 4554 L 11438 4552 L 11438 4550 L 11440 4548 L 11440 4542 L 11442 4494 L 11442 4476 L 11442 4474 L 11442 4472 L 11440 4470 L 11440 4468 L 11440 4466 L 11440 4464 L 11438 4462 L 11438 4460 L 11438 4458 L 11436 4458 L 11436 4456 L 11434 4454 L 11432 4452 L 11432 4450 L 11430 4450 L 11428 4448 L 11428 4446 L 11426 4446 L 11422 4442 L 11386 4420 L 11374 4412 L 11366 4408" stroke="#FF0000" stroke-width="35" fill="none" stroke-linecap="round" stroke-linejoin="round"/>
<path d="M 11340 4462 L 11356 4468 L 11374 4472 L 11392 4476 L 11408 4478 L 11426 4480 L 11464 4482 L 11482 4482 L 11500 4484 L 11516 4486 L 11534 4488 L 11582 4500 L 11584 4500 L 11586 4502 L 11588 4502 L 11590 4504 L 11590 4506 L 11592 4506 L 11594 4508 L 11596 4510 L 11596 4510 L 11598 4512 L 11600 4514 L 11600 4516 L 11602 4518 L 11602 4518 L 11604 4520 L 11604 4522 L 11606 4524 L 11606 4526 L 11606 4528 L 11608 4530 L 11608 4532 L 11608 4534 L 11608 4536 L 11608 4538 L 11610 4540 L 11610 4542 L 11610 4544 L 11608 4546 L 11608 4550 L 11614 4582 L 11614 4582 L 11614 4582 L 11614 4582 L 11614 4584 L 11616 4584 L 11616 4584 L 11616 4584 L 11616 4586 L 11618 4586 L 11618 4586 L 11618 4586 L 11618 4586 L 11620 4586 L 11620 4588 L 11620 4588 L 11620 4588 L 11622 4588 L 11622 4588 L 11622 4588 L 11624 4588 L 11624 4588 L 11624 4588 L 11626 4588 L 11626 4588 L 11626 4588 L 11628 4588 L 11628 4588 L 11628 4588 L 11630 4588 L 11630 4588 L 11630 4588 L 11630 4588 L 11632 4588 L 11632 4588 L 11632 4588 L 11634 4586 L 11634 4586 L 11634 4586 L 11634 4586 L 11636 4586 L 11636 4584 L 11636 4584 L 11636 4584 L 11638 4584 L 11638 4584 L 11638 4582 L 11656 4562 L 11658 4562 L 11660 4558 L 11664 4554 L 11668 4548 L 11672 4544 L 11678 4540 L 11682 4538 L 11686 4534 L 11692 4530 L 11696 4528 L 11702 4524 L 11706 4522 L 11712 4520 L 11718 4516 L 11724 4514 L 11728 4514 L 11734 4512 L 11740 4510 L 11746 4510 L 11752 4508 L 11758 4508 L 11774 4508 L 11776 4508 L 11780 4508 L 11782 4510 L 11784 4510 L 11786 4510 L 11790 4512 L 11792 4512 L 11794 4514 L 11796 4514 L 11798 4516 L 11800 4516 L 11802 4518 L 11806 4520 L 11808 4522 L 11810 4522 L 11810 4524 L 11812 4526 L 11814 4528 L 11816 4530 L 11818 4532 L 11820 4534 L 11820 4536 L 11822 4538 L 11824 4544 L 11830 4558 L 11836 4572 L 11842 4584 L 11850 4614 L 11856 4636 L 11862 4656" stroke="#FF0000" stroke-width="35" fill="none" stroke-linecap="round" stroke-linejoin="round"/>
<path d="M 11954 4350 L 11954 4318 L 11954 4268 L 11954 4264 L 11954 4266 L 11956 4298 L 11968 4444 L 11994 4664 L 12000 4708" stroke="#FF0000" stroke-width="35" fill="none" stroke-linecap="round" stroke-linejoin="round"/>
<path d="M 12050 4644 L 12054 4614 L 12054 4584 L 12054 4562 L 12054 4540 L 12054 4516 L 12054 4494 L 12026 4494 L 12026 4472 L 11990 4472 L 11946 4472 L 11916 4472" stroke="#FF0000" stroke-width="35" fill="none" stroke-linecap="round" stroke-linejoin="round"/>
<path d="M 12116 4606 L 12138 4530 L 12138 4524 L 12138 4520 L 12138 4520 L 12138 4518 L 12136 4518 L 12136 4518 L 12136 4516 L 12136 4516 L 12136 4516 L 12136 4514 L 12136 4514 L 12136 4514 L 12136 4512 L 12136 4512 L 12136 4512 L 12136 4512 L 12136 4510 L 12138 4510 L 12138 4510 L 12138 4508 L 12138 4508 L 12138 4508 L 12138 4506 L 12138 4506 L 12140 4506 L 12140 4506 L 12140 4504 L 12142 4504 L 12270 4524 L 12348 4524 L 12350 4524 L 12352 4524 L 12352 4524 L 12354 4524 L 12354 4524 L 12356 4524 L 12356 4524 L 12358 4524 L 12358 4524 L 12360 4524 L 12360 4522 L 12362 4522 L 12362 4522 L 12364 4520 L 12364 4520 L 12366 4520 L 12366 4518 L 12368 4518 L 12368 4518 L 12368 4516 L 12370 4516 L 12370 4514 L 12372 4514 L 12372 4514 L 12372 4512 L 12372 4512 L 12374 4510 L 12374 4510 L 12374 4508 L 12374 4506 L 12376 4504 L 12378 4466 L 12378 4466 L 12378 4466 L 12378 4464 L 12378 4464 L 12378 4464 L 12378 4464 L 12378 4464 L 12378 4464 L 12378 4464 L 12378 4464 L 12378 4464 L 12378 4464 L 12378 4464 L 12378 4464 L 12378 4464 L 12378 4462 L 12378 4462 L 12378 4462 L 12378 4462 L 12378 4462 L 12378 4462 L 12378 4462 L 12378 4462 L 12378 4462 L 12378 4462 L 12378 4462 L 12378 4462 L 12376 4462 L 12376 4462 L 12376 4462 L 12376 4462 L 12376 4462 L 12376 4462 L 12376 4462 L 12376 4462 L 12376 4462 L 12376 4462 L 12376 4462 L 12376 4462 L 12376 4462 L 12374 4462 L 12374 4462 L 12374 4462 L 12374 4462 L 12374 4462 L 12374 4462 L 12374 4462 L 12374 4462 L 12374 4462 L 12374 4462 L 12374 4462 L 12374 4462 L 12374 4462 L 12372 4462 L 12372 4462 L 12372 4462 L 12366 4462 L 12360 4462 L 12354 4462 L 12348 4462 L 12344 4462 L 12338 4464 L 12332 4464 L 12326 4466 L 12320 4468 L 12314 4470 L 12310 4472 L 12298 4476 L 12296 4478 L 12292 4480 L 12288 4482 L 12284 4484 L 12280 4486 L 12278 4488 L 12274 4492 L 12270 4494 L 12268 4496 L 12264 4500 L 12262 4502 L 12258 4506 L 12256 4510 L 12254 4512 L 12252 4516 L 12250 4520 L 12248 4524 L 12246 4528 L 12244 4532 L 12242 4536 L 12240 4540 L 12238 4548 L 12238 4572 L 12238 4582 L 12236 4592 L 12238 4602 L 12238 4614 L 12242 4644 L 12244 4646 L 12244 4648 L 12244 4652 L 12246 4654 L 12246 4656 L 12248 4658 L 12250 4660 L 12250 4662 L 12252 4664 L 12254 4666 L 12256 4668 L 12256 4670 L 12258 4672 L 12260 4674 L 12262 4676 L 12264 4678 L 12266 4678 L 12268 4680 L 12272 4682 L 12274 4682 L 12276 4684 L 12278 4684 L 12280 4686 L 12282 4686 L 12286 4688 L 12292 4688 L 12308 4692 L 12316 4694 L 12322 4696 L 12330 4698 L 12336 4700 L 12344 4700 L 12352 4702 L 12358 4702 L 12366 4702 L 12372 4702 L 12380 4700 L 12388 4700 L 12394 4698 L 12416 4694 L 12428 4684 L 12440 4674 L 12450 4664 L 12462 4654 L 12486 4626 L 12542 4570 L 12542 4570 L 12542 4570 L 12544 4570 L 12544 4568 L 12544 4568 L 12546 4568 L 12546 4566 L 12546 4566 L 12546 4566 L 12548 4564 L 12548 4564 L 12548 4564 L 12548 4562 L 12548 4562 L 12550 4562 L 12550 4560 L 12550 4560 L 12550 4558 L 12550 4558 L 12550 4556 L 12550 4556 L 12550 4556 L 12550 4554 L 12550 4554 L 12550 4552 L 12550 4552 L 12550 4550 L 12550 4546 L 12550 4542 L 12550 4542 L 12552 4542 L 12552 4542 L 12554 4544 L 12556 4544 L 12556 4544 L 12558 4546 L 12558 4546 L 12560 4548 L 12560 4548 L 12562 4548 L 12562 4550 L 12562 4550 L 12564 4552 L 12564 4552 L 12564 4554 L 12566 4556 L 12566 4556 L 12566 4558 L 12568 4558 L 12568 4560 L 12568 4560 L 12568 4564 L 12580 4604 L 12584 4616 L 12584 4618 L 12586 4618 L 12586 4620 L 12588 4622 L 12588 4622 L 12590 4624 L 12590 4624 L 12592 4626 L 12592 4626 L 12594 4628 L 12596 4628 L 12596 4630 L 12598 4630 L 12600 4630 L 12600 4632 L 12602 4632 L 12604 4632 L 12604 4634 L 12606 4634 L 12608 4634 L 12610 4634 L 12610 4634 L 12614 4634 L 12652 4636 L 12658 4636 L 12660 4636 L 12660 4636 L 12662 4636 L 12662 4636 L 12664 4636 L 12666 4634 L 12666 4634 L 12668 4634 L 12668 4634 L 12670 4634 L 12670 4632 L 12672 4632 L 12672 4632 L 12674 4630 L 12674 4630 L 12676 4630 L 12676 4628 L 12676 4628 L 12678 4626 L 12684 4620 L 12698 4616 L 12700 4614 L 12704 4614 L 12706 4612 L 12710 4610 L 12712 4610 L 12716 4608 L 12718 4606 L 12720 4604 L 12722 4602 L 12726 4600 L 12728 4598 L 12730 4596 L 12736 4590 L 12738 4586 L 12750 4572 L 12780 4570 L 12782 4570 L 12782 4572 L 12784 4572 L 12784 4572 L 12786 4574 L 12788 4574 L 12788 4576 L 12790 4576 L 12790 4578 L 12792 4580 L 12792 4580 L 12794 4582 L 12794 4582 L 12796 4584 L 12796 4586 L 12796 4586 L 12798 4588 L 12798 4590 L 12798 4592 L 12798 4592 L 12798 4594 L 12800 4596 L 12800 4598 L 12800 4598 L 12800 4600 L 12800 4602 L 12800 4604 L 12800 4604 L 12798 4608 L 12798 4678 L 12798 4700 L 12792 4724 L 12770 4744" stroke="#FF0000" stroke-width="35" fill="none" stroke-linecap="round" stroke-linejoin="round"/>
<path d="M 12848 4290 L 12864 4228 L 12870 4202 L 12884 4128 L 12884 4128 L 12884 4128 L 12884 4128 L 12884 4128 L 12884 4128 L 12884 4126 L 12884 4126 L 12884 4126 L 12884 4126 L 12884 4126 L 12886 4126 L 12886 4126 L 12886 4126 L 12886 4126 L 12886 4126 L 12886 4126 L 12886 4126 L 12886 4124 L 12886 4124 L 12886 4124 L 12886 4124 L 12888 4124 L 12888 4124 L 12888 4124 L 12888 4124 L 12888 4124 L 12888 4124 L 12888 4124 L 12888 4124 L 12888 4124 L 12888 4124 L 12890 4124 L 12890 4124 L 12890 4124 L 12890 4124 L 12890 4124 L 12890 4124 L 12890 4124 L 12890 4124 L 12890 4124 L 12892 4124 L 12892 4124 L 12892 4124 L 12892 4124 L 12892 4124 L 12892 4124 L 12892 4126 L 12892 4126 L 12892 4126 L 12892 4126 L 12892 4126 L 12894 4126 L 12894 4126 L 12894 4126 L 12894 4126 L 12894 4126 L 12894 4126 L 12894 4126 L 12894 4128 L 12894 4128 L 12894 4128 L 12894 4128 L 12894 4128 L 12894 4128 L 12896 4370 L 12896 4618 L 12896 4670" stroke="#FF0000" stroke-width="35" fill="none" stroke-linecap="round" stroke-linejoin="round"/>
<path d="M 12936 4558 L 12940 4528 L 12940 4502 L 12940 4480 L 12940 4460 L 12940 4432 L 12912 4432 L 12874 4432 L 12824 4432 L 12794 4436 L 12794 4440 L 12750 4448 L 12750 4460" stroke="#FF0000" stroke-width="35" fill="none" stroke-linecap="round" stroke-linejoin="round"/>
<path d="M 13082 4548 L 13084 4548 L 13088 4546 L 13090 4546 L 13092 4544 L 13096 4544 L 13098 4542 L 13100 4540 L 13102 4540 L 13104 4538 L 13108 4536 L 13110 4534 L 13112 4532 L 13114 4530 L 13116 4528 L 13118 4526 L 13118 4524 L 13120 4522 L 13122 4520 L 13124 4516 L 13124 4514 L 13126 4512 L 13128 4510 L 13128 4506 L 13128 4504 L 13130 4502 L 13130 4498 L 13130 4496 L 13132 4492 L 13132 4486 L 13132 4484 L 13106 4484 L 13106 4484 L 13104 4484 L 13104 4484 L 13104 4484 L 13104 4484 L 13104 4484 L 13102 4484 L 13102 4486 L 13102 4486 L 13102 4486 L 13102 4486 L 13102 4486 L 13102 4486 L 13100 4486 L 13100 4488 L 13100 4488 L 13100 4488 L 13100 4488 L 13100 4488 L 13100 4490 L 13100 4490 L 13100 4490 L 13100 4490 L 13100 4490 L 13100 4492 L 13100 4492 L 13100 4492 L 13098 4492 L 13098 4492 L 13100 4494 L 13100 4494 L 13096 4504 L 13094 4506 L 13092 4508 L 13090 4510 L 13088 4514 L 13086 4516 L 13084 4518 L 13082 4522 L 13082 4524 L 13080 4528 L 13078 4530 L 13078 4534 L 13076 4536 L 13076 4540 L 13074 4542 L 13074 4546 L 13074 4548 L 13074 4552 L 13074 4556 L 13074 4558 L 13074 4562 L 13074 4564 L 13076 4572 L 13076 4582 L 13076 4590 L 13078 4598 L 13080 4606 L 13080 4614 L 13084 4622 L 13086 4630 L 13088 4638 L 13098 4660 L 13116 4700 L 13118 4706 L 13118 4712 L 13120 4718 L 13120 4724 L 13120 4730 L 13122 4736 L 13120 4752 L 13120 4768 L 13120 4770 L 13118 4772 L 13116 4774 L 13116 4776 L 13114 4778 L 13114 4780 L 13112 4782 L 13110 4784 L 13108 4786 L 13106 4786 L 13106 4788 L 13104 4790 L 13102 4792 L 13100 4792 L 13098 4794 L 13096 4794 L 13094 4796 L 13092 4796 L 13090 4798 L 13088 4798 L 13084 4800 L 13082 4800 L 13080 4800 L 13076 4800 L 13022 4810 L 13008 4810 L 12974 4810" stroke="#FF0000" stroke-width="35" fill="none" stroke-linecap="round" stroke-linejoin="round"/>
<path d="M 13720 4270 L 13724 4228 L 13724 4226 L 13726 4224 L 13726 4224 L 13726 4224 L 13726 4222 L 13726 4222 L 13726 4222 L 13726 4220 L 13726 4220 L 13726 4218 L 13726 4218 L 13726 4218 L 13726 4216 L 13726 4216 L 13726 4216 L 13726 4214 L 13726 4214 L 13726 4214 L 13724 4212 L 13724 4212 L 13724 4212 L 13724 4210 L 13724 4210 L 13724 4210 L 13722 4208 L 13722 4208 L 13722 4208 L 13714 4208 L 13710 4206 L 13704 4206 L 13698 4206 L 13694 4206 L 13688 4206 L 13682 4208 L 13678 4208 L 13672 4210 L 13668 4210 L 13662 4212 L 13656 4214 L 13652 4216 L 13640 4222 L 13624 4242 L 13552 4290 L 13536 4304 L 13526 4310 L 13518 4316 L 13510 4324 L 13502 4332 L 13494 4340 L 13488 4348 L 13480 4358 L 13466 4378 L 13410 4494 L 13400 4516 L 13396 4520 L 13394 4524 L 13392 4528 L 13390 4534 L 13388 4538 L 13386 4544 L 13384 4548 L 13384 4554 L 13382 4558 L 13382 4564 L 13382 4576 L 13380 4602 L 13380 4614 L 13380 4624 L 13380 4634 L 13380 4646 L 13382 4656 L 13382 4666 L 13388 4688 L 13388 4692 L 13390 4694 L 13392 4698 L 13394 4700 L 13396 4704 L 13396 4706 L 13398 4708 L 13402 4712 L 13404 4714 L 13406 4716 L 13408 4718 L 13410 4720 L 13414 4724 L 13416 4726 L 13418 4726 L 13422 4728 L 13424 4730 L 13428 4732 L 13430 4734 L 13434 4734 L 13436 4736 L 13440 4736 L 13444 4738 L 13452 4738 L 13462 4740 L 13470 4742 L 13480 4742 L 13488 4744 L 13498 4744 L 13506 4744 L 13516 4742 L 13524 4742 L 13534 4740 L 13542 4738 L 13552 4736 L 13560 4734 L 13568 4730 L 13578 4728 L 13596 4718 L 13602 4714 L 13608 4712 L 13612 4708 L 13618 4704 L 13622 4700 L 13626 4694 L 13632 4690 L 13636 4686 L 13640 4680 L 13644 4676 L 13646 4670 L 13650 4664 L 13654 4658 L 13656 4654 L 13658 4648 L 13662 4642 L 13664 4636 L 13664 4628 L 13666 4622 L 13668 4616 L 13668 4610 L 13670 4594 L 13670 4580 L 13672 4572 L 13672 4566 L 13674 4560 L 13674 4552 L 13674 4546 L 13672 4538 L 13672 4532 L 13670 4526 L 13670 4518 L 13666 4504 L 13662 4500 L 13658 4494 L 13652 4490 L 13648 4486 L 13642 4480 L 13638 4476 L 13632 4472 L 13626 4470 L 13620 4466 L 13614 4462 L 13608 4460 L 13602 4458 L 13596 4456 L 13590 4454 L 13584 4452 L 13578 4450 L 13572 4448 L 13564 4448 L 13558 4448 L 13540 4446 L 13474 4454 L 13472 4454 L 13472 4454 L 13472 4454 L 13472 4454 L 13472 4454 L 13470 4454 L 13470 4454 L 13470 4454 L 13470 4454 L 13470 4454 L 13470 4454 L 13468 4454 L 13468 4456 L 13468 4456 L 13468 4456 L 13468 4456 L 13468 4456 L 13468 4456 L 13466 4458 L 13466 4458 L 13466 4458 L 13466 4458 L 13466 4458 L 13466 4458 L 13466 4460 L 13466 4460 L 13466 4460 L 13466 4460 L 13466 4460 L 13466 4462 L 13466 4462 L 13466 4462 L 13466 4462 L 13466 4464" stroke="#FF0000" stroke-width="35" fill="none" stroke-linecap="round" stroke-linejoin="round"/>
<path d="M 13774 4592 L 13778 4566 L 13778 4560 L 13778 4576 L 13778 4604 L 13780 4612 L 13780 4620 L 13782 4628 L 13782 4634 L 13782 4642 L 13780 4650 L 13780 4658 L 13778 4666 L 13778 4672 L 13772 4690 L 13766 4700 L 13764 4704 L 13762 4706 L 13760 4710 L 13760 4714 L 13758 4716 L 13756 4720 L 13754 4724 L 13754 4728 L 13752 4732 L 13752 4736 L 13752 4740 L 13752 4744 L 13750 4754 L 13756 4738 L 13760 4720 L 13766 4704 L 13788 4656 L 13812 4604 L 13816 4594 L 13834 4550 L 13836 4550 L 13836 4548 L 13836 4546 L 13838 4544 L 13838 4542 L 13840 4542 L 13840 4540 L 13842 4538 L 13844 4538 L 13844 4536 L 13846 4534 L 13848 4534 L 13848 4532 L 13850 4532 L 13852 4530 L 13854 4530 L 13854 4530 L 13856 4528 L 13858 4528 L 13860 4528 L 13862 4526 L 13864 4526 L 13876 4522 L 13890 4502" stroke="#FF0000" stroke-width="35" fill="none" stroke-linecap="round" stroke-linejoin="round"/>
<path d="M 13964 4604 L 13970 4604 L 13990 4602 L 13998 4592 L 13998 4592 L 13998 4592 L 13998 4592 L 13998 4592 L 13998 4592 L 14000 4592 L 14000 4592 L 14000 4592 L 14000 4592 L 14000 4592 L 14000 4592 L 14000 4592 L 14002 4592 L 14002 4592 L 14002 4592 L 14002 4592 L 14002 4594 L 14002 4594 L 14002 4594 L 14002 4594 L 14004 4594 L 14004 4594 L 14004 4594 L 14004 4594 L 14004 4594 L 14004 4596 L 14004 4596 L 14004 4596 L 14004 4596 L 14004 4596 L 14004 4596 L 14004 4596 L 14004 4598 L 14004 4598 L 14004 4598 L 14004 4598 L 14004 4598 L 14004 4598 L 14004 4600 L 14004 4600 L 14004 4600 L 14004 4600 L 14004 4600 L 14010 4616 L 14016 4708 L 14018 4722" stroke="#FF0000" stroke-width="35" fill="none" stroke-linecap="round" stroke-linejoin="round"/>
<path d="M 14064 4488 L 14064 4436 L 14064 4384 L 14064 4330 L 14064 4280 L 14064 4234 L 14064 4196 L 14064 4164 L 14064 4140 L 14064 4120" stroke="#FF0000" stroke-width="35" fill="none" stroke-linecap="round" stroke-linejoin="round"/>
<path d="M 14206 4510 L 14208 4606 L 14208 4606 L 14208 4608 L 14208 4608 L 14208 4608 L 14208 4610 L 14208 4610 L 14206 4612 L 14206 4612 L 14206 4612 L 14206 4614 L 14206 4614 L 14206 4614 L 14206 4616 L 14204 4616 L 14204 4616 L 14204 4616 L 14204 4618 L 14202 4618 L 14202 4618 L 14202 4620 L 14202 4620 L 14200 4620 L 14200 4620 L 14200 4620 L 14198 4622 L 14198 4622 L 14198 4622 L 14196 4622 L 14196 4622 L 14194 4624 L 14194 4624 L 14192 4624 L 14192 4624 L 14190 4626 L 14190 4626 L 14188 4626 L 14188 4628 L 14188 4628 L 14186 4630 L 14186 4630 L 14186 4630 L 14184 4632 L 14184 4632 L 14184 4634 L 14184 4634 L 14182 4636 L 14182 4636 L 14182 4638 L 14182 4638 L 14182 4640 L 14182 4640 L 14182 4642 L 14182 4642 L 14182 4644 L 14182 4644 L 14182 4648 L 14180 4666 L 14180 4668 L 14180 4672 L 14180 4674 L 14180 4678 L 14180 4680 L 14180 4684 L 14180 4686 L 14182 4690 L 14182 4692 L 14182 4696 L 14184 4702 L 14186 4704 L 14186 4704 L 14188 4706 L 14190 4706 L 14190 4708 L 14192 4708 L 14194 4710 L 14196 4710 L 14196 4712 L 14198 4712 L 14200 4712 L 14202 4714 L 14204 4714 L 14204 4714 L 14206 4714 L 14208 4716 L 14210 4716 L 14212 4716 L 14214 4716 L 14214 4716 L 14216 4716 L 14218 4716 L 14222 4716 L 14226 4714 L 14230 4712 L 14234 4712 L 14240 4710 L 14244 4708 L 14248 4706 L 14252 4704 L 14256 4702 L 14258 4698 L 14262 4696 L 14266 4694 L 14270 4690 L 14272 4688 L 14276 4684 L 14278 4680 L 14282 4676 L 14288 4666 L 14296 4656 L 14304 4644 L 14312 4632 L 14318 4620 L 14332 4586 L 14338 4572 L 14342 4554 L 14344 4538 L 14346 4522 L 14350 4490 L 14350 4488 L 14348 4488 L 14348 4488 L 14348 4486 L 14348 4486 L 14346 4486 L 14346 4486 L 14346 4484 L 14346 4484 L 14344 4484 L 14344 4484 L 14344 4484 L 14342 4484 L 14342 4482 L 14342 4482 L 14340 4482 L 14340 4482 L 14340 4482 L 14338 4482 L 14338 4482 L 14336 4482 L 14336 4482 L 14336 4482 L 14334 4482 L 14334 4482 L 14334 4482 L 14332 4482 L 14332 4482 L 14332 4482 L 14330 4484 L 14324 4484 L 14318 4484 L 14288 4484" stroke="#FF0000" stroke-width="35" fill="none" stroke-linecap="round" stroke-linejoin="round"/>
<path d="M 14302 4462 L 14324 4420 L 14330 4410 L 14336 4400 L 14342 4388 L 14346 4378 L 14352 4368 L 14356 4356 L 14358 4346 L 14362 4334 L 14364 4322 L 14368 4296 L 14368 4294 L 14368 4294 L 14368 4294 L 14368 4292 L 14368 4292 L 14368 4292 L 14368 4290 L 14368 4290 L 14368 4290 L 14368 4288 L 14368 4288 L 14368 4288 L 14368 4288 L 14368 4286 L 14368 4286 L 14368 4286 L 14368 4284 L 14368 4284 L 14368 4284 L 14368 4282 L 14370 4282 L 14370 4282 L 14370 4282 L 14370 4280 L 14370 4280 L 14370 4280 L 14372 4280 L 14372 4280 L 14372 4278 L 14372 4278 L 14374 4278 L 14374 4278 L 14376 4276 L 14376 4304 L 14376 4326 L 14378 4336 L 14378 4346 L 14378 4356 L 14378 4366 L 14376 4376 L 14372 4398 L 14366 4416 L 14362 4434 L 14358 4452 L 14356 4470 L 14354 4488 L 14352 4530 L 14352 4548 L 14350 4576 L 14350 4604 L 14352 4632 L 14356 4660 L 14360 4688 L 14372 4748 L 14376 4766" stroke="#FF0000" stroke-width="35" fill="none" stroke-linecap="round" stroke-linejoin="round"/>
<path d="M 14588 4150 L 14588 4146 L 14590 4144 L 14590 4140 L 14590 4138 L 14590 4136 L 14592 4132 L 14592 4130 L 14592 4128 L 14594 4124 L 14594 4122 L 14596 4120 L 14598 4118 L 14598 4116 L 14602 4110 L 14602 4110 L 14602 4118 L 14604 4148 L 14604 4162 L 14606 4174 L 14606 4186 L 14604 4200 L 14604 4212 L 14598 4248 L 14588 4272 L 14586 4280 L 14582 4288 L 14580 4296 L 14578 4304 L 14576 4312 L 14574 4320 L 14572 4328 L 14572 4348 L 14572 4372 L 14572 4384 L 14574 4396 L 14572 4406 L 14572 4418 L 14570 4430 L 14566 4454 L 14558 4482 L 14554 4488 L 14552 4496 L 14548 4504 L 14546 4512 L 14546 4520 L 14544 4528 L 14542 4550 L 14542 4588 L 14540 4644 L 14542 4660 L 14542 4656 L 14550 4616 L 14558 4576 L 14570 4538 L 14582 4500 L 14596 4462 L 14640 4366 L 14646 4358 L 14650 4350 L 14656 4342 L 14660 4334 L 14666 4326 L 14672 4320 L 14678 4314 L 14686 4306 L 14692 4300 L 14700 4294 L 14708 4288 L 14716 4284 L 14738 4270 L 14740 4270 L 14740 4270 L 14740 4270 L 14740 4268 L 14742 4268 L 14742 4268 L 14742 4268 L 14744 4268 L 14744 4268 L 14744 4268 L 14746 4268 L 14746 4266 L 14746 4266 L 14748 4266 L 14748 4266 L 14748 4266 L 14750 4266 L 14750 4266 L 14750 4266 L 14752 4266 L 14752 4266 L 14752 4268 L 14754 4268 L 14754 4268 L 14754 4268 L 14756 4268 L 14756 4268 L 14756 4268 L 14756 4268 L 14758 4270 L 14758 4270 L 14758 4270 L 14758 4270 L 14760 4270 L 14760 4272 L 14760 4272 L 14760 4272 L 14762 4272 L 14762 4274 L 14762 4274 L 14762 4274 L 14762 4276 L 14762 4276 L 14764 4276 L 14764 4276 L 14764 4278 L 14764 4278 L 14764 4278 L 14764 4280 L 14764 4280 L 14764 4282 L 14766 4322 L 14766 4328 L 14768 4340 L 14768 4346 L 14768 4350 L 14768 4354 L 14768 4358 L 14768 4362 L 14768 4366 L 14766 4372 L 14766 4376 L 14764 4380 L 14762 4390 L 14708 4486 L 14704 4492 L 14702 4498 L 14698 4504 L 14694 4508 L 14690 4514 L 14686 4520 L 14674 4530 L 14664 4542 L 14662 4544 L 14656 4552 L 14648 4558 L 14642 4566 L 14634 4574 L 14626 4580 L 14618 4586 L 14610 4592 L 14602 4598 L 14582 4610 L 14580 4610 L 14580 4610 L 14580 4610 L 14580 4610 L 14578 4610 L 14578 4610 L 14578 4610 L 14578 4610 L 14578 4610 L 14576 4612 L 14576 4612 L 14576 4612 L 14576 4612 L 14576 4612 L 14574 4614 L 14574 4614 L 14574 4614 L 14574 4614 L 14574 4614 L 14574 4616 L 14574 4616 L 14572 4616 L 14572 4616 L 14572 4618 L 14572 4618 L 14572 4618 L 14572 4618 L 14572 4620 L 14572 4620 L 14572 4620 L 14572 4620 L 14572 4622 L 14572 4622 L 14572 4622 L 14572 4622 L 14572 4624 L 14572 4624 L 14572 4624 L 14572 4624 L 14572 4626 L 14574 4626 L 14574 4626 L 14574 4626 L 14574 4628 L 14590 4642 L 14620 4650 L 14636 4654 L 14652 4658 L 14666 4664 L 14682 4670 L 14724 4690 L 14860 4780 L 14880 4790" stroke="#FF0000" stroke-width="35" fill="none" stroke-linecap="round" stroke-linejoin="round"/>
<path d="M 14896 4636 L 14872 4618 L 14866 4610 L 14866 4606 L 14866 4602 L 14866 4598 L 14864 4596 L 14864 4592 L 14862 4588 L 14862 4586 L 14860 4582 L 14858 4580 L 14858 4576 L 14856 4574 L 14854 4570 L 14852 4568 L 14846 4562 L 14844 4556 L 14844 4554 L 14844 4554 L 14842 4554 L 14842 4552 L 14842 4552 L 14842 4552 L 14842 4552 L 14842 4550 L 14842 4550 L 14842 4550 L 14842 4550 L 14842 4550 L 14842 4548 L 14842 4548 L 14842 4548 L 14842 4548 L 14844 4546 L 14844 4546 L 14844 4546 L 14844 4546 L 14844 4546 L 14844 4544 L 14844 4544 L 14844 4544 L 14844 4544 L 14846 4544 L 14846 4544 L 14846 4542 L 14846 4542 L 14846 4542 L 14846 4542 L 14848 4542 L 14848 4542 L 14848 4542 L 14848 4540 L 14848 4540 L 14850 4540 L 14850 4540 L 14850 4540 L 14850 4540 L 14850 4540 L 14852 4540 L 14852 4540 L 14852 4540 L 14852 4540 L 14854 4540 L 14854 4540 L 14854 4540 L 14854 4540 L 14856 4540 L 14856 4540 L 14856 4540 L 14858 4540 L 14884 4546 L 14912 4552 L 14940 4554 L 15002 4558 L 15006 4558 L 15008 4558 L 15010 4556 L 15012 4556 L 15016 4556 L 15018 4554 L 15020 4554 L 15022 4552 L 15024 4550 L 15026 4550 L 15028 4548 L 15030 4546 L 15032 4544 L 15034 4544 L 15036 4542 L 15038 4540 L 15040 4538 L 15042 4536 L 15042 4534 L 15044 4532 L 15046 4530 L 15048 4524 L 15052 4518 L 15054 4512 L 15056 4506 L 15058 4502 L 15060 4496 L 15062 4490 L 15064 4484 L 15064 4478 L 15066 4472 L 15066 4460 L 15062 4460 L 15052 4458 L 15046 4458 L 15042 4458 L 15036 4458 L 15032 4458 L 15026 4460 L 15022 4460 L 15016 4460 L 15012 4462 L 15006 4464 L 15002 4464 L 14990 4470 L 14984 4472 L 14978 4476 L 14974 4480 L 14968 4484 L 14964 4488 L 14958 4492 L 14954 4496 L 14950 4500 L 14944 4506 L 14940 4510 L 14938 4516 L 14934 4520 L 14930 4526 L 14926 4532 L 14924 4538 L 14918 4552 L 14914 4562 L 14910 4572 L 14908 4582 L 14904 4594 L 14902 4604 L 14900 4616 L 14898 4626 L 14898 4656 L 14898 4688 L 14896 4702 L 14896 4716 L 14896 4730 L 14896 4744 L 14898 4758 L 14906 4794 L 14906 4798 L 14908 4802 L 14908 4804 L 14910 4808 L 14912 4812 L 14914 4814 L 14916 4818 L 14918 4820 L 14920 4824 L 14922 4826 L 14926 4828 L 14928 4832 L 14930 4834 L 14934 4836 L 14936 4838 L 14940 4840 L 14942 4842 L 14946 4844 L 14948 4846 L 14952 4848 L 14956 4850 L 14958 4850 L 14962 4852 L 14966 4852 L 14970 4854 L 14974 4854 L 14982 4854 L 15008 4856 L 15034 4856" stroke="#FF0000" stroke-width="35" fill="none" stroke-linecap="round" stroke-linejoin="round"/>
<path d="M 15350 4320 L 15362 4176 L 15340 4184 L 15336 4186 L 15334 4188 L 15332 4190 L 15330 4194 L 15326 4196 L 15324 4198 L 15322 4202 L 15320 4204 L 15318 4208 L 15318 4212 L 15316 4214 L 15314 4218 L 15314 4222 L 15312 4224 L 15312 4228 L 15310 4232 L 15310 4234 L 15310 4238 L 15308 4248 L 15308 4254 L 15308 4260 L 15306 4266 L 15306 4272 L 15304 4276 L 15302 4282 L 15300 4288 L 15294 4304 L 15292 4308 L 15290 4314 L 15286 4320 L 15284 4326 L 15284 4332 L 15282 4338 L 15280 4344 L 15278 4364 L 15280 4392 L 15280 4406 L 15280 4422 L 15280 4436 L 15278 4452 L 15274 4482 L 15266 4514 L 15260 4528 L 15256 4544 L 15254 4560 L 15250 4576 L 15248 4616 L 15248 4672 L 15250 4700 L 15250 4726 L 15250 4754 L 15242 4822 L 15234 4858 L 15230 4870 L 15226 4884 L 15224 4898 L 15222 4912 L 15220 4944 L 15220 4968 L 15220 4976 L 15222 4984 L 15222 4992 L 15222 5000 L 15220 5008 L 15220 5016 L 15218 5024 L 15214 5042 L 15206 5060 L 15196 5076 L 15188 5094 L 15158 5136 L 15154 5138 L 15150 5142 L 15148 5146 L 15144 5150 L 15140 5152 L 15136 5156 L 15132 5158 L 15128 5160 L 15122 5162 L 15118 5164 L 15114 5166 L 15110 5168 L 15104 5170 L 15100 5172 L 15096 5172 L 15090 5174 L 15076 5174 L 15070 5176" stroke="#FF0000" stroke-width="35" fill="none" stroke-linecap="round" stroke-linejoin="round"/>
<path d="M 15272 4648 L 15286 4624 L 15290 4606 L 15300 4584 L 15306 4566 L 15308 4566 L 15312 4536 L 15312 4516 L 15280 4494 L 15238 4472 L 15210 4472 L 15182 4452 L 15154 4452" stroke="#FF0000" stroke-width="35" fill="none" stroke-linecap="round" stroke-linejoin="round"/>
<path d="M 13530 40 L 13540 24 L 13544 24 L 13544 24 L 13544 24 L 13546 24 L 13546 24 L 13546 24 L 13546 24 L 13546 24 L 13546 24 L 13546 24 L 13548 24 L 13548 24 L 13548 24 L 13548 24 L 13548 24 L 13548 24 L 13550 24 L 13550 24 L 13550 24 L 13550 24 L 13550 24 L 13550 24 L 13550 24 L 13552 22 L 13552 22 L 13552 22 L 13552 22 L 13552 22 L 13552 22 L 13552 22 L 13552 22 L 13554 22 L 13554 20 L 13554 20 L 13554 20 L 13554 20 L 13554 20 L 13554 20 L 13554 20 L 13554 18 L 13554 18 L 13554 18 L 13554 18 L 13554 18 L 13554 18 L 13554 16 L 13554 16 L 13554 16 L 13554 16 L 13554 16 L 13554 16 L 13554 16 L 13554 14 L 13554 14 L 13554 14 L 13554 14 L 13554 14 L 13554 12 L 13554 10 L 13554 24 L 13554 80 L 13556 102 L 13556 124 L 13556 148 L 13554 170 L 13548 222 L 13542 244 L 13536 268 L 13532 290 L 13528 312 L 13522 378 L 13510 530 L 13498 686 L 13500 744 L 13500 794 L 13492 924 L 13484 984 L 13476 1034 L 13464 1168 L 13450 1340 L 13436 1506 L 13436 1554 L 13438 1582 L 13438 1610 L 13432 1682 L 13422 1726 L 13418 1740 L 13414 1756 L 13412 1770 L 13408 1812 L 13408 2004 L 13408 2004 L 13408 2000 L 13408 1840 L 13412 1192 L 13458 548 L 13470 488 L 13470 488 L 13470 488 L 13470 490 L 13470 490 L 13470 490 L 13470 490 L 13470 490 L 13470 492 L 13470 492 L 13470 492 L 13470 492 L 13470 492 L 13470 494 L 13470 494 L 13470 494 L 13470 494 L 13470 494 L 13470 494 L 13472 496 L 13472 496 L 13472 496 L 13472 496 L 13472 496 L 13472 496 L 13472 498 L 13472 498 L 13474 498 L 13474 498 L 13474 498 L 13474 498 L 13474 498 L 13474 498 L 13476 500 L 13476 500 L 13476 500 L 13476 500 L 13476 500 L 13476 500 L 13478 500 L 13478 500 L 13478 500 L 13478 500 L 13478 500 L 13480 500 L 13480 500 L 13480 500 L 13480 500 L 13480 500 L 13482 500 L 13482 500 L 13482 500 L 13482 500 L 13484 498 L 13484 498 L 13486 498 L 13486 498 L 13488 496 L 13488 496 L 13490 496 L 13490 494 L 13490 494 L 13492 492 L 13492 492 L 13494 492 L 13494 490 L 13494 490 L 13494 488 L 13496 488 L 13496 486 L 13496 486 L 13496 484 L 13498 482 L 13498 480 L 13498 478 L 13498 478 L 13498 478 L 13498 476 L 13498 476 L 13498 476 L 13498 476 L 13498 474 L 13498 474 L 13498 474 L 13498 472 L 13498 472 L 13498 472 L 13498 472 L 13498 470 L 13498 470 L 13498 470 L 13498 470 L 13498 468 L 13498 468 L 13498 468 L 13500 468 L 13500 466 L 13500 466 L 13500 466 L 13500 466 L 13500 466 L 13502 464 L 13502 464 L 13502 464 L 13502 464 L 13504 464 L 13504 464 L 13504 464 L 13504 464 L 13504 462 L 13506 462 L 13506 462 L 13506 462 L 13506 462 L 13506 462 L 13506 462 L 13506 462 L 13506 462 L 13508 462 L 13508 460 L 13508 460 L 13508 460 L 13508 460 L 13508 460 L 13508 460 L 13508 460 L 13508 460 L 13508 458 L 13508 458 L 13508 458 L 13508 458 L 13508 458 L 13508 458 L 13508 456 L 13508 456 L 13508 456 L 13508 456 L 13508 456 L 13508 456 L 13508 456 L 13508 454 L 13508 454 L 13508 454 L 13508 454 L 13508 452 L 13508 452 L 13508 452 L 13508 452 L 13508 450 L 13508 450 L 13508 450 L 13508 450 L 13508 448 L 13508 448 L 13508 448 L 13510 448 L 13510 446 L 13510 446 L 13510 446 L 13510 446 L 13510 446 L 13510 444 L 13510 444 L 13512 444 L 13512 444 L 13512 444 L 13512 442 L 13512 442 L 13512 442 L 13514 442 L 13514 442 L 13514 442 L 13514 442 L 13516 442 L 13516 440 L 13516 440 L 13516 440 L 13516 440 L 13518 440 L 13518 440 L 13518 440 L 13520 440 L 13520 440 L 13520 448 L 13520 472 L 13522 482 L 13522 492 L 13522 500 L 13522 510 L 13520 520 L 13516 548 L 13510 566 L 13504 580 L 13502 592 L 13498 606 L 13496 618 L 13494 632 L 13490 666 L 13490 688 L 13488 712 L 13476 776 L 13470 798 L 13466 822 L 13460 888 L 13460 930 L 13462 970 L 13456 1066 L 13450 1112 L 13444 1152 L 13436 1254 L 13434 1376 L 13436 1642 L 13440 1668 L 13444 1696 L 13448 1722 L 13454 1748 L 13472 1804 L 13498 1898 L 13500 1910 L 13500 1916" stroke="#FF0000" stroke-width="35" fill="none" stroke-linecap="round" stroke-linejoin="round"/>
<path d="M 13862 1722 L 13862 1658 L 13862 1632 L 13862 1628 L 13862 1632 L 13878 2032 L 13882 2086 L 13884 2152 L 13890 2264 L 13894 2266 L 13900 2256 L 13916 2220 L 13934 2184 L 13936 2180 L 13938 2174 L 13942 2170 L 13946 2166 L 13948 2160 L 13952 2156 L 13956 2152 L 13960 2148 L 13964 2144 L 13968 2140 L 13972 2138 L 13978 2134 L 13990 2126 L 14008 2118 L 14014 2116 L 14020 2112 L 14028 2110 L 14034 2108 L 14042 2106 L 14048 2104 L 14068 2100 L 14070 2100 L 14070 2100 L 14072 2100 L 14072 2100 L 14074 2100 L 14076 2100 L 14076 2102 L 14078 2102 L 14080 2102 L 14080 2102 L 14082 2102 L 14082 2104 L 14084 2104 L 14084 2104 L 14086 2106 L 14086 2106 L 14088 2106 L 14088 2108 L 14090 2110 L 14092 2112 L 14094 2114 L 14094 2116 L 14096 2118 L 14096 2120 L 14098 2122 L 14098 2124 L 14098 2126 L 14100 2128 L 14100 2130 L 14100 2134 L 14100 2136 L 14100 2138 L 14100 2144 L 14100 2150 L 14100 2156 L 14100 2162 L 14098 2168 L 14098 2176 L 14096 2182 L 14094 2188 L 14092 2194 L 14090 2198 L 14088 2204 L 14080 2218 L 14076 2224 L 14072 2228 L 14068 2234 L 14064 2238 L 14058 2244 L 14054 2248 L 14048 2252 L 14042 2256 L 14036 2260 L 14030 2264 L 14024 2268 L 14018 2270 L 14012 2274 L 13996 2278 L 13972 2288 L 13948 2296 L 13886 2310 L 13854 2316" stroke="#FF0000" stroke-width="35" fill="none" stroke-linecap="round" stroke-linejoin="round"/>
<path d="M 14340 2078 L 14340 2074 L 14338 2046 L 14338 2046 L 14338 2044 L 14336 2044 L 14336 2044 L 14336 2042 L 14334 2042 L 14334 2042 L 14334 2040 L 14332 2040 L 14332 2040 L 14330 2040 L 14330 2038 L 14328 2038 L 14328 2038 L 14328 2038 L 14326 2038 L 14326 2036 L 14324 2036 L 14324 2036 L 14322 2036 L 14322 2036 L 14320 2036 L 14320 2036 L 14318 2036 L 14318 2036 L 14316 2036 L 14310 2036 L 14304 2036 L 14300 2038 L 14300 2036 L 14298 2036 L 14298 2036 L 14298 2036 L 14296 2036 L 14296 2036 L 14294 2036 L 14294 2036 L 14292 2036 L 14292 2036 L 14292 2038 L 14290 2038 L 14290 2038 L 14288 2038 L 14288 2038 L 14288 2038 L 14286 2038 L 14286 2040 L 14286 2040 L 14284 2040 L 14284 2040 L 14284 2042 L 14282 2042 L 14282 2042 L 14282 2044 L 14280 2044 L 14280 2044 L 14280 2046 L 14280 2046 L 14278 2046 L 14278 2048 L 14278 2048 L 14278 2048 L 14278 2050 L 14278 2050 L 14278 2052 L 14276 2052 L 14276 2052 L 14276 2054 L 14276 2054 L 14276 2056 L 14276 2056 L 14276 2056 L 14276 2058 L 14276 2058 L 14278 2060 L 14278 2062 L 14278 2062 L 14276 2064 L 14276 2064 L 14276 2066 L 14276 2066 L 14276 2068 L 14276 2068 L 14276 2070 L 14274 2070 L 14274 2072 L 14274 2072 L 14274 2074 L 14272 2074 L 14272 2076 L 14272 2076 L 14270 2078 L 14270 2078 L 14270 2078 L 14268 2080 L 14268 2080 L 14266 2080 L 14266 2082 L 14264 2082 L 14262 2084 L 14260 2084 L 14260 2084 L 14258 2086 L 14258 2086 L 14256 2088 L 14256 2088 L 14256 2088 L 14254 2090 L 14254 2090 L 14252 2092 L 14252 2092 L 14252 2094 L 14250 2094 L 14250 2096 L 14250 2098 L 14250 2098 L 14248 2100 L 14248 2100 L 14248 2102 L 14248 2104 L 14248 2104 L 14248 2106 L 14248 2106 L 14248 2110 L 14248 2124 L 14248 2138 L 14248 2152 L 14250 2166 L 14252 2180 L 14256 2194 L 14258 2206 L 14270 2240 L 14272 2246 L 14274 2250 L 14278 2256 L 14280 2262 L 14284 2266 L 14288 2272 L 14292 2276 L 14296 2280 L 14300 2284 L 14304 2290 L 14310 2294 L 14314 2298 L 14320 2300 L 14324 2304 L 14330 2308 L 14336 2310 L 14340 2312 L 14346 2316 L 14352 2318 L 14368 2322 L 14374 2324 L 14382 2326 L 14388 2326 L 14396 2328 L 14402 2328 L 14410 2328 L 14416 2328 L 14424 2328 L 14432 2326 L 14450 2324 L 14468 2310" stroke="#FF0000" stroke-width="35" fill="none" stroke-linecap="round" stroke-linejoin="round"/>
<path d="M 14708 2112 L 14712 2074 L 14712 2072 L 14712 2072 L 14712 2072 L 14712 2070 L 14712 2070 L 14712 2070 L 14712 2068 L 14712 2068 L 14712 2068 L 14710 2066 L 14710 2066 L 14710 2066 L 14710 2066 L 14710 2064 L 14708 2064 L 14708 2064 L 14708 2064 L 14708 2062 L 14706 2062 L 14706 2062 L 14706 2062 L 14704 2060 L 14704 2060 L 14704 2060 L 14702 2060 L 14702 2060 L 14702 2060 L 14700 2060 L 14700 2060 L 14700 2060 L 14698 2058 L 14698 2058 L 14698 2058 L 14696 2058 L 14696 2058 L 14696 2058 L 14694 2060 L 14694 2058 L 14692 2058 L 14692 2058 L 14692 2058 L 14692 2056 L 14692 2056 L 14690 2056 L 14690 2054 L 14690 2054 L 14690 2054 L 14690 2052 L 14690 2052 L 14690 2052 L 14688 2050 L 14688 2050 L 14688 2050 L 14688 2048 L 14688 2048 L 14688 2048 L 14688 2046 L 14688 2046 L 14688 2046 L 14688 2044 L 14688 2044 L 14690 2044 L 14690 2042 L 14690 2042 L 14690 2040 L 14690 2040 L 14690 2040 L 14690 2038 L 14690 2038 L 14690 2038 L 14692 2036 L 14692 2036 L 14692 2036 L 14692 2034 L 14692 2034 L 14692 2034 L 14690 2032 L 14690 2032 L 14690 2032 L 14690 2030 L 14690 2030 L 14690 2030 L 14690 2028 L 14690 2028 L 14690 2028 L 14688 2026 L 14688 2026 L 14688 2026 L 14688 2024 L 14688 2024 L 14686 2024 L 14686 2022 L 14684 2022 L 14684 2024 L 14684 2024 L 14682 2024 L 14682 2024 L 14680 2024 L 14680 2024 L 14680 2024 L 14678 2024 L 14678 2022 L 14678 2022 L 14676 2022 L 14676 2022 L 14674 2022 L 14674 2022 L 14674 2022 L 14672 2022 L 14672 2020 L 14672 2020 L 14670 2020 L 14670 2020 L 14670 2020 L 14668 2018 L 14668 2018 L 14668 2018 L 14668 2016 L 14666 2016 L 14666 2016 L 14666 2016 L 14666 2014 L 14666 2014 L 14664 2014 L 14664 2012 L 14664 2012 L 14664 2010 L 14664 2010 L 14664 2010 L 14664 2008 L 14664 2008 L 14664 2008 L 14664 2006 L 14664 2004 L 14664 2002 L 14658 2002 L 14636 2002 L 14630 2002 L 14626 2002 L 14624 2002 L 14624 2000 L 14622 2000 L 14622 2000 L 14620 2000 L 14620 2000 L 14618 2000 L 14618 2000 L 14616 2000 L 14616 2000 L 14614 2000 L 14614 2000 L 14612 2000 L 14612 2000 L 14610 2000 L 14610 2000 L 14608 2002 L 14608 2002 L 14606 2002 L 14606 2002 L 14606 2004 L 14604 2004 L 14604 2004 L 14602 2004 L 14602 2006 L 14602 2006 L 14600 2006 L 14598 2008 L 14598 2010 L 14598 2010 L 14598 2010 L 14598 2012 L 14598 2012 L 14598 2012 L 14598 2014 L 14598 2014 L 14598 2016 L 14598 2016 L 14596 2016 L 14596 2016 L 14596 2018 L 14596 2018 L 14596 2018 L 14594 2020 L 14594 2020 L 14594 2020 L 14594 2020 L 14592 2022 L 14592 2022 L 14592 2022 L 14590 2022 L 14590 2024 L 14590 2024 L 14588 2024 L 14588 2024 L 14588 2024 L 14586 2024 L 14586 2024 L 14586 2024 L 14584 2024 L 14584 2026 L 14582 2026 L 14582 2026 L 14580 2026 L 14580 2026 L 14580 2026 L 14578 2026 L 14578 2026 L 14576 2026 L 14576 2026 L 14576 2026 L 14574 2028 L 14574 2028 L 14572 2028 L 14572 2028 L 14572 2028 L 14572 2030 L 14570 2030 L 14570 2030 L 14570 2032 L 14568 2032 L 14568 2032 L 14568 2032 L 14568 2034 L 14566 2034 L 14566 2036 L 14566 2036 L 14566 2036 L 14566 2038 L 14566 2038 L 14564 2038 L 14564 2040 L 14564 2040 L 14564 2042 L 14564 2042 L 14564 2044 L 14564 2048 L 14564 2052 L 14564 2054 L 14562 2058 L 14562 2060 L 14562 2064 L 14560 2068 L 14560 2070 L 14558 2074 L 14558 2076 L 14556 2080 L 14552 2086 L 14550 2090 L 14548 2092 L 14546 2096 L 14544 2098 L 14544 2102 L 14542 2106 L 14540 2108 L 14540 2112 L 14540 2116 L 14538 2118 L 14538 2122 L 14538 2132 L 14538 2138 L 14538 2144 L 14540 2150 L 14540 2156 L 14542 2162 L 14544 2168 L 14546 2172 L 14548 2178 L 14550 2184 L 14552 2190 L 14556 2194 L 14558 2200 L 14562 2204 L 14566 2210 L 14568 2214 L 14572 2218 L 14576 2224 L 14582 2228 L 14586 2232 L 14590 2236 L 14594 2238 L 14600 2242 L 14604 2246 L 14620 2254 L 14634 2260 L 14648 2266 L 14662 2272 L 14696 2282 L 14772 2296 L 14794 2298" stroke="#FF0000" stroke-width="35" fill="none" stroke-linecap="round" stroke-linejoin="round"/>
<path d="M 14680 1768 L 14680 1766 L 14680 1766 L 14680 1764 L 14680 1764 L 14680 1762 L 14680 1762 L 14680 1760 L 14682 1760 L 14682 1758 L 14682 1758 L 14682 1756 L 14682 1756 L 14684 1754 L 14684 1754 L 14684 1752 L 14686 1752 L 14686 1750 L 14686 1750 L 14688 1748 L 14688 1748 L 14688 1748 L 14690 1746 L 14690 1746 L 14692 1746 L 14692 1744 L 14694 1744 L 14694 1744 L 14696 1744 L 14696 1742 L 14698 1742 L 14698 1742 L 14700 1742 L 14700 1742 L 14702 1742 L 14704 1742 L 14706 1742 L 14706 1742 L 14706 1742 L 14708 1744 L 14708 1744 L 14708 1744 L 14710 1746 L 14710 1746 L 14710 1748 L 14710 1748 L 14710 1750 L 14712 1750 L 14712 1752 L 14712 1752 L 14712 1752 L 14712 1754 L 14712 1754 L 14712 1756 L 14712 1756 L 14712 1758 L 14712 1758 L 14712 1760 L 14712 1760 L 14712 1762 L 14712 1762 L 14712 1764 L 14712 1764 L 14710 1766 L 14710 1768 L 14710 1770 L 14710 1770 L 14710 1772 L 14710 1772 L 14710 1774 L 14710 1776 L 14710 1776 L 14710 1778 L 14710 1778 L 14710 1780 L 14710 1780 L 14710 1782 L 14710 1784 L 14710 1784 L 14712 1786 L 14712 1786 L 14712 1790 L 14716 1770 L 14718 1768 L 14718 1768 L 14718 1768 L 14718 1768 L 14718 1766 L 14718 1766 L 14718 1766 L 14718 1764 L 14718 1764 L 14718 1764 L 14718 1762 L 14718 1762 L 14718 1762 L 14718 1760 L 14718 1760 L 14718 1760 L 14718 1758 L 14718 1758 L 14718 1758 L 14718 1756 L 14716 1756 L 14716 1756 L 14716 1754 L 14716 1754 L 14716 1754 L 14714 1754 L 14714 1752 L 14714 1752 L 14714 1752 L 14714 1752 L 14712 1750 L 14712 1750 L 14710 1750 L 14708 1750 L 14708 1750 L 14706 1748 L 14706 1748 L 14706 1748 L 14704 1748 L 14704 1748 L 14702 1748 L 14702 1748 L 14700 1748 L 14700 1748 L 14698 1748 L 14698 1750 L 14696 1750 L 14696 1750 L 14694 1750 L 14694 1750 L 14694 1750 L 14692 1750 L 14692 1752 L 14690 1752 L 14690 1752 L 14690 1752 L 14688 1754 L 14688 1754 L 14688 1754 L 14686 1756 L 14684 1758 L 14684 1758 L 14684 1760 L 14682 1760 L 14682 1762 L 14680 1762 L 14680 1764 L 14678 1764 L 14678 1766 L 14676 1766 L 14676 1768 L 14674 1768 L 14674 1768 L 14672 1770 L 14670 1770 L 14670 1770 L 14668 1770 L 14668 1772 L 14664 1772 L 14660 1774 L 14658 1776 L 14656 1776 L 14654 1778 L 14652 1780 L 14650 1782 L 14648 1784 L 14646 1786 L 14644 1790 L 14642 1792 L 14640 1794 L 14638 1796 L 14638 1800 L 14636 1802 L 14634 1804 L 14634 1806 L 14632 1810 L 14632 1812 L 14632 1816 L 14630 1824 L 14630 1826 L 14630 1828 L 14630 1830 L 14630 1832 L 14630 1836 L 14628 1838 L 14628 1840 L 14626 1842 L 14626 1844 L 14626 1848 L 14624 1850 L 14622 1852 L 14622 1854 L 14620 1856 L 14618 1858 L 14618 1860 L 14614 1864 L 14612 1866 L 14610 1868 L 14608 1870 L 14606 1872 L 14606 1874 L 14604 1876 L 14602 1878 L 14602 1880 L 14600 1884 L 14600 1886 L 14598 1888 L 14598 1892 L 14598 1894 L 14596 1896 L 14596 1900 L 14596 1902 L 14596 1908 L 14594 1986 L 14592 2020 L 14590 2054 L 14592 2088 L 14600 2180 L 14602 2190 L 14606 2198 L 14608 2208 L 14612 2218 L 14616 2228 L 14620 2236 L 14624 2246 L 14640 2270 L 14642 2274 L 14646 2278 L 14648 2280 L 14652 2284 L 14654 2288 L 14658 2290 L 14662 2292 L 14664 2296 L 14668 2298 L 14672 2300 L 14676 2302 L 14680 2304 L 14684 2306 L 14688 2308 L 14692 2310 L 14698 2310 L 14702 2312 L 14706 2312 L 14710 2312 L 14722 2314 L 14724 2314 L 14724 2314 L 14726 2312 L 14726 2312 L 14726 2312 L 14728 2312 L 14728 2310 L 14730 2310 L 14730 2310 L 14730 2310 L 14732 2308 L 14732 2308 L 14732 2308 L 14734 2306 L 14734 2306 L 14734 2304 L 14734 2304 L 14736 2304 L 14736 2302 L 14736 2302 L 14736 2300 L 14736 2300 L 14736 2300 L 14738 2298 L 14738 2298 L 14738 2296 L 14738 2296 L 14738 2294 L 14742 2258 L 14742 2250 L 14746 2102 L 14744 2044 L 14744 2036 L 14744 2028 L 14742 2022 L 14740 2014 L 14740 2006 L 14738 2000 L 14734 1992 L 14728 1978 L 14726 1970 L 14724 1964 L 14720 1958 L 14718 1950 L 14716 1942 L 14716 1936 L 14714 1928 L 14714 1912 L 14714 1910 L 14714 1908 L 14712 1904 L 14712 1902 L 14712 1898 L 14712 1896 L 14710 1894 L 14710 1890 L 14710 1888 L 14708 1886 L 14706 1882 L 14706 1880 L 14704 1878 L 14702 1876 L 14702 1874 L 14700 1872 L 14698 1868 L 14696 1866 L 14694 1864 L 14690 1860 L 14680 1850 L 14650 1824 L 14638 1814 L 14638 1814 L 14636 1814 L 14636 1812 L 14634 1812 L 14634 1812 L 14632 1812 L 14632 1812 L 14630 1812 L 14630 1810 L 14628 1810 L 14628 1810 L 14628 1810 L 14626 1810 L 14626 1810 L 14624 1810 L 14624 1810 L 14622 1810 L 14622 1810 L 14620 1810 L 14620 1812 L 14618 1812 L 14618 1812 L 14616 1812 L 14616 1812 L 14614 1812 L 14614 1814 L 14614 1814 L 14612 1814 L 14612 1814 L 14610 1816 L 14610 1816 L 14610 1816 L 14608 1818 L 14608 1818 L 14608 1820 L 14608 1820 L 14606 1820 L 14606 1822 L 14606 1822 L 14606 1824 L 14604 1824 L 14604 1826 L 14604 1826 L 14604 1826 L 14604 1828 L 14604 1828 L 14604 1830 L 14600 1836 L 14598 1842 L 14596 1848 L 14594 1856 L 14594 1862 L 14592 1868 L 14590 1884 L 14592 1908 L 14594 1930 L 14596 1952 L 14600 1974 L 14606 1996 L 14612 2018 L 14626 2060 L 14702 2230 L 14740 2310 L 14758 2348 L 14776 2388 L 14792 2428 L 14804 2470 L 14816 2512 L 14826 2554 L 14834 2596 L 14840 2640 L 14848 2732 L 14848 2732 L 14848 2734 L 14848 2734 L 14846 2736 L 14846 2738 L 14846 2738 L 14846 2740 L 14846 2740 L 14846 2742 L 14846 2742 L 14844 2744 L 14844 2744 L 14844 2746 L 14844 2746 L 14842 2748 L 14842 2748 L 14842 2750 L 14840 2750 L 14840 2752 L 14840 2752 L 14838 2754 L 14838 2754 L 14836 2754 L 14836 2756 L 14834 2756 L 14834 2756 L 14832 2758 L 14832 2758 L 14830 2758 L 14830 2758 L 14826 2760 L 14784 2762 L 14772 2762 L 14766 2760 L 14758 2760 L 14750 2758 L 14744 2756 L 14736 2752 L 14730 2750 L 14722 2746 L 14716 2744 L 14708 2740 L 14702 2736 L 14696 2732 L 14690 2726 L 14684 2722 L 14678 2716 L 14674 2712 L 14668 2706 L 14664 2700 L 14658 2694 L 14648 2678 L 14606 2604 L 14602 2592 L 14600 2582 L 14598 2570 L 14596 2558 L 14594 2546 L 14594 2534 L 14594 2524 L 14594 2512 L 14598 2478 L 14600 2452 L 14600 2448 L 14602 2442 L 14602 2438 L 14604 2432 L 14606 2428 L 14608 2424 L 14610 2418 L 14612 2414 L 14614 2410 L 14616 2406 L 14620 2400 L 14622 2396 L 14626 2392 L 14630 2388 L 14632 2386 L 14636 2382 L 14640 2378 L 14644 2376 L 14648 2372 L 14660 2366 L 14670 2358 L 14682 2352 L 14694 2346 L 14706 2342 L 14718 2336 L 14730 2332 L 14760 2324 L 14772 2322 L 14784 2318 L 14794 2316 L 14824 2304 L 14842 2296 L 14878 2290" stroke="#FF0000" stroke-width="35" fill="none" stroke-linecap="round" stroke-linejoin="round"/>
<path d="M 15144 1674 L 15144 1674 L 15156 1654 L 15156 1654 L 15156 1654 L 15156 1654 L 15158 1654 L 15158 1654 L 15158 1654 L 15158 1654 L 15158 1654 L 15158 1654 L 15160 1654 L 15160 1654 L 15160 1652 L 15160 1652 L 15160 1652 L 15160 1652 L 15160 1652 L 15160 1652 L 15162 1652 L 15162 1652 L 15162 1652 L 15162 1650 L 15162 1650 L 15162 1650 L 15162 1650 L 15162 1650 L 15162 1650 L 15162 1648 L 15162 1648 L 15162 1648 L 15162 1648 L 15162 1648 L 15162 1648 L 15162 1648 L 15162 1646 L 15162 1646 L 15162 1646 L 15162 1646 L 15162 1644 L 15162 1644 L 15162 1644 L 15162 1644 L 15162 1642 L 15162 1642 L 15164 1642 L 15164 1642 L 15164 1640 L 15164 1640 L 15164 1640 L 15164 1640 L 15164 1638 L 15164 1638 L 15164 1638 L 15164 1638 L 15166 1638 L 15166 1636 L 15166 1636 L 15166 1636 L 15166 1636 L 15166 1636 L 15168 1634 L 15168 1634 L 15168 1634 L 15168 1634 L 15170 1634 L 15170 1634 L 15170 1634 L 15170 1634 L 15170 1634 L 15172 1632 L 15172 1632 L 15172 1632 L 15172 1632 L 15174 1632 L 15174 1632 L 15174 1632 L 15176 1632 L 15180 1622 L 15184 1614 L 15186 1628 L 15186 1646 L 15186 1650 L 15188 1656 L 15188 1660 L 15188 1666 L 15188 1670 L 15186 1676 L 15186 1682 L 15186 1686 L 15184 1692 L 15182 1696 L 15180 1706 L 15154 1748 L 15142 1800 L 15120 1856 L 15108 1918 L 15080 1984 L 15066 2052 L 15034 2124 L 15018 2198 L 14988 2272 L 14972 2340 L 14944 2404 L 14930 2460 L 14918 2488 L 14916 2494 L 14914 2500 L 14912 2506 L 14910 2512 L 14908 2518 L 14906 2524 L 14904 2530 L 14904 2536 L 14902 2548 L 14902 2588 L 14902 2606 L 14902 2620 L 14902 2596" stroke="#FF0000" stroke-width="35" fill="none" stroke-linecap="round" stroke-linejoin="round"/>
<path d="M 15516 2094 L 15516 2094 L 15516 2096 L 15516 2096 L 15516 2096 L 15516 2096 L 15516 2098 L 15516 2098 L 15516 2098 L 15516 2100 L 15516 2100 L 15516 2100 L 15516 2102 L 15516 2102 L 15516 2102 L 15516 2102 L 15516 2104 L 15514 2104 L 15514 2104 L 15514 2104 L 15514 2106 L 15514 2106 L 15514 2106 L 15512 2106 L 15512 2108 L 15512 2108 L 15512 2108 L 15512 2108 L 15510 2108 L 15510 2110 L 15510 2110 L 15510 2110 L 15508 2110 L 15508 2110 L 15508 2110 L 15506 2110 L 15506 2110 L 15506 2112 L 15506 2112 L 15504 2112 L 15504 2112 L 15504 2112 L 15502 2112 L 15502 2112 L 15502 2112 L 15500 2112 L 15500 2112 L 15500 2112 L 15498 2110 L 15494 2110 L 15492 2102 L 15490 2094 L 15490 2086 L 15490 2078 L 15488 2070 L 15490 2048 L 15490 2046 L 15490 2046 L 15490 2044 L 15490 2044 L 15490 2042 L 15490 2042 L 15490 2042 L 15490 2040 L 15490 2040 L 15492 2038 L 15492 2038 L 15492 2036 L 15492 2036 L 15494 2036 L 15494 2034 L 15494 2034 L 15494 2032 L 15496 2032 L 15496 2032 L 15496 2030 L 15498 2030 L 15498 2030 L 15500 2028 L 15500 2028 L 15500 2028 L 15502 2028 L 15502 2028 L 15504 2026 L 15506 2026 L 15510 2026 L 15512 2024 L 15516 2024 L 15518 2024 L 15522 2024 L 15526 2024 L 15528 2024 L 15532 2024 L 15536 2024 L 15542 2026 L 15548 2026 L 15552 2026 L 15556 2028 L 15560 2028 L 15564 2030 L 15568 2032 L 15572 2034 L 15576 2036 L 15580 2038 L 15584 2040 L 15588 2042 L 15592 2044 L 15596 2048 L 15598 2050 L 15602 2054 L 15610 2062 L 15612 2072 L 15616 2082 L 15618 2094 L 15620 2104 L 15622 2114 L 15622 2124 L 15624 2136 L 15624 2146 L 15624 2156 L 15622 2178 L 15620 2214 L 15618 2224 L 15618 2234 L 15616 2244 L 15612 2254 L 15610 2262 L 15606 2272 L 15602 2282 L 15598 2292 L 15594 2300 L 15578 2326 L 15566 2346 L 15528 2402 L 15524 2406 L 15520 2412 L 15516 2418 L 15512 2422 L 15506 2428 L 15502 2432 L 15488 2442 L 15488 2442 L 15490 2442 L 15490 2442 L 15490 2442 L 15492 2442 L 15492 2442 L 15492 2442 L 15492 2442 L 15494 2442 L 15494 2442 L 15494 2442 L 15496 2442 L 15496 2442 L 15496 2442 L 15496 2442 L 15498 2442 L 15498 2442 L 15498 2442 L 15498 2442 L 15500 2444 L 15500 2444 L 15500 2444 L 15500 2444 L 15502 2444 L 15502 2444 L 15502 2446 L 15502 2446 L 15502 2446 L 15504 2446 L 15504 2448 L 15504 2448 L 15504 2448 L 15504 2448 L 15504 2450 L 15504 2450 L 15506 2450 L 15506 2450 L 15506 2452 L 15506 2452 L 15506 2452 L 15506 2454 L 15506 2454 L 15506 2454 L 15506 2454 L 15506 2456 L 15506 2456 L 15506 2456 L 15506 2458 L 15506 2458 L 15506 2458 L 15504 2458 L 15504 2460 L 15504 2460 L 15504 2460 L 15504 2462 L 15504 2462 L 15504 2462 L 15504 2462 L 15502 2464 L 15502 2464 L 15502 2464 L 15512 2460 L 15522 2458 L 15532 2454 L 15542 2452 L 15552 2450 L 15564 2450 L 15574 2448 L 15602 2448 L 15730 2430 L 15852 2430 L 15884 2430" stroke="#FF0000" stroke-width="35" fill="none" stroke-linecap="round" stroke-linejoin="round"/>
<path d="M 20156 30 L 20156 30 L 20170 32 L 20188 40 L 20190 52 L 20192 66 L 20194 78 L 20196 92 L 20196 106 L 20194 138 L 20194 168 L 20194 432 L 20192 452 L 20192 472 L 20180 528 L 20176 548 L 20172 568 L 20168 624 L 20168 650 L 20166 676 L 20164 700 L 20160 726 L 20146 794 L 20142 806 L 20140 820 L 20140 834 L 20138 848 L 20138 862 L 20140 890 L 20142 924 L 20142 924 L 20142 926 L 20142 928 L 20140 928 L 20140 930 L 20140 930 L 20140 932 L 20140 934 L 20140 934 L 20138 936 L 20138 936 L 20138 938 L 20138 938 L 20136 940 L 20136 940 L 20136 942 L 20134 942 L 20134 944 L 20132 944 L 20132 946 L 20132 946 L 20130 946 L 20130 948 L 20128 948 L 20128 948 L 20126 950 L 20122 950 L 20148 844 L 20168 738 L 20194 512 L 20198 478 L 20206 390 L 20228 126 L 20226 124 L 20226 122 L 20226 120 L 20226 118 L 20226 116 L 20226 114 L 20226 112 L 20228 110 L 20228 108 L 20228 106 L 20228 104 L 20230 102 L 20230 100 L 20232 98 L 20234 92 L 20234 94 L 20236 94 L 20236 96 L 20238 96 L 20238 98 L 20240 100 L 20240 100 L 20240 102 L 20242 102 L 20242 104 L 20242 106 L 20242 106 L 20242 108 L 20244 110 L 20244 112 L 20244 112 L 20244 114 L 20244 116 L 20244 116 L 20244 118 L 20244 120 L 20244 124 L 20258 694 L 20258 748 L 20254 750 L 20254 750 L 20254 750 L 20252 750 L 20252 750 L 20252 750 L 20250 750 L 20250 750 L 20248 750 L 20248 750 L 20248 750 L 20246 750 L 20246 750 L 20244 750 L 20244 750 L 20244 750 L 20242 750 L 20242 750 L 20242 750 L 20240 750 L 20240 750 L 20240 748 L 20238 748 L 20238 748 L 20238 748 L 20236 748 L 20236 746 L 20236 746 L 20234 746 L 20234 744 L 20234 680 L 20234 656" stroke="#FF0000" stroke-width="35" fill="none" stroke-linecap="round" stroke-linejoin="round"/></svg>