<svg xmlns="http://www.w3.org/2000/svg" width="46538" height="31424" viewBox="0 0 46538 31424"><path d="M 8710 30448 L 8707 30453 L 8700 30460 L 8692 30471 L 8682 30481 L 8674 30491 L 8667 30503 L 8659 30511 L 8649 30517 L 8641 30527 L 8627 30537 L 8612 30546 L 8599 30554 L 8588 30564 L 8574 30572 L 8560 30580 L 8543 30587 L 8528 30595 L 8512 30602 L 8493 30607 L 8475 30613 L 8459 30618 L 8440 30622 L 8422 30630 L 8406 30637 L 8391 30646 L 8376 30660 L 8356 30671 L 8338 30684 L 8321 30696 L 8307 30709 L 8293 30719 L 8280 30726 L 8267 30734 L 8254 30741 L 8244 30749 L 8234 30759 L 8225 30772 L 8214 30784 L 8201 30794 L 8187 30805 L 8178 30818 L 8168 30830 L 8159 30843 L 8154 30858 L 8148 30871 L 8141 30883 L 8135 30896 L 8131 30911 L 8125 30924 L 8120 30936 L 8113 30946 L 8105 30957 L 8098 30971 L 8093 30985 L 8087 30999 L 8078 31010 L 8072 31023 L 8067 31038 L 8063 31055 L 8062 31073 L 8062 31093 L 8062 31113 L 8062 31133 L 8062 31152 L 8062 31172 L 8065 31189 L 8075 31202 L 8087 31214 L 8095 31227 L 8105 31238 L 8118 31248 L 8130 31258 L 8143 31267 L 8158 31272 L 8171 31281 L 8182 31291 L 8196 31300 L 8211 31305 L 8227 31308 L 8242 31315 L 8257 31319 L 8273 31323 L 8292 31334 L 8310 31344 L 8326 31353 L 8345 31361 L 8363 31364 L 8379 31366 L 8397 31364 L 8416 31364 L 8432 31364 L 8447 31364 L 8462 31364 L 8478 31364 L 8497 31364 L 8515 31364 L 8535 31364 L 8556 31364 L 8576 31364 L 8591 31371 L 8604 31381 L 8621 31391 L 8637 31399 L 8655 31404 L 8674 31407 L 8693 31410 L 8712 31412 L 8731 31414 L 8753 31414 L 8773 31412 L 8791 31412 L 8811 31414 L 8832 31414 L 8852 31412 L 8867 31405 L 8880 31401 L 8895 31397 L 8912 31392 L 8925 31387 L 8940 31384 L 8953 31372 L 8965 31361 L 8978 31354 L 8993 31346 L 9006 31336 L 9018 31328 L 9031 31321 L 9046 31316 L 9062 31313 L 9077 31305 L 9094 31295 L 9105 31281 L 9117 31270 L 9130 31257 L 9142 31245 L 9152 31232 L 9163 31222 L 9170 31212 L 9175 31200 L 9178 31189 L 9183 31179 L 9186 31167 L 9191 31152 L 9196 31136 L 9199 31119 L 9204 31101 L 9209 31083 L 9213 31063 L 9211 31042 L 9206 31022 L 9199 31004 L 9193 30984 L 9183 30962 L 9173 30942 L 9165 30928 L 9156 30914 L 9153 30898 L 9145 30885 L 9137 30873 L 9130 30860 L 9122 30848 L 9115 30835 L 9107 30825 L 9100 30815 L 9090 30807 L 9080 30795 L 9069 30785 L 9057 30775 L 9047 30764 L 9036 30749 L 9021 30736 L 9008 30723 L 8994 30706 L 8981 30693 L 8968 30678 L 8955 30665 L 8942 30653 L 8925 30643 L 8908 30632 L 8890 30623 L 8875 30613 L 8862 30603 L 8846 30595 L 8829 30590 L 8811 30587 L 8793 30584 L 8773 30579 L 8751 30574 L 8731 30570 L 8713 30569 L 8693 30570 L 8672 30570 L 8652 30570 L 8634 30570 L 8617 30570 L 8599 30570 L 8581 30570 L 8561 30570 L 8540 30570 L 8520 30570 L 8502 30570 L 8482 30570 L 8460 30570 L 8437 30570 L 8416 30570 L 8396 30570 L 8378 30570 L 8361 30574 L 8343 30577 L 8326 30582 L 8308 30590 L 8290 30597 L 8270 30603 L 8249 30607 L 8232 30610" stroke="#FFC114" stroke-width="50.00001" fill="none" stroke-linecap="round" stroke-linejoin="round"/>
<path d="M 16046 29692 L 16048 29697 L 16048 29707 L 16046 29720 L 16043 29732 L 16034 29742 L 16025 29753 L 16013 29763 L 15998 29771 L 15985 29780 L 15972 29786 L 15958 29791 L 15948 29798 L 15939 29806 L 15930 29816 L 15919 29824 L 15905 29829 L 15892 29836 L 15879 29842 L 15866 29849 L 15849 29852 L 15836 29859 L 15821 29864 L 15805 29867 L 15790 29872 L 15776 29879 L 15765 29887 L 15755 29897 L 15743 29905 L 15733 29915 L 15719 29924 L 15704 29928 L 15684 29935 L 15666 29942 L 15649 29948 L 15631 29955 L 15614 29962 L 15603 29968 L 15591 29975 L 15581 29985 L 15573 29998 L 15568 30013 L 15565 30029 L 15558 30048 L 15553 30067 L 15550 30087 L 15545 30107 L 15542 30127 L 15540 30147 L 15538 30167 L 15538 30186 L 15540 30206 L 15540 30226 L 15538 30246 L 15538 30266 L 15540 30286 L 15540 30306 L 15542 30322 L 15545 30335 L 15548 30350 L 15560 30363 L 15571 30375 L 15581 30388 L 15593 30400 L 15608 30410 L 15621 30425 L 15634 30438 L 15647 30444 L 15661 30451 L 15677 30454 L 15690 30464 L 15705 30476 L 15722 30484 L 15737 30494 L 15753 30504 L 15771 30512 L 15790 30517 L 15810 30520 L 15831 30520 L 15851 30519 L 15869 30519 L 15889 30520 L 15910 30520 L 15930 30519 L 15948 30519 L 15968 30520 L 15986 30520 L 16006 30519 L 16028 30519 L 16048 30520 L 16063 30517 L 16076 30512 L 16087 30504 L 16097 30494 L 16109 30484 L 16124 30476 L 16137 30468 L 16150 30458 L 16167 30449 L 16180 30441 L 16195 30431 L 16211 30423 L 16226 30418 L 16239 30411 L 16254 30408 L 16268 30405 L 16279 30400 L 16292 30395 L 16307 30388 L 16324 30380 L 16339 30370 L 16355 30362 L 16373 30352 L 16388 30340 L 16402 30332 L 16415 30322 L 16428 30312 L 16441 30301 L 16461 30292 L 16481 30282 L 16504 30272 L 16521 30261 L 16535 30249 L 16547 30236 L 16554 30224 L 16560 30211 L 16564 30196 L 16567 30180 L 16565 30162 L 16564 30143 L 16564 30127 L 16565 30109 L 16565 30091 L 16564 30071 L 16557 30052 L 16552 30036 L 16549 30018 L 16540 30005 L 16534 29993 L 16524 29983 L 16514 29971 L 16502 29962 L 16491 29950 L 16481 29942 L 16473 29932 L 16461 29922 L 16451 29910 L 16441 29902 L 16430 29895 L 16415 29889 L 16402 29879 L 16388 29869 L 16375 29857 L 16362 29849 L 16349 29842 L 16335 29836 L 16322 29829 L 16312 29819 L 16302 29809 L 16291 29801 L 16276 29796 L 16263 29790 L 16249 29783 L 16236 29780 L 16220 29776 L 16206 29771 L 16192 29766 L 16175 29763 L 16163 29758 L 16150 29753 L 16137 29750 L 16120 29745 L 16104 29740 L 16086 29737 L 16071 29732 L 16058 29727 L 16041 29723 L 16025 29722 L 16010 29720" stroke="#FFC114" stroke-width="50.00001" fill="none" stroke-linecap="round" stroke-linejoin="round"/>
<circle cx="7300" cy="10" r="175" fill="#66CC00"/>
<path d="M 1478 3402 L 1476 3407 L 1473 3417 L 1475 3428 L 1480 3443 L 1493 3457 L 1506 3470 L 1519 3480 L 1533 3493 L 1546 3505 L 1556 3518 L 1566 3529 L 1581 3539 L 1599 3546 L 1619 3554 L 1638 3561 L 1658 3566 L 1678 3569 L 1695 3574 L 1711 3579 L 1729 3582 L 1748 3584 L 1764 3586 L 1786 3589 L 1807 3597 L 1827 3605 L 1845 3615 L 1865 3624 L 1883 3632 L 1903 3638 L 1923 3643 L 1943 3647 L 1963 3648 L 1986 3648 L 2009 3648 L 2034 3648 L 2058 3648 L 2082 3648 L 2106 3648 L 2131 3648 L 2151 3645 L 2169 3642 L 2182 3630 L 2191 3615 L 2197 3599 L 2199 3579 L 2199 3554 L 2197 3528 L 2194 3500 L 2192 3473 L 2194 3452 L 2201 3432 L 2207 3414 L 2211 3397 L 2214 3379 L 2219 3357 L 2224 3334 L 2230 3314 L 2239 3296 L 2245 3276 L 2250 3255 L 2254 3232 L 2259 3210 L 2263 3192 L 2270 3172 L 2278 3152 L 2285 3129 L 2293 3106 L 2300 3085 L 2306 3063 L 2316 3046 L 2326 3035" stroke="#E71225" stroke-width="50.00001" fill="none" stroke-linecap="round" stroke-linejoin="round"/>
<path d="M 8576 3548 L 8578 3546 L 8584 3546 L 8594 3551 L 8611 3558 L 8626 3566 L 8637 3583 L 8650 3598 L 8660 3612 L 8667 3629 L 8675 3644 L 8682 3659 L 8687 3679 L 8693 3697 L 8705 3707 L 8718 3718 L 8733 3728 L 8750 3737 L 8768 3741 L 8783 3738 L 8799 3735 L 8816 3727 L 8831 3712 L 8846 3695 L 8859 3680 L 8870 3669 L 8880 3655 L 8889 3639 L 8895 3622 L 8902 3604 L 8912 3589 L 8922 3576 L 8930 3563 L 8941 3543 L 8951 3520 L 8961 3500 L 8970 3482 L 8981 3469 L 8991 3454 L 9001 3434 L 9009 3416 L 9024 3399 L 9037 3384 L 9049 3371 L 9056 3351 L 9061 3328 L 9064 3308" stroke="#E71225" stroke-width="50.00001" fill="none" stroke-linecap="round" stroke-linejoin="round"/>
<path d="M 13604 3644 L 13607 3649 L 13607 3659 L 13606 3675 L 13606 3697 L 13607 3718 L 13614 3738 L 13622 3756 L 13629 3776 L 13634 3798 L 13637 3821 L 13642 3839 L 13647 3854 L 13650 3867 L 13652 3887 L 13657 3907 L 13664 3917 L 13673 3920 L 13683 3915 L 13692 3904 L 13703 3887 L 13716 3866 L 13730 3841 L 13740 3814 L 13750 3791 L 13758 3771 L 13763 3750 L 13769 3733 L 13776 3718 L 13783 3702 L 13786 3684 L 13796 3669 L 13807 3656 L 13819 3639 L 13829 3619 L 13837 3598 L 13845 3578 L 13855 3560 L 13864 3540 L 13869 3518 L 13875 3498 L 13882 3480 L 13885 3464 L 13895 3449 L 13907 3434 L 13918 3421 L 13928 3406 L 13936 3389 L 13941 3374 L 13948 3361 L 13955 3343 L 13961 3323 L 13964 3302 L 13968 3279 L 13973 3260 L 13978 3249" stroke="#E71225" stroke-width="50.00001" fill="none" stroke-linecap="round" stroke-linejoin="round"/>
<path d="M 12570 2706 L 12575 2708 L 12585 2711 L 12600 2713 L 12618 2716 L 12641 2721 L 12668 2726 L 12692 2729 L 12716 2731 L 12740 2732 L 12763 2736 L 12788 2737 L 12810 2742 L 12826 2749 L 12843 2752 L 12864 2756 L 12886 2757 L 12909 2759 L 12930 2759 L 12955 2757 L 12982 2757 L 13008 2759 L 13031 2759 L 13051 2757 L 13073 2757 L 13096 2759 L 13117 2759 L 13141 2757 L 13165 2757 L 13190 2759 L 13213 2759 L 13238 2757 L 13266 2757 L 13293 2759 L 13319 2759 L 13342 2757 L 13365 2757 L 13390 2759 L 13415 2759 L 13438 2757 L 13463 2757 L 13488 2759 L 13511 2759 L 13532 2757 L 13554 2757 L 13580 2759 L 13605 2759 L 13628 2757 L 13653 2757 L 13673 2762 L 13691 2769 L 13711 2772 L 13733 2775 L 13752 2777 L 13774 2779 L 13797 2779 L 13819 2777 L 13842 2777 L 13866 2779 L 13891 2779 L 13914 2777 L 13939 2777 L 13967 2779 L 13994 2779 L 14017 2777 L 14040 2777 L 14062 2779 L 14086 2779 L 14113 2777 L 14136 2777 L 14159 2779 L 14184 2779 L 14209 2777 L 14232 2777 L 14253 2779 L 14272 2779" stroke="#00F900" stroke-width="56" fill="none" stroke-linecap="round" stroke-linejoin="round" opacity="0.50"/>
<path d="M 9706 2682 L 9701 2680 L 9691 2677 L 9675 2675 L 9656 2674 L 9638 2680 L 9622 2689 L 9603 2699 L 9582 2707 L 9559 2713 L 9536 2718 L 9514 2722 L 9493 2723 L 9466 2723 L 9441 2723 L 9418 2723 L 9393 2723 L 9367 2723 L 9339 2723 L 9316 2727 L 9294 2730 L 9271 2732 L 9246 2733 L 9221 2737 L 9198 2738 L 9177 2740 L 9152 2740 L 9126 2738 L 9102 2738 L 9079 2740 L 9051 2740 L 9023 2738 L 8987 2742 L 8952 2746 L 8921 2750 L 8891 2751 L 8861 2753 L 8830 2756 L 8795 2758 L 8762 2760 L 8725 2760 L 8689 2758 L 8651 2758 L 8616 2760 L 8583 2763 L 8550 2768 L 8517 2773 L 8481 2776 L 8444 2778 L 8413 2783 L 8385 2789 L 8358 2793 L 8332 2796 L 8309 2801 L 8286 2806 L 8261 2809 L 8233 2808 L 8206 2806 L 8176 2806 L 8147 2808 L 8119 2808 L 8094 2806 L 8071 2806 L 8044 2808 L 8019 2808 L 7996 2806 L 7971 2806 L 7948 2808 L 7923 2811 L 7895 2816 L 7869 2823 L 7839 2826 L 7809 2829 L 7781 2831 L 7753 2832 L 7723 2832 L 7695 2831 L 7670 2831 L 7644 2832 L 7617 2832 L 7591 2831 L 7568 2831 L 7541 2832 L 7517 2832 L 7493 2831 L 7469 2831 L 7442 2832 L 7417 2832 L 7394 2831 L 7369 2831 L 7343 2832 L 7318 2832 L 7295 2831 L 7273 2831 L 7250 2832 L 7227 2832 L 7202 2831 L 7178 2831 L 7154 2832 L 7130 2832 L 7105 2831 L 7082 2831 L 7060 2832 L 7035 2832 L 7009 2831 L 6986 2831 L 6963 2832 L 6938 2832 L 6913 2831 L 6890 2831 L 6868 2832 L 6844 2832 L 6817 2831 L 6791 2831 L 6767 2832 L 6741 2832 L 6716 2831 L 6693 2831 L 6672 2829 L 6652 2823 L 6629 2816 L 6605 2813 L 6581 2809 L 6556 2804 L 6529 2799 L 6505 2796 L 6481 2798 L 6457 2799 L 6430 2799 L 6405 2798 L 6382 2798 L 6357 2799 L 6338 2799 L 6316 2798 L 6293 2798 L 6271 2793 L 6248 2786 L 6223 2781 L 6199 2778 L 6175 2776 L 6151 2776 L 6123 2776 L 6096 2776 L 6070 2776 L 6050 2773 L 6033 2770 L 6013 2765 L 5992 2760 L 5975 2753 L 5960 2748 L 5944 2745 L 5926 2740 L 5904 2737 L 5884 2732 L 5865 2727 L 5845 2723 L 5822 2722 L 5805 2720" stroke="#00F900" stroke-width="56" fill="none" stroke-linecap="round" stroke-linejoin="round" opacity="0.50"/>
<path d="M 3138 2634 L 3133 2636 L 3123 2636 L 3110 2634 L 3092 2634 L 3069 2636 L 3044 2636 L 3021 2634 L 2999 2634 L 2974 2636 L 2948 2639 L 2921 2644 L 2898 2651 L 2872 2654 L 2847 2657 L 2824 2659 L 2799 2660 L 2773 2660 L 2748 2659 L 2725 2659 L 2703 2660 L 2683 2660 L 2660 2659 L 2637 2659 L 2612 2660 L 2587 2660 L 2561 2659 L 2536 2659 L 2513 2660 L 2488 2660 L 2462 2659 L 2437 2659 L 2414 2660 L 2389 2660 L 2366 2659 L 2341 2659 L 2316 2660 L 2293 2660 L 2271 2659 L 2247 2659 L 2220 2660 L 2197 2660 L 2174 2659 L 2149 2659 L 2124 2660 L 2101 2660 L 2080 2659 L 2055 2659 L 2028 2660 L 2005 2660 L 1982 2659 L 1957 2659 L 1932 2660 L 1909 2660 L 1888 2659 L 1863 2659 L 1837 2660 L 1810 2660 L 1787 2659 L 1764 2659 L 1739 2660 L 1714 2657 L 1691 2652 L 1670 2647 L 1645 2644 L 1618 2642 L 1595 2641 L 1572 2637 L 1547 2636 L 1522 2634 L 1499 2634 L 1478 2636 L 1453 2636 L 1430 2631 L 1410 2624 L 1392 2621 L 1375 2617 L 1357 2616 L 1337 2614 L 1316 2614 L 1293 2616 L 1271 2616 L 1245 2614 L 1216 2614 L 1190 2616 L 1165 2616 L 1139 2614 L 1114 2614 L 1091 2616 L 1066 2616 L 1049 2608 L 1031 2598 L 1013 2589 L 993 2584 L 972 2581 L 949 2578 L 924 2576 L 897 2574 L 874 2574 L 851 2576 L 826 2576 L 801 2574 L 778 2574 L 753 2576 L 729 2576 L 705 2574 L 684 2574 L 662 2576 L 636 2576 L 611 2574 L 588 2574 L 563 2576 L 537 2576 L 512 2574 L 489 2574 L 464 2576 L 444 2573 L 426 2568 L 406 2565 L 385 2563 L 365 2561 L 347 2558 L 323 2556 L 299 2555 L 276 2555 L 257 2556" stroke="#00F900" stroke-width="56" fill="none" stroke-linecap="round" stroke-linejoin="round" opacity="0.50"/>
<path d="M 756 2850 L 751 2852 L 744 2852 L 730 2850 L 710 2850 L 688 2852 L 665 2852 L 640 2850 L 614 2850 L 587 2852 L 564 2852 L 538 2850 L 513 2850 L 490 2852 L 465 2852 L 442 2850 L 427 2850 L 422 2852 L 425 2852 L 435 2850 L 453 2850 L 478 2852 L 501 2848 L 523 2843 L 544 2838 L 567 2835 L 592 2833 L 620 2832 L 647 2829 L 677 2827 L 706 2822 L 735 2815 L 763 2812 L 789 2809 L 814 2804 L 837 2799 L 862 2795 L 885 2797 L 906 2799 L 928 2799 L 951 2797 L 976 2797 L 1001 2799 L 1024 2799 L 1045 2797 L 1070 2797 L 1097 2799 L 1120 2799 L 1143 2797 L 1164 2790 L 1189 2786 L 1216 2782 L 1242 2781 L 1272 2779 L 1302 2776 L 1330 2774 L 1355 2772 L 1381 2772 L 1408 2774 L 1434 2774 L 1457 2772 L 1480 2772 L 1505 2774 L 1530 2774 L 1553 2772 L 1578 2772 L 1603 2774 L 1626 2774 L 1647 2772 L 1672 2772 L 1699 2774 L 1725 2774 L 1751 2772 L 1781 2772 L 1811 2774 L 1839 2774 L 1864 2772 L 1890 2772 L 1917 2774 L 1940 2774 L 1963 2772 L 1988 2772 L 2013 2774 L 2036 2774 L 2057 2772 L 2082 2772 L 2109 2774 L 2132 2774 L 2155 2772 L 2180 2772 L 2205 2774 L 2228 2774 L 2249 2772 L 2271 2772 L 2297 2774 L 2322 2774 L 2345 2772 L 2370 2772 L 2396 2774 L 2421 2774 L 2444 2772 L 2466 2772 L 2486 2774 L 2509 2774 L 2532 2772 L 2557 2772 L 2582 2774 L 2608 2774 L 2633 2772 L 2653 2776 L 2671 2784 L 2694 2789 L 2717 2792 L 2739 2795 L 2760 2800 L 2780 2805 L 2802 2809 L 2825 2807 L 2846 2805 L 2869 2805 L 2894 2807 L 2919 2807 L 2942 2805 L 2967 2805 L 2992 2807 L 3018 2807 L 3043 2805 L 3066 2805 L 3094 2807 L 3121 2807 L 3144 2805 L 3164 2809 L 3179 2814" stroke="#00F900" stroke-width="56" fill="none" stroke-linecap="round" stroke-linejoin="round" opacity="0.50"/>
<path d="M 18056 2706 L 18063 2708 L 18073 2711 L 18086 2713 L 18104 2716 L 18127 2718 L 18152 2719 L 18175 2719 L 18200 2718 L 18228 2718 L 18254 2719 L 18281 2719 L 18304 2718 L 18324 2718 L 18345 2719 L 18369 2719 L 18390 2718 L 18413 2718 L 18438 2719 L 18463 2719 L 18486 2718 L 18511 2718 L 18536 2719 L 18562 2719 L 18587 2718 L 18610 2718 L 18638 2719 L 18665 2719 L 18688 2718 L 18711 2718 L 18732 2719 L 18757 2719 L 18784 2718 L 18807 2718 L 18830 2719 L 18855 2719 L 18880 2718 L 18903 2718 L 18924 2719 L 18949 2719 L 18975 2718 L 18999 2718 L 19022 2719 L 19047 2719 L 19071 2718 L 19094 2718 L 19116 2719 L 19137 2719 L 19164 2718 L 19189 2718 L 19212 2719 L 19237 2719 L 19263 2718 L 19288 2718 L 19311 2719 L 19333 2719 L 19352 2718 L 19376 2718 L 19399 2719 L 19424 2719 L 19448 2718 L 19475 2718 L 19500 2719 L 19523 2719 L 19548 2718 L 19574 2718 L 19599 2719 L 19622 2719 L 19644 2718 L 19667 2718 L 19690 2719 L 19715 2719 L 19739 2718 L 19766 2718 L 19791 2719 L 19811 2713 L 19829 2704 L 19849 2694 L 19868 2686 L 19892 2680 L 19915 2675 L 19936 2671 L 19958 2670 L 19981 2670 L 20006 2670 L 20030 2670 L 20054 2670 L 20078 2670 L 20103 2670 L 20126 2670 L 20148 2666 L 20173 2663 L 20199 2661 L 20226 2660 L 20249 2656 L 20272 2655 L 20297 2653 L 20321 2653 L 20341 2651 L 20360 2648 L 20379 2646 L 20401 2643 L 20424 2642 L 20446 2640 L 20470 2637 L 20497 2635 L 20520 2633 L 20543 2633 L 20565 2635 L 20589 2635 L 20616 2633 L 20639 2633 L 20659 2635 L 20680 2635 L 20697 2630 L 20715 2623 L 20735 2620 L 20755 2617 L 20778 2615 L 20801 2613 L 20826 2613 L 20851 2615 L 20877 2615 L 20902 2613 L 20925 2613 L 20950 2615 L 20970 2615 L 20991 2613 L 21014 2613 L 21036 2615 L 21059 2615 L 21084 2613 L 21109 2613 L 21132 2615 L 21157 2615 L 21181 2613 L 21208 2613 L 21233 2615 L 21256 2615 L 21284 2613 L 21310 2613 L 21334 2615 L 21357 2615 L 21375 2607 L 21390 2597 L 21406 2589 L 21426 2584 L 21448 2580 L 21471 2577 L 21496 2575 L 21519 2574" stroke="#00F900" stroke-width="56" fill="none" stroke-linecap="round" stroke-linejoin="round" opacity="0.50"/>
<path d="M 20270 2898 L 20265 2900 L 20255 2900 L 20239 2898 L 20220 2898 L 20199 2900 L 20179 2900 L 20156 2898 L 20133 2891 L 20111 2883 L 20090 2877 L 20073 2868 L 20058 2862 L 20047 2852 L 20030 2842 L 20014 2834 L 19999 2822 L 19984 2812 L 19967 2805 L 19953 2797 L 19938 2787 L 19918 2782 L 19903 2776 L 19890 2769 L 19875 2762 L 19862 2756 L 19848 2749 L 19838 2739 L 19825 2729 L 19810 2714 L 19794 2700 L 19779 2686 L 19766 2675 L 19751 2665 L 19731 2657 L 19713 2650 L 19696 2643 L 19681 2640" stroke="#00F900" stroke-width="56" fill="none" stroke-linecap="round" stroke-linejoin="round" opacity="0.50"/>
<path d="M 3500 7110 L 3505 7112 L 3515 7112 L 3531 7110 L 3550 7110 L 3571 7112 L 3594 7112 L 3621 7110 L 3646 7110 L 3669 7112 L 3693 7112 L 3720 7110 L 3745 7110 L 3768 7112 L 3789 7112 L 3813 7110 L 3836 7110 L 3860 7112 L 3885 7112 L 3908 7110 L 3933 7110 L 3958 7112 L 3981 7112 L 4006 7110 L 4031 7110 L 4054 7112 L 4079 7112 L 4100 7110 L 4123 7110 L 4147 7112 L 4171 7112 L 4196 7110 L 4223 7110 L 4247 7112 L 4271 7112 L 4295 7110 L 4319 7110 L 4343 7112 L 4368 7112 L 4391 7110 L 4416 7110 L 4441 7112 L 4464 7112 L 4486 7110 L 4504 7107 L 4520 7102 L 4540 7095 L 4562 7092 L 4585 7089 L 4606 7087 L 4633 7089 L 4658 7089 L 4681 7089 L 4706 7089 L 4729 7089 L 4753 7089 L 4778 7089 L 4801 7089 L 4826 7089 L 4851 7089 L 4874 7089 L 4896 7089 L 4917 7089 L 4944 7089 L 4968 7089 L 4992 7089 L 5016 7089 L 5043 7089 L 5068 7089 L 5091 7089 L 5112 7089 L 5135 7089 L 5159 7089 L 5183 7089 L 5208 7089 L 5231 7089 L 5253 7092 L 5274 7095 L 5294 7100 L 5312 7105 L 5336 7108 L 5360 7110 L 5384 7112 L 5405 7112 L 5430 7110 L 5456 7110 L 5479 7112 L 5503 7112 L 5524 7110 L 5549 7110 L 5575 7112 L 5598 7112 L 5622 7110 L 5646 7110 L 5671 7112 L 5694 7112 L 5716 7110 L 5737 7110 L 5761 7112 L 5785 7112 L 5810 7110 L 5837 7110 L 5861 7112 L 5885 7112 L 5909 7110 L 5933 7110 L 5957 7112 L 5982 7112 L 6005 7110 L 6027 7110 L 6052 7112 L 6078 7112 L 6101 7110 L 6124 7110 L 6149 7112 L 6174 7112 L 6197 7110 L 6219 7110 L 6240 7112 L 6267 7112 L 6291 7110 L 6315 7110 L 6339 7112 L 6366 7112 L 6391 7110 L 6414 7110 L 6435 7112 L 6458 7112 L 6482 7110 L 6506 7110 L 6531 7112 L 6558 7112 L 6582 7110 L 6606 7110 L 6630 7112 L 6650 7115 L 6672 7120 L 6692 7125 L 6710 7128 L 6726 7130 L 6744 7131 L 6766 7131 L 6789 7130 L 6809 7133 L 6827 7138 L 6847 7141 L 6872 7143 L 6898 7145 L 6921 7148 L 6945 7150 L 6969 7151 L 6994 7151 L 7017 7150 L 7039 7150 L 7064 7151 L 7090 7151 L 7113 7150 L 7136 7150 L 7158 7151 L 7183 7151 L 7209 7150 L 7232 7150 L 7255 7151 L 7280 7151 L 7305 7150 L 7328 7150 L 7350 7151 L 7374 7151 L 7401 7150 L 7424 7150 L 7447 7151 L 7472 7151 L 7497 7150 L 7520 7150 L 7542 7151 L 7560 7151" stroke="#00F900" stroke-width="56" fill="none" stroke-linecap="round" stroke-linejoin="round" opacity="0.50"/>
<path d="M 12042 7276 L 12044 7278 L 12054 7278 L 12070 7276 L 12088 7276 L 12110 7278 L 12130 7278 L 12153 7276 L 12179 7276 L 12204 7278 L 12231 7278 L 12252 7273 L 12275 7266 L 12297 7259 L 12318 7253 L 12338 7250 L 12360 7246 L 12383 7245 L 12404 7243 L 12424 7240 L 12442 7235 L 12462 7230 L 12484 7226 L 12507 7225 L 12528 7223 L 12550 7223 L 12566 7221 L 12584 7218 L 12603 7216 L 12622 7213 L 12647 7212 L 12670 7207 L 12692 7200 L 12708 7193 L 12725 7190 L 12746 7187 L 12768 7185 L 12791 7183 L 12813 7183 L 12834 7185 L 12861 7185 L 12885 7183 L 12909 7183 L 12933 7185 L 12956 7185 L 12978 7177 L 12999 7167 L 13019 7159 L 13037 7154 L 13054 7150 L 13076 7147 L 13099 7145 L 13122 7144 L 13147 7144 L 13171 7145 L 13195 7145 L 13219 7144 L 13244 7144 L 13271 7145 L 13295 7145 L 13319 7144 L 13343 7144 L 13367 7145 L 13391 7145 L 13416 7144 L 13439 7144 L 13464 7145 L 13489 7145 L 13512 7144 L 13534 7144 L 13555 7145 L 13582 7145 L 13606 7144 L 13630 7144 L 13654 7145 L 13677 7145 L 13702 7144 L 13727 7144 L 13750 7145 L 13775 7145 L 13800 7144 L 13823 7144 L 13844 7145 L 13869 7145 L 13896 7144 L 13922 7144 L 13945 7145 L 13972 7145 L 13997 7144 L 14020 7144 L 14041 7145 L 14061 7145 L 14084 7144 L 14107 7144 L 14132 7145 L 14157 7145 L 14183 7144 L 14208 7144 L 14231 7145 L 14256 7145 L 14283 7144 L 14307 7144 L 14331 7145 L 14352 7145 L 14375 7144 L 14398 7144 L 14423 7145 L 14448 7145 L 14475 7144 L 14499 7144 L 14522 7145 L 14547 7145 L 14570 7144 L 14595 7144 L 14620 7145 L 14643 7145 L 14665 7144 L 14689 7144 L 14716 7145 L 14739 7145 L 14762 7144 L 14787 7144 L 14812 7145 L 14835 7145 L 14857 7144 L 14878 7144 L 14904 7145 L 14929 7145 L 14952 7144 L 14977 7144 L 15000 7145 L 15025 7145 L 15050 7144 L 15073 7144 L 15098 7145 L 15123 7145 L 15146 7144 L 15167 7144 L 15192 7145 L 15219 7145 L 15245 7144 L 15268 7144 L 15295 7145 L 15320 7145 L 15343 7144 L 15364 7144 L 15384 7145 L 15407 7145 L 15430 7144 L 15455 7144 L 15480 7145 L 15506 7145 L 15531 7144 L 15554 7144 L 15579 7145 L 15606 7145 L 15630 7144 L 15654 7144 L 15675 7145 L 15698 7145 L 15721 7144 L 15746 7144 L 15771 7145 L 15797 7145 L 15822 7144 L 15845 7144 L 15870 7145 L 15893 7145 L 15918 7144 L 15943 7144 L 15966 7145 L 15988 7145 L 16012 7144 L 16039 7144 L 16062 7145 L 16085 7145 L 16110 7144 L 16135 7144 L 16158 7145 L 16179 7145 L 16201 7144 L 16227 7144 L 16252 7145 L 16275 7145 L 16300 7144 L 16323 7144 L 16348 7145 L 16373 7145 L 16396 7144 L 16421 7144 L 16446 7145 L 16469 7145 L 16490 7144 L 16508 7150 L 16528 7159 L 16548 7169 L 16568 7177 L 16585 7187 L 16601 7195 L 16623 7200 L 16644 7203 L 16667 7207 L 16689 7208 L 16714 7210 L 16737 7213 L 16757 7218 L 16775 7223 L 16791 7226 L 16809 7228 L 16829 7230 L 16851 7230 L 16874 7228 L 16892 7231 L 16912 7236 L 16935 7240 L 16958 7241 L 16980 7243 L 17001 7246 L 17024 7248 L 17049 7250 L 17074 7250 L 17097 7248 L 17119 7248 L 17143 7250 L 17170 7250 L 17193 7248 L 17216 7248 L 17241 7250 L 17266 7250 L 17289 7248 L 17311 7248 L 17335 7250 L 17362 7250 L 17385 7248 L 17408 7248 L 17433 7250 L 17458 7250 L 17481 7248 L 17502 7248 L 17524 7250 L 17550 7250 L 17575 7248 L 17595 7251 L 17613 7259 L 17633 7263 L 17653 7266 L 17673 7271 L 17693 7276 L 17712 7279 L 17736 7278 L 17762 7276 L 17783 7279 L 17797 7284 L 17802 7293 L 17795 7302 L 17783 7312 L 17767 7321 L 17749 7329 L 17732 7336 L 17714 7340 L 17693 7344 L 17669 7352 L 17646 7365 L 17621 7379 L 17597 7388 L 17573 7395 L 17552 7403 L 17530 7410 L 17504 7415 L 17479 7418 L 17456 7420 L 17435 7425 L 17418 7431 L 17398 7435 L 17377 7438 L 17350 7440 L 17325 7448 L 17299 7455 L 17271 7463 L 17244 7473 L 17220 7481 L 17193 7488 L 17168 7493 L 17145 7496 L 17120 7498 L 17094 7501 L 17069 7504 L 17046 7509 L 17021 7514 L 16995 7517 L 16970 7519 L 16947 7521 L 16925 7521 L 16902 7522 L 16879 7526 L 16854 7527 L 16829 7531 L 16806 7536 L 16781 7541 L 16753 7544 L 16727 7549 L 16697 7554 L 16667 7557 L 16639 7559 L 16614 7560 L 16588 7560 L 16561 7559 L 16538 7559 L 16515 7560 L 16487 7560 L 16462 7565 L 16439 7572 L 16416 7580 L 16391 7587 L 16366 7592 L 16343 7595 L 16322 7597 L 16300 7597 L 16274 7597 L 16249 7597 L 16226 7597 L 16204 7597 L 16181 7597 L 16158 7597 L 16133 7597 L 16108 7597 L 16082 7597 L 16057 7597 L 16034 7597 L 16009 7597 L 15986 7597 L 15961 7597 L 15936 7597 L 15913 7597 L 15888 7597 L 15864 7597 L 15840 7597 L 15819 7597 L 15797 7597 L 15771 7597 L 15746 7597 L 15723 7597 L 15698 7597 L 15672 7597 L 15647 7597 L 15624 7597 L 15602 7597 L 15582 7597 L 15559 7597 L 15536 7597 L 15511 7597 L 15487 7597 L 15460 7597 L 15435 7597 L 15412 7597 L 15384 7597 L 15358 7597 L 15331 7597 L 15308 7597 L 15285 7597 L 15260 7597 L 15235 7590 L 15212 7580 L 15191 7570 L 15166 7562 L 15139 7557 L 15116 7554 L 15093 7554 L 15068 7555 L 15047 7552 L 15027 7547 L 15007 7544 L 14987 7542 L 14964 7541 L 14941 7537 L 14919 7536 L 14898 7534 L 14878 7534 L 14857 7536 L 14833 7536 L 14812 7534 L 14789 7534 L 14764 7536 L 14739 7536 L 14716 7534 L 14691 7534 L 14663 7536 L 14637 7536 L 14613 7534 L 14590 7534 L 14565 7536 L 14541 7536 L 14518 7534 L 14496 7534 L 14475 7536 L 14448 7536 L 14423 7531 L 14400 7524 L 14375 7521 L 14349 7517 L 14324 7516 L 14301 7514 L 14279 7514 L 14256 7516 L 14233 7516 L 14208 7514 L 14183 7514 L 14160 7516 L 14136 7516 L 14111 7514 L 14088 7514 L 14063 7516 L 14038 7516 L 14015 7514 L 13990 7514 L 13965 7516 L 13942 7516 L 13917 7514 L 13892 7514 L 13869 7516 L 13844 7516 L 13820 7514 L 13797 7514 L 13775 7516 L 13750 7516 L 13724 7514 L 13697 7514 L 13674 7516 L 13648 7516 L 13623 7514 L 13600 7514 L 13578 7516 L 13558 7516 L 13535 7514 L 13512 7514 L 13491 7512 L 13472 7509 L 13453 7508 L 13429 7504 L 13406 7503 L 13385 7501 L 13363 7498 L 13340 7496 L 13315 7494 L 13291 7494 L 13267 7496 L 13249 7493 L 13234 7484 L 13218 7481 L 13198 7478 L 13176 7473 L 13150 7468 L 13125 7465 L 13102 7466 L 13077 7468 L 13052 7468 L 13026 7463 L 13001 7456 L 12978 7448 L 12956 7441 L 12933 7436 L 12910 7433 L 12885 7431 L 12861 7431 L 12837 7431 L 12813 7431 L 12788 7431 L 12765 7428 L 12740 7425 L 12715 7423 L 12692 7422 L 12667 7418 L 12642 7417 L 12619 7418 L 12594 7418 L 12570 7418 L 12546 7418 L 12528 7415 L 12510 7412 L 12490 7410 L 12469 7408 L 12449 7405 L 12427 7403 L 12404 7402 L 12381 7402 L 12356 7403 L 12328 7403 L 12302 7402 L 12278 7402 L 12255 7403 L 12234 7403 L 12209 7402 L 12183 7402 L 12159 7403 L 12140 7403" stroke="#00F900" stroke-width="56" fill="none" stroke-linecap="round" stroke-linejoin="round" opacity="0.50"/>
<path d="M 4318 10572 L 4321 10570 L 4328 10570 L 4343 10572 L 4363 10572 L 4384 10570 L 4411 10570 L 4437 10572 L 4464 10572 L 4487 10570 L 4510 10570 L 4535 10572 L 4559 10572 L 4583 10570 L 4604 10570 L 4629 10572 L 4655 10572 L 4682 10570 L 4705 10570 L 4728 10572 L 4753 10572 L 4778 10570 L 4801 10570 L 4826 10572 L 4850 10572 L 4874 10570 L 4895 10567 L 4917 10562 L 4943 10557 L 4968 10554 L 4991 10552 L 5016 10551 L 5042 10551 L 5067 10552 L 5090 10552 L 5112 10551 L 5135 10547 L 5158 10542 L 5183 10537 L 5208 10534 L 5231 10529 L 5256 10524 L 5280 10521 L 5304 10522 L 5328 10524 L 5353 10524 L 5376 10522 L 5401 10522 L 5426 10524 L 5449 10524 L 5474 10522 L 5499 10522 L 5522 10524 L 5547 10524 L 5571 10522 L 5595 10522 L 5616 10524 L 5641 10524 L 5667 10522 L 5694 10522 L 5717 10524 L 5734 10531 L 5752 10539 L 5770 10546 L 5790 10551 L 5811 10554 L 5834 10555 L 5859 10557 L 5886 10557 L 5909 10555 L 5932 10555 L 5957 10557 L 5982 10557 L 6005 10555 L 6026 10555 L 6051 10557 L 6074 10557" stroke="#00F900" stroke-width="56" fill="none" stroke-linecap="round" stroke-linejoin="round" opacity="0.50"/>
<path d="M 10212 10406 L 10214 10411 L 10217 10418 L 10229 10426 L 10240 10436 L 10253 10444 L 10268 10449 L 10285 10452 L 10306 10456 L 10333 10457 L 10358 10459 L 10381 10459 L 10402 10457 L 10425 10457 L 10448 10459 L 10473 10459 L 10501 10457 L 10528 10457 L 10554 10459 L 10577 10459 L 10601 10457 L 10625 10457 L 10650 10459 L 10673 10459 L 10695 10457 L 10720 10457 L 10746 10459 L 10769 10459 L 10792 10457 L 10817 10457 L 10842 10459 L 10865 10459 L 10887 10457 L 10908 10454 L 10935 10449 L 10959 10442 L 10983 10439 L 11007 10436 L 11031 10434 L 11055 10432 L 11080 10432 L 11103 10434 L 11128 10434 L 11153 10432 L 11176 10432 L 11194 10427 L 11212 10421 L 11232 10413 L 11254 10406 L 11277 10401 L 11298 10398 L 11325 10396 L 11350 10396 L 11373 10396 L 11394 10396 L 11414 10396 L 11437 10396 L 11461 10396 L 11485 10396 L 11510 10396 L 11537 10393 L 11561 10389 L 11585 10388 L 11609 10386 L 11636 10383 L 11661 10381 L 11684 10380 L 11705 10380 L 11728 10381 L 11752 10381 L 11776 10380 L 11801 10380 L 11828 10381 L 11852 10381 L 11876 10380 L 11900 10380 L 11924 10381 L 11948 10381 L 11973 10380 L 11996 10380 L 12018 10381 L 12043 10381 L 12069 10380 L 12092 10380 L 12115 10381 L 12140 10381 L 12165 10380 L 12188 10380 L 12210 10381 L 12231 10381 L 12258 10380 L 12282 10380 L 12306 10381 L 12330 10381 L 12353 10380 L 12378 10380 L 12403 10381 L 12426 10381 L 12451 10380 L 12473 10376 L 12492 10371 L 12512 10366 L 12532 10363 L 12552 10361 L 12575 10360 L 12598 10360 L 12620 10361 L 12641 10361 L 12668 10360 L 12692 10360 L 12712 10358 L 12731 10355 L 12750 10353 L 12770 10350 L 12790 10348 L 12810 10346 L 12830 10343 L 12853 10342 L 12879 10340 L 12904 10340 L 12927 10342 L 12952 10342 L 12979 10340 L 13003 10340 L 13027 10342 L 13048 10342 L 13071 10340 L 13094 10340 L 13119 10342 L 13147 10342 L 13174 10340 L 13200 10340 L 13223 10342 L 13243 10335 L 13261 10327 L 13281 10317 L 13303 10308 L 13326 10303 L 13347 10300 L 13369 10300 L 13392 10302 L 13413 10302 L 13435 10300 L 13458 10300 L 13483 10302 L 13504 10299 L 13524 10294 L 13544 10290 L 13567 10289 L 13590 10287 L 13612 10284 L 13630 10285 L 13643 10297 L 13653 10313 L 13657 10333 L 13658 10355 L 13657 10381 L 13657 10406 L 13653 10426 L 13640 10441 L 13622 10451 L 13602 10456 L 13580 10459 L 13554 10459 L 13529 10457 L 13506 10457 L 13481 10459 L 13458 10459 L 13433 10457 L 13412 10461 L 13392 10466 L 13372 10469 L 13352 10470 L 13332 10472 L 13309 10475 L 13286 10477 L 13265 10479 L 13243 10479 L 13220 10477 L 13195 10480 L 13170 10485 L 13144 10489 L 13119 10490 L 13096 10492 L 13071 10495 L 13048 10497 L 13023 10499 L 12998 10499 L 12979 10504 L 12960 10510 L 12944 10515 L 12922 10518 L 12902 10522 L 12883 10527 L 12866 10535 L 12850 10542 L 12831 10548 L 12810 10552 L 12787 10555 L 12764 10556 L 12739 10558 L 12714 10558 L 12691 10556 L 12666 10556 L 12641 10558 L 12618 10558 L 12593 10556 L 12568 10556 L 12545 10558 L 12520 10558 L 12496 10556 L 12473 10556 L 12451 10558 L 12426 10558 L 12400 10556 L 12373 10556 L 12350 10558 L 12324 10561 L 12299 10566 L 12276 10571 L 12254 10575 L 12234 10576 L 12211 10578 L 12188 10578 L 12163 10576 L 12138 10576 L 12112 10578 L 12087 10578 L 12067 10580 L 12049 10583 L 12029 10585 L 12006 10588 L 11983 10590 L 11962 10591 L 11940 10595 L 11920 10596 L 11899 10598 L 11876 10598 L 11854 10596 L 11831 10596 L 11806 10601 L 11781 10608 L 11758 10611 L 11733 10614 L 11705 10616 L 11679 10618 L 11652 10618 L 11629 10616 L 11606 10616 L 11581 10618 L 11556 10618 L 11537 10623 L 11518 10629 L 11499 10638 L 11477 10644 L 11454 10649 L 11432 10652 L 11408 10654 L 11381 10654 L 11358 10654 L 11335 10654 L 11310 10654 L 11285 10654 L 11262 10654 L 11241 10654 L 11219 10654 L 11206 10654 L 11201 10654 L 11204 10654 L 11216 10654 L 11236 10654 L 11259 10654 L 11285 10654 L 11313 10654 L 11343 10654 L 11368 10654 L 11391 10654 L 11414 10654 L 11439 10654 L 11464 10654 L 11487 10654 L 11508 10654 L 11527 10647 L 11546 10638 L 11566 10628 L 11586 10619 L 11606 10614 L 11629 10611 L 11656 10611 L 11680 10613 L 11704 10613 L 11725 10608 L 11748 10601 L 11771 10598 L 11796 10595 L 11824 10593 L 11851 10591 L 11877 10591 L 11900 10593 L 11924 10593 L 11948 10588 L 11973 10581 L 11996 10578 L 12018 10575 L 12043 10573 L 12069 10571 L 12092 10571 L 12115 10573 L 12134 10570 L 12148 10565 L 12165 10561 L 12185 10560 L 12206 10558 L 12233 10555 L 12258 10553 L 12281 10552 L 12306 10552 L 12330 10553 L 12353 10553 L 12378 10552 L 12403 10552 L 12426 10553 L 12451 10553 L 12476 10552 L 12499 10552 L 12520 10553 L 12545 10550 L 12572 10542 L 12598 10538 L 12621 10535 L 12648 10530 L 12673 10525 L 12696 10522 L 12717 10523 L 12737 10525 L 12760 10525 L 12783 10523 L 12808 10523 L 12833 10525 L 12859 10525 L 12884 10523 L 12907 10523 L 12932 10525 L 12955 10525 L 12980 10523 L 13005 10523 L 13028 10525 L 13053 10525 L 13078 10520 L 13101 10513 L 13122 10505 L 13144 10499 L 13170 10494 L 13195 10490 L 13218 10489 L 13243 10489 L 13270 10489 L 13294 10489 L 13318 10489 L 13342 10489 L 13366 10489 L 13390 10489 L 13415 10489 L 13438 10489 L 13463 10489 L 13488 10489 L 13511 10489 L 13533 10489 L 13554 10489 L 13580 10489 L 13605 10489 L 13625 10485 L 13643 10482 L 13663 10480 L 13683 10479 L 13700 10472 L 13716 10467 L 13731 10461 L 13743 10446 L 13749 10426 L 13756 10408 L 13762 10398 L 13766 10399 L 13769 10406" stroke="#00F900" stroke-width="56" fill="none" stroke-linecap="round" stroke-linejoin="round" opacity="0.50"/>
<path d="M 28018 7110 L 28015 7112 L 28005 7112 L 27990 7110 L 27968 7110 L 27945 7112 L 27920 7112 L 27896 7110 L 27869 7110 L 27844 7112 L 27821 7112 L 27800 7110 L 27780 7110 L 27757 7112 L 27734 7112 L 27709 7110 L 27684 7110 L 27658 7112 L 27633 7112 L 27610 7110 L 27585 7110 L 27558 7112 L 27533 7112 L 27510 7110 L 27489 7110 L 27466 7112 L 27443 7112 L 27418 7110 L 27386 7110 L 27357 7112 L 27328 7112 L 27300 7110 L 27271 7110 L 27242 7112 L 27214 7112 L 27185 7110 L 27156 7110 L 27128 7112 L 27102 7112 L 27077 7110 L 27051 7110 L 27026 7112 L 27003 7112 L 26980 7110 L 26958 7110 L 26933 7112 L 26907 7112 L 26884 7110 L 26860 7110 L 26836 7112 L 26811 7112 L 26788 7110 L 26766 7110 L 26741 7112 L 26715 7112 L 26692 7110 L 26669 7110 L 26644 7112 L 26619 7112 L 26596 7110 L 26574 7113 L 26553 7118 L 26526 7122 L 26502 7123 L 26478 7125 L 26454 7128 L 26431 7130 L 26406 7131 L 26381 7131 L 26358 7130 L 26333 7130 L 26308 7131 L 26285 7135 L 26263 7140 L 26239 7145 L 26212 7148 L 26189 7150 L 26166 7151 L 26141 7151 L 26116 7150 L 26096 7156 L 26078 7165 L 26062 7174 L 26044 7183 L 26024 7188 L 26002 7191 L 25979 7191 L 25961 7193 L 25941 7196 L 25918 7198 L 25895 7201 L 25877 7206 L 25862 7211 L 25848 7214 L 25829 7219 L 25805 7224 L 25782 7227 L 25761 7229 L 25736 7231 L 25713 7234 L 25693 7239 L 25675 7244 L 25655 7247 L 25630 7249 L 25604 7251 L 25581 7251 L 25557 7249 L 25533 7249 L 25508 7251 L 25488 7254 L 25470 7259 L 25453 7270 L 25438 7284 L 25428 7302 L 25418 7318 L 25410 7340 L 25402 7360 L 25399 7380 L 25390 7396 L 25382 7413 L 25375 7431 L 25371 7452 L 25364 7472 L 25356 7492 L 25346 7509 L 25337 7525 L 25332 7547 L 25329 7568 L 25326 7591 L 25324 7613 L 25323 7638 L 25323 7664 L 25324 7690 L 25324 7714 L 25323 7740 L 25323 7765 L 25324 7788 L 25324 7809 L 25323 7829 L 25323 7852 L 25324 7876 L 25324 7900 L 25323 7925 L 25323 7952 L 25324 7977 L 25324 8000 L 25323 8024 L 25323 8051 L 25324 8076 L 25324 8099 L 25323 8120 L 25323 8144 L 25324 8167 L 25324 8191 L 25323 8216 L 25323 8243 L 25324 8268 L 25324 8291 L 25323 8316 L 25323 8339 L 25324 8363 L 25324 8388 L 25323 8411 L 25323 8433 L 25324 8458 L 25324 8484 L 25323 8507 L 25323 8530 L 25324 8555 L 25324 8580 L 25323 8603 L 25323 8625 L 25324 8646 L 25324 8673 L 25323 8698 L 25323 8721 L 25324 8745 L 25324 8769 L 25323 8793 L 25323 8818 L 25324 8841 L 25324 8866 L 25319 8891 L 25313 8914 L 25309 8936 L 25306 8960 L 25304 8987 L 25303 9013 L 25303 9036 L 25304 9063 L 25304 9088 L 25303 9111 L 25303 9132 L 25304 9152 L 25304 9175 L 25303 9199 L 25303 9223 L 25304 9248 L 25304 9275 L 25303 9299 L 25303 9323 L 25304 9347 L 25304 9374 L 25296 9395 L 25286 9415 L 25278 9433 L 25273 9450 L 25270 9468 L 25266 9490 L 25265 9513 L 25263 9536 L 25263 9561 L 25265 9586 L 25265 9609 L 25260 9630 L 25253 9648 L 25250 9668 L 25246 9691 L 25245 9714 L 25243 9736 L 25243 9757 L 25245 9781 L 25245 9805 L 25243 9830 L 25243 9853 L 25245 9878 L 25245 9903 L 25243 9926 L 25243 9948 L 25245 9969 L 25245 9996 L 25243 10020 L 25243 10044 L 25245 10068 L 25245 10092 L 25243 10116 L 25243 10141 L 25245 10164 L 25245 10189 L 25243 10214 L 25243 10237 L 25245 10259 L 25245 10283 L 25243 10310 L 25243 10336 L 25245 10359 L 25245 10386 L 25243 10411 L 25243 10434 L 25245 10455 L 25245 10475 L 25243 10498 L 25243 10521 L 25245 10546 L 25245 10571 L 25246 10591 L 25250 10612 L 25253 10632 L 25258 10650 L 25263 10670 L 25266 10695 L 25268 10722 L 25270 10746 L 25270 10770 L 25268 10793 L 25275 10814 L 25283 10832 L 25293 10852 L 25301 10872 L 25306 10895 L 25309 10918 L 25313 10937 L 25318 10955 L 25323 10971 L 25329 10986 L 25334 11001 L 25337 11021 L 25342 11042 L 25349 11059 L 25361 11070 L 25371 11074 L 25379 11070 L 25385 11056 L 25395 11041 L 25405 11024 L 25414 11006 L 25418 10988 L 25422 10965 L 25425 10940 L 25427 10915 L 25428 10892 L 25428 10867 L 25427 10842 L 25427 10819 L 25428 10794 L 25428 10766 L 25427 10740 L 25427 10713 L 25425 10690 L 25418 10667 L 25412 10642 L 25409 10617 L 25405 10594 L 25400 10569 L 25395 10545 L 25392 10521 L 25394 10500 L 25389 10482 L 25382 10465 L 25377 10445 L 25374 10424 L 25369 10401 L 25366 10379 L 25364 10356 L 25362 10331 L 25359 10310 L 25354 10293 L 25349 10277 L 25346 10255 L 25344 10234 L 25342 10211 L 25342 10189 L 25344 10164 L 25344 10138 L 25342 10111 L 25342 10088 L 25344 10062 L 25344 10037 L 25342 10014 L 25342 9992 L 25344 9972 L 25344 9949 L 25342 9926 L 25342 9901 L 25344 9877 L 25344 9850 L 25342 9825 L 25342 9802 L 25344 9777 L 25344 9754 L 25342 9729 L 25339 9705 L 25334 9681 L 25329 9657 L 25326 9632 L 25324 9609 L 25323 9587 L 25323 9566 L 25324 9539 L 25324 9514 L 25323 9491 L 25323 9466 L 25324 9440 L 25324 9415 L 25323 9392 L 25323 9371 L 25324 9351 L 25324 9328 L 25323 9304 L 25323 9280 L 25324 9255 L 25324 9228 L 25323 9204 L 25323 9180 L 25324 9152 L 25324 9126 L 25323 9099 L 25323 9076 L 25324 9053 L 25324 9028 L 25323 9003 L 25323 8980 L 25324 8959 L 25324 8934 L 25323 8908 L 25323 8884 L 25324 8861 L 25324 8836 L 25323 8812 L 25323 8788 L 25321 8770 L 25318 8752 L 25316 8736 L 25313 8717 L 25311 8696 L 25309 8676 L 25306 8656 L 25304 8633 L 25303 8607 L 25303 8582 L 25304 8559 L 25304 8530 L 25303 8504 L 25303 8478 L 25304 8454 L 25304 8428 L 25303 8403 L 25303 8380 L 25304 8359 L 25304 8335 L 25303 8312 L 25303 8287 L 25304 8263 L 25308 8243 L 25313 8225 L 25323 8211 L 25332 8196 L 25341 8180 L 25346 8162 L 25352 8144 L 25359 8120 L 25362 8096 L 25366 8071 L 25371 8051 L 25375 8033 L 25379 8013 L 25384 7991 L 25389 7968 L 25395 7950 L 25404 7935 L 25410 7922 L 25415 7902 L 25422 7882 L 25430 7862 L 25437 7843 L 25442 7819 L 25445 7796 L 25447 7775 L 25448 7753 L 25448 7737 L 25447 7732 L 25447 7737 L 25448 7753 L 25448 7773 L 25447 7795 L 25447 7818 L 25448 7843 L 25448 7869 L 25447 7895 L 25447 7922 L 25448 7948 L 25448 7975 L 25447 8001 L 25447 8024 L 25448 8051 L 25448 8076 L 25447 8099 L 25447 8120 L 25448 8144 L 25448 8167 L 25447 8191 L 25447 8216 L 25448 8243 L 25448 8268 L 25447 8291 L 25447 8316 L 25448 8339 L 25448 8363 L 25447 8388 L 25443 8411 L 25438 8433 L 25432 8458 L 25428 8484 L 25425 8507 L 25423 8530 L 25422 8555 L 25422 8580 L 25420 8603 L 25414 8625 L 25409 8646 L 25405 8673 L 25400 8698 L 25395 8721 L 25392 8745 L 25387 8765 L 25382 8783 L 25379 8803 L 25374 8825 L 25369 8845 L 25366 8866 L 25364 8889 L 25359 8908 L 25352 8927 L 25349 8947 L 25346 8970 L 25341 8990 L 25336 9008 L 25332 9025 L 25331 9046 L 25329 9073 L 25326 9099 L 25321 9126 L 25316 9152 L 25313 9179 L 25311 9205 L 25309 9228 L 25306 9251 L 25304 9276 L 25303 9301 L 25303 9324 L 25304 9346 L 25304 9371 L 25303 9397 L 25303 9423 L 25304 9447 L 25304 9466 L 25303 9488 L 25303 9511 L 25304 9533 L 25304 9556 L 25303 9581 L 25303 9605 L 25304 9629 L 25304 9653 L 25303 9681 L 25303 9708 L 25308 9731 L 25314 9751 L 25319 9769 L 25326 9782 L 25332 9797 L 25339 9814 L 25342 9832 L 25346 9850 L 25351 9867 L 25356 9885 L 25359 9906 L 25361 9926 L 25362 9946 L 25372 9963 L 25384 9979 L 25392 10001 L 25399 10022 L 25402 10045 L 25405 10067 L 25410 10088 L 25415 10108 L 25418 10126 L 25420 10146 L 25422 10168 L 25428 10184 L 25433 10202 L 25437 10221 L 25442 10240 L 25445 10262 L 25447 10285 L 25448 10310 L 25448 10336 L 25447 10359 L 25447 10386 L 25448 10411 L 25448 10434 L 25447 10455 L 25447 10475 L 25448 10498 L 25448 10521 L 25447 10546 L 25447 10571 L 25448 10598 L 25448 10622 L 25447 10645 L 25447 10670 L 25448 10697 L 25448 10722 L 25447 10745 L 25447 10766 L 25448 10789 L 25448 10813 L 25447 10837 L 25447 10862 L 25448 10889 L 25445 10910 L 25440 10930 L 25435 10948 L 25432 10965 L 25430 10986 L 25428 11011 L 25422 11034 L 25417 11054 L 25414 11072 L 25409 11089 L 25399 11104 L 25387 11120 L 25379 11137 L 25372 11155 L 25366 11173 L 25356 11190 L 25346 11208 L 25337 11229 L 25332 11249 L 25326 11266 L 25319 11282 L 25313 11304 L 25303 11322 L 25293 11342 L 25285 11362 L 25276 11381 L 25270 11401 L 25265 11421 L 25261 11441 L 25260 11461 L 25260 11481 L 25260 11494 L 25260 11500 L 25260 11497 L 25260 11484 L 25260 11466 L 25260 11443 L 25260 11418 L 25260 11395 L 25260 11370 L 25260 11345 L 25266 11325 L 25276 11307 L 25286 11290 L 25294 11269 L 25299 11246 L 25303 11223 L 25306 11201 L 25308 11176 L 25309 11150 L 25309 11123 L 25308 11100 L 25308 11077 L 25309 11052 L 25309 11027 L 25308 11004 L 25311 10980 L 25316 10955 L 25319 10932 L 25321 10910 L 25323 10889 L 25326 10862 L 25328 10837 L 25329 10814 L 25329 10789 L 25328 10763 L 25328 10738 L 25329 10715 L 25329 10693 L 25328 10670 L 25328 10647 L 25329 10622 L 25329 10598 L 25328 10574 L 25324 10553 L 25319 10531 L 25313 10512 L 25309 10500 L 25306 10497 L 25298 10502 L 25289 10515 L 25280 10531 L 25271 10551 L 25266 10573 L 25263 10596 L 25263 10621 L 25265 10647 L 25265 10670 L 25263 10697 L 25263 10722 L 25265 10745 L 25265 10766 L 25263 10789 L 25263 10813 L 25265 10837 L 25265 10862 L 25263 10889 L 25263 10913 L 25265 10937 L 25265 10961 L 25263 10984 L 25263 11009 L 25265 11034 L 25265 11057 L 25263 11079 L 25263 11104 L 25265 11133 L 25271 11160 L 25280 11181 L 25286 11204 L 25293 11226 L 25299 11249 L 25306 11267 L 25313 11285 L 25319 11302 L 25323 11323 L 25326 11345 L 25328 11368 L 25329 11390 L 25329 11414 L 25331 11438 L 25334 11457 L 25336 11476 L 25339 11492 L 25341 11514 L 25342 11537 L 25346 11560 L 25347 11581 L 25352 11606 L 25359 11633 L 25362 11659 L 25366 11682 L 25367 11709 L 25369 11734 L 25369 11757 L 25367 11778 L 25367 11798 L 25369 11821 L 25375 11844 L 25380 11869 L 25384 11894 L 25389 11920 L 25395 11945 L 25404 11968 L 25410 11997 L 25415 12023 L 25418 12049 L 25420 12073 L 25422 12092 L 25425 12114 L 25427 12137 L 25428 12159 L 25432 12182 L 25437 12207 L 25442 12231 L 25445 12254 L 25447 12279 L 25448 12304 L 25448 12331 L 25447 12355 L 25447 12379 L 25448 12407 L 25452 12426 L 25457 12446 L 25461 12466 L 25465 12486 L 25466 12506 L 25468 12529 L 25468 12552 L 25466 12574 L 25466 12595 L 25468 12622 L 25468 12646 L 25470 12666 L 25476 12684 L 25481 12704 L 25485 12724 L 25490 12744 L 25498 12764 L 25504 12784 L 25511 12804 L 25518 12827 L 25521 12853 L 25524 12878 L 25526 12901 L 25528 12929 L 25528 12956 L 25526 12982 L 25526 13005 L 25528 13032 L 25528 13057 L 25526 13080 L 25526 13101 L 25528 13121 L 25528 13144 L 25526 13167 L 25526 13192 L 25528 13217 L 25528 13243 L 25526 13268 L 25526 13291 L 25528 13316 L 25528 13343 L 25526 13367 L 25526 13391 L 25528 13412 L 25528 13435 L 25529 13455 L 25533 13473 L 25538 13490 L 25544 13498 L 25551 13495 L 25557 13481 L 25561 13463 L 25561 13443 L 25559 13419 L 25559 13392 L 25561 13366 L 25561 13343 L 25559 13316 L 25559 13288 L 25561 13258 L 25561 13230 L 25559 13200 L 25559 13172 L 25561 13147 L 25561 13118 L 25559 13088 L 25559 13060 L 25561 13032 L 25561 12999 L 25559 12967 L 25559 12931 L 25561 12896 L 25561 12866 L 25559 12840 L 25559 12812 L 25561 12785 L 25561 12761 L 25559 12737 L 25559 12716 L 25561 12691 L 25561 12665 L 25559 12641 L 25559 12618 L 25561 12593 L 25561 12569 L 25559 12546 L 25559 12524 L 25561 12496 L 25561 12466 L 25559 12435 L 25559 12397 L 25561 12360 L 25561 12319 L 25559 12281 L 25559 12241 L 25557 12208 L 25554 12178 L 25551 12152 L 25549 12127 L 25547 12104 L 25544 12076 L 25542 12049 L 25541 12023 L 25538 12003 L 25533 11983 L 25528 11963 L 25524 11944 L 25519 11924 L 25514 11904 L 25511 11881 L 25506 11854 L 25501 11830 L 25495 11800 L 25486 11768 L 25480 11739 L 25475 11710 L 25471 11682 L 25470 11656 L 25465 11634 L 25458 11615 L 25452 11596 L 25448 11580 L 25445 11558 L 25443 11537 L 25442 11514 L 25442 11492 L 25440 11471 L 25437 11457 L 25432 11456 L 25425 11462 L 25415 11481 L 25405 11504 L 25394 11530 L 25382 11555 L 25375 11578 L 25371 11606 L 25367 11633 L 25362 11659 L 25359 11682 L 25351 11709 L 25342 11734 L 25336 11757 L 25331 11778 L 25328 11798 L 25326 11821 L 25323 11844 L 25319 11869 L 25314 11894 L 25309 11920 L 25306 11945 L 25298 11968 L 25289 11997 L 25280 12023 L 25268 12053 L 25260 12079 L 25253 12111 L 25250 12144 L 25246 12178 L 25242 12215 L 25237 12250 L 25233 12281 L 25232 12307 L 25230 12334 L 25223 12360 L 25218 12383 L 25215 12403 L 25213 12425 L 25213 12448 L 25213 12469 L 25213 12493 L 25213 12517 L 25213 12542 L 25213 12569 L 25213 12600 L 25213 12633 L 25213 12665 L 25213 12694 L 25213 12721 L 25213 12749 L 25207 12772 L 25197 12794 L 25187 12813 L 25179 12835 L 25174 12858 L 25170 12880 L 25170 12903 L 25169 12931 L 25165 12962 L 25164 12992 L 25161 13022 L 25159 13050 L 25157 13075 L 25151 13098 L 25146 13124 L 25142 13149 L 25137 13172 L 25134 13197 L 25132 13220 L 25127 13242 L 25121 13263 L 25118 13273 L 25114 13271 L 25113 13263 L 25111 13247 L 25111 13228 L 25113 13204 L 25113 13177 L 25111 13152 L 25111 13129 L 25113 13101 L 25113 13075 L 25111 13048 L 25111 13025 L 25113 13002 L 25116 12980 L 25121 12962 L 25127 12942 L 25131 12923 L 25134 12899 L 25139 12876 L 25144 12855 L 25151 12837 L 25159 12820 L 25165 12800 L 25177 12782 L 25187 12765 L 25199 12751 L 25210 12737 L 25223 12727 L 25238 12721 L 25251 12713 L 25266 12706 L 25283 12701 L 25299 12694 L 25314 12689 L 25329 12686 L 25349 12681 L 25371 12678 L 25394 12676 L 25415 12675 L 25442 12675 L 25463 12679 L 25483 12686 L 25498 12694 L 25508 12708 L 25514 12726 L 25523 12739 L 25529 12754 L 25534 12770 L 25538 12789 L 25542 12807 L 25547 12830 L 25551 12855 L 25556 12880 L 25567 12899 L 25577 12918 L 25585 12937 L 25587 12959 L 25590 12982 L 25589 13004 L 25587 13028 L 25587 13055 L 25589 13078 L 25589 13101 L 25587 13123 L 25587 13147 L 25589 13174 L 25589 13197 L 25587 13220 L 25587 13245 L 25589 13270 L 25589 13293 L 25587 13314 L 25581 13339 L 25572 13366 L 25562 13389 L 25554 13409 L 25544 13424 L 25533 13430 L 25514 13425 L 25498 13409 L 25480 13389 L 25465 13367 L 25452 13344 L 25442 13323 L 25432 13300 L 25423 13278 L 25415 13257 L 25402 13240 L 25387 13225 L 25374 13207 L 25359 13187 L 25346 13167 L 25336 13147 L 25326 13131 L 25318 13114 L 25306 13093 L 25293 13071 L 25283 13048 L 25273 13027 L 25265 13002 L 25256 12972 L 25246 12946 L 25238 12924 L 25233 12898 L 25230 12870 L 25223 12843 L 25218 12817 L 25215 12790 L 25207 12764 L 25197 12737 L 25187 12714 L 25179 12688 L 25174 12660 L 25170 12633 L 25170 12602 L 25172 12569 L 25172 12534 L 25170 12498 L 25170 12463 L 25172 12426 L 25172 12392 L 25170 12360 L 25170 12331 L 25172 12297 L 25172 12266 L 25170 12236 L 25170 12202 L 25172 12169 L 25172 12139 L 25170 12112 L 25170 12081 L 25172 12051 L 25172 12023 L 25170 11993 L 25170 11963 L 25172 11935 L 25172 11901 L 25170 11864 L 25170 11826 L 25172 11788 L 25172 11755 L 25170 11727 L 25170 11701 L 25172 11676 L 25172 11653 L 25170 11631 L 25170 11610 L 25172 11583 L 25172 11555 L 25170 11525 L 25170 11497 L 25172 11464 L 25172 11433 L 25170 11403 L 25167 11371 L 25162 11345 L 25157 11320 L 25154 11297 L 25152 11272 L 25147 11252 L 25141 11234 L 25137 11214 L 25134 11193 L 25132 11170 L 25127 11148 L 25121 11130 L 25118 11110 L 25114 11090 L 25113 11077 L 25111 11074 L 25111 11080 L 25113 11095 L 25113 11115 L 25111 11137 L 25111 11160 L 25113 11186 L 25113 11214 L 25111 11241 L 25111 11266 L 25113 11289 L 25113 11317 L 25111 11348 L 25111 11378 L 25113 11408 L 25113 11439 L 25111 11471 L 25111 11500 L 25113 11532 L 25113 11563 L 25111 11596 L 25111 11628 L 25113 11661 L 25113 11692 L 25111 11725 L 25111 11758 L 25113 11788 L 25113 11818 L 25111 11846 L 25111 11874 L 25113 11907 L 25113 11942 L 25111 11975 L 25111 12006 L 25113 12040 L 25113 12071 L 25114 12104 L 25118 12139 L 25121 12172 L 25126 12203 L 25131 12233 L 25134 12264 L 25136 12294 L 25141 12326 L 25147 12354 L 25151 12380 L 25157 12410 L 25162 12440 L 25165 12468 L 25170 12493 L 25174 12519 L 25182 12546 L 25190 12575 L 25200 12608 L 25208 12643 L 25213 12676 L 25220 12704 L 25227 12734 L 25233 12761 L 25240 12785 L 25243 12815 L 25246 12846 L 25248 12876 L 25250 12904 L 25250 12932 L 25251 12959 L 25255 12984 L 25256 13007 L 25260 13032 L 25261 13055 L 25270 13076 L 25280 13098 L 25288 13124 L 25296 13149 L 25303 13172 L 25308 13197 L 25311 13220 L 25313 13245 L 25313 13273 L 25313 13300 L 25313 13329 L 25313 13362 L 25313 13394 L 25313 13430 L 25313 13465 L 25313 13495 L 25313 13528 L 25313 13563 L 25313 13596 L 25313 13627 L 25313 13657 L 25313 13685 L 25313 13710 L 25313 13733 L 25313 13756 L 25313 13778 L 25313 13799 L 25313 13822 L 25313 13847 L 25313 13872 L 25313 13895 L 25313 13916 L 25313 13941 L 25313 13968 L 25313 13988 L 25313 13994 L 25313 13988 L 25313 13974 L 25313 13954 L 25306 13935 L 25296 13911 L 25286 13888 L 25278 13867 L 25273 13845 L 25266 13825 L 25260 13804 L 25253 13784 L 25250 13766 L 25246 13746 L 25242 13725 L 25237 13701 L 25233 13680 L 25232 13657 L 25230 13635 L 25227 13610 L 25225 13584 L 25227 13558 L 25227 13534 L 25223 13508 L 25220 13483 L 25218 13460 L 25217 13435 L 25213 13409 L 25212 13384 L 25210 13361 L 25210 13339 L 25212 13319 L 25212 13296 L 25210 13273 L 25210 13248 L 25212 13224 L 25212 13197 L 25210 13172 L 25210 13146 L 25212 13114 L 25212 13081 L 25210 13052 L 25210 13025 L 25212 13000 L 25212 12974 L 25210 12946 L 25210 12916 L 25212 12888 L 25212 12860 L 25210 12833 L 25210 12808 L 25212 12782 L 25212 12757 L 25210 12734 L 25213 12711 L 25218 12686 L 25223 12661 L 25227 12638 L 25228 12617 L 25230 12592 L 25230 12575 L 25228 12572 L 25228 12577 L 25230 12589 L 25230 12608 L 25228 12633 L 25228 12660 L 25230 12691 L 25230 12724 L 25228 12754 L 25228 12780 L 25230 12812 L 25230 12845 L 25228 12876 L 25228 12906 L 25230 12939 L 25230 12971 L 25228 13007 L 25228 13042 L 25230 13075 L 25230 13108 L 25228 13141 L 25228 13174 L 25230 13210 L 25230 13250 L 25228 13288 L 25225 13328 L 25223 13369 L 25220 13412 L 25212 13453 L 25200 13491 L 25190 13531 L 25184 13567 L 25179 13601 L 25175 13635 L 25174 13672 L 25174 13710 L 25174 13746 L 25174 13779 L 25174 13811 L 25170 13840 L 25167 13872 L 25162 13902 L 25157 13933 L 25154 13964 L 25152 13994 L 25151 14022 L 25151 14057 L 25152 14090 L 25152 14128 L 25151 14168 L 25151 14206 L 25152 14242 L 25152 14279 L 25151 14313 L 25151 14348 L 25152 14381 L 25152 14409 L 25151 14432 L 25151 14454 L 25152 14477 L 25152 14498 L 25151 14520 L 25151 14543 L 25152 14568 L 25156 14589 L 25161 14599 L 25167 14599 L 25170 14591 L 25174 14575 L 25175 14556 L 25177 14530 L 25177 14503 L 25175 14477 L 25175 14451 L 25177 14424 L 25177 14398 L 25175 14371 L 25175 14348 L 25177 14328 L 25177 14307 L 25175 14284 L 25182 14265 L 25190 14245 L 25203 14229 L 25215 14222 L 25228 14221 L 25240 14224 L 25250 14232 L 25256 14242 L 25268 14252 L 25281 14267 L 25293 14285 L 25306 14302 L 25316 14318 L 25326 14333 L 25334 14348 L 25342 14368 L 25352 14386 L 25361 14406 L 25369 14427 L 25379 14451 L 25387 14475 L 25395 14500 L 25405 14520 L 25414 14538 L 25418 14558 L 25425 14580 L 25432 14603 L 25438 14624 L 25442 14649 L 25445 14675 L 25447 14699 L 25445 14715 L 25442 14723 L 25438 14718 L 25430 14705 L 25418 14687 L 25402 14667 L 25389 14646 L 25377 14619 L 25367 14598 L 25356 14578 L 25346 14560 L 25337 14543 L 25329 14525 L 25319 14507 L 25304 14487 L 25289 14465 L 25276 14446 L 25265 14431 L 25255 14414 L 25243 14394 L 25237 14373 L 25232 14350 L 25228 14328 L 25223 14312 L 25220 14293 L 25218 14275 L 25217 14255 L 25213 14231 L 25212 14204 L 25203 14183 L 25194 14163 L 25185 14145 L 25180 14128 L 25177 14107 L 25174 14080 L 25172 14054 L 25170 14024 L 25170 13994 L 25172 13966 L 25172 13941 L 25170 13915 L 25170 13888 L 25172 13865 L 25172 13842 L 25170 13820 L 25170 13796 L 25172 13769 L 25172 13746 L 25170 13723 L 25170 13698 L 25172 13673 L 25169 13653 L 25164 13635 L 25161 13619 L 25159 13597 L 25157 13577 L 25154 13564 L 25152 13561 L 25154 13567 L 25157 13582 L 25161 13602 L 25172 13620 L 25184 13640 L 25194 13662 L 25202 13685 L 25207 13706 L 25213 13723 L 25220 13741 L 25227 13759 L 25233 13776 L 25240 13791 L 25243 13806 L 25246 13822 L 25248 13844 L 25250 13868 L 25253 13892 L 25258 13911 L 25263 13930 L 25266 13949 L 25268 13971 L 25270 13988 L 25270 13992 L 25268 13988 L 25268 13981 L 25270 13981 L 25270 13988 L 25268 14001 L 25268 14017 L 25270 14037 L 25270 14059 L 25268 14082 L 25268 14103 L 25270 14130 L 25270 14158 L 25268 14184 L 25268 14209 L 25270 14236 L 25270 14260 L 25268 14284 L 25268 14308 L 25270 14331 L 25266 14350 L 25261 14368 L 25256 14384 L 25250 14399 L 25242 14414 L 25235 14431 L 25230 14452 L 25223 14474 L 25218 14497 L 25215 14518 L 25213 14543 L 25207 14570 L 25197 14596 L 25187 14619 L 25179 14646 L 25174 14670 L 25167 14690 L 25161 14709 L 25157 14725 L 25154 14742 L 25152 14763 L 25151 14785 L 25147 14804 L 25142 14823 L 25137 14839 L 25134 14861 L 25132 14884 L 25131 14907 L 25131 14928 L 25132 14953 L 25132 14980 L 25134 15003 L 25141 15019 L 25151 15034 L 25167 15043 L 25185 15049 L 25203 15054 L 25220 15061 L 25235 15076 L 25246 15092 L 25256 15110 L 25270 15129 L 25281 15145 L 25291 15167 L 25299 15191 L 25306 15215 L 25313 15234 L 25319 15253 L 25323 15272 L 25329 15291 L 25334 15310 L 25337 15330 L 25342 15350 L 25346 15373 L 25347 15396 L 25349 15418 L 25349 15439 L 25347 15463 L 25347 15487 L 25352 15509 L 25359 15519 L 25362 15515 L 25366 15504 L 25367 15486 L 25366 15469 L 25359 15454 L 25349 15439 L 25336 15420 L 25324 15398 L 25308 15382 L 25293 15373 L 25283 15377 L 25276 15388 L 25271 15406 L 25268 15426 L 25263 15444 L 25260 15464 L 25255 15486 L 25250 15509 L 25246 15530 L 25242 15552 L 25237 15578 L 25233 15603 L 25232 15626 L 25227 15648 L 25220 15664 L 25217 15684 L 25207 15702 L 25195 15719 L 25187 15737 L 25180 15754 L 25177 15775 L 25180 15793 L 25189 15803 L 25197 15803 L 25203 15795 L 25202 15778 L 25192 15764 L 25177 15744 L 25157 15725 L 25132 15709 L 25106 15697 L 25084 15687 L 25065 15679 L 25046 15674 L 25030 15671 L 25008 15671 L 24989 15669 L 24969 15666 L 24949 15664 L 24929 15661 L 24906 15659 L 24883 15658 L 24861 15654 L 24836 15653 L 24810 15651 L 24787 15651 L 24764 15653 L 24742 15653 L 24717 15651 L 24691 15651 L 24668 15653 L 24645 15653 L 24620 15651 L 24595 15651 L 24572 15653 L 24550 15653 L 24529 15651 L 24506 15651 L 24481 15653 L 24456 15653 L 24433 15651 L 24408 15651 L 24383 15653 L 24360 15653 L 24339 15651 L 24314 15651 L 24287 15653 L 24261 15653 L 24238 15651 L 24211 15651 L 24187 15653 L 24163 15653 L 24142 15651 L 24119 15651 L 24096 15653 L 24071 15653 L 24046 15651 L 24023 15651 L 23998 15653 L 23973 15653 L 23950 15651 L 23932 15654 L 23914 15659 L 23894 15664 L 23872 15668 L 23852 15669 L 23834 15671 L 23811 15674 L 23786 15676 L 23762 15678 L 23738 15678 L 23717 15676 L 23692 15676 L 23666 15678 L 23639 15678 L 23613 15676 L 23586 15676 L 23560 15678 L 23537 15678 L 23513 15676 L 23489 15676 L 23464 15678 L 23441 15678 L 23419 15676 L 23394 15676 L 23368 15678 L 23345 15678 L 23322 15676 L 23297 15676 L 23272 15678 L 23249 15678 L 23227 15676 L 23209 15679 L 23189 15684 L 23170 15687 L 23150 15689 L 23130 15691 L 23110 15691 L 23087 15689 L 23064 15689 L 23039 15691 L 23014 15691 L 22988 15689 L 22963 15689 L 22940 15691 L 22915 15691 L 22888 15689 L 22864 15689 L 22840 15691 L 22819 15697 L 22796 15706 L 22773 15712 L 22748 15717 L 22723 15721 L 22700 15722 L 22675 15724 L 22650 15727 L 22627 15729 L 22606 15730 L 22581 15730 L 22554 15729 L 22531 15729 L 22508 15730 L 22483 15730 L 22458 15729 L 22435 15729 L 22417 15730" stroke="#00F900" stroke-width="56" fill="none" stroke-linecap="round" stroke-linejoin="round" opacity="0.50"/>
<path d="M 19332 14376 L 19329 14374 L 19319 14371 L 19304 14369 L 19286 14368 L 19263 14364 L 19236 14363 L 19211 14364 L 19188 14364 L 19163 14364 L 19137 14364 L 19112 14364 L 19092 14361 L 19074 14358 L 19054 14356 L 19034 14355 L 19011 14351 L 18988 14350 L 18967 14348 L 18945 14348 L 18919 14350 L 18894 14350 L 18871 14348 L 18849 14348 L 18826 14350 L 18803 14350 L 18778 14348 L 18753 14348 L 18727 14350 L 18702 14350 L 18679 14348 L 18654 14348 L 18631 14350 L 18606 14350 L 18581 14348 L 18558 14348 L 18533 14350 L 18508 14350 L 18485 14348 L 18464 14348 L 18442 14350 L 18416 14350 L 18391 14348 L 18368 14348 L 18343 14350 L 18317 14350 L 18292 14348 L 18269 14348 L 18247 14350 L 18227 14350 L 18204 14348 L 18181 14348 L 18156 14350 L 18131 14350 L 18105 14348 L 18080 14348 L 18057 14350 L 18029 14350 L 18002 14348 L 17976 14348 L 17953 14350 L 17930 14350 L 17905 14348 L 17883 14351 L 17867 14356 L 17850 14361 L 17832 14364 L 17814 14366 L 17794 14368 L 17773 14368 L 17749 14366 L 17728 14366 L 17702 14368 L 17673 14368 L 17647 14366 L 17619 14366 L 17592 14368 L 17569 14368 L 17546 14366 L 17525 14366 L 17500 14368 L 17473 14368 L 17450 14366 L 17434 14366 L 17429 14374 L 17430 14384" stroke="#00F900" stroke-width="56" fill="none" stroke-linecap="round" stroke-linejoin="round" opacity="0.50"/>
<path d="M 10140 15170 L 10145 15168 L 10155 15165 L 10168 15163 L 10186 15162 L 10209 15162 L 10231 15167 L 10251 15173 L 10271 15178 L 10290 15182 L 10314 15185 L 10337 15187 L 10362 15188 L 10383 15188 L 10406 15187 L 10429 15187 L 10454 15188 L 10479 15188 L 10505 15187 L 10530 15187 L 10553 15188 L 10578 15188 L 10601 15187 L 10626 15187 L 10651 15188 L 10674 15188 L 10696 15187 L 10720 15187 L 10747 15188 L 10770 15188 L 10793 15187 L 10818 15187 L 10843 15188 L 10866 15188 L 10887 15187 L 10909 15187 L 10935 15188 L 10960 15188 L 10983 15187 L 11008 15187 L 11031 15188 L 11056 15188 L 11081 15187 L 11104 15187 L 11129 15188 L 11154 15188 L 11177 15187 L 11198 15187 L 11223 15188 L 11250 15188 L 11276 15187 L 11299 15187 L 11326 15188 L 11350 15188 L 11374 15187 L 11395 15187 L 11415 15188 L 11438 15188 L 11461 15187 L 11486 15187 L 11511 15188 L 11537 15188 L 11562 15187 L 11585 15187 L 11610 15188 L 11637 15188 L 11661 15187 L 11685 15187 L 11706 15188 L 11729 15188 L 11752 15187 L 11777 15187 L 11802 15188 L 11828 15188 L 11853 15187 L 11876 15187 L 11901 15188 L 11924 15188 L 11949 15187 L 11974 15187 L 11997 15188 L 12019 15188 L 12043 15187 L 12070 15187 L 12093 15188 L 12116 15188 L 12141 15187 L 12166 15187 L 12189 15188 L 12210 15188 L 12232 15187 L 12258 15187 L 12283 15188 L 12306 15188 L 12331 15187 L 12354 15187 L 12379 15188 L 12404 15188 L 12424 15193 L 12442 15200 L 12462 15208 L 12483 15215 L 12506 15220 L 12528 15223 L 12549 15225 L 12573 15225 L 12597 15225 L 12622 15225 L 12649 15225 L 12673 15225 L 12697 15225 L 12718 15225 L 12738 15225 L 12761 15225 L 12784 15225 L 12809 15225 L 12834 15225 L 12860 15225 L 12885 15225 L 12908 15225 L 12933 15225 L 12956 15225 L 12981 15225 L 13006 15225 L 13029 15225 L 13054 15225 L 13079 15225 L 13098 15218 L 13117 15208 L 13133 15198 L 13151 15190 L 13171 15185 L 13193 15182 L 13212 15182" stroke="#00F900" stroke-width="56" fill="none" stroke-linecap="round" stroke-linejoin="round" opacity="0.50"/>
<path d="M 10 15410 L 15 15412 L 25 15415 L 40 15417 L 61 15418 L 84 15418 L 109 15417 L 131 15417 L 154 15418 L 177 15418 L 202 15417 L 227 15417 L 253 15418 L 278 15418 L 301 15417 L 326 15417 L 349 15418 L 374 15418 L 399 15417 L 422 15417 L 447 15418 L 471 15418 L 495 15417 L 516 15417 L 538 15418 L 564 15418 L 638 15417 L 728 15417 L 812 15418 L 885 15418 L 944 15417 L 991 15417 L 1027 15418 L 1057 15418 L 1085 15417 L 1110 15417 L 1133 15418 L 1153 15418 L 1171 15417 L 1191 15417 L 1212 15418 L 1235 15418 L 1257 15417 L 1282 15417 L 1308 15418 L 1335 15418 L 1358 15417 L 1384 15417 L 1409 15418 L 1432 15418 L 1454 15417 L 1477 15417 L 1500 15418 L 1525 15418 L 1550 15417 L 1576 15417 L 1601 15418 L 1624 15418 L 1649 15417 L 1672 15417 L 1697 15418 L 1722 15418 L 1745 15417 L 1766 15417 L 1791 15418 L 1817 15418 L 1841 15417 L 1864 15417 L 1889 15418 L 1913 15418 L 1936 15417 L 1958 15417 L 1983 15418 L 2009 15418 L 2036 15417 L 2059 15417 L 2082 15418 L 2107 15418 L 2132 15417 L 2155 15417 L 2173 15418" stroke="#00F900" stroke-width="56" fill="none" stroke-linecap="round" stroke-linejoin="round" opacity="0.50"/>
<path d="M 5496 15266 L 5501 15268 L 5511 15268 L 5524 15266 L 5536 15269 L 5552 15274 L 5574 15278 L 5594 15279 L 5613 15281 L 5630 15291 L 5650 15302 L 5671 15311 L 5694 15317 L 5716 15321 L 5736 15324 L 5757 15326 L 5780 15327 L 5802 15327 L 5825 15326 L 5850 15326 L 5875 15327 L 5898 15327 L 5923 15326 L 5951 15326 L 5977 15327 L 6004 15327 L 6027 15326 L 6053 15326 L 6078 15330 L 6101 15337 L 6123 15340 L 6146 15344 L 6169 15345 L 6194 15347 L 6219 15347 L 6245 15345 L 6270 15345 L 6293 15347 L 6318 15347 L 6341 15345 L 6366 15345 L 6391 15347 L 6414 15347 L 6439 15345 L 6463 15345 L 6487 15347 L 6511 15347 L 6539 15345 L 6569 15345 L 6599 15347 L 6627 15347 L 6652 15345 L 6678 15345 L 6705 15347 L 6728 15347 L 6748 15345 L 6769 15345 L 6792 15347 L 6814 15347 L 6837 15345 L 6862 15345 L 6887 15347 L 6910 15347 L 6935 15345 L 6963 15345 L 6989 15347 L 7016 15344 L 7039 15339 L 7062 15334 L 7087 15330 L 7112 15329 L 7135 15327 L 7156 15324 L 7181 15322 L 7208 15321 L 7231 15321 L 7251 15316 L 7269 15309 L 7289 15301 L 7310 15294 L 7333 15289 L 7355 15286 L 7373 15284" stroke="#00F900" stroke-width="56" fill="none" stroke-linecap="round" stroke-linejoin="round" opacity="0.50"/>
<path d="M 6146 18754 L 6148 18756 L 6158 18756 L 6172 18756 L 6192 18756 L 6214 18756 L 6240 18756 L 6265 18756 L 6288 18756 L 6313 18756 L 6338 18756 L 6364 18756 L 6389 18749 L 6412 18742 L 6434 18736 L 6457 18729 L 6480 18726 L 6505 18723 L 6530 18721 L 6549 18716 L 6571 18709 L 6594 18706 L 6619 18703 L 6649 18701 L 6678 18699 L 6707 18699 L 6731 18701 L 6755 18698 L 6778 18693 L 6799 18690 L 6821 18688 L 6844 18686 L 6869 18683 L 6893 18678 L 6917 18673 L 6938 18670 L 6963 18668 L 6989 18666 L 7016 18663 L 7039 18661 L 7062 18663 L 7087 18663 L 7112 18663 L 7135 18663 L 7156 18663 L 7181 18663 L 7208 18663 L 7231 18663 L 7251 18656 L 7269 18650 L 7289 18643 L 7310 18637 L 7333 18633 L 7352 18630" stroke="#00F900" stroke-width="56" fill="none" stroke-linecap="round" stroke-linejoin="round" opacity="0.50"/>
<path d="M 11128 18610 L 11130 18610 L 11140 18610 L 11154 18610 L 11174 18610 L 11196 18610 L 11219 18610 L 11244 18610 L 11270 18610 L 11297 18610 L 11323 18610 L 11350 18610 L 11373 18610 L 11396 18610 L 11417 18610 L 11442 18610 L 11469 18610 L 11492 18610 L 11515 18610 L 11540 18610 L 11565 18610 L 11588 18610 L 11609 18610 L 11634 18610 L 11660 18610 L 11687 18610 L 11710 18610 L 11730 18610 L 11751 18610 L 11775 18610 L 11796 18610 L 11819 18610 L 11844 18610 L 11869 18610 L 11892 18610 L 11917 18610 L 11945 18610 L 11971 18610 L 11998 18610 L 12021 18610 L 12044 18610 L 12069 18610 L 12094 18610 L 12120 18610 L 12148 18610 L 12178 18610 L 12206 18610 L 12233 18610 L 12261 18610 L 12291 18610 L 12319 18610 L 12348 18610 L 12380 18610 L 12411 18610 L 12434 18607 L 12459 18603 L 12484 18598 L 12507 18593 L 12529 18590 L 12550 18589 L 12573 18587 L 12598 18587 L 12623 18589 L 12649 18589 L 12674 18587 L 12697 18587 L 12719 18589 L 12739 18589 L 12762 18587 L 12785 18587 L 12810 18589 L 12835 18589 L 12861 18587 L 12886 18580 L 12909 18575 L 12934 18572 L 12957 18567 L 12982 18564 L 13007 18559 L 13030 18554 L 13054 18550 L 13079 18552 L 13102 18554 L 13124 18554 L 13145 18552 L 13172 18552 L 13197 18554 L 13220 18554 L 13245 18552 L 13271 18549 L 13296 18544 L 13319 18537 L 13344 18534 L 13367 18531 L 13392 18529 L 13417 18527 L 13440 18527 L 13465 18529 L 13489 18529 L 13513 18527 L 13534 18527 L 13556 18529 L 13582 18529 L 13607 18527 L 13630 18527 L 13655 18529 L 13678 18529 L 13699 18524 L 13718 18517 L 13737 18514 L 13757 18511 L 13780 18509 L 13800 18507" stroke="#00F900" stroke-width="56" fill="none" stroke-linecap="round" stroke-linejoin="round" opacity="0.50"/>
<path d="M 41638 9660 L 41645 9658 L 41655 9658 L 41668 9660 L 41686 9660 L 41709 9658 L 41734 9658 L 41757 9660 L 41782 9660 L 41807 9658 L 41830 9658 L 41855 9660 L 41879 9660 L 41903 9658 L 41927 9658 L 41952 9660 L 41975 9660 L 41997 9658 L 42022 9658 L 42048 9660 L 42075 9660 L 42098 9658 L 42121 9658 L 42146 9660 L 42170 9660 L 42200 9658 L 42232 9658 L 42260 9660 L 42286 9660 L 42309 9658 L 42329 9655 L 42351 9650 L 42374 9645 L 42399 9642 L 42428 9640 L 42455 9639 L 42480 9639 L 42503 9640 L 42528 9640 L 42551 9639 L 42576 9639 L 42600 9640 L 42627 9637 L 42652 9629 L 42675 9625 L 42700 9622 L 42723 9617 L 42748 9612 L 42772 9609 L 42796 9610 L 42820 9612 L 42845 9612 L 42868 9610 L 42890 9610 L 42911 9612 L 42938 9612 L 42963 9610 L 42986 9604 L 43011 9599 L 43037 9596 L 43062 9591 L 43082 9586 L 43097 9582" stroke="#00F900" stroke-width="56" fill="none" stroke-linecap="round" stroke-linejoin="round" opacity="0.50"/>
<path d="M 26430 16974 L 26433 16976 L 26443 16976 L 26461 16974 L 26483 16974 L 26506 16976 L 26529 16976 L 26547 16977 L 26566 16981 L 26585 16984 L 26607 16989 L 26627 16994 L 26645 16997 L 26668 16999 L 26693 17000 L 26718 17000 L 26741 16999 L 26762 16999 L 26787 17000 L 26814 17000 L 26840 16999 L 26867 16999 L 26893 17000 L 26916 17000 L 26939 16999 L 26961 16999 L 26986 17000 L 27012 17000 L 27035 16999 L 27058 16999 L 27083 17000 L 27108 17000 L 27128 16995 L 27146 16989 L 27163 16984 L 27184 16981 L 27207 16977 L 27230 16976 L 27252 16974 L 27273 16974 L 27297 16976 L 27321 16976 L 27346 16974 L 27369 16974 L 27394 16976 L 27419 16976 L 27442 16974 L 27464 16974 L 27488 16976 L 27511 16972 L 27531 16967 L 27550 16964 L 27566 16962 L 27584 16961 L 27604 16957 L 27626 16956 L 27649 16954 L 27670 16954 L 27697 16956 L 27725 16956 L 27751 16954 L 27779 16954 L 27806 16956 L 27832 16956 L 27855 16954 L 27879 16954 L 27903 16956 L 27928 16956 L 27951 16954 L 27973 16954 L 27998 16956 L 28024 16956 L 28047 16954 L 28070 16954 L 28095 16956 L 28120 16956 L 28143 16954 L 28165 16954 L 28186 16956 L 28213 16956 L 28237 16954 L 28261 16954 L 28285 16956 L 28309 16956 L 28333 16954 L 28358 16954 L 28381 16956 L 28406 16956 L 28431 16954 L 28454 16951 L 28476 16946 L 28500 16941 L 28527 16938 L 28553 16933 L 28576 16928 L 28596 16924 L 28618 16926 L 28641 16928 L 28662 16928 L 28686 16926 L 28710 16926 L 28735 16928 L 28755 16924 L 28773 16919 L 28793 16914 L 28818 16911 L 28844 16906 L 28867 16901 L 28887 16898 L 28909 16896 L 28932 16891 L 28953 16885 L 28977 16881 L 28998 16878 L 29023 16876 L 29049 16875 L 29076 16875 L 29102 16876 L 29129 16876 L 29155 16875 L 29178 16875 L 29202 16876 L 29226 16876 L 29251 16875 L 29274 16875 L 29296 16876 L 29321 16876 L 29347 16875 L 29370 16875 L 29390 16880 L 29405 16893 L 29415 16911 L 29420 16931 L 29423 16951 L 29423 16971 L 29418 16987 L 29408 17000 L 29397 17015 L 29380 17029 L 29362 17037 L 29340 17043 L 29321 17047 L 29297 17050 L 29271 17052 L 29246 17053 L 29223 17053 L 29195 17052 L 29168 17052 L 29145 17053 L 29122 17053 L 29101 17052 L 29076 17052 L 29049 17053 L 29026 17053 L 29003 17052 L 28985 17045 L 28967 17037 L 28947 17030 L 28925 17024 L 28906 17017 L 28884 17014 L 28861 17010 L 28838 17009 L 28816 17010 L 28791 17010 L 28765 17010 L 28738 17010 L 28715 17010 L 28689 17010 L 28664 17010 L 28641 17010 L 28616 17010 L 28593 17010 L 28568 17010 L 28543 17010 L 28520 17010 L 28499 17010 L 28474 17010 L 28447 17010 L 28424 17010 L 28401 17010 L 28376 17010 L 28352 17010 L 28328 17010 L 28307 17010 L 28285 17010 L 28259 17010 L 28234 17010 L 28211 17010 L 28186 17010 L 28163 17010 L 28138 17010 L 28113 17010 L 28090 17010 L 28065 17010 L 28044 17007 L 28024 17004 L 28004 17002 L 27984 17000 L 27961 16997 L 27938 16995 L 27917 16994 L 27895 16994 L 27869 16995 L 27844 16995 L 27821 16994 L 27803 16991 L 27786 16986 L 27768 16981 L 27746 16977 L 27726 16976 L 27707 16974 L 27687 16974 L 27664 16976 L 27637 16976 L 27612 16974 L 27589 16974 L 27561 16976 L 27535 16976 L 27511 16974 L 27488 16974 L 27464 16976 L 27439 16976 L 27416 16974 L 27394 16974 L 27373 16976 L 27346 16976 L 27321 16974 L 27298 16974 L 27273 16976 L 27247 16976 L 27222 16974 L 27199 16974 L 27177 16976 L 27154 16976 L 27131 16974 L 27106 16974 L 27082 16976 L 27055 16976 L 27030 16974 L 27007 16974 L 26982 16976 L 26956 16976 L 26931 16974 L 26908 16971 L 26883 16966 L 26860 16961 L 26835 16957 L 26810 16956 L 26787 16954 L 26766 16954 L 26741 16956 L 26714 16956 L 26691 16954 L 26668 16954 L 26643 16956 L 26619 16956 L 26599 16957 L 26584 16964 L 26577 16974 L 26582 16984 L 26595 16992 L 26612 17000 L 26628 17007 L 26647 17012 L 26668 17015 L 26691 17017 L 26714 17017 L 26739 17017 L 26764 17017 L 26784 17024 L 26805 17030 L 26825 17037 L 26843 17043 L 26867 17047 L 26891 17050 L 26916 17052 L 26939 17053 L 26961 17053 L 26986 17052 L 27012 17052 L 27035 17053 L 27058 17053 L 27083 17052 L 27108 17052 L 27131 17053 L 27153 17053 L 27177 17052 L 27204 17052 L 27230 17053 L 27254 17053 L 27273 17052 L 27295 17052 L 27318 17053 L 27340 17053 L 27363 17052 L 27387 17052 L 27412 17053 L 27435 17053 L 27460 17052 L 27488 17052 L 27515 17053 L 27541 17053 L 27564 17052 L 27588 17052 L 27612 17053 L 27637 17053 L 27660 17052 L 27685 17052 L 27710 17053 L 27733 17053 L 27755 17052 L 27776 17052 L 27803 17053 L 27827 17053 L 27850 17052 L 27875 17052 L 27898 17053 L 27923 17053 L 27948 17052 L 27971 17052 L 27996 17053 L 28021 17053 L 28044 17052 L 28065 17052 L 28090 17053 L 28117 17053 L 28143 17052 L 28166 17052 L 28193 17053 L 28218 17053 L 28241 17052 L 28262 17052 L 28279 17057 L 28299 17063 L 28320 17067 L 28340 17070 L 28358 17072 L 28375 17077 L 28390 17083 L 28408 17086 L 28431 17090 L 28454 17091 L 28476 17093 L 28500 17093 L 28527 17091 L 28553 17091 L 28576 17093 L 28596 17093 L 28618 17091 L 28641 17091 L 28659 17093" stroke="#00F900" stroke-width="56" fill="none" stroke-linecap="round" stroke-linejoin="round" opacity="0.50"/>
<path d="M 43658 14930 L 43660 14932 L 43670 14932 L 43684 14930 L 43704 14930 L 43726 14932 L 43752 14932 L 43777 14930 L 43800 14930 L 43822 14932 L 43847 14932 L 43873 14930 L 43899 14930 L 43923 14932 L 43949 14932 L 43974 14930 L 43997 14930 L 44022 14932 L 44045 14932 L 44070 14927 L 44095 14920 L 44118 14917 L 44146 14913 L 44174 14912 L 44204 14910 L 44232 14910 L 44260 14912 L 44286 14912 L 44311 14910 L 44334 14910 L 44359 14912 L 44382 14912 L 44407 14910 L 44432 14910 L 44455 14912 L 44480 14912 L 44505 14910 L 44528 14910 L 44553 14912 L 44577 14912 L 44597 14904 L 44615 14894 L 44632 14885 L 44650 14880 L 44670 14877 L 44692 14874 L 44715 14872 L 44736 14870 L 44763 14870 L 44787 14872 L 44811 14872 L 44835 14870 L 44862 14870 L 44887 14872 L 44910 14872 L 44935 14870 L 44954 14867 L 44973 14862 L 44992 14857 L 45014 14854 L 45037 14852 L 45059 14851 L 45083 14851 L 45107 14852 L 45130 14852 L 45151 14851 L 45176 14851 L 45203 14852 L 45226 14852 L 45249 14851 L 45274 14851 L 45298 14852 L 45322 14852 L 45343 14851 L 45361 14847 L 45378 14842 L 45398 14837 L 45419 14834 L 45439 14832 L 45457 14831 L 45480 14831 L 45505 14832 L 45530 14832 L 45553 14831 L 45578 14831 L 45603 14832 L 45623 14836 L 45641 14841 L 45661 14847 L 45685 14851 L 45712 14854 L 45735 14856 L 45755 14857 L 45776 14857 L 45799 14856 L 45821 14856 L 45844 14857 L 45866 14857 L 45890 14856 L 45917 14856 L 45943 14857 L 45970 14857 L 45996 14856 L 46023 14856 L 46046 14857 L 46069 14857 L 46094 14856 L 46119 14856 L 46142 14857 L 46163 14857 L 46188 14856 L 46215 14856 L 46234 14861 L 46244 14874 L 46241 14887 L 46229 14897 L 46215 14907 L 46198 14915 L 46181 14923 L 46167 14933 L 46148 14942 L 46129 14947 L 46109 14950 L 46089 14953 L 46066 14955 L 46039 14956 L 46014 14956 L 45991 14955 L 45973 14958 L 45953 14963 L 45932 14966 L 45912 14968 L 45894 14970 L 45874 14973 L 45849 14975 L 45823 14976 L 45798 14976 L 45775 14975 L 45748 14975 L 45723 14980 L 45700 14986 L 45679 14990 L 45656 14993 L 45632 14998 L 45608 15003 L 45583 15006 L 45556 15004 L 45532 15003 L 45508 15003 L 45484 15004 L 45460 15004 L 45436 15003 L 45411 15003 L 45388 15004 L 45366 15004 L 45341 15003 L 45315 15003 L 45292 15004 L 45269 15004 L 45244 15003 L 45219 15003 L 45196 15004 L 45174 15004 L 45153 15003 L 45126 15003 L 45102 15004 L 45078 15004 L 45054 15003 L 45031 15003 L 45006 15004 L 44981 15004 L 44958 15003 L 44933 15003 L 44908 15004 L 44885 15004 L 44867 14999 L 44849 14993 L 44829 14986 L 44807 14980 L 44784 14976 L 44763 14973 L 44736 14971 L 44711 14970 L 44688 14970 L 44667 14971 L 44647 14971 L 44624 14970 L 44601 14970 L 44576 14971 L 44551 14971 L 44525 14970 L 44500 14970 L 44477 14971 L 44452 14971 L 44425 14970 L 44400 14970 L 44377 14971 L 44356 14971 L 44333 14970 L 44310 14970 L 44285 14971 L 44260 14971 L 44233 14970 L 44209 14970 L 44186 14971 L 44161 14971 L 44138 14970 L 44113 14970 L 44088 14971 L 44065 14971 L 44043 14970 L 44018 14970 L 43992 14971 L 43969 14971 L 43946 14970 L 43921 14970 L 43896 14971 L 43873 14971 L 43851 14970 L 43830 14970 L 43804 14971 L 43779 14971 L 43756 14970 L 43727 14970 L 43701 14971 L 43678 14971 L 43655 14970 L 43630 14970 L 43605 14971 L 43582 14971 L 43560 14970 L 43539 14970 L 43519 14968 L 43504 14965" stroke="#00F900" stroke-width="56" fill="none" stroke-linecap="round" stroke-linejoin="round" opacity="0.50"/>
<path d="M 43680 18392 L 43687 18392 L 43697 18392 L 43710 18392 L 43731 18392 L 43754 18392 L 43776 18392 L 43799 18392 L 43821 18392 L 43845 18392 L 43872 18392 L 43898 18392 L 43921 18392 L 43948 18392 L 43973 18392 L 43996 18389 L 44021 18385 L 44044 18380 L 44069 18375 L 44093 18372 L 44117 18371 L 44141 18369 L 44166 18369 L 44189 18371 L 44211 18371 L 44232 18369 L 44259 18369 L 44287 18371 L 44317 18371 L 44348 18369 L 44378 18369 L 44404 18371 L 44429 18364 L 44456 18356 L 44480 18346 L 44504 18337 L 44527 18332 L 44551 18329 L 44576 18329 L 44599 18331 L 44621 18334 L 44642 18336 L 44662 18332 L 44684 18328 L 44704 18323 L 44722 18319 L 44742 18318 L 44763 18316 L 44786 18316 L 44808 18318 L 44831 18318 L 44856 18316 L 44881 18316 L 44904 18318 L 44929 18318 L 44953 18316 L 44980 18316 L 45005 18318 L 45028 18318 L 45049 18313 L 45069 18306 L 45089 18303 L 45109 18299 L 45129 18298 L 45148 18296 L 45172 18296 L 45195 18298 L 45220 18298 L 45244 18296 L 45271 18296 L 45296 18298 L 45319 18298 L 45344 18296 L 45367 18296 L 45392 18298 L 45416 18298 L 45439 18296 L 45464 18296 L 45489 18298 L 45512 18298 L 45534 18296 L 45555 18296 L 45582 18298 L 45606 18298 L 45630 18296 L 45654 18296 L 45681 18298 L 45706 18298 L 45729 18296 L 45754 18296 L 45777 18298 L 45802 18298 L 45826 18296 L 45850 18296 L 45874 18298 L 45899 18298 L 45922 18296 L 45944 18296 L 45965 18298 L 45992 18298 L 46017 18296 L 46040 18296 L 46065 18298 L 46088 18298 L 46113 18296 L 46137 18296 L 46160 18298 L 46185 18298 L 46210 18296 L 46230 18299 L 46248 18304 L 46261 18313 L 46276 18319 L 46293 18326 L 46304 18339 L 46319 18352 L 46336 18362 L 46352 18372 L 46364 18384 L 46375 18395 L 46385 18405 L 46400 18413 L 46409 18428 L 46422 18445 L 46433 18460 L 46447 18471 L 46461 18481 L 46475 18491 L 46490 18499 L 46506 18504 L 46521 18511 L 46528 18518 L 46526 18524 L 46516 18528 L 46501 18531 L 46481 18533 L 46456 18534 L 46430 18534 L 46402 18533 L 46372 18533 L 46344 18534 L 46319 18534 L 46299 18529 L 46283 18523 L 46266 18518 L 46248 18514 L 46227 18511 L 46207 18509 L 46187 18508 L 46164 18508 L 46137 18509 L 46113 18509 L 46089 18508 L 46061 18508 L 46035 18509 L 46012 18509 L 45988 18508 L 45967 18508 L 45942 18509 L 45916 18509 L 45893 18508 L 45869 18508 L 45845 18509 L 45820 18509 L 45797 18508 L 45775 18508 L 45750 18509 L 45724 18509 L 45701 18508 L 45678 18508 L 45653 18509 L 45628 18509 L 45605 18508 L 45583 18508 L 45562 18509 L 45535 18509 L 45511 18508 L 45487 18508 L 45463 18509 L 45436 18509 L 45411 18508 L 45388 18508 L 45367 18509 L 45344 18509 L 45320 18508 L 45296 18508 L 45271 18509 L 45244 18509 L 45220 18508 L 45196 18508 L 45172 18509 L 45145 18509 L 45120 18508 L 45097 18508 L 45072 18509 L 45049 18509 L 45024 18508 L 45000 18508 L 44976 18509 L 44955 18509 L 44930 18508 L 44907 18511 L 44887 18516 L 44869 18521 L 44852 18524 L 44831 18526 L 44808 18528 L 44785 18531 L 44763 18533 L 44738 18538 L 44712 18544 L 44689 18547 L 44666 18551 L 44644 18556 L 44619 18561 L 44593 18564 L 44570 18562 L 44547 18561 L 44522 18561 L 44497 18562 L 44474 18562 L 44452 18561 L 44427 18561 L 44401 18562 L 44378 18562 L 44355 18561 L 44330 18561 L 44305 18562 L 44282 18562 L 44260 18561 L 44239 18561 L 44212 18562 L 44188 18562 L 44165 18561 L 44140 18561 L 44113 18562 L 44088 18562 L 44065 18561 L 44044 18561 L 44021 18562 L 43998 18562 L 43973 18561 L 43948 18561 L 43921 18562 L 43897 18562 L 43873 18561 L 43852 18554 L 43835 18546 L 43819 18539 L 43801 18531 L 43783 18524 L 43769 18518" stroke="#00F900" stroke-width="56" fill="none" stroke-linecap="round" stroke-linejoin="round" opacity="0.50"/></svg>