<svg xmlns="http://www.w3.org/2000/svg" width="4224" height="304" viewBox="0 0 4224 304"><path d="M 10 264 L 20 264 L 36 264 L 58 264 L 82 264 L 112 264 L 142 264 L 170 264 L 192 268 L 216 274 L 236 278 L 258 282 L 282 288 L 306 290 L 330 292 L 358 294 L 382 294 L 408 292 L 436 292 L 464 294 L 492 294 L 518 292 L 542 292 L 572 294 L 604 294 L 638 292 L 672 292 L 708 294 L 748 294 L 788 292 L 832 292 L 870 294 L 902 290 L 942 286 L 988 280 L 1036 278 L 1078 276 L 1114 274 L 1150 270 L 1180 268 L 1214 268 L 1244 260 L 1274 252 L 1304 246 L 1336 240 L 1370 238 L 1400 236 L 1434 234 L 1468 228 L 1504 222 L 1542 220 L 1580 214 L 1618 212 L 1656 210 L 1696 208 L 1736 208 L 1772 210 L 1806 210 L 1840 208 L 1880 204 L 1918 200 L 1954 194 L 1992 184 L 2030 174 L 2064 164 L 2098 158 L 2132 154 L 2166 152 L 2200 150 L 2240 148 L 2282 148 L 2332 150 L 2380 150 L 2422 148 L 2460 148 L 2496 150 L 2536 150 L 2576 144 L 2616 138 L 2652 136 L 2682 132 L 2714 130 L 2748 128 L 2784 128 L 2814 126 L 2846 124 L 2878 122 L 2910 118 L 2942 116 L 2972 116 L 3006 112 L 3042 110 L 3076 108 L 3104 108 L 3138 110 L 3168 110 L 3204 108 L 3246 102 L 3288 94 L 3334 88 L 3376 82 L 3414 78 L 3450 78 L 3480 76 L 3512 72 L 3540 68 L 3564 62 L 3592 58 L 3624 58 L 3656 56 L 3686 52 L 3718 50 L 3744 50 L 3768 46 L 3796 40 L 3824 36 L 3850 32 L 3878 28 L 3902 20 L 3920 12 L 3940 10 L 3962 12 L 3986 14 L 4006 20 L 4032 26 L 4058 30 L 4084 32 L 4112 30 L 4138 30 L 4164 30 L 4190 30 L 4214 30" stroke="#000000" stroke-width="35" fill="none" stroke-linecap="round" stroke-linejoin="round"/></svg>