<svg xmlns="http://www.w3.org/2000/svg" width="25211" height="21688" viewBox="0 0 25211 21688"><path d="M 14368 21260 L 25201 21528" stroke="#E71225" stroke-width="100" fill="none" stroke-linecap="round" stroke-linejoin="round"/>
<path d="M 24889 21362 L 25201 21528 L 24882 21678" stroke="#E71225" stroke-width="100" fill="none" stroke-linecap="round" stroke-linejoin="round"/>
<path d="M 3073 19940 L 3073 19940 L 3073 19904 L 3088 19904 L 3108 19904 L 3108 19867 L 3126 19867 L 3142 19831 L 3167 19831 L 3197 19831 L 3219 19831 L 3243 19831 L 3276 19831 L 3305 19831 L 3338 19794 L 3371 19794 L 3402 19794 L 3438 19796 L 3475 19796 L 3515 19796 L 3551 19799 L 3586 19803 L 3619 19803 L 3642 19803 L 3668 19804 L 3690 19808 L 3718 19808 L 3743 19808 L 3743 19809 L 3734 19809 L 3725 19811 L 3710 19811 L 3696 19813 L 3673 19816 L 3645 19816 L 3617 19816 L 3589 19818 L 3554 19819 L 3521 19824 L 3486 19826 L 3453 19826 L 3420 19829 L 3386 19831 L 3356 19833 L 3326 19834 L 3305 19834 L 3280 19836 L 3268 19836 L 3260 19837 L 3260 19839 L 3260 19844 L 3260 19849 L 3260 19852 L 3293 19857 L 3314 19857 L 3343 19861 L 3376 19862 L 3412 19862 L 3448 19866 L 3490 19867 L 3534 19871 L 3581 19872 L 3627 19874 L 3677 19876 L 3718 19876 L 3759 19876 L 3797 19876 L 3835 19876 L 3868 19876 L 3890 19877 L 3918 19877 L 3943 19877 L 3961 19879 L 3986 19879 L 3981 19879 L 3968 19879 L 3949 19880 L 3930 19880 L 3901 19882 L 3873 19882 L 3839 19882 L 3806 19884 L 3766 19885 L 3726 19885 L 3687 19885 L 3647 19885 L 3609 19889 L 3572 19892 L 3541 19895 L 3513 19899 L 3486 19899 L 3472 19899 L 3458 19899 L 3458 19904 L 3458 19905 L 3458 19909 L 3458 19910 L 3480 19912 L 3515 19914 L 3539 19917 L 3559 19917 L 3582 19919 L 3609 19919 L 3630 19919" stroke="#FFFC00" stroke-width="83.99999" fill="none" stroke-linecap="round" stroke-linejoin="round" opacity="0.50"/>
<path d="M 21607 134 L 21607 134 L 21607 136 L 21607 137 L 21607 142 L 21607 144 L 21604 146 L 21602 146 L 21602 151 L 21599 151 L 21595 151 L 21594 151 L 21590 154 L 21586 164 L 21582 164 L 21582 167 L 21581 167 L 21576 167 L 21574 169 L 21567 169 L 21562 169 L 21552 169 L 21544 169 L 21536 169 L 21526 169 L 21516 169 L 21506 169 L 21493 169 L 21483 169 L 21470 169 L 21452 169 L 21437 169 L 21420 169 L 21405 169 L 21390 169 L 21371 169 L 21356 169 L 21341 169 L 21323 169 L 21304 169 L 21286 169 L 21268 169 L 21255 169 L 21240 169 L 21222 169 L 21204 169 L 21185 169 L 21167 169 L 21147 169 L 21127 169 L 21108 169 L 21091 169 L 21070 174 L 21045 174 L 21017 177 L 20992 184 L 20965 189 L 20937 189 L 20908 189 L 20878 190 L 20845 190 L 20808 190 L 20774 192 L 20739 192 L 20699 192 L 20658 192 L 20620 192 L 20577 192 L 20540 192 L 20501 192 L 20456 192 L 20415 192 L 20378 192 L 20340 192 L 20304 192 L 20271 192 L 20234 192 L 20203 192 L 20173 192 L 20144 192 L 20115 192 L 20086 192 L 20056 192 L 20033 192 L 20010 192 L 19981 192 L 19957 192 L 19932 155 L 19905 155 L 19881 155 L 19856 155 L 19829 155 L 19801 155 L 19770 155 L 19742 155 L 19715 155 L 19687 155 L 19659 119 L 19631 119 L 19598 119 L 19573 119 L 19538 119 L 19509 119 L 19477 119 L 19447 119 L 19418 119 L 19385 119 L 19353 119 L 19322 119 L 19289 119 L 19256 119 L 19224 119 L 19191 119 L 19160 119 L 19128 119 L 19100 83 L 19072 83 L 19042 83 L 19017 83 L 18994 83 L 18968 83 L 18945 83 L 18921 83 L 18905 83 L 18883 83 L 18865 83 L 18844 45 L 18826 45 L 18809 45 L 18788 45 L 18769 45 L 18751 45 L 18730 45 L 18713 45 L 18697 45 L 18677 45 L 18655 45 L 18632 45 L 18609 45 L 18581 45 L 18553 10 L 18525 10 L 18493 10 L 18462 10 L 18430 10 L 18396 10 L 18359 10 L 18320 10 L 18275 10 L 18234 10 L 18187 10 L 18146 10 L 18103 10 L 18058 10 L 18015 10 L 17966 10 L 17921 10 L 17875 10 L 17828 10 L 17784 10 L 17736 12 L 17690 12 L 17648 17 L 17604 22 L 17562 22 L 17519 22 L 17478 25 L 17438 31 L 17400 33 L 17362 38 L 17322 43 L 17286 43 L 17250 45 L 17217 53 L 17182 53 L 17149 53 L 17121 53 L 17093 53 L 17066 53 L 17041 53 L 17020 53 L 17003 55 L 16983 55 L 16969 55 L 16957 55 L 16949 55 L 16937 55 L 16932 55 L 16924 55 L 16921 55 L 16914 55 L 16904 15 L 16894 20 L 16886 20 L 16876 20 L 16866 20 L 16853 20 L 16835 20 L 16820 20 L 16800 20 L 16780 20 L 16759 20 L 16737 20 L 16712 20 L 16686 20 L 16664 20 L 16638 20 L 16615 20 L 16587 20 L 16555 20 L 16527 20 L 16494 20 L 16463 20 L 16426 20 L 16390 20 L 16352 20 L 16312 20 L 16276 20 L 16234 20 L 16198 20 L 16160 20 L 16119 20 L 16081 20 L 16044 20 L 16003 20 L 15966 20 L 15927 20 L 15890 23 L 15857 27 L 15824 28 L 15789 35 L 15760 36 L 15728 36 L 15700 36 L 15669 40 L 15641 43 L 15614 43 L 15586 46 L 15560 46 L 15540 46 L 15518 46 L 15502 46 L 15484 46 L 15464 46 L 15449 46 L 15431 46 L 15414 46 L 15394 46 L 15376 46 L 15360 46 L 15340 46 L 15325 46 L 15310 46 L 15292 46 L 15272 46 L 15250 46 L 15231 46 L 15211 46 L 15186 46 L 15163 46 L 15136 46 L 15108 46 L 15077 46 L 15049 46 L 15016 46 L 14981 46 L 14943 46 L 14905 46 L 14865 46 L 14822 46 L 14777 46 L 14723 46 L 14675 46 L 14625 46 L 14579 46 L 14526 46 L 14478 46 L 14429 46 L 14377 46 L 14326 48 L 14276 55 L 14227 58 L 14179 61 L 14126 66 L 14080 68 L 14038 73 L 13997 74 L 13954 81 L 13909 86 L 13868 86 L 13827 89 L 13787 91 L 13749 91 L 13711 91 L 13674 91 L 13638 93 L 13602 93 L 13570 93 L 13541 93 L 13509 93 L 13474 93 L 13445 93 L 13418 93 L 13387 93 L 13362 93 L 13334 93 L 13307 93 L 13284 93 L 13258 93 L 13233 93 L 13211 93 L 13188 93 L 13165 93 L 13145 93 L 13125 93 L 13107 93 L 13092 93 L 13077 93 L 13066 93 L 13054 93 L 13041 93 L 13028 93 L 13020 93 L 13010 93 L 13000 93 L 12992 93 L 12982 93 L 12975 93 L 12963 93 L 12955 93 L 12945 93 L 12935 93 L 12920 93 L 12902 93 L 12889 56 L 12871 58 L 12849 58 L 12826 58 L 12803 61 L 12778 61 L 12748 61 L 12720 68 L 12691 73 L 12656 78 L 12619 78 L 12583 79 L 12548 83 L 12509 89 L 12471 96 L 12428 98 L 12391 104 L 12352 106 L 12307 113 L 12264 117 L 12216 124 L 12173 129 L 12128 141 L 12082 142 L 12036 152 L 11989 157 L 11943 165 L 11897 170 L 11850 179 L 11803 179 L 11756 185 L 11708 192 L 11664 205 L 11614 210 L 11573 210 L 11525 218 L 11477 225 L 11434 232 L 11392 232 L 11348 233 L 11305 235 L 11258 238 L 11219 243 L 11176 250 L 11134 255 L 11095 263 L 11053 268 L 11015 270 L 10974 271 L 10939 275 L 10905 275 L 10863 275 L 10824 278 L 10789 278 L 10751 278 L 10716 280 L 10680 281 L 10643 284 L 10610 284 L 10577 284 L 10539 284 L 10506 284 L 10468 284 L 10435 284 L 10397 284 L 10364 284 L 10331 284 L 10299 284 L 10266 284 L 10233 284 L 10202 284 L 10167 284 L 10132 284 L 10101 284 L 10068 284 L 10036 241 L 10000 241 L 9969 241 L 9936 241 L 9901 241 L 9871 241 L 9835 241 L 9798 241 L 9767 241 L 9737 241 L 9701 241 L 9669 241 L 9633 241 L 9602 202 L 9567 202 L 9534 202 L 9504 202 L 9473 202 L 9439 202 L 9408 202 L 9377 165 L 9347 165 L 9315 165 L 9282 165 L 9254 165 L 9221 165 L 9196 129 L 9172 129 L 9142 129 L 9114 129 L 9086 129 L 9057 129 L 9029 129 L 9000 129 L 8975 129 L 8948 129 L 8920 91 L 8892 91 L 8862 91 L 8834 91 L 8806 91 L 8775 91 L 8747 91 L 8720 91 L 8692 91 L 8664 91 L 8637 91 L 8608 55 L 8578 55 L 8550 55 L 8522 55 L 8494 55 L 8462 55 L 8432 55 L 8404 55 L 8375 55 L 8338 55 L 8308 55 L 8277 55 L 8246 55 L 8212 55 L 8178 55 L 8145 55 L 8112 55 L 8075 55 L 8040 55 L 8006 55 L 7971 55 L 7936 55 L 7897 55 L 7864 18 L 7827 18 L 7787 23 L 7749 30 L 7711 31 L 7672 31 L 7632 31 L 7594 31 L 7556 31 L 7516 31 L 7478 31 L 7440 36 L 7401 40 L 7359 43 L 7320 48 L 7281 53 L 7243 58 L 7202 61 L 7161 61 L 7121 61 L 7083 61 L 7047 61 L 7007 61 L 6967 61 L 6931 61 L 6895 61 L 6856 61 L 6818 61 L 6785 61 L 6747 61 L 6711 61 L 6675 61 L 6635 61 L 6597 61 L 6559 61 L 6519 61 L 6481 61 L 6445 61 L 6405 61 L 6369 61 L 6331 61 L 6294 61 L 6253 61 L 6218 61 L 6178 61 L 6142 61 L 6101 61 L 6064 61 L 6028 61 L 5993 61 L 5954 65 L 5914 66 L 5876 68 L 5835 73 L 5798 73 L 5760 73 L 5722 74 L 5684 78 L 5646 78 L 5610 81 L 5573 83 L 5539 89 L 5504 93 L 5466 94 L 5431 94 L 5401 94 L 5367 94 L 5337 96 L 5297 99 L 5267 99 L 5233 103 L 5200 108 L 5168 116 L 5138 116 L 5105 121 L 5077 121 L 5049 124 L 5021 124 L 4990 124 L 4961 126 L 4930 129 L 4902 131 L 4875 139 L 4846 142 L 4814 149 L 4788 154 L 4755 159 L 4722 164 L 4690 164 L 4657 167 L 4621 170 L 4588 179 L 4553 184 L 4520 189 L 4483 192 L 4447 194 L 4416 194 L 4383 198 L 4346 202 L 4310 205 L 4277 205 L 4245 205 L 4216 207 L 4183 208 L 4153 213 L 4120 217 L 4087 218 L 4054 222 L 4024 225 L 3992 228 L 3963 230 L 3928 235 L 3900 238 L 3870 241 L 3842 246 L 3812 246 L 3781 248 L 3754 255 L 3728 258 L 3700 260 L 3680 260 L 3657 263 L 3632 266 L 3610 266 L 3587 268 L 3566 268 L 3543 271 L 3523 271 L 3505 271 L 3483 271 L 3460 271 L 3440 271 L 3420 271 L 3395 271 L 3369 271 L 3346 271 L 3321 271 L 3293 271 L 3265 271 L 3232 271 L 3202 271 L 3169 271 L 3132 271 L 3096 271 L 3056 271 L 3018 271 L 2977 271 L 2936 271 L 2891 271 L 2845 271 L 2797 271 L 2749 271 L 2698 271 L 2648 271 L 2600 271 L 2549 271 L 2497 271 L 2445 271 L 2393 271 L 2342 271 L 2289 271 L 2238 271 L 2190 271 L 2139 271 L 2096 273 L 2049 275 L 2006 278 L 1963 278 L 1922 283 L 1887 283 L 1853 283 L 1818 286 L 1786 288 L 1758 293 L 1732 294 L 1709 294 L 1689 294 L 1672 294 L 1654 294 L 1641 294 L 1631 294 L 1621 294 L 1609 294 L 1600 294 L 1593 294 L 1585 294 L 1576 294 L 1566 294 L 1552 294 L 1535 294 L 1520 294 L 1502 294 L 1480 294 L 1457 294 L 1433 296 L 1406 298 L 1378 303 L 1350 306 L 1315 306 L 1282 306 L 1249 309 L 1214 309 L 1184 311 L 1153 316 L 1125 321 L 1092 324 L 1057 324 L 1029 327 L 998 327 L 970 332 L 941 334 L 910 334 L 884 334 L 855 334 L 829 334 L 801 334 L 776 334 L 751 334 L 721 334 L 698 334 L 675 334 L 655 298 L 631 298 L 609 298 L 588 298 L 569 298 L 551 260 L 533 260 L 516 260 L 502 260 L 487 260 L 472 220 L 455 220 L 440 220 L 425 220 L 409 220 L 396 184 L 384 184 L 368 184 L 359 184 L 346 184 L 331 184 L 318 184 L 303 184 L 290 184 L 277 184 L 263 147 L 249 147 L 237 147 L 225 147 L 212 147 L 201 147 L 187 147 L 174 147 L 161 147 L 149 147 L 141 147 L 128 147 L 116 147 L 106 147 L 96 147 L 86 147 L 75 147 L 65 147 L 55 147 L 47 147 L 42 147 L 34 147 L 29 147 L 24 147 L 20 147 L 19 147 L 14 147 L 10 147 L 34 147" stroke="#FFFC00" stroke-width="83.99999" fill="none" stroke-linecap="round" stroke-linejoin="round" opacity="0.50"/></svg>