<svg xmlns="http://www.w3.org/2000/svg" width="14408" height="1609" viewBox="0 0 14408 1609"><path d="M 14398 10 L 14393 13 L 14391 15 L 14385 20 L 14381 23 L 14381 27 L 14377 30 L 14373 30 L 14370 31 L 14365 35 L 14363 35 L 14363 36 L 14360 36 L 14357 36" stroke="#000000" stroke-width="35" fill="none" stroke-linecap="round" stroke-linejoin="round"/>
<path d="M 18 1546 L 18 1546 L 16 1546 L 13 1546 L 13 1534 L 11 1534 L 11 1539 L 10 1539 L 10 1541 L 10 1543 L 10 1546 L 10 1548 L 10 1549 L 10 1553 L 10 1554 L 10 1558 L 10 1559 L 10 1564 L 10 1566 L 10 1567 L 10 1571 L 18 1572 L 18 1574 L 18 1577 L 18 1579 L 18 1581 L 18 1584 L 23 1587 L 23 1591 L 23 1592 L 23 1594 L 30 1599 L 26 1599 L 25 1599" stroke="#000000" stroke-width="25.00001" fill="none" stroke-linecap="round" stroke-linejoin="round"/></svg>