<svg xmlns="http://www.w3.org/2000/svg" width="35342" height="22094" viewBox="0 0 35342 22094"><path d="M 32982 10 L 32977 12 L 32957 12 L 32924 10 L 32884 10 L 32822 12 L 32732 18 L 32615 36 L 32478 56 L 32332 81 L 32178 111 L 32030 137 L 31892 169 L 31773 199 L 31671 227 L 31578 253 L 31497 273 L 31434 293 L 31380 316 L 31327 342 L 31275 364 L 31226 387 L 31171 412 L 31122 442 L 31075 471 L 31031 503 L 30991 538 L 30953 567 L 30923 594 L 30897 619 L 30872 645 L 30845 676 L 30817 703 L 30791 726 L 30773 759 L 30763 794 L 30758 830 L 30758 868 L 30760 905 L 30760 938 L 30758 972 L 30758 1005 L 30760 1037 L 30760 1070 L 30758 1108 L 30758 1148 L 30766 1192 L 30783 1232 L 30814 1275 L 30850 1315 L 30887 1353 L 30935 1392 L 30993 1434 L 31056 1470 L 31128 1505 L 31203 1533 L 31282 1559 L 31366 1581 L 31456 1594 L 31550 1602 L 31648 1609 L 31743 1616 L 31846 1619 L 31950 1622 L 32054 1624 L 32157 1626 L 32258 1626 L 32352 1624 L 32448 1624 L 32529 1626 L 32607 1626 L 32683 1624 L 32762 1624 L 32843 1626 L 32922 1626 L 33010 1624 L 33103 1624 L 33199 1626 L 33295 1626 L 33392 1624 L 33490 1624 L 33586 1626 L 33683 1626 L 33781 1624 L 33877 1624 L 33974 1622 L 34068 1619 L 34161 1616 L 34247 1604 L 34333 1586 L 34422 1563 L 34502 1541 L 34576 1516 L 34652 1487 L 34720 1464 L 34786 1439 L 34847 1417 L 34910 1401 L 34971 1381 L 35024 1356 L 35069 1330 L 35105 1305 L 35140 1278 L 35173 1252 L 35200 1225 L 35223 1196 L 35246 1169 L 35264 1144 L 35286 1115 L 35302 1080 L 35315 1040 L 35324 991 L 35330 941 L 35332 886 L 35332 832 L 35325 776 L 35305 721 L 35269 663 L 35223 600 L 35168 534 L 35102 473 L 35021 413 L 34938 362 L 34852 316 L 34761 281 L 34665 251 L 34571 227 L 34485 207 L 34399 187 L 34316 164 L 34234 144 L 34146 129 L 34055 119 L 33963 114 L 33860 111 L 33748 108 L 33630 106 L 33495 104 L 33338 104 L 33182 106 L 33028 106 L 32888 104 L 32759 104 L 32648 106 L 32550 106 L 32458 104 L 32370 104 L 32294 106 L 32233 106 L 32177 104 L 32122 111 L 32071 119 L 32021 136 L 31975 151 L 31930 164 L 31894 175" stroke="#E71225" stroke-width="50.00001" fill="none" stroke-linecap="round" stroke-linejoin="round"/>
<path d="M 30764 968 L 30766 973 L 30762 986 L 30751 1003 L 30723 1019 L 30676 1037 L 30610 1056 L 30528 1072 L 30425 1090 L 30311 1109 L 30190 1122 L 30071 1137 L 29960 1150 L 29861 1165 L 29777 1178 L 29711 1188 L 29661 1195 L 29615 1196 L 29573 1203 L 29530 1211 L 29486 1218 L 29436 1224 L 29390 1228 L 29335 1231 L 29276 1233 L 29218 1234 L 29162 1234 L 29107 1233 L 29056 1233 L 29013 1234 L 28973 1234 L 28935 1233 L 28902 1233 L 28871 1234 L 28838 1234 L 28801 1233 L 28768 1233" stroke="#E71225" stroke-width="50.00001" fill="none" stroke-linecap="round" stroke-linejoin="round"/>
<path d="M 28978 936 L 28983 938 L 28990 944 L 28996 956 L 29003 976 L 28996 1004 L 28980 1027 L 28953 1052 L 28922 1080 L 28872 1113 L 28814 1149 L 28751 1189 L 28684 1227 L 28622 1257 L 28566 1285 L 28532 1311 L 28517 1335 L 28520 1351 L 28538 1363 L 28570 1371 L 28609 1374 L 28657 1378 L 28707 1382 L 28755 1387 L 28801 1391 L 28842 1399 L 28875 1407" stroke="#E71225" stroke-width="50.00001" fill="none" stroke-linecap="round" stroke-linejoin="round"/>
<path d="M 132 17051 L 132 17051 L 157 17051 L 177 17054 L 177 17059 L 177 17064 L 177 17068 L 200 17072 L 200 17077 L 200 17082 L 200 17087 L 220 17092 L 220 17097 L 220 17102 L 220 17107 L 220 17114 L 236 17119 L 236 17124 L 236 17127 L 236 17132 L 236 17137 L 258 17144 L 258 17147 L 258 17150 L 286 17155 L 286 17158 L 312 17162 L 312 17167 L 335 17167 L 335 17168 L 368 17170 L 387 17172 L 408 17172 L 431 17172 L 453 17172 L 476 17172 L 497 17172 L 524 17172 L 549 17172 L 577 17172 L 605 17172 L 633 17172 L 666 17172 L 698 17149 L 732 17149 L 767 17149 L 803 17149 L 840 17149 L 876 17149 L 911 17125 L 951 17125 L 987 17125 L 1025 17125 L 1066 17125 L 1106 17125 L 1141 17106 L 1175 17106 L 1213 17106 L 1247 17106 L 1280 17106 L 1309 17106 L 1342 17106 L 1372 17106 L 1402 17082 L 1430 17082 L 1455 17082 L 1481 17082 L 1501 17082 L 1523 17082 L 1556 17082 L 1579 17082 L 1574 17082 L 1556 17082 L 1533 17082 L 1509 17082 L 1485 17082 L 1453 17082 L 1419 17082 L 1384 17082 L 1336 17084 L 1290 17084 L 1238 17087 L 1187 17091 L 1136 17092 L 1081 17094 L 1028 17096 L 974 17099 L 927 17102 L 873 17107 L 822 17112 L 772 17117 L 727 17120 L 686 17124 L 651 17127 L 623 17130 L 598 17134 L 577 17137 L 555 17137 L 537 17139 L 529 17140 L 519 17142 L 511 17145 L 506 17145 L 504 17145 L 504 17147 L 504 17149 L 524 17149 L 524 17150 L 549 17150 L 549 17152 L 582 17154 L 605 17154 L 630 17157 L 661 17157 L 699 17157 L 741 17157 L 790 17157 L 841 17157 L 896 17157 L 949 17157 L 999 17157 L 1060 17157 L 1119 17157 L 1172 17157 L 1222 17157 L 1270 17157 L 1314 17157 L 1342 17157 L 1364 17157 L 1342 17157 L 1308 17158 L 1261 17165 L 1202 17172 L 1136 17178 L 1065 17187 L 987 17193 L 904 17201 L 827 17210 L 749 17215 L 678 17218 L 615 17225 L 560 17225" stroke="#E71225" stroke-width="50.00001" fill="none" stroke-linecap="round" stroke-linejoin="round"/>
<path d="M 460 19227 L 450 19227 L 437 19227 L 429 19227 L 422 19227 L 415 19227 L 410 19204 L 409 19204 L 427 19204 L 427 19181 L 455 19181 L 473 19181 L 496 19181 L 515 19181 L 538 19181 L 558 19181 L 582 19181 L 607 19158 L 629 19158 L 652 19158 L 670 19158 L 698 19158 L 695 19158 L 680 19136 L 658 19136 L 630 19136 L 606 19136 L 566 19136 L 529 19136 L 486 19136 L 442 19136 L 399 19136 L 354 19115 L 310 19115 L 271 19115 L 233 19115 L 200 19115 L 176 19115 L 159 19115 L 154 19115 L 176 19091 L 195 19091 L 228 19091 L 268 19091 L 313 19091 L 367 19091 L 424 19067 L 486 19067 L 544 19067 L 606 19067 L 662 19043 L 711 19043 L 754 19043 L 789 19043 L 817 19043 L 817 19022 L 832 19022 L 827 19022 L 814 19022 L 786 19022 L 754 19022 L 713 19022 L 672 19022 L 625 19022 L 579 19022 L 529 19022 L 486 19022 L 445 19000 L 402 19000 L 372 19000 L 349 19000 L 336 19000 L 334 19000 L 334 18981 L 362 18981 L 391 18981 L 424 18981 L 460 18981 L 505 18981 L 549 18981 L 592 18981 L 639 18981 L 680 18981 L 720 18982 L 749 18984 L 768 18984 L 768 18986 L 768 18987 L 754 18989 L 735 18989 L 703 18989 L 670 18989 L 629 18989 L 586 18989 L 543 18989 L 505 18989 L 460 18989 L 424 18989 L 391 18989 L 367 18989 L 349 18989 L 336 18964 L 331 18964 L 328 18964 L 326 18964 L 346 18964 L 369 18939 L 396 18939 L 419 18939 L 419 18913 L 437 18913 L 437 18890 L 435 18890 L 432 18890 L 429 18890 L 422 18865 L 415 18865 L 409 18865 L 409 18842" stroke="#E71225" stroke-width="50.00001" fill="none" stroke-linecap="round" stroke-linejoin="round"/>
<path d="M 848 18311 L 828 18288 L 810 18265 L 793 18243 L 780 18243 L 765 18207 L 754 18207 L 747 18174 L 739 18174 L 732 18147 L 727 18147 L 726 18114 L 721 18114 L 721 18093 L 721 18070 L 719 18070 L 712 18070 L 706 18070 L 694 18070 L 684 18070 L 669 18070 L 651 18043 L 633 18043 L 610 18043 L 590 18043 L 565 18018 L 544 18018 L 522 18018 L 501 18018 L 483 17997 L 464 17997 L 453 17997 L 441 17997 L 435 17997 L 431 17975 L 454 17975 L 494 17975 L 516 17975 L 549 17975 L 582 17975 L 618 17975 L 658 17975 L 707 17975 L 760 17975 L 810 17975 L 865 17975 L 919 17975 L 974 17975 L 1032 17975 L 1084 17975 L 1134 17975 L 1180 17975 L 1225 17975 L 1263 17975 L 1298 17975 L 1323 17975 L 1323 17954 L 1342 17954 L 1339 17954 L 1323 17954 L 1306 17954 L 1275 17954 L 1233 17955 L 1187 17960 L 1134 17962 L 1070 17965 L 1005 17969 L 937 17972 L 869 17975 L 807 17979 L 752 17984 L 702 17985 L 669 17987 L 648 17990 L 636 17992 L 656 17992 L 686 17992 L 727 17992 L 782 17992 L 848 17992 L 911 17992 L 984 17992 L 1056 17969 L 1132 17969 L 1200 17969 L 1261 17969 L 1314 17969 L 1359 17969 L 1394 17969 L 1417 17969 L 1404 17969 L 1376 17969 L 1336 17969 L 1290 17970 L 1238 17974 L 1179 17979 L 1121 17985 L 1065 17992 L 1007 17997 L 955 18000 L 911 18005 L 876 18012 L 850 18018 L 836 18027" stroke="#E71225" stroke-width="50.00001" fill="none" stroke-linecap="round" stroke-linejoin="round"/>
<circle cx="350" cy="19893" r="25.000005" fill="#E71225"/>
<path d="M 336 19867 L 331 19867 L 328 19867 L 323 19867 L 321 19867 L 318 19846 L 318 19822 L 336 19822 L 336 19799 L 357 19799 L 377 19778 L 400 19778 L 432 19753 L 453 19753 L 470 19753 L 488 19753 L 511 19753 L 538 19753 L 561 19730 L 591 19730 L 619 19730 L 644 19730 L 675 19730 L 703 19730 L 736 19730 L 768 19730 L 801 19730 L 832 19730 L 865 19730 L 903 19730 L 938 19730 L 971 19730 L 1006 19730 L 1037 19730 L 1070 19730 L 1102 19730 L 1135 19730 L 1166 19708 L 1198 19708 L 1229 19708 L 1262 19708 L 1290 19708 L 1322 19708 L 1348 19708 L 1373 19708 L 1399 19708 L 1426 19708 L 1447 19708 L 1474 19708 L 1499 19708 L 1518 19708 L 1542 19708 L 1561 19708 L 1583 19708 L 1603 19708 L 1627 19687 L 1647 19687 L 1669 19687 L 1689 19687 L 1707 19687 L 1730 19687 L 1750 19665 L 1775 19665 L 1793 19665 L 1814 19665 L 1834 19665 L 1856 19665 L 1874 19642 L 1892 19642 L 1910 19642 L 1930 19642 L 1950 19642 L 1971 19642 L 1991 19642 L 2014 19642 L 2038 19642 L 2057 19642 L 2084 19642 L 2110 19619 L 2138 19619 L 2165 19619 L 2190 19619 L 2213 19619 L 2239 19619 L 2266 19619 L 2287 19619 L 2309 19619 L 2332 19619 L 2353 19619 L 2375 19619 L 2398 19619 L 2416 19619 L 2436 19619 L 2453 19619 L 2471 19619 L 2494 19621 L 2512 19626 L 2530 19629 L 2554 19632 L 2575 19637 L 2598 19642 L 2621 19649 L 2641 19654 L 2663 19660 L 2686 19665 L 2709 19672 L 2732 19678 L 2755 19683 L 2782 19687 L 2803 19692 L 2825 19692 L 2851 19695 L 2876 19698 L 2897 19702 L 2922 19702 L 2944 19705 L 2969 19705 L 2992 19707 L 3012 19707 L 3038 19707 L 3061 19707 L 3081 19707 L 3106 19707 L 3131 19707 L 3154 19707 L 3177 19707 L 3202 19707 L 3227 19707 L 3245 19707 L 3271 19707 L 3294 19707 L 3318 19685 L 3344 19685 L 3365 19685 L 3387 19685 L 3413 19685 L 3443 19685 L 3471 19685 L 3496 19685 L 3518 19685 L 3541 19685 L 3567 19685 L 3590 19685 L 3612 19685 L 3637 19685 L 3660 19687 L 3688 19688 L 3714 19690 L 3744 19690 L 3772 19692 L 3809 19692 L 3840 19693 L 3873 19695 L 3911 19697 L 3951 19700 L 3989 19702 L 4030 19705 L 4073 19708 L 4113 19712 L 4154 19713 L 4194 19718 L 4232 19720 L 4260 19723 L 4296 19725 L 4333 19728 L 4366 19731 L 4397 19733 L 4425 19736 L 4454 19738 L 4480 19741 L 4498 19743 L 4520 19745 L 4541 19746 L 4561 19746 L 4584 19748 L 4606 19748 L 4622 19748 L 4644 19751 L 4644 19753 L 4677 19755 L 4695 19756 L 4713 19758 L 4735 19758 L 4755 19760 L 4776 19760 L 4802 19760 L 4822 19760 L 4844 19760 L 4864 19760 L 4887 19760 L 4910 19760 L 4931 19760 L 4953 19760 L 4974 19760 L 4994 19760 L 5016 19760 L 5034 19760 L 5067 19760 L 5099 19760 L 5117 19760 L 5150 19760 L 5150 19761 L 5178 19763 L 5208 19766 L 5242 19766 L 5275 19766 L 5309 19766 L 5337 19766 L 5368 19766 L 5398 19766 L 5429 19766 L 5461 19766 L 5485 19766 L 5504 19766 L 5527 19766 L 5545 19766 L 5570 19766 L 5586 19766 L 5611 19766 L 5628 19766 L 5651 19766 L 5669 19766 L 5667 19766 L 5651 19766 L 5633 19766 L 5606 19766 L 5578 19766 L 5543 19766 L 5502 19769 L 5456 19771 L 5408 19774 L 5353 19778 L 5294 19779 L 5232 19781 L 5173 19786 L 5108 19788 L 5052 19791 L 4993 19793 L 4938 19793 L 4887 19794 L 4837 19796 L 4791 19796 L 4741 19798 L 4702 19798 L 4655 19798 L 4616 19799 L 4576 19799 L 4536 19801 L 4493 19801 L 4449 19801 L 4406 19801 L 4364 19801 L 4323 19801 L 4278 19801 L 4235 19801 L 4194 19801 L 4154 19801 L 4111 19801 L 4072 19801 L 4032 19801 L 3991 19801 L 3953 19801 L 3914 19801 L 3875 19801 L 3837 19779 L 3799 19779 L 3759 19779 L 3719 19779 L 3686 19779 L 3645 19779 L 3605 19779 L 3572 19779 L 3536 19779 L 3503 19779 L 3468 19781 L 3435 19783 L 3402 19786 L 3374 19789 L 3344 19791 L 3313 19793 L 3281 19794 L 3248 19796 L 3215 19796 L 3182 19798 L 3154 19801 L 3119 19801 L 3088 19803 L 3048 19804 L 3018 19804 L 2983 19804 L 2950 19806 L 2917 19806 L 2883 19807 L 2855 19807 L 2825 19807 L 2800 19807 L 2770 19807 L 2749 19807 L 2722 19807 L 2699 19807 L 2676 19807 L 2653 19807 L 2626 19807 L 2603 19807 L 2578 19807 L 2552 19807 L 2525 19807 L 2497 19809 L 2471 19809 L 2441 19811 L 2411 19811 L 2382 19811 L 2350 19811 L 2315 19811 L 2286 19811 L 2258 19814 L 2228 19816 L 2198 19816 L 2165 19816 L 2132 19816 L 2104 19816 L 2074 19816 L 2043 19817 L 2014 19819 L 1985 19819 L 1950 19819 L 1922 19819 L 1894 19822 L 1862 19822 L 1834 19822 L 1804 19822 L 1773 19822 L 1740 19822 L 1715 19824 L 1684 19824 L 1656 19824 L 1629 19824 L 1601 19824 L 1575 19824 L 1548 19824 L 1523 19824 L 1500 19824 L 1472 19824 L 1447 19824 L 1422 19824 L 1394 19824 L 1368 19824 L 1336 19824 L 1308 19824 L 1277 19824 L 1247 19824 L 1214 19824 L 1181 19824 L 1150 19824 L 1113 19824 L 1078 19824 L 1040 19824 L 1006 19824 L 966 19824 L 933 19824 L 898 19824 L 865 19824 L 829 19824 L 799 19827 L 766 19829 L 735 19829 L 703 19834 L 672 19837 L 644 19841 L 615 19842 L 586 19846 L 558 19847 L 536 19849 L 506 19852 L 482 19852 L 453 19854 L 429 19857 L 402 19859 L 381 19859 L 354 19862 L 328 19864 L 305 19865 L 275 19867 L 250 19869 L 225 19870 L 199 19872 L 172 19872 L 146 19874 L 121 19877 L 98 19879 L 75 19880 L 55 19880 L 37 19882 L 20 19882 L 10 19882" stroke="#E71225" stroke-width="50.00001" fill="none" stroke-linecap="round" stroke-linejoin="round"/>
<path d="M 1000 21943 L 979 21943 L 950 21943 L 934 21943 L 904 21922 L 871 21922 L 838 21922 L 802 21922 L 767 21922 L 729 21922 L 696 21922 L 663 21922 L 630 21922 L 593 21922 L 565 21922 L 529 21922 L 497 21923 L 464 21925 L 436 21926 L 408 21926 L 378 21930 L 353 21930 L 327 21931 L 307 21931 L 289 21931 L 274 21931 L 264 21931 L 261 21933 L 287 21933 L 310 21933 L 342 21912 L 382 21912 L 429 21912 L 489 21912 L 557 21912 L 630 21888 L 707 21888 L 792 21888 L 874 21888 L 954 21864 L 1038 21864 L 1112 21864 L 1180 21864 L 1243 21864 L 1299 21839 L 1349 21839 L 1387 21839 L 1413 21839 L 1395 21839 L 1364 21839 L 1324 21839 L 1276 21839 L 1223 21839 L 1167 21839 L 1112 21842 L 1053 21847 L 992 21849 L 934 21854 L 879 21855 L 833 21857 L 790 21860 L 755 21865 L 734 21869 L 722 21870 L 722 21874 L 742 21874 L 768 21874 L 808 21874 L 858 21874 L 921 21874 L 993 21874 L 1071 21874 L 1159 21847 L 1250 21847 L 1349 21847 L 1446 21847 L 1544 21847 L 1637 21847 L 1723 21824 L 1805 21824 L 1871 21824 L 1934 21824 L 1981 21824 L 2010 21824 L 2030 21824 L 2030 21827 L 2010 21832 L 1981 21834 L 1934 21839 L 1883 21842 L 1820 21849 L 1754 21855 L 1685 21859 L 1615 21867 L 1544 21877 L 1478 21885 L 1415 21893 L 1360 21900 L 1311 21910 L 1276 21918 L 1250 21926 L 1235 21931 L 1235 21938 L 1235 21941 L 1253 21946 L 1281 21946 L 1318 21946 L 1369 21946 L 1433 21946 L 1508 21946 L 1590 21946 L 1678 21946 L 1769 21946 L 1862 21925 L 1949 21925 L 2030 21925 L 2105 21925 L 2167 21925 L 2215 21925 L 2253 21925 L 2273 21925 L 2255 21931 L 2222 21940 L 2172 21946 L 2108 21956 L 2035 21964 L 1951 21976 L 1862 21988 L 1764 21999 L 1663 22007 L 1562 22021 L 1465 22032 L 1372 22042 L 1289 22052 L 1215 22062 L 1154 22074 L 1104 22079 L 1074 22082 L 1061 22084 L 1081 22084 L 1117 22084 L 1162 22084 L 1223 22059 L 1299 22059 L 1387 22059 L 1483 22034 L 1584 22034 L 1691 22034 L 1805 22004 L 1916 22004 L 2015 22004 L 2108 22004 L 2191 21979 L 2260 21979 L 2315 21979 L 2354 21979 L 2354 21981 L 2346 21981 L 2308 21986 L 2247 21989 L 2171 21994 L 2080 22001 L 1977 22006 L 1867 22012 L 1744 22017 L 1622 22022 L 1493 22027 L 1369 22034 L 1245 22037 L 1137 22041 L 1033 22046 L 939 22050 L 856 22052 L 787 22055 L 725 22057 L 671 22059 L 630 22059 L 593 22060 L 567 22060 L 545 22060 L 530 22060 L 525 22060 L 524 22062 L 524 22064 L 524 22065 L 545 22065 L 545 22067 L 580 22067 L 606 22069 L 635 22069 L 668 22069 L 704 22069 L 742 22069 L 783 22069 L 825 22069 L 869 22069 L 906 22069 L 939 22069 L 962 22069 L 962 22047 L 980 22047 L 972 22047 L 952 22047 L 924 22047 L 884 22047 L 836 22047 L 783 22047 L 729 22047 L 671 22047 L 611 22047 L 558 22047 L 515 22047 L 479 22047 L 458 22047 L 451 22047 L 471 22047 L 497 22047 L 529 22047 L 565 22047 L 606 22047 L 648 22047 L 683 22047 L 721 22047 L 742 22060 L 764 22065 L 764 22067 L 764 22069 L 759 22069 L 740 22069 L 721 22069 L 701 22069 L 686 22069 L 679 22041 L 676 22041 L 676 22017 L 696 22017 L 722 22017 L 750 22017 L 782 21993 L 825 21993" stroke="#E71225" stroke-width="50.00001" fill="none" stroke-linecap="round" stroke-linejoin="round"/></svg>