<svg xmlns="http://www.w3.org/2000/svg" width="7028" height="1142" viewBox="0 0 7028 1142"><path d="M 381 74 L 308 113 L 263 135 L 212 158 L 161 173 L 116 187 L 76 191 L 49 199 L 33 202 L 35 208 L 56 209 L 99 213 L 156 214 L 216 221 L 276 227 L 318 242 L 351 265 L 365 298 L 360 340 L 340 388 L 297 436 L 248 488 L 187 539 L 136 590 L 85 636 L 51 675 L 23 704 L 10 728 L 11 744 L 21 754 L 53 759 L 92 761 L 145 761 L 201 761 L 256 761 L 303 761 L 332 755 L 348 746 L 350 730" stroke="#000000" stroke-width="50" fill="none" stroke-linecap="round" stroke-linejoin="round"/>
<path d="M 604 497 L 612 571 L 614 612 L 616 663 L 621 698 L 634 730 L 653 745 L 682 752 L 710 745 L 748 721 L 777 683 L 810 632 L 834 580 L 851 531 L 861 495 L 861 465 L 858 444" stroke="#000000" stroke-width="50" fill="none" stroke-linecap="round" stroke-linejoin="round"/>
<path d="M 921 455 L 964 539 L 974 586 L 976 638 L 977 676 L 981 704 L 985 722 L 992 731 L 1000 727 L 1017 712 L 1033 677 L 1060 635 L 1077 582 L 1100 533 L 1111 490 L 1122 455" stroke="#000000" stroke-width="50" fill="none" stroke-linecap="round" stroke-linejoin="round"/>
<path d="M 1429 264 L 1457 187 L 1456 168 L 1433 178 L 1406 202 L 1377 262 L 1345 331 L 1328 404 L 1313 473 L 1304 544 L 1301 617 L 1303 691 L 1321 748 L 1356 775 L 1407 771 L 1466 736 L 1516 683 L 1559 615 L 1586 555 L 1607 492 L 1626 429 L 1640 366 L 1649 305 L 1651 247 L 1627 183 L 1580 129 L 1521 83 L 1450 56 L 1393 51 L 1335 55 L 1268 79 L 1210 117 L 1154 177 L 1116 233 L 1090 293 L 1069 338" stroke="#000000" stroke-width="50" fill="none" stroke-linecap="round" stroke-linejoin="round"/>
<path d="M 1471 497 L 1441 471 L 1396 465 L 1332 465 L 1260 465" stroke="#000000" stroke-width="50" fill="none" stroke-linecap="round" stroke-linejoin="round"/>
<path d="M 2001 391 L 1950 372 L 1925 385 L 1901 410 L 1886 439 L 1889 459 L 1902 476 L 1931 482 L 1962 486 L 1987 488 L 1994 496 L 1981 511 L 1940 540 L 1894 574 L 1839 620 L 1793 658 L 1758 702 L 1737 738 L 1738 769 L 1762 796 L 1811 806 L 1876 812 L 1942 805 L 1995 791 L 2038 770 L 2063 745 L 2085 719" stroke="#000000" stroke-width="50" fill="none" stroke-linecap="round" stroke-linejoin="round"/>
<path d="M 2382 412 L 2344 420 L 2314 444 L 2268 460 L 2232 483 L 2196 493 L 2162 502 L 2128 507" stroke="#000000" stroke-width="50" fill="none" stroke-linecap="round" stroke-linejoin="round"/>
<path d="M 2308 550 L 2274 633 L 2264 694 L 2255 749 L 2249 802 L 2242 837 L 2233 867" stroke="#000000" stroke-width="50" fill="none" stroke-linecap="round" stroke-linejoin="round"/>
<path d="M 2593 391 L 2570 560 L 2565 640 L 2569 700 L 2570 750 L 2572 786 L 2572 814" stroke="#000000" stroke-width="50" fill="none" stroke-linecap="round" stroke-linejoin="round"/>
<path d="M 2816 338 L 2819 461 L 2813 541 L 2805 619 L 2794 682 L 2786 715 L 2778 726 L 2773 719" stroke="#000000" stroke-width="50" fill="none" stroke-linecap="round" stroke-linejoin="round"/>
<path d="M 3038 391 L 2966 458 L 2927 493 L 2892 512 L 2864 532 L 2844 545 L 2835 551 L 2840 557 L 2854 558 L 2889 565 L 2928 573 L 2979 593 L 3021 618 L 3062 650 L 3092 678 L 3115 701 L 3133 719" stroke="#000000" stroke-width="50" fill="none" stroke-linecap="round" stroke-linejoin="round"/>
<path d="M 3175 370 L 3209 463 L 3218 524 L 3218 583 L 3218 635 L 3220 664 L 3223 663 L 3232 621 L 3244 559 L 3264 479 L 3284 416 L 3308 365 L 3329 339 L 3348 333 L 3366 344 L 3382 378 L 3395 425 L 3410 481 L 3420 533 L 3434 580 L 3439 612 L 3452 636 L 3459 644 L 3474 641 L 3490 629 L 3502 615 L 3516 615 L 3514 632 L 3509 674 L 3493 730" stroke="#000000" stroke-width="50" fill="none" stroke-linecap="round" stroke-linejoin="round"/>
<circle cx="3376" cy="10" r="25" fill="#000000"/>
<path d="M 3916 328 L 3936 403 L 3947 462 L 3951 530 L 3961 591 L 3969 639 L 3980 673 L 3992 692 L 4008 691 L 4031 675 L 4063 624 L 4097 567 L 4129 500 L 4155 439 L 4172 378 L 4190 319 L 4201 262 L 4213 211" stroke="#000000" stroke-width="50" fill="none" stroke-linecap="round" stroke-linejoin="round"/>
<path d="M 4371 306 L 4311 409 L 4283 479 L 4263 547 L 4254 615 L 4265 661 L 4291 692 L 4333 690 L 4384 666 L 4430 610 L 4470 542 L 4488 471 L 4484 414 L 4447 372 L 4398 354 L 4328 345 L 4265 349" stroke="#000000" stroke-width="50" fill="none" stroke-linecap="round" stroke-linejoin="round"/>
<path d="M 4593 380 L 4626 446 L 4636 491 L 4639 548 L 4645 599 L 4652 637 L 4660 652 L 4676 638 L 4688 595 L 4713 530 L 4732 463 L 4762 398 L 4783 356 L 4807 322 L 4820 318 L 4832 330 L 4835 371 L 4839 427 L 4842 483 L 4850 535 L 4858 572 L 4869 601 L 4879 624" stroke="#000000" stroke-width="50" fill="none" stroke-linecap="round" stroke-linejoin="round"/>
<path d="M 5070 349 L 5007 555 L 4993 625 L 4982 696 L 4975 764 L 4969 829 L 4964 885 L 4959 939 L 4953 997 L 4946 1046 L 4940 1094 L 4932 1132" stroke="#000000" stroke-width="50" fill="none" stroke-linecap="round" stroke-linejoin="round"/>
<path d="M 5091 349 L 5051 528 L 5049 586 L 5066 629 L 5099 637 L 5136 628 L 5179 587 L 5214 534 L 5238 474 L 5253 424 L 5256 399 L 5255 393 L 5250 417 L 5244 456 L 5250 499 L 5258 545 L 5289 575 L 5322 596 L 5368 600 L 5410 590 L 5447 563 L 5471 531 L 5486 494 L 5491 468 L 5493 453 L 5493 464 L 5495 482 L 5505 521 L 5517 550 L 5544 580 L 5568 581 L 5595 565 L 5607 512 L 5603 461 L 5582 399 L 5547 358 L 5504 322 L 5442 280 L 5379 254 L 5303 222" stroke="#000000" stroke-width="50" fill="none" stroke-linecap="round" stroke-linejoin="round"/>
<path d="M 5959 211 L 5864 277 L 5819 323 L 5785 365 L 5753 410 L 5726 459 L 5703 508 L 5684 564 L 5676 619 L 5681 667 L 5703 704 L 5745 710 L 5784 704 L 5827 674 L 5846 640 L 5844 606 L 5819 576 L 5762 561 L 5711 552 L 5647 550 L 5599 550" stroke="#000000" stroke-width="50" fill="none" stroke-linecap="round" stroke-linejoin="round"/>
<path d="M 6012 455 L 6012 589 L 6044 630 L 6098 634 L 6160 618 L 6217 577 L 6263 520 L 6296 465 L 6310 402 L 6319 349" stroke="#000000" stroke-width="50" fill="none" stroke-linecap="round" stroke-linejoin="round"/>
<path d="M 6170 84 L 6142 159 L 6134 214 L 6140 281 L 6164 340 L 6202 391" stroke="#000000" stroke-width="50" fill="none" stroke-linecap="round" stroke-linejoin="round"/>
<path d="M 6382 380 L 6384 501 L 6391 555 L 6401 594 L 6424 627 L 6446 640 L 6486 630 L 6523 597 L 6563 536 L 6595 467 L 6618 401 L 6634 347 L 6647 306" stroke="#000000" stroke-width="50" fill="none" stroke-linecap="round" stroke-linejoin="round"/>
<path d="M 6700 423 L 6719 508 L 6738 545 L 6758 584 L 6788 601 L 6819 603 L 6859 579 L 6890 535 L 6928 483 L 6948 434 L 6970 399 L 6980 377 L 6988 375 L 6998 386 L 7004 425 L 7014 478 L 7018 555 L 7018 640 L 7014 722 L 7000 801 L 6985 867" stroke="#000000" stroke-width="50" fill="none" stroke-linecap="round" stroke-linejoin="round"/></svg>