<svg xmlns="http://www.w3.org/2000/svg" width="5096" height="746" viewBox="0 0 5096 746"><path d="M 56 590 L 54 600 L 54 600 L 54 602 L 54 602 L 52 602 L 52 602 L 52 602 L 52 604 L 50 604 L 50 604 L 50 604 L 48 604 L 48 604 L 48 606 L 48 606 L 46 606 L 46 606 L 46 606 L 44 606 L 44 606 L 44 606 L 42 606 L 42 606 L 42 606 L 40 606 L 40 606 L 40 606 L 38 606 L 32 604 L 32 602 L 32 602 L 32 600 L 32 600 L 32 600 L 32 600 L 32 600 L 32 600 L 32 600 L 32 598 L 32 598 L 32 598 L 32 598 L 32 598 L 32 598 L 32 596 L 32 596 L 32 596 L 32 596 L 32 596 L 32 596 L 32 594 L 32 594 L 32 594 L 32 594 L 32 594 L 32 594 L 30 594 L 30 592 L 30 592 L 30 592 L 30 592 L 30 592 L 30 592 L 30 592 L 30 592 L 28 592 L 28 592 L 28 590 L 28 590 L 28 590 L 28 590 L 26 590 L 10 590 L 16 582 L 18 580 L 18 578 L 20 578 L 20 578 L 22 578 L 22 576 L 24 576 L 24 576 L 26 576 L 26 576 L 28 576 L 28 574 L 30 574 L 30 574 L 32 574 L 32 574 L 34 574 L 34 574 L 36 574 L 38 576 L 58 574 L 68 570 L 80 566 L 90 562 L 100 558 L 124 554 L 146 548 L 152 546 L 160 546 L 168 544 L 174 544 L 182 544 L 200 544 L 248 542 L 296 534 L 346 530 L 396 526 L 446 524 L 588 532 L 610 534 L 624 538 L 648 538 L 656 538" stroke="#FFC114" stroke-width="50.00001" fill="none" stroke-linecap="round" stroke-linejoin="round"/>
<path d="M 652 332 L 652 332 L 648 328 L 628 316 L 622 314 L 622 314 L 622 312 L 622 312 L 622 312 L 622 310 L 622 310 L 622 310 L 622 310 L 622 308 L 622 308 L 622 308 L 620 308 L 620 306 L 620 306 L 620 306 L 620 306 L 620 304 L 620 304 L 618 304 L 618 304 L 618 304 L 618 302 L 616 302 L 616 302 L 616 302 L 616 302 L 614 302 L 614 300 L 614 300 L 614 300 L 612 300 L 612 300 L 612 300 L 612 300 L 610 300 L 610 300 L 610 300 L 608 300 L 608 300 L 608 300 L 608 300 L 606 300 L 606 300 L 602 300 L 594 284 L 572 278 L 564 264 L 564 264 L 564 262 L 564 262 L 564 262 L 562 262 L 562 262 L 562 262 L 562 260 L 562 260 L 560 260 L 560 260 L 560 260 L 560 260 L 558 260 L 558 260 L 558 260 L 558 260 L 556 258 L 556 258 L 556 258 L 556 258 L 554 258 L 554 258 L 554 258 L 554 258 L 552 258 L 552 260 L 552 260 L 552 260 L 550 260 L 550 260 L 550 260 L 550 260 L 548 260 L 548 260 L 548 260 L 548 262 L 548 262 L 546 262 L 546 262 L 546 262 L 548 262 L 548 262 L 548 262 L 548 262 L 548 260 L 548 260 L 548 260 L 548 260 L 550 260 L 550 260 L 550 258 L 550 258 L 550 258 L 550 258 L 550 258 L 550 258 L 550 256 L 550 256 L 550 256 L 550 256 L 550 256 L 550 254 L 550 254 L 550 254 L 550 254 L 550 254 L 550 254 L 550 252 L 550 252 L 550 252 L 562 250 L 564 250 L 592 256 L 618 262 L 646 270 L 672 280 L 698 290 L 724 300 L 788 334 L 790 336 L 794 336 L 796 338 L 798 340 L 802 342 L 804 346 L 806 348 L 808 350 L 810 352 L 812 354 L 814 358 L 816 360 L 818 364 L 820 366 L 822 368 L 824 372 L 826 380 L 828 388 L 830 398 L 830 406 L 830 416 L 830 440 L 830 454 L 830 456 L 830 458 L 830 460 L 830 462 L 830 464 L 828 466 L 828 468 L 828 470 L 826 472 L 826 474 L 826 476 L 824 478 L 824 478 L 822 480 L 820 482 L 820 484 L 818 484 L 814 488 L 806 500 L 788 526 L 770 554 L 752 580 L 730 606 L 710 630 L 686 654 L 632 704 L 626 714 L 626 716 L 626 716 L 626 716 L 626 716 L 626 718 L 626 718 L 626 718 L 626 718 L 626 718 L 626 720 L 626 720 L 626 720 L 624 720 L 624 720 L 624 722 L 624 722 L 624 722 L 624 722 L 624 722 L 624 724 L 622 724 L 622 724 L 622 724 L 622 724 L 622 724 L 622 724 L 620 724 L 620 726 L 596 734 L 590 736" stroke="#FFC114" stroke-width="50.00001" fill="none" stroke-linecap="round" stroke-linejoin="round"/>
<path d="M 1248 116 L 1248 114 L 1248 114 L 1250 112 L 1250 112 L 1250 110 L 1250 108 L 1250 108 L 1250 106 L 1250 104 L 1250 104 L 1250 102 L 1250 100 L 1248 100 L 1248 98 L 1248 98 L 1248 96 L 1248 94 L 1246 94 L 1246 92 L 1246 92 L 1244 90 L 1244 90 L 1244 88 L 1242 88 L 1242 86 L 1240 86 L 1240 84 L 1238 84 L 1238 82 L 1236 82 L 1236 82 L 1232 80 L 1224 74 L 1220 62 L 1220 62 L 1220 62 L 1222 60 L 1222 60 L 1220 60 L 1220 58 L 1220 58 L 1220 58 L 1220 56 L 1220 56 L 1220 56 L 1220 54 L 1220 54 L 1220 54 L 1220 52 L 1218 52 L 1218 52 L 1218 50 L 1218 50 L 1218 50 L 1216 50 L 1216 48 L 1216 48 L 1214 48 L 1194 44 L 1194 44 L 1194 44 L 1192 44 L 1192 44 L 1192 44 L 1192 44 L 1192 44 L 1192 44 L 1192 44 L 1192 44 L 1192 44 L 1190 44 L 1190 44 L 1190 44 L 1190 44 L 1190 44 L 1190 44 L 1190 44 L 1190 44 L 1190 44 L 1190 44 L 1188 42 L 1188 42 L 1188 42 L 1188 42 L 1188 42 L 1188 42 L 1188 42 L 1188 42 L 1188 42 L 1188 42 L 1188 40 L 1188 40 L 1188 40 L 1188 40 L 1188 40 L 1188 40 L 1188 40 L 1188 40 L 1188 38 L 1188 38 L 1188 38 L 1188 38 L 1188 38 L 1188 38 L 1188 38 L 1188 38 L 1188 38 L 1188 36 L 1188 36 L 1188 36 L 1188 36 L 1188 36 L 1188 36 L 1190 36 L 1190 36 L 1190 34 L 1190 34 L 1190 34 L 1190 34 L 1190 34 L 1190 34 L 1190 34 L 1190 34 L 1190 32 L 1190 32 L 1190 32 L 1190 32 L 1188 32 L 1188 32 L 1188 32 L 1188 32 L 1188 32 L 1188 30 L 1188 30 L 1188 30 L 1188 30 L 1188 30 L 1188 30 L 1188 30 L 1188 30 L 1188 30 L 1188 30 L 1186 30 L 1186 30 L 1186 30 L 1186 28 L 1186 28 L 1186 28 L 1186 28 L 1186 28 L 1186 28 L 1184 28 L 1184 28 L 1184 28 L 1184 28 L 1184 28 L 1184 28 L 1182 28 L 1182 28 L 1180 28 L 1180 28 L 1178 28 L 1178 28 L 1178 28 L 1176 28 L 1176 28 L 1174 28 L 1174 28 L 1172 28 L 1172 28 L 1170 30 L 1170 30 L 1170 30 L 1168 30 L 1168 30 L 1166 32 L 1166 32 L 1166 32 L 1164 34 L 1164 34 L 1164 34 L 1162 36 L 1158 68 L 1158 68 L 1168 540 L 1168 540 L 1166 542 L 1164 542 L 1164 542 L 1162 544 L 1160 544 L 1160 544 L 1158 544 L 1156 544 L 1154 544 L 1154 544 L 1152 544 L 1150 546 L 1150 544 L 1148 544 L 1144 544 L 1144 544 L 1144 544 L 1144 544 L 1144 544 L 1144 544 L 1142 544 L 1142 544 L 1142 544 L 1142 544 L 1142 544 L 1142 544 L 1142 544 L 1142 544 L 1142 544 L 1142 544 L 1142 544 L 1142 544 L 1142 544 L 1140 544 L 1140 544 L 1140 544 L 1140 544 L 1140 544 L 1140 544 L 1140 544 L 1140 544 L 1140 544 L 1140 544 L 1140 544 L 1140 544 L 1140 544 L 1140 544 L 1140 544 L 1140 544 L 1138 542 L 1138 542 L 1138 542 L 1138 542 L 1138 542 L 1138 542 L 1138 542 L 1138 542 L 1138 542 L 1138 542 L 1138 542 L 1138 542 L 1138 542 L 1138 542 L 1138 540 L 1138 540 L 1138 540 L 1138 540 L 1138 540 L 1138 540 L 1138 540 L 1138 540 L 1138 540 L 1138 458 L 1136 400 L 1140 262 L 1142 252 L 1144 242 L 1148 232 L 1152 222 L 1154 212 L 1158 202 L 1164 194 L 1168 184 L 1174 174 L 1180 166 L 1186 158 L 1192 150 L 1200 142 L 1206 134 L 1214 126 L 1222 120 L 1230 114 L 1238 108 L 1246 102 L 1256 96 L 1264 90 L 1274 86 L 1294 78 L 1302 74 L 1310 72 L 1318 68 L 1326 66 L 1334 64 L 1342 62 L 1364 60 L 1366 60 L 1370 60 L 1372 60 L 1374 62 L 1378 62 L 1380 62 L 1382 62 L 1384 64 L 1388 64 L 1390 66 L 1392 66 L 1394 68 L 1398 70 L 1400 70 L 1402 72 L 1404 74 L 1406 76 L 1408 78 L 1410 80 L 1412 82 L 1414 84 L 1416 86 L 1416 88 L 1418 90 L 1420 92 L 1422 100 L 1426 106 L 1428 112 L 1428 118 L 1430 124 L 1432 130 L 1432 136 L 1434 142 L 1434 148 L 1434 154 L 1434 160 L 1434 166 L 1434 172 L 1432 178 L 1432 184 L 1426 202 L 1420 210 L 1414 220 L 1406 228 L 1400 236 L 1392 244 L 1384 252 L 1376 260 L 1366 266 L 1358 274 L 1348 280 L 1340 284 L 1330 290 L 1320 296 L 1298 304 L 1280 310 L 1262 316 L 1242 322 L 1222 326 L 1202 330 L 1182 332 L 1130 336 L 1124 336 L 1130 336 L 1134 338 L 1140 340 L 1146 342 L 1150 344 L 1156 346 L 1168 352 L 1238 392 L 1338 460 L 1432 524 L 1440 528" stroke="#FFC114" stroke-width="50.00001" fill="none" stroke-linecap="round" stroke-linejoin="round"/>
<path d="M 1502 382 L 1502 380 L 1502 378 L 1502 378 L 1502 376 L 1502 374 L 1502 372 L 1502 370 L 1502 368 L 1502 368 L 1500 366 L 1500 364 L 1500 362 L 1498 362 L 1498 360 L 1498 358 L 1496 356 L 1496 356 L 1494 354 L 1494 352 L 1492 352 L 1492 350 L 1490 350 L 1490 348 L 1488 346 L 1484 344 L 1476 338 L 1470 330 L 1470 306 L 1470 294 L 1470 292 L 1470 292 L 1470 290 L 1470 290 L 1470 290 L 1470 288 L 1470 288 L 1470 286 L 1470 286 L 1468 286 L 1468 284 L 1468 284 L 1468 282 L 1468 282 L 1466 282 L 1466 280 L 1466 280 L 1466 280 L 1464 278 L 1464 278 L 1464 278 L 1462 278 L 1462 276 L 1462 276 L 1460 276 L 1460 276 L 1458 274 L 1456 274 L 1456 274 L 1456 274 L 1454 274 L 1454 274 L 1454 272 L 1452 272 L 1452 272 L 1452 272 L 1452 270 L 1450 270 L 1450 270 L 1450 270 L 1450 268 L 1448 268 L 1448 268 L 1448 266 L 1448 266 L 1448 266 L 1448 264 L 1446 264 L 1446 264 L 1446 262 L 1446 262 L 1446 262 L 1446 260 L 1446 260 L 1446 256 L 1458 258 L 1470 258 L 1484 260 L 1496 264 L 1532 274 L 1602 292 L 1726 302 L 1726 302 L 1728 302 L 1728 302 L 1728 302 L 1728 302 L 1730 302 L 1730 302 L 1730 302 L 1732 302 L 1732 302 L 1732 302 L 1732 300 L 1734 300 L 1734 300 L 1734 300 L 1734 300 L 1734 300 L 1736 298 L 1736 298 L 1736 298 L 1736 298 L 1736 296 L 1738 296 L 1738 296 L 1738 296 L 1738 294 L 1738 294 L 1738 294 L 1738 294 L 1738 292 L 1738 292 L 1738 292 L 1740 290 L 1740 264 L 1740 256 L 1740 256 L 1740 254 L 1740 254 L 1740 254 L 1740 254 L 1740 252 L 1740 252 L 1740 252 L 1740 252 L 1740 252 L 1740 250 L 1740 250 L 1740 250 L 1738 250 L 1738 248 L 1738 248 L 1738 248 L 1738 248 L 1738 248 L 1738 248 L 1738 246 L 1736 246 L 1736 246 L 1736 246 L 1736 246 L 1736 246 L 1734 246 L 1734 244 L 1734 244 L 1734 244 L 1734 244 L 1732 244 L 1732 244 L 1706 242 L 1690 244 L 1660 244 L 1630 244 L 1602 248 L 1572 252 L 1512 264 L 1492 276 L 1478 290 L 1470 296 L 1468 296 L 1466 298 L 1464 298 L 1464 300 L 1462 302 L 1460 302 L 1458 304 L 1458 306 L 1456 308 L 1454 310 L 1454 310 L 1452 312 L 1450 314 L 1450 316 L 1450 318 L 1448 320 L 1448 322 L 1446 324 L 1446 326 L 1446 328 L 1446 330 L 1446 332 L 1444 334 L 1444 336 L 1444 338 L 1444 340 L 1446 342 L 1446 348 L 1446 358 L 1446 364 L 1446 370 L 1446 376 L 1446 384 L 1446 390 L 1448 396 L 1448 402 L 1452 418 L 1454 422 L 1456 424 L 1458 426 L 1460 430 L 1462 432 L 1466 434 L 1468 436 L 1470 438 L 1472 440 L 1476 442 L 1478 444 L 1482 446 L 1484 448 L 1488 450 L 1490 450 L 1494 452 L 1496 452 L 1504 454 L 1530 462 L 1554 466 L 1578 470 L 1604 474 L 1656 476 L 1696 478" stroke="#FFC114" stroke-width="50.00001" fill="none" stroke-linecap="round" stroke-linejoin="round"/>
<path d="M 1932 356 L 1932 356 L 1932 354 L 1932 354 L 1932 354 L 1932 352 L 1932 352 L 1932 350 L 1932 350 L 1932 350 L 1932 348 L 1932 348 L 1932 348 L 1930 346 L 1930 346 L 1930 346 L 1930 344 L 1930 344 L 1928 344 L 1928 342 L 1928 342 L 1928 342 L 1928 340 L 1926 340 L 1926 340 L 1926 340 L 1924 340 L 1924 338 L 1924 338 L 1922 338 L 1922 338 L 1922 338 L 1920 338 L 1920 336 L 1920 336 L 1918 336 L 1918 336 L 1918 336 L 1916 336 L 1914 336 L 1904 332 L 1892 320 L 1892 320 L 1890 316 L 1886 314 L 1884 314 L 1880 312 L 1876 310 L 1874 308 L 1870 306 L 1866 306 L 1864 304 L 1860 304 L 1856 302 L 1852 302 L 1850 302 L 1846 302 L 1836 302 L 1834 302 L 1826 302 L 1818 302 L 1810 302 L 1802 302 L 1796 304 L 1774 308 L 1772 310 L 1770 310 L 1768 312 L 1766 312 L 1764 314 L 1762 314 L 1760 316 L 1758 318 L 1756 318 L 1754 320 L 1752 322 L 1750 324 L 1750 324 L 1748 326 L 1746 328 L 1746 330 L 1744 332 L 1742 334 L 1742 336 L 1740 338 L 1740 340 L 1740 342 L 1738 344 L 1738 346 L 1738 348 L 1738 352 L 1738 354 L 1736 356 L 1736 362 L 1736 388 L 1736 450 L 1736 452 L 1736 454 L 1738 456 L 1738 460 L 1738 462 L 1740 464 L 1740 466 L 1742 468 L 1742 470 L 1744 472 L 1744 474 L 1746 476 L 1748 478 L 1748 480 L 1750 482 L 1752 484 L 1754 486 L 1756 486 L 1758 488 L 1760 490 L 1762 492 L 1766 494 L 1780 498 L 1792 502 L 1804 504 L 1818 508 L 1832 510 L 1844 510 L 1858 512 L 1898 510 L 1926 510 L 1930 510 L 1934 510 L 1940 508 L 1944 508 L 1948 508 L 1954 506 L 1958 506 L 1962 504 L 1966 502 L 1970 500 L 1976 498 L 1980 496 L 1984 494 L 1988 490 L 1992 488 L 1994 486 L 1998 482 L 2002 480 L 2004 476 L 2008 472 L 2014 464 L 2018 458 L 2022 452 L 2026 446 L 2028 440 L 2032 432 L 2034 426 L 2036 420 L 2038 412 L 2040 404 L 2042 398 L 2042 390 L 2044 384 L 2044 366 L 2044 366 L 2046 364 L 2046 364 L 2046 362 L 2046 362 L 2046 360 L 2046 360 L 2046 358 L 2046 358 L 2046 356 L 2046 356 L 2046 354 L 2046 354 L 2046 352 L 2046 352 L 2044 350 L 2044 350 L 2044 348 L 2044 348 L 2044 348 L 2042 346 L 2042 346 L 2042 344 L 2040 344 L 2040 344 L 2040 342 L 2038 342 L 2038 340 L 2038 340 L 2036 340 L 2036 340 L 2034 338 L 2034 338 L 2034 338 L 2032 338 L 2032 336 L 2030 336 L 2030 336 L 2028 336 L 2028 336 L 2024 336 L 2010 330 L 1996 314 L 1956 310" stroke="#FFC114" stroke-width="50.00001" fill="none" stroke-linecap="round" stroke-linejoin="round"/>
<path d="M 2014 338 L 2106 324 L 2108 322 L 2110 322 L 2112 322 L 2114 322 L 2116 324 L 2118 324 L 2120 324 L 2120 324 L 2122 324 L 2124 326 L 2126 326 L 2128 326 L 2130 328 L 2130 328 L 2132 328 L 2134 330 L 2136 330 L 2136 332 L 2138 332 L 2140 334 L 2140 336 L 2142 336 L 2146 340 L 2148 346 L 2150 350 L 2152 356 L 2154 362 L 2154 366 L 2156 372 L 2158 384 L 2160 396 L 2174 480 L 2186 556 L 2190 578" stroke="#FFC114" stroke-width="50.00001" fill="none" stroke-linecap="round" stroke-linejoin="round"/>
<path d="M 2294 180 L 2294 176 L 2294 118 L 2294 116 L 2294 114 L 2294 114 L 2294 114 L 2294 114 L 2294 112 L 2294 112 L 2294 112 L 2294 110 L 2294 110 L 2294 110 L 2296 110 L 2296 108 L 2296 108 L 2296 108 L 2296 108 L 2296 106 L 2296 106 L 2298 106 L 2298 106 L 2298 106 L 2298 104 L 2298 104 L 2300 104 L 2300 104 L 2300 104 L 2300 102 L 2302 102 L 2330 104 L 2338 104 L 2344 106 L 2352 106 L 2360 106 L 2368 106 L 2376 106 L 2382 104 L 2390 104 L 2410 98 L 2422 92 L 2428 90 L 2436 88 L 2442 84 L 2448 80 L 2454 76 L 2462 72 L 2468 68 L 2472 64 L 2478 60 L 2484 54 L 2498 38 L 2498 38 L 2498 38 L 2500 38 L 2500 36 L 2500 36 L 2500 36 L 2500 34 L 2500 34 L 2502 34 L 2502 34 L 2502 32 L 2502 32 L 2502 32 L 2502 30 L 2502 30 L 2502 30 L 2502 28 L 2502 28 L 2502 28 L 2502 26 L 2502 26 L 2502 24 L 2502 24 L 2502 24 L 2502 22 L 2502 22 L 2500 22 L 2500 22 L 2500 20 L 2500 20 L 2500 20 L 2500 18 L 2498 18 L 2498 18 L 2498 18 L 2498 16 L 2496 16 L 2496 16 L 2496 16 L 2496 14 L 2494 14 L 2494 14 L 2494 14 L 2492 14 L 2492 14 L 2492 14 L 2490 12 L 2490 12 L 2450 10 L 2438 12 L 2430 12 L 2424 12 L 2418 12 L 2410 14 L 2404 14 L 2398 16 L 2392 18 L 2384 20 L 2378 22 L 2372 26 L 2366 28 L 2360 32 L 2356 34 L 2350 38 L 2344 42 L 2338 46 L 2334 52 L 2330 56 L 2324 60 L 2320 66 L 2316 70 L 2312 76 L 2302 90 L 2300 98 L 2296 106 L 2292 112 L 2288 120 L 2284 126 L 2274 140 L 2264 154 L 2262 156 L 2262 160 L 2260 164 L 2260 166 L 2258 170 L 2258 174 L 2256 178 L 2256 180 L 2256 184 L 2256 188 L 2256 192 L 2256 194 L 2256 198 L 2256 208 L 2258 220 L 2258 252 L 2256 270 L 2256 286 L 2256 302 L 2258 320 L 2266 368 L 2268 374 L 2270 378 L 2272 384 L 2276 390 L 2278 396 L 2282 400 L 2284 406 L 2288 410 L 2292 416 L 2296 420 L 2300 424 L 2304 430 L 2310 434 L 2314 438 L 2318 440 L 2324 444 L 2330 448 L 2340 454 L 2354 458 L 2366 462 L 2378 466 L 2392 470 L 2406 472 L 2418 474 L 2432 474 L 2444 476 L 2476 474 L 2480 474 L 2482 474 L 2484 474 L 2486 474 L 2488 472 L 2492 472 L 2494 470 L 2496 470 L 2498 470 L 2500 468 L 2502 466 L 2504 466 L 2506 464 L 2508 462 L 2508 462 L 2510 460 L 2512 458 L 2514 456 L 2516 454 L 2516 452 L 2518 450 L 2520 448 L 2522 444 L 2546 390 L 2546 388 L 2548 380 L 2550 368 L 2552 358 L 2554 348 L 2556 324 L 2560 292 L 2558 328 L 2562 374 L 2562 380 L 2564 386 L 2564 392 L 2566 398 L 2568 404 L 2570 412 L 2574 418 L 2576 424 L 2580 428 L 2582 434 L 2586 440 L 2596 452 L 2596 454 L 2598 456 L 2600 456 L 2602 458 L 2602 458 L 2604 460 L 2606 460 L 2608 462 L 2610 462 L 2612 464 L 2614 464 L 2614 464 L 2616 466 L 2618 466 L 2620 466 L 2622 466 L 2624 466 L 2626 466 L 2628 466 L 2630 466 L 2632 466 L 2634 466 L 2636 466 L 2638 466 L 2640 464 L 2642 464 L 2644 464 L 2646 464 L 2648 462 L 2650 462 L 2650 460 L 2652 460 L 2654 458 L 2656 458 L 2658 456 L 2658 454 L 2662 450 L 2672 442 L 2680 432 L 2688 424 L 2696 414 L 2712 390 L 2720 378 L 2720 376 L 2722 374 L 2722 374 L 2724 372 L 2724 370 L 2726 370 L 2726 368 L 2728 366 L 2730 366 L 2730 364 L 2732 364 L 2734 362 L 2734 362 L 2736 360 L 2738 360 L 2740 360 L 2742 358 L 2742 358 L 2746 356 L 2748 358 L 2748 358 L 2750 358 L 2750 358 L 2752 358 L 2752 358 L 2754 358 L 2754 360 L 2756 360 L 2756 360 L 2758 360 L 2758 362 L 2758 362 L 2760 362 L 2760 364 L 2762 364 L 2762 364 L 2762 366 L 2764 366 L 2764 368 L 2764 368 L 2764 370 L 2766 372 L 2770 382 L 2774 394 L 2778 404 L 2782 416 L 2788 442 L 2792 464 L 2810 508 L 2810 508 L 2810 510 L 2810 510 L 2812 512 L 2812 512 L 2812 514 L 2812 514 L 2814 514 L 2814 516 L 2814 516 L 2816 518 L 2816 518 L 2816 518 L 2818 520 L 2818 520 L 2820 520 L 2820 522 L 2822 522 L 2822 522 L 2822 522 L 2824 522 L 2824 524 L 2826 524 L 2826 524 L 2828 524 L 2828 524 L 2830 524 L 2830 524 L 2832 524 L 2834 524 L 2834 524 L 2836 524 L 2836 524 L 2838 524 L 2838 524 L 2840 524 L 2840 522 L 2842 522 L 2842 522 L 2842 522 L 2844 522 L 2844 520 L 2846 520 L 2854 514 L 2860 506 L 2866 500 L 2872 494 L 2878 486 L 2892 464 L 2918 426 L 2922 420 L 2924 418 L 2924 416 L 2926 414 L 2928 410 L 2930 408 L 2932 406 L 2934 404 L 2936 402 L 2938 400 L 2940 400 L 2942 398 L 2944 396 L 2946 394 L 2950 394 L 2952 392 L 2954 390 L 2962 388 L 2964 392 L 2966 394 L 2966 398 L 2968 402 L 2970 406 L 2970 408 L 2972 412 L 2972 416 L 2972 420 L 2972 422 L 2974 426 L 2974 430 L 2972 440 L 2974 448 L 2974 492 L 2976 534 L 2982 562 L 2986 570" stroke="#FFC114" stroke-width="50.00001" fill="none" stroke-linecap="round" stroke-linejoin="round"/>
<path d="M 3526 278 L 3526 278 L 3526 266 L 3526 260 L 3526 260 L 3526 258 L 3526 258 L 3526 258 L 3526 258 L 3526 256 L 3526 256 L 3526 256 L 3526 254 L 3526 254 L 3526 254 L 3524 252 L 3524 252 L 3524 252 L 3524 252 L 3524 250 L 3524 250 L 3522 250 L 3522 250 L 3522 250 L 3522 248 L 3522 248 L 3520 248 L 3520 248 L 3520 248 L 3520 246 L 3518 246 L 3518 246 L 3518 246 L 3516 246 L 3516 246 L 3516 246 L 3516 246 L 3514 246 L 3514 246 L 3514 244 L 3512 244 L 3512 244 L 3510 246 L 3500 242 L 3488 234 L 3488 234 L 3486 232 L 3484 232 L 3484 230 L 3482 230 L 3480 230 L 3478 230 L 3478 228 L 3476 228 L 3474 228 L 3472 228 L 3470 228 L 3470 228 L 3468 228 L 3466 228 L 3464 228 L 3462 228 L 3462 228 L 3456 228 L 3428 228 L 3408 228 L 3388 226 L 3366 228 L 3346 228 L 3326 232 L 3306 234 L 3254 248 L 3254 250 L 3252 252 L 3252 254 L 3250 256 L 3250 258 L 3248 262 L 3248 264 L 3246 266 L 3246 268 L 3246 272 L 3246 274 L 3246 276 L 3246 280 L 3246 282 L 3246 284 L 3246 288 L 3246 290 L 3248 294 L 3248 302 L 3248 304 L 3248 306 L 3250 308 L 3250 310 L 3250 312 L 3250 314 L 3252 316 L 3252 316 L 3254 318 L 3254 320 L 3256 322 L 3256 324 L 3258 324 L 3258 326 L 3260 328 L 3262 328 L 3264 330 L 3264 332 L 3266 332 L 3268 334 L 3270 334 L 3274 336 L 3324 358 L 3346 368 L 3352 372 L 3372 380 L 3392 390 L 3412 400 L 3458 432 L 3462 436 L 3468 438 L 3472 442 L 3476 446 L 3478 450 L 3482 454 L 3486 460 L 3490 464 L 3492 468 L 3496 474 L 3498 478 L 3500 484 L 3502 488 L 3504 494 L 3506 500 L 3508 504 L 3508 510 L 3510 516 L 3510 522 L 3512 534 L 3512 536 L 3510 538 L 3510 542 L 3510 544 L 3510 546 L 3510 548 L 3508 552 L 3508 554 L 3508 556 L 3506 558 L 3506 560 L 3504 562 L 3502 564 L 3502 568 L 3500 570 L 3498 572 L 3496 574 L 3494 574 L 3494 576 L 3492 578 L 3490 580 L 3488 582 L 3486 584 L 3484 584 L 3480 586 L 3478 586 L 3476 588 L 3474 588 L 3472 590 L 3470 590 L 3466 592 L 3462 592 L 3446 596 L 3430 598 L 3414 598 L 3398 600 L 3364 600 L 3342 598 L 3314 598" stroke="#FFC114" stroke-width="50.00001" fill="none" stroke-linecap="round" stroke-linejoin="round"/>
<path d="M 3640 362 L 3642 362 L 3644 362 L 3646 362 L 3648 362 L 3650 362 L 3652 362 L 3654 362 L 3656 362 L 3658 360 L 3660 360 L 3662 360 L 3662 360 L 3664 358 L 3666 358 L 3668 356 L 3670 356 L 3672 354 L 3672 354 L 3674 352 L 3676 350 L 3678 348 L 3684 344 L 3702 338 L 3702 336 L 3704 336 L 3704 334 L 3706 332 L 3706 330 L 3708 328 L 3708 326 L 3710 326 L 3710 324 L 3710 322 L 3710 320 L 3712 318 L 3712 316 L 3712 314 L 3712 312 L 3712 306 L 3708 308 L 3702 308 L 3698 310 L 3694 310 L 3690 312 L 3684 314 L 3680 316 L 3676 318 L 3672 320 L 3662 328 L 3660 328 L 3658 330 L 3656 332 L 3654 334 L 3652 336 L 3648 338 L 3648 342 L 3646 344 L 3644 346 L 3642 348 L 3640 352 L 3638 354 L 3638 356 L 3636 360 L 3636 362 L 3634 364 L 3634 368 L 3634 370 L 3632 374 L 3632 382 L 3632 384 L 3632 386 L 3632 388 L 3632 390 L 3630 392 L 3630 394 L 3630 396 L 3630 396 L 3628 398 L 3628 400 L 3626 402 L 3626 404 L 3626 406 L 3624 408 L 3622 408 L 3622 410 L 3620 412 L 3616 416 L 3616 416 L 3614 418 L 3612 420 L 3612 420 L 3610 422 L 3610 424 L 3608 426 L 3608 428 L 3606 430 L 3606 432 L 3604 432 L 3604 434 L 3604 436 L 3604 438 L 3602 440 L 3602 442 L 3602 444 L 3602 450 L 3602 460 L 3602 470 L 3602 480 L 3602 488 L 3602 498 L 3604 508 L 3606 516 L 3610 536 L 3612 540 L 3612 542 L 3614 546 L 3616 548 L 3618 550 L 3620 554 L 3622 556 L 3624 558 L 3626 560 L 3628 562 L 3630 564 L 3632 566 L 3636 568 L 3638 570 L 3640 572 L 3644 574 L 3646 574 L 3648 576 L 3652 578 L 3654 578 L 3658 580 L 3660 580 L 3670 582 L 3692 586 L 3714 588 L 3780 588 L 3804 588 L 3842 588" stroke="#FFC114" stroke-width="50.00001" fill="none" stroke-linecap="round" stroke-linejoin="round"/>
<path d="M 4000 468 L 4000 466 L 4000 464 L 4000 462 L 3998 460 L 3998 458 L 3998 456 L 3998 454 L 3996 452 L 3996 450 L 3994 450 L 3994 448 L 3992 446 L 3992 444 L 3990 442 L 3988 440 L 3988 440 L 3986 438 L 3984 436 L 3984 436 L 3978 432 L 3976 430 L 3976 430 L 3976 430 L 3976 430 L 3976 430 L 3974 430 L 3974 428 L 3974 428 L 3974 428 L 3974 428 L 3974 428 L 3972 428 L 3972 426 L 3972 426 L 3972 426 L 3972 426 L 3972 426 L 3972 424 L 3972 424 L 3972 424 L 3972 424 L 3972 424 L 3972 422 L 3970 422 L 3970 422 L 3970 422 L 3970 420 L 3970 420 L 3972 420 L 3972 420 L 3972 418 L 3972 418 L 3972 418 L 3972 418 L 3972 418 L 3972 416 L 3972 416 L 3972 416 L 3972 416 L 3972 414 L 3974 414 L 3974 414 L 3974 414 L 3974 414 L 3974 414 L 3974 412 L 3974 412 L 3974 412 L 3974 412 L 3974 412 L 3974 412 L 3974 410 L 3974 410 L 3974 410 L 3974 410 L 3974 410 L 3972 410 L 3972 408 L 3972 408 L 3972 408 L 3972 408 L 3972 408 L 3972 408 L 3972 408 L 3972 406 L 3972 406 L 3972 406 L 3970 406 L 3970 406 L 3970 406 L 3970 406 L 3970 406 L 3970 406 L 3970 404 L 3968 404 L 3968 404 L 3968 404 L 3968 404 L 3968 404 L 3968 404 L 3966 404 L 3966 404 L 3942 394 L 3938 390 L 3934 390 L 3932 390 L 3930 390 L 3928 390 L 3926 390 L 3924 390 L 3922 390 L 3922 390 L 3920 390 L 3918 390 L 3916 390 L 3914 390 L 3914 392 L 3912 392 L 3910 392 L 3908 394 L 3906 394 L 3906 394 L 3904 396 L 3902 396 L 3902 398 L 3900 398 L 3898 400 L 3898 402 L 3896 402 L 3896 404 L 3894 404 L 3894 406 L 3892 408 L 3892 410 L 3890 410 L 3890 412 L 3890 414 L 3888 416 L 3888 416 L 3888 420 L 3888 424 L 3888 426 L 3888 430 L 3888 432 L 3890 434 L 3890 438 L 3892 440 L 3892 444 L 3894 446 L 3894 448 L 3896 452 L 3898 454 L 3900 456 L 3902 458 L 3904 460 L 3904 462 L 3908 464 L 3910 466 L 3912 468 L 3914 470 L 3916 472 L 3922 476 L 3930 480 L 3940 486 L 3948 490 L 3958 494 L 3968 496 L 3978 500 L 3986 502 L 3996 504 L 4006 506 L 4016 506 L 4026 506 L 4036 508 L 4060 506 L 4062 506 L 4064 506 L 4066 506 L 4068 506 L 4070 506 L 4072 504 L 4072 504 L 4074 504 L 4076 504 L 4078 502 L 4080 502 L 4080 500 L 4082 500 L 4084 498 L 4086 498 L 4086 496 L 4088 496 L 4090 494 L 4090 494 L 4092 492 L 4092 490 L 4094 490 L 4094 488 L 4096 486 L 4096 484 L 4098 484 L 4098 482 L 4098 480 L 4100 478 L 4100 476 L 4100 472 L 4102 462 L 4104 452 L 4106 442 L 4106 432 L 4106 408 L 4106 398 L 4100 390 L 4092 384 L 4080 376 L 4064 364 L 4040 350" stroke="#FFC114" stroke-width="50.00001" fill="none" stroke-linecap="round" stroke-linejoin="round"/>
<path d="M 4208 432 L 4212 428 L 4218 424 L 4222 420 L 4228 416 L 4234 414 L 4238 410 L 4244 408 L 4250 406 L 4256 404 L 4262 402 L 4280 398 L 4280 432 L 4278 440 L 4278 448 L 4276 456 L 4276 466 L 4274 474 L 4272 482 L 4264 500 L 4262 508 L 4258 518 L 4256 526 L 4254 536 L 4252 544 L 4250 552 L 4250 574 L 4250 728 L 4250 730 L 4250 714 L 4298 446 L 4300 438 L 4302 428 L 4302 420 L 4304 412 L 4308 404 L 4310 394 L 4314 386 L 4318 378 L 4320 372 L 4326 364 L 4330 356 L 4334 348 L 4348 332 L 4350 330 L 4350 330 L 4350 330 L 4352 328 L 4352 328 L 4352 328 L 4354 328 L 4354 326 L 4354 326 L 4356 326 L 4356 326 L 4358 324 L 4358 324 L 4358 324 L 4360 324 L 4360 324 L 4362 324 L 4362 324 L 4362 324 L 4364 324 L 4364 324 L 4366 324 L 4366 324 L 4368 324 L 4368 324 L 4368 324 L 4370 324 L 4370 324 L 4372 324 L 4372 326 L 4374 326 L 4374 326 L 4374 326 L 4376 326 L 4376 328 L 4376 328 L 4378 328 L 4378 328 L 4378 330 L 4380 330 L 4380 330 L 4380 332 L 4380 332 L 4382 334 L 4382 334 L 4382 334 L 4384 336 L 4384 340 L 4386 344 L 4388 348 L 4390 350 L 4390 354 L 4392 358 L 4392 362 L 4394 366 L 4394 376 L 4394 474 L 4394 476 L 4394 478 L 4394 480 L 4394 482 L 4394 482 L 4394 484 L 4394 486 L 4392 488 L 4392 490 L 4392 492 L 4390 494 L 4390 496 L 4388 498 L 4388 500 L 4386 502 L 4386 502 L 4384 504 L 4382 506 L 4380 510 L 4378 510 L 4376 512 L 4374 514 L 4374 514 L 4372 516 L 4372 518 L 4370 520 L 4370 522 L 4368 522 L 4368 524 L 4366 526 L 4366 528 L 4366 530 L 4364 532 L 4364 534 L 4364 536 L 4364 538 L 4364 540 L 4364 544 L 4364 546 L 4364 548 L 4364 550 L 4362 550 L 4362 552 L 4362 554 L 4362 556 L 4362 558 L 4360 560 L 4360 560 L 4360 562 L 4358 564 L 4358 566 L 4356 566 L 4356 568 L 4354 570 L 4354 570 L 4352 572 L 4352 574 L 4350 574 L 4348 576 L 4344 578 L 4338 584 L 4332 600" stroke="#FFC114" stroke-width="50.00001" fill="none" stroke-linecap="round" stroke-linejoin="round"/>
<path d="M 4572 450 L 4574 450 L 4574 448 L 4576 448 L 4578 446 L 4578 446 L 4580 444 L 4582 444 L 4582 442 L 4584 442 L 4584 440 L 4586 438 L 4586 438 L 4586 436 L 4588 434 L 4588 434 L 4590 432 L 4590 430 L 4590 428 L 4592 426 L 4592 424 L 4592 424 L 4592 422 L 4594 422 L 4594 420 L 4594 420 L 4594 418 L 4594 416 L 4594 416 L 4594 414 L 4594 414 L 4594 412 L 4594 410 L 4594 410 L 4594 408 L 4594 408 L 4594 406 L 4594 406 L 4594 404 L 4594 402 L 4594 402 L 4592 400 L 4592 400 L 4592 398 L 4592 398 L 4590 396 L 4590 396 L 4588 392 L 4588 392 L 4570 384 L 4564 386 L 4566 398 L 4568 402 L 4572 406 L 4574 410 L 4578 414 L 4580 418 L 4584 422 L 4588 424 L 4592 428 L 4594 430 L 4598 434 L 4602 436 L 4606 438 L 4610 440 L 4616 442 L 4620 444 L 4624 446 L 4628 448 L 4634 450 L 4638 450 L 4652 452 L 4676 456 L 4700 458 L 4762 460 L 4772 460 L 4774 460 L 4776 460 L 4776 460 L 4778 458 L 4778 458 L 4780 458 L 4782 458 L 4782 458 L 4784 456 L 4784 456 L 4786 456 L 4786 454 L 4788 454 L 4788 452 L 4790 452 L 4790 452 L 4790 450 L 4792 450 L 4792 448 L 4792 448 L 4794 446 L 4794 446 L 4794 444 L 4796 442 L 4796 442 L 4796 440 L 4796 440 L 4796 438 L 4798 438 L 4798 434 L 4802 394 L 4802 392 L 4802 392 L 4800 392 L 4800 390 L 4800 390 L 4798 390 L 4798 388 L 4798 388 L 4798 388 L 4796 388 L 4796 386 L 4796 386 L 4794 386 L 4794 386 L 4794 386 L 4792 384 L 4792 384 L 4790 384 L 4790 384 L 4790 384 L 4788 384 L 4788 384 L 4786 384 L 4786 384 L 4784 384 L 4742 380 L 4672 384 L 4664 384 L 4658 386 L 4650 388 L 4644 390 L 4636 394 L 4630 396 L 4624 400 L 4616 404 L 4610 406 L 4604 410 L 4598 416 L 4592 420 L 4588 424 L 4574 438 L 4572 444 L 4570 448 L 4568 452 L 4568 458 L 4566 462 L 4566 468 L 4566 472 L 4566 478 L 4564 482 L 4564 488 L 4566 492 L 4566 498 L 4568 508 L 4568 526 L 4568 528 L 4570 530 L 4570 532 L 4570 534 L 4570 536 L 4572 538 L 4572 540 L 4572 540 L 4574 542 L 4574 544 L 4576 546 L 4576 548 L 4578 550 L 4580 552 L 4580 552 L 4582 554 L 4584 556 L 4584 556 L 4586 558 L 4588 560 L 4590 560 L 4592 562 L 4592 562 L 4594 564 L 4596 564 L 4598 564 L 4600 566 L 4602 566 L 4604 566 L 4610 568 L 4624 570 L 4638 574 L 4652 574 L 4684 576 L 4704 578 L 4736 580 L 4770 582" stroke="#FFC114" stroke-width="50.00001" fill="none" stroke-linecap="round" stroke-linejoin="round"/>
<path d="M 5066 408 L 5066 402 L 5066 396 L 5068 392 L 5068 386 L 5070 380 L 5072 376 L 5076 364 L 5078 358 L 5080 352 L 5082 344 L 5082 338 L 5084 332 L 5084 326 L 5086 310 L 5080 310 L 5060 310 L 5058 310 L 5054 310 L 5052 310 L 5050 310 L 5048 310 L 5044 312 L 5042 312 L 5040 312 L 5038 314 L 5036 314 L 5034 314 L 5028 318 L 5022 320 L 5022 320 L 5022 320 L 5022 320 L 5022 320 L 5022 320 L 5020 320 L 5020 320 L 5020 320 L 5020 322 L 5020 322 L 5020 322 L 5018 322 L 5018 322 L 5018 322 L 5018 322 L 5018 322 L 5018 322 L 5018 324 L 5018 324 L 5016 324 L 5016 324 L 5016 324 L 5016 324 L 5016 324 L 5016 326 L 5016 326 L 5016 326 L 5016 326 L 5016 326 L 5016 326 L 5016 328 L 5016 328 L 5016 328 L 5010 336 L 5002 342 L 5000 342 L 5000 342 L 4998 342 L 4996 344 L 4996 344 L 4994 344 L 4992 346 L 4992 346 L 4990 348 L 4990 348 L 4988 350 L 4988 350 L 4986 352 L 4986 352 L 4984 354 L 4984 356 L 4984 356 L 4982 358 L 4982 360 L 4982 360 L 4980 362 L 4980 364 L 4980 364 L 4980 366 L 4980 368 L 4980 370 L 4978 370 L 4978 372 L 4978 374 L 4978 374 L 4980 376 L 4980 378 L 4980 382 L 4980 388 L 4980 394 L 4980 398 L 4978 402 L 4978 406 L 4980 412 L 4980 416 L 4980 420 L 4982 424 L 4982 430 L 4984 434 L 4984 438 L 4986 442 L 4988 446 L 4990 450 L 4992 454 L 4994 458 L 5000 468 L 5004 472 L 5014 484 L 5024 496 L 5050 534 L 5052 540 L 5056 546 L 5058 552 L 5060 558 L 5062 564 L 5062 572 L 5064 578 L 5064 584 L 5066 590 L 5066 608 L 5066 610 L 5066 610 L 5066 612 L 5066 614 L 5066 616 L 5066 618 L 5064 620 L 5064 620 L 5064 622 L 5062 624 L 5062 626 L 5062 626 L 5060 628 L 5060 630 L 5058 632 L 5058 632 L 5056 634 L 5056 634 L 5054 636 L 5054 638 L 5052 638 L 5050 640 L 5050 640 L 5048 642 L 5046 642 L 5046 642 L 5044 644 L 5042 644 L 5040 644 L 5036 646 L 5026 648 L 5016 650 L 5006 652 L 4996 654 L 4974 654 L 4954 656 L 4916 656" stroke="#FFC114" stroke-width="50.00001" fill="none" stroke-linecap="round" stroke-linejoin="round"/></svg>